<?xml version="1.0" encoding="utf-8"?>
<!-- Generator: Adobe Illustrator 26.0.1, SVG Export Plug-In . SVG Version: 6.00 Build 0)  -->
<svg version="1.1" id="Layer_1" xmlns="http://www.w3.org/2000/svg" xmlns:xlink="http://www.w3.org/1999/xlink" x="0px" y="0px"
	 viewBox="0 0 162.1 51.3" style="enable-background:new 0 0 162.1 51.3;" xml:space="preserve">
<style type="text/css">
	.st0{fill-rule:evenodd;clip-rule:evenodd;fill:#CCCCCC;}
	.st1{fill-rule:evenodd;clip-rule:evenodd;fill:url(#SVGID_1_);}
	.st2{fill-rule:evenodd;clip-rule:evenodd;fill:url(#SVGID_00000124151331508024129040000008811679031675902352_);}
	.st3{fill-rule:evenodd;clip-rule:evenodd;fill:url(#SVGID_00000138565710335315097510000010620202314234563489_);}
	.st4{fill-rule:evenodd;clip-rule:evenodd;fill:url(#SVGID_00000173129844192131360580000017639102405099953300_);}
	.st5{fill-rule:evenodd;clip-rule:evenodd;fill:url(#SVGID_00000031206394342798529410000006939239923078971301_);}
	.st6{fill-rule:evenodd;clip-rule:evenodd;fill:url(#SVGID_00000114070428613224711420000000252879069405978786_);}
	.st7{fill-rule:evenodd;clip-rule:evenodd;fill:url(#SVGID_00000161606054703983568960000001476070028277598139_);}
	.st8{fill-rule:evenodd;clip-rule:evenodd;fill:url(#SVGID_00000134227414731827104170000015291623195181780376_);}
	.st9{fill-rule:evenodd;clip-rule:evenodd;fill:url(#SVGID_00000072269471446376893840000016434958991839705786_);}
	.st10{fill-rule:evenodd;clip-rule:evenodd;fill:url(#SVGID_00000179619246005969700290000012948709768953434796_);}
	.st11{fill-rule:evenodd;clip-rule:evenodd;fill:url(#SVGID_00000137125092239881728790000017903018523566237883_);}
	.st12{fill-rule:evenodd;clip-rule:evenodd;fill:url(#SVGID_00000042707156255467094190000011051327448973244599_);}
	.st13{fill-rule:evenodd;clip-rule:evenodd;fill:url(#SVGID_00000155829623241177603540000004793334756373151930_);}
	.st14{fill-rule:evenodd;clip-rule:evenodd;fill:url(#SVGID_00000038415241007111221980000014866940133942005435_);}
	.st15{fill-rule:evenodd;clip-rule:evenodd;fill:url(#SVGID_00000062888944650458482640000006141597807264593047_);}
	.st16{fill-rule:evenodd;clip-rule:evenodd;fill:url(#SVGID_00000001634715265513233270000001674191854717067928_);}
	.st17{fill-rule:evenodd;clip-rule:evenodd;fill:url(#SVGID_00000025429744185088446580000017541991321889558457_);}
	.st18{fill-rule:evenodd;clip-rule:evenodd;fill:url(#SVGID_00000127756788064031508440000018402268393842503333_);}
	.st19{fill-rule:evenodd;clip-rule:evenodd;fill:url(#SVGID_00000109736852326283036540000009134803873230330559_);}
	.st20{fill-rule:evenodd;clip-rule:evenodd;fill:url(#SVGID_00000024685597085468356200000016865509105716230312_);}
	.st21{fill-rule:evenodd;clip-rule:evenodd;fill:url(#SVGID_00000047017719069007272710000010864822036666164917_);}
	.st22{fill-rule:evenodd;clip-rule:evenodd;fill:url(#SVGID_00000134962616335032339060000013597821970845660351_);}
	.st23{fill-rule:evenodd;clip-rule:evenodd;fill:#FFC7D7;}
	.st24{fill-rule:evenodd;clip-rule:evenodd;fill:url(#SVGID_00000107560667032165353810000004279366355585379742_);}
	.st25{opacity:0.35;}
	.st26{opacity:0.65;fill-rule:evenodd;clip-rule:evenodd;fill:url(#SVGID_00000035516948357624880620000001705026484860029331_);}
	.st27{fill-rule:evenodd;clip-rule:evenodd;fill:url(#SVGID_00000018953102618580287370000012212833560933664903_);}
	.st28{fill-rule:evenodd;clip-rule:evenodd;fill:url(#SVGID_00000055681109710178159150000009969361376423124159_);}
	.st29{fill-rule:evenodd;clip-rule:evenodd;fill:url(#SVGID_00000117637611321570674850000001883743339854148543_);}
	.st30{opacity:0.65;fill-rule:evenodd;clip-rule:evenodd;fill:url(#SVGID_00000127020725944672275420000003548827733508630687_);}
	.st31{fill-rule:evenodd;clip-rule:evenodd;fill:url(#SVGID_00000013911820531947121290000002978879361956747696_);}
	.st32{opacity:0.5;fill-rule:evenodd;clip-rule:evenodd;fill:url(#SVGID_00000106148113460082068530000011025035048730113207_);}
	.st33{fill-rule:evenodd;clip-rule:evenodd;fill:url(#SVGID_00000152951518855849595200000005054757687126862777_);}
	.st34{opacity:0.65;fill-rule:evenodd;clip-rule:evenodd;fill:url(#SVGID_00000018931103168006099770000014613842916146662547_);}
	.st35{opacity:0.65;fill-rule:evenodd;clip-rule:evenodd;fill:url(#SVGID_00000034805921205657973450000008881294318136013699_);}
	.st36{fill-rule:evenodd;clip-rule:evenodd;fill:url(#SVGID_00000147931252068119534420000018005917105982814376_);}
	.st37{opacity:0.65;fill-rule:evenodd;clip-rule:evenodd;fill:url(#SVGID_00000130607235729046199900000005611510744553454237_);}
	.st38{opacity:0.5;fill-rule:evenodd;clip-rule:evenodd;fill:url(#SVGID_00000033351075032863609560000004829315216958516371_);}
	.st39{fill-rule:evenodd;clip-rule:evenodd;fill:url(#SVGID_00000143588621832430273380000016820960818112248475_);}
	.st40{opacity:0.65;fill-rule:evenodd;clip-rule:evenodd;fill:url(#SVGID_00000083074669166036709970000013600904170848215990_);}
	.st41{fill-rule:evenodd;clip-rule:evenodd;fill:url(#SVGID_00000052825173305134166050000017650213110115389356_);}
	.st42{fill-rule:evenodd;clip-rule:evenodd;fill:url(#SVGID_00000173879521560349614290000008401085828817310384_);}
	.st43{fill-rule:evenodd;clip-rule:evenodd;fill:url(#SVGID_00000150793654543568957840000016962374028569071022_);}
	.st44{fill-rule:evenodd;clip-rule:evenodd;fill:url(#SVGID_00000064329070941272592540000010315440031441723834_);}
	.st45{fill-rule:evenodd;clip-rule:evenodd;fill:url(#SVGID_00000142138759438178591750000006346275506558553227_);}
	.st46{fill-rule:evenodd;clip-rule:evenodd;fill:url(#SVGID_00000031924356276884353520000001939065486761017781_);}
	.st47{fill-rule:evenodd;clip-rule:evenodd;fill:url(#SVGID_00000041289011863569786660000001814571988403635855_);}
	.st48{fill-rule:evenodd;clip-rule:evenodd;fill:url(#SVGID_00000009581437928788891570000010998546693848616337_);}
	.st49{opacity:0.61;}
	.st50{fill:#FFFFFF;}
</style>
<g>
	<path class="st0" d="M24.1,1.5c-1.3,0.1-3.6,0.5-6.3,1.2c-2.6,0.7-4.9,1.5-6,2.1C10.7,5.5,8.9,7.1,7,9c-1.9,1.9-3.5,3.7-4.2,4.8
		c-0.6,1.2-1.4,3.4-2.1,6c-0.7,2.6-1.1,4.9-1.2,6.3c0.1,1.3,0.5,3.6,1.2,6.3s1.5,4.9,2.1,6c0.7,1.1,2.3,2.9,4.2,4.8
		c1.9,1.9,3.7,3.5,4.8,4.2c1.2,0.6,3.4,1.4,6,2.1c2.6,0.7,4.9,1.1,6.3,1.2c11.5,0.3,32.6,0.5,56.7,0.5c24.2,0,45.3-0.2,56.7-0.5
		c1.3-0.1,3.6-0.5,6.3-1.2c2.6-0.7,4.9-1.5,6-2.1c1.1-0.7,2.9-2.3,4.8-4.2c1.9-1.9,3.5-3.7,4.2-4.8c0.6-1.2,1.4-3.4,2.1-6
		c0.7-2.6,1.1-4.9,1.2-6.3c-0.1-1.3-0.5-3.6-1.2-6.3c-0.7-2.6-1.5-4.9-2.1-6c-0.7-1.1-2.3-2.9-4.2-4.8c-1.9-1.9-3.7-3.5-4.8-4.2
		c-1.2-0.6-3.4-1.4-6-2.1c-2.6-0.7-4.9-1.1-6.3-1.2l0,0C126.1,1.2,105,1,80.8,1C56.7,1,35.6,1.2,24.1,1.5L24.1,1.5L24.1,1.5z"/>
	<g>
		
			<radialGradient id="SVGID_1_" cx="-107.5161" cy="-55.7356" r="27.4881" gradientTransform="matrix(-1 0 0 -1 43.963 4.6233)" gradientUnits="userSpaceOnUse">
			<stop  offset="0" style="stop-color:#FFD2E9"/>
			<stop  offset="1" style="stop-color:#FF62B1"/>
		</radialGradient>
		<path class="st1" d="M137.3,44.7l0.3,5.9c1.3-0.1,3.6-0.5,6.3-1.2c2.6-0.7,4.9-1.5,6-2.1l-3-5.1c-1.4,0.6-3.2,1.1-4.6,1.5
			C140.8,44.1,138.8,44.6,137.3,44.7L137.3,44.7z"/>
		
			<radialGradient id="SVGID_00000140700249586327436630000007290265761968520837_" cx="-109.4388" cy="-41.7325" r="27.2807" gradientTransform="matrix(-1 0 0 -1 43.963 4.6233)" gradientUnits="userSpaceOnUse">
			<stop  offset="0" style="stop-color:#FFE0F0"/>
			<stop  offset="1" style="stop-color:#FF9DCF"/>
		</radialGradient>
		<path style="fill-rule:evenodd;clip-rule:evenodd;fill:url(#SVGID_00000140700249586327436630000007290265761968520837_);" d="
			M146.9,42.2l3,5.1c1.1-0.7,2.9-2.3,4.8-4.2c1.9-1.9,3.5-3.7,4.2-4.8l-5.1-3c-0.9,1.2-2.2,2.6-3.2,3.6
			C149.5,40,148.1,41.3,146.9,42.2L146.9,42.2z"/>
		
			<radialGradient id="SVGID_00000142855891075831878050000000500482125938298298_" cx="-140.6811" cy="-36.0006" r="31.6899" gradientTransform="matrix(-1 0 0 -1 43.963 4.6233)" gradientUnits="userSpaceOnUse">
			<stop  offset="0" style="stop-color:#FFE0F0"/>
			<stop  offset="1" style="stop-color:#FF9DCF"/>
		</radialGradient>
		<path style="fill-rule:evenodd;clip-rule:evenodd;fill:url(#SVGID_00000142855891075831878050000000500482125938298298_);" d="
			M153.7,35.4l5.1,3c0.6-1.2,1.4-3.4,2.1-6c0.7-2.6,1.1-4.9,1.2-6.3l-5.9,0c-0.2,1.5-0.6,3.4-1,4.7C154.8,32.2,154.3,34,153.7,35.4
			L153.7,35.4z"/>
		
			<radialGradient id="SVGID_00000109719213772205452150000015189752127095184021_" cx="-151.0771" cy="-6.4767" r="58.2964" gradientTransform="matrix(-1 0 0 -1 43.963 4.6233)" gradientUnits="userSpaceOnUse">
			<stop  offset="0" style="stop-color:#FFD2E9"/>
			<stop  offset="1" style="stop-color:#FF62B1"/>
		</radialGradient>
		<path style="fill-rule:evenodd;clip-rule:evenodd;fill:url(#SVGID_00000109719213772205452150000015189752127095184021_);" d="
			M156.2,26.1l5.9,0c-0.1-1.3-0.5-3.6-1.2-6.3c-0.7-2.6-1.5-4.9-2.1-6l-5.1,3c0.6,1.4,1.1,3.2,1.5,4.6
			C155.6,22.7,156.1,24.6,156.2,26.1L156.2,26.1z"/>
		
			<radialGradient id="SVGID_00000164480713264342612430000011826005627749658790_" cx="-101.0168" cy="11.3616" r="27.4478" gradientTransform="matrix(-1 0 0 -1 43.963 4.6233)" gradientUnits="userSpaceOnUse">
			<stop  offset="0" style="stop-color:#FFD2E9"/>
			<stop  offset="1" style="stop-color:#FF62B1"/>
		</radialGradient>
		<path style="fill-rule:evenodd;clip-rule:evenodd;fill:url(#SVGID_00000164480713264342612430000011826005627749658790_);" d="
			M153.7,16.7l5.1-3c-0.7-1.1-2.3-2.9-4.2-4.8c-1.9-1.9-3.7-3.5-4.8-4.2l-3,5.1c1.2,0.9,2.6,2.2,3.6,3.2
			C151.5,14.2,152.8,15.5,153.7,16.7L153.7,16.7z"/>
		
			<radialGradient id="SVGID_00000062883817653677559530000009440936781560764043_" cx="-81.592" cy="8.1261" r="43.4581" gradientTransform="matrix(-1 0 0 -1 43.963 4.6233)" gradientUnits="userSpaceOnUse">
			<stop  offset="0" style="stop-color:#FFB6DB"/>
			<stop  offset="1" style="stop-color:#E30A76"/>
		</radialGradient>
		<path style="fill-rule:evenodd;clip-rule:evenodd;fill:url(#SVGID_00000062883817653677559530000009440936781560764043_);" d="
			M146.9,9.9l3-5.1c-1.2-0.6-3.4-1.4-6-2.1c-2.6-0.7-4.9-1.1-6.3-1.2l-0.3,5.9c1.5,0.1,3.5,0.6,5,1C143.7,8.8,145.5,9.3,146.9,9.9
			L146.9,9.9z"/>
	</g>
	
		<linearGradient id="SVGID_00000137837606531783472140000013266559885343691665_" gradientUnits="userSpaceOnUse" x1="12.82" y1="4.7138" x2="150.3803" y2="47.8769">
		<stop  offset="0" style="stop-color:#FFA6D2"/>
		<stop  offset="1" style="stop-color:#EB3F95"/>
	</linearGradient>
	<path style="fill-rule:evenodd;clip-rule:evenodd;fill:url(#SVGID_00000137837606531783472140000013266559885343691665_);" d="
		M14.8,9.9c-1.2,0.9-2.6,2.2-3.6,3.2c-1,1-2.4,2.4-3.2,3.6c-0.6,1.4-1.1,3.2-1.5,4.6c-0.4,1.4-0.9,3.2-1,4.7c0.2,1.5,0.6,3.3,1,4.7
		C6.9,32.2,7.4,34,8,35.4c0.9,1.2,2.2,2.6,3.2,3.6c1,1,2.4,2.4,3.6,3.2c1.4,0.6,3.2,1.1,4.6,1.5c1.5,0.4,3.5,0.9,5,1
		c7.8,0.2,15.6,0.3,23.4,0.3c11,0.1,22.1,0.1,33.1,0.1c11,0,22.1,0,33.1-0.1c7.8-0.1,15.6-0.1,23.4-0.3c1.5-0.1,3.5-0.6,5-1
		c1.4-0.4,3.2-0.9,4.6-1.5c1.2-0.9,2.6-2.2,3.6-3.2c1-1,2.4-2.4,3.2-3.6c0.6-1.4,1.1-3.2,1.5-4.6c0.4-1.4,0.9-3.2,1-4.7
		c-0.2-1.5-0.6-3.3-1-4.7c-0.4-1.4-0.9-3.2-1.5-4.6c-0.9-1.2-2.2-2.6-3.2-3.6c-1-1-2.4-2.4-3.6-3.2c-1.4-0.6-3.2-1.1-4.6-1.5
		c-1.5-0.4-3.5-0.9-5-1c-7.8-0.2-15.6-0.3-23.4-0.3c-11-0.1-22.1-0.1-33.1-0.1c-11,0-22.1,0-33.1,0.1C40,7.1,32.2,7.2,24.4,7.4
		c-1.5,0.1-3.5,0.6-5,1C18,8.8,16.2,9.3,14.8,9.9L14.8,9.9z"/>
	<g>
		
			<radialGradient id="SVGID_00000058556460296310959090000005283096531012798133_" cx="10.2177" cy="-8.2403" r="27.488" gradientUnits="userSpaceOnUse">
			<stop  offset="0" style="stop-color:#FFD2E9"/>
			<stop  offset="1" style="stop-color:#FF62B1"/>
		</radialGradient>
		<path style="fill-rule:evenodd;clip-rule:evenodd;fill:url(#SVGID_00000058556460296310959090000005283096531012798133_);" d="
			M24.4,7.4l-0.3-5.9c-1.3,0.1-3.6,0.5-6.3,1.2c-2.6,0.7-4.9,1.5-6,2.1l3,5.1c1.4-0.6,3.2-1.1,4.6-1.5C20.9,8.1,22.9,7.5,24.4,7.4
			L24.4,7.4z"/>
		
			<radialGradient id="SVGID_00000160878290088807431220000006138712251941005963_" cx="8.2948" cy="5.763" r="27.2807" gradientUnits="userSpaceOnUse">
			<stop  offset="0" style="stop-color:#FFFCFE"/>
			<stop  offset="1" style="stop-color:#FF9DCF"/>
		</radialGradient>
		<path style="fill-rule:evenodd;clip-rule:evenodd;fill:url(#SVGID_00000160878290088807431220000006138712251941005963_);" d="
			M14.8,9.9l-3-5.1C10.7,5.5,8.9,7.1,7,9c-1.9,1.9-3.5,3.7-4.2,4.8l5.1,3c0.9-1.2,2.2-2.6,3.2-3.6C12.2,12.2,13.6,10.8,14.8,9.9
			L14.8,9.9z"/>
		
			<radialGradient id="SVGID_00000099662067766866345130000003871732818721165223_" cx="-22.947" cy="11.4948" r="31.6895" gradientUnits="userSpaceOnUse">
			<stop  offset="0" style="stop-color:#FFE0F0"/>
			<stop  offset="1" style="stop-color:#FF9DCF"/>
		</radialGradient>
		<path style="fill-rule:evenodd;clip-rule:evenodd;fill:url(#SVGID_00000099662067766866345130000003871732818721165223_);" d="
			M8,16.7l-5.1-3c-0.6,1.2-1.4,3.4-2.1,6c-0.7,2.6-1.1,4.9-1.2,6.3l5.9,0c0.2-1.5,0.6-3.3,1-4.7C6.9,20,7.4,18.1,8,16.7L8,16.7z"/>
		
			<radialGradient id="SVGID_00000034061821029665124260000015266962651593171848_" cx="-33.3429" cy="41.0187" r="58.2955" gradientUnits="userSpaceOnUse">
			<stop  offset="0" style="stop-color:#FFD2E9"/>
			<stop  offset="1" style="stop-color:#FF62B1"/>
		</radialGradient>
		<path style="fill-rule:evenodd;clip-rule:evenodd;fill:url(#SVGID_00000034061821029665124260000015266962651593171848_);" d="
			M5.5,26.1l-5.9,0c0.1,1.3,0.5,3.6,1.2,6.3s1.5,4.9,2.1,6l5.1-3c-0.6-1.4-1.1-3.2-1.5-4.6C6.1,29.4,5.6,27.5,5.5,26.1L5.5,26.1z"/>
		
			<radialGradient id="SVGID_00000072983772438304667760000004573448561627498383_" cx="-11.8391" cy="51.6195" r="27.4479" gradientUnits="userSpaceOnUse">
			<stop  offset="0" style="stop-color:#FFD2E9"/>
			<stop  offset="1" style="stop-color:#FF62B1"/>
		</radialGradient>
		<path style="fill-rule:evenodd;clip-rule:evenodd;fill:url(#SVGID_00000072983772438304667760000004573448561627498383_);" d="
			M8,35.4l-5.1,3c0.7,1.1,2.3,2.9,4.2,4.8c1.9,1.9,3.7,3.5,4.8,4.2l3-5.1c-1.2-0.9-2.6-2.2-3.6-3.2C10.2,38,8.9,36.6,8,35.4L8,35.4z
			"/>
		
			<radialGradient id="SVGID_00000114039095054783866960000010094506347563485062_" cx="1.7955" cy="65.3596" r="43.4579" gradientUnits="userSpaceOnUse">
			<stop  offset="0" style="stop-color:#FFB6DB"/>
			<stop  offset="1" style="stop-color:#E30A76"/>
		</radialGradient>
		<path style="fill-rule:evenodd;clip-rule:evenodd;fill:url(#SVGID_00000114039095054783866960000010094506347563485062_);" d="
			M14.8,42.2l-3,5.1c1.2,0.6,3.4,1.4,6,2.1c2.6,0.7,4.9,1.1,6.3,1.2l0.3-5.9c-1.5-0.1-3.5-0.6-5-1C18,43.3,16.2,42.8,14.8,42.2
			L14.8,42.2z"/>
	</g>
	
		<radialGradient id="SVGID_00000049919220268132278480000010224148302393766805_" cx="57.4244" cy="-78.9603" r="99.988" gradientUnits="userSpaceOnUse">
		<stop  offset="0" style="stop-color:#FFE0F0"/>
		<stop  offset="1" style="stop-color:#FF9DCF"/>
	</radialGradient>
	<path style="fill-rule:evenodd;clip-rule:evenodd;fill:url(#SVGID_00000049919220268132278480000010224148302393766805_);" d="
		M24.4,7.4C32.2,7.2,40,7.1,47.8,7.1c11-0.1,22.1-0.1,33.1-0.1c11,0,22.1,0,33.1,0.1c7.8,0.1,15.6,0.1,23.4,0.3l0.3-5.9
		C126.1,1.2,105,1,80.8,1C56.7,1,35.6,1.2,24.1,1.5L24.4,7.4L24.4,7.4z"/>
	
		<radialGradient id="SVGID_00000119075649670482981810000006251420961454897024_" cx="62.1618" cy="-22.0971" r="102.6592" gradientUnits="userSpaceOnUse">
		<stop  offset="0" style="stop-color:#FFB6DB"/>
		<stop  offset="1" style="stop-color:#EB2E8C"/>
	</radialGradient>
	<path style="fill-rule:evenodd;clip-rule:evenodd;fill:url(#SVGID_00000119075649670482981810000006251420961454897024_);" d="
		M47.8,45.1C40,45,32.2,44.9,24.4,44.7l-0.3,5.9c11.5,0.3,32.6,0.5,56.7,0.5c24.2,0,45.3-0.2,56.7-0.5l-0.3-5.9
		c-7.8,0.2-15.6,0.3-23.4,0.3c-11,0.1-22.1,0.1-33.1,0.1C69.8,45.2,58.8,45.2,47.8,45.1L47.8,45.1z"/>
	
		<radialGradient id="SVGID_00000126287612216167478530000013076181251118437760_" cx="80.8482" cy="47.9113" r="86.9072" gradientUnits="userSpaceOnUse">
		<stop  offset="0" style="stop-color:#FF8ECB"/>
		<stop  offset="1" style="stop-color:#000000"/>
	</radialGradient>
	<path style="fill-rule:evenodd;clip-rule:evenodd;fill:url(#SVGID_00000126287612216167478530000013076181251118437760_);" d="
		M80.8,49.2c-31.2,0-56.5-2-56.5-4.5l-0.3,5.9c11.5,0.3,32.6,0.5,56.7,0.5c24.2,0,45.3-0.2,56.7-0.5l-0.3-5.9
		C137.3,47.2,112,49.2,80.8,49.2L80.8,49.2z"/>
	
		<radialGradient id="SVGID_00000147216889939782912800000003529674489256437662_" cx="8.9966" cy="3.6575" r="17.7063" gradientUnits="userSpaceOnUse">
		<stop  offset="0" style="stop-color:#FF98D0"/>
		<stop  offset="1" style="stop-color:#000000"/>
	</radialGradient>
	<path style="fill-rule:evenodd;clip-rule:evenodd;fill:url(#SVGID_00000147216889939782912800000003529674489256437662_);" d="
		M11.8,4.8c3,5.1-3.8,12-9,9l5.1,3c0.9-1.2,2.2-2.6,3.2-3.6c1-1,2.4-2.4,3.6-3.2L11.8,4.8L11.8,4.8z"/>
	
		<radialGradient id="SVGID_00000067926103322148213780000003000779628086010300_" cx="2.6259" cy="13.8635" r="12.0855" gradientUnits="userSpaceOnUse">
		<stop  offset="0" style="stop-color:#FF98D0"/>
		<stop  offset="1" style="stop-color:#000000"/>
	</radialGradient>
	<path style="fill-rule:evenodd;clip-rule:evenodd;fill:url(#SVGID_00000067926103322148213780000003000779628086010300_);" d="
		M2.8,13.8c5.1,3,2.7,12.3-3.3,12.3l5.9,0c0.2-1.5,0.6-3.3,1-4.7C6.9,20,7.4,18.1,8,16.7L2.8,13.8L2.8,13.8z"/>
	
		<radialGradient id="SVGID_00000106851083962680351990000006043933129775978911_" cx="1.31" cy="24.7411" r="12.8793" gradientUnits="userSpaceOnUse">
		<stop  offset="0" style="stop-color:#FF98D0"/>
		<stop  offset="1" style="stop-color:#000000"/>
	</radialGradient>
	<path style="fill-rule:evenodd;clip-rule:evenodd;fill:url(#SVGID_00000106851083962680351990000006043933129775978911_);" d="
		M-0.5,26.1c5.9,0,9.7,8.6,4.8,11.4L8,35.4c-0.6-1.4-1.1-3.2-1.5-4.6c-0.4-1.4-0.9-3.2-1-4.7L-0.5,26.1L-0.5,26.1z"/>
	
		<radialGradient id="SVGID_00000072243654588078386610000011330380869802772136_" cx="155.9459" cy="39.9512" r="15.908" gradientUnits="userSpaceOnUse">
		<stop  offset="0" style="stop-color:#FF8ECB"/>
		<stop  offset="1" style="stop-color:#000000"/>
	</radialGradient>
	<path style="fill-rule:evenodd;clip-rule:evenodd;fill:url(#SVGID_00000072243654588078386610000011330380869802772136_);" d="
		M149.9,47.3c-3-5.1,3.8-12,9-9l-5.1-3c-0.9,1.2-2.2,2.6-3.2,3.6c-1,1-2.4,2.4-3.6,3.2L149.9,47.3L149.9,47.3z"/>
	
		<radialGradient id="SVGID_00000153688018523428601290000007546873129458049178_" cx="160.1234" cy="24.5692" r="14.6863" gradientUnits="userSpaceOnUse">
		<stop  offset="0" style="stop-color:#FF8ECB"/>
		<stop  offset="1" style="stop-color:#000000"/>
	</radialGradient>
	<path style="fill-rule:evenodd;clip-rule:evenodd;fill:url(#SVGID_00000153688018523428601290000007546873129458049178_);" d="
		M158.9,38.3c-5.1-3-2.7-12.3,3.3-12.3h-5.9c-0.2,1.5-0.6,3.3-1,4.7c-0.4,1.4-0.9,3.2-1.5,4.6L158.9,38.3L158.9,38.3z"/>
	
		<radialGradient id="SVGID_00000072966189221876942920000005063658149542354871_" cx="159.6848" cy="11.3228" r="15.0455" gradientUnits="userSpaceOnUse">
		<stop  offset="0" style="stop-color:#FF8ECB"/>
		<stop  offset="1" style="stop-color:#000000"/>
	</radialGradient>
	<path style="fill-rule:evenodd;clip-rule:evenodd;fill:url(#SVGID_00000072966189221876942920000005063658149542354871_);" d="
		M162.1,26.1c-5.9,0-9.7-8.6-4.8-11.4l-3.6,2.1c0.6,1.4,1.1,3.2,1.5,4.6c0.4,1.4,0.9,3.2,1,4.7H162.1L162.1,26.1z"/>
	<path class="st23" d="M3.7,14.3C4.8,15.1,5.9,16,7,16.9l0.1,0.5C6.2,20,5.6,22.7,5,25.4l-0.4,0.3c-1,0.1-1.9,0.2-2.9,0.3
		c1,0.1,1.9,0.2,2.9,0.3L5,26.7c0.5,1.5,1.1,3.1,1.6,4.6c0-0.2-0.1-0.3-0.1-0.5c-0.4-1.4-0.9-3.2-1-4.7c0.2-1.5,0.6-3.3,1-4.7
		C6.9,20,7.4,18.1,8,16.7c0.9-1.2,2.2-2.6,3.2-3.6c1-1,2.4-2.4,3.6-3.2c1.4-0.6,3.2-1.1,4.6-1.5c1.5-0.4,3.5-0.9,5-1
		C32.2,7.2,40,7.1,47.8,7.1c11-0.1,22.1-0.1,33.1-0.1c11,0,22.1,0,33.1,0.1c7.8,0.1,15.6,0.1,23.4,0.3c1.5,0.1,3.5,0.6,5,1
		c0.6,0.2,1.3,0.4,2,0.6c-2.2-0.7-4.4-1.4-6.8-2c0-0.9-0.1-1.7-0.1-2.6c-0.1,0.9-0.3,1.7-0.4,2.6c-37.4-0.4-74.8-1-112-0.1l-0.3-0.3
		c-0.2-1.4-0.4-2.8-0.6-4.3c0,1.5-0.1,2.8-0.1,4.3l-0.3,0.3c-2.8,0.5-5.6,1.3-8.4,2.1l-0.5-0.1c-1-1.4-1.9-2.7-2.9-4.1
		c0.7,1.5,1.4,3.1,2,4.6l-0.1,0.5c-2.1,1.8-4,3.7-5.8,5.6l-0.5,0.1C6.3,15.3,5,14.8,3.7,14.3L3.7,14.3z"/>
	<path class="st23" d="M136.7,45.6c0.3,1.2,0.5,2.5,0.8,3.7c0.1-1.3,0.2-2.5,0.3-3.8l0.3-0.4c2.7-0.6,5.5-1.3,8.3-2.3l0.5,0.1
		c0.9,1.3,1.9,2.7,2.8,4c-0.7-1.4-1.4-2.9-2.1-4.3l0.1-0.5c2.1-1.9,4.1-4,6-6.1l0.5-0.1c1,0.5,2,0.9,3,1.4c-0.9-0.6-1.7-1.2-2.6-1.8
		l-0.2-0.5c0.5-2.1,1-4.2,1.3-6.3c-0.2,0.7-0.3,1.3-0.5,1.9c-0.4,1.4-0.9,3.2-1.5,4.6c-0.9,1.2-2.2,2.6-3.2,3.6
		c-1,1-2.4,2.4-3.6,3.2c-1.4,0.6-3.2,1.1-4.6,1.5c-1.5,0.4-3.5,0.9-5,1c-7.8,0.2-15.6,0.3-23.4,0.3c-9.7,0.1-19.5,0.1-29.2,0.1
		c17.2,0.4,34.7,0.2,51.6,0.1L136.7,45.6L136.7,45.6z"/>
	
		<radialGradient id="SVGID_00000029746055653673593650000015519449666091053985_" cx="80.8482" cy="1.6092" r="111.7647" gradientUnits="userSpaceOnUse">
		<stop  offset="0" style="stop-color:#FF8ECB"/>
		<stop  offset="1" style="stop-color:#000000"/>
	</radialGradient>
	<path style="fill-rule:evenodd;clip-rule:evenodd;fill:url(#SVGID_00000029746055653673593650000015519449666091053985_);" d="
		M137.6,1.5C126.1,1.2,105,1,80.8,1C56.7,1,35.6,1.2,24.1,1.5c0,0.4,25.4,0.7,56.7,0.7C111.6,2.2,136.6,1.9,137.6,1.5L137.6,1.5
		L137.6,1.5z"/>
	<g class="st25">
		
			<radialGradient id="SVGID_00000137822119074653054880000002821502839543768996_" cx="15.9049" cy="-3.6196" r="66.564" gradientUnits="userSpaceOnUse">
			<stop  offset="0" style="stop-color:#FF98D0"/>
			<stop  offset="1" style="stop-color:#000000"/>
		</radialGradient>
		
			<path style="opacity:0.65;fill-rule:evenodd;clip-rule:evenodd;fill:url(#SVGID_00000137822119074653054880000002821502839543768996_);" d="
			M8,16.7l72.9,9.3L24.4,7.4c-1.5,0.1-3.5,0.6-5,1c-1.4,0.4-3.2,0.9-4.6,1.5c-1.2,0.9-2.6,2.2-3.6,3.2C10.2,14.2,8.9,15.5,8,16.7
			L8,16.7z"/>
		
			<radialGradient id="SVGID_00000155144989478067499740000009937536160205226424_" cx="36.1283" cy="-2.3886" r="53.2284" gradientUnits="userSpaceOnUse">
			<stop  offset="0" style="stop-color:#FF98D0"/>
			<stop  offset="1" style="stop-color:#000000"/>
		</radialGradient>
		<path style="fill-rule:evenodd;clip-rule:evenodd;fill:url(#SVGID_00000155144989478067499740000009937536160205226424_);" d="
			M24.4,7.4l56.5,18.7l-33.1-19C40,7.1,32.2,7.2,24.4,7.4L24.4,7.4z"/>
		
			<radialGradient id="SVGID_00000088106858310326801560000013396877770879827080_" cx="60.449" cy="-10.1598" r="37.8011" gradientUnits="userSpaceOnUse">
			<stop  offset="0" style="stop-color:#FF98D0"/>
			<stop  offset="1" style="stop-color:#000000"/>
		</radialGradient>
		<path style="fill-rule:evenodd;clip-rule:evenodd;fill:url(#SVGID_00000088106858310326801560000013396877770879827080_);" d="
			M47.8,7.1l33.1,19L70.2,13.8l-6-6.9C58.7,7,53.3,7,47.8,7.1L47.8,7.1z"/>
		
			<radialGradient id="SVGID_00000081621085102855047860000015352312545543684224_" cx="71.3061" cy="2.2825" r="30.4703" gradientUnits="userSpaceOnUse">
			<stop  offset="0" style="stop-color:#FF98D0"/>
			<stop  offset="1" style="stop-color:#000000"/>
		</radialGradient>
		<path style="fill-rule:evenodd;clip-rule:evenodd;fill:url(#SVGID_00000081621085102855047860000015352312545543684224_);" d="
			M70.2,13.8l10.6,12.2V6.9c-5.5,0-11.1,0-16.6,0L70.2,13.8L70.2,13.8z"/>
		
			<radialGradient id="SVGID_00000003805986145999548230000008730134921377362313_" cx="63.7861" cy="-4.9167" r="85.4965" gradientUnits="userSpaceOnUse">
			<stop  offset="0" style="stop-color:#FF8ECB"/>
			<stop  offset="1" style="stop-color:#000000"/>
		</radialGradient>
		
			<path style="opacity:0.65;fill-rule:evenodd;clip-rule:evenodd;fill:url(#SVGID_00000003805986145999548230000008730134921377362313_);" d="
			M80.8,26.1L8,16.7c-0.6,1.4-1.1,3.2-1.5,4.6c-0.4,1.4-0.9,3.2-1,4.7H80.8L80.8,26.1z"/>
		
			<radialGradient id="SVGID_00000128475426594191165040000009884443972052655748_" cx="20.2039" cy="43.0172" r="64.9153" gradientUnits="userSpaceOnUse">
			<stop  offset="0" style="stop-color:#FF98D0"/>
			<stop  offset="1" style="stop-color:#000000"/>
		</radialGradient>
		<path style="fill-rule:evenodd;clip-rule:evenodd;fill:url(#SVGID_00000128475426594191165040000009884443972052655748_);" d="
			M8,35.4l72.9-9.3L24.4,44.7c-1.5-0.1-3.5-0.6-5-1c-1.4-0.4-3.2-0.9-4.6-1.5c-1.2-0.9-2.6-2.2-3.6-3.2C10.2,38,8.9,36.6,8,35.4
			L8,35.4z"/>
		
			<radialGradient id="SVGID_00000148630160488664238560000006896727500977839282_" cx="74.2032" cy="32.3989" r="57.6138" gradientUnits="userSpaceOnUse">
			<stop  offset="0" style="stop-color:#FF98D0"/>
			<stop  offset="1" style="stop-color:#FFFFFF"/>
		</radialGradient>
		
			<path style="opacity:0.5;fill-rule:evenodd;clip-rule:evenodd;fill:url(#SVGID_00000148630160488664238560000006896727500977839282_);" d="
			M24.4,44.7l56.5-18.7l-33.1,19C40,45,32.2,44.9,24.4,44.7L24.4,44.7z"/>
		
			<radialGradient id="SVGID_00000062872113735540805050000003348097453804440474_" cx="46.6754" cy="49.5572" r="84.7486" gradientUnits="userSpaceOnUse">
			<stop  offset="0" style="stop-color:#FF98D0"/>
			<stop  offset="1" style="stop-color:#000000"/>
		</radialGradient>
		<path style="fill-rule:evenodd;clip-rule:evenodd;fill:url(#SVGID_00000062872113735540805050000003348097453804440474_);" d="
			M47.8,45.1l33.1-19L70.2,38.3l-6,6.9C58.7,45.1,53.3,45.1,47.8,45.1L47.8,45.1z"/>
		
			<radialGradient id="SVGID_00000159435106139342090350000013173476208820103577_" cx="63.0595" cy="56.6789" r="33.3687" gradientUnits="userSpaceOnUse">
			<stop  offset="0" style="stop-color:#FF98D0"/>
			<stop  offset="1" style="stop-color:#000000"/>
		</radialGradient>
		
			<path style="opacity:0.65;fill-rule:evenodd;clip-rule:evenodd;fill:url(#SVGID_00000159435106139342090350000013173476208820103577_);" d="
			M70.2,38.3l10.6-12.2v19.1c-5.5,0-11.1,0-16.6,0L70.2,38.3L70.2,38.3z"/>
		
			<radialGradient id="SVGID_00000119098533780596456160000001879318713872060297_" cx="0.8838" cy="-14.2022" r="75.4174" gradientUnits="userSpaceOnUse">
			<stop  offset="0" style="stop-color:#FF98D0"/>
			<stop  offset="1" style="stop-color:#000000"/>
		</radialGradient>
		
			<path style="opacity:0.65;fill-rule:evenodd;clip-rule:evenodd;fill:url(#SVGID_00000119098533780596456160000001879318713872060297_);" d="
			M80.8,26.1L8,35.4c-0.6-1.4-1.1-3.2-1.5-4.6c-0.4-1.4-0.9-3.2-1-4.7H80.8L80.8,26.1z"/>
		
			<radialGradient id="SVGID_00000086683574179690152290000011761510547686899360_" cx="134.8253" cy="19.0147" r="78.8011" gradientUnits="userSpaceOnUse">
			<stop  offset="0" style="stop-color:#FF98D0"/>
			<stop  offset="1" style="stop-color:#000000"/>
		</radialGradient>
		<path style="fill-rule:evenodd;clip-rule:evenodd;fill:url(#SVGID_00000086683574179690152290000011761510547686899360_);" d="
			M153.7,16.7l-72.9,9.3l56.5-18.7c1.5,0.1,3.5,0.6,5,1c1.4,0.4,3.2,0.9,4.6,1.5c1.2,0.9,2.6,2.2,3.6,3.2
			C151.5,14.2,152.8,15.5,153.7,16.7L153.7,16.7z"/>
		
			<radialGradient id="SVGID_00000091698180135071118640000008810949340168423075_" cx="136.2713" cy="16.0348" r="63.5418" gradientUnits="userSpaceOnUse">
			<stop  offset="0" style="stop-color:#FF98D0"/>
			<stop  offset="1" style="stop-color:#000000"/>
		</radialGradient>
		
			<path style="opacity:0.65;fill-rule:evenodd;clip-rule:evenodd;fill:url(#SVGID_00000091698180135071118640000008810949340168423075_);" d="
			M137.3,7.4L80.8,26.1l33.1-19C121.7,7.1,129.5,7.2,137.3,7.4L137.3,7.4z"/>
		
			<radialGradient id="SVGID_00000073682135361028980380000009236148362686229907_" cx="73.4374" cy="52.8305" r="58.6904" gradientUnits="userSpaceOnUse">
			<stop  offset="0" style="stop-color:#FF98D0"/>
			<stop  offset="1" style="stop-color:#FFFFFF"/>
		</radialGradient>
		
			<path style="opacity:0.5;fill-rule:evenodd;clip-rule:evenodd;fill:url(#SVGID_00000073682135361028980380000009236148362686229907_);" d="
			M113.9,7.1l-33.1,19l10.6-12.2l6-6.9C103,7,108.4,7,113.9,7.1L113.9,7.1z"/>
		
			<radialGradient id="SVGID_00000063609413941657141490000007571386200133502392_" cx="94.2507" cy="2.8088" r="43.5893" gradientUnits="userSpaceOnUse">
			<stop  offset="0" style="stop-color:#FF98D0"/>
			<stop  offset="1" style="stop-color:#000000"/>
		</radialGradient>
		<path style="fill-rule:evenodd;clip-rule:evenodd;fill:url(#SVGID_00000063609413941657141490000007571386200133502392_);" d="
			M91.5,13.8L80.8,26.1V6.9c5.5,0,11.1,0,16.6,0L91.5,13.8L91.5,13.8z"/>
		
			<radialGradient id="SVGID_00000152235333652361152580000014281283497459418046_" cx="154.584" cy="26.6664" r="83.3614" gradientUnits="userSpaceOnUse">
			<stop  offset="0" style="stop-color:#FF98D0"/>
			<stop  offset="1" style="stop-color:#000000"/>
		</radialGradient>
		
			<path style="opacity:0.65;fill-rule:evenodd;clip-rule:evenodd;fill:url(#SVGID_00000152235333652361152580000014281283497459418046_);" d="
			M80.8,26.1l72.9-9.3c0.6,1.4,1.1,3.2,1.5,4.6c0.4,1.4,0.9,3.2,1,4.7H80.8L80.8,26.1z"/>
		
			<radialGradient id="SVGID_00000028323740051116471570000014557546897034496426_" cx="80.1694" cy="21.4356" r="67.9857" gradientUnits="userSpaceOnUse">
			<stop  offset="0" style="stop-color:#FF98D0"/>
			<stop  offset="1" style="stop-color:#FFFFFF"/>
		</radialGradient>
		<path style="fill-rule:evenodd;clip-rule:evenodd;fill:url(#SVGID_00000028323740051116471570000014557546897034496426_);" d="
			M153.7,35.4l-72.9-9.3l56.5,18.7c1.5-0.1,3.5-0.6,5-1c1.4-0.4,3.2-0.9,4.6-1.5c1.2-0.9,2.6-2.2,3.6-3.2
			C151.5,38,152.8,36.6,153.7,35.4L153.7,35.4z"/>
		
			<radialGradient id="SVGID_00000092426669450192117240000004209880625304011661_" cx="121.1817" cy="59.5075" r="65.9678" gradientUnits="userSpaceOnUse">
			<stop  offset="0" style="stop-color:#FF98D0"/>
			<stop  offset="1" style="stop-color:#000000"/>
		</radialGradient>
		<path style="fill-rule:evenodd;clip-rule:evenodd;fill:url(#SVGID_00000092426669450192117240000004209880625304011661_);" d="
			M137.3,44.7L80.8,26.1l33.1,19C121.7,45,129.5,44.9,137.3,44.7L137.3,44.7z"/>
		
			<radialGradient id="SVGID_00000083051912834465451020000007679808329633563823_" cx="104.2303" cy="59.2952" r="55.0933" gradientUnits="userSpaceOnUse">
			<stop  offset="0" style="stop-color:#FF98D0"/>
			<stop  offset="1" style="stop-color:#000000"/>
		</radialGradient>
		<path style="fill-rule:evenodd;clip-rule:evenodd;fill:url(#SVGID_00000083051912834465451020000007679808329633563823_);" d="
			M113.9,45.1l-33.1-19l10.6,12.2l6,6.9C103,45.1,108.4,45.1,113.9,45.1L113.9,45.1z"/>
		
			<radialGradient id="SVGID_00000140703766450651648780000013356075715429064359_" cx="91.531" cy="51.9415" r="43.8485" gradientUnits="userSpaceOnUse">
			<stop  offset="0" style="stop-color:#FF98D0"/>
			<stop  offset="1" style="stop-color:#000000"/>
		</radialGradient>
		<path style="fill-rule:evenodd;clip-rule:evenodd;fill:url(#SVGID_00000140703766450651648780000013356075715429064359_);" d="
			M91.5,38.3L80.8,26.1v19.1c5.5,0,11.1,0,16.6,0L91.5,38.3L91.5,38.3z"/>
		
			<radialGradient id="SVGID_00000101802968161191981530000006199883732602193291_" cx="154.3207" cy="73.3526" r="95.8528" gradientUnits="userSpaceOnUse">
			<stop  offset="0" style="stop-color:#FF98D0"/>
			<stop  offset="1" style="stop-color:#000000"/>
		</radialGradient>
		<path style="fill-rule:evenodd;clip-rule:evenodd;fill:url(#SVGID_00000101802968161191981530000006199883732602193291_);" d="
			M80.8,26.1l72.9,9.3c0.6-1.4,1.1-3.2,1.5-4.6c0.4-1.4,0.9-3.2,1-4.7H80.8L80.8,26.1z"/>
	</g>
	
		<radialGradient id="SVGID_00000070822781053591883880000007725484578281931187_" cx="20.7203" cy="-7.3687" r="62.5522" gradientUnits="userSpaceOnUse">
		<stop  offset="0" style="stop-color:#FFD1EA"/>
		<stop  offset="1" style="stop-color:#000000"/>
	</radialGradient>
	<path style="fill-rule:evenodd;clip-rule:evenodd;fill:url(#SVGID_00000070822781053591883880000007725484578281931187_);" d="
		M26.9,7.3l-21,21c0.2,0.9,0.4,1.7,0.6,2.4C6.9,32.2,7.4,34,8,35.4c0.9,1.2,2.2,2.6,3.2,3.6c1,1,2.4,2.4,3.6,3.2
		c0.2,0.1,0.4,0.2,0.6,0.3L50.8,7c-1,0-2,0-3,0C40.8,7.1,33.9,7.2,26.9,7.3L26.9,7.3z"/>
	
		<radialGradient id="SVGID_00000012449577867559202710000013404729385208055984_" cx="56.5855" cy="-5.6146" r="55.5186" gradientUnits="userSpaceOnUse">
		<stop  offset="0" style="stop-color:#FF8ECB"/>
		<stop  offset="1" style="stop-color:#000000"/>
	</radialGradient>
	<path style="fill-rule:evenodd;clip-rule:evenodd;fill:url(#SVGID_00000012449577867559202710000013404729385208055984_);" d="
		M70.6,6.9L32.7,44.9c3.3,0.1,6.5,0.1,9.8,0.1L80.5,6.9C77.2,6.9,73.9,6.9,70.6,6.9L70.6,6.9z"/>
	
		<radialGradient id="SVGID_00000110464201304219097690000016458517296311412926_" cx="130.3299" cy="-3.7294" r="58.7565" gradientUnits="userSpaceOnUse">
		<stop  offset="0" style="stop-color:#FF8ECB"/>
		<stop  offset="1" style="stop-color:#000000"/>
	</radialGradient>
	<path style="fill-rule:evenodd;clip-rule:evenodd;fill:url(#SVGID_00000110464201304219097690000016458517296311412926_);" d="
		M136.9,7.4L99.1,45.2c4.9,0,9.9-0.1,14.8-0.1c1.9,0,3.9,0,5.8-0.1L151,13.7c-0.2-0.2-0.4-0.4-0.5-0.5c-1-1-2.4-2.4-3.6-3.2
		c-1.4-0.6-3.2-1.1-4.6-1.5c-1.5-0.4-3.5-0.9-5-1C137.2,7.4,137,7.4,136.9,7.4L136.9,7.4z"/>
</g>
<g>
	<g id="Layer_2_00000178185270252745978430000001269834502752424588_">
		<g id="Layer_2-2_00000085973204967810966060000011381988938824014497_">
			<g class="st49">
				<path d="M24.7,19.4c2.1-0.6,4.3-1,6.5-1c4.1,0,7.2,1.3,7.2,3.8c0,1.6-1.2,2.8-3,4.1c2.8,0.3,4.8,1.5,4.8,3.9c0,4-6.2,6-11.3,6
					c-1.1,0-2.2-0.1-3.2-0.3L24.7,19.4z M29.8,25.7c1.9-0.1,3.5-1,3.5-2.2c0-1-0.9-1.6-2.3-1.6c-0.6,0-1.1,0.1-1.6,0.4L29.8,25.7z
					 M30.6,32.3c2.1-0.1,4-0.8,4-2.1c0-1-0.9-1.4-2.2-1.4c-0.7,0-1.4,0.1-2.1,0.4L30.6,32.3z"/>
				<path d="M56,18.6c0.2,1.4,0.2,2.8,0.2,4.1c0,7.7-1.9,14-7.3,14c-4.9,0-8-7.1-8-14.9c0-1.1,0.1-2.2,0.2-3.2l6.1,0.5
					c-0.2,1.2-0.2,2.4-0.2,3.6c0,4.8,0.7,7.9,2.4,7.9c1.7,0,2.6-2.5,2.6-6.3c0-1.9-0.2-3.8-0.6-5.7L56,18.6z"/>
				<path d="M62.2,36.2l0.2-7l-6.2-8L61,18l4.5,6.7l3.4-6.6l4.6,1.7l-5.3,9.3l0.1,7.2L62.2,36.2z"/>
				<path d="M94.7,36.6l-6.4-9.9l0.4,9.4l-5-0.5l-0.4-15.8l5.4-1l4.6,8.8l-0.3-8.9l5.8-0.3l-1.6,17.7L94.7,36.6z"/>
				<path d="M100.1,27.4c0-5,3.7-9.4,8.5-9.4s8.5,4.2,8.5,9.3c0,4.9-3.8,9.2-8.6,9.2S100.1,32.3,100.1,27.4z M111.9,27.6
					c0-2.1-1.3-4-3.2-4c-2.1,0.1-3.7,1.9-3.6,4c0,0,0,0,0,0c0,2.3,1.1,4,3.5,4C110.7,31.7,111.9,29.8,111.9,27.6L111.9,27.6z"/>
				<path d="M128.4,36.4l-2-7.1l-2.1,6.8l-3.6,0.6l-3.2-17.7l4.9-0.5l1.3,8.7l1.7-7h2.8l1.6,8l2.9-9.7l5.3,1.3l-6.1,17L128.4,36.4z"
					/>
			</g>
			<path class="st50" d="M22.4,18.3c2.1-0.6,4.3-1,6.5-1c4.1,0,7.2,1.3,7.2,3.8c0,1.6-1.2,2.8-3,4.1c2.8,0.3,4.8,1.5,4.8,3.9
				c0,4-6.2,6-11.3,6c-1.1,0-2.2-0.1-3.2-0.3L22.4,18.3z M27.5,24.5c1.9-0.1,3.5-1,3.5-2.2c0-1-0.9-1.6-2.3-1.6
				c-0.6,0-1.1,0.1-1.6,0.4L27.5,24.5z M28.3,31.1c2.1-0.1,4-0.8,4-2.1c0-1-0.9-1.4-2.2-1.4c-0.7,0-1.4,0.1-2.1,0.4L28.3,31.1z"/>
			<path class="st50" d="M53.7,17.5c0.2,1.4,0.2,2.8,0.2,4.1c0,7.7-1.9,14-7.3,14c-4.9,0-8-7.1-8-14.9c0-1.1,0.1-2.2,0.2-3.2
				l6.1,0.5c-0.2,1.2-0.2,2.4-0.2,3.6c0,4.8,0.7,7.9,2.4,7.9s2.6-2.5,2.6-6.3c0-1.9-0.2-3.8-0.6-5.7L53.7,17.5z"/>
			<path class="st50" d="M59.9,35.1l0.2-7l-6.2-8l4.8-3.2l4.5,6.7l3.4-6.6l4.6,1.7L65.9,28l0.1,7.2L59.9,35.1z"/>
			<path class="st50" d="M92.4,35.5l-6.4-9.9l0.4,9.4l-5-0.5l-0.4-15.8l5.4-1l4.6,8.8l-0.3-8.9l5.8-0.3L95,34.9L92.4,35.5z"/>
			<path class="st50" d="M97.8,26.2c0-5,3.7-9.4,8.5-9.4c4.8,0,8.5,4.2,8.5,9.3c0,4.9-3.8,9.2-8.6,9.2
				C101.4,35.4,97.8,31.2,97.8,26.2z M109.7,26.5c0-2.1-1.3-4-3.2-4c-2.1,0.1-3.7,1.9-3.6,4c0,0,0,0,0,0c0,2.3,1.1,4,3.5,4
				C108.5,30.6,109.7,28.7,109.7,26.5L109.7,26.5z"/>
			<path class="st50" d="M126.1,35.2l-2-7.1L122,35l-3.6,0.6l-3.2-17.7l4.9-0.5l1.3,8.7l1.7-7h2.8l1.6,8l2.9-9.7l5.3,1.3l-6.1,17
				L126.1,35.2z"/>
		</g>
	</g>
</g>
</svg>
