<?xml version="1.0" encoding="utf-8"?>
<!-- Generator: Adobe Illustrator 26.0.1, SVG Export Plug-In . SVG Version: 6.00 Build 0)  -->
<svg version="1.1" id="Layer_1" xmlns="http://www.w3.org/2000/svg" xmlns:xlink="http://www.w3.org/1999/xlink" x="0px" y="0px"
	 viewBox="0 0 844.7 844.4" style="enable-background:new 0 0 844.7 844.4;" xml:space="preserve">
<style type="text/css">
	.st0{fill:#FFA9F3;}
</style>
<g id="Layer_2_00000150820215921501223550000015325979505295856801_">
	<g id="BACKGROUND">
		<path class="st0" d="M429.6,415.5c-0.3-0.3-0.6-0.5-0.9-0.8c59.8-75.9,113-157.9-27-414.7h42.5C557.8,269.6,496.7,346,429.6,415.5
			z"/>
		<path class="st0" d="M430.7,416.9l-0.8-1C503,352.8,568.8,280,482.1,6.8c15.8,5.3,31.3,10.7,46.4,16.1
			C580.5,292.1,510.4,362.6,430.7,416.9z"/>
		<path class="st0" d="M431.5,418.5l-0.6-1.1c41.5-24.7,82.1-51.4,108-107.2c26.2-55.3,37.7-139.6,27.3-267.6
			c14.8,10.1,28.9,20,42.4,29.3c-6.4,118.2-26.9,199.5-58.8,251.1C518.3,375.5,475.3,398.1,431.5,418.5z"/>
		<path class="st0" d="M432,420.3l-0.4-1.2c45.3-16.7,90.1-35.6,126.1-84.7c36.3-47.9,64-126,82.7-234.7
			c11.8,12.5,22.8,24,33.3,34.5c-31.1,97.7-66.6,171.4-107.7,214.7C525.2,393.7,478.8,408.1,432,420.3z"/>
		<path class="st0" d="M432.2,422.1c0-0.4-0.1-0.8-0.1-1.2c47.6-8.1,95.1-18.7,139.5-59.5c44.6-39.3,86.3-108.9,125.9-198.9
			c7.7,10.9,15.9,21.5,24.7,31.5c-48.5,83.5-96.9,148.4-145.2,182.9C528.7,412.9,480.4,418.7,432.2,422.1z"/>
		<path class="st0" d="M432,423.9c0-0.4,0-0.8,0.1-1.2c48.3,0.7,96.9-0.9,148.1-32.9c51.1-30.4,104.8-91.2,160.2-171.9
			c5.9,9.2,12.7,17.9,20.4,25.7c-64.3,80.5-124.1,136.4-178,162.1C528.5,432.7,480,429.4,432,423.9z"/>
		<path class="st0" d="M431.6,425.6c0.1-0.4,0.2-0.8,0.3-1.2c47.4,9.6,95.3,17,151.7-5.8c56.1-21.6,120.5-73.3,193.4-155.1
			c5.6,8.6,12,16.6,19.1,23.9c-84.5,83.9-154.4,130.4-212.8,147.1C524.7,452.1,477.7,439.9,431.6,425.6z"/>
		<path class="st0" d="M430.8,427.2l0.5-1.1c44.8,18.2,90.5,34.3,150.6,21.4c59.8-12.4,134-54,229.2-138.7
			c4.9,9.9,10.3,19.6,16.2,28.9C609.2,505.5,515.1,474.1,430.8,427.2z"/>
		<path class="st0" d="M429.7,428.7l0.7-1c80.8,52.9,169.1,95.7,407.1-62c2.2,12.7,4.6,25.4,7.1,38.2
			C587.1,542.4,505.3,488.8,429.7,428.7z"/>
		<path class="st0" d="M428.4,429.9l0.9-0.9c70.2,66.3,147.1,126.6,415.4,10.2c-2.5,15.3-5.1,30.4-7.7,45.3
			C563.8,569.4,491.1,503.3,428.4,429.9z"/>
		<path class="st0" d="M426.9,430.9l1-0.7c55.3,79,125.8,148.6,395.6,93c-7.9,15.7-15.7,30.8-23.3,45.3
			c-127.5,9.4-211.7-2.6-266.8-29.1C477.9,513.2,451.4,472.5,426.9,430.9z"/>
		<path class="st0" d="M425.2,431.6l1.1-0.5c20.9,43.5,43.9,86.3,96.6,117.3c51.9,31.3,133.5,50.9,252.8,55.6
			c-11.7,13.5-22.7,26.2-33,38.3c-108.1-19.5-185.9-47.5-233.5-84.1C460.4,521.8,441.7,477,425.2,431.6z"/>
		<path class="st0" d="M423.4,431.9l1.2-0.3c12.6,46.6,27.5,92.8,72.7,133.1C541.1,605.4,615.2,640.1,714,670
			c-12.5,10.1-23.8,19.5-33.8,28.8c-89.5-40.2-158.9-82.2-198-127C441.6,527.1,431.3,479.6,423.4,431.9z"/>
		<path class="st0" d="M421.6,432h1.2c3.9,48.1,10.1,96.3,46.7,144.2c35,47.9,100.3,95.7,184.3,143.2c-10.1,6.6-19.7,13.9-28.6,22
			c-80.7-56-141.2-110-171.4-161.3C422,528.8,420.6,480.2,421.6,432z"/>
		<path class="st0" d="M419.8,431.6l1.2,0.2c-5.1,48-7.8,96.5,19.7,150.4c26.1,53.6,82.6,112.7,162.9,176
			c-8.7,5.6-16.7,12.2-24,19.6c-82-73.4-133.6-138.3-154.8-194.5C402.3,526.9,410,478.9,419.8,431.6z"/>
		<path class="st0" d="M418.1,431l1.2,0.4c-13.8,46.3-25.6,93.4-7.5,151.8c17.2,58,64.3,127.4,147.9,210.5
			c-8.9,5.4-17.5,11.6-25.5,18.3C449.5,715.9,408.2,641.5,396,581.6C383.3,521.4,399.7,475.7,418.1,431z"/>
		<path class="st0" d="M416.6,430.1l1.1,0.6c-46.2,84.7-76.1,179.4,92.6,394.6c-11.1,3.8-22.1,8.1-33.2,12.7
			C319.7,598.7,363.3,510.6,416.6,430.1z"/>
		<path class="st0" d="M415.2,428.9l0.9,0.8c-59.4,76.2-112.1,158.5,29,414.2l-42.3,0.4C287.8,575.4,348.5,498.8,415.2,428.9z"/>
		<path class="st0" d="M414.1,427.5l0.8,1C342.2,492,276.6,564.9,365.1,838c-15.8-5.2-31.3-10.4-46.4-15.6
			C264.9,552.8,334.7,482.4,414.1,427.5z"/>
		<path class="st0" d="M413.3,425.9c0.2,0.4,0.4,0.7,0.6,1.1c-84.4,46.6-157.3,116.1-133,376c-14.9-10-29.1-19.8-42.6-29
			c5.5-118.8,25.5-200.2,57.2-252C326.8,469.4,369.6,446.6,413.3,425.9z"/>
		<path class="st0" d="M412.8,424.1l0.4,1.2c-45.2,17-89.9,36.1-125.6,85.4c-36.1,48.1-63.2,126.3-81.2,235.6
			c-11.9-12.4-23-24-33.6-34.4c30.5-98.3,65.6-172.1,106.5-215.7C319.8,451.2,366.1,436.5,412.8,424.1z"/>
		<path class="st0" d="M412.6,422.3l0.1,1.2c-47.6,8.4-95,19.1-139.2,60.2c-44.4,39.5-85.7,109.4-124.8,199.8
			c-7.7-11-16.1-21.6-24.9-31.6c48-83.8,96.1-148.8,144.2-183.6C316.2,432,364.4,426,412.6,422.3z"/>
		<path class="st0" d="M412.7,420.5c0,0.4,0,0.8-0.1,1.2c-48.3-0.5-96.9,1.4-147.9,33.7c-50.9,30.6-104.3,91.6-159.3,172.5
			c-5.9-9.3-12.8-18-20.4-25.9c63.8-80.4,123.2-136.6,177-162.5C316.2,412.3,364.7,415.2,412.7,420.5z"/>
		<path class="st0" d="M413.2,418.8l-0.3,1.2c-47.4-9.3-95.4-16.5-151.7,6.5c-55.9,21.8-120,73.6-192.3,155.4
			c-5.6-8.6-12-16.5-19.1-23.8c83.8-83.8,153.5-130.5,211.6-147.5C319.9,392.8,367,404.8,413.2,418.8z"/>
		<path class="st0" d="M414,417.2c-0.2,0.4-0.3,0.8-0.5,1.1c-44.9-17.9-90.7-33.9-150.7-20.6C203,410.4,129.2,452.3,34.6,536.8
			c-4.9-9.8-10.4-19.4-16.3-28.7C235,340,329.4,370.7,414,417.2z"/>
		<path class="st0" d="M415,415.7c-0.2,0.3-0.5,0.7-0.7,1c-81-52.5-169.7-94.7-406.4,63.8c-2.3-12.6-4.8-25.2-7.5-37.9
			C257,302.8,339.1,356,415,415.7z"/>
		<path class="st0" d="M416.3,414.5l-0.9,0.9c-70.6-65.9-147.7-125.9-415.5-8c2.3-15.2,4.7-30.3,7.2-45.2
			C280.3,275.6,353.2,341.5,416.3,414.5z"/>
		<path class="st0" d="M417.9,413.5l-1,0.7C361,335.5,290.4,266,20.2,323.5c7.8-15.7,15.4-30.8,22.9-45.4
			C302.2,255.8,371.7,328.8,417.9,413.5z"/>
		<path class="st0" d="M419.5,412.8l-1.1,0.5c-21.1-43.4-44.4-86-97.3-116.8c-52.1-31-133.9-50.1-253.8-54
			c11.6-13.5,22.6-26.4,32.8-38.5c108.7,18.8,186.7,46.4,234.6,82.8C383.8,322.8,402.8,367.5,419.5,412.8z"/>
		<path class="st0" d="M421.3,412.4l-1.2,0.3c-12.9-46.6-28-92.7-73.4-132.8c-44-40.4-118.4-74.7-217.7-104
			c12.5-10.2,23.8-19.7,33.8-29c89.9,39.7,159.6,81.4,198.9,126C402.6,317.4,413.1,364.8,421.3,412.4z"/>
		<path class="st0" d="M423.1,412.4h-1.2c-4.1-48.1-10.6-96.3-47.5-144c-35.2-47.8-100.8-95.1-185.1-142.2
			c10.1-6.6,19.7-14,28.7-22.1c80.8,55.5,141.7,109.2,172.1,160.3C422.2,315.5,423.8,364.1,423.1,412.4z"/>
		<path class="st0" d="M424.9,412.7l-1.2-0.2c4.8-48.1,7.3-96.6-20.5-150.3C376.8,208.7,320,149.9,239.7,87.1
			c8.7-5.7,16.7-12.3,24-19.7c81.9,72.9,133.7,137.4,155.3,193.5C441.9,317.3,434.5,365.4,424.9,412.7z"/>
		<path class="st0" d="M426.6,413.3l-1.2-0.4c13.6-46.4,25-93.5,6.6-151.8c-17.5-57.9-64.9-127-148.5-209.5
			c8.9-5.4,17.4-11.6,25.3-18.3c84.8,95.3,126.5,169.5,139,229.4C460.9,322.8,444.8,368.5,426.6,413.3z"/>
		<path class="st0" d="M428.1,414.2l-1.1-0.6c45.8-84.9,74.9-180-94.3-393.9c11-3.9,22-8.2,33-12.9C523.9,245,481,333.4,428.1,414.2
			z"/>
	</g>
</g>
</svg>
