<?xml version="1.0" encoding="utf-8"?>
<!-- Generator: Adobe Illustrator 26.0.1, SVG Export Plug-In . SVG Version: 6.00 Build 0)  -->
<svg version="1.1" id="Layer_1" xmlns="http://www.w3.org/2000/svg" xmlns:xlink="http://www.w3.org/1999/xlink" x="0px" y="0px"
	 viewBox="0 0 185.2 17" style="enable-background:new 0 0 185.2 17;" xml:space="preserve">
<style type="text/css">
	.st0{fill:#030629;}
</style>
<g id="Layer_2_00000072969281749773073430000014078872908191927181_">
	<g id="Layer_1-2">
		<g id="Layer_2-2">
			<g id="Layer_1-2-2">
				<path class="st0" d="M3,12.5c10.1,0.1,19.9,2.2,29.8,3.4c6.6,1,13.4,1.3,20.1,0.8c6.9-0.5,13.6-1.8,20.3-2.7
					c13.8-1.8,28.2-0.8,42,0.3c3.3,0.3,6.6,0.6,9.9,1c3.3,0.4,6.8,0.8,10.3,1.1c3.3,0.3,6.7,0.3,10,0.1c3.4-0.3,6.7-0.8,10-1.5
					c9.6-1.9,19.6-3.9,29.8-4V0H0v12.5C1,12.5,2,12.5,3,12.5z"/>
			</g>
		</g>
	</g>
</g>
</svg>
