<svg id="cta" xmlns="http://www.w3.org/2000/svg" width="125.594" height="23.875" viewBox="0 0 125.594 23.875">
  <defs>
    <style>
      .cls-1 {
        fill: #830f3b;
      }

      .cls-2 {
        fill: #fff;
        fill-rule: evenodd;
      }
    </style>
  </defs>
  <rect class="cls-1" width="125.594" height="23.875" rx="11.938" ry="11.938"/>
  <path id="JETZT_BESTELLEN" data-name="JETZT BESTELLEN" class="cls-2" d="M178.379,47.227V39.766h-1.02v7.461a1.4,1.4,0,0,1-.707,1.326,2.34,2.34,0,0,1-1.443.233,2.243,2.243,0,0,1-1.2-.437v1.122a1.607,1.607,0,0,0,.532.226,3.611,3.611,0,0,0,.874.124,3.248,3.248,0,0,0,1.967-.5A2.357,2.357,0,0,0,178.379,47.227Zm7.855,2.448V48.728h-4.867V45.2h4.721V44.24h-4.721V40.713h4.867V39.766h-5.887v9.909h5.887Zm1.386-8.991h2.4v8.962h1.02V40.684h2.4V39.737H187.62v0.947Zm8.336,8.044,5.872-8.962h-7.417v0.947h5.567l-5.873,8.962h7.476V48.728h-5.625Zm6.53-8.044h2.4v8.962h1.02V40.684h2.405V39.737h-5.829v0.947Zm17.619,6.23a2.931,2.931,0,0,0-.51-1.763,2.424,2.424,0,0,0-1.384-.94,1.869,1.869,0,0,0,.852-0.8,2.325,2.325,0,0,0,.233-0.547,2.969,2.969,0,0,0,.08-0.78,2.209,2.209,0,0,0-.233-0.976q-0.649-1.341-2.827-1.341h-2.681v9.909h3.031a3.88,3.88,0,0,0,2.419-.692A2.654,2.654,0,0,0,220.105,46.914Zm-1.749-4.67a1.455,1.455,0,0,1-.48,1.195,1.942,1.942,0,0,1-1.268.394h-1.953V40.742h1.661Q218.356,40.742,218.356,42.243Zm0.729,4.474a1.874,1.874,0,0,1-.605,1.443,2.156,2.156,0,0,1-1.523.539h-2.3V44.852h2.463a1.98,1.98,0,0,1,1.362.517,1.887,1.887,0,0,1,.437.576A1.7,1.7,0,0,1,219.085,46.717Zm8.293,2.958V48.728h-4.867V45.2h4.721V44.24h-4.721V40.713h4.867V39.766h-5.887v9.909h5.887ZM232.318,45a7.03,7.03,0,0,1,2.612,1.022,1.235,1.235,0,0,1,.479,1.007,1.651,1.651,0,0,1-.257.978,2.666,2.666,0,0,1-2.323.924q-2.331,0-2.612-1.574h-1.206q0.525,2.507,3.817,2.506a4.384,4.384,0,0,0,2.449-.647,2.528,2.528,0,0,0,1.183-2.26,2.178,2.178,0,0,0-.952-1.885,7,7,0,0,0-2.2-.875,11.048,11.048,0,0,1-1.982-.64,1.535,1.535,0,0,1-.99-1.41,1.368,1.368,0,0,1,.214-0.8,2.236,2.236,0,0,1,2.006-.851q2.032,0,2.329,1.282h1.1q-0.543-2.157-3.432-2.157a3.861,3.861,0,0,0-2.3.692,2.393,2.393,0,0,0-.978,2.088Q229.286,44.3,232.318,45Zm4.812-4.317h2.4v8.962h1.02V40.684h2.4V39.737H237.13v0.947Zm13.1,8.991V48.728h-4.867V45.2h4.721V44.24h-4.721V40.713h4.867V39.766h-5.887v9.909h5.887Zm3.207-1.02V39.766h-1.02v9.909h4.561v-1.02h-3.541Zm5.947,0V39.766h-1.02v9.909h4.561v-1.02h-3.541Zm10.813,1.02V48.728h-4.867V45.2h4.721V44.24h-4.721V40.713H270.2V39.766h-5.887v9.909H270.2Zm3.207-7.3,5.567,7.913V39.766h-1.02v7.286l-5.567-7.913V49.675h1.02v-7.3Z" transform="translate(-164.406 -33.094)"/>
</svg>
