<svg xmlns="http://www.w3.org/2000/svg" width="145.625" height="13.219" viewBox="0 0 145.625 13.219">
  <defs>
    <style>
      .cls-1 {
        fill: #29392e;
        fill-rule: evenodd;
      }
    </style>
  </defs>
  <path id="halte_deinen_Hund_aktiv" data-name="halte deinen Hund aktiv" class="cls-1" d="M13.5,52.726h2.047V46.865h2.2v5.861h2.047V39.7H17.738V45h-2.2V39.7H13.5V52.726Zm7.276,0h1.9l0.372-2.549h2.326V50.14l0.372,2.587h2.047L25.665,39.7H22.892Zm2.512-4.317,0.893-6.438h0.037l0.912,6.438H23.283Zm5.489,4.317h5.415V50.866H30.819V39.7H28.772V52.726Zm6.55,0h2.047V41.562h2.14V39.7H33.182v1.861h2.14V52.726Zm5.173,0h5.582V50.866H42.542v-4h2.81V45h-2.81V41.562h3.535V39.7H40.495V52.726Zm9.731,0h3.126a2.981,2.981,0,0,0,2.289-.819,3.4,3.4,0,0,0,.763-2.4V42.92a3.4,3.4,0,0,0-.763-2.4,2.982,2.982,0,0,0-2.289-.819H50.226V52.726Zm2.047-1.861v-9.3h1.042a0.989,0.989,0,0,1,.772.3,1.421,1.421,0,0,1,.27.968V49.6a1.421,1.421,0,0,1-.27.968,0.988,0.988,0,0,1-.772.3H52.273Zm5.508,1.861h5.582V50.866H59.828v-4h2.81V45h-2.81V41.562h3.535V39.7H57.781V52.726Zm6.754,0h2.047V39.7H64.535V52.726Zm3.572,0h1.823V43.218h0.037l2.456,9.509h2.1V39.7H72.7v7.8H72.666l-1.991-7.8H68.107V52.726Zm7.945,0h5.582V50.866H78.1v-4h2.81V45H78.1V41.562h3.535V39.7H76.053V52.726Zm6.754,0H84.63V43.218h0.037l2.456,9.509h2.1V39.7H87.4v7.8H87.366l-1.991-7.8H82.807V52.726Zm10.922,0h2.047V46.865h2.2v5.861h2.046V39.7H97.972V45h-2.2V39.7H93.729V52.726Zm10.792,0.186a2.935,2.935,0,0,0,2.27-.847,3.453,3.453,0,0,0,.782-2.428V39.7H105.6V49.786a1.425,1.425,0,0,1-.27.968,1.151,1.151,0,0,1-1.545,0,1.42,1.42,0,0,1-.269-0.968V39.7H101.47v9.936a3.453,3.453,0,0,0,.781,2.428,2.936,2.936,0,0,0,2.27.847h0Zm4.5-.186h1.824V43.218h0.037l2.456,9.509h2.1V39.7H113.62v7.8h-0.037l-1.991-7.8h-2.568V52.726Zm7.945,0H120.1a2.982,2.982,0,0,0,2.289-.819,3.4,3.4,0,0,0,.763-2.4V42.92a3.4,3.4,0,0,0-.763-2.4A2.983,2.983,0,0,0,120.1,39.7h-3.126V52.726Zm2.047-1.861v-9.3h1.042a0.989,0.989,0,0,1,.772.3,1.42,1.42,0,0,1,.27.968V49.6a1.419,1.419,0,0,1-.27.968,0.988,0.988,0,0,1-.772.3h-1.042Zm7.945,1.861h1.9l0.372-2.549h2.326V50.14l0.372,2.587h2.047L131.855,39.7h-2.773Zm2.512-4.317,0.893-6.438H130.4l0.911,6.438h-1.842Zm5.489,4.317h2.047v-4.15l0.819-1.656,1.73,5.806h2.14l-2.475-8.243,2.438-4.782h-2.047l-2.605,5.489V39.7h-2.047V52.726Zm9.3,0h2.047V41.562h2.139V39.7h-6.326v1.861h2.14V52.726Zm5.173,0h2.046V39.7h-2.046V52.726Zm5,0h2.716L159.133,39.7h-1.88l-1.339,10.1h-0.038l-1.339-10.1h-2.066Z" transform="translate(-13.5 -39.688)"/>
</svg>
