<svg xmlns="http://www.w3.org/2000/svg" width="279.093" height="30.219" viewBox="0 0 279.093 30.219">
  <defs>
    <style>
      .cls-1 {
        fill: #29392e;
        fill-rule: evenodd;
      }
    </style>
  </defs>
  <path id="txt" class="cls-1" d="M13.864,30.174c0-.064.032-0.064,0.1-0.064a0.462,0.462,0,0,1,.064.1c0,0.032-.032.032-0.064,0.032A0.08,0.08,0,0,1,13.864,30.174Zm-1.282-.545A0.683,0.683,0,0,0,13,30.4a4.767,4.767,0,0,0,2.6.545c3.172,0.16,5.607-.16,7.4-3.108a6.314,6.314,0,0,0,.1-6.7c-1.57-2.339-3.62-3.236-5.35-5.062l-0.224-.288a1.979,1.979,0,0,1,2.339-2.659c1.089,0.192,1.7.7,2.371-.352a11.843,11.843,0,0,0,.32-3.492,0.361,0.361,0,0,1-.16-0.256,0.335,0.335,0,0,0-.192-0.16,0.865,0.865,0,0,1-.352-0.16,0.839,0.839,0,0,0-.288-0.16,10.465,10.465,0,0,0-4.037-.192c-2.851.416-5.863,3.877-5.543,6.792,0.128,1.346,2.082,3.3,3.14,4.1,1.474,1.089,4.582,2.211,3.973,4.613a2.616,2.616,0,0,1-1.6,1.634,6.638,6.638,0,0,1-3.172.256,15.629,15.629,0,0,0-1.634-.256,0.324,0.324,0,0,0-.1.032C12.519,25.657,12.519,28.861,12.583,29.63Zm21.852-17.3a9.362,9.362,0,0,0,.32-3.012c-0.32-1.314-2.339-.993-3.46-0.9-4.069.384-5.126,2.948-6.023,6.568-0.833,3.812-1.57,9.9.16,13.52,1.474,2.787,3.973,2.6,6.824,2.6,0.448,0,2.691-.032,2.947-0.352a5.593,5.593,0,0,0,.256-2.467c-0.032-.8.513-1.378-0.384-1.794-1.282-.513-3.973.769-4.966-0.288a3.35,3.35,0,0,1-.609-1.217c-0.577-1.954-.256-4.87-0.032-6.92,0.16-1.954.609-4.037,2.467-5.062C32.832,12.681,34.018,12.938,34.434,12.329Zm14.29,2.6c0.064-.833.352-5.831,0.256-6.248-0.449-.833-1.153-0.577-1.986-0.513a12.151,12.151,0,0,1-1.858.064,0.622,0.622,0,0,0-.384.1c-0.609.16-.32,0.449-0.32,1.121-0.032,1.089-.192,2.179-0.192,3.332a18.545,18.545,0,0,1-.032,2.307c-0.032.448-.064,0.865-0.1,1.314l-0.064,1.282-0.609.032c-0.352.032-1.025,0.064-1.506,0.064l-0.833.032v-4.2c0-.577.032-4.742-0.064-4.9-0.256-.481-1.858-0.352-2.4-0.352a7.189,7.189,0,0,0-1.666.064,5.413,5.413,0,0,0-.256.769c0,0.449.032,0.993,0,1.474,0,0.384-.032.769-0.032,1.185,0,0.16-.032.32-0.032,0.481-0.256,5.959-.288,6.055-0.416,6.215a0.466,0.466,0,0,0-.1.481c0.064,0.192.1,1.954,0.1,3.909,0,1.6.032,3.012-.064,4.613a18.676,18.676,0,0,0-.032,2.98c0.224,0.448,1.538.288,2.018,0.288h1.185c2.179,0,1.826-.641,1.73-2.4C41,27.355,41,26.33,41,25.273l-0.032-4.1,0.769-.1a13.005,13.005,0,0,0,1.378-.192l0.577-.128-0.064.865c-0.032.481-.1,1.282-0.16,1.794-0.064.48-.16,1.538-0.224,2.307a9.184,9.184,0,0,1-.128,1.442c-0.032.448-.288,3.652,0.288,3.716,1.057,0.032,2.115-.128,3.2-0.1a18.565,18.565,0,0,0,1.858.032c0.352-.288.128-1.25,0.128-1.7-0.032-1.153,0-2.243-.064-3.4-0.064-1.57,0-3.14.032-4.71C48.628,18.288,48.692,15.565,48.724,14.924Zm13.906-.481c0-.673,0-5.9-0.1-5.991-0.288-.481-2.018-0.32-2.627-0.352-1.378-.032-1.314.16-1.378,1.474-0.064,1.6.032,3.236,0,4.838,0,1.41-.064,2.819-0.1,4.229-0.032.641-.064,1.314-0.1,1.954l-0.32-.961c-0.545-1.538-1.185-2.916-1.666-4.517-0.352-1.121-.7-2.275-1.057-3.4-0.16-.545-0.32-1.057-0.449-1.6a3.4,3.4,0,0,0-.384-1.153,0.42,0.42,0,0,1-.192-0.256c-0.128-.288-0.9-0.416-2.114-0.352a1.737,1.737,0,0,0-1.089.224,2.44,2.44,0,0,0-.1.961c0,0.737-.1,2.018-0.385,5.927-0.064.865-.16,2.371-0.192,3.268-0.064.929-.128,2.563-0.192,3.652-0.128,2.371-.064,8.234.064,8.554,0.128,0.288-.032.256,2.115,0.16a12.585,12.585,0,0,0,1.7-.16c0.16-.1.192-0.192,0.192-0.833a1.909,1.909,0,0,0-.128-0.9c-0.128-.16-0.128-0.8-0.128-4.325,0-2.243.032-4.71,0.064-5.446l0.064-1.378,0.352,1.378a49.194,49.194,0,0,0,1.634,5.094c0.32,0.833.8,2.179,1.089,2.948a10.389,10.389,0,0,0,.929,2.307,1.045,1.045,0,0,1,.224.481,0.854,0.854,0,0,0,.16.417c0.1,0.224.16,0.256,0.384,0.192,0.16-.032.929-0.064,1.73-0.1a9.617,9.617,0,0,0,1.73-.192,1.143,1.143,0,0,0,.545-1.025c0.064-.448,0-3.524-0.16-7.177C62.663,19.762,62.663,17.071,62.631,14.444Zm11.247,14.8a9.6,9.6,0,0,0,.737-1.346,12.139,12.139,0,0,0,.929-3.268,11.982,11.982,0,0,1,.16-1.249c0.032-.256.064-0.961,0.1-1.538,0.032-1.346.064-1.986,0.16-3.268,0.064-.609.064-2.819,0-5.607L75.9,8.356,75.7,8.228a0.582,0.582,0,0,1-.192-0.256,2.371,2.371,0,0,0-1.153-.064,15.415,15.415,0,0,0-3.236.032c-0.16,3.108-.032,6.312-0.128,9.483-0.032,1.121-.064,2.211-0.1,3.332,0,3.076-.128,4.806-0.352,5.158a1.1,1.1,0,0,1-.416.32c-0.32.1-.32,0.1-0.673-0.256L69.1,25.625l-0.064-.993c0-.545,0-1.858.064-2.979,0.16-3.428.16-7.049,0.224-10.509a11.173,11.173,0,0,0-.16-2.787c-0.32-.256-4.453-0.417-4.645-0.064-0.32.609-.128,10.6-0.16,12.078a28.556,28.556,0,0,0,.224,7.016l0.032,0.288a3.974,3.974,0,0,0,1.7,2.723,6.346,6.346,0,0,0,2.883.641C72.179,31.232,72.724,31.007,73.877,29.245ZM66.412,1.692c-1.25,1.153-1.282,2.851.352,3.684A1.889,1.889,0,0,0,69.3,4.448a2.86,2.86,0,0,0,.416-1.6,1.97,1.97,0,0,0-1.6-1.7A1.589,1.589,0,0,0,66.412,1.692Zm4.934,0C70.1,2.846,70.065,4.544,71.7,5.377a1.889,1.889,0,0,0,2.531-.929,2.623,2.623,0,0,0,.416-1.6,1.935,1.935,0,0,0-1.6-1.7A1.606,1.606,0,0,0,71.346,1.692ZM86.374,21.46c0.288-.609-0.1-1.922-0.128-2.659-0.064-.769-0.256-0.9-1.089-0.833a7.561,7.561,0,0,0-.9.128c-0.609.128-1.218,0.256-1.826,0.416a40.218,40.218,0,0,1-.352-6.215V12.169c1.666,0.032,2.948.417,4.453-.513-0.192-.513.192,0.192,0.1-0.833-0.32-2.467.641-2.531-2.018-2.435H84.356a26.747,26.747,0,0,1-5.062-.128c-1.858-.192-1.442.481-1.826,0.673a1.162,1.162,0,0,0,.032.737c0,1.217-.1,2.467-0.128,3.684-0.064,1.794-.16,3.556-0.128,5.382,0.032,0.513.032,1.025,0.032,1.57,0.1,2.691.16,5.19,0.128,7.881-0.1,2.082-.224,3.14,2.115,2.851,0.737-.1,2.435.064,2.883-0.256,0.513-.352.192-1.986,0.128-2.659-0.1-1.954.16-3.684,0.1-5.607V22.261C83.426,22.2,85.99,22.261,86.374,21.46Zm10.125,0c0.288-.609-0.1-1.922-0.128-2.659-0.064-.769-0.256-0.9-1.089-0.833a7.561,7.561,0,0,0-.9.128c-0.609.128-1.218,0.256-1.826,0.416a40.218,40.218,0,0,1-.352-6.215V12.169c1.666,0.032,2.947.417,4.453-.513-0.192-.513.192,0.192,0.1-0.833-0.32-2.467.641-2.531-2.018-2.435H94.481a26.747,26.747,0,0,1-5.062-.128c-1.858-.192-1.442.481-1.826,0.673a1.162,1.162,0,0,0,.032.737c0,1.217-.1,2.467-0.128,3.684-0.064,1.794-.16,3.556-0.128,5.382,0.032,0.513.032,1.025,0.032,1.57,0.1,2.691.16,5.19,0.128,7.881-0.1,2.082-.224,3.14,2.114,2.851,0.737-.1,2.435.064,2.883-0.256,0.513-.352.192-1.986,0.128-2.659-0.1-1.954.16-3.684,0.1-5.607V22.261C93.552,22.2,96.115,22.261,96.5,21.46ZM97.942,8.741a0.176,0.176,0,0,1-.1.224c-0.192.1-.192,0.256,0,0.416,0.256,0.224.032,1.41,0,1.762-0.192,2.435-.192,4.9-0.256,7.337-0.064,3.2.032,6.247,0.032,9.419a2.233,2.233,0,0,1-.064.513c-0.1.32,0.384,0.481-.032,0.577-0.224.064-.1,0.256-0.032,0.449,0.128,0.448-.224,1.153.7,1.346a34.365,34.365,0,0,0,4.037-.064h0.192a18.666,18.666,0,0,0,4.229,0c0.9-.16,1.058.352,1.026-0.833a4.758,4.758,0,0,1,.032-1.185c0.1-.064.064-0.064,0.1-0.224,0.064-.416-0.032-0.8,0-1.249,0-.1.032-0.192,0.032-0.288,0.16-.993-0.16-0.673-0.865-0.737a0.9,0.9,0,0,1-.289-0.032,6.426,6.426,0,0,0-1.922-.032,10.831,10.831,0,0,1-1.922.192c-0.289-.16-0.224-2.018-0.224-2.4-0.1-1.41-.417-4.389-0.065-5.639l0.032-.16c1.891-.288,4.582.545,3.941-2.371a4.789,4.789,0,0,1-.288-0.993c0.16-.865-3.524-0.288-3.685-0.384a5.265,5.265,0,0,1-.128-1.794c-0.032-1.121.321-.641,1.57-0.737,2.467-.192,2.723.16,2.339-2.339-0.192-1.41-.449-1.314-1.89-1.314-1.154.032-2.371,0.128-3.492,0.064a11.05,11.05,0,0,0-2.5-.064,0.511,0.511,0,0,1-.288.224C97.974,8.548,97.91,8.645,97.942,8.741Zm17.013,17.877c-0.929.032-.833,0.128-0.8-0.929,0-1.474.064-2.948,0.064-4.389,0-.737,0-1.442.032-2.179,0-1.249-.032-2.6,0-3.845,0.032-1.025.416-6.44,0.064-6.92-0.225-.32-2.147-0.128-2.563-0.1-0.737.032-1.474,0.1-2.211,0.16-1.217.032-.641,0.256-0.769,1.57a16.255,16.255,0,0,0-.032,2.787c0.128,1.41.1,2.98,0.1,4.421,0.032,1.218-.064,2.6-0.1,3.813-0.032.769-.064,1.57-0.064,2.339-0.064,1.826-.032,3.62-0.1,5.479a2.11,2.11,0,0,0,.128,1.281c0.32,0.224.128,0.1,0.192,0.545,0.064,0.384.1,0.32,0.641,0.352,1.314,0.032,2.627-.128,3.973-0.1,1.506,0,3.075.064,4.581,0.1,0.257,0,.481.032,0.737,0.032,0.993,0.064.993-.224,0.929-1.121a12.352,12.352,0,0,1,.032-2.435c0.128-1.121-.32-1.057-1.377-1.025h-0.353C117.006,26.49,116.013,26.554,114.955,26.618Zm12.337-5.991a5.185,5.185,0,0,1,.961,4.293c-0.385,1.089-1.955,1.281-2.98,1.346-0.384.032-.32-0.288-0.384-0.673a43.566,43.566,0,0,1,.1-5V20.018A5.609,5.609,0,0,1,127.292,20.627Zm-1.346-8.586c0.7,0.032.513,0.16,0.513,0.833,0.1,1.282-.321,1.378-1.122,2.243-0.416.481-.352,0.545-0.384-0.545a18.623,18.623,0,0,1,0-1.89C124.921,11.624,124.857,11.945,125.946,12.041Zm-5.511,18.422a1.2,1.2,0,0,0,1.026.192,18.523,18.523,0,0,1,2.4.128,1.051,1.051,0,0,0,.544-0.032,7.535,7.535,0,0,1,1.987-.128,6.03,6.03,0,0,0,3.107-.545,7.611,7.611,0,0,1,.769-0.352,5.325,5.325,0,0,0,2.243-1.89,5.953,5.953,0,0,0,.961-3.46,7.66,7.66,0,0,0-.609-3.172,5.412,5.412,0,0,0-1.057-1.7,7.094,7.094,0,0,0-2.5-1.858c-0.256-.064-0.192-0.128,0-0.385a11.838,11.838,0,0,0,1.538-2.883,6,6,0,0,0-.16-2.915c-0.417-1.506-.545-2.6-2.339-3.044A27.045,27.045,0,0,0,123,8.292a5.356,5.356,0,0,0-2.4.416,8.189,8.189,0,0,0-.193,2.082l-0.1,1.057c0.032,0.769.128,1.442,0.128,2.243,0,0.993-.064,1.922-0.1,2.915-0.032.929-.128,1.826-0.16,2.755-0.032,1.346.224,2.627,0.16,3.973-0.1,1.826-.192,3.845-0.128,5.639v0.16A0.985,0.985,0,0,0,120.435,30.463Zm18.616,0.513c2.98,0.192,3.557-.032,4.678-1.794a8.1,8.1,0,0,0,.737-1.346A11.964,11.964,0,0,0,145.4,24.6c0.032-.416.1-0.961,0.128-1.249a13.3,13.3,0,0,0,.128-1.57c0.032-1.314.064-1.954,0.16-3.236,0.065-.609.065-2.819,0-5.575l-0.064-4.581-0.192-.16a0.582,0.582,0,0,1-.192-0.256,2.368,2.368,0,0,0-1.153-.064c-0.417,0-3.044-.16-3.2.064-0.16,3.076-.032,6.28-0.16,9.419-0.033,1.121-.065,2.211-0.065,3.332-0.032,3.076-.16,4.806-0.384,5.126a0.857,0.857,0,0,1-.417.32c-0.288.1-.32,0.1-0.672-0.224l-0.353-.352-0.032-.993c-0.032-.545,0-1.89.064-2.98,0.16-3.428.128-7.016,0.193-10.477,0-.32.1-2.6-0.161-2.787C138.7,8.1,134.6,7.94,134.406,8.324c-0.321.577-.128,10.541-0.16,12.046a28.027,28.027,0,0,0,.224,6.952l0.032,0.288a3.869,3.869,0,0,0,1.7,2.723A6.3,6.3,0,0,0,139.051,30.975ZM156.77,12.329a9.371,9.371,0,0,0,.321-3.012c-0.321-1.314-2.339-.993-3.461-0.9-4.068.384-5.126,2.948-6.023,6.568-0.833,3.812-1.57,9.9.16,13.52,1.474,2.787,3.973,2.6,6.825,2.6,0.448,0,2.691-.032,2.947-0.352a5.586,5.586,0,0,0,.256-2.467c-0.032-.8.513-1.378-0.384-1.794-1.282-.513-3.973.769-4.966-0.288a3.354,3.354,0,0,1-.609-1.217c-0.576-1.954-.256-4.87-0.032-6.92,0.16-1.954.609-4.037,2.467-5.062C155.168,12.681,156.354,12.938,156.77,12.329Zm14.29,2.6c0.064-.833.353-5.831,0.257-6.248-0.449-.833-1.154-0.577-1.987-0.513a12.149,12.149,0,0,1-1.858.064,0.621,0.621,0,0,0-.384.1c-0.609.16-.321,0.449-0.321,1.121-0.032,1.089-.192,2.179-0.192,3.332a18.584,18.584,0,0,1-.032,2.307c-0.032.448-.064,0.865-0.1,1.314l-0.064,1.282-0.609.032c-0.352.032-1.025,0.064-1.506,0.064l-0.833.032v-4.2c0-.577.032-4.742-0.064-4.9-0.256-.481-1.858-0.352-2.4-0.352a7.192,7.192,0,0,0-1.666.064,5.413,5.413,0,0,0-.256.769c0,0.449.032,0.993,0,1.474,0,0.384-.032.769-0.032,1.185,0,0.16-.032.32-0.032,0.481-0.256,5.959-.289,6.055-0.417,6.215a0.466,0.466,0,0,0-.1.481c0.064,0.192.1,1.954,0.1,3.909,0,1.6.032,3.012-.064,4.613a18.7,18.7,0,0,0-.032,2.98c0.224,0.448,1.538.288,2.019,0.288h1.185c2.179,0,1.826-.641,1.73-2.4-0.064-1.057-.064-2.082-0.064-3.14l-0.032-4.1,0.769-.1a13.057,13.057,0,0,0,1.378-.192l0.576-.128-0.064.865c-0.032.481-.1,1.282-0.16,1.794-0.064.48-.16,1.538-0.224,2.307a9.184,9.184,0,0,1-.128,1.442c-0.032.448-.289,3.652,0.288,3.716,1.057,0.032,2.114-.128,3.2-0.1a18.561,18.561,0,0,0,1.858.032c0.352-.288.128-1.25,0.128-1.7-0.032-1.153,0-2.243-.064-3.4-0.064-1.57,0-3.14.032-4.71C170.964,18.288,171.028,15.565,171.06,14.924Zm18.489,6.536c0.288-.609-0.1-1.922-0.128-2.659-0.064-.769-0.257-0.9-1.09-0.833a7.592,7.592,0,0,0-.9.128c-0.608.128-1.217,0.256-1.826,0.416a40.268,40.268,0,0,1-.352-6.215V12.169c1.666,0.032,2.947.417,4.453-.513-0.192-.513.192,0.192,0.1-0.833-0.32-2.467.641-2.531-2.018-2.435H187.53a26.748,26.748,0,0,1-5.062-.128c-1.858-.192-1.441.481-1.826,0.673a1.164,1.164,0,0,0,.032.737c0,1.217-.1,2.467-0.128,3.684-0.064,1.794-.16,3.556-0.128,5.382,0.032,0.513.032,1.025,0.032,1.57,0.1,2.691.16,5.19,0.128,7.881-0.1,2.082-.224,3.14,2.115,2.851,0.737-.1,2.435.064,2.883-0.256,0.513-.352.192-1.986,0.128-2.659-0.1-1.954.16-3.684,0.1-5.607V22.261C186.6,22.2,189.164,22.261,189.549,21.46Zm5.864,9.515c2.98,0.192,3.556-.032,4.678-1.794a8.1,8.1,0,0,0,.736-1.346,11.969,11.969,0,0,0,.93-3.236c0.032-.416.1-0.961,0.128-1.249a13.3,13.3,0,0,0,.128-1.57c0.032-1.314.064-1.954,0.16-3.236,0.064-.609.064-2.819,0-5.575l-0.064-4.581-0.192-.16a0.582,0.582,0,0,1-.192-0.256,2.374,2.374,0,0,0-1.154-.064c-0.416,0-3.044-.16-3.2.064-0.16,3.076-.032,6.28-0.16,9.419-0.032,1.121-.064,2.211-0.064,3.332-0.032,3.076-.16,4.806-0.384,5.126a0.862,0.862,0,0,1-.417.32c-0.288.1-.32,0.1-0.673-0.224l-0.352-.352-0.032-.993c-0.032-.545,0-1.89.064-2.98,0.16-3.428.128-7.016,0.192-10.477,0-.32.1-2.6-0.16-2.787-0.32-.256-4.421-0.417-4.614-0.032-0.32.577-.128,10.541-0.16,12.046a28.124,28.124,0,0,0,.224,6.952l0.033,0.288a3.865,3.865,0,0,0,1.7,2.723A6.294,6.294,0,0,0,195.413,30.975ZM208.006,13.29c-0.193-2.083-.225-1.922.576-1.922a1.5,1.5,0,0,1,1.314.673,1.642,1.642,0,0,1,.256,1.666,10.33,10.33,0,0,1-1.313,2.467,4.1,4.1,0,0,1-.513.609l-0.16.16v-0.9C208.166,15.533,208.07,14.283,208.006,13.29Zm-0.353,17.461c0.929-.064,1.09-0.1,1.186-0.256,0.128-.16.1-0.449-0.161-3.845-0.16-2.018-.32-3.973-0.32-4.389v-0.7l0.288,0.577c0.321,0.7.994,2.659,1.634,4.774,0.289,0.9.609,1.922,0.769,2.275,0.225,0.545.353,0.9,0.513,1.378a2.27,2.27,0,0,0,1.378.288c0.32,0,1.281-.064,2.114-0.128,1.922-.16,1.922-0.16,1.57-1.25a14.313,14.313,0,0,1-.352-1.538,25.175,25.175,0,0,0-1.378-4.421,13.727,13.727,0,0,0-1.922-3.14l-0.513-.577,0.737-.769a8.9,8.9,0,0,0,2.275-4.037,3.588,3.588,0,0,0,.1-1.442,3.288,3.288,0,0,0-.417-1.57A4.817,4.817,0,0,0,212.3,9.029a9.99,9.99,0,0,0-5.383-.961,4.536,4.536,0,0,0-2.755.7,1.015,1.015,0,0,0-.513,1.153c0.064,1.346.032,3.973-.032,5.03-0.032.641-.064,2.018-0.064,3.012s-0.064,2.755-.1,3.941c-0.064,1.634-.032,2.755.064,4.9,0.1,1.538.16,3.044,0.192,3.364,0.033,0.577.033,0.609,0.257,0.673A32.581,32.581,0,0,0,207.653,30.751Zm30.215-15.827c0.064-.833.352-5.831,0.256-6.248-0.448-.833-1.153-0.577-1.986-0.513a12.153,12.153,0,0,1-1.858.064,0.624,0.624,0,0,0-.385.1c-0.609.16-.32,0.449-0.32,1.121-0.032,1.089-.193,2.179-0.193,3.332a18.2,18.2,0,0,1-.032,2.307c-0.032.448-.064,0.865-0.1,1.314l-0.064,1.282-0.608.032c-0.353.032-1.026,0.064-1.506,0.064l-0.833.032v-4.2c0-.577.032-4.742-0.064-4.9-0.257-.481-1.859-0.352-2.4-0.352a7.187,7.187,0,0,0-1.666.064,5.414,5.414,0,0,0-.257.769c0,0.449.032,0.993,0,1.474,0,0.384-.032.769-0.032,1.185,0,0.16-.032.32-0.032,0.481-0.256,5.959-.288,6.055-0.416,6.215a0.466,0.466,0,0,0-.1.481c0.064,0.192.1,1.954,0.1,3.909,0,1.6.032,3.012-.064,4.613a18.7,18.7,0,0,0-.032,2.98c0.224,0.448,1.538.288,2.018,0.288h1.186c2.178,0,1.826-.641,1.73-2.4-0.064-1.057-.064-2.082-0.064-3.14l-0.032-4.1,0.768-.1a12.982,12.982,0,0,0,1.378-.192l0.577-.128-0.064.865c-0.032.481-.1,1.282-0.16,1.794-0.065.48-.161,1.538-0.225,2.307a9.184,9.184,0,0,1-.128,1.442c-0.032.448-.288,3.652,0.288,3.716,1.058,0.032,2.115-.128,3.2-0.1a18.58,18.58,0,0,0,1.859.032c0.352-.288.128-1.25,0.128-1.7-0.032-1.153,0-2.243-.064-3.4-0.064-1.57,0-3.14.032-4.71C237.772,18.288,237.836,15.565,237.868,14.924Zm6.377,16.051c2.98,0.192,3.556-.032,4.678-1.794a8.178,8.178,0,0,0,.737-1.346,11.964,11.964,0,0,0,.929-3.236c0.032-.416.1-0.961,0.128-1.249a13.3,13.3,0,0,0,.128-1.57c0.032-1.314.064-1.954,0.16-3.236,0.064-.609.064-2.819,0-5.575l-0.064-4.581-0.192-.16a0.582,0.582,0,0,1-.192-0.256,2.374,2.374,0,0,0-1.154-.064c-0.416,0-3.043-.16-3.2.064-0.16,3.076-.032,6.28-0.16,9.419-0.032,1.121-.064,2.211-0.064,3.332-0.032,3.076-.16,4.806-0.384,5.126a0.862,0.862,0,0,1-.417.32c-0.288.1-.32,0.1-0.673-0.224l-0.352-.352-0.032-.993c-0.032-.545,0-1.89.064-2.98,0.16-3.428.128-7.016,0.192-10.477,0-.32.1-2.6-0.16-2.787-0.32-.256-4.421-0.417-4.613-0.032-0.321.577-.129,10.541-0.161,12.046a28.076,28.076,0,0,0,.225,6.952l0.032,0.288a3.865,3.865,0,0,0,1.7,2.723A6.294,6.294,0,0,0,244.245,30.975Zm20.442-16.532c0-.673,0-5.9-0.1-5.991-0.288-.481-2.018-0.32-2.627-0.352-1.378-.032-1.314.16-1.378,1.474-0.064,1.6.032,3.236,0,4.838,0,1.41-.064,2.819-0.1,4.229-0.032.641-.064,1.314-0.1,1.954l-0.32-.961c-0.545-1.538-1.186-2.916-1.666-4.517-0.353-1.121-.705-2.275-1.058-3.4-0.16-.545-0.32-1.057-0.448-1.6a3.386,3.386,0,0,0-.385-1.153,0.419,0.419,0,0,1-.192-0.256c-0.128-.288-0.9-0.416-2.114-0.352a1.74,1.74,0,0,0-1.09.224,2.443,2.443,0,0,0-.1.961c0,0.737-.1,2.018-0.384,5.927-0.064.865-.16,2.371-0.193,3.268-0.064.929-.128,2.563-0.192,3.652-0.128,2.371-.064,8.234.064,8.554,0.128,0.288-.032.256,2.115,0.16a12.582,12.582,0,0,0,1.7-.16c0.16-.1.192-0.192,0.192-0.833a1.911,1.911,0,0,0-.128-0.9c-0.128-.16-0.128-0.8-0.128-4.325,0-2.243.032-4.71,0.064-5.446l0.064-1.378,0.352,1.378a49.51,49.51,0,0,0,1.634,5.094c0.321,0.833.8,2.179,1.09,2.948a10.315,10.315,0,0,0,.929,2.307,1.045,1.045,0,0,1,.224.481,0.855,0.855,0,0,0,.16.417c0.1,0.224.16,0.256,0.385,0.192,0.16-.032.929-0.064,1.73-0.1a9.616,9.616,0,0,0,1.73-.192,1.146,1.146,0,0,0,.545-1.025c0.064-.448,0-3.524-0.161-7.177C264.719,19.762,264.719,17.071,264.687,14.444Zm10.158,4.069c0.032,2.243-.257,6.183-2.179,7.657-0.224.192-1.153,0.865-1.185,0.224-0.032-.384.032-1.121,0.032-1.6,0-1.7,0-3.4-.032-5.062-0.064-2.114-.032-4.1-0.193-6.215-0.224-3.236,2.179.192,2.628,1.089a9.943,9.943,0,0,1,.8,2.5A7,7,0,0,1,274.845,18.512Zm-8.234-9.644a0.956,0.956,0,0,0,0,.737c0.128,1.089-.16,2.691-0.128,3.909,0.032,1.73-.032,3.46,0,5.19,0,1.826-.161,3.62-0.128,5.479q0.048,1.586,0,3.172a6.313,6.313,0,0,0,.224,2.05c0.16,0.993-.673,1.346.673,1.538a36.488,36.488,0,0,0,5.286-.1c3.748-.224,4.645-1.282,6.087-4.646a17.086,17.086,0,0,0,1.057-7.177c0-1.666,0-4.069-.736-5.575-1.186-2.307-2.852-4.966-5.7-5.158-1.057-.1-2.4.064-3.524,0.064-0.577,0-1.154,0-1.731.032C267.6,8.388,266.675,8.356,266.611,8.869Zm14.515-.128a0.176,0.176,0,0,1-.1.224c-0.192.1-.192,0.256,0,0.416,0.256,0.224.032,1.41,0,1.762-0.192,2.435-.192,4.9-0.257,7.337-0.064,3.2.033,6.247,0.033,9.419a2.227,2.227,0,0,1-.065.513c-0.1.32,0.385,0.481-.032,0.577-0.224.064-.1,0.256-0.032,0.449,0.129,0.448-.224,1.153.7,1.346a34.369,34.369,0,0,0,4.037-.064h0.192a18.666,18.666,0,0,0,4.229,0c0.9-.16,1.058.352,1.026-0.833A4.758,4.758,0,0,1,290.9,28.7c0.1-.064.064-0.064,0.1-0.224,0.064-.416-0.032-0.8,0-1.249,0-.1.032-0.192,0.032-0.288,0.16-.993-0.16-0.673-0.865-0.737a0.9,0.9,0,0,1-.289-0.032,6.426,6.426,0,0,0-1.922-.032,10.831,10.831,0,0,1-1.922.192c-0.289-.16-0.224-2.018-0.224-2.4-0.1-1.41-.417-4.389-0.065-5.639l0.032-.16c1.891-.288,4.582.545,3.941-2.371a4.789,4.789,0,0,1-.288-0.993c0.16-.865-3.524-0.288-3.685-0.384a5.265,5.265,0,0,1-.128-1.794c-0.032-1.121.321-.641,1.57-0.737,2.467-.192,2.723.16,2.339-2.339-0.192-1.41-.449-1.314-1.89-1.314-1.154.032-2.371,0.128-3.492,0.064a11.047,11.047,0,0,0-2.5-.064,0.516,0.516,0,0,1-.289.224C281.158,8.548,281.094,8.645,281.126,8.741Z" transform="translate(-11.969 -1.063)"/>
</svg>
