<svg xmlns="http://www.w3.org/2000/svg" viewBox="0 0 443.55 93.8"><defs><style>.cls-1{fill:#fff;}</style></defs><g id="Layer_2" data-name="Layer 2"><g id="katman_1" data-name="katman 1"><path class="cls-1" d="M269.5,33.1V2.4c0-1.1.2-1.6,1.4-1.4A21.75,21.75,0,0,0,276,1c1.1,0,1.3.3,1.3,1.3V54.7c0,1.3-.3,1.6-1.6,1.6-1.9-.2-4,0-6.1,0-1,0-1.4-.2-1.6-1.3-3.2-12.1-6.6-24.3-9.8-36.3-.2-.5-.2-1-.6-1.4V54.7c0,1.3-.3,1.8-1.6,1.6a19.28,19.28,0,0,0-4.8,0c-1.3.2-1.4-.3-1.4-1.4V2.7c0-1.1.2-1.4,1.4-1.4a56.1,56.1,0,0,0,8.2,0c1,0,1.4.3,1.6,1.3,2.6,9.9,5.3,19.7,7.8,29.6C269.1,32.3,269.1,32.8,269.5,33.1Z"/><path class="cls-1" d="M174.6,26.6c.2-3.4-.3-9,.2-14.4C175.6,2.9,182-.1,189.3.7c6.9.8,10.4,4.8,10.9,12.3a58,58,0,0,1,0,5.9c0,.8-.3,1-1,1H193c-.8,0-1-.3-1-1V12.8c-.2-3.2-2.2-5-5.6-4.3a3.62,3.62,0,0,0-3,3.2,11.4,11.4,0,0,0-.2,2.6V43.1a6.15,6.15,0,0,0,.2,1.9c.3,2.7,1.9,4,4.6,3.8a4.1,4.1,0,0,0,4.2-4.2,49.48,49.48,0,0,0,0-7.7c0-1,.2-1.4,1.3-1.3,1.9.2,4,0,6.1,0,.5,0,1,0,1,.8-.2,3.8.3,7.7-.5,11.4-1.3,5.4-5,8.6-10.6,9.1a14,14,0,0,1-5-.2,11,11,0,0,1-9.4-10.6c0-.8-.2-1.6-.2-2.2C174.4,38.7,174.6,33.8,174.6,26.6Z"/><path class="cls-1" d="M317.5,16c-1.3,0-2.9.5-3.8-.2s-.3-2.4-.5-3.7c-.3-2.6-1.8-4-4.2-4-2.6,0-3.8,1.3-4.2,3.8a10.5,10.5,0,0,0,2.6,8.6,56.68,56.68,0,0,0,4.8,5,42.64,42.64,0,0,1,6.1,6.6,18.92,18.92,0,0,1,2.4,16.8,9.94,9.94,0,0,1-8.2,7.4,16.67,16.67,0,0,1-8-.2c-4.8-1.1-7.8-5-8.5-10.7-.2-1.8,0-3.5-.2-5.3,0-.8.3-1,1-1H303c.8,0,1,.3,1,1.1a17.32,17.32,0,0,0,.3,5.1c.5,2.1,1.8,3.2,4.2,3.2a4.06,4.06,0,0,0,4.3-3,10.16,10.16,0,0,0-1.4-8.3,27.48,27.48,0,0,0-5.4-5.9,53.86,53.86,0,0,1-5.8-5.9,18.54,18.54,0,0,1-3.4-16.9c1.1-4.8,4.3-7.5,9.3-8.3a17.17,17.17,0,0,1,6.4.2,10.76,10.76,0,0,1,8.6,9.8,31.86,31.86,0,0,1,.3,4.5c0,.8-.2,1.1-1,1.1a6.76,6.76,0,0,1-2.9.2Z"/><path class="cls-1" d="M333.6,32.8V11.1c0-2.1,0-2.1-1.9-2.1h-5.9c-1,0-1.3-.2-1.3-1.1V2c0-.8.2-1,1-1h24.8c.8,0,1,.2,1,1V8.1c0,.8-.2,1.1-1,1.1h-6.6c-1.3,0-1.4.3-1.4,1.4V54.7c0,1.3-.3,1.8-1.6,1.8a28.1,28.1,0,0,0-5.8,0c-1.1,0-1.3-.3-1.3-1.4Z"/><path class="cls-1" d="M154.3,32.7V10.3c0-1.1-.3-1.4-1.3-1.3-2.1.2-4.3,0-6.4,0-1.1,0-1.3-.3-1.3-1.3V2.1c0-.8.2-1.1,1.1-1.1H171c.6,0,1,.2,1,1V8.1c0,.8-.3,1-1,1h-6.6c-1.1,0-1.4.3-1.4,1.4V54.6c0,1.4-.5,1.8-1.8,1.8a24.37,24.37,0,0,0-5.4,0c-1.1,0-1.6-.3-1.6-1.4C154.4,47.5,154.3,40,154.3,32.7Z"/><path class="cls-1" d="M366.4,8a3.85,3.85,0,0,0-.2,1.8V54.7c0,.5.3,1.3-.3,1.4a6.15,6.15,0,0,1-2.7,0c-.3,0-.2-.8-.2-1.1V2.5c0-1.3.2-1.8,1.6-1.8,3,.2,3,0,4.2,2.9,4.8,13.7,9.8,27.7,14.5,41.4.2.5.3,1,.5,1.4a2.41,2.41,0,0,0,.3-1.8V2.2c0-.5-.3-1.3.3-1.4a6.15,6.15,0,0,1,2.7,0c.3,0,.2.6.2,1V54.4c0,1.1-.3,1.6-1.4,1.4-2.6-.2-2.6,0-3.4-2.4C377.4,38.5,372.1,23.7,367,8.8,366.7,9,366.6,8.5,366.4,8Z"/><path class="cls-1" d="M291.4,28.8V54.7c0,1.3-.2,1.8-1.6,1.6-1.9-.2-4,0-6.1,0-.8,0-1.1-.3-1.1-1.1V2.8c0-1.3.3-1.8,1.6-1.6a29.06,29.06,0,0,0,5.9,0c1,0,1.3.3,1.3,1.3Z"/><path class="cls-1" d="M244.1,28.8V54.9c0,1.3-.3,1.6-1.6,1.4a23.48,23.48,0,0,0-5.3,0c-1.4.2-1.9-.3-1.9-1.9V2.4c0-1.3.3-1.6,1.6-1.4a26.21,26.21,0,0,0,5.6,0c1.3,0,1.6.3,1.6,1.6Z"/><path class="cls-1" d="M141.2,28.7V55.1c0,1.1-.2,1.4-1.3,1.4a29.06,29.06,0,0,0-5.9,0c-1.1,0-1.6-.3-1.4-1.4V2.7c0-1,.2-1.3,1.3-1.3a29.06,29.06,0,0,0,5.9,0c1.3,0,1.6.3,1.6,1.6C141,11.2,141.2,20,141.2,28.7Z"/><path class="cls-1" d="M391.7,28.8V2.6c0-1.3.3-1.6,1.6-1.6,6.2,0,12.5.2,18.7,0,1.6,0,1.3.8,1.3,1.8,0,.8.3,1.8-1.3,1.8-5.1-.2-10.2,0-15.3,0-1.1,0-1.3.3-1.3,1.3V25.4c0,1.1.2,1.4,1.3,1.4h12.5c1.4,0,1.3.8,1.3,1.6s.5,1.9-1.3,1.8c-4.2-.2-8.3,0-12.5,0-1.1,0-1.3.3-1.3,1.4V51.7c0,1.1.2,1.6,1.4,1.6h14.9c1.4,0,1.6.5,1.6,1.8,0,1.1-.2,1.6-1.6,1.6-6.2-.2-12.5,0-18.7,0-1.1,0-1.4-.3-1.4-1.3C391.7,46.2,391.7,37.6,391.7,28.8Z"/><path class="cls-1" d="M432.3,30.4V54.9c0,1.1-.2,1.8-1.4,1.4h-1.4c-.6,0-1-.2-.8-.8V6c0-1.3-.3-1.6-1.6-1.6-2.7.2-5.6,0-8.3,0-1,0-1.3-.2-1.3-1.3,0-2.1,0-2.1,2.1-2.1h22.5c1.8,0,1.3,1,1.4,1.9.2,1.1-.2,1.6-1.4,1.6-2.9-.2-5.6,0-8.5,0-1.1,0-1.3.3-1.3,1.3Z"/><path class="cls-1" d="M352.2,53a5.43,5.43,0,0,0,0-1.8c-.3-1.4.5-1.6,1.8-1.8,1.6,0,2.1.3,1.9,1.9a26.7,26.7,0,0,0,0,4c0,.8-.2,1.1-1,1.1-2.6.2-2.6.2-2.6-2.4A3.75,3.75,0,0,1,352.2,53Z"/><path class="cls-1" d="M288.1,83.8c.6-4.5,1.4-9,2.1-13.6,0-.5,0-1.1.8-1s.6.6.8,1.1c.6,4.2,1.3,8.5,1.9,12.6a1.14,1.14,0,0,0,.5,1.1c.8-4.6,1.4-9.1,2.2-13.6v-.6c0-.5.2-.8.8-.8.5.2.3.5.3.8-.3,2.2-.6,4.5-1.1,6.7-.5,3-1,6.1-1.4,9.1-.2.5,0,1.1-.8,1.1-1,0-1-.6-1-1.3-.6-4.2-1.3-8.3-2.1-12.8a34.94,34.94,0,0,0-1.1,5c-.5,2.6-.8,5.3-1.3,7.8-.2.5,0,1.3-1,1.3s-1-.6-1.1-1.3c-.8-5-1.6-10.1-2.4-15,0-.5-.2-.8-.2-1.3,0-.2.3-.3.5-.3.6,0,.6.6.6,1,.6,3.8,1.3,7.8,1.9,11.7a12.5,12.5,0,0,1,.3,1.9.92.92,0,0,1,.2,1C287.8,84.6,287.8,84.1,288.1,83.8Z"/><path class="cls-1" d="M391.7,83.5V69.6a.5.5,0,1,1,1,0v16c0,.5.5,1.1-.5,1.3s-1-.5-1.1-1.1c-1.6-4.6-3.2-9.1-5-13.7,0,.3-.2.6-.2,1.1V85.8c0,.5.3,1.1-.5,1.1s-.5-.8-.5-1.1V70.5c0-.5-.3-1.1.6-1.3.8,0,1,.5,1.3,1.1,1.4,4.2,3,8.5,4.5,12.6.2.1.2.4.4.6Z"/><path class="cls-1" d="M324.7,72.1V86.7a.54.54,0,0,1-.5.5.47.47,0,0,1-.5-.5V71.1c0-.6-.6-1.6.6-1.9s1.1.8,1.4,1.4c1.4,4,2.9,8.2,4.3,12.1.2.2.2.5.5.6V69.7c0-.3,0-.8.5-.8s.5.5.5.8V86a.7.7,0,0,1-.5.8,1,1,0,0,1-1.1-.8c-1.1-3.2-2.2-6.2-3.4-9.4-.5-1.6-1.1-3-1.6-4.6A.31.31,0,0,1,324.7,72.1Z"/><path class="cls-1" d="M216.1,83.7V69.8a.47.47,0,0,1,.5-.5c.5,0,.5.2.5.5V85.4c0,.5.5,1.4-.5,1.6s-1.1-.8-1.3-1.4c-1.4-4.2-2.9-8.3-4.3-12.5a2.41,2.41,0,0,0-.6-.8V84.9c0,.6.6,2.1-.5,2.1s-.6-1.4-.6-2.1V70.5c0-.5-.3-1.1.6-1.3s1.1.3,1.3,1c1.4,4.2,2.9,8.3,4.5,12.5A1.19,1.19,0,0,0,216.1,83.7Z"/><path class="cls-1" d="M382.6,78.2v7.7c0,.5.3,1.1-.6,1.1s-.6-.6-.6-1.1V79.8c0-1-.3-1.1-1.1-1.1-1.4.2-3.2-.6-4.2.3-.8.8-.2,2.6-.3,4v3.2c0,.3.2.8-.5,1-.6,0-.6-.3-.6-.8V70.3c0-.5,0-.8.6-.8.8,0,.6.6.6,1v6.1c0,1,.3,1.3,1.3,1.1,1.4-.2,3.2.5,4-.3,1-.8.2-2.6.3-4V70.2c0-.3-.2-.8.5-1,.8,0,.6.5.6,1Z"/><path class="cls-1" d="M423.6,78.4v5.1c.2,1.8,1.1,2.7,2.6,2.7a2.64,2.64,0,0,0,2.6-2.6V81.4c0-1.1.3-2.7-1.8-2.2a.56.56,0,0,1-.6-.5c0-.3.2-.5.6-.5h2.1c.5,0,.6.3.6.8a26,26,0,0,1-.2,5.6,3.43,3.43,0,0,1-3.7,2.9,3.37,3.37,0,0,1-3.5-2.7c-.5-1.4-.2-2.9-.2-4.5V73.6a3.91,3.91,0,0,1,3.2-4.2,4.07,4.07,0,0,1,4.5,5.1.56.56,0,0,1-.5.6.53.53,0,0,1-.6-.6V73.2q-.3-2.7-2.7-2.7c-1.4,0-2.4,1-2.6,2.7C423.5,74.7,423.6,76.5,423.6,78.4Z"/><path class="cls-1" d="M171.4,76.9V70.5c0-.5-.5-1.4.5-1.4s.6,1,.6,1.4v12a3.85,3.85,0,0,0,.8,2.6,2.36,2.36,0,0,0,2.7.6,2.72,2.72,0,0,0,1.8-2.4,35.4,35.4,0,0,0,.2-4.6V70.1c0-.5-.3-1.1.6-1.1s.5.8.5,1.1V81.9a17.67,17.67,0,0,1-.3,2.1,3.25,3.25,0,0,1-3.4,2.7,3.42,3.42,0,0,1-3.7-2.6C170.9,81.9,171.5,79.2,171.4,76.9Z"/><path class="cls-1" d="M103.9,78.7V73.1c.2-2.4,1.3-3.8,3.2-4a4.13,4.13,0,0,1,4.3,5.4c-.2.3-.2.5-.6.5s-.5-.2-.5-.6a6.15,6.15,0,0,0-.2-1.9,2.26,2.26,0,0,0-2.4-2.2,2.48,2.48,0,0,0-2.7,2.2A73.58,73.58,0,0,0,105,84a2.38,2.38,0,0,0,2.6,2.2,2.44,2.44,0,0,0,2.6-2.2c.2-.8,0-1.6.2-2.4,0-.3.2-.8.6-.6.5,0,.5.3.5.8a11.58,11.58,0,0,1-.3,3.2,3.34,3.34,0,0,1-3.5,2.6,3.21,3.21,0,0,1-3.5-2.6C103.6,82.5,104.1,80.3,103.9,78.7Z"/><path class="cls-1" d="M161.8,78.7a52,52,0,0,1,0-5.6c.2-2.9,1.8-4.3,4.5-3.8,2.1.3,4,3.7,3,5.6-.2.3-.3.3-.6.3a.47.47,0,0,1-.5-.5V72.8c-.2-1.6-1.1-2.6-2.6-2.6a2.5,2.5,0,0,0-2.7,2.4,104.61,104.61,0,0,0,0,11.2,2.54,2.54,0,0,0,2.6,2.4,2.41,2.41,0,0,0,2.6-2.4c.2-.8,0-1.6.2-2.4,0-.3,0-.6.5-.6s.6.2.6.6a15.42,15.42,0,0,1-.3,3.7c-.6,1.6-1.8,2.2-3.7,2.2a3.35,3.35,0,0,1-3.4-2.6C161.5,82.4,161.9,80.3,161.8,78.7Z"/><path class="cls-1" d="M220.3,78.1v5.3q.3,2.7,2.7,2.7c1.4,0,2.4-1,2.6-2.7V81.5c0-.3,0-.8.5-.8a.53.53,0,0,1,.6.6,13.43,13.43,0,0,1-.3,3.4,3.28,3.28,0,0,1-3.7,2.4,3.34,3.34,0,0,1-3.5-2.6,11.58,11.58,0,0,1-.3-3.2V73.1c0-2.7,1.4-4.2,3.7-4.2a4.31,4.31,0,0,1,4,5.4c-.2.3-.3.5-.5.5a.56.56,0,0,1-.6-.5V72.4c-.2-1.6-1.1-2.6-2.6-2.6a2.31,2.31,0,0,0-2.6,2.4,57.9,57.9,0,0,0,0,5.9Z"/><path class="cls-1" d="M365.4,78.7V73.1c.2-2.7,1.6-4.2,4.2-4,2.4.2,4.3,3.4,3.4,5.6-.2.3-.3.3-.6.3a.56.56,0,0,1-.5-.6,6.15,6.15,0,0,0-.2-1.9,2.26,2.26,0,0,0-2.4-2.2,2.48,2.48,0,0,0-2.7,2.2,73.58,73.58,0,0,0,0,11.5,2.38,2.38,0,0,0,2.6,2.2c1.5,0,2.2-.8,2.6-2.2a9.74,9.74,0,0,0,.2-2.4c0-.5,0-.8.6-.8s.5.3.5.8a11.58,11.58,0,0,1-.3,3.2,3.34,3.34,0,0,1-3.5,2.6,3.21,3.21,0,0,1-3.5-2.6A19.2,19.2,0,0,1,365.4,78.7Z"/><path class="cls-1" d="M265.7,84.9c1.1-4.8,2.1-9.6,3.2-14.4,0-.2,0-.5.2-.6,0-.5.3-.8.8-.6s.3.6.3,1c-1,4.3-1.8,8.5-2.7,12.8a26.53,26.53,0,0,0-.6,3c-.2.6-.3,1.1-1.1,1.1s-1-.5-1.1-1c-1.1-5.3-2.2-10.6-3.4-15.7-.2-.3-.5-1,.3-1.1.6,0,.6.5.8,1,1.1,5,2.1,9.9,3.2,14.9C265.5,84.9,265.5,84.9,265.7,84.9Z"/><path class="cls-1" d="M302.9,87.2a3.83,3.83,0,0,1-3.8-4.8c.2-.3.2-.5.6-.5s.5.3.5.6a5.24,5.24,0,0,0,.2,1.8,2.48,2.48,0,0,0,2.4,1.9,2.4,2.4,0,0,0,2.6-1.8,3.73,3.73,0,0,0-1.4-4.6,24.29,24.29,0,0,1-3-2.6,5.35,5.35,0,0,1-1.6-5c.5-2.2,1.8-3.2,4.2-3,1.9.2,3,1.4,3.2,3.5,0,.5.3,1.1-.5,1.1s-.5-.6-.6-1c-.3-1.9-1.3-2.9-2.9-2.7-1.9.2-2.9,2.6-2.1,4.6a4.89,4.89,0,0,0,1.8,2.2,32,32,0,0,1,2.7,2.2,5.17,5.17,0,0,1,1.1,5.8A3.45,3.45,0,0,1,302.9,87.2Z"/><path class="cls-1" d="M356.5,78.1V70.6c0-1,.3-1.3,1.3-1.3h4.8c.3,0,1-.2,1,.5s-.5.5-1,.5h-3.7c-1,0-1.3.2-1.3,1.1a46.85,46.85,0,0,1,0,5.3c0,.6.2,1,.8,1h3.2c.3,0,.8,0,.8.5s-.3.5-.8.5h-2.9c-.8,0-1.3.2-1.1,1.1v5.4c0,.8.3,1.1,1.1,1h3.8c.3,0,1-.2,1,.5s-.5.5-.8.5h-5.1c-1,0-1.1-.3-1.1-1.1Z"/><path class="cls-1" d="M200.3,78.1V70.6c0-1,.2-1.4,1.3-1.3a41.7,41.7,0,0,0,5,0c.3,0,1,0,.8.6,0,.5-.5.5-.8.5h-4c-.6,0-1,.2-1,1v5.4c0,.8.3,1,1,1h2.9c.3,0,1-.2,1,.5s-.6.6-1,.6h-2.7c-.8,0-1.1.2-1.1,1v5.4c0,1,.3,1.1,1.1,1.1h3.8c.5,0,.8,0,.8.6s-.5.5-.8.5h-5.1c-.8,0-1.1-.2-1.1-1.1C200.3,83.3,200.3,80.6,200.3,78.1Z"/><path class="cls-1" d="M275.1,78.1V70.4c0-1,.3-1.3,1.3-1.3h5c.3,0,1-.2.8.5,0,.5-.5.5-.8.5h-3.8c-.8,0-1.3.2-1.1,1.1v5.3c0,.8.2,1,1,1h3.2c.3,0,.6,0,.6.5a.53.53,0,0,1-.6.6h-3c-.8,0-1.1.2-1.1,1v5.6c0,.8.3,1,1,1h4c.5,0,.8,0,.8.6s-.5.5-.8.5h-5.3c-.8,0-1-.3-1-1.1C275.1,83.3,275.1,80.8,275.1,78.1Z"/><path class="cls-1" d="M255.8,69.3h2.4c.3,0,1-.2,1,.5s-.6.5-1,.5h-3.8c-.8,0-1.1.3-1,1.1v5.3c0,.8.3,1,1.1,1h2.9c.3,0,1-.2.8.5,0,.5-.5.5-.8.5h-3c-.8,0-1,.2-1,1v5.6c0,.8.3,1,1,1h3.8c.5,0,1-.2,1,.6,0,.6-.6.5-1,.5h-5.1c-.8,0-1-.3-1-1.1V70.8c0-1,.3-1.3,1.3-1.3A8.24,8.24,0,0,1,255.8,69.3Z"/><path class="cls-1" d="M127.3,78.5c1.1-3,2.1-5.8,3-8.3.2-.5.2-1.1,1-1,.8.3.2.8,0,1.3a33.55,33.55,0,0,1-1.4,3.8,23.65,23.65,0,0,0-2.1,11.4c0,.5.5,1.3-.6,1.3s-.6-.8-.6-1.3c.8-5.3-1.6-9.8-3.2-14.5-.2-.3-.3-.8-.5-1.1s-.3-.6.2-.8a.53.53,0,0,1,.8.5,21.52,21.52,0,0,0,1,2.7C125.8,74.4,126.5,76.3,127.3,78.5Z"/><path class="cls-1" d="M435.6,78.5c1-2.7,1.9-5.3,2.7-7.7.2-.3.3-.8.5-1.1s.3-.6.8-.5.3.6.2,1c-.5,1.3-1,2.7-1.4,4a22.26,22.26,0,0,0-2.1,11.7c0,.5.3,1.3-.6,1.3s-.6-.8-.6-1.1c.8-5.1-1.4-9.8-3-14.4a1.6,1.6,0,0,1-.3-.8c0-.5-.8-1.1,0-1.4s.8.5,1,1.1C433.6,72.9,434.5,75.5,435.6,78.5Z"/><path class="cls-1" d="M232.3,78.5c1.1-3,2.1-5.6,3-8.3.2-.5.2-1.1,1-1,.8.3.2.8.2,1.3a33.55,33.55,0,0,1-1.4,3.8A23.65,23.65,0,0,0,233,85.7c0,.5.5,1.3-.6,1.3s-.6-.8-.6-1.3c.8-5.1-1.4-9.8-3.2-14.4-.2-.3-.3-.8-.5-1.1s-.5-.8.2-1,.8.2,1,.6a17.18,17.18,0,0,0,1.1,2.9C231,74.5,231.6,76.5,232.3,78.5Z"/><path class="cls-1" d="M145.8,78.5V71.6c0-1.3-.5-1.6-1.6-1.4-.6,0-1.9.5-1.9-.5,0-.8,1.1-.5,1.8-.5h5.6c.3,0,1,0,.8.6,0,.5-.5.5-.8.5-.8,0-1.9-.3-2.6.2s-.2,1.9-.2,2.9V86c0,.5.3,1.1-.5,1.3-1,0-.6-.6-.6-1.1Z"/><path class="cls-1" d="M350.3,78.5V71.8c0-1.3-.3-1.8-1.6-1.6-.6,0-1.9.6-1.9-.5,0-.8,1.1-.3,1.8-.5H354c.3,0,1-.2,1,.5s-.5.5-.8.5c-2.7.3-2.7.3-2.7,3V85.8c0,.5.3,1.1-.5,1.1-1,0-.6-.8-.6-1.3C350.3,83.3,350.3,80.9,350.3,78.5Z"/><path class="cls-1" d="M404.3,78.1V70.4c0-.5-.2-1.1.6-1.1s.6.6.6,1.1c0,4.6.2,9.3,0,13.9,0,1.4.5,1.8,1.8,1.6a12.15,12.15,0,0,1,2.7,0c.5,0,1-.2,1.1.5s-.6.5-1,.5h-4.6c-1,0-1.1-.3-1.1-1.1C404.3,83.3,404.3,80.6,404.3,78.1Z"/><path class="cls-1" d="M272.1,78.2V70.4c0-.5-.3-1.1.6-1.1s.6.6.6,1.1V86.1c0,.3.3,1-.5,1s-.6-.6-.6-1.1C272.1,83.3,272.1,80.8,272.1,78.2Z"/><path class="cls-1" d="M288.1,83.8a1.44,1.44,0,0,1-.3,1.4,2.18,2.18,0,0,1-.2-1.3C287.6,84,287.8,84,288.1,83.8Z"/><path class="cls-1" d="M91,.6H1.6C.5.6,0,.9,0,2.2V61.7a3,3,0,0,0,1,2.2c9.6,9.6,19,19.2,28.6,28.8a3.48,3.48,0,0,0,2.7,1.1H90.8c1.3,0,1.8-.4,1.8-1.8V2.4C92.6,1.1,92.4.6,91,.6ZM70,41c-.5,3.8-2.4,6.7-6.2,8-.5-.2-.7,0-.7,0,5.3,3,6.4,7,5,12-1.6,5.8-5.4,8.8-11.2,9.1a19.6,19.6,0,0,1-6.4-.5c-1.3-.3-1.9-.2-2.1,1.3-.3,2.1-1,4-1.4,6.1-.2,1-.5,1.3-1.6,1-1.3-.5-3.2-.2-3.8-1.3s.5-2.6.6-4a32.92,32.92,0,0,1,1-3.7c.2-.8,0-1.1-.8-1.3-3.2-1-3.2-1-4,2.2a36.69,36.69,0,0,0-1.1,5c-.2.8-.5,1-1.1.6H36c-1.4-.3-3.4-.3-4-1.3-.8-.8.3-2.6.6-4a17.9,17.9,0,0,1,1-3.5c.3-1,0-1.3-.8-1.4-2.9-.6-5.8-1.4-8.6-2.1-.8-.2-1-.5-.6-1.3.6-1.4,1.3-2.9,1.9-4.3.3-.8.8-.8,1.4-.6a14.5,14.5,0,0,0,3,.6A1.82,1.82,0,0,0,32.3,56c1.9-7.8,4-15.7,5.9-23.5a2.72,2.72,0,0,0-1.9-3.4c-1.1-.3-2.2-.6-3.2-.8s-1.1-.6-.8-1.4c.5-1.4.3-3.5,1.3-4.3s2.9.5,4.3.8A42.3,42.3,0,0,1,43,24.7c1,.2,1.3.2,1.6-1,.5-2.2,1.1-4.5,1.6-6.7.2-.8.5-1,1.3-.8,1.4.5,3.4.3,4.2,1.3.6,1-.5,2.7-.8,4a23,23,0,0,1-1,3.5c-.2.6,0,.8.6,1.1,3.4,1.1,3.4,1.1,4.2-2.2.3-1.6.8-3,1.1-4.6.2-.8.5-1,1.1-.6,1.4.5,3.4.3,4.2,1.3s-.5,2.7-.6,4c-.3,1.4-1.3,3.2-1,4.5.3,1.1,2.6,1.3,3.8,1.9a21.36,21.36,0,0,1,2.2,1.3A9.09,9.09,0,0,1,70,41Z"/><path class="cls-1" d="M127.7,37.5c-.1-4.5-1.4-8.5-6.2-10.6a9.88,9.88,0,0,0,5.1-7.3,26.84,26.84,0,0,0,.2-8C126,4.7,123.3,2,116.4,1.2c-4.6-.5-9.3,0-13.9-.2-1.2,0-1.4.3-1.4,1.4V55c0,.7-.1,1.3,1,1.3,5-.2,9.9,0,14.9-.2,5.6-.2,9.3-3.6,10.4-9A38.3,38.3,0,0,0,127.7,37.5Zm-18-21.3V10.1c0-.8.2-1.3,1.1-1.1a19.29,19.29,0,0,0,3.4,0,3.44,3.44,0,0,1,3.8,3.2,20,20,0,0,1,0,7.7,4.3,4.3,0,0,1-4.2,3.7c-4.2.3-4.2.3-4.2-3.8C109.7,18.6,109.7,17.3,109.7,16.2Zm9.4,28.6c-.3,2.4-1.4,3.5-3.8,3.7a33.78,33.78,0,0,1-4.5,0c-.6,0-1-.2-1-.8V32.5c0-.6.2-1,.8-.8h3.8c2.7.2,4.2,1.4,4.5,4.2.2,1.4.2,3,.4,4.6A31,31,0,0,1,119.1,44.8Z"/><path class="cls-1" d="M230,13.5c-.1-7.5-4-12-11-12.8-7.7-.8-14.6,2.2-14.9,12-.3,10.7-.2,21.4,0,32.1.2,5,2.3,9.3,7.4,11.2a16.55,16.55,0,0,0,11.4,0,10.23,10.23,0,0,0,6.1-5.6,17,17,0,0,0,1.4-6.6v-15C230.4,23.7,230.5,18.6,230,13.5Zm-8.3,15.3V43.2a9.74,9.74,0,0,1-.2,2.4,4,4,0,0,1-4.2,3.4c-2.4,0-3.7-1.1-4.3-3.4a8.2,8.2,0,0,1-.2-2.2V13.8a6.61,6.61,0,0,1,.3-2.4c.6-2.2,1.9-3.2,4.3-3.2a4.09,4.09,0,0,1,4.2,3.2,11.53,11.53,0,0,1,.3,2.6C221.7,19.1,221.7,23.9,221.7,28.8Z"/><path class="cls-1" d="M341.3,73.6c-.2-3.3-1.4-4.3-4.8-4.3h-1.8c-1.1-.1-1.4.2-1.4,1.3v7.5a45.2,45.2,0,0,0,.2,5.2c0,3.9,0,3.9,3.8,3.7a3.54,3.54,0,0,0,3.8-3.5A46.55,46.55,0,0,0,341.3,73.6Zm-1.1,9.2a3.53,3.53,0,0,1-5.1,3.2c-.5-.2-.3-.6-.3-1.1-.2-2.2-.2-4.4-.2-6.8V71.4c0-1,.3-1.1,1.3-1.1,3.4,0,4.3.8,4.3,4.2Z"/><path class="cls-1" d="M250.2,86.2a15.35,15.35,0,0,1-.2-4.3c0-1.5-.4-2.8-2.2-3.4A3.68,3.68,0,0,0,250,76c.4-4.7.4-7.4-5.4-6.9h-1c-.7,0-1,.2-1,1v16c0,.5,0,1,.6,1,.7-.2.5-.7.5-1V80.2c0-.5-.2-.9.6-1.1,3.2-.4,4.5.8,4.5,3.8v1.6a6.15,6.15,0,0,0,.2,1.9.73.73,0,0,0,1,.6C250.7,86.8,250.2,86.5,250.2,86.2Zm-6.3-8.1a.83.83,0,0,1-.3-.8V74.1a9.64,9.64,0,0,0,0-2.4c-.2-1.3.5-1.6,1.6-1.4,1.3.2,2.7-.2,3.2,1.4a6.37,6.37,0,0,1-.2,5.4C247.7,77.9,244.5,78.5,243.9,78.1Z"/><path class="cls-1" d="M121.1,86.2a15.53,15.53,0,0,1-.2-4.3,3.18,3.18,0,0,0-2.1-3.4c1.7-1.1,2.1-1.7,2.1-3.4a15,15,0,0,0,0-3,3.26,3.26,0,0,0-3.2-3h-3.4c-.6,0-.8.4-.8,1v16c0,.5,0,1,.6,1,.7-.2.5-.7.5-1V80.2c0-.5-.2-.9.6-1.1,3.1-.4,4.5.8,4.5,3.8v2.2a3.64,3.64,0,0,0,.2,1.4c.2.5.5.7,1,.5C121.6,86.8,121.1,86.5,121.1,86.2ZM114.8,78c-.3-.2-.2-.5-.2-.8V74.1c0-.6-.2-1.1,0-1.6.2-.8-.6-1.9.6-2.1,1.9-.3,3.8.2,4.2,1.4a7.87,7.87,0,0,1,0,4.8C119.1,77.7,115.6,78.8,114.8,78Z"/><path class="cls-1" d="M198.1,86.2a15,15,0,0,1-.2-4.2c0-1.6-.4-2.9-2.2-3.5,1.1-.6,1.9-1.2,2-2.5.5-4.6.5-7.5-5.3-7h-1.1c-.7,0-1,.2-1,1V86c0,.7,0,1,.6,1,.7-.2.5-.7.5-1V80.1c0-.8.3-1.1,1.1-1.1,3.4,0,4.2.8,4.2,4a18.84,18.84,0,0,0,.2,3.4c0,.6.5.8,1,.6C198.6,86.8,198.1,86.5,198.1,86.2Zm-5.9-8.1c-.5-.2-.3-.5-.3-.8a17.74,17.74,0,0,1-.2-3.2V71.9c-.2-1.3.3-1.6,1.6-1.6,2.9.2,3.7.8,3.7,3.7v1.1A3.4,3.4,0,0,1,192.2,78.1Z"/><path class="cls-1" d="M188.5,86a13.46,13.46,0,0,1-.2-4c0-1.6-.5-2.9-2.1-3.5a6.38,6.38,0,0,0,2-7.1c-1-2.3-3.1-2.1-5-2.1h-1.4c-.8-.1-1,.4-1,1V86.1c0,.4-.2,1,.6,1s.6-.5.6-1V80.2c0-.5-.2-.8.3-1.1a3.56,3.56,0,0,1,4.8,2.6v2.1c0,.8.2,1.6.2,2.4,0,.6.4,1,1,.8C189.1,86.8,188.5,86.3,188.5,86Zm-6.3-7.9a.83.83,0,0,1-.3-.8,17.74,17.74,0,0,0,.2-3.2c0-.6-.2-1.1,0-1.6.2-.8-.8-1.9.6-2.2,2.4-.3,3.8.3,4.3,1.9a9,9,0,0,1,0,4C186.7,77.6,183.6,78.9,182.2,78.1Z"/><path class="cls-1" d="M420.2,72.8a3.51,3.51,0,0,0-3.4-3.7c-2.4-.2-4,.8-4.2,3.2a72.31,72.31,0,0,0,0,11.4c.2,2.4,1.8,3.6,4.2,3.4,2.1,0,3.5-1.4,3.5-3.8V78.2C420.3,76.3,420.3,74.5,420.2,72.8Zm-1,10.4a2.48,2.48,0,0,1-2.9,2.7c-1.6,0-2.4-1.1-2.6-2.9V73c.2-1.9,1-2.9,2.6-2.9a2.67,2.67,0,0,1,2.9,2.7A90.2,90.2,0,0,1,419.2,83.2Z"/><path class="cls-1" d="M398.9,69.2a3.56,3.56,0,0,0-4.2,3.5,100.9,100.9,0,0,0,0,11c.2,2.5,1.8,3.7,4.2,3.5a3.67,3.67,0,0,0,3.5-4v-10C402.3,70.8,401,69.4,398.9,69.2Zm2.4,13.6c-.2,2.1-1.1,3.2-2.7,3.2-1.8,0-2.7-1.1-2.7-3.2V72.9a2.64,2.64,0,0,1,2.4-2.9,2.4,2.4,0,0,1,2.9,2.4c.1,2-.1,3.9.1,5.8Z"/><path class="cls-1" d="M159.9,72.8a3.51,3.51,0,0,0-3.4-3.7c-2.4-.2-4,.8-4.2,3.2a72.31,72.31,0,0,0,0,11.4c.2,2.4,1.8,3.6,4.2,3.4,2.1,0,3.5-1.4,3.5-3.8V78.2C160,76.3,160,74.5,159.9,72.8ZM159,83.2a2.48,2.48,0,0,1-2.9,2.7c-1.6,0-2.4-1.1-2.6-2.9a40,40,0,0,1,0-4.9V73c.2-1.9,1-2.9,2.6-2.9a2.67,2.67,0,0,1,2.9,2.7A90.2,90.2,0,0,1,159,83.2Z"/><path class="cls-1" d="M321.5,86.2c.1,0,0-.2-.2-.3-1.2-5.3-2.3-10.4-3.4-15.5-.1-.5,0-1.3-1.1-1.3-.9,0-.9.7-1.1,1.3-1.2,5.3-2.3,10.4-3.4,15.5-.1.3-.6.9.2,1.1.6.3.6-.3.8-.8.8-3,.8-3,4-3h1c1-.2,1.4.1,1.6,1.1.2.8.3,1.4.5,2.2.2.5.3.5.8.5C321.5,87,321.7,86.8,321.5,86.2ZM318.8,82h-4.5c.8-3.7,1.6-7.4,2.4-10.9a.49.49,0,0,0,.3.1c.8,3.4,1.6,6.9,2.4,10.2C319.6,82,319.2,82,318.8,82Z"/><path class="cls-1" d="M134.8,69.1c-1,.2-1.3.3-1.3,1.3v7.8c0,2.7,0,5.3.1,7.8,0,.5,0,1,.6,1,.7-.2.5-.7.5-1a35.3,35.3,0,0,0,0-4.6c-.1-1.6.4-1.9,1.8-1.9,3.4.2,4.5-.9,4.5-4.3C141,69.7,140.2,68.9,134.8,69.1Zm5.1,5.9c0,3-1.6,4.3-4.6,3.7-.6-.2-.6-.5-.6-1-.1-1.1-.1-2.2-.1-3.3a11.3,11.3,0,0,0,0-2.6c-.2-1.4.5-1.8,1.8-1.6,2.7.2,3.4.8,3.5,3.5Z"/><path class="cls-1" d="M50.2,62.2a42.4,42.4,0,0,1-8.5-1.6c-.6-.2-1-.5-.6-1.1.8-3.4,1.6-6.7,2.6-9.9.2-.5.2-1,1-.8,3.4.8,6.9,1.6,9.9,3.5,1.8,1.1,3.2,2.7,3,5a5.25,5.25,0,0,1-4.6,5A26.2,26.2,0,0,0,50.2,62.2Z"/><path class="cls-1" d="M53.2,44.5A23.06,23.06,0,0,1,46,43.2c-.8-.2-.8-.5-.6-1.3.8-3,1.4-5.9,2.2-9,.2-.5.3-.8,1-.6,3,.8,6.2,1.3,8.8,3.4a4.75,4.75,0,0,1-1.2,8.2A5.16,5.16,0,0,1,53.2,44.5Z"/></g></g></svg>