<svg xmlns="http://www.w3.org/2000/svg" viewBox="0 0 375.92 97.37"><defs><style>.cls-1{fill:#fff;}</style></defs><g id="Layer_2" data-name="Layer 2"><g id="katman_1" data-name="katman 1"><path class="cls-1" d="M46.52.41A.72.72,0,0,1,46.3.24a1.93,1.93,0,0,1,0-.24,1.44,1.44,0,0,1,.18.25l0,.08S46.52.39,46.52.41Z"/><path class="cls-1" d="M51.37.24a1.3,1.3,0,0,1-.23.18.22.22,0,0,1,0-.08A.41.41,0,0,1,51.2.25Z"/><path class="cls-1" d="M375.92,58c-.36-.23-.25-.6-.25-.92q0-7.34,0-14.68c0-.33-.09-.69.25-.93Z"/><path class="cls-1" d="M46.52.41A.72.72,0,0,1,46.3.24a1.93,1.93,0,0,1,0-.24,1.44,1.44,0,0,1,.18.25l0,.08S46.52.39,46.52.41Z"/><path class="cls-1" d="M48.83.29c0,.1,0,.21,0,.31h-.22q-.37,0-.75,0h-.24a1.3,1.3,0,0,1,.19-.31Z"/><path class="cls-1" d="M51.37.24a1.3,1.3,0,0,1-.23.18,1.4,1.4,0,0,1-.34.13l-.2,0a2.81,2.81,0,0,0,0-.29l.59,0Z"/><path class="cls-1" d="M50.12,97.16a1.48,1.48,0,0,0,0,.21h-2.8c0-.07,0-.14,0-.21A2.34,2.34,0,0,1,50.12,97.16Z"/><path class="cls-1" d="M.21,49.84H.11l-.11,0V47.29a.79.79,0,0,1,.22,0A2,2,0,0,1,.21,49.84Z"/><path class="cls-1" d="M.21,49.84c0-.85,0-1.71,0-2.56A2,2,0,0,1,.21,49.84Z"/><path class="cls-1" d="M50.12,97.16H47.3A2.34,2.34,0,0,1,50.12,97.16Z"/><path class="cls-1" d="M97.1,49v.06L97,49Z"/><path class="cls-1" d="M269.39,50.36c-.54,4.15-1.1,8.3-1.61,12.46-.11.89-.38,1.31-1.39,1.23-1.39-.1-2.8,0-4.19,0a1.87,1.87,0,0,1-2.13-1.83q-1.68-12.77-3.45-25.52c-.15-1.06.09-1.35,1.19-1.33,3.83.07,4,.21,4.43,4,.65,5.5,1.37,11,2.06,16.49a.54.54,0,0,0,.37.53c.54-4.56,1.09-9.08,1.62-13.6.21-1.76.38-3.53.63-5.29s.9-2.16,3.23-2.1a2.22,2.22,0,0,1,2.5,2.27q1.05,9,2.09,18c.16.15-.1.65.42.5.79-6.34,1.59-12.68,2.36-19a1.81,1.81,0,0,1,1.69-1.73c2.86-.49,3.22-.2,2.88,2.54q-1.5,11.84-3,23.67c-.24,1.86-.88,2.39-2.75,2.4-1.32,0-2.63,0-3.95,0-.64,0-.87-.22-1-.85-.51-4-1-8-1.58-12.08C269.53,51,270.06,50.3,269.39,50.36Z"/><path class="cls-1" d="M342.05,44.14V60.65a3.37,3.37,0,0,1-4.8,3.37c-.64-.24-.37-.79-.37-1.2,0-7,0-14.06,0-21.09,0-1.73,0-3.47,0-5.2,0-.85.16-1.23,1.1-1.17,1.35.08,2.71,0,4.07,0a2.47,2.47,0,0,1,2.63,1.91q2.24,6.81,4.53,13.59a2.18,2.18,0,0,0,.54,1V38.72c0-2.83,2.08-4.27,4.76-3.33a.44.44,0,0,1,.36.44c0,.25,0,.5,0,.76,0,8.72,0,17.44,0,26.17,0,1.08-.32,1.29-1.34,1.29-5.06,0-4.54,0-6-4.34q-2.62-7.78-5.22-15.57Z"/><path class="cls-1" d="M231.41,52c0-4.81,0-9.43,0-14a2.27,2.27,0,0,1,2.54-2.6c2.55-.06,2.55-.06,2.55,2.48,0,8.3,0,16.6,0,24.9,0,1-.18,1.3-1.24,1.3-5.11,0-4.64.11-6.15-4.47-1.6-4.84-3.24-9.68-4.86-14.52a3.83,3.83,0,0,0-.66-1.24V57c0,1.52,0,3,0,4.57A2.3,2.3,0,0,1,221.44,64c-2.83.4-3,.28-3-2.53,0-8.3,0-16.61,0-24.91,0-.9.14-1.3,1.16-1.21,1.22.1,2.45,0,3.68,0,1.91,0,2.48.41,3.07,2.18,1.43,4.29,2.85,8.57,4.29,12.86A3.66,3.66,0,0,0,231.41,52Z"/><path class="cls-1" d="M299.36,43c-.42.78.89,2.24-.73,2.45-2.91.36-4.32-.53-4.59-2.55a6.54,6.54,0,0,1,0-.77c0-2-.81-2.76-2.66-2.74s-2.52.79-2.55,2.71c0,.6,0,1.19,0,1.78,0,2.43.65,3.27,3,3.83,1,.24,2.08.39,3.1.65a5.39,5.39,0,0,1,4.44,5.43,36.53,36.53,0,0,1,0,4.44,5.48,5.48,0,0,1-4,5.2,12.63,12.63,0,0,1-7.13.24c-3.23-.79-4.68-2.69-4.85-6.23,0-.81.06-1.62,0-2.42-.11-1,.23-1.35,1.3-1.35a4,4,0,0,1,4.18,4c0,1.69.88,2.41,2.58,2.41A2.33,2.33,0,0,0,294,57.56a.49.49,0,0,0,0-.12c.12-5.23-.38-4.9-4.38-6.11l-3.26-1a3.56,3.56,0,0,1-2.66-3.08,23.46,23.46,0,0,1-.22-6.32,5.57,5.57,0,0,1,4.64-5.17,13.16,13.16,0,0,1,6.42,0c3.18.77,4.77,2.84,4.8,6.12Z"/><path class="cls-1" d="M116,49.78c0,2.5,0,5,0,7.5,0,1.93.91,2.82,2.78,2.83s2.8-.88,2.81-2.79c0-1.1.05-2.2,0-3.3,0-.73.11-1,1-1,4.35-.08,4.76.53,4.06,5.94a5.35,5.35,0,0,1-4.06,4.59,12.39,12.39,0,0,1-7.5,0,5.44,5.44,0,0,1-4.09-5.12,160.28,160.28,0,0,1,0-17.26,5.38,5.38,0,0,1,3.93-5.1,12,12,0,0,1,8.1.09,6.65,6.65,0,0,1,3.72,7.78,1.92,1.92,0,0,1-1.56,1.34,5.13,5.13,0,0,1-3.12.06c-1-.5-.35-1.81-.39-2.75-.08-2.31-.78-3.17-2.81-3.17s-2.8.86-2.81,2.79C116,44.7,116,47.24,116,49.78Z"/><path class="cls-1" d="M241.41,49.58V38.27c0-2.26.63-2.89,2.85-2.89,3.39,0,6.78,0,10.17,0,.83,0,1.08.22,1.08,1.06,0,2.62-.44,3.12-3,3.12-1.61,0-3.22,0-4.83,0-.65,0-.9.18-.89.86,0,2.08,0,4.15,0,6.23,0,.62.24.81.82.8,1.4,0,2.8-.06,4.2,0s2.79,2.59,2,3.9c-.23.37-.6.23-.92.23-1.74,0-3.47,0-5.21,0-.66,0-.88.18-.87.86q.06,3.3,0,6.6c0,.7.26.87.9.86,1.86,0,3.72,0,5.59,0a2.78,2.78,0,0,1,2.22,3.9c-.2.35-.51.25-.78.25-3.68,0-7.37,0-11,0-1.56,0-2.19-.8-2.2-2.62C241.4,57.45,241.41,53.51,241.41,49.58Z"/><path class="cls-1" d="M144,35.34c1.52,0,2.88,0,4.23,0a2.61,2.61,0,0,1,2.51,2.13c1.14,3.49,2.3,7,3.45,10.48.51-.22.47-.72.6-1.09,1.08-3.24,2.17-6.48,3.17-9.75a2.17,2.17,0,0,1,2.28-1.77h3.79c-1.49,4.06-2.94,8-4.4,12a25.41,25.41,0,0,1-1.18,3.08c-2,3.8-1.46,7.89-1.5,11.93C157,64,157,64,155.32,64c-3.89,0-4.16-.15-4-4.08a23.5,23.5,0,0,0-1.9-10.46C147.49,44.91,145.86,40.19,144,35.34Z"/><path class="cls-1" d="M195.31,39l-.44,1.12c.08-.66-.37-.62-.8-.62-1.06,0-2.13.08-3.18,0s-1.21.37-1.21,1.29c0,6.77,0,13.54,0,20.32,0,2.15-.73,2.87-2.9,2.9s-2.28,0-2.28-2.23c0-7,0-14,0-20.95,0-1.07-.28-1.48-1.33-1.32a6.93,6.93,0,0,1-1,0c-2.57,0-3.09-.59-3.11-3.16,0-.81.19-1.07,1-1.06,4.07,0,8.13,0,12.2,0,2.25,0,2.74.49,2.81,2.75C195.14,38.41,195,38.77,195.31,39Z"/><path class="cls-1" d="M312.59,47.37c0,3.18,0,6.35,0,9.53,0,2.17.74,2.88,2.9,2.89a11,11,0,0,0,1.15,0c.61-.06.85.18.78.79,0,.21,0,.42,0,.63,0,2.85,0,2.85-2.81,2.83a11.41,11.41,0,0,1-3.48-.6,5.18,5.18,0,0,1-3.62-4.61,17.71,17.71,0,0,1-.14-2.41c0-6.56,0-13.12,0-19.68,0-1,.16-1.4,1.29-1.38,3.83.06,4,.14,4,4Z"/><path class="cls-1" d="M48.83.29c0,.1,0,.21,0,.31h-.22A1.21,1.21,0,0,1,48.83.29Z"/><path class="cls-1" d="M50.8.55l-.2,0a2.81,2.81,0,0,0,0-.29A1.15,1.15,0,0,1,50.8.55Z"/><path class="cls-1" d="M60.44,29.8l.19.09h0Z"/><path class="cls-1" d="M61.78,37.23l-.41-.36A1.56,1.56,0,0,1,61.78,37.23Z"/><path class="cls-1" d="M60.44,29.8l.19.09h0Z"/><path class="cls-1" d="M48.84.6h-.22q-.37,0-.75,0h-.24a1.3,1.3,0,0,1,.19-.31h1C48.83.39,48.83.5,48.84.6Z"/><path class="cls-1" d="M47.83.6h-.2a1.3,1.3,0,0,1,.19-.31C47.82.39,47.82.49,47.83.6Z"/><path class="cls-1" d="M65.49,44.27,65.2,44A1.28,1.28,0,0,1,65.49,44.27Z"/><path class="cls-1" d="M46.52.41A.72.72,0,0,1,46.3.24h.17l0,.08S46.52.39,46.52.41Z"/><path class="cls-1" d="M61.78,37.23l-.41-.36A1.56,1.56,0,0,1,61.78,37.23Z"/><path class="cls-1" d="M65.49,44.27,65.2,44A1.28,1.28,0,0,1,65.49,44.27Z"/><path class="cls-1" d="M97.1,47.8v.05a.05.05,0,0,1,0,0A.22.22,0,0,0,97.1,47.8Z"/><path class="cls-1" d="M65.49,44.27,65.2,44A1.28,1.28,0,0,1,65.49,44.27Z"/><path class="cls-1" d="M51.37.24a1.3,1.3,0,0,1-.23.18,1.4,1.4,0,0,1-.34.13l-.2,0a2.81,2.81,0,0,0,0-.29l.59,0Z"/><path class="cls-1" d="M60.44,29.8l.19.09h0Z"/><path class="cls-1" d="M61.78,37.23l-.41-.36A1.56,1.56,0,0,1,61.78,37.23Z"/><path class="cls-1" d="M97,49l.06,0v.06Z"/><path class="cls-1" d="M97.1,47.8v.05a.05.05,0,0,1,0,0A.22.22,0,0,0,97.1,47.8Z"/><path class="cls-1" d="M269.39,50.36c0-.12-.05-.29,0-.35s.3,0,.33.13c.06.32.06.65.09,1Z"/><path class="cls-1" d="M275.16,56.17c0,.18.06.54-.16.45-.41-.15-.3-.59-.26-.95Z"/><path class="cls-1" d="M375.92,40.68c-.09-.08-.22-.15-.24-.24-.59-3-2.59-4.53-5.51-4.92a57.7,57.7,0,0,0-8.62-.13c-1.25,0-1.7.91-1.7,2.09q0,12.1,0,24.23c0,1.63.59,2.27,2.21,2.29a52.75,52.75,0,0,0,7.85-.17c2.83-.38,4.95-1.66,5.68-4.62,0-.2,0-.43.32-.48V58q-.33-8.26,0-16.53Zm-5.31,16.44a2.44,2.44,0,0,1-2.7,2.67C365,59.87,365,59.87,365,57V49.66c0-3,0-6,0-9,0-.91.29-1.2,1.16-1.11a15.12,15.12,0,0,0,1.65,0c2.06,0,2.79.74,2.8,2.84,0,3.17,0,6.35,0,9.53C370.62,53.64,370.64,55.38,370.61,57.12Z"/><path class="cls-1" d="M97,49l.06,0v.06Z"/><path class="cls-1" d="M97.1,47.8v.05a.05.05,0,0,1,0,0A.22.22,0,0,0,97.1,47.8Z"/><path class="cls-1" d="M144.86,55.78c-.05-2.48-.64-4.63-3.36-5.8a5.14,5.14,0,0,0,3.19-4.33,17.2,17.2,0,0,0,.09-4.3c-.41-3.83-1.88-5.36-5.73-5.87a53.66,53.66,0,0,0-6.47-.14c-2.49,0-3.16.67-3.16,3.16V61.61c0,2.52,0,2.52,2.47,2.42,1.94-.09,2.7-.88,2.7-2.88,0-2.62,0-5.25,0-7.87,0-.72.22-.91.93-.92,3.32-.07,4.19.82,4.15,4.17a31.7,31.7,0,0,0,.22,6.46c.09.44,0,1,.7,1,1.57,0,3.15,0,4.78,0C144.59,61.19,144.92,58.47,144.86,55.78Zm-5.23-10.6c0,2.07-.89,3-2.92,3-2.62,0-2.06.27-2.12-2,0-.8,0-1.6,0-2.41V40.32c0-.34,0-.64.44-.78,2.85-.84,4.6.42,4.6,3.36C139.63,43.66,139.64,44.42,139.63,45.18Z"/><path class="cls-1" d="M210.55,42.37a6.5,6.5,0,0,0-2.77-5.56c-2.6-1.87-7.77-1.93-10.36-.06A5.75,5.75,0,0,0,195.31,39c-.42.27-.32.74-.44,1.12a7.41,7.41,0,0,0-.34,2.88q0,6.6,0,13.21c0,4.65,2.29,7.2,6.93,7.74,5.09.6,9-2.39,9.08-7C210.61,52.11,210.57,47.24,210.55,42.37ZM205.2,57.3a2.66,2.66,0,0,1-5.31,0c0-2.62,0-5.24,0-7.86h0c0-2.41,0-4.82,0-7.23a2.72,2.72,0,0,1,4.3-2.43,2.28,2.28,0,0,1,1,2.19C205.22,47.07,205.24,52.19,205.2,57.3Z"/><path class="cls-1" d="M335.6,62.48c-.73-4-1.44-8-2.16-12q-1.15-6.49-2.33-13c-.3-1.68-.94-2.17-2.7-2.19-1,0-2,0-2.92,0-2,0-2.35.35-2.7,2.23C321.22,46,319.66,54.44,318,62.86c-.19,1,0,1.31,1,1.17a6.61,6.61,0,0,1,.89,0c2.09,0,2.65-.48,3.14-2.51.22-.89-.08-2.18.65-2.59s1.89-.09,2.86-.09v-.07a14.92,14.92,0,0,0,1.77,0c1.07-.12,1.49.17,1.62,1.38.37,3.41,1,3.89,4.41,3.89C335.9,64,335.89,64,335.6,62.48Zm-7.46-7.69c-4.59-.11-3.85.74-3.17-3.65.49-3.21,1.07-6.41,1.61-9.62l.3,0c.3,1.69.61,3.38.9,5.08.41,2.37.76,4.76,1.21,7.12C329.15,54.51,328.94,54.8,328.14,54.79Z"/><path class="cls-1" d="M179.81,42.08c-.11-3.71-2-5.87-5.68-6.49a50.24,50.24,0,0,0-7.36-.2c-2.13,0-2.93.77-2.93,2.87,0,4.07,0,8.14,0,12.2V61.52c0,2.53,0,2.53,2.51,2.51,2.16,0,3-.84,3-3s.07-4.32,0-6.48c0-1.11.33-1.35,1.35-1.29a19.15,19.15,0,0,0,3.3-.13,6.17,6.17,0,0,0,5.84-6.34C179.87,45.22,179.86,43.65,179.81,42.08ZM174.43,47a2,2,0,0,1-2.06,2.09c-3,.19-3,.19-3-2.83v-1.9c0-1.31,0-2.62,0-3.92,0-.59.14-.89.77-.8a.56.56,0,0,0,.13,0c3.81-.13,4.2.23,4.2,4.07C174.44,44.79,174.46,45.89,174.43,47Z"/><path class="cls-1" d="M97.28,47.4a1.93,1.93,0,0,0-.1-.92c0-.16,0-.31,0-.46,0-.51,0-1,0-1.53a3.28,3.28,0,0,0-.2-1.52c.17-.55-.36-1-.23-1.53s-.42-1-.25-1.53a2.2,2.2,0,0,0-.5-1.79c0-.51.12-1.07-.31-1.51V36.1c-.07-.25-.15-.51-.23-.76.12-.68-.59-1.12-.53-1.78s-.61-.92-.52-1.52a1.63,1.63,0,0,0-.46-1,1.4,1.4,0,0,0-.31-1l-.24-.52a1.79,1.79,0,0,0-.47-1,.54.54,0,0,0-.23-.51,3.31,3.31,0,0,0-.81-1.52l-.3-.76-.45-.76a1.14,1.14,0,0,0-.46-.79l-.29-.49A5.87,5.87,0,0,0,89,21.83l-.33-.71-.52-.76c-.25-.65-.86-1-1.24-1.54a4,4,0,0,0-1.21-1.54,5.15,5.15,0,0,0-1.33-1.5,3.79,3.79,0,0,0-1.23-1.29,7.67,7.67,0,0,0-1.87-1.77,9.5,9.5,0,0,0-2.12-1.83,11.23,11.23,0,0,0-2.35-1.77A37.36,37.36,0,0,0,67.68,4a8.78,8.78,0,0,0-2.56-1,10.62,10.62,0,0,0-2.8-.94A6.75,6.75,0,0,0,60,1.52a4.81,4.81,0,0,0-1.79-.44,5.83,5.83,0,0,0-2-.32L54.43.52a.21.21,0,0,0-.23,0l-.06,0A2.12,2.12,0,0,0,52.92.32l-.53,0c-.18-.07-.45,0-.5-.3h-5.6a1.44,1.44,0,0,1,.18.25l0,.08s0,.06,0,.08A.72.72,0,0,1,46.3.24a1.93,1.93,0,0,1,0-.24h-.51c-.05.3-.33.22-.51.3a3.6,3.6,0,0,0-1.81.19,4.23,4.23,0,0,0-2,.27A2.55,2.55,0,0,0,39.91,1a2,2,0,0,0-1.27.25,1.4,1.4,0,0,0-1,.23A5.07,5.07,0,0,0,35.58,2a4,4,0,0,0-1.77.52.84.84,0,0,0-.75.25A6.18,6.18,0,0,0,31,3.55a2.34,2.34,0,0,0-1.26.51A4.35,4.35,0,0,0,28,4.84a1.94,1.94,0,0,0-1,.49,5,5,0,0,0-1.85,1,5,5,0,0,0-1.72,1A1,1,0,0,0,23,7.4C8.82,16.92,1,30.11.22,47.28a2,2,0,0,1,0,2.56A48.56,48.56,0,0,0,47.3,97.16a2.34,2.34,0,0,1,2.82,0c1.14-.08,2.28-.13,3.41-.26C68.78,95.2,80.74,88,89.29,75.3a45.44,45.44,0,0,0,7.9-24.37,3.41,3.41,0,0,0,.1-1A18.66,18.66,0,0,0,97.28,47.4ZM65.49,44.27,65.2,44A1.28,1.28,0,0,1,65.49,44.27Zm-3.71-7-.41-.36A1.56,1.56,0,0,1,61.78,37.23ZM50.61.29l.59,0h.17a1.3,1.3,0,0,1-.23.18,1.4,1.4,0,0,1-.34.13l-.2,0A2.81,2.81,0,0,0,50.61.29Zm-2.79,0h1c0,.1,0,.21,0,.31h-.22q-.37,0-.75,0h-.24A1.3,1.3,0,0,1,47.82.29ZM39.46,83.71a33.5,33.5,0,0,1-8.72-3.38,34,34,0,0,1-10.36-8.25,42.79,42.79,0,0,1-6.07-9.64A31.2,31.2,0,0,1,12,55.22a1.9,1.9,0,0,1,0-1.35,38.35,38.35,0,0,1,.89-16.71A37.09,37.09,0,0,1,24.76,18.92c.43-.38.86-.79,1.27-1.2a6.06,6.06,0,0,0,1.78-1.22,4.21,4.21,0,0,0,1.53-1c.66,0,1-.61,1.52-.79a1.6,1.6,0,0,0,1-.48l1.27-.56,1.78-.76c.41-.18.82-.34,1.25-.51l1.53-.51,1.52-.46a3.1,3.1,0,0,0,1.28-.28c.43-.08.84-.18,1.27-.25a2,2,0,0,1,2.13,1.22,11.89,11.89,0,0,0,.89,1.19c2.75,4.4,5.68,8.7,8.65,13a36.7,36.7,0,0,0,3.08,4.55,22.26,22.26,0,0,0,2.27,3.36,10.25,10.25,0,0,0,1.52,2.29,7.78,7.78,0,0,0,1.3,2,10.46,10.46,0,0,0,1.3,2.24,1.9,1.9,0,0,0,.45,1,3.71,3.71,0,0,0,.51,1.52c.18.77.38,1.55.56,2.32,0,.15,0,.3,0,.46,0,.43,0,.83,0,1.27a.94.94,0,0,1,0,1.27l-.23,1.53c.25.38.05.73,0,1.11A17.09,17.09,0,0,1,62,56.24a1,1,0,0,1-1.45-.33c-1.71-2.42-3.29-4.94-5-7.38a.54.54,0,0,1-.05-.48c-.43-.69-.89-1.35-1.32-2a7.57,7.57,0,0,1-1.93-2.39c-.41-.74-1.07-1.3-1.45-2.09-.18-.35-.41-.66-.61-1a20.79,20.79,0,0,1-1.27-1.8,29.19,29.19,0,0,0-2-3c-.79-1.66-2.16-3-3-4.56-1.22-2.08-2.6-4.07-4-6-.43-.46-.61-1.1-1-1.58s-1-.26-1.53,0-1,.48-1.5.74a5,5,0,0,0-1,.53,2.88,2.88,0,0,1-1.2.56,3.79,3.79,0,0,0-1.45,1c-.18.69-.84.92-1.24,1.35A26.5,26.5,0,0,0,22.39,43.9a26.91,26.91,0,0,0,.13,7.81,26.31,26.31,0,0,0,3.84,10c4.3,6.58,8.78,13,13.15,19.58a8.58,8.58,0,0,1,.74,1.2C40.66,83.38,40.51,83.58,39.46,83.71ZM86.13,56.43a36.47,36.47,0,0,1-18.6,24,38,38,0,0,1-10.09,3.68A2.34,2.34,0,0,1,54.59,83C50.31,76.52,46,70.11,41.67,63.68c-1.71-2.55-3.39-5.07-5-7.63a14.58,14.58,0,0,1-2.51-7.71,17.06,17.06,0,0,1,2.26-8.55c.66-1.22.89-1.22,1.68,0C44,48.57,49.86,57.34,55.73,66.14c1.17,1.76,2.39,3.49,3.51,5.3.59.94,1.15,1,2.09.53A26.11,26.11,0,0,0,75.06,56.89a1.79,1.79,0,0,1,2-1.43c2.83-.05,5.68-.13,8.5-.25C86.79,55.16,86.26,55.92,86.13,56.43Zm11-7.35L97,49l.06,0Zm0-1.23a.05.05,0,0,1,0,0,.22.22,0,0,0,0-.08Z"/></g></g></svg>