<svg xmlns="http://www.w3.org/2000/svg" viewBox="0 0 256.23 93.8"><defs><style>.cls-1{fill:#fff;fill-rule:evenodd;}</style></defs><g id="Layer_2" data-name="Layer 2"><g id="katman_1" data-name="katman 1"><path class="cls-1" d="M91.85,28.23V56.46h13.9V34.09a7.24,7.24,0,0,1,1.08-3A3.94,3.94,0,0,1,111,29.1c2.39.21,3.91,1.52,4.34,4.34v22.8h13.9v-13c0-11.07,0-13.24-.22-14.33-.43-3.91-1.74-6.95-4.12-9.12a12.46,12.46,0,0,0-7.17-3.47,19,19,0,0,0-5,.21A11.31,11.31,0,0,0,106.4,20l-1.09.87V0H91.42V28.23ZM239.51.43c-.44.87-14.55,35-14.55,35h16.5l7.38-17.58C253,8,256.23,0,256.23,0H239.72ZM61.45,16.5a18.86,18.86,0,0,0-7.82,2.83c-4.77,3-7.81,8.25-8.68,14.33a24.29,24.29,0,0,0,.43,8.9c1.74,6.73,6.3,11.94,12.16,13.9a15.46,15.46,0,0,0,5.65.87,10.58,10.58,0,0,0,3.25-.22A12.6,12.6,0,0,0,73,53.63l.87-.86v3.47H87.29V17.15H73.83v3.48L73.18,20a11.82,11.82,0,0,0-6.52-3.48,11,11,0,0,0-3-.21A11.44,11.44,0,0,1,61.45,16.5Zm88.59,0a22.26,22.26,0,0,0-10.42,4.35A20.88,20.88,0,0,0,132.46,40c1.08,8.26,6.94,14.55,15.2,16.72a22.05,22.05,0,0,0,5.64.66,20.25,20.25,0,0,0,9.77-2.18A19.4,19.4,0,0,0,173.93,40a28.07,28.07,0,0,0,0-6.08,19.87,19.87,0,0,0-3.69-9.12,31.69,31.69,0,0,0-3.69-3.9,20.34,20.34,0,0,0-10.43-4.35A29.42,29.42,0,0,0,150,16.5Zm44.3,0a19.6,19.6,0,0,0-10.2,4.35,20.87,20.87,0,0,0-3.7,3.9,22.6,22.6,0,0,0-3.69,9.12,29.42,29.42,0,0,0,0,6.08A20.31,20.31,0,0,0,193,57.11a15.65,15.65,0,0,0,4.56.43,19.42,19.42,0,0,0,10-2.39A20.43,20.43,0,0,0,218,32.57,20.09,20.09,0,0,0,200.42,16.5,29.42,29.42,0,0,0,194.34,16.5ZM0,17.37s3.69,8.9,8.25,19.76S16.5,56.89,16.5,56.89s-1.3,3.26-3,7.17-3,6.94-3,7.16,3.26,0,7.39,0h7.38L36.26,44.51c6.08-14.76,11.08-26.7,11.08-26.92a53.47,53.47,0,0,0-7.39,0H32.57L28,28.88c-2,6.08-3.91,11.29-3.91,11.29s-2-5.21-4.56-11.29L15.2,17.59H7.6C3.47,17.37,0,17.37,0,17.37ZM68.18,29.1A8.09,8.09,0,0,1,74,34.74a13,13,0,0,1,0,4.13,7.49,7.49,0,0,1-5.64,5.64,13,13,0,0,1-4.13,0A8.18,8.18,0,0,1,58.85,40a8.5,8.5,0,0,1,.65-7.6A8.28,8.28,0,0,1,68.18,29.1Zm86.64.21a7.41,7.41,0,0,1,6.08,5.87,11.66,11.66,0,0,1,0,3.91,7.91,7.91,0,0,1-5.43,5.64,12.94,12.94,0,0,1-4.12,0,8.6,8.6,0,0,1-5-4.12,6.29,6.29,0,0,1-.65-3.48,7,7,0,0,1,.65-3,8.68,8.68,0,0,1,2.83-3.47A6.24,6.24,0,0,1,154.82,29.31Zm44.08,0a7.24,7.24,0,0,1,5.65,4.56,7,7,0,0,1,.65,3,9.1,9.1,0,0,1-.65,3.48,8,8,0,0,1-5,4.12,12.94,12.94,0,0,1-4.12,0A7.55,7.55,0,0,1,190,38.87a13,13,0,0,1,0-4.13,7.64,7.64,0,0,1,7.38-5.86C197.81,29.1,198.47,29.1,198.9,29.31Zm29.53,9.56a9.22,9.22,0,0,0-8,7.38,13,13,0,0,0,0,4.13,9.16,9.16,0,0,0,6.95,6.73c.43,0,1.3.22,2,.22a8.8,8.8,0,0,0,6.51-2.61,8.34,8.34,0,0,0,2.61-6.51,8.56,8.56,0,0,0-4.13-7.6A7.74,7.74,0,0,0,228.43,38.87ZM114,60.15a4.43,4.43,0,0,0-2.61,6.51,5,5,0,0,0,2,1.74,4.22,4.22,0,0,0,2,.22,4.8,4.8,0,0,0,2-.22,5.34,5.34,0,0,0,2.17-2.17,4.44,4.44,0,0,0-2.17-5.86,2.33,2.33,0,0,0-1.74-.44A2.75,2.75,0,0,0,114,60.15Zm-11.73.22c-3.69.65-6.08,3-7.16,6.94a6.62,6.62,0,0,0-.22,2.17V71h-3v6.52h3V93.15h8.25V77.52h5.65V71h-5.65v-.65c.22-1.52.87-2.6,2.17-2.82a4.83,4.83,0,0,1,3,.22A1.75,1.75,0,0,0,109,68V61l-.65-.22a8,8,0,0,0-3.47-.43A10.2,10.2,0,0,0,102.27,60.37Zm33,10.2A7,7,0,0,0,131.37,73l-.43.65V71h-8.26V93.15h8.26V80.34A5,5,0,0,1,132,78.17a3,3,0,0,1,3.91.43c.65.87.65.87.65,7.82v6.52h8.25V85.55c0-7.81,0-8.68-.43-10.2a6.3,6.3,0,0,0-2-3.26,5.34,5.34,0,0,0-3-1.74A24.59,24.59,0,0,0,135.28,70.57Zm20.63-.22a10.81,10.81,0,0,0-4.35,1.74,12,12,0,0,0-4.56,7.6,19.84,19.84,0,0,0,0,5,12.68,12.68,0,0,0,2.18,5.22A9.51,9.51,0,0,0,155,93.59a10.81,10.81,0,0,0,4.56-.22,9.44,9.44,0,0,0,3.26-1.74l.86-.87v2.18H172V70.79h-8.26V73l-.65-.22a7.57,7.57,0,0,0-4.34-2.17A12.2,12.2,0,0,0,155.91,70.35Zm31.48.22A6.67,6.67,0,0,0,183.48,73l-.43.43v-2.6H174.8V92.94h8.25v-6.3c0-6.73,0-6.73.43-7.82a2.4,2.4,0,0,1,2.18-1.3,3.06,3.06,0,0,1,2,.65c.87.87.87.65.87,8v6.52h8.25v-8c0-8,0-8-.22-8.9a20.14,20.14,0,0,1-.65-2,5.16,5.16,0,0,0-1.3-1.74,8.41,8.41,0,0,0-2.39-1.74A17.85,17.85,0,0,0,187.39,70.57Zm21.5,0A11.15,11.15,0,0,0,200.64,76c-.44.87-.87,2-1.31,3a11.88,11.88,0,0,0-.21,3,8.28,8.28,0,0,0,.65,4.12,11.29,11.29,0,0,0,8.47,7.39,9.29,9.29,0,0,0,2.82.21,9.53,9.53,0,0,0,4.56-.86l.87-.44V85.12l-.65.43a5,5,0,0,1-3,.87A5.6,5.6,0,0,1,210,86,4.3,4.3,0,0,1,208,84a3.67,3.67,0,0,1-.22-1.73,4.19,4.19,0,0,1,.22-1.74c.65-1.74,2.17-2.61,4.34-2.82a7.53,7.53,0,0,1,4.35,1.08V71.44l-.66-.22A13.73,13.73,0,0,0,208.89,70.57Zm18.67,0c-6.29,1.09-10.2,6.51-9.77,12.81a11.69,11.69,0,0,0,2,5.65,10.46,10.46,0,0,0,6.94,4.56,31.56,31.56,0,0,0,6.3,0,11.13,11.13,0,0,0,5.65-3,23.42,23.42,0,0,0,1.73-2.17s-1.52-.66-3.47-1.31l-3.47-1.3-.44.43a3.48,3.48,0,0,1-2,1.09,4.06,4.06,0,0,1-5.21-2.82V84H241v-2a7.46,7.46,0,0,0-.22-2.61,11.65,11.65,0,0,0-3-6.08,10,10,0,0,0-5.65-2.82A15.81,15.81,0,0,0,227.56,70.57ZM111.18,82.08V93.15h8.25V71h-8.25Zm119.64-5.43a5.38,5.38,0,0,1,1.52.87,2.21,2.21,0,0,1,.87,1.52v.43h-3.69c-4.13,0-3.91,0-3.48-.87C226.69,77.08,228.65,76.22,230.82,76.65Zm-70.14,1.09a4.42,4.42,0,0,1,.22,8.46,7.08,7.08,0,0,1-3,0A4.1,4.1,0,0,1,155,83.38a3.65,3.65,0,0,1-.22-1.52,2.33,2.33,0,0,1,.44-1.74C156.12,78.17,158.3,77.3,160.68,77.74Z"/></g></g></svg>