<svg xmlns="http://www.w3.org/2000/svg" viewBox="0 0 387.63 91.55"><defs><style>.cls-1,.cls-2{fill:#fff;}.cls-2{stroke:#000;stroke-miterlimit:10;stroke-width:0.25px;}</style></defs><g id="Layer_2" data-name="Layer 2"><g id="katman_1" data-name="katman 1"><path class="cls-1" d="M127.4,53.19a3.31,3.31,0,0,0,2.6-1,4.1,4.1,0,0,0,.84-2.81h8l0,.16A9.15,9.15,0,0,1,135.68,57a12.15,12.15,0,0,1-8.33,2.87c-4.21,0-7.5-1.32-9.78-4a15,15,0,0,1-3.44-10.23v-.6a15,15,0,0,1,3.42-10.21q3.42-4,9.71-4a11.87,11.87,0,0,1,8.48,3A10.2,10.2,0,0,1,138.82,42l0,.16h-8a5.66,5.66,0,0,0-.87-3.24,3,3,0,0,0-2.64-1.25,3.55,3.55,0,0,0-3.47,2,12.52,12.52,0,0,0-1,5.44v.6a12.43,12.43,0,0,0,1,5.49,3.63,3.63,0,0,0,3.54,2Z"/><path class="cls-1" d="M158.2,39.12H155a4.87,4.87,0,0,0-2.44.48A3.14,3.14,0,0,0,151.18,41V59.34h-8.71V31.43h8.21l.32,4.11a8.43,8.43,0,0,1,2.32-3.4,5.15,5.15,0,0,1,3.38-1.21A8.76,8.76,0,0,1,158,31c.43.07.8.14,1.14.23l-.84,7.89Z"/><path class="cls-1" d="M174.75,47.05v.21h.19l4.6-15.8h9.28l-11.1,32.05a15.4,15.4,0,0,1-3.33,5.11c-1.37,1.35-3.51,2-6.48,2a10.2,10.2,0,0,1-1.84-.14c-.48-.09-1.23-.27-2.28-.52l1.05-6.21.54.12a2.81,2.81,0,0,0,.46,0,5.72,5.72,0,0,0,3-.61,3.55,3.55,0,0,0,1.41-1.83l.71-1.82-9.65-28.2h9.26l4.15,15.59Z"/><path class="cls-1" d="M216.93,46c0,4.2-.93,7.57-2.83,10.1a9.42,9.42,0,0,1-8,3.81,7.64,7.64,0,0,1-6.29-3v13.2H191.1V31.43h8.14l.32,3.08a8.69,8.69,0,0,1,2.78-2.64,7.26,7.26,0,0,1,3.72-.94,9.26,9.26,0,0,1,8,4c1.89,2.67,2.85,6.18,2.85,10.51Zm-8.68-.55a13.33,13.33,0,0,0-1-5.67,3.42,3.42,0,0,0-3.31-2.15,5.22,5.22,0,0,0-2.48.55,4.14,4.14,0,0,0-1.62,1.57V51.38a3.81,3.81,0,0,0,1.64,1.35,6.27,6.27,0,0,0,2.51.43,3.43,3.43,0,0,0,3.28-1.89,11.53,11.53,0,0,0,1-5.29Z"/><path class="cls-1" d="M231.09,24.5v6.93h4.72v6h-4.72V50.27a3,3,0,0,0,.62,2.14,2.18,2.18,0,0,0,1.64.66,11.78,11.78,0,0,0,1.3,0c.32,0,.73-.12,1.23-.21l.62,6.45a22.52,22.52,0,0,1-2.6.48,24.1,24.1,0,0,1-2.74.14c-2.87,0-5-.78-6.52-2.3s-2.21-4-2.21-7.28V37.48h-3.92v-6h3.92V24.5h8.66Z"/><path class="cls-1" d="M238,45.14a14.77,14.77,0,0,1,3.55-10.26q3.57-4,9.92-4t10,4A14.77,14.77,0,0,1,265,45.14v.54a14.7,14.7,0,0,1-3.55,10.26q-3.57,3.95-9.9,4c-4.22,0-7.61-1.32-10-4A14.7,14.7,0,0,1,238,45.68Zm8.71.54a11.46,11.46,0,0,0,1.09,5.5,3.93,3.93,0,0,0,3.72,2,3.85,3.85,0,0,0,3.67-2,11.57,11.57,0,0,0,1.12-5.5v-.54a11.31,11.31,0,0,0-1.12-5.45,3.89,3.89,0,0,0-3.72-2,3.81,3.81,0,0,0-3.67,2,11.62,11.62,0,0,0-1.09,5.45Z"/><path class="cls-1" d="M276.83,31.43l.34,3.93a10,10,0,0,1,3.37-3.26,8.78,8.78,0,0,1,4.5-1.17,8,8,0,0,1,6.4,2.65c1.53,1.78,2.3,4.58,2.3,8.46v17.3H285V42a4.72,4.72,0,0,0-1-3.39,4,4,0,0,0-2.92-1,4.9,4.9,0,0,0-2.14.44,4.85,4.85,0,0,0-1.62,1.21V59.32h-8.68V31.43Z"/><path class="cls-1" d="M311.23,59.89A12.88,12.88,0,0,1,301.41,56a13.55,13.55,0,0,1-3.68-9.69v-1A15.83,15.83,0,0,1,301.06,35c2.24-2.69,5.41-4,9.56-4q5.67,0,8.89,3.4c2.14,2.28,3.21,5.34,3.21,9.23v4.56H306.79l-.05.16a5.57,5.57,0,0,0,1.76,3.51,5.49,5.49,0,0,0,3.92,1.4,16.78,16.78,0,0,0,4-.39,27.52,27.52,0,0,0,3.77-1.35l2.05,5.32A16.34,16.34,0,0,1,317.46,59,21.32,21.32,0,0,1,311.23,59.89Zm-.61-22.25A3.25,3.25,0,0,0,307.79,39a7.26,7.26,0,0,0-1.14,3.58l.07.14h7.5V42a5.25,5.25,0,0,0-.87-3.24,3.27,3.27,0,0,0-2.73-1.14Z"/><path class="cls-1" d="M350.35,47.62h.16l3-16.16h8.05L355,59.36h-7.37l-4.53-14.79H343l-4.56,14.79h-7.34l-6.57-27.9h8.05l3.08,16.3h.15l4.54-16.3h5.5l4.58,16.16Z"/><path class="cls-1" d="M379.24,51.5a2.28,2.28,0,0,0-1.16-1.85,12.72,12.72,0,0,0-4.26-1.46,16.65,16.65,0,0,1-7.34-3,6.72,6.72,0,0,1-2.49-5.5,7.8,7.8,0,0,1,3.1-6.24c2.05-1.71,4.86-2.58,8.39-2.58,3.72,0,6.66.82,8.87,2.49a7.37,7.37,0,0,1,3.15,6.43l-.05.15H379a3.39,3.39,0,0,0-.84-2.5,3.66,3.66,0,0,0-2.69-.85,3.49,3.49,0,0,0-2.3.76,2.36,2.36,0,0,0-.94,1.91,2.27,2.27,0,0,0,1.07,1.89,11.73,11.73,0,0,0,4.31,1.39,17.22,17.22,0,0,1,7.57,3,6.88,6.88,0,0,1,2.46,5.66,7.48,7.48,0,0,1-3.33,6.2,14.67,14.67,0,0,1-8.82,2.44,13.41,13.41,0,0,1-9-2.9,7.94,7.94,0,0,1-3.17-6.45l0-.16h7.89a3.45,3.45,0,0,0,1.21,2.87,5.18,5.18,0,0,0,3.26.87,4.34,4.34,0,0,0,2.64-.68,2.31,2.31,0,0,0,.92-1.94Z"/><path class="cls-2" d="M68.57,45.78l-22.8,22.8,22.8,22.79L91.36,68.58Z"/><path class="cls-2" d="M68.58.18H23L45.78,23l22.8,22.8L91.37,23Z"/><path class="cls-2" d="M45.78,68.58,23,45.78.18,68.58,23,91.37h45.6Z"/><path class="cls-2" d="M23,.18.18,23v45.6L23,45.78,45.78,23Z"/></g></g></svg>