<svg xmlns="http://www.w3.org/2000/svg" viewBox="0 0 255.78 27.98"><defs><style>.cls-1{stroke:#000;stroke-miterlimit:10;stroke-width:2px;}</style></defs><g id="Layer_2" data-name="Layer 2"><g id="Layer_1-2" data-name="Layer 1"><polygon class="cls-1" points="3.3 11.32 12.6 11.32 16.02 3.01 18.47 11.32 28.25 11.32 20.42 16.21 23.36 25.51 15.53 20.13 8.19 25.51 10.64 16.21 3.3 11.32"/><polygon class="cls-1" points="38.56 11.32 47.86 11.32 51.28 3.01 53.73 11.32 63.51 11.32 55.68 16.21 58.62 25.51 50.79 20.13 43.45 25.51 45.9 16.21 38.56 11.32"/><polygon class="cls-1" points="73.83 11.32 83.12 11.32 86.54 3.01 88.99 11.32 98.77 11.32 90.94 16.21 93.88 25.51 86.05 20.13 78.72 25.51 81.16 16.21 73.83 11.32"/><polygon class="cls-1" points="108.6 11.32 117.89 11.32 121.31 3.01 123.76 11.32 133.54 11.32 125.72 16.21 128.65 25.51 120.83 20.13 113.49 25.51 115.93 16.21 108.6 11.32"/><polygon class="cls-1" points="143.37 11.32 152.66 11.32 156.09 3.01 158.53 11.32 168.31 11.32 160.49 16.21 163.42 25.51 155.6 20.13 148.26 25.51 150.71 16.21 143.37 11.32"/><path d="M190.87,16.38a4.23,4.23,0,0,1-4.48,4.31c-2.63,0-4.29-1.43-4.65-3.71h2.46a2.06,2.06,0,0,0,2.19,1.55,2,2,0,0,0,2.11-2.07,2.09,2.09,0,0,0-2.37-2H182.3V7.78h8V10h-5.71v2.25h1.81A4.09,4.09,0,0,1,190.87,16.38Z"/><path d="M191.85,19.16a1.49,1.49,0,1,1,1.48,1.44A1.45,1.45,0,0,1,191.85,19.16Z"/><path d="M206.88,14.12c0,3.79-2.09,6.57-5.71,6.57s-5.73-2.78-5.73-6.57,2.11-6.57,5.73-6.57S206.88,10.34,206.88,14.12Zm-2.56,0c0-2.4-1-4.27-3.15-4.27S198,11.72,198,14.12s1,4.28,3.18,4.28S204.32,16.53,204.32,14.12Z"/><path d="M216.2,14.85c0,2.84,1.16,4.59,3,6.57L217.64,23a10.68,10.68,0,0,1-3.94-8.16,10.68,10.68,0,0,1,3.94-8.15l1.59,1.58C217.36,10.26,216.2,12,216.2,14.85Z"/><path d="M229.14,18.4v2.07h-8.57V19.16l3.94-4.74c1.16-1.4,2-2.22,2-3.15,0-.73-.47-1.53-1.77-1.53a1.86,1.86,0,0,0-2,1.9h-2.52c.05-2.46,1.83-4.09,4.57-4.09S229,9.29,229,11.29c0,1.3-.81,2.29-2.37,4.16l-2.47,2.95Z"/><path d="M240.11,16.2c0,2.55-2,4.49-4.93,4.49s-4.92-2-4.92-4.42a6,6,0,0,1,1.17-3.21l3.34-5.28h2.95l-2.5,4C238.07,11.77,240.11,13.68,240.11,16.2Zm-2.46.14A2.37,2.37,0,0,0,235.18,14a2.85,2.85,0,0,0-1.66.49,3.07,3.07,0,0,0-.82,1.9,2.48,2.48,0,0,0,5,0Z"/><path d="M249.53,7.78V9.31l-5.11,11.16h-2.8l4.76-10.32h-5.71V7.78Z"/><path d="M255.78,14.85A10.65,10.65,0,0,1,251.84,23l-1.58-1.59c1.86-2,3-3.73,3-6.57s-1.16-4.59-3-6.57l1.58-1.58A10.64,10.64,0,0,1,255.78,14.85Z"/></g></g></svg>