<svg xmlns="http://www.w3.org/2000/svg" viewBox="0 0 255.64 27.98"><defs><style>.cls-1,.cls-2{stroke:#000;stroke-miterlimit:10;stroke-width:2px;}.cls-2{fill:none;}</style></defs><g id="Layer_2" data-name="Layer 2"><g id="Layer_1-2" data-name="Layer 1"><polygon class="cls-1" points="3.3 11.32 12.6 11.32 16.02 3.01 18.47 11.32 28.25 11.32 20.42 16.21 23.36 25.51 15.53 20.13 8.19 25.51 10.64 16.21 3.3 11.32"/><polygon class="cls-1" points="38.56 11.32 47.86 11.32 51.28 3.01 53.73 11.32 63.51 11.32 55.68 16.21 58.62 25.51 50.79 20.13 43.45 25.51 45.9 16.21 38.56 11.32"/><polygon class="cls-1" points="73.83 11.32 83.12 11.32 86.54 3.01 88.99 11.32 98.77 11.32 90.94 16.21 93.88 25.51 86.05 20.13 78.72 25.51 81.16 16.21 73.83 11.32"/><polygon class="cls-2" points="108.6 11.32 117.89 11.32 121.31 3.01 123.76 11.32 133.54 11.32 125.72 16.21 128.65 25.51 120.83 20.13 113.49 25.51 115.93 16.21 108.6 11.32"/><polygon class="cls-2" points="143.37 11.32 152.66 11.32 156.09 3.01 158.53 11.32 168.31 11.32 160.49 16.21 163.42 25.51 155.6 20.13 148.26 25.51 150.71 16.21 143.37 11.32"/><path d="M187.62,16.89c0,2.16-1.88,3.8-4.36,3.8A4.41,4.41,0,0,1,178.55,17H181a2.12,2.12,0,0,0,2.24,1.55,1.8,1.8,0,0,0,2-1.64c0-1.05-.93-1.7-2.33-1.7h-1v-2h1a1.72,1.72,0,0,0,1.9-1.71,1.66,1.66,0,0,0-1.77-1.72,1.79,1.79,0,0,0-1.92,1.62h-2.46a4.06,4.06,0,0,1,4.38-3.79,3.84,3.84,0,0,1,4.14,3.87,3.1,3.1,0,0,1-1.28,2.65A3,3,0,0,1,187.62,16.89Z"/><path d="M189,19.16a1.49,1.49,0,1,1,1.48,1.44A1.45,1.45,0,0,1,189,19.16Z"/><path d="M204.05,14.12c0,3.79-2.09,6.57-5.72,6.57s-5.72-2.78-5.72-6.57,2.1-6.57,5.72-6.57S204.05,10.34,204.05,14.12Zm-2.56,0c0-2.4-1-4.27-3.16-4.27s-3.17,1.87-3.17,4.27,1,4.28,3.17,4.28S201.49,16.53,201.49,14.12Z"/><path d="M213.37,14.85c0,2.84,1.16,4.59,3,6.57L214.81,23a10.65,10.65,0,0,1-3.94-8.16,10.64,10.64,0,0,1,3.94-8.15l1.59,1.58C214.53,10.26,213.37,12,213.37,14.85Z"/><path d="M226.31,18.4v2.07h-8.57V19.16l3.94-4.74c1.15-1.4,2-2.22,2-3.15,0-.73-.47-1.53-1.78-1.53a1.87,1.87,0,0,0-2,1.9h-2.51c.05-2.46,1.82-4.09,4.57-4.09s4.21,1.74,4.21,3.74c0,1.3-.8,2.29-2.37,4.16l-2.46,2.95Z"/><path d="M237.65,18H236v2.5h-2.45V18h-6.49V16.4l3.56-8.62h2.58l-3.23,8h3.58V12.13H236V15.8h1.66Z"/><path d="M249,16.2c0,2.55-2,4.49-4.92,4.49s-4.93-2-4.93-4.42a5.89,5.89,0,0,1,1.18-3.21l3.34-5.28h3l-2.5,4C247,11.77,249,13.68,249,16.2Zm-2.46.14A2.37,2.37,0,0,0,244.07,14a2.83,2.83,0,0,0-1.66.49,3.07,3.07,0,0,0-.82,1.9,2.48,2.48,0,0,0,4.94,0Z"/><path d="M255.64,14.85A10.65,10.65,0,0,1,251.7,23l-1.59-1.59c1.87-2,3-3.73,3-6.57s-1.16-4.59-3-6.57L251.7,6.7A10.64,10.64,0,0,1,255.64,14.85Z"/></g></g></svg>