<svg xmlns="http://www.w3.org/2000/svg" viewBox="0 0 255.82 27.98"><defs><style>.cls-1,.cls-2{stroke:#000;stroke-miterlimit:10;stroke-width:2px;}.cls-2{fill:none;}</style></defs><g id="Layer_2" data-name="Layer 2"><g id="Layer_1-2" data-name="Layer 1"><polygon class="cls-1" points="3.3 11.32 12.6 11.32 16.02 3.01 18.47 11.32 28.25 11.32 20.42 16.21 23.36 25.51 15.53 20.13 8.19 25.51 10.64 16.21 3.3 11.32"/><polygon class="cls-1" points="38.56 11.32 47.86 11.32 51.28 3.01 53.73 11.32 63.51 11.32 55.68 16.21 58.62 25.51 50.79 20.13 43.45 25.51 45.9 16.21 38.56 11.32"/><polygon class="cls-1" points="73.83 11.32 83.12 11.32 86.54 3.01 88.99 11.32 98.77 11.32 90.94 16.21 93.88 25.51 86.05 20.13 78.72 25.51 81.16 16.21 73.83 11.32"/><polygon class="cls-1" points="108.6 11.32 117.89 11.32 121.31 3.01 123.76 11.32 133.54 11.32 125.72 16.21 128.65 25.51 120.83 20.13 113.49 25.51 115.93 16.21 108.6 11.32"/><polygon class="cls-2" points="143.37 11.32 152.66 11.32 156.09 3.01 158.53 11.32 168.31 11.32 160.49 16.21 163.42 25.51 155.6 20.13 148.26 25.51 150.71 16.21 143.37 11.32"/><path d="M192,18h-1.66v2.5h-2.45V18h-6.49V16.4l3.56-8.62h2.58l-3.23,8h3.58V12.13h2.45V15.8H192Z"/><path d="M193.27,19.16a1.49,1.49,0,1,1,1.48,1.44A1.45,1.45,0,0,1,193.27,19.16Z"/><path d="M206,7.78V9.31l-5.12,11.16h-2.8l4.76-10.32h-5.71V7.78Z"/><path d="M213.61,14.85c0,2.84,1.16,4.59,3,6.57L215.05,23a10.65,10.65,0,0,1-3.94-8.16,10.64,10.64,0,0,1,3.94-8.15l1.58,1.58C214.77,10.26,213.61,12,213.61,14.85Z"/><path d="M226.82,16.89c0,2.16-1.88,3.8-4.36,3.8A4.41,4.41,0,0,1,217.75,17h2.47a2.12,2.12,0,0,0,2.24,1.55,1.81,1.81,0,0,0,2-1.64c0-1.05-.93-1.7-2.33-1.7h-1v-2h1a1.72,1.72,0,0,0,1.9-1.71,1.66,1.66,0,0,0-1.77-1.72,1.79,1.79,0,0,0-1.92,1.62h-2.47a4.07,4.07,0,0,1,4.39-3.78,3.84,3.84,0,0,1,4.14,3.86,3.12,3.12,0,0,1-1.28,2.65A3,3,0,0,1,226.82,16.89Z"/><path d="M239.9,14.12c0,3.79-2.09,6.57-5.71,6.57s-5.73-2.78-5.73-6.57,2.11-6.56,5.73-6.56S239.9,10.34,239.9,14.12Zm-2.55,0c0-2.4-1-4.27-3.16-4.27S231,11.72,231,14.12s1,4.28,3.17,4.28S237.35,16.53,237.35,14.12Z"/><path d="M249.57,7.78V9.31l-5.11,11.16h-2.8l4.76-10.32H240.7V7.78Z"/><path d="M255.82,14.85A10.65,10.65,0,0,1,251.88,23l-1.58-1.59c1.86-2,3-3.73,3-6.57s-1.16-4.59-3-6.57l1.58-1.58A10.64,10.64,0,0,1,255.82,14.85Z"/></g></g></svg>