<svg xmlns="http://www.w3.org/2000/svg" viewBox="0 0 255.82 27.98"><defs><style>.cls-1,.cls-2{stroke:#000;stroke-miterlimit:10;stroke-width:2px;}.cls-2{fill:none;}</style></defs><g id="Layer_2" data-name="Layer 2"><g id="Layer_1-2" data-name="Layer 1"><polygon class="cls-1" points="3.3 11.32 12.6 11.32 16.02 3.01 18.47 11.32 28.25 11.32 20.42 16.21 23.36 25.51 15.53 20.13 8.19 25.51 10.64 16.21 3.3 11.32"/><polygon class="cls-1" points="38.56 11.32 47.86 11.32 51.28 3.01 53.73 11.32 63.51 11.32 55.68 16.21 58.62 25.51 50.79 20.13 43.45 25.51 45.9 16.21 38.56 11.32"/><polygon class="cls-1" points="73.83 11.32 83.12 11.32 86.54 3.01 88.99 11.32 98.77 11.32 90.94 16.21 93.88 25.51 86.05 20.13 78.72 25.51 81.16 16.21 73.83 11.32"/><polygon class="cls-1" points="108.6 11.32 117.89 11.32 121.31 3.01 123.76 11.32 133.54 11.32 125.72 16.21 128.65 25.51 120.83 20.13 113.49 25.51 115.93 16.21 108.6 11.32"/><path d="M192,18h-1.66v2.5h-2.45V18h-6.49V16.4l3.56-8.62h2.58l-3.23,8h3.58V12.13h2.45V15.8H192Z"/><path d="M193.27,19.16a1.49,1.49,0,1,1,1.48,1.44A1.45,1.45,0,0,1,193.27,19.16Z"/><path d="M206,7.78V9.31l-5.12,11.16h-2.8l4.76-10.32h-5.71V7.78Z"/><path d="M213.61,14.85c0,2.84,1.16,4.59,3,6.57L215.05,23a10.65,10.65,0,0,1-3.94-8.16,10.64,10.64,0,0,1,3.94-8.15l1.58,1.58C214.77,10.26,213.61,12,213.61,14.85Z"/><path d="M226.82,16.89c0,2.16-1.88,3.8-4.36,3.8A4.41,4.41,0,0,1,217.75,17h2.47a2.12,2.12,0,0,0,2.24,1.55,1.81,1.81,0,0,0,2-1.64c0-1.05-.93-1.7-2.33-1.7h-1v-2h1a1.72,1.72,0,0,0,1.9-1.71,1.66,1.66,0,0,0-1.77-1.72,1.79,1.79,0,0,0-1.92,1.62h-2.47a4.08,4.08,0,0,1,4.39-3.79,3.85,3.85,0,0,1,4.14,3.87,3.12,3.12,0,0,1-1.28,2.65A3,3,0,0,1,226.82,16.89Z"/><path d="M239.9,14.12c0,3.79-2.09,6.57-5.71,6.57s-5.73-2.78-5.73-6.57,2.11-6.57,5.73-6.57S239.9,10.34,239.9,14.12Zm-2.55,0c0-2.4-1-4.27-3.16-4.27S231,11.72,231,14.12s1,4.28,3.17,4.28S237.35,16.53,237.35,14.12Z"/><path d="M249.57,7.78V9.31l-5.11,11.16h-2.8l4.76-10.32H240.7V7.78Z"/><path d="M255.82,14.85A10.65,10.65,0,0,1,251.88,23l-1.58-1.59c1.86-2,3-3.73,3-6.57s-1.16-4.59-3-6.57l1.58-1.58A10.64,10.64,0,0,1,255.82,14.85Z"/><polygon class="cls-2" points="143.37 11.32 152.66 11.32 156.09 3.01 158.53 11.32 168.31 11.32 160.49 16.21 163.42 25.51 155.6 20.13 148.26 25.51 150.71 16.21 143.37 11.32"/><path d="M154.81,6.07V20.51a.5.5,0,0,0,1,0V6.07a.5.5,0,0,0-1,0Z"/><path d="M154.81,6.07V20.42a.5.5,0,0,0,1,0V6.07a.5.5,0,0,0-1,0Z"/><path d="M154.81,6.07V16.2a.5.5,0,0,0,1,0V6.07a.5.5,0,0,0-1,0Z"/><path d="M154.9,6.07V18.73a.5.5,0,0,0,1,0V6.07a.5.5,0,0,0-1,0Z"/><path d="M155.09,5.89V20.42a.5.5,0,0,0,1,0V5.89a.5.5,0,0,0-1,0Z"/><path d="M154.09,9.07A51.69,51.69,0,0,1,153,20.51h1a23,23,0,0,1-.21-4.54l-.93.25a9.81,9.81,0,0,1,1.52,3,.51.51,0,0,0,1,0,6.75,6.75,0,0,0,.11-2.37l-1,.13a4.35,4.35,0,0,0,.21.75c0,.2.08.21.27,0a1.8,1.8,0,0,1-.06-.32l-.91.38a2.4,2.4,0,0,1,.36,1c0,.07.05.44,0,.51s-.29,0-.36.05a5.45,5.45,0,0,0-1.74.64,5.59,5.59,0,0,0-2.37,2.67l.78-.1c-.37-.36-.13-1,0-1.4L151,19.3l1-3.83-1-.14a16.81,16.81,0,0,1-.31,6.12l1,.13A11.36,11.36,0,0,1,152,18.2l-1-.27a19.58,19.58,0,0,1-.9,3.21c-.21.58.6.8.92.39a15.27,15.27,0,0,0,2-3.63l-.91.12a2.94,2.94,0,0,1,.12,1.9,2.86,2.86,0,0,0,.27,1.75l.3-.73A1.4,1.4,0,0,1,152,21l.3.73a11.05,11.05,0,0,1,2.16-2.65l-.78-.1a.25.25,0,0,1,0,.37l.68-.18-.05-.06a.51.51,0,0,0-.5-.5c-.58,0-.67.39-1.09.67s-.6-.06-.68-.4a2.61,2.61,0,0,1,.15-1.14h-1a9.22,9.22,0,0,1,.19,2.62h1a31.16,31.16,0,0,1,.19-4.53l-1,.14a5.17,5.17,0,0,1-.13,2.47l1,.13A10.64,10.64,0,0,1,154,14.1l-.92-.12A6.32,6.32,0,0,1,153.5,16h1l-.2-1.84a.5.5,0,0,0-1,0v1.25l1-.13a10.38,10.38,0,0,1-.14-2.61h-1l0,1,1-.13a5.94,5.94,0,0,1-.24-1.44h-1a1.85,1.85,0,0,1-.05.66l1,.13-.11-1.12-.64.49a.64.64,0,0,1,.48.25.5.5,0,0,0,.85-.35,2.64,2.64,0,0,1,.27-1.27l-.91-.12a3.62,3.62,0,0,1-.38,2.77,3.3,3.3,0,0,1-.41.57c-.25.25-.23.18-.3-.13a7.21,7.21,0,0,1-.17-1.73l-.93.25a2.92,2.92,0,0,1,.57,2.12l1-.14a1.41,1.41,0,0,1,.14-.83.49.49,0,0,0-.3-.73c-1.72-.4-3.43-.85-5.13-1.37-.57-.17-.83.61-.38.92a8.12,8.12,0,0,0,5.13,1.4.51.51,0,0,0,.36-.86,3.38,3.38,0,0,0-2.11-1.25c-.63-.11-.91.83-.27,1l2.39.51c.38.08.84-.35.56-.74a1.08,1.08,0,0,0-.71-.5.52.52,0,0,0-.64.48l-.05,3.9.85-.36a2.59,2.59,0,0,1-.84-2l-.93.25a2.24,2.24,0,0,1,.47,1.21l.85-.35c-1.62-1.46-4-1.74-5.5-3.34l-.48.83c1.59.65,3.15,1.36,4.69,2.11.57.28,1.07-.55.5-.86l-2.49-1.39-.39.92c.84.23,2,.54,2.08,1.56s0,1.8,1,2.17a.51.51,0,0,0,.64-.48,5.15,5.15,0,0,1,1.22-3.38l-.86-.36a18.84,18.84,0,0,1-.15,3.9l1,.13-.28-3.41c-.06-.63-1.06-.64-1,0l.28,3.41c.05.52.9.73,1,.13a19.29,19.29,0,0,0,.19-4.16c0-.39-.55-.71-.85-.35a6.25,6.25,0,0,0-1.51,4.09l.63-.48c-.47-.17-.28-1.16-.35-1.54a2.17,2.17,0,0,0-.54-1.08,4.67,4.67,0,0,0-2.24-1.12.5.5,0,0,0-.38.92l2.49,1.38.5-.86c-1.61-.8-3.26-1.53-4.93-2.21-.49-.2-.79.5-.48.83,1.52,1.63,3.88,1.88,5.5,3.35a.51.51,0,0,0,.85-.36,3.18,3.18,0,0,0-.6-1.71.51.51,0,0,0-.94.25,3.6,3.6,0,0,0,1.14,2.69.5.5,0,0,0,.85-.35l.05-3.9-.63.48.12,0,.56-.74-2.38-.5-.27,1a2.57,2.57,0,0,1,1.67,1l.35-.85a7.21,7.21,0,0,1-4.63-1.27l-.39.92c1.7.51,3.41,1,5.14,1.36l-.3-.73a2.61,2.61,0,0,0-.25,1.6c.09.6.93.38,1-.13a3.76,3.76,0,0,0-.71-2.63.5.5,0,0,0-.93.26,5.27,5.27,0,0,0,.46,2.72c.41.6,1.13.41,1.58,0a4.58,4.58,0,0,0,1.18-4.44.5.5,0,0,0-.91-.12,3.5,3.5,0,0,0-.41,1.77l.86-.36a1.43,1.43,0,0,0-.92-.51c-.29,0-.67.12-.63.48l.11,1.12c0,.53.83.72,1,.13a2.85,2.85,0,0,0,.09-.92c-.05-.64-1-.65-1,0a7.63,7.63,0,0,0,.28,1.71.5.5,0,0,0,1-.14l0-1c0-.65-1-.64-1,0a11.14,11.14,0,0,0,.18,2.88c.11.56,1,.41,1-.14V14.2h-1l.2,1.84c.06.62,1,.65,1,0a7.36,7.36,0,0,0-.46-2.32.51.51,0,0,0-.92-.12,12,12,0,0,0-1.63,5c-.05.58.83.66,1,.13a6.21,6.21,0,0,0,.12-3c-.11-.6-.92-.38-1,.13a31.16,31.16,0,0,0-.19,4.53.5.5,0,0,0,1,0,9.69,9.69,0,0,0-.23-2.89.5.5,0,0,0-1,0c-.24.91-.39,2,.49,2.64a1.35,1.35,0,0,0,1.1.24,1.11,1.11,0,0,0,.49-.26c.12-.09.35-.48.5-.48l-.5-.5a1.18,1.18,0,0,0,.55.93.5.5,0,0,0,.68-.18,1.24,1.24,0,0,0,0-1.39.5.5,0,0,0-.78-.1,11.84,11.84,0,0,0-2.32,2.86.5.5,0,0,0,.3.73,2.31,2.31,0,0,0,1.4-.06.5.5,0,0,0,.3-.73,3.51,3.51,0,0,1-.06-1.93,2.57,2.57,0,0,0-.33-1.72.5.5,0,0,0-.91.12,14.6,14.6,0,0,1-1.9,3.38l.92.39A20.91,20.91,0,0,0,152,18.2c.12-.62-.8-.9-1-.27a12.49,12.49,0,0,0-.37,3.65.5.5,0,0,0,1,.14,17.63,17.63,0,0,0,.35-6.39c-.07-.51-.83-.73-1-.13L149.82,20c-.25,1-.87,2.46.05,3.32a.5.5,0,0,0,.78-.1A4.7,4.7,0,0,1,154,20.41c.65-.14,1.17-.21,1.27-1a3.29,3.29,0,0,0-.48-2.12.5.5,0,0,0-.91.38c.09.63.56,1.32,1.29,1s.44-1.43.21-2-1.06-.48-1,.13a5.77,5.77,0,0,1-.08,2.11h1a10.67,10.67,0,0,0-1.63-3.25.5.5,0,0,0-.93.25,24.08,24.08,0,0,0,.25,4.8c.07.5.86.46,1,0a52.79,52.79,0,0,0,1.16-11.7.5.5,0,0,0-1,0Z"/><path d="M154.33,12.81a17.35,17.35,0,0,1,0,4.32c0,.27.25.5.5.5a.51.51,0,0,0,.5-.5,17.35,17.35,0,0,0,0-4.32.52.52,0,0,0-.5-.5.51.51,0,0,0-.5.5Z"/></g></g></svg>