<svg xmlns="http://www.w3.org/2000/svg" xmlns:xlink="http://www.w3.org/1999/xlink" viewBox="0 0 783.26 393.19"><defs><style>.cls-1{isolation:isolate;}.cls-2{fill:url(#linear-gradient);}.cls-3,.cls-4,.cls-6{fill:#ffc2e5;}.cls-3,.cls-5{opacity:0.8;}.cls-3,.cls-4,.cls-5,.cls-7,.cls-9{mix-blend-mode:multiply;}.cls-7,.cls-9{fill:#d6c1ff;}.cls-7{opacity:0.4;}.cls-8{fill:url(#Áåçûìÿííûé_ãðàäèåíò_297);}.cls-9{opacity:0.6;}.cls-10{fill:url(#linear-gradient-2);}.cls-11{fill:#fffdc0;}.cls-12{fill:url(#linear-gradient-3);}.cls-13{fill:#e7f5f8;}</style><linearGradient id="linear-gradient" x1="235.97" x2="235.97" y2="370.95" gradientUnits="userSpaceOnUse"><stop offset="0" stop-color="#ffe286"/><stop offset="0.61" stop-color="#fc6a7c"/></linearGradient><linearGradient id="Áåçûìÿííûé_ãðàäèåíò_297" x1="1.65" y1="368.23" x2="471.81" y2="368.23" gradientUnits="userSpaceOnUse"><stop offset="0" stop-color="#9ebaf4"/><stop offset="1" stop-color="#b58be5"/></linearGradient><linearGradient id="linear-gradient-2" x1="1" y1="216.24" x2="486.41" y2="216.24" gradientUnits="userSpaceOnUse"><stop offset="0" stop-color="#ff8895"/><stop offset="0.27" stop-color="#fc8795"/><stop offset="0.47" stop-color="#f38497"/><stop offset="0.65" stop-color="#e37e99"/><stop offset="0.82" stop-color="#cc769c"/><stop offset="0.97" stop-color="#af6ba0"/><stop offset="1" stop-color="#a969a1"/></linearGradient><linearGradient id="linear-gradient-3" y1="252.58" x2="783.26" y2="252.58" gradientUnits="userSpaceOnUse"><stop offset="0" stop-color="#dd3788"/><stop offset="1" stop-color="#ff7549"/></linearGradient></defs><g class="cls-1"><g id="Layer_2" data-name="Layer 2"><g id="Layer_2-2" data-name="Layer 2"><path class="cls-2" d="M471.81,367q-24.29.66-48,1.21-69,1.61-133.1,2.29-49.28.51-95.3.43c-44.92-.09-87.4-.62-127.19-1.64Q33.55,368.4,1.67,367v-.78l0-2.83-.54-121L.62,131.88.46,96.51l0-3.06V91.64L.13,26.06h0s0,0,0,0l.65-.55.4-.33C2,24.54,3,23.69,4.43,22.66l.56-.4c.47-.35,1-.71,1.49-1.08l1-.71c.28-.18.55-.38.84-.57l.77-.52,1.11-.74,1.37-.87.88-.55c.47-.3.95-.59,1.45-.89l1.39-.83,1-.58,1-.57,1.05-.59A115,115,0,0,1,46.71,2.61a86.08,86.08,0,0,1,37-1.09c61,12,67.27,62.25,67.27,62.25,24.6-2.51,44.44-1.08,46.35,15.14,20.6,3.49,31.81,14.72,28.17,38.18,0,0,15.15,19.38,9.69,42.1a47,47,0,0,1-3.16,9.11,43.64,43.64,0,0,1-18.7,20c5.18-2.33,21.18-8.29,38.92-2.79,26.87,8.33,29.29,34.23,29.29,34.23,31.4.1,40.08,35.41,11.84,50.59.6-.09,10.8-1.47,17.85,10,7.27,11.81,7,32.11,7,32.11,1.77-1.8,3.58-2,5.45,0,18.33-22.42,50.29-13.78,49.07,16,9.83-.87,16.41,3.24,17.88,15.15,20,1,34.06,5.27,37.26,15.46,6.55-1.27,12.54.5,17.87,5.75C459.52,362.87,468.53,363.41,471.81,367Z"/><path class="cls-3" d="M445.75,364.89c-1-.5-2-.95-3-1.34l-1.05-.4c-5.84-2.24-11-2.82-15.48-1.45-2-9.94-14.94-15.35-37-17-1.68-9.16-6.76-15.17-18.17-15.3-.46-29.08-31.66-34.53-47.41-17-1.87-2-3.68-1.8-5.45,0-3.55-26.72-12.36-39.33-24.84-42.1-5.86-10.71-17.37-11.92-26.06-5.46,3.64-22.72-17.34-30.23-31.5-26.86-.22-29.61-9.07-40.77-25.65-35.34-1-7.88,8.32-8.52,10.1-3,2.3-5.68.23-9.56-6.92-11.35a43.64,43.64,0,0,0,18.7-20C207.14,210.6,110.81,134.06,144.19,86c-7.56-5.63-16.78-5-26.82-1.36,8.5-5,17.5-7,27.26-4.1-22.43-25.8-44.16-29.9-65.42-20,10.53-10.89,22.14-15.93,35.89-9.54-.21-.62-.42-1.24-.64-1.86C100.39,10.42,54.53-6.13,18.38,13.76l-1.05.59-1,.57-1,.58-1.39.83c-.5.3-1,.59-1.45.89l-.88.55-1.37.87-1.11.74-.77.52c-.29.19-.56.39-.84.57l-1,.71c-.53.37-1,.73-1.49,1.08l-.56.4C3,23.69,2,24.54,1.24,25.13l-.4.33L.19,26s0,0,0,0h0l.3,65.58v1.81l0,3.06c33.22.91,48.72,26.41,33,58.44a19,19,0,0,1,2.72,1.16q.6.3,1.17.66a15.4,15.4,0,0,1,2.18,1.65l.49.46a15.13,15.13,0,0,1,2.3,2.84l.24.41c.25.42.5.88.72,1.34s.54,1.21.77,1.85a21.4,21.4,0,0,1,.74,2.49q.26,1,.42,2.19a3.72,3.72,0,0,1,.08.57q.12.78.18,1.59c0,.21,0,.43.06.65s0,.49,0,.74c0,.06,0,.13,0,.19l0,0c.21-.12,1.79-1.05,4.22-2.32C81.21,157.34,133,198,91.94,249.75c29.06-40.13-15.17-85.25-46.36-76a126.65,126.65,0,0,1-1.21,17.37c-4.39-24-22.72-37.22-39.59-27.17,1.64-3.76,10.51-8.61,13.46-8.83,1-15.4-7.34-20.09-17.62-23.23l.49,110.5.54,121,0,2.83V367q31.88,1.39,66.53,2.29c39.79,1,82.27,1.55,127.19,1.64q46,.09,95.3-.43,64-.67,133.1-2.29,23.73-.56,48-1.21C468.53,363.41,459.52,362.87,445.75,364.89ZM63.55,87v-.18a14.09,14.09,0,0,0-12.86-14.2c-10-.88-19,1.38-27.53,5.39,29.08-17,57.49-2.53,61.5,29.69C73.13,103.14,65.89,96.35,63.55,87ZM164.63,196.15c30.15-2.41,49.36,11.31,53.92,46.65-8.26-28.73-29.85-39.68-58.77-40.89,3.11-13.64-6.26-24.64-26.65-33.32C148.65,165.09,162.87,164.89,164.63,196.15Zm20.92,140.26c3.65-13.89-13.69-24.92-25.16-27.11.15-17.62-6.41-27.67-18.17-31.81,2.72-28.25-8.09-40.38-30.62-38.57,20.17-5.08,39.17,7.2,34.25,36.91,17.41-2.79,35.14,9.69,32.41,34.84C187.34,316.56,190.59,324.81,185.55,336.41Zm39-31.7a9.87,9.87,0,0,0-1-9.35,15.06,15.06,0,0,0-6.5-5.87c-.29.56-.6,1.12-.93,1.66a23.44,23.44,0,0,1-7.27,7.39c4.09-5.13,6.66-11.28,6.42-17.76-.41-12.51-9.33-23.71-20.85-28.29a38.55,38.55,0,0,0-19.18-2.11c12.83-6.49,29.66-1.56,38.07,10.11,5.86,7.58,8.17,18.56,4.42,27.51,3.78-1.19,8.39,1.12,10.38,4.56C230.84,296.54,229.8,303.57,224.51,304.71Z"/><path class="cls-4" d="M471.81,367q-24.29.66-48,1.21c-14.58-7.18-24.31-6.63-33.08-4.54-16.05-13-41.53-13.55-57.35-2.23C319.76,344.09,309.05,345,299.64,354c-6.2-7.51-15.36-11.44-27.06-12.32,4.42-10.34.18-14.81-9.9-15.35,22.05-7.72,40.19-24.94,31.41-53.51,5.78,10.72,9.29,28.57-6.36,41.4,7.87-3.74,19.58-2.22,21.8,9.69-8.48-.41-7.95,7.25-3.43,10.5,13.39-15.63,29.22-13.83,48.68,13.74,1.46-2.48,2.46-7.28,1-10.51,8.18-4.95,24.54-8.48,33.48,7.12,18.8,1.7,34,5.58,36.95,17,4.68-1.06,10-.75,16.53,1.85,1,.39,2,.84,3,1.34C456.84,364.19,465.14,365.13,471.81,367Z"/><g class="cls-5"><path class="cls-6" d="M290.7,370.51q-49.27.51-95.31.43c-1.16-10.9-8.86-15.1-18.89-16.92,7.4.48,10.31-7.52,6.92-13.37,7.86-13.86,5-23.39-5.16-30,2.73-25.15-15-37.63-32.41-34.84,6.56-39.59-29.36-48.23-53.92-26.06,43-54.22-15.75-96.21-46.35-76,0-.06,0-.12,0-.19,0-.25,0-.5,0-.74s0-.43-.05-.65c0-.54-.1-1.07-.18-1.59,0-.19,0-.38-.08-.57-.12-.76-.26-1.49-.43-2.19a21.4,21.4,0,0,0-.74-2.49,16,16,0,0,0-.77-1.85,14.25,14.25,0,0,0-.72-1.34l-.24-.4A15.22,15.22,0,0,0,40,158.88l-.49-.46a14.94,14.94,0,0,0-2.19-1.65,12.14,12.14,0,0,0-1.17-.66A17.49,17.49,0,0,0,33.46,155c15.73-32,.22-57.54-33-58.45l0-3.06c.33-.42.68-.84,1-1.25l0,0c.31-.36.61-.7.92-1A1.33,1.33,0,0,1,2.58,91c19.06-20.3,60.31-15.18,80.87,36.12,11.41-13.23,38.67-8.18,39.07,22.73,8,2.38,12.22,8,10.61,18.77,17.14,7.68,29.93,17.16,26.66,33.33,28,1.12,50,11.05,58.76,40.89-16.75-4.62-31-1.41-43.31,7.58,21.64.68,40,30.4,7,56.95,18.84-7.68,35.58-5.41,48.77,13.63-5.69,2.67-7.91,7.72-7.57,14.54,21.8-14.34,40-1.4,37.25,20.3C270.2,353.88,280.2,358.69,290.7,370.51Z"/></g><path class="cls-3" d="M246.58,225.23c.46-13.9-4.61-22.12-11.36-28.62,0,0,11.21,2.88,13.93,10.9S246.58,225.23,246.58,225.23Z"/><path class="cls-4" d="M195.39,370.94c-44.92-.09-87.4-.62-127.19-1.64Q33.55,368.4,1.67,367v-.78l0-2.83-.54-121c21.14-12.9,56.58,7.26,43.86,41,3.11-.62,5.62,0,7.27,2.42,20.51-15.89,47.26-11.21,46.65,20.6,7.8-.85,15.09,2.22,21.81,9.7,16.8.14,33.27,14.35,34.39,31.8,8.63-1.51,20.75,1.37,21.51,15.6,6.07-3.29,11.93-2.07,15.49,1.34A11.26,11.26,0,0,1,195.39,370.94Z"/><path class="cls-7" d="M1.47,92.2c-.35.41-.7.83-1,1.25V91.64L2.58,91a1.33,1.33,0,0,0-.16.17c-.31.33-.61.67-.92,1Z"/><path class="cls-8" d="M471.81,367s-76.65,8-262.35,5.6c-58.46-.76-105-2-141.26-3.31-28-1-49.91-2.11-66.53-3.07l0-2.83,190.44,1.46,1.73,0,92.09.7,134.41,1Z"/><path class="cls-9" d="M471.81,367s-76.65,8-262.35,5.6c-58.46-.76-105-2-141.26-3.31-28-1-49.91-2.11-66.53-3.07l0-2.83,190.44,1.46,1.73,0,92.09.7,134.41,1Z"/><path class="cls-10" d="M486.41,317.79q-103,2.15-202.7,2.61l-21,.07c-91.13.24-175.07-.63-261.67-2.68L2.17,185.67l.62-70.29a13.14,13.14,0,0,1,3.09-2.09c9-4.44,22.8,1.6,20.69,28.92,14.94-19.14,48.9-18.17,64.52,0,28.43,3.36,43.84,22.29,31.25,54.68,13.61-2.39,24.27,2.41,30.23,18.67,10.78.22,16.88,5.3,15.62,18,43.82-17.91,77.8-10,97.47,35.33,4.46-.86,7,1.06,7.47,6.11,18.37-3.78,35.11-1.56,48.91,11.55,9-1.85,16.32-.92,20,6.11,22.21-7,37.32,0,49.25,13.24,9.56-1.38,17.38.65,23.09,6.8C437.1,311,461.22,313,486.41,317.79Z"/><path class="cls-11" d="M412.93,311.26c-6-4.61-15.67-4.57-24.35-3.32-11.93-13.26-27-20.24-49.25-13.24-3.71-7-11.05-8-20-6.11-13.8-13.11-30.54-15.33-48.91-11.55-.43-5.05-3-7-7.47-6.11-19.67-45.37-53.65-53.24-97.47-35.33,1.26-12.7-4.84-17.78-15.62-18-6-16.26-16.62-21.06-30.23-18.67,12.59-32.39-2.82-51.32-31.25-54.68-13.33-15.51-40-18.49-56.84-7.13C48,123.43,77,125.84,91.07,142.21c28.43,3.36,43.84,22.29,31.25,54.68,13.61-2.39,24.27,2.41,30.23,18.67,10.78.22,16.88,5.3,15.62,18,43.82-17.91,77.8-10,97.47,35.33,4.46-.86,7,1.06,7.47,6.11,18.37-3.78,35.11-1.56,48.91,11.55,9-1.85,16.32-.92,20,6.11,22.21-7,37.32,0,49.25,13.24C400.07,304.63,407.38,306.24,412.93,311.26Z"/><path class="cls-3" d="M486.41,317.79l-202.7,2.61-21,.07-17.69,0H227.36c-77.76-.05-151-.94-226.36-2.72L2.17,185.47c0-30.13,22.35-46.41,46.41-48.75,28-2.72,58.37,13.46,58.48,48.62a70.74,70.74,0,0,1,2.71,32.83s27.17-8.83,43.25,5.43,13.13,30.8,13.13,30.8c9.36-5.73,19.49-7.05,30.57-3,18.6-6.17,53.2.23,57.05,32.38,6.48-1.52,11.5.06,14.72,5.43,10-3.94,20.65-2.6,32.15,4.76,14-7.82,32.13-5,37.81,10.87,13.72-7.36,26.46-6.92,37.59,6.34,4.07-2.38,8.26-2,12.11,1.47,5.46-3,15.86-2.86,22.53.79C432.46,311.87,459.18,314.6,486.41,317.79Z"/><path class="cls-12" d="M783.26,391.15l-229.12.6-119.75.31-20.69.05-183.62.48-98.44.25L71.15,393h0l-46.48.13-24.57.06,0-19L.05,359l0-41.25.05-5.52.66-75,.46-51.84.35-39.93.27-30.16,3.09-2.09c8.71-4.28,21.82,1.18,20.86,26.06,0,.93-.09,1.88-.17,2.86a32.68,32.68,0,0,1,3.36-3.68c16.19-15.24,46.62-13.23,61.16,3.68,15.11,16.73,18.32,41.28,16.87,64.38-.25,4.09-.65,8.14-1.16,12.09-.23,1.82-.49,3.61-.76,5.38a46,46,0,0,1,16.37-5.62c21.25-3.05,43.18,9.2,41.7,39.24,10.38-.14,17.49,7,11.55,16.64,3.49-1.47,5.81-.14,6.79,4.41,24.28-6.28,48.91,6.63,49.93,32.27,13.43-4.16,23.44-.8,30.29,9.47a43.39,43.39,0,0,1,3.67,6.83c10.22-3.27,19.21-1.07,26.83,7.13a42,42,0,0,1,4.43-1.36c13.18-3.32,23.35,1.19,30.89,12.57,10.7-4.11,17.74-.51,23.44,5.93.34.39.68.79,1,1.2a56.56,56.56,0,0,1,27.4-9.57c16.4-1.31,34.18,4.12,50.72,16.36,10.42-13.56,24.84-22.07,41.14-26.33,34.72-9.08,77.93,1.08,109,22.6,16.13-5.85,30.51-5.13,40.41,12.23,25-5.09,52.35-1,81.36,9.22q7.81,2.75,15.78,6.06Q752.61,382.14,783.26,391.15Z"/><path class="cls-7" d="M24.66,393.13l-24.57.06,0-19C11.42,374.52,23.35,379.61,24.66,393.13Z"/><path class="cls-7" d="M717.15,384.13a27.21,27.21,0,0,0-23.77-1.36c-11.66-10.07-29.78-10.3-40.31,3.63-6.35-14-18.47-17.37-34.41-13.59-18.45-14.94-51.06-16-66.11,4.08.68-28.52-29.89-38.38-65.21-19.93-15-11.25-31.11-8.82-46.87.45,17.73-6.6,34.87-7,50.26,7.93-11.58-4.34-23.54-4.47-35.09,2.94-10.73-4.5-24.91,1.7-29.43,16.3C416,373.3,405,372.28,393.15,381c-9.77-10-23.66-12.68-38-9.06-6.56-12.67,5.1-25.58,24.23-28.7a56.56,56.56,0,0,0-27.4,9.57c-7.67,5.24-13.17,10.64-16.75,16.19-7.75-10.37-20.27-11.32-31.25-1.81-1.32-9.11-6-15.12-13.58-18.34,1.24-18.79-9.94-23.78-25-21.51a35.44,35.44,0,0,1,1.7,17.21c-3.1-14.72-10.94-22.49-23.06-24a41.94,41.94,0,0,0-9.83,0,64.07,64.07,0,0,0-7.87,1.36c0-.46.07-.91.08-1.36,1.47-28-22.92-32.06-44-24.45-4.84-4.21-11-4.6-18.12-2-12.17-7.87-21.72-5.14-30.79-.46C135.9,279,130.68,269.49,121,263c7.19-14.69-4.76-26.27-30.11-23.55A37.2,37.2,0,0,1,105,224.06c.27-1.77.53-3.56.76-5.38-5.29-10-14.3-12.13-25.78-9.12,21-36.21,4.87-75.84-32.44-72.84a56.42,56.42,0,0,0-26.67,9.45c-11.67,8.09-19.74,21.19-19.74,39.3L.71,237.31l-.66,75,0,5.52L.05,359a25.89,25.89,0,0,1,29,10.6c10.58-1.69,19.46.68,24.68,11.77,8.37,3.06,14.64,6.77,17.39,11.59h0l60.49-.16c-11.32-15.55-27-17.07-44.77-12a29.91,29.91,0,0,1,11-7.57,34.42,34.42,0,0,1,14.62-1.77c5.09-17.32,30.06-12.22,32.09,2.89,14.78-22.42,53.49-14.44,56,9.68,9.6-2.93,19.39-.69,29.44,8.57l183.62-.48,20.69-.05,119.75-.31,229.12-.6A404,404,0,0,0,717.15,384.13Zm-538.92-56c-1-7.82-8.1-12.74-16.14-11.89,6.47,3.68,9.2,9,8,16.14-7.69-19.58-28.81-23-46-15.29-1.65-11.95-9.76-16-20.55-16.81,5.56-18.49-10.47-34.92-27.17-40.24,2.51-8.18-.12-14.09-7.3-18,9.92.24,17.42,3.33,19.53,12.73,25.88,2,37.86,23.77,19.35,43.81,12.39-4.16,23.34-4.3,30.4,6.46,2.79-1.51,5.35-1.4,7.64.5,15.2-5.11,29.15-.56,34.47,18,11.88-11.43,23.78-10.41,32.61.51C201.28,315.41,185.87,319,178.23,328.15Z"/><path class="cls-7" d="M24.66,393.13l-24.57.06,0-19C11.42,374.52,23.35,379.61,24.66,393.13Z"/><path class="cls-7" d="M413.7,392.11l-183.62.48c-10.05-9.26-19.84-11.5-29.44-8.57-2.55-24.12-41.26-32.1-56-9.68-2-15.11-27-20.21-32.09-2.89a34.42,34.42,0,0,0-14.62,1.77,29.91,29.91,0,0,0-11,7.57c17.75-5,33.45-3.5,44.77,12L71.15,393h0c-2.75-4.82-9-8.53-17.39-11.59-5.22-11.09-14.1-13.46-24.68-11.77A25.89,25.89,0,0,0,.05,359l0-41.25.05-5.52.66-75,.46-51.84c0-18.11,8.07-31.21,19.74-39.3,13.82-9.06,36.58-12.28,38.28,7.24,26.32,3.4,27.19,32.37,8.15,37.59-14.52-5.4-24.25.58-32.83,9.28,23.32,2.72,34,25.47,16.3,43.25,9.11,3.86,13.93,11.36,12.68,24,25.8,5.18,47.41,12.62,36.91,37.58A58.75,58.75,0,0,0,86.53,302C74.66,282.73,58,280.94,40.34,282.64c18.72.35,35.11,5.27,45.51,21.91,4.13-1.4,9.07-1,14.55.56,11.38,3.64,20.2,10.61,25.13,22.64,16.74-7.53,30.89-5.06,41.43,11.32,28.08-23.15,65.94-16.52,76.3,16.53,25.47-9.17,48.58-4.17,58.42,19,6.54-1.59,12.8-1,18.34,5,19.7-10.75,46.48-8.24,60,7.93C380,387.53,395.05,384.4,413.7,392.11Z"/><path class="cls-7" d="M131.64,392.84,71.15,393h0c-2.75-4.82-9-8.53-17.39-11.59-5.22-11.09-14.1-13.46-24.68-11.77A25.89,25.89,0,0,0,.05,359c17.35-8.63,36-9.61,56.93,2.39,11.53-15.77,40-9.87,40.91,11.79a29.91,29.91,0,0,0-11,7.57C104.62,375.77,120.32,377.29,131.64,392.84Z"/><path class="cls-7" d="M14.13,273.19c3.62,9.36,1.68,16-8.38,18.79,2.57,8.59.69,15.37-5.7,20.29l.66-75C21.38,224.1,46.47,248.23,14.13,273.19Z"/><path class="cls-7" d="M554.14,391.75l-119.75.31c11.34-8.85,24.8-10.45,40.95-2.95,18.11-13.81,43.06-14.69,59.32.91C543.12,387.75,549.37,388.7,554.14,391.75Z"/><path class="cls-11" d="M107,206.59c-1.41-68.23-53.69-87.34-81.85-63.54-2.51-24.93-11.91-29.3-23.32-27.67l3.09-2.09c8.71-4.28,21.82,1.18,20.86,26.06,0,.93-.09,1.88-.17,2.86a32.68,32.68,0,0,1,3.36-3.68c16.19-15.24,46.62-13.23,61.16,3.68C105.2,158.94,108.41,183.49,107,206.59Z"/><path class="cls-11" d="M231.38,311c-6.46-26.07-32.29-37.07-52-30.57,1.05-6.61-2.63-6.68-7.92-4.53,7.92-9.39-1.4-19-11.78-16.53,1.43-26.08-17.05-43-38.3-40.93,21.25-3.05,43.18,9.2,41.7,39.24,10.38-.14,17.49,7,11.55,16.64,3.49-1.47,5.81-.14,6.79,4.41C205.73,272.45,230.36,285.36,231.38,311Z"/><path class="cls-11" d="M350.93,351.57h0c-6.62-6.71-16.69-6.44-24.37-3.22-8.68-12.45-20.16-16.7-29.95-15.29,13.18-3.32,23.35,1.19,30.89,12.57C338.19,341.53,345.23,345.13,350.93,351.57Z"/><path class="cls-13" d="M701.94,377.28c-29.56-7.42-57.47-10.84-82.72-7.87-11.17-13.25-25.08-15.9-40.92-11-45.86-29-78.28-30.69-107.1-25.14,34.72-9.08,77.93,1.08,109,22.6,16.13-5.85,30.51-5.13,40.41,12.23C645.54,363,672.93,367.08,701.94,377.28Z"/></g></g></g></svg>