<svg xmlns="http://www.w3.org/2000/svg" viewBox="0 0 207.01 207.06"><defs><style>.cls-1{fill:#f6ba42;}.cls-2{opacity:0.43;}.cls-3,.cls-8{fill:#f16b00;}.cls-4,.cls-6{fill:#df5c00;}.cls-10,.cls-4,.cls-5,.cls-6,.cls-7{stroke:#282826;}.cls-4,.cls-5{stroke-linecap:round;stroke-linejoin:round;}.cls-5,.cls-7{fill:#b63800;}.cls-10,.cls-6,.cls-7{stroke-miterlimit:10;}.cls-8{opacity:0.54;}.cls-9{fill:#df0000;opacity:0.31;}.cls-10{fill:#fff;stroke-width:0.25px;opacity:0.27;}</style></defs><g id="Layer_2" data-name="Layer 2"><g id="OBJECTS"><circle class="cls-1" cx="103.51" cy="103.51" r="103.51"/><g class="cls-2"><path class="cls-3" d="M190.21,47A103.51,103.51,0,0,1,0,100.9q0,1.3,0,2.61A103.51,103.51,0,1,0,190.21,47Z"/></g><ellipse class="cls-4" cx="158.38" cy="44.41" rx="14.63" ry="17.85" transform="translate(16.52 127.68) rotate(-46.08)"/><path class="cls-5" d="M149.32,35.69c5.09-5.29,14.06-5.08,21,.14a23.08,23.08,0,0,0-1.77-1.95c-7.1-6.84-17.4-7.66-23-1.85S141.14,48.11,148.24,55a21.63,21.63,0,0,0,2,1.7C144.78,49.92,144.23,41,149.32,35.69Z"/><path class="cls-4" d="M141.67,65.59c2.44,2.35,2.86,5.87.93,7.87s-5.46,1.71-7.9-.63S131.85,67,133.77,65,139.23,63.24,141.67,65.59Z"/><path class="cls-5" d="M135.08,66.21c1.74-1.82,4.82-1.74,7.2.05a7.68,7.68,0,0,0-.61-.67c-2.44-2.35-6-2.63-7.9-.63s-1.5,5.52.93,7.87c.23.21.46.4.7.58C133.52,71.1,133.33,68,135.08,66.21Z"/><path class="cls-4" d="M97.87,55.45c-3,1.65-6.45,1-7.8-1.4s0-5.72,2.9-7.37,6.45-1,7.8,1.4S100.83,53.8,97.87,55.45Z"/><path class="cls-5" d="M99.2,49c1.23,2.2.26,5.12-2.15,6.88a8.76,8.76,0,0,0,.82-.39c3-1.65,4.26-5,2.9-7.37s-4.84-3-7.8-1.4c-.26.15-.51.32-.75.49C95,46,98,46.76,99.2,49Z"/><path class="cls-4" d="M129.56,18.14c4.82,2.46,7.09,7.66,5.07,11.6s-7.55,5.16-12.37,2.7-7.09-7.65-5.08-11.6S124.74,15.68,129.56,18.14Z"/><path class="cls-5" d="M119.76,22.15c1.83-3.59,6.57-4.9,11-3.27a13.53,13.53,0,0,0-1.24-.74c-4.82-2.46-10.36-1.25-12.38,2.7s.26,9.14,5.08,11.6a10.23,10.23,0,0,0,1.33.57C119.64,30.35,117.92,25.74,119.76,22.15Z"/><ellipse class="cls-4" cx="41.31" cy="61.96" rx="25.24" ry="20.69" transform="translate(-33.15 62.58) rotate(-56.79)"/><path class="cls-5" d="M28.71,53.67c7-10.7,19.3-15.25,28.67-11.1a17.62,17.62,0,0,0-2.18-1.73C45.64,34.58,31.7,39,24.06,50.63S18,76.82,27.54,83.07A16.25,16.25,0,0,0,30,84.38C22.46,77.46,21.7,64.37,28.71,53.67Z"/><path class="cls-4" d="M14.76,102.26c1.89-7,8-11.32,13.73-9.78s8.78,8.44,6.89,15.39-8,11.32-13.73,9.78S12.87,109.21,14.76,102.26Z"/><path class="cls-5" d="M17.56,103c1.73-6.38,7-10.58,12.31-10a9.14,9.14,0,0,0-1.35-.51c-5.7-1.54-11.84,2.84-13.73,9.78s1.2,13.84,6.89,15.39a8.81,8.81,0,0,0,1.42.25C18.29,115.69,15.82,109.38,17.56,103Z"/><path class="cls-4" d="M63,114.62c2.2-8.11,9.37-13.22,16-11.41s10.25,9.84,8,18-9.38,13.22-16,11.42S60.74,122.73,63,114.62Z"/><path class="cls-5" d="M66.21,115.49c2-7.44,8.23-12.34,14.37-11.71A10.64,10.64,0,0,0,79,103.2c-6.64-1.81-13.82,3.3-16,11.41s1.4,16.15,8.05,18a10.57,10.57,0,0,0,1.65.29C67.06,130.3,64.19,122.93,66.21,115.49Z"/><path class="cls-4" d="M42.36,162.11c-5.14-3.58-6.94-9.89-4-14.11s9.48-4.73,14.62-1.16,6.94,9.89,4,14.11S47.5,165.68,42.36,162.11Z"/><path class="cls-5" d="M43.78,160c-4.71-3.28-6.6-8.86-4.62-13a8.27,8.27,0,0,0-.81.95c-2.93,4.22-1.13,10.54,4,14.11s11.69,3.06,14.62-1.16a7.84,7.84,0,0,0,.62-1.09C54.39,163.14,48.5,163.31,43.78,160Z"/><ellipse class="cls-4" cx="101.05" cy="76.85" rx="8.51" ry="6.97" transform="translate(-16.91 123.78) rotate(-58.95)"/><path class="cls-5" d="M96.7,74.22c2.22-3.7,6.31-5.38,9.51-4.11a5.17,5.17,0,0,0-.75-.55c-3.3-2-7.94-.33-10.37,3.69s-1.71,8.9,1.59,10.89a6.52,6.52,0,0,0,.84.41C94.89,82.31,94.47,77.91,96.7,74.22Z"/><path class="cls-6" d="M191.75,110.2a2.55,2.55,0,1,1,.57,3.91A2.82,2.82,0,0,1,191.75,110.2Z"/><path class="cls-7" d="M192.33,110.55a2.92,2.92,0,0,1,3.42-1.48,1.89,1.89,0,0,0-.27-.2,3.12,3.12,0,0,0-3.15,5.24,1.68,1.68,0,0,0,.3.15A2.91,2.91,0,0,1,192.33,110.55Z"/><path class="cls-4" d="M161.26,73.57a2.56,2.56,0,1,1,.57,3.92A2.83,2.83,0,0,1,161.26,73.57Z"/><path class="cls-5" d="M161.85,73.92a2.91,2.91,0,0,1,3.42-1.47,1.79,1.79,0,0,0-.28-.2,3.12,3.12,0,0,0-3.15,5.24,2,2,0,0,0,.3.14A2.92,2.92,0,0,1,161.85,73.92Z"/><path class="cls-4" d="M153.7,101.62c1-1.65,2.9-2.33,4.26-1.52s1.64,2.82.65,4.47-2.9,2.33-4.26,1.51S152.71,103.27,153.7,101.62Z"/><path class="cls-5" d="M154.37,102a3.34,3.34,0,0,1,3.9-1.68,1.92,1.92,0,0,0-.31-.23c-1.35-.81-3.25-.13-4.25,1.52s-.7,3.65.65,4.46a2.26,2.26,0,0,0,.35.17A3.34,3.34,0,0,1,154.37,102Z"/><path class="cls-4" d="M44.82,117.77c1-1.65,2.9-2.33,4.25-1.51s1.65,2.81.65,4.47-2.9,2.33-4.25,1.51S43.83,119.43,44.82,117.77Z"/><path class="cls-5" d="M45.49,118.17a3.31,3.31,0,0,1,3.9-1.68,2.26,2.26,0,0,0-.31-.23c-1.35-.82-3.26-.14-4.25,1.51s-.71,3.65.65,4.47a2.26,2.26,0,0,0,.35.17A3.32,3.32,0,0,1,45.49,118.17Z"/><path class="cls-4" d="M71.9,25.79c4.47-1.46,9.06.33,10.25,4s-1.46,7.81-5.93,9.27-9.06-.33-10.25-4S67.43,27.24,71.9,25.79Z"/><path class="cls-5" d="M72.49,27.58c4.1-1.34,8.3.06,9.88,3.13a4.8,4.8,0,0,0-.21-.91c-1.19-3.67-5.78-5.46-10.25-4S64.79,31.4,66,35.07a6.55,6.55,0,0,0,.37.86C65.83,32.52,68.39,28.91,72.49,27.58Z"/><ellipse class="cls-4" cx="126.12" cy="113.12" rx="14.46" ry="11.85" transform="translate(-18.87 200.76) rotate(-73.04)"/><path class="cls-5" d="M134.38,115.66c-2.13,7-8.17,11.47-14,10.69a10,10,0,0,0,1.48.61c6.26,1.91,13.23-2.74,15.56-10.38s-.86-15.37-7.12-17.28a9.64,9.64,0,0,0-1.56-.33C134,101.57,136.52,108.65,134.38,115.66Z"/><path class="cls-4" d="M189.49,92.69c-2.33,7.64-9.3,12.29-15.56,10.38s-9.45-9.65-7.12-17.3,9.29-12.28,15.56-10.37S191.82,85.05,189.49,92.69Z"/><path class="cls-5" d="M186.41,91.77c-2.14,7-8.18,11.49-14,10.7a10,10,0,0,0,1.48.61c6.27,1.91,13.23-2.74,15.56-10.38s-.85-15.38-7.12-17.29a9.42,9.42,0,0,0-1.56-.33C186,77.68,188.55,84.76,186.41,91.77Z"/><path class="cls-8" d="M191.05,48.34A99.35,99.35,0,1,1,.6,101.78L0,100.94q0,1.31,0,2.61A103.51,103.51,0,1,0,191.05,48.34Z"/><path class="cls-9" d="M103.51,199A103.51,103.51,0,0,1,.15,101.12L0,100.94q0,1.31,0,2.61a103.51,103.51,0,1,0,207,0c0-1.37,0-2.72-.08-4.08A103.5,103.5,0,0,1,103.51,199Z"/><path class="cls-4" d="M94.32,152.1c1.23-4.53,5.24-7.39,9-6.38s5.73,5.5,4.5,10-5.25,7.39-9,6.38S93.08,156.64,94.32,152.1Z"/><path class="cls-5" d="M96.14,152.59c1.13-4.16,4.6-6.9,8-6.55a7.2,7.2,0,0,0-.88-.33c-3.72-1-7.73,1.85-9,6.39s.79,9,4.5,10a6,6,0,0,0,.93.16C96.62,160.87,95,156.75,96.14,152.59Z"/><ellipse class="cls-4" cx="166.07" cy="136.95" rx="19.41" ry="15.91" transform="translate(-13.37 255.85) rotate(-73.04)"/><path class="cls-5" d="M177.17,140.36c-2.87,9.4-11,15.41-18.79,14.36a13.37,13.37,0,0,0,2,.81c8.4,2.56,17.75-3.67,20.88-13.93S180.1,121,171.7,118.39a13,13,0,0,0-2.1-.43C176.66,121.45,180,131,177.17,140.36Z"/><ellipse class="cls-4" cx="140.63" cy="173.43" rx="10.26" ry="8.41" transform="translate(-70.69 101.33) rotate(-32.12)"/><path class="cls-5" d="M143.88,178.63c-4.41,2.76-9.72,2.35-12.48-.77a6.43,6.43,0,0,0,.52,1c2.47,3.94,8.36,4.68,13.16,1.67s6.68-8.64,4.21-12.58a7.58,7.58,0,0,0-.68-.9C150.22,170.9,148.28,175.86,143.88,178.63Z"/><circle class="cls-10" cx="129.35" cy="47.92" r="42.22"/><circle class="cls-10" cx="138.25" cy="31.47" r="19.06" transform="translate(48.23 141.01) rotate(-63.41)"/></g></g></svg>