<svg xmlns="http://www.w3.org/2000/svg" xmlns:xlink="http://www.w3.org/1999/xlink" viewBox="0 0 438.79 435.55"><defs><radialGradient id="radial-gradient" cx="720.35" cy="-78.17" r="1140.54" gradientTransform="translate(209.19 -93.94) rotate(45)" gradientUnits="userSpaceOnUse"><stop offset="0" stop-color="#8e2de2"/><stop offset="1" stop-color="#021b79"/></radialGradient><radialGradient id="radial-gradient-2" cx="424.98" cy="210.89" r="13.8" gradientTransform="translate(565.08 -242.39) rotate(80.78)" gradientUnits="userSpaceOnUse"><stop offset="0" stop-color="#8e2de2"/><stop offset="0.09" stop-color="#7224b6" stop-opacity="0.81"/><stop offset="0.21" stop-color="#541b86" stop-opacity="0.59"/><stop offset="0.34" stop-color="#3a135d" stop-opacity="0.41"/><stop offset="0.46" stop-color="#250c3b" stop-opacity="0.26"/><stop offset="0.59" stop-color="#150721" stop-opacity="0.15"/><stop offset="0.72" stop-color="#09030f" stop-opacity="0.06"/><stop offset="0.85" stop-color="#020104" stop-opacity="0.02"/><stop offset="1" stop-opacity="0"/></radialGradient><radialGradient id="radial-gradient-3" cx="424.98" cy="210.89" r="7" gradientTransform="matrix(1, 0, 0, 1, 0, 0)" xlink:href="#radial-gradient-2"/><radialGradient id="radial-gradient-4" cx="238.36" cy="268.61" r="21.62" gradientUnits="userSpaceOnUse"><stop offset="0" stop-color="#8e2de2"/><stop offset="0.09" stop-color="#7224b6"/><stop offset="0.21" stop-color="#541b86"/><stop offset="0.34" stop-color="#3a135d"/><stop offset="0.46" stop-color="#250c3b"/><stop offset="0.59" stop-color="#150721"/><stop offset="0.72" stop-color="#09030f"/><stop offset="0.85" stop-color="#020104"/><stop offset="1"/></radialGradient><radialGradient id="radial-gradient-5" cx="238.36" cy="268.61" r="10.96" xlink:href="#radial-gradient-4"/><radialGradient id="radial-gradient-6" cx="251.7" cy="419.99" r="15.56" gradientTransform="translate(515.54 7.52) rotate(63.54)" xlink:href="#radial-gradient-2"/><radialGradient id="radial-gradient-7" cx="251.7" cy="419.99" r="7.89" gradientTransform="matrix(1, 0, 0, 1, 0, 0)" xlink:href="#radial-gradient-2"/><radialGradient id="radial-gradient-8" cx="240.25" cy="11.07" r="11.07" gradientTransform="matrix(1, 0, 0, 1, 0, 0)" xlink:href="#radial-gradient-2"/><radialGradient id="radial-gradient-9" cx="240.25" cy="11.07" r="5.61" gradientTransform="matrix(1, 0, 0, 1, 0, 0)" xlink:href="#radial-gradient-2"/><radialGradient id="radial-gradient-10" cx="194.78" cy="60.5" r="17.15" xlink:href="#radial-gradient-4"/><radialGradient id="radial-gradient-11" cx="194.78" cy="60.5" r="8.7" gradientUnits="userSpaceOnUse"><stop offset="0" stop-color="#fff"/><stop offset="0.03" stop-color="#efefef"/><stop offset="0.14" stop-color="#b7b7b7"/><stop offset="0.26" stop-color="#868686"/><stop offset="0.37" stop-color="#5d5d5d"/><stop offset="0.49" stop-color="#3b3b3b"/><stop offset="0.61" stop-color="#212121"/><stop offset="0.73" stop-color="#0f0f0f"/><stop offset="0.86" stop-color="#040404"/><stop offset="1"/></radialGradient><radialGradient id="radial-gradient-12" cx="97.82" cy="142.21" r="19.97" gradientTransform="translate(112.17 -29.79) rotate(39.29)" xlink:href="#radial-gradient-4"/><radialGradient id="radial-gradient-13" cx="97.82" cy="142.2" r="10.59" xlink:href="#radial-gradient-11"/><radialGradient id="radial-gradient-14" cx="318.26" cy="305.22" r="12.51" xlink:href="#radial-gradient-4"/><radialGradient id="radial-gradient-15" cx="318.26" cy="305.22" r="6.64" xlink:href="#radial-gradient-11"/><radialGradient id="radial-gradient-16" cx="308.62" cy="25.8" r="12.01" gradientTransform="translate(108.63 -210.67) rotate(45)" xlink:href="#radial-gradient-2"/><radialGradient id="radial-gradient-17" cx="308.62" cy="25.8" r="6.37" gradientUnits="userSpaceOnUse"><stop offset="0" stop-color="#fff"/><stop offset="0.03" stop-color="#efefef" stop-opacity="0.94"/><stop offset="0.14" stop-color="#b7b7b7" stop-opacity="0.72"/><stop offset="0.26" stop-color="#868686" stop-opacity="0.53"/><stop offset="0.37" stop-color="#5d5d5d" stop-opacity="0.36"/><stop offset="0.49" stop-color="#3b3b3b" stop-opacity="0.23"/><stop offset="0.61" stop-color="#212121" stop-opacity="0.13"/><stop offset="0.73" stop-color="#0f0f0f" stop-opacity="0.06"/><stop offset="0.86" stop-color="#040404" stop-opacity="0.01"/><stop offset="1" stop-opacity="0"/></radialGradient><radialGradient id="radial-gradient-18" cx="398.2" cy="112.23" r="14.45" gradientTransform="translate(415.94 -301.1) rotate(76.72)" xlink:href="#radial-gradient-2"/><radialGradient id="radial-gradient-19" cx="398.2" cy="112.23" r="7.66" xlink:href="#radial-gradient-17"/><radialGradient id="radial-gradient-20" cx="355.6" cy="359.99" r="7.21" gradientTransform="matrix(1, 0, 0, 1, 0, 0)" xlink:href="#radial-gradient-2"/><radialGradient id="radial-gradient-21" cx="355.6" cy="359.99" r="3.82" xlink:href="#radial-gradient-17"/><radialGradient id="radial-gradient-22" cx="60.89" cy="351.01" r="7.21" gradientTransform="matrix(1, 0, 0, 1, 0, 0)" xlink:href="#radial-gradient-2"/><radialGradient id="radial-gradient-23" cx="60.89" cy="351.01" r="3.82" xlink:href="#radial-gradient-17"/><radialGradient id="radial-gradient-24" cx="7.21" cy="262.77" r="7.21" gradientTransform="matrix(1, 0, 0, 1, 0, 0)" xlink:href="#radial-gradient-2"/><radialGradient id="radial-gradient-25" cx="7.21" cy="262.77" r="3.82" xlink:href="#radial-gradient-17"/><radialGradient id="radial-gradient-26" cx="231.75" cy="160.81" r="18.17" xlink:href="#radial-gradient-4"/><radialGradient id="radial-gradient-27" cx="231.75" cy="160.81" r="9.21" gradientTransform="translate(215.06 -120.77) rotate(51.85)" xlink:href="#radial-gradient-11"/><radialGradient id="radial-gradient-28" cx="130.73" cy="233.29" r="13.81" gradientTransform="translate(327.49 52.18) rotate(76.64)" xlink:href="#radial-gradient-4"/><radialGradient id="radial-gradient-29" cx="130.73" cy="233.29" r="7.01" xlink:href="#radial-gradient-11"/><radialGradient id="radial-gradient-30" cx="202.34" cy="36.36" r="19.81" gradientTransform="translate(84.98 -132.43) rotate(45)" gradientUnits="userSpaceOnUse"><stop offset="0" stop-color="#6cf5ff"/><stop offset="0.34" stop-color="#6bf3fd"/><stop offset="0.47" stop-color="#68ecf6"/><stop offset="0.57" stop-color="#63e1ea"/><stop offset="0.66" stop-color="#5cd0d8"/><stop offset="0.73" stop-color="#52bac1"/><stop offset="0.79" stop-color="#469fa5"/><stop offset="0.85" stop-color="#387f84"/><stop offset="0.9" stop-color="#27595d"/><stop offset="0.95" stop-color="#153032"/><stop offset="1" stop-color="#010303"/><stop offset="1"/></radialGradient><radialGradient id="radial-gradient-31" cx="291.62" cy="55.63" r="12.78" gradientTransform="matrix(1, 0, 0, 1, 0, 0)" xlink:href="#radial-gradient-30"/><radialGradient id="radial-gradient-32" cx="232.99" cy="94.47" r="43.15" gradientTransform="translate(135.04 -137.08) rotate(45)" xlink:href="#radial-gradient-30"/><radialGradient id="radial-gradient-33" cx="88.5" cy="229.01" r="73.26" gradientTransform="translate(300.82 105.74) rotate(80.99)" xlink:href="#radial-gradient-30"/><radialGradient id="radial-gradient-34" cx="168.79" cy="104.23" r="27.85" gradientTransform="matrix(1, 0, 0, 1, 0, 0)" xlink:href="#radial-gradient-30"/><radialGradient id="radial-gradient-35" cx="255.02" cy="261.69" r="27.85" gradientTransform="matrix(1, 0, 0, 1, 0, 0)" xlink:href="#radial-gradient-30"/><radialGradient id="radial-gradient-36" cx="141.19" cy="128.32" r="36.26" gradientTransform="translate(244.95 -31.8) rotate(80.68)" xlink:href="#radial-gradient-30"/></defs><g style="isolation:isolate"><g id="Layer_2" data-name="Layer 2"><g id="BACKGROUND_2" data-name="BACKGROUND 2"><circle cx="217.99" cy="205.54" r="182.76" transform="translate(-81.49 214.34) rotate(-45)" style="fill:url(#radial-gradient)"/><g style="mix-blend-mode:overlay"><path d="M278.19,378.09l.55-.2a191.66,191.66,0,0,1-24,6.65h0a26.31,26.31,0,0,1-5.78.88l.15,0,.14,0,.15,0,.16,0,.16,0,.17,0,.19,0,.21-.05a172.18,172.18,0,0,0,28-7.05M382,183.53c.11-61.42-29.29-111.5-73.89-136.84,12.07,7.4,20,12.3,33.84,24.72,12.21,12.13,13.21,13.12,20.38,22.17,10.41,14.48,11,15.35,16.31,24.92,8.18,16.54,8.5,17.18,12.05,27.3,5.43,18,5.64,18.66,7.47,29.27,2.42,19.06,2.51,19.81,2.53,30.81-.81,19.33-.86,20.49-3,32.67l-2,9.47v0c.32-1.74.72-3.47,1-5.22-2.71,12-4.34,19.27-16.54,40,.8-9,7.39-16,9.05-24.68s.48-17.86,2.27-26.65c.14-1.18.05-1.28,0-1.38l-.26-.28-.26-.28a3.45,3.45,0,0,1-.26-.28l-.27-.27-.27-.27-.28-.27a3.83,3.83,0,0,0-.29-.28c.63-2.58.58-2.93.06-7.17-.15-.82-.21-.47-.27-.12s-.11.64-.17,1-.11.59-.16.89l-.15.83-.15.76c-.05.24-.09.48-.14.72s-.09.45-.13.68-.09.42-.13.63c-1.7,2.6-3.81,4.9-5.37,7.59-1.7,2.94.34,8.19-4.34,9.18-.76-1.46-.76-1.46-.73-4.07l-1.26.15c-3.2,6.15-4.86,13.06-9.2,18.65A202.33,202.33,0,0,0,382,183.53" style="fill:#fff"/><path d="M47,141.33q-.4,1.11-.78,2.22a114.4,114.4,0,0,1,4.53-11.09A82.79,82.79,0,0,0,47,141.33M42.37,256.12l-2.54-9.92c-3.1-16.73-3.93-21.23-4.53-40.92.83-19.73.85-20.1,2.65-30.81,4-18.79,4.08-19.15,7.58-29.25,6.78-17.19,7-17.86,12.16-27.28C67,102.32,67.4,101.71,74.11,93c11.09-13.12,12-14.19,20.48-22.12,4.68-4,11-9.25,15.86-13l0,0c7.63-4.95,7.63-4.95,8.58-5.19-.47.8-.37.75-.26.71l.31-.15.32-.14.33-.14.34-.15.34-.15.37-.15.38-.16c-1.38,1.25-1.72,1.57-3,2.9l.43-.18.45-.17.45-.18.46-.18.48-.17.48-.18.49-.18.5-.19c-1.28,2.32-5.6,4.6-11.08,7.49,1.22.28,1.22.28,5-1.57a3.26,3.26,0,0,0,1.93.09c-.07.2-4,5.11-8.61,7l-.63-.91-1.08.16a10,10,0,0,1-1.57,3,12.29,12.29,0,0,0,2.13-1l-.59,1a9.22,9.22,0,0,0,2.07-.45c0,1.22.43,2.36.47,3.56a11.31,11.31,0,0,1-3.12,2.4l.8.7c-.43.56-1,1.29-1.53,1.8s-.68.54-.8.58l-.37.12-.35.11-.35.11-.35.11-.34.11-.33.12-.33.1.46-1.11c-1.49,1.78-2.14,4-3.25,6-1.53,0-2.89.88-4.42.92-1.05.47-1.14.63-1.24.79s-.19.3-.28.46-.19.3-.28.46l-.27.45-.27.45-.27.46-.27.46-.27.47c2.83,2.27,6.65,2.26,9.62,4.19,0,.38.09.87.12,1.25-2.49,2.67-10.25,4.58-13.32-4H87.67c.22-1.08.22-1.08,1.71-4.28l-.63-.85c.11-.31.11-.31,1.48-3.68-1.31.21-1.31.21-2.74,2.06l1,.43c-.68,2.44-4.07,5.56-4.1,5.58-.77-2.26.48-4.1,1.79-6-3.43,3-3.43,3-5.19,5.27a2.33,2.33,0,0,1-.46.48l-.18.11-.18.12L80,89l-.18.12-.18.12-.18.12-.18.12-.2.14-.2.14-.19.13-.18.13-.17.11-.15.11-.13.1-.12.09c-10,11.27-10,11.27-20.17,28.1a12.39,12.39,0,0,0-.84,1.37l-.46.93-.45.9-.44.89-.42.87c-.14.28-.27.57-.41.85l-.39.84-.38.83C32.25,167.83,37.78,229.24,39.11,241.12c-1.61-5.35-2.33-15.32-2.86-22.6-.15-4,.3-7.93-.47-11.87a166.77,166.77,0,0,0,6.59,49.47m146,129.72c-.84-.06-.84-.06-7.53-1.35-7.82-1.75-8.29-1.86-12.79-3.13-3.07-.95-7.17-2.2-10.22-3.23l.22.07c.78.27,2.21.77,3.56,1.17l-1.27-.41c22.27,7,43.3,5,57,2.15l-.17.07c-6,1.71-12.32,2.08-18.4,3.5.82,0,1.63-.06,2.45-.11a29.85,29.85,0,0,1-6.51.58,2,2,0,0,1,.62.31c-1.39.54-1.39.54-8.57-.09a21.2,21.2,0,0,0,2.55.41,4.24,4.24,0,0,1-1,.06" style="fill:#fff"/><path d="M319.35,357.55c-8.39,5.59-8.39,5.59-28.25,15.26.74,0,7.26-3.17,7.33-3.2,5.08-2.68,11.78-6.39,16.71-9.33l5.9-3.88-1.69,1.15" style="fill:#fff"/><path d="M322.52,355.38l-.76.53,2.05-1.44c-.42.3-.85.61-1.29.91" style="fill:#fff"/><path d="M355,283.33a21.93,21.93,0,0,1,6.32-3.49,17.9,17.9,0,0,0,1.95-.74,5.24,5.24,0,0,0,1-2,4.91,4.91,0,0,0-.86-2.24c-.34-.17-.67,0-1.31.51a6,6,0,0,1-.51.37l-.12.07c-1.16.7-2,1.94-3.48,2.08q-1.47,2.75-3,5.46" style="fill:#fff"/><path d="M376.83,281.89c-1.34,2.52-1.39,2.62-1.62,3.49-.15.61,0,1.32.4,1.28.82-.08,4.61-7.08,6.11-11.67-1.52,1-2.89,3.17-4.89,6.9" style="fill:#fff"/><path d="M85.31,91c-1.12,2.16-1,3.12-.71,3.78,2.77-2.48,2.78-2.52,3.06-5l-.17.08-.17.07-.15.07-.15.06-.15.06-.14.07-.14.06-.13.06-.13,0-.13.06-.13.06-.13.06-.13,0-.13.06-.13.06-.13.06-.11.19" style="fill:#fff"/><path d="M391.86,173.74c-.49.76-.49.76-.53.78-.39-.4-.44-1.1-1.13-1.2-.46-.07-.79.66-.9.9l-.23-.89c-.07-.28-.14-.55-.22-.83l-.21-.78c-.06-.25-.13-.5-.2-.75s-.13-.48-.19-.71-.13-.47-.2-.7-.13-.45-.19-.68-.13-.44-.19-.67c.44-1.61.28-3.08-.58-5.42l.13-.16.13-.15.12-.15.12-.14.12-.15.12-.14.11-.15.12-.15c1.52,4.24,2.64,7.73,3.87,12.05l-.07.09m-5.37,15.81c.06.44.1,1,.14,1.46-.78-.56-1.33-.95-2.35-1.64,1.21,4.46,3.31,8.66,3.79,13.33.16,1.54.05,1.82-1.76,6.58-3.95-3-3.95-3-4.2-3.86a20.77,20.77,0,0,1-.05-7.33,5.59,5.59,0,0,0,.08-3c-.3-1.12-.7-1.29-1.22-1.51a25.7,25.7,0,0,1-6.81-13,3.17,3.17,0,0,1,.2-1.08c.25-1.44.66-3.91,1.11-7.54l.55-.33.54-.33L377,171l.53-.33.51-.33.5-.33.49-.33.47-.33c.43,2,.67,3.29,1,5.3l-.15.1-.15.11-.16.11-.16.1-.16.11-.15.1-.14.09a.57.57,0,0,1-.13.08c-.28,1.39,1.6,3.38-.2,4.19,0,1.51.31,6.25,3.17,4.15,1.74,4.63,1.74,4.63,2,4.74-.13-1.2-.28-2.4-.43-3.59.89.33,2.11.78,2.61,4.66m-17.13,6.8c.14.89.23,1.78.36,2.67-7.57,3.19-7.57,3.19-11.44-.69-.48-.48-.48-.48-.88-.45-2.31,2.75-2.31,2.75-3.07,3.32-1.1.83-2.56.93-3.67,1.77a7.25,7.25,0,0,1-3.79,1.75c-1.47.38-1.47.38-3.54,2.49a44.27,44.27,0,0,1-.33-14.52c.07-.55.38-.59.6-.63.63-.08,1.18.34,1.8.3.05-1.13.43-2.22.47-3.36,0-.72-.26-1.4-.28-2.12,0-.19.11-3.46.11-3.47.15-.76.33-.78,1.68-.89,1.86,3.21,1.86,3.21,3.81,4.15.23,2.14-1.74,3.43-2.1,5.35,3.35,1.69,4.6.55,8.08-4.69a2.51,2.51,0,0,0-1.67-.55c-1.44-.1-1.69-.29-2.38-1.9.85-1.19,1.28-2.62,2.2-3.77a3.06,3.06,0,0,1,1.59-.93c.39-.24.39-.24,2.33-3.8.12.92.31,1.84.35,2.78-.12.09-3,2.33-1.16,8.63,1.91-.18,1.91-.18,2.35.17,1.48,1.16,2.56,2.78,4.23,3.74.85.49,1.84-.58,2.66.23a14.87,14.87,0,0,1,1.69,4.42M308.09,46.69l-.28-.16h0c3.13,1.86,7.19,4.52,8,5-14.25-8.5-14.25-8.5-17.81-9.37,1,.65,2.44,1.47,3.5,2C298,43,298,43,296.66,42.83c7.36,4.47,12.83,11.57,21,14.94C319,65,326.43,64.51,330.71,68a25.15,25.15,0,0,0-5.45-2.32,11.25,11.25,0,0,0,2.89,3.18c-1.24-.24-1.24-.24-7.3-3.65,2.84,3.44,14.18,11,14.29,11l1.55-.89c1.64.85,3.08,2,4.7,2.91l-3.53-1.14c2.44,3.3,5.39,6.19,7.58,9.69l-2-.1c-4.07-9.59-27.51-22.6-27.74-22.71,5.05,8.56,14.68,11.79,21.4,18.42-7.09-2.85-7.09-2.85-9.3-1.9,1.19,2.19,3.37,3.48,4.9,5.36l-.09.07-.09.07-.08.07-.08.06-.08.06-.08.06-.08.06-.08.06c-.83-.77-1.95-1.79-2.79-2.55.57,1.74,0,3.54.34,5.29l-1.88-.79c-1.44,3.18.4,6.54-.54,9.75l-.4-.51-.39-.49c-.13-.15-.26-.31-.38-.47l-.38-.46-.36-.44-.35-.43-.33-.41-.33-.39-3.52-2.07c-.5-.22-.56-.19-.63-.16l-.2.09-.19.08-.19.08-.19.08-.18.08-.19.08-.19.08c2.71,3.17,5.95,5.85,8.74,9a5.1,5.1,0,0,0-3.31.36c-.2,1.11-.43,2.6-.59,3.72,1.11,1.41,2.8,2.21,3.82,3.7.35.67.28.7.21.73l-.2.07-.19.08-.19.07-.19.07-.19.07-.21.07-.22.08-.28-.44-.29-.44-.28-.43c-.1-.14-.19-.29-.28-.43s-.19-.28-.28-.42-.19-.28-.28-.42l-.28-.42-.28-.41-1.76.69c-.08.54-.2,1.27-.28,1.81a17.91,17.91,0,0,0,3.21,2.68l-2,.36a47.06,47.06,0,0,1-7.86-7.83c5.41-1.12,5.41-1.12,6-1.35-.45-2.36-1-5-2.38-5.87-7.14-4.21-15.68-4.9-22.86-9l-1,1.76a15.86,15.86,0,0,1-3.27-1.88l.73,1.68-2,0a7.25,7.25,0,0,0,1.77,3.19,19.69,19.69,0,0,1-3.29-1c.2.53.45,1.23.64,1.76-.7-.77-1.66-1.79-2.4-2.54-1.38,12-1.38,12-3.61,12.29-1.73,5.59-2.45,7.91-2.21,17.07l-1.59,1.12c-.71,1-.69,1.08-.66,1.16l.08.25.09.25.09.27.09.29.1.3c0,.11.07.22.11.33l.12.36c-4,1.18-8.58,7.62-8.61,7.68.07.3.15.59.22.89s.15.58.22.87l.21.85c.06.28.13.56.2.83s.13.55.2.82.13.53.19.79.12.53.19.79l.18.77,1.75.11c4.8,10,4.8,10,11.24,5.44,3.68-2.58,10.94,6.39,11,10.72L300,158.4c4-7.63,4.27-8.89,2.73-13.48,3-4.18,4.23-5.91-2.19-11.43-1.42-1.26-1.52-1.52-1.61-1.77l-.29-.75c-.09-.24-.19-.49-.28-.74s-.19-.5-.29-.74-.19-.49-.28-.74-.19-.49-.29-.73-.19-.49-.29-.73-.19-.48-.29-.72c2.57-8,2.57-8,2.54-14.21,4.49-1.21,5-.44,6.91,2.45l-1.7-.38c-2.26,27.69,10.61,19.14,10.74,19a8,8,0,0,1,2.55-2.17,23.15,23.15,0,0,1,2.51,2.44,8.66,8.66,0,0,1-3.82,1.12c-2.15,3-2.16,3.53-2.23,5.58l3.3,2.5c0,.58,0,1.35.05,1.92l-1.75.4-3.4-3.14c-.62,4.68,2.72,8.94,1.43,13.69s-4.22,3.14-5.8,2.32c-2.06.78-2.06.78-6.14,4.94-3.1-.71-6.42,2.38-9.39-.56-4-4-.31-11.16-5.88-14.55l-1.2,1.32a6.46,6.46,0,0,1,2.45,2.65,7.21,7.21,0,0,1-3.46,1.74c-.63.39-.58.6-.53.8s.09.41.13.61.09.4.14.6.09.39.13.59.09.39.13.59.09.39.13.58.09.39.13.58l.12.59,3.37,2.55c0,.2.09.4.13.6s.09.4.13.6l.12.59c0,.19.09.38.13.57s.07.36.11.55.08.35.11.53.07.34.11.51.07.32.1.48c-4.72,2.62-5.77,3.19-10.27,5.54l.5,4.6c-.1,1.59-.37,1.61-.63,1.64l-.75.08-.74.08-.71.07-.71.08-.7.07-.7.07-.71.07c-.88,2.77-.88,2.77-6.39,8.17l-3.57-2c-.63-.11-.61.15-.58.41s0,.48.07.72,0,.44.07.66l.06.6c0,.19,0,.38.05.57s0,.35,0,.53l.05.51.05.49c-4.62,1.34-5.1,1.52-7,3.72.21.53.51,1.25.73,1.79,3.93,1.36,6.23,4.85,9.39,7.21-1,1.71-1,1.71-1.73,10.21-.25-.12-22.11-.12-21.29,4.36,1.41,7.76,1.41,7.76-2.08,14.23,0,.17,9.91,15.79,26.28,8,3.16-9.72,10.71-17.36,13.07-27.46,3.11-1.5,6.46-.38,9.66-.85a5.73,5.73,0,0,1,2.76-2.48l.35-.06h.41a9,9,0,0,0,2.59-2.35l1.95-.1c5.14,6.31,13,9.63,17.94,16.1,0,.15,0,.31,0,.47s0,.34,0,.51,0,.37.05.55,0,.39,0,.58,0,.4.05.6,0,.41,0,.62,0,.42,0,.63,0,.43,0,.64c1.87-.67,1.87-.67,4.17-3.94a10.45,10.45,0,0,1-1.66-3.34,22,22,0,0,1,3.81,0l1-1.52c-18.49-12.5-22.34-15.11-17.91-20.91.8.45,19.65,11.12,25.34,28.78.52,1,.72.91.93.87l.6-.14.59-.13.56-.13.55-.13.54-.12.52-.13.52-.12-.81-1.52a9.65,9.65,0,0,1,2.2-2.68,7.24,7.24,0,0,0-2.93-2.11c-.7-.34-.71-.45-.72-.57l0-.34c0-.12,0-.23,0-.34l0-.34c0-.11,0-.22,0-.34l0-.33,0-.33c0-.11,0-.22,0-.34l1.66-.77c1-.6,1-.73,1-.86s0-.26,0-.38,0-.25,0-.37,0-.25,0-.37,0-.25-.05-.37,0-.25,0-.38,0-.25-.05-.38,0-.26,0-.4c6.77-2.18,6.77-2.18,8-3.21-1.82,11.4-2.31,14.47,5.6,18.11l2.57-3.31,1.82-.14,1.4,1.45c1.54-.4,1.54-.4,4.71-2.71,1.94,2.47,3.77,4.8-1,19.89-8.37,3.54-8.37,3.54-8.59,5.23a12.69,12.69,0,0,1-2.91-1.85c-1.07-.69-1.28-.63-1.49-.57L346,244l-.63.17-.64.17-.64.17-.65.17-.64.17-.65.17c-.21-.64-.49-1.5-.71-2.14-3.94-1.11-8.69-2.4-8.69-2.4a32.9,32.9,0,0,0-3.8,4.9,2.17,2.17,0,0,0-.1.72v.83c0,.25,0,.49,0,.74s0,.51,0,.76v.8c0,.27,0,.55,0,.82s0,.57,0,.86,0,.59,0,.89c-3.4,0-3.4,0-5.83-1.38-.77-.89-.93-.86-1.09-.83l-.49.09-.51.1-.52.1-.55.1-.55.1-.57.1-.57.11c-.09-.59-.21-1.37-.29-2-3.89-2.53-9.05-1.21-12.78-4.21-.31-12.29-.31-12.29-2.41-12.69-.19,0-28.34,6.32-28.73,6.76-2.39,2.72-5.82,4-8.6,6.19-6.45-.88-6.45-.88-9.16-2.12l-13.09,16.1c0,12.3-12.1,13.38-12.22,13.38a7.54,7.54,0,0,1,.24,2.2c-1.44,6-6.6,9.84-8.88,15.35-2.69,6.53,1.89,13.18-.3,19.72-.37,1.09-1.46,2.5-4.57,3,3.61,4,3.61,4,3.81,4.36a8.71,8.71,0,0,0-1,3.73,20.75,20.75,0,0,0,3.46,1.18c4.51,10.48,10.4,12,11.05,12.08a16.25,16.25,0,0,0,10,7.72c8.24-7.13,31.76-9.33,32-9.35a7.17,7.17,0,0,1,1.55,3.72c3.5,1.52,7.59.23,11,2.33-7.31,11.32-7.31,11.32-2.44,16.49-10.79,9.54-16,24.9-31,30a180.3,180.3,0,0,0,23-6.4l.2-.07c5.09-1.92,5.09-1.92,22.87-10.64a5.13,5.13,0,0,0,.51-.29l.3-.18.3-.18.28-.18.28-.18.28-.17.26-.17.27-.17c29.35-15.38,68.5-66.8,69.8-73.6-8.27,7.3-8.27,7.3-10,6.78l-.82-1.6c.89-2.34.89-2.34,1.33-7.36l-1.21-1.24c2.56-14.76-7.25-27.68-6.32-42.2,1,2.61,1.29,3.64,2.05,5.91l2-.64,1.44,1c0,.7.1,1.64.16,2.34.57,7.51,3.53,14.43,5.28,21.65,1.6,6.66-4.14,12.5-2.14,19.2,6.7-9.06,14.72-17.13,20.15-27.13l.61-1.25h0c5.15-7.95,5-11.83,4.36-24.69-2.36,7.46-2.36,7.46-3.83,9-.44-.29-1-.69-1.45-1a1,1,0,0,1-.18-.74c0-.18.06-.36.08-.54s0-.36.08-.53,0-.34.07-.51l.06-.48.06-.42c0-.13,0-.25,0-.37s0-.2,0-.3c-3.33-7.1-3.76-8-3.18-11.76l1.73.15.73-1.63c.68,6.47.77,6.63,2.23,9.13,2.13-.4,2.13-.4,4.57-5.07-.53,3.65-.53,3.65-.13,6.06l.47-.46.45-.46.42-.45.4-.45.38-.44.37-.44.34-.43c.11-.14.22-.28.32-.43l.4-1.77c.1.51.23,1.19.32,1.7l.87-1.79c.37,2.81.41,3.11-.86,8.94.55-2.66,1.3-6.2,1.85-8.87,2.63-18.6,2.85-20.11,3-32.67-.76-19.73-.77-20.1-2.53-30.81-3.94-18.81-4-19.17-7.47-29.27-6.73-17.23-7-17.9-12.05-27.3-9.32-15.68-9.68-16.29-16.31-24.92-11.34-13.51-12-14.31-20.38-22.17-10.28-8.84-18.4-15.82-33.84-24.72" style="fill:#fff"/><path d="M121.14,163.89h0m62.31,221h0m-43.63-38.52h0m0,0h0m0,0h0m0,0h0m0,0h0m0,0h0m0,0h0m0,0h0m0,0h0m0,0h0m0,0h0m0,0h0m0,0h0m0,0h0m0,0h0m0,0h0m0,0h0m0,0h0m0,0h0m0,0h0m0,0h0m0,0h0m0,0h0m0,0h0m0,0h0m0,0h0m0,0h0m0,0h0m0,0h0m0,0h0m0,0h0m0,0h0m0,0h0m0,0h0m0,0h0m0,0h0m0,0h0m0,0h0m0,0h0m0,0h0m0,0h0m0,0h0m0,0h0m0,0h0m0,0h0m0,0h0m0,0h0m0,0h0m0,0h0m0,0h0m0,0h0m0,0h0m-.07-.12v0l0,0v.06h0a.43.43,0,0,1-.22.38l-.28-.32s-.08-.05-.07-.1,0,0,.49-.11v0m42.38,16.32a20.32,20.32,0,0,0-2.69-2.2c0-.52,0-1.2-.06-1.72-24.86-11.33-24.86-11.33-31.42-12.32a6.44,6.44,0,0,1-3.16,1.27l.74-1.52c-1.16-1.17-1.16-1.17-5.53-.67,2.32-9.2-17-18.37-17.17-18.4l-1,1.43c-14.7-13-14.7-13-14.6-15.53-2.92-.47-2.92-.47-24.54-11.21l-.3,1.92-1.87.23a20.52,20.52,0,0,0,.25,7c-3.57-4.26-4.13-4.84-6.71-6.88C61.1,306.53,70.68,282,57.53,281.39c-2.25-6.45-1.42-13.81-5.78-19.64l-1.61.38a20.06,20.06,0,0,0,.15,4.38c-.42.26-1,.62-1.38.89-.11-.11-9.84-12.72-6.88-37.24a10.7,10.7,0,0,1,1.64,3.14l.47-1.82c.62-1,.63-.86.64-.69l0,.53,0,.51c0,.16,0,.33,0,.49l0,.47,0,.44,0,.41c0,.12,0,.24,0,.36a20.6,20.6,0,0,0,1.8,3,7.44,7.44,0,0,0,.56-3.32l1.5-.71c10.37,6.64,7.48,19.59,13.47,28.31,1.3-11.13-7.9-22.92,2.15-33.49l2.19.1c6.08-6.74,3-18.52,12.8-23.22a17.1,17.1,0,0,0,3.47.78l1.38-1.57c-.67-2.21-.71-2.77.24-5.61,6.09-2.51,10.75-7.8,17.49-9.09-.92,4.32-8.85,5.28-6.5,10.68l13.35-6.55c-.44-2.24-.45-2.28-3.44-4.27l-1.28-.52h0c-3.74-3.11,1.47-7.94-2.11-11.08-2.54.18-3.31.24-7.11,2.27,1.55-3.58,5.46-4.2,8.06-6.47.08.08,8.22,7.76,16.75.71.83-.45,1-.41,1.28-.36l.68.13.7.14.7.13.72.14.72.14.74.14.74.13c2.18-9.7,2.18-9.7-.14-11.77a12.42,12.42,0,0,1-4.76,1.09,22.71,22.71,0,0,0,5-3.75,8.79,8.79,0,0,1-1.61-3.2l-1.72.14c-.67-1.42-1.25-2.66,1-10.27l-1.14-1.41.13-.35c0-.13.08-.25.13-.37l.14-.39c0-.13.1-.27.14-.4l.15-.41.15-.41c.06-.14.11-.28.16-.42l.15-.41-1.34-1.44c.13-1.9.66-3.75.82-5.66-12.41,7.43-12.41,7.43-11.31,2.24,2.75-12.95,2.75-12.95-2-16.15l-.2-1.65c-4-.25-4-.25-28.41,41.94a5.11,5.11,0,0,0-3.27-.27c-.74-1.44-.74-1.44,4.22-14.91a6.37,6.37,0,0,0-2.35-2.43,99.2,99.2,0,0,0-4.18-12.42c.17-2.94,2.62-5.41,1.73-8.57,5.85-9.55,18.73-9.21,25.2-17.89a5.93,5.93,0,0,1,.33-3.33,5,5,0,0,0,2.66,1.93c.93-.8,2.11-1.95,3-2.85a6.77,6.77,0,0,1,1.64,3c7.94-.59,12.48-12.3,12.49-12.41l-1.54-.84c-.68.29-8.28,5.28-10.7,8.32,0-.59-.09-1.38-.13-2,3.86-3.94,3.86-3.94,4.57-6.37a22.87,22.87,0,0,0-3.45,1.93c2.56-4.3,10.11-5.82,8.14-12.61-6.46,2.38-9.09,9.82-15.75,11.95l.73-1.66c-.24-.44-.55-1-.78-1.47a23.27,23.27,0,0,1-3.37,1.54c-.8-.6-1.83-1.43-2.58-2.09a10.82,10.82,0,0,1,1.3-3.28c-2.62.39-3,.81-4.21,2.5a7.15,7.15,0,0,1,.9-3.59l-1.69-.22c4.06-4.78,4.46-11.63,9.13-16.06-1,.5-2.24,1.2-3.18,1.76.83-.73,1.94-1.68,2.78-2.39-2,.43-2,.43-4.73,2.28,3.11-4.2,10.92-10.13,11-10.18-4.46,3.51-10.33,8.3-14.6,12-12.19,12-13.18,13-20.48,22.12C63.67,107.45,63,108.31,57.69,117.94c-8.23,16.49-8.55,17.13-12.16,27.28C40,163.15,39.82,163.85,38,174.47c-2.49,19.05-2.59,19.79-2.65,30.81.68,17.68.84,21.88,4.53,40.92l2.56,10,.15.52c4.93,16.15,26.62,46.27,26.8,46.44.82.8.87.89.91,1l.13.25.13.24.12.24.12.23.11.22.12.22.11.22c1.54,1.5,3.25,2.8,4.87,4.2.06-.5.15-1.17.21-1.67,10.62,9,12.58,23.88,22.54,33.34l.11.06.1.05.1.06.1.05.09,0,.07,0,.07,0,.05,0c26.73,23.78,52.11,34.55,68.7,39.4,8.33,2.2,8.33,2.2,12.79,3.13l5.14,1-.19,0c-2.24-.69-2.24-.69-7.34-3.1.95-.65.95-.65,5-1.11-4.49-12.13-4.49-12.13-1.39-18.68" style="fill:#fff"/><path d="M226.3,57.17c-1,1.95-1,1.95-7.09,4.9.61.4,1.22.78,1.84,1.16-.94,2.59-3.45,4.33-3.87,7.2,3.31,0,3.31,0,4.08.83,0,0,.45,2.93-.22,3.53-1.61,1.45-1.61,1.45-1.57,3.72,1.09.77,1.65,1.17,3.27,2.26-2.74,4.76-2.74,4.76-4,5.07,0,.92,0,.92-2.5,2.59-.06.31-.14.74-.21,1-3.94-.19-3.94-.19-4.6.75.68,3,4.64,3.08,5.3,6.07.13.57-.37,4.24-3.41,2.38-6.31-3.85-6.31-3.85-6,.31,5.85,1.13,5.85,1.13,6.48,1.73-.76,3.74-6.25,8-7.91,9.18a5.37,5.37,0,0,1-3.59,1.16c-1.69-.09-3-1.43-4.62-1.59-5-.47-3.64,6.26-7,8-1.92,1-1.92,1-11.7,1.64l-.33,0h-.06a2.19,2.19,0,0,0-1.81,1.23c-1.32,2-1.12,4.75-2.85,6.63-3.13,3.4-3.13,3.4-5,7.31-4.43,9.06-6.88,7.65-7,7.58s-6.83-7.71-7-9.56c0-.19-1.33-19.12,3.87-25.76a6.39,6.39,0,0,1,3.33-2c2.6-.79,2.6-.79,4.78-5.9-3.47-.8-3.47-.8-2.95-3.08l2.76,0,.18-.4.18-.4c.07-.14.13-.28.19-.41s.14-.29.2-.44l.21-.45L168,93l.24-.51c.08-.18.17-.37.26-.55l-3.8,1.89c6.24-17.67,6.24-17.67,6.15-19,0-.47,0-.47-7.66-2.1l-.11,0-.1,0-.1,0-.1,0-.1,0-.1,0-.1,0-.1,0c-.38-.51-.51-.68-.27-3.36,1.75-1.33,5.13.17,5.83-2.8-1.16-1-2.56.37-3.73-.39,0-.81,0-.81,7.2-4.14,1.9-.88,4-1.09,5.93-1.93.31-.14.51-.61.65-.91l10.95-6.19,3.33-.68c.19.4.19.4.35,2.07A11.45,11.45,0,0,0,194,52.7c.26-.25.31-.25.36-.24l.14,0,.15,0,.14,0,.16,0,.16,0,.16,0,.18,0c-.08.11-.17.22-.25.34s-.16.23-.25.34l-.25.35-.25.36-.26.37-.27.37-.26.39-.28.39.2,0,.18,0,.18,0,.18,0,.17,0,.18,0,.18,0,.2,0,.24-.37.24-.37.24-.37.24-.37.25-.36c.08-.13.17-.25.25-.37l.25-.38.26-.37.34,0,.34,0,.32,0,.32,0,.31,0,.3,0,.29,0,.28,0c-.15.64-.28,1.28-.41,1.92,1.17-1.11,1-3.08,2.53-4,.26-.15.26-.15,2.36,1.15,5.44-4.24,5.44-4.24,7.92-4.47l.53.09c.24.66.43,1.34.64,2-.83,1-2.18,1-3.19,1.69l.54.92c1.57-.36,2.64-1.73,4.23-2a3.44,3.44,0,0,1,2.65.66c.12.15.12.21.11.27v1.24c-7.88,2.48-7.88,2.48-8.62,3.22,1.89-.38,3.7-1.08,5.6-1.44,0,.12,0,.25,0,.37l0,.34,0,.33,0,.31,0,.3,0,.3,0,.3,0,.31c1.63.71,2-1.77,3.43-1.58.17.61.17.61-1.49,4.33a1.45,1.45,0,0,0,1.12,0c1.38-.74,1.86-2.32,3-3.28s2.72,0,3.79-1A3.25,3.25,0,0,1,226.38,57l-.08.15" style="fill:#fff"/><path d="M142.69,109.91c-1.51,2.22-4,3.6-5.32,6l-.29-.06-.29-.07-.29-.06-.29-.06-.3-.07-.3-.06-.31-.07-.32-.07c.17-4.08.09-5.4-.83-7.57-5.24,3.51-3.39,5.36-2.36,6,3.72,2.26-4.6,11-4.69,11.06-1.31-5.11-1.31-5.11-1.34-5.14a2.45,2.45,0,0,0-1.14.28c-.16.41-.37.92,0,2.88s-.09,3-2.23,4.45c-2.1-2.93-3.4-5.77-3.87-11.6-.1-1.32-.35-1.39-1.46-1.15-3.69.79-4.57,1-5-.47s2.53-6,4.29-5.8c1.55.15,3.14,0,4.66.45,11-6,9.65-10.82,8.78-11.11s-1.56-.44-2.34-.68c1.59-2.47,4.53-7.06,1.76-6.65-1.12.17-2,1.31-3.23.93-1.59-.46.73-3.22-.91-3.39s-3.15,1-4.73,0a2.83,2.83,0,0,1-.25-.24c.35-.66.35-.66,3.6-3.45C121.56,82.59,126.39,78,134.45,74c.31-.08.38,0,.46,0l.23.09.23.1.24.1.25.1.27.11.28.11.29.12c-5.87,3.75-5.87,3.75-6.65,5.52,3.45-.42,5.09-3.53,7.71-5.18l.37.13.37.14.37.14.38.13.38.14.39.14.4.14.41.14c-1.72,2.68-4.81,3.92-6.74,6.39,1.91-.39,2.95-2.34,4.87-2.71.12,0,3.35.19,4.07,1-.15,2.13-2.51,3.34-2.33,5.61.22,2.82,4,4,3.34,7.23a8.93,8.93,0,0,1-4.65,5.22c-.76,3-1.21,4.85.14,5.48,1.85.86,5.29,2.45,3.16,5.58" style="fill:#fff"/><path d="M187.91,52.15c-1.72,1.62-5.38,1-5.76.76-6.23,7.43-10.92,7.5-10.93,6.45,0-1.51-1.74-.49-2.88.18-6.51,3.83-8,4.44-10.48,4.34-.88.84-1.14,2.12-2.08,2.91A29.07,29.07,0,0,1,151,69.68c-1.15.49-1.75-.72-2.69-.86a9.29,9.29,0,0,0-2.2.13c-.44-1-2-1.58-1.4-3a5,5,0,0,1,3.91-3.22c-.28.46-.55.92-.82,1.39,3.41-1.48,7-2.58,10.24-4.44,1.88-1.08,3.07-3,4.81-4.2-.18,1.79-.06,1.79,1.06,1.85.52-2.58,3.53-1.23,5.23-2a12.92,12.92,0,0,0,3.07-1.83c-2.38.35-4.6,1.5-7.07,1.35-.84,0,.19-1.17.25-1.76h0l-.22-.21c.45-1.3,2.33-3.65,9.87-4.82l.14.23a10.08,10.08,0,0,1-1.55,1.82c2.13-.3,3.69-2.14,5.92-2.16l.15.23c0,.16-.11.37-.16.52,1,.35,1.63-.61,2.5-.72l.1.26a16.21,16.21,0,0,0-1.27,1.6c.37.14.37.14,4.32-1.81,1.68,1.17,1.68,1.17,4.45,1.64a7.38,7.38,0,0,1-1.7,2.53" style="fill:#fff"/><path d="M110.24,79.66q-.63-.24-1.26-.51c-1.25,1.17-2,2.77-3.24,3.94a2.81,2.81,0,0,1-2,.88c-1.76,0-4.86-5-4.89-5,1.4-1.87,2.19-4.16,3.89-5.84,0,0,1.34-1.14,1.53,0,0,.25.09.6.76.36,1.22-.43,1.22-.65,1.23-1.06s-.56-.71-.54-1.2a2.43,2.43,0,0,1,.63-1.21c.58-.71,2.76-2.15,2.92-1.36.12.63.12.63,2-.56,1.21-.78,1.39-.9,4.91-1.64l1.27-.27q-1.62,1.29-3.21,2.61c.94,0,1.57-.81,2.47-.88,0,.17,0,.18-.76,1a29.62,29.62,0,0,0-2.4,3c2.08-1.22,3.71-3.19,6.14-3.85-1.37,2.67-1.37,2.67-2.53,3.26-2,1-5.9,5-5.45,5.83h0c0,.07,0,.07-1.21,2.68l-.27-.1" style="fill:#fff"/><path d="M324.17,354.21l-.36.26-2.05,1.44-.72.49-5.9,3.88c-4.95,2.91-11.62,6.68-16.71,9.33a136,136,0,0,0,16.23-9.31l1.12-.72c2.09-1.36,4.23-2.64,6.28-4.06,2.75-1.91,5.24-4.19,8.06-6l.21-.13c-.25.32-3.45,2.88-6.16,4.83" style="fill:#fff"/><path d="M271.41,172.16l.09.57c0,.2.05.4.08.59l.09.61c0,.2.05.41.08.62l.09.64.09.66c0,.23.06.46.1.69l-1.48.65c-.06.91,1,2.15-.16,2.73s-2.66.67-3.87,1.35a4.26,4.26,0,0,0-1.78,1.79l-.52,0c-2-1.18-3.13-.75-4.92.66s-1.89,1.49-6.32,2.58c3.07-6.64,3.07-6.64,6.33-8.12l-4.18-.2c-.27-1.86,1.65-3.93-.39-5.63,1.44-1.59,3.69-2.27,4.8-4.24-.94-1.4-2.69-4-6.51-2.9-.68-2.4-.72-2.44-3.76-4.58,2.71-4,2.24-5.18-2.53-6.15-.21-2.32-.21-2.32,1-4.22l1.26,4.13a29.72,29.72,0,0,0,1.84-2.35c.41-.67.38-1.52.91-2.13a2.55,2.55,0,0,1,1.89-.86,7.28,7.28,0,0,1,1.13,0c.21,1,.42,2,.62,3l.58,0,.57,0,.57,0,.57,0,.56,0,.55,0,.54,0,.52,0c.66,1.25.89,1.66.55,2.59-.44,1.23-1.84,1.57-2.44,2.66,2.95,1.26,2.95,1.26,3.72,2.17,1.06,1.25,1,3,1.82,4.34s2.13,2.23,2.87,3.61c.59,1.12.32,2.56,1.28,3.55.61.63,1.32.69,3.69.92,0,.19.06.38.08.57" style="fill:#fff"/><path d="M303.32,57.76c1.31,1,1.28,1.25,1.27,1.41-.08.84.1,1.64,1.26,3.65,0,.08,6.11,9.43,6.41,9.69,1.83,1.53,3.33,3.43,5.42,4.66,1.08.64,2.32.94,3.38,1.62a12.18,12.18,0,0,1,2.3,2c-.26.29-.26.29-2.36,1.6l-.79-.5c-1-.6-1.69-1.51-2.65-2.11s-1.86-.71-2.7-1.24l-.55-.38a50.52,50.52,0,0,1-4.47-4.55c.15-.46.15-.46-2.84-3.21.17-.2.34-.42.51-.63l-.45-.36-.45-.37-.45-.36-.46-.37-.47-.37c-.15-.13-.31-.25-.47-.37l-.48-.38c-.16-.13-.32-.26-.49-.38s-.06-.32-.07-.48c.74-.37.42-.73-.62-1.93-.59-.67-.59-.67-.13-1.31-.21-.91-1.31-1.22-1.45-2.17-.11-.75.66-.91.94-1.4-.8-.8-1.34-1.32-2.29-2.21.1,0,.1,0,.49-.5.76-.33,2.64.91,2.66.92" style="fill:#fff"/><path d="M116.11,65.32a8.42,8.42,0,0,1-3,1.16c-.9.23-1.84,0-2.75.18-1.4.34-2.56,1.3-4,1.57-.62.12-.49-.33-.47-.38a15.48,15.48,0,0,1,4.29-4.34c.86-.56,10.81-5.69,11.41-6-.46.43-.91.86-1.35,1.3l2.22-.84c-.66.89-1.65,1.44-2.33,2.31a1,1,0,0,0-.31.75c0,.31-.21.63-.83,1.43-.31.4-.62.8-1,1.18a9.06,9.06,0,0,1-2,1.66" style="fill:#fff"/><path d="M268.46,65.58c.61,1.08,1.11,2,1.3,2.4-1.95-.37-2.73-.18-3.21.79-2.88-3.2-2.88-3.2-4.14-3.62.12,1,.18,1.76.24,2.85.11.16.22.31.34.46l.34.46.35.47.34.47c.12.15.23.31.35.47l.34.47.34.47.33.47c-.95,1.91-7.22-4.09-7.28-4.17-.55-.81-.39-1.86-.91-2.68-.31-.49-.89-.55-1.33-.83,0,1.32.16,4.08-2.5,1.6-5.3-4.95-2.43-5.41-2.39-5.41.25,0,.25,0,2,2,0-.62,0-1,0-1.67l3.25,1.72c-.72-.8-1.74-1.34-2.15-2.41a1.42,1.42,0,0,1,.83-1.08,1.1,1.1,0,0,1,.6.14c2.4,1.2,4.13,3.44,6.73,4.32.95.32,2,.31,2.92.66,3,1.12,3.06,1.21,3.31,1.67" style="fill:#fff"/><path d="M229.29,124.42c-2.32,2.48-3.17,3.34-3.17,3.34a14.26,14.26,0,0,1-1.93-.06,2.12,2.12,0,0,0-2.39,1.83c-.15.8-.15.8-.41.86-1.48.38-1.74.18-2.85-.69-3.15-2.48-3.32-2.42-7.57-1,.61-2,.61-2,.75-2.15a3.54,3.54,0,0,0,1.31-2.87c0-1-1-1.35-2.14-.76-1.3.67-1.3.67-1.66.74l-1.45-1.7c2.08-4.48,2.08-4.48,2.37-4.84s.25-.32,2.45-1.22c.61,1,1.23,2,1.86,3,.32-.09.69-.05,1-.29.51-.45.62-1.19,1.19-1.59a2,2,0,0,1,2.24.28,4.31,4.31,0,0,0,2.51.72,2.09,2.09,0,0,0,1-.29,7,7,0,0,1,3.85-.86,13.65,13.65,0,0,0,2.71-.15c.29.9.29.9.7,7.29l-.36.38" style="fill:#fff"/><path d="M144.48,74.3,142.83,76a16.39,16.39,0,0,1-.46-1.7c-.08-.57.29-1.15,0-1.71-.21-.38-1-.24-1.49-.15-3.24.6-5,.44-4.3-2.14,1.11-4.16,6.21-9.68,9.94-8.14.39.27.3.5-1.39,2-4.25,3.85-2.53,4.48-.87,5.1,3.14,1.15,3.14,1.15,3.17,1.43a1.24,1.24,0,0,1,0,.27c-.07.39-1,1.36-2.9,3.3" style="fill:#fff"/><path d="M160,55.9a37.28,37.28,0,0,1-6.94,4.22L152.8,60l-.26-.1-.25-.1L152,59.7l-.25-.11-.26-.11-.25-.11-.25-.11c1.19-1.64,1.55-2.13,4.31-3.65-.32-.31-.86-.83,1.29-2.1a95.38,95.38,0,0,1,9.07-4l.09,0,.06.06c0,.11-3,4.34-3.06,4.37A15.45,15.45,0,0,1,160,55.9" style="fill:#fff"/><path d="M127.72,65c-.3.2-.71.44-1,.62.65-1.87-.54-2.46-3.54-1.77-1.59.37-2.52-.13-.79-2.08.22-.24,4.2-2.82,5.27-3l0,.05c-.2.39-.85.48-.73,1.08.19.06.31.1,1.34-.35,1.59-.7,2.44-1,2.37-.37l.43-.27.38-.24.34-.21.32-.2.29-.18.28-.18.29-.17.29-.18,2.13-.24c-3.51,2.79-3.51,2.79-3.46,3,.09.44-.77,2.44-4.25,4.67" style="fill:#fff"/><path d="M128.58,191.69c-.94,2.94-3.53,3.15-4.29,1.49a26.49,26.49,0,0,1-.85-2.61c-.39.72-.74,1.45-1.12,2.16-.07.12-.13.31-.26.37a2.18,2.18,0,0,1-1.83-1.11c-.18-.46-.18-.46-.42-3.59-2.68.07-4.11.1-6.64.11-.43-3.73,2.28-7.22,2.39-7.36C116.45,180,118,180,119,179s1.52-2.27,2.64-3.08a2.2,2.2,0,0,1,1.8-.48,3.76,3.76,0,0,1,1.19.49c0,.2-.09.39-.13.58s-.09.4-.13.59-.09.41-.13.62-.1.42-.14.63-.1.43-.14.65-.1.45-.14.67l-.15.68-.15.7.61.12.58.1.56.11.54.09.52.1.5.09.5.09.49.08c.87,4.85.87,4.85-.7,6.38a2.38,2.38,0,0,0,.55,1.58c.75.41,1.28.71.9,1.89" style="fill:#fff"/><path d="M251.78,167.62c0,1.29-.81,2.43-.81,3.74a49.49,49.49,0,0,0,.77,5.94c-4.92.28-4.92.28-5.3.39a3.09,3.09,0,0,0-.43.14c-.9.4-1.46,1.27-2.35,1.67a21.8,21.8,0,0,1-3.17.85c-1.22-3.21-.94-4.79,1.13-6.25.12-1.12-.16-1.39-1.35-1.87-.51-.21-1.58-.64-1-2.07.83-1.9.83-1.9,5.05-2.34,0-1,0-1.92.08-2.89,1.63-.42,3.25-.85,4.88-1.29,1,.76,2.53,1.9,2.46,4" style="fill:#fff"/><path d="M120.29,76.57A33.77,33.77,0,0,1,116,78.81a1.76,1.76,0,0,1-.14-1.67c.3-.88,1.09-1.45,1.5-2.27.21-.41.16-.9.38-1.31a1.4,1.4,0,0,1,.09-.17,19,19,0,0,1,3.51-3c-.45.93-.74,1.57-1.22,2.71,2.51-2,2.51-2,2.84-2.25s.62-1,1.15-1.3c1.42-.82,3.08-1.11,3.6-.82.1.14.35.52-.71,1.64s-2.63,1.67-3.77,2.75c-.86.8-1.24,2-2.1,2.76a10,10,0,0,1-.79.67" style="fill:#fff"/><path d="M74.14,278.63c.25,2.25.25,2.25-6.38-.76,0-.84.11-1.69.19-2.53,0-.11.08-.26,0-.36a55.49,55.49,0,0,0-4.47-6c-2.6-3-5-4.38-7-4.14-.43-3.44.2-3.67,1.7-2.87a36.06,36.06,0,0,1,8.26,7.7c1.62,2.21,4,3.58,5.91,5.53a6.89,6.89,0,0,1,1.81,3.4" style="fill:#fff"/><path d="M263.07,57.4a3.72,3.72,0,0,1,1.05,3.36.68.68,0,0,1-.47.33l-2.9.55c-.57-.1-.93-.55-1.4-.83l-.9-.53-.28-.31-.29-.33c-.1-.12-.21-.23-.31-.34l-.33-.37-.35-.38-.37-.41-.41-.44-.43-.47a15.45,15.45,0,0,1,3.33,0,3.51,3.51,0,0,0,1.46.14c.68-.14.51-.73.43-1,0-.08,0-.15.12-.2s.35,0,.53-.11a15.16,15.16,0,0,1,1.52,1.37" style="fill:#fff"/><path d="M136.46,53.43l-.7.39-.7.38-.69.39-.7.4-.71.41-.73.42-.75.44c-.24-.21-.48-.44-.71-.67-2,.81-3.18,1.31-4.93,2-1.46-.86,3.46-3.83,5.23-4.14a1,1,0,0,1,.49,0c.18.09.48.23,2,0,1.08-.17,2.09-.63,3.18-.71.19,0,.27.15.39.24l-.71.39" style="fill:#fff"/><path d="M135.6,64.4c-4.34,3.17-5.07,2.66-6.39,1.73a20.34,20.34,0,0,1,3.62-4c1.55-1.26,3.47-2.66,3.84-2.12-.07.23-.07.23-1.38,1.78,2.54-.65,3-.77,3.4-.57.17.22.45.58-3.09,3.17" style="fill:#fff"/><path d="M132,73.27a10.83,10.83,0,0,1-4,2.42l-.35.14c-1,.39-2.14.41-3.17.75s-1.79,1.24-2.86,1.56c-.25.07-.67.12-.65-.38a2.66,2.66,0,0,1,.64-1.33,1,1,0,0,1,.33-.14A9.19,9.19,0,0,0,124,74.76a15.45,15.45,0,0,1,2.42-2c1.74-1.07,4.08-2.24,5.4-1.71.58.34.56.57.45,2l-.27.21" style="fill:#fff"/><path d="M87.07,287.82c.07.34.13.67.21,1-2.79-.88-5.86-1.93-6.14-2.05A9.07,9.07,0,0,0,80,286.3c-.68-.16-1.2.66-1.91.31-1.72-.84-2.88-2.39-4.4-3.5.72-1.3.72-1.3.79-1.35s.48,0,1.42,1c.68.74,1,.66,1.27.22s.4-.68-.19-1.51c-.85-1.18-1.37-2.89,2.07-1.81.75.29.89.34,2.85,2.32,5.05,5.1,5.14,5.54,5.19,5.8" style="fill:#fff"/><path d="M144.11,58.09c-2.64,1.54-2.72.17-2.71.15.31-.94,1.61-.88,1.89-1.85a5,5,0,0,1,.42-1l.12-.14a9.78,9.78,0,0,1,.84-.78c1.8-1.42,3.55-2.07,4-1.92.09.1.16.24.29.3l0,0h0c1.42,1.26-4.83,5.23-4.89,5.27" style="fill:#fff"/><path d="M283.24,39.59c3.94,1.35,5.06,2.24,5.31,2.74h0v.05c-.37.3-4.3-1.17-4.34-1.19s-5.28-2.57-5.32-2.62,1-.14,4.35,1" style="fill:#fff"/><path d="M105.42,112.31c-1.45-1.14-2.63-.46-4.43,1.3-1.64,1.61-2.22.66-2.25,0-.1-3,3.81-7.91,6.44-8.09a2,2,0,0,1,.65.09,4,4,0,0,1,1.9,2.83,4.7,4.7,0,0,1-1,2.13,14.42,14.42,0,0,0-1.18,1.87l-.1-.08" style="fill:#fff"/><path d="M291.51,41.72c2.37,1.13,2.37,1.13,2.48,1.43-.08.12-.29.14-1.38,0a10.8,10.8,0,0,1-1.88-.28c-.08,0-5-2.59-5-2.61v-.05c.53-.21,5.19,1.29,5.74,1.56" style="fill:#fff"/><path d="M292.91,41.2c1.6.73,3.41,1.57,3.35,2.09a4.86,4.86,0,0,1-1.64-.34c-2.41-1-4.7-2.19-7.09-3.19a7.21,7.21,0,0,0,2.22.55c0-.06,0-.06-.2-.27a24.65,24.65,0,0,1,3.36,1.16" style="fill:#fff"/><path d="M148.69,58.4A9.9,9.9,0,0,1,144,60.21a16.65,16.65,0,0,1,4.41-3.72c1.88-1.11,2.27-1.34,3.3-.83l.33.19c-1.12.84-2.17,1.78-3.35,2.55" style="fill:#fff"/><path d="M109.79,85.64a5.39,5.39,0,0,1-1.57,1.11l-.22.06c-.38.08-.78,0-1.17,0s-.64.33-1,.37c-.07,0-.23,0-.24-.16,0-.64,1.15-2,.27-1.86,4.19-3.17,4.83-3.66,5.38-3.4.08.07.24.21,0,.79-1,2.58-1,2.58-1.47,3" style="fill:#fff"/><path d="M140.39,54.5A14.84,14.84,0,0,1,137.58,56c-.36.09-2.57.35-2.59.36a4.46,4.46,0,0,1-1.08-.12c5-2.6,6-3.15,6.72-2.45.11.13.19.29.31.42l-.55.32" style="fill:#fff"/><path d="M144.52,52.47c-1.43.53-1.43.53-1.56.53a11.12,11.12,0,0,1-2.47-.5c.55-.28,1.29-.67,2.16-1,1.16-.47,2.37-.81,3.54-1.28-.06.17,0,.25.18.41s.21.26,0,.55a6.72,6.72,0,0,1-1.85,1.31" style="fill:#fff"/><path d="M135.77,67.76a8,8,0,0,1-2.42,1.56c-.52.16-1.33,0-1.28-.41,0,0,.33-1.3,2.36-2.26a8.31,8.31,0,0,1,1.76-.66c.52-.07,1,.22,1.48.25-.64.5-1.27,1-1.9,1.52" style="fill:#fff"/><path d="M155.58,53.09c-1,.54-3,1.47-2.83.92s.65-.65.62-1.17c1.17-.56,2.3-1.19,3.52-1.65a1.73,1.73,0,0,1,.56.11c.6.39-1.84,1.78-1.87,1.79" style="fill:#fff"/><path d="M163.66,101.19a3.39,3.39,0,0,1-2,1.32,4.3,4.3,0,0,1-1.55-.14,5.41,5.41,0,0,0-2.22-.19l3-3.6a4.92,4.92,0,0,0,1.79.26,1.32,1.32,0,0,1,1.09.75,1.44,1.44,0,0,1-.08,1.6" style="fill:#fff"/><path d="M300.63,221.3a3.82,3.82,0,0,1-2.06,3.72c-2-1.25-2-1.25-2.07-1.39a4.43,4.43,0,0,1-.66-2.34,4,4,0,0,1,2.48-3.46l.2,0a2.85,2.85,0,0,1,1.86.48c0,1,.21,2,.25,3" style="fill:#fff"/><path d="M239,98.53c.05.72-.56,1.61-1.74,3.26l-2-1.61c.32-.91.39-1.89.76-2.79a2.72,2.72,0,0,1,.91-1.28c1.36,1.19,2,1.73,2,2.42" style="fill:#fff"/><path d="M123.83,102.08c-.67.87-2,1.43-4.06,2.19,1.81-3.09,2.49-4.25,4.74-5.29a5.19,5.19,0,0,1-.68,3.1" style="fill:#fff"/><path d="M72.06,283.18c-.29.95-1,.71-2.17,0-.73-.45-.73-.45-2.57-3a3.51,3.51,0,0,1,2.12.15,9,9,0,0,1,2.7,2.41,2.33,2.33,0,0,1-.08.38" style="fill:#fff"/><path d="M327.77,81.87a1,1,0,0,0-.69.48c-.19.24-.46.58-1.32.23s-1-.53-1.11-.71c-.44-.58-.81-1.17-.53-1.49a.76.76,0,0,1,.09-.09l.75-.38a.29.29,0,0,1,.2,0,18.59,18.59,0,0,1,2.67,1.94h-.06" style="fill:#fff"/><path d="M317,225.78l0,.24,0,.25c0,.09,0,.17,0,.26l0,.26,0,.27v.27l0,.28c0,.1,0,.2,0,.3l0,.3,0,.31c0,.1,0,.21,0,.31s0,.23,0,.34,0,.22,0,.34,0,.23,0,.35,0,.25,0,.37a15.57,15.57,0,0,0-2.74-.94,4.24,4.24,0,0,0-.81,0c-.5,0-1,.17-1.5.22v-.45c0-.07,0-.14,0-.21v-1l0-.19v-.92l0-.18v-.19l.17,0,.17,0,.17,0,.16,0,.17,0,.16,0,.16,0,.17,0,.16,0,.16,0,.16,0,.16,0,.15,0,.16,0,.16,0,.15,0,.16,0,.15,0,.15,0,.15,0,.16,0,.15,0,.14,0,.15,0,.15,0,.15,0,.14,0,.15,0,.14,0,.14,0,.15,0,.14,0v.25" style="fill:#fff"/><path d="M322.45,88.29A5.32,5.32,0,0,1,323.62,90c.14.64-.61.8-.61.8-.27,0-.27,0-3.05-3l.1,0,.1,0,.1,0,.09,0,.09,0,.08,0,.09,0,.08,0,.08,0,.08,0,.08,0,.08,0,.08,0,.07,0,.08,0,.07,0c.39.39.77.79,1.14,1.19" style="fill:#fff"/><path d="M121.91,69.24c-.79,0-1.28-.06-1.37-.36s.79-1.43.8-1.44,1.44-.94,2-.62a.45.45,0,0,1,.05.55c-.37.68-.91,1.24-1.34,1.88h-.12" style="fill:#fff"/><path d="M126.61,94.53l-3.52,2.87c.81-2.21,1.44-3.73,1.44-3.73.13-.17.35-.21.53-.32l.59-.35,1.57-.94c-.14.77-.21,1.54-.4,2.3,0,.08-.14.12-.21.17" style="fill:#fff"/><path d="M283.69,99.43c.55,1.09.84,2.3,1.44,3.38a6,6,0,0,0-1.85-1.69c-1.81-1.29-2.6-2.11-2.07-4.09a4.81,4.81,0,0,1,2.48,2.4" style="fill:#fff"/><path d="M359.73,224.55a5.06,5.06,0,0,1-1.1,2.91c-.91.92-2.25.9-3.28,1.55.91-2.23,1.4-2.71,4.44-5.06,0,.18,0,.42-.06.6" style="fill:#fff"/><path d="M128,57.46l-.15.09-.16.09-.15.1-.15.09-.15.09-.15.09-.15.09-.14.09-.15.09-.15.1-.15.09-.15.09-.15.09-.15.1-.15.09-.15.1-.16.09-.15.1-.15.09-.16.1-.16.1-.15.1-.16.1-.17.11-.16.1-.17.11-.16.1-.17.11-.17.11-.18.11-.17.12c.7-.89,1.27-1.55,1.27-1.55s3.19-1.86,3.72-1.57l-.15.09" style="fill:#fff"/><path d="M342.12,223.3c-.66,4.47-.85,4.42-5.73,3.1a16.78,16.78,0,0,0,3.16-1.23,18.31,18.31,0,0,0,2.65-2.39c0,.16-.05.37-.08.52" style="fill:#fff"/><path d="M299.51,210.78l0,.25,0,.25,0,.27,0,.27,0,.28,0,.29,0,.29,0,.3,0,.31c0,.1,0,.2,0,.3l0,.32,0,.31,0,.31,0,.32,0,.31c-1.19.75-1.68.45-2.53-.2a3.48,3.48,0,0,0-1.93-.88c1.11-1,2.56-2.23,4-3.53l0,.23" style="fill:#fff"/><path d="M91.46,288.48l0,.15,0,.15,0,.15,0,.15,0,.15,0,.14,0,.15,0,.15,0,.15,0,.16,0,.15,0,.15,0,.16,0,.16,0,.17c-.2.31-.26.29-.68.18a3.2,3.2,0,0,1-1.36-.73,6.49,6.49,0,0,1-1.69-2.84l.12,0,.11,0,.11,0,.12,0,.1,0,.11,0,.11,0,.1,0,.1,0,.11,0,.09,0,.1,0,.1,0,.1,0,.09,0,.1,0,.09,0,.1,0,.09,0,.09,0,.09,0,.1,0,.09,0,.09,0,.09,0,.09,0,.1,0,.09,0,.09,0,.09,0,.1,0,.09,0,0,.15" style="fill:#fff"/><path d="M260.62,142a2.87,2.87,0,0,1-1.14,2.43c-2.08-2.14-2.08-2.14.32-4.27a4.22,4.22,0,0,1,.82,1.84" style="fill:#fff"/><path d="M280.62,100.82s.25,1.34-.25,1.69-.95.22-1.95-.14c.54-1.05,1-1.93,1.3-2.62.89,1,.89,1,.9,1.07" style="fill:#fff"/><path d="M285.82,98.15a2.37,2.37,0,0,1,.07.54c0,.25,0,.5.05.74-.34-.28-.71-.53-1.05-.81a2.3,2.3,0,0,1-.41-.41.43.43,0,0,1-.07-.25c0-.23.06-.45.08-.68,1.28.71,1.28.71,1.33.87" style="fill:#fff"/><path d="M313.74,62.79l1.5,1.46c-1.64-1.11-2.78-1.86-3.68-2.44a10.73,10.73,0,0,1,2.18,1" style="fill:#fff"/><path d="M258.44,146.94c-.08.19-.13.4-.21.59s-.09.16-.1.16a2.72,2.72,0,0,1-.44,0c-.31,0-.61-.13-.92-.19a4.18,4.18,0,0,1,.19-.6c.05-.09.08-.09.2-.1a9,9,0,0,1,1.3.09.31.31,0,0,0,0,.08" style="fill:#fff"/></g><g style="opacity:0.8;mix-blend-mode:overlay"><circle cx="249.15" cy="19.95" r="2.75" style="fill:#fff"/><circle cx="133.99" cy="34.88" r="1.69" style="fill:#fff"/><path d="M337.73,58a1.58,1.58,0,1,1-1.58-1.58A1.59,1.59,0,0,1,337.73,58Z" style="fill:#fff"/><path d="M271.34,115.57a1.59,1.59,0,1,1-1.58-1.58A1.59,1.59,0,0,1,271.34,115.57Z" style="fill:#fff"/><path d="M97.82,255.53A1.59,1.59,0,1,1,96.23,254,1.59,1.59,0,0,1,97.82,255.53Z" style="fill:#fff"/><path d="M33.23,296.38a1.58,1.58,0,1,1-1.58-1.59A1.58,1.58,0,0,1,33.23,296.38Z" style="fill:#fff"/><path d="M96.23,138.05a2.65,2.65,0,1,1-2.64-2.64A2.64,2.64,0,0,1,96.23,138.05Z" style="fill:#fff"/><circle cx="24.15" cy="180.8" r="1.62" style="fill:#fff"/><path d="M85.77,76.16a1.93,1.93,0,1,1-1.93-1.93A1.92,1.92,0,0,1,85.77,76.16Z" style="fill:#fff"/><path d="M395.09,127.26a1.58,1.58,0,1,1-1.58-1.59A1.58,1.58,0,0,1,395.09,127.26Z" style="fill:#fff"/><path d="M405.73,194.88a1.58,1.58,0,1,1-1.58-1.58A1.59,1.59,0,0,1,405.73,194.88Z" style="fill:#fff"/><circle cx="342.55" cy="190.41" r="1.58" style="fill:#fff"/><path d="M190.61,169.24a3,3,0,1,1-3-3A3,3,0,0,1,190.61,169.24Z" style="fill:#fff"/><path d="M184.62,284.65a3,3,0,1,1-3-3A3,3,0,0,1,184.62,284.65Z" style="fill:#fff"/><path d="M133,391.45a1.59,1.59,0,1,1-1.58-1.59A1.58,1.58,0,0,1,133,391.45Z" style="fill:#fff"/><circle cx="269.76" cy="226.99" r="2.5" style="fill:#fff"/><path d="M404.15,243.77a1.59,1.59,0,1,1-1.58-1.58A1.58,1.58,0,0,1,404.15,243.77Z" style="fill:#fff"/><path d="M284.67,307.25a1.59,1.59,0,1,1-1.58-1.58A1.59,1.59,0,0,1,284.67,307.25Z" style="fill:#fff"/><path d="M228,404a1.59,1.59,0,1,1-1.58-1.58A1.58,1.58,0,0,1,228,404Z" style="fill:#fff"/><circle cx="387.09" cy="304.7" r="2.56" style="fill:#fff"/><circle cx="323.81" cy="386.04" r="1.7" style="fill:#fff"/><path d="M83.84,76.16C85.39,75,134,34.88,134,34.88L249.15,20l87,38,57.36,69.28,10.64,67.62-1.58,48.89L387.09,304.7,323.81,386,226.38,404l-95-12.5L31.65,296.62,24.15,181Z" style="fill:none;stroke:#fff;stroke-linecap:round;stroke-linejoin:round;stroke-width:0.25px"/><polygon points="93.59 138.06 83.84 76.16 133.99 34.88 93.59 138.06" style="fill:none;stroke:#fff;stroke-linecap:round;stroke-linejoin:round;stroke-width:0.25px"/><polygon points="187.64 169.24 93.59 138.06 133.99 34.88 187.64 169.24" style="fill:none;stroke:#fff;stroke-linecap:round;stroke-linejoin:round;stroke-width:0.25px"/><polygon points="249.15 19.95 187.64 169.24 269.76 115.57 249.15 19.95" style="fill:none;stroke:#fff;stroke-linecap:round;stroke-linejoin:round;stroke-width:0.25px"/><polygon points="342.55 190.41 269.76 115.57 336.15 57.98 342.55 190.41" style="fill:none;stroke:#fff;stroke-linecap:round;stroke-linejoin:round;stroke-width:0.25px"/><polygon points="393.51 127.26 342.55 190.41 336.15 57.98 393.51 127.26" style="fill:none;stroke:#fff;stroke-linecap:round;stroke-linejoin:round;stroke-width:0.25px"/><polygon points="187.64 169.24 342.55 190.41 269.76 115.57 187.64 169.24" style="fill:none;stroke:#fff;stroke-linecap:round;stroke-linejoin:round;stroke-width:0.25px"/><polygon points="96.23 255.53 24.15 181.02 94.65 138.06 96.23 255.53" style="fill:none;stroke:#fff;stroke-linecap:round;stroke-linejoin:round;stroke-width:0.25px"/><polygon points="181.65 284.65 187.64 169.24 269.76 226.99 181.65 284.65" style="fill:none;stroke:#fff;stroke-linecap:round;stroke-linejoin:round;stroke-width:0.25px"/><polygon points="31.65 296.62 96.23 255.53 131.38 391.45 31.65 296.62" style="fill:none;stroke:#fff;stroke-linecap:round;stroke-linejoin:round;stroke-width:0.25px"/><polygon points="181.65 284.65 96.23 255.53 187.64 169.24 181.65 284.65" style="fill:none;stroke:#fff;stroke-linecap:round;stroke-linejoin:round;stroke-width:0.25px"/><polygon points="283.09 307.25 181.65 284.65 269.76 226.99 283.09 307.25" style="fill:none;stroke:#fff;stroke-linecap:round;stroke-linejoin:round;stroke-width:0.25px"/><polygon points="131.38 391.45 181.65 284.65 226.38 403.95 131.38 391.45" style="fill:none;stroke:#fff;stroke-linecap:round;stroke-linejoin:round;stroke-width:0.25px"/><polygon points="283.09 307.25 323.81 386.04 386.34 305.67 283.09 307.25" style="fill:none;stroke:#fff;stroke-linecap:round;stroke-linejoin:round;stroke-width:0.25px"/><polygon points="269.76 226.99 342.55 190.41 402.57 243.77 269.76 226.99" style="fill:none;stroke:#fff;stroke-linecap:round;stroke-linejoin:round;stroke-width:0.25px"/><polygon points="404.15 194.88 342.55 190.41 402.57 243.97 404.15 194.88" style="fill:none;stroke:#fff;stroke-linecap:round;stroke-linejoin:round;stroke-width:0.25px"/></g><g style="mix-blend-mode:overlay"><path d="M400.36,114.54a3,3,0,1,1,.46-4.15A3,3,0,0,1,400.36,114.54Z" style="fill:#fff"/><path d="M309.76,26.9a1.82,1.82,0,1,1,.28-2.55A1.82,1.82,0,0,1,309.76,26.9Z" style="fill:#fff"/><path d="M426.05,212.22a1.7,1.7,0,1,1,.26-2.39A1.7,1.7,0,0,1,426.05,212.22Z" style="fill:#fff"/><path d="M333.06,195.11a1.71,1.71,0,0,1-2.4-.27,1.7,1.7,0,0,1,2.66-2.13A1.71,1.71,0,0,1,333.06,195.11Z" style="fill:#fff"/><path d="M98.89,143.28a1.7,1.7,0,1,1,.27-2.39A1.7,1.7,0,0,1,98.89,143.28Z" style="fill:#fff"/><path d="M21.19,116.44a1.7,1.7,0,1,1,.27-2.39A1.71,1.71,0,0,1,21.19,116.44Z" style="fill:#fff"/><path d="M196.55,63.05a2.85,2.85,0,1,1,.45-4A2.85,2.85,0,0,1,196.55,63.05Z" style="fill:#fff"/><path d="M113.3,32.55a1.75,1.75,0,1,1,.28-2.46A1.75,1.75,0,0,1,113.3,32.55Z" style="fill:#fff"/><path d="M241.54,12.69a2.07,2.07,0,1,1,.33-2.92A2.08,2.08,0,0,1,241.54,12.69Z" style="fill:#fff"/><path d="M406.36,307a1.7,1.7,0,1,1,.26-2.39A1.71,1.71,0,0,1,406.36,307Z" style="fill:#fff"/><path d="M356.67,361.32a1.7,1.7,0,1,1,.27-2.4A1.72,1.72,0,0,1,356.67,361.32Z" style="fill:#fff"/><path d="M319.05,306.55a1.7,1.7,0,1,1,.27-2.4A1.69,1.69,0,0,1,319.05,306.55Z" style="fill:#fff"/><path d="M233.74,163.3a3.19,3.19,0,1,1,.5-4.48A3.18,3.18,0,0,1,233.74,163.3Z" style="fill:#fff"/><path d="M132.72,235.78a3.19,3.19,0,1,1,.51-4.48A3.18,3.18,0,0,1,132.72,235.78Z" style="fill:#fff"/><path d="M8.27,264.1a1.7,1.7,0,1,1,.27-2.39A1.7,1.7,0,0,1,8.27,264.1Z" style="fill:#fff"/><path d="M240,270.71a2.69,2.69,0,1,1,.42-3.78A2.71,2.71,0,0,1,240,270.71Z" style="fill:#fff"/><path d="M314.52,392.82a1.7,1.7,0,1,1,.27-2.39A1.69,1.69,0,0,1,314.52,392.82Z" style="fill:#fff"/><path d="M180.92,335.05a1.7,1.7,0,1,1,.27-2.39A1.69,1.69,0,0,1,180.92,335.05Z" style="fill:#fff"/><path d="M61.57,352.34a1.71,1.71,0,0,1-2.39-.27,1.7,1.7,0,1,1,2.39.27Z" style="fill:#fff"/><path d="M253.58,421.56a2.75,2.75,0,1,1,.43-3.87A2.76,2.76,0,0,1,253.58,421.56Z" style="fill:#fff"/><path d="M142.14,422.29a1.82,1.82,0,1,1,.29-2.57A1.82,1.82,0,0,1,142.14,422.29Z" style="fill:#fff"/><path d="M240.25,11.07c2,.53,68.37,14.41,68.37,14.41l89.89,86.75L425,210.89l-19.69,94.73L355.6,360l-42.14,31.5-61.6,27.92L141,420.86,60.51,351,7.21,262.77l12.71-147.5L112,31.33Z" style="fill:none;stroke:#fff;stroke-linecap:round;stroke-linejoin:round;stroke-width:0.26895px"/><polygon points="194.78 60.83 240.25 11.07 308.62 25.48 194.78 60.83" style="fill:none;stroke:#fff;stroke-linecap:round;stroke-linejoin:round;stroke-width:0.26895px"/><polygon points="231.75 160.81 194.78 60.83 308.62 25.48 231.75 160.81" style="fill:none;stroke:#fff;stroke-linecap:round;stroke-linejoin:round;stroke-width:0.26895px"/><polygon points="398.51 112.23 231.75 160.81 331.99 193.78 398.51 112.23" style="fill:none;stroke:#fff;stroke-linecap:round;stroke-linejoin:round;stroke-width:0.26895px"/><polygon points="317.99 305.22 331.99 193.78 424.98 210.89 317.99 305.22" style="fill:none;stroke:#fff;stroke-linecap:round;stroke-linejoin:round;stroke-width:0.26895px"/><polygon points="405.29 305.62 317.99 305.22 424.98 210.89 405.29 305.62" style="fill:none;stroke:#fff;stroke-linecap:round;stroke-linejoin:round;stroke-width:0.26895px"/><polygon points="231.75 160.81 317.99 305.22 331.99 193.78 231.75 160.81" style="fill:none;stroke:#fff;stroke-linecap:round;stroke-linejoin:round;stroke-width:0.26895px"/><polygon points="97.83 141.95 112.03 31.33 195.49 61.72 97.83 141.95" style="fill:none;stroke:#fff;stroke-linecap:round;stroke-linejoin:round;stroke-width:0.26895px"/><polygon points="130.73 233.29 231.75 160.81 238.36 268.61 130.73 233.29" style="fill:none;stroke:#fff;stroke-linecap:round;stroke-linejoin:round;stroke-width:0.26895px"/><polygon points="19.92 115.27 97.83 141.95 7.21 262.77 19.92 115.27" style="fill:none;stroke:#fff;stroke-linecap:round;stroke-linejoin:round;stroke-width:0.26895px"/><polygon points="130.73 233.29 97.83 141.95 231.75 160.81 130.73 233.29" style="fill:none;stroke:#fff;stroke-linecap:round;stroke-linejoin:round;stroke-width:0.26895px"/><polygon points="179.86 333.72 130.73 233.29 238.36 268.61 179.86 333.72" style="fill:none;stroke:#fff;stroke-linecap:round;stroke-linejoin:round;stroke-width:0.26895px"/><polygon points="7.21 262.77 130.73 233.29 60.51 351.01 7.21 262.77" style="fill:none;stroke:#fff;stroke-linecap:round;stroke-linejoin:round;stroke-width:0.26895px"/><polygon points="179.86 333.72 141 420.86 250.54 419.43 179.86 333.72" style="fill:none;stroke:#fff;stroke-linecap:round;stroke-linejoin:round;stroke-width:0.26895px"/><polygon points="238.36 268.61 317.99 305.22 313.46 391.49 238.36 268.61" style="fill:none;stroke:#fff;stroke-linecap:round;stroke-linejoin:round;stroke-width:0.26895px"/><polygon points="355.61 359.99 317.99 305.22 313.3 391.62 355.61 359.99" style="fill:none;stroke:#fff;stroke-linecap:round;stroke-linejoin:round;stroke-width:0.26895px"/></g><g style="mix-blend-mode:overlay"><path d="M400.36,114.54a3,3,0,1,1,.46-4.15A3,3,0,0,1,400.36,114.54Z" style="fill:#fff"/><path d="M309.76,26.9a1.82,1.82,0,1,1,.28-2.55A1.82,1.82,0,0,1,309.76,26.9Z" style="fill:#fff"/><path d="M426.05,212.22a1.7,1.7,0,1,1,.26-2.39A1.7,1.7,0,0,1,426.05,212.22Z" style="fill:#fff"/><path d="M333.06,195.11a1.71,1.71,0,0,1-2.4-.27,1.7,1.7,0,0,1,2.66-2.13A1.71,1.71,0,0,1,333.06,195.11Z" style="fill:#fff"/><path d="M98.89,143.28a1.7,1.7,0,1,1,.27-2.39A1.7,1.7,0,0,1,98.89,143.28Z" style="fill:#fff"/><path d="M21.19,116.44a1.7,1.7,0,1,1,.27-2.39A1.71,1.71,0,0,1,21.19,116.44Z" style="fill:#fff"/><path d="M196.55,63.05a2.85,2.85,0,1,1,.45-4A2.85,2.85,0,0,1,196.55,63.05Z" style="fill:#fff"/><path d="M113.3,32.55a1.75,1.75,0,1,1,.28-2.46A1.75,1.75,0,0,1,113.3,32.55Z" style="fill:#fff"/><path d="M241.54,12.69a2.07,2.07,0,1,1,.33-2.92A2.08,2.08,0,0,1,241.54,12.69Z" style="fill:#fff"/><path d="M406.36,307a1.7,1.7,0,1,1,.26-2.39A1.71,1.71,0,0,1,406.36,307Z" style="fill:#fff"/><path d="M356.67,361.32a1.7,1.7,0,1,1,.27-2.4A1.72,1.72,0,0,1,356.67,361.32Z" style="fill:#fff"/><path d="M319.05,306.55a1.7,1.7,0,1,1,.27-2.4A1.69,1.69,0,0,1,319.05,306.55Z" style="fill:#fff"/><path d="M233.74,163.3a3.19,3.19,0,1,1,.5-4.48A3.18,3.18,0,0,1,233.74,163.3Z" style="fill:#fff"/><path d="M132.72,235.78a3.19,3.19,0,1,1,.51-4.48A3.18,3.18,0,0,1,132.72,235.78Z" style="fill:#fff"/><path d="M8.27,264.1a1.7,1.7,0,1,1,.27-2.39A1.7,1.7,0,0,1,8.27,264.1Z" style="fill:#fff"/><path d="M240,270.71a2.69,2.69,0,1,1,.42-3.78A2.71,2.71,0,0,1,240,270.71Z" style="fill:#fff"/><path d="M314.52,392.82a1.7,1.7,0,1,1,.27-2.39A1.69,1.69,0,0,1,314.52,392.82Z" style="fill:#fff"/><path d="M180.92,335.05a1.7,1.7,0,1,1,.27-2.39A1.69,1.69,0,0,1,180.92,335.05Z" style="fill:#fff"/><path d="M61.57,352.34a1.71,1.71,0,0,1-2.39-.27,1.7,1.7,0,1,1,2.39.27Z" style="fill:#fff"/><path d="M253.58,421.56a2.75,2.75,0,1,1,.43-3.87A2.76,2.76,0,0,1,253.58,421.56Z" style="fill:#fff"/><path d="M142.14,422.29a1.82,1.82,0,1,1,.29-2.57A1.82,1.82,0,0,1,142.14,422.29Z" style="fill:#fff"/><path d="M240.25,11.07c2,.53,68.37,14.41,68.37,14.41l89.89,86.75L425,210.89l-19.69,94.73L355.6,360l-42.14,31.5-61.6,27.92L141,420.86,60.51,351,7.21,262.77l12.71-147.5L112,31.33Z" style="fill:none;stroke:#fff;stroke-linecap:round;stroke-linejoin:round;stroke-width:0.26895px"/><polygon points="194.78 60.83 240.25 11.07 308.62 25.48 194.78 60.83" style="fill:none;stroke:#fff;stroke-linecap:round;stroke-linejoin:round;stroke-width:0.26895px"/><polygon points="231.75 160.81 194.78 60.83 308.62 25.48 231.75 160.81" style="fill:none;stroke:#fff;stroke-linecap:round;stroke-linejoin:round;stroke-width:0.26895px"/><polygon points="398.51 112.23 231.75 160.81 331.99 193.78 398.51 112.23" style="fill:none;stroke:#fff;stroke-linecap:round;stroke-linejoin:round;stroke-width:0.26895px"/><polygon points="317.99 305.22 331.99 193.78 424.98 210.89 317.99 305.22" style="fill:none;stroke:#fff;stroke-linecap:round;stroke-linejoin:round;stroke-width:0.26895px"/><polygon points="405.29 305.62 317.99 305.22 424.98 210.89 405.29 305.62" style="fill:none;stroke:#fff;stroke-linecap:round;stroke-linejoin:round;stroke-width:0.26895px"/><polygon points="231.75 160.81 317.99 305.22 331.99 193.78 231.75 160.81" style="fill:none;stroke:#fff;stroke-linecap:round;stroke-linejoin:round;stroke-width:0.26895px"/><polygon points="97.83 141.95 112.03 31.33 195.49 61.72 97.83 141.95" style="fill:none;stroke:#fff;stroke-linecap:round;stroke-linejoin:round;stroke-width:0.26895px"/><polygon points="130.73 233.29 231.75 160.81 238.36 268.61 130.73 233.29" style="fill:none;stroke:#fff;stroke-linecap:round;stroke-linejoin:round;stroke-width:0.26895px"/><polygon points="19.92 115.27 97.83 141.95 7.21 262.77 19.92 115.27" style="fill:none;stroke:#fff;stroke-linecap:round;stroke-linejoin:round;stroke-width:0.26895px"/><polygon points="130.73 233.29 97.83 141.95 231.75 160.81 130.73 233.29" style="fill:none;stroke:#fff;stroke-linecap:round;stroke-linejoin:round;stroke-width:0.26895px"/><polygon points="179.86 333.72 130.73 233.29 238.36 268.61 179.86 333.72" style="fill:none;stroke:#fff;stroke-linecap:round;stroke-linejoin:round;stroke-width:0.26895px"/><polygon points="7.21 262.77 130.73 233.29 60.51 351.01 7.21 262.77" style="fill:none;stroke:#fff;stroke-linecap:round;stroke-linejoin:round;stroke-width:0.26895px"/><polygon points="179.86 333.72 141 420.86 250.54 419.43 179.86 333.72" style="fill:none;stroke:#fff;stroke-linecap:round;stroke-linejoin:round;stroke-width:0.26895px"/><polygon points="238.36 268.61 317.99 305.22 313.46 391.49 238.36 268.61" style="fill:none;stroke:#fff;stroke-linecap:round;stroke-linejoin:round;stroke-width:0.26895px"/><polygon points="355.61 359.99 317.99 305.22 313.3 391.62 355.61 359.99" style="fill:none;stroke:#fff;stroke-linecap:round;stroke-linejoin:round;stroke-width:0.26895px"/></g><circle cx="424.98" cy="210.89" r="13.8" transform="translate(148.74 596.61) rotate(-80.78)" style="mix-blend-mode:screen;fill:url(#radial-gradient-2)"/><path d="M432,210.89a7,7,0,1,1-7-7A7,7,0,0,1,432,210.89Z" style="mix-blend-mode:color-dodge;fill:url(#radial-gradient-3)"/><circle cx="238.36" cy="268.61" r="21.62" style="mix-blend-mode:screen;fill:url(#radial-gradient-4)"/><circle cx="238.36" cy="268.61" r="10.96" style="mix-blend-mode:color-dodge;fill:url(#radial-gradient-5)"/><circle cx="251.7" cy="419.99" r="15.56" transform="translate(-236.44 458.19) rotate(-63.54)" style="mix-blend-mode:screen;fill:url(#radial-gradient-6)"/><circle cx="251.7" cy="419.99" r="7.89" style="mix-blend-mode:color-dodge;fill:url(#radial-gradient-7)"/><circle cx="240.25" cy="11.07" r="11.07" style="mix-blend-mode:screen;fill:url(#radial-gradient-8)"/><circle cx="240.25" cy="11.07" r="5.61" style="mix-blend-mode:color-dodge;fill:url(#radial-gradient-9)"/><circle cx="194.78" cy="60.5" r="17.15" style="mix-blend-mode:screen;fill:url(#radial-gradient-10)"/><circle cx="194.78" cy="60.5" r="8.7" style="mix-blend-mode:color-dodge;fill:url(#radial-gradient-11)"/><circle cx="97.82" cy="142.21" r="19.97" transform="translate(-67.94 94.1) rotate(-39.29)" style="mix-blend-mode:screen;fill:url(#radial-gradient-12)"/><circle cx="97.82" cy="142.2" r="10.59" style="mix-blend-mode:color-dodge;fill:url(#radial-gradient-13)"/><circle cx="318.26" cy="305.22" r="12.51" style="mix-blend-mode:screen;fill:url(#radial-gradient-14)"/><path d="M324.9,305.22a6.64,6.64,0,1,1-6.64-6.64A6.63,6.63,0,0,1,324.9,305.22Z" style="mix-blend-mode:color-dodge;fill:url(#radial-gradient-15)"/><circle cx="308.62" cy="25.8" r="12.01" transform="translate(72.15 225.78) rotate(-45)" style="mix-blend-mode:screen;fill:url(#radial-gradient-16)"/><path d="M315,25.8a6.37,6.37,0,1,1-6.37-6.37A6.37,6.37,0,0,1,315,25.8Z" style="mix-blend-mode:color-dodge;fill:url(#radial-gradient-17)"/><circle cx="398.2" cy="112.23" r="14.45" transform="translate(197.48 473.99) rotate(-76.72)" style="mix-blend-mode:screen;fill:url(#radial-gradient-18)"/><circle cx="398.2" cy="112.23" r="7.66" style="mix-blend-mode:color-dodge;fill:url(#radial-gradient-19)"/><circle cx="355.6" cy="359.99" r="7.21" style="mix-blend-mode:screen;fill:url(#radial-gradient-20)"/><path d="M359.43,360a3.83,3.83,0,1,1-3.83-3.83A3.82,3.82,0,0,1,359.43,360Z" style="mix-blend-mode:color-dodge;fill:url(#radial-gradient-21)"/><circle cx="60.89" cy="351.01" r="7.21" style="mix-blend-mode:screen;fill:url(#radial-gradient-22)"/><circle cx="60.89" cy="351.01" r="3.82" style="mix-blend-mode:color-dodge;fill:url(#radial-gradient-23)"/><circle cx="7.21" cy="262.77" r="7.21" style="mix-blend-mode:screen;fill:url(#radial-gradient-24)"/><circle cx="7.21" cy="262.77" r="3.82" style="mix-blend-mode:color-dodge;fill:url(#radial-gradient-25)"/><circle cx="231.75" cy="160.81" r="18.17" style="mix-blend-mode:screen;fill:url(#radial-gradient-26)"/><circle cx="231.75" cy="160.81" r="9.21" transform="translate(-37.87 243.73) rotate(-51.85)" style="mix-blend-mode:color-dodge;fill:url(#radial-gradient-27)"/><circle cx="130.73" cy="233.29" r="13.81" transform="translate(-126.46 306.56) rotate(-76.64)" style="mix-blend-mode:screen;fill:url(#radial-gradient-28)"/><path d="M137.74,233.29a7,7,0,1,1-7-7A7,7,0,0,1,137.74,233.29Z" style="mix-blend-mode:color-dodge;fill:url(#radial-gradient-29)"/><circle cx="202.34" cy="36.36" r="19.81" transform="translate(33.55 153.73) rotate(-45)" style="opacity:0.04;mix-blend-mode:screen;fill:url(#radial-gradient-30)"/><circle cx="291.62" cy="55.63" r="12.78" style="opacity:0.01;mix-blend-mode:screen;fill:url(#radial-gradient-31)"/><circle cx="232.99" cy="94.47" r="43.15" transform="translate(1.44 192.42) rotate(-45)" style="opacity:0.07;mix-blend-mode:screen;fill:url(#radial-gradient-32)"/><circle cx="88.5" cy="229.01" r="73.26" transform="translate(-151.54 280.55) rotate(-80.99)" style="opacity:0.12;mix-blend-mode:screen;fill:url(#radial-gradient-33)"/><circle cx="168.79" cy="104.23" r="27.85" style="opacity:0.09;mix-blend-mode:screen;fill:url(#radial-gradient-34)"/><circle cx="255.02" cy="261.69" r="27.85" style="opacity:0.09;mix-blend-mode:screen;fill:url(#radial-gradient-35)"/><circle cx="141.19" cy="128.32" r="36.26" transform="translate(-8.31 246.86) rotate(-80.68)" style="opacity:0.06;mix-blend-mode:screen;fill:url(#radial-gradient-36)"/></g></g></g></svg>