<svg xmlns="http://www.w3.org/2000/svg" viewBox="0 0 184.83 14.66"><g id="Layer_2" data-name="Layer 2"><g id="Layer_1-2" data-name="Layer 1"><path d="M0,14.4V.23H3V14.4Z" style="fill:#fff"/><path d="M4.84,12.4,6.5,10.05A6.23,6.23,0,0,0,11,12c1.68,0,2.46-.74,2.46-1.57,0-2.47-8.15-.75-8.15-6.08C5.31,2,7.35,0,10.68,0a7.9,7.9,0,0,1,5.53,2L14.53,4.25A6.11,6.11,0,0,0,10.41,2.7c-1.28,0-2,.55-2,1.4,0,2.23,8.13.72,8.13,6,0,2.59-1.86,4.55-5.67,4.55A8.17,8.17,0,0,1,4.84,12.4Z" style="fill:#fff"/><path d="M17.88,7.33A7.12,7.12,0,0,1,25.29,0a7.12,7.12,0,0,1,7.4,7.33,7.12,7.12,0,0,1-7.4,7.33A7.12,7.12,0,0,1,17.88,7.33Zm11.7,0c0-2.66-1.67-4.65-4.29-4.65S21,4.67,21,7.33,22.66,12,25.29,12,29.58,10,29.58,7.33Z" style="fill:#fff"/><path d="M34.13,7.33A7.19,7.19,0,0,1,41.69,0,6.46,6.46,0,0,1,47.6,3.46L45,4.74a3.82,3.82,0,0,0-3.31-2.06,4.41,4.41,0,0,0-4.46,4.65A4.42,4.42,0,0,0,41.69,12,3.82,3.82,0,0,0,45,9.92l2.6,1.25a6.51,6.51,0,0,1-5.91,3.49A7.21,7.21,0,0,1,34.13,7.33Z" style="fill:#fff"/><path d="M59.11,14.4v-6H52.42v6h-3V.23h3V5.8h6.69V.23h3V14.4Z" style="fill:#fff"/><path d="M72.93,14.4l-2.78-5H67.94v5h-3V.23h6.63A4.44,4.44,0,0,1,76.33,4.8,4.1,4.1,0,0,1,73.21,9l3.21,5.39Zm.3-9.62a1.91,1.91,0,0,0-2.1-1.89H67.94V6.71h3.19A1.92,1.92,0,0,0,73.23,4.78Z" style="fill:#fff"/><path d="M77.9,7.33a7.41,7.41,0,0,1,14.81,0,7.41,7.41,0,0,1-14.81,0Zm11.7,0c0-2.66-1.67-4.65-4.29-4.65S81,4.67,81,7.33,82.68,12,85.31,12,89.6,10,89.6,7.33Z" style="fill:#fff"/><path d="M104.6,14.4,97.84,5.16V14.4h-3V.23h3.1l6.56,8.9V.23h3V14.4Z" style="fill:#fff"/><path d="M110.31,14.4V.23h10V2.89h-7v3h6.86V8.52h-6.86v3.23h7V14.4Z" style="fill:#fff"/><path d="M140.47,14.4V4.18l-4,10.22h-1.32l-4-10.22V14.4h-3V.23h4.23l3.44,8.86L139.26.23h4.25V14.4Z" style="fill:#fff"/><path d="M156.1,14.4l-.89-2.4h-6.08l-.89,2.4h-3.42L150.28.23h3.78l5.46,14.17ZM152.17,3.25,150,9.35h4.42Z" style="fill:#fff"/><path d="M160.83,14.4V.23h6.63a4.42,4.42,0,0,1,4.76,4.57,4.43,4.43,0,0,1-4.76,4.55h-3.61V14.4Zm8.31-9.6A1.91,1.91,0,0,0,167,2.89h-3.19v3.8H167A1.91,1.91,0,0,0,169.14,4.8Z" style="fill:#fff"/><path d="M173.13,12.4l1.66-2.35a6.23,6.23,0,0,0,4.5,1.93c1.68,0,2.46-.74,2.46-1.57,0-2.47-8.15-.75-8.15-6.08C173.6,2,175.64,0,179,0a7.86,7.86,0,0,1,5.52,2l-1.67,2.25A6.11,6.11,0,0,0,178.7,2.7c-1.28,0-2,.55-2,1.4,0,2.23,8.13.72,8.13,6,0,2.59-1.87,4.55-5.67,4.55A8.17,8.17,0,0,1,173.13,12.4Z" style="fill:#fff"/></g></g></svg>