<svg xmlns="http://www.w3.org/2000/svg" viewBox="0 0 176.83 14.66"><g id="Layer_2" data-name="Layer 2"><g id="Layer_1-2" data-name="Layer 1"><path d="M0,14.4V.23H3V11.75H9V14.4Z" style="fill:#fff"/><path d="M20.86,14.4,20,12H13.89L13,14.4H9.58L15,.23h3.78L24.28,14.4ZM16.93,3.25l-2.21,6.1h4.42Z" style="fill:#fff"/><path d="M35.36,14.4,28.61,5.16V14.4h-3V.23h3.1l6.57,8.9V.23h3V14.4Z" style="fill:#fff"/><path d="M41.07,14.4V.23h5.59c4.44,0,7.52,2.83,7.52,7.08s-3.08,7.09-7.5,7.09Zm10-7.09a4.13,4.13,0,0,0-4.42-4.42H44.09v8.86h2.57A4.25,4.25,0,0,0,51.1,7.31Z" style="fill:#fff"/><path d="M55.64,7.33A7.19,7.19,0,0,1,63.2,0a6.44,6.44,0,0,1,5.91,3.46L66.52,4.74A3.84,3.84,0,0,0,63.2,2.68a4.41,4.41,0,0,0-4.46,4.65A4.42,4.42,0,0,0,63.2,12a3.84,3.84,0,0,0,3.32-2.06l2.59,1.25a6.5,6.5,0,0,1-5.91,3.49A7.21,7.21,0,0,1,55.64,7.33Z" style="fill:#fff"/><path d="M70.23,7.33A7.41,7.41,0,0,1,85,7.33a7.41,7.41,0,0,1-14.81,0Zm11.71,0c0-2.66-1.68-4.65-4.29-4.65s-4.32,2-4.32,4.65S75,12,77.65,12,81.94,10,81.94,7.33Z" style="fill:#fff"/><path d="M90.71,14.4,85.25.23h3.42L92.6,11.11,96.53.23H100L94.49,14.4Z" style="fill:#fff"/><path d="M101.26,14.4V.23h10V2.89h-7v3h6.86V8.52h-6.86v3.23h7V14.4Z" style="fill:#fff"/><path d="M121.65,14.4l-2.78-5h-2.21v5h-3V.23h6.63a4.44,4.44,0,0,1,4.78,4.57A4.1,4.1,0,0,1,121.93,9l3.21,5.39Zm.3-9.62a1.91,1.91,0,0,0-2.1-1.89h-3.19V6.71h3.19A1.92,1.92,0,0,0,122,4.78Z" style="fill:#fff"/><path d="M145.08,14.4V4.18l-4,10.22h-1.31l-4-10.22V14.4h-3V.23H137l3.44,8.86L143.87.23h4.25V14.4Z" style="fill:#fff"/><path d="M160.71,14.4l-.89-2.4h-6.08l-.89,2.4h-3.42L154.89.23h3.78l5.46,14.17ZM156.78,3.25l-2.21,6.1H159Z" style="fill:#fff"/><path d="M165.44,14.4V.23h6.63a4.42,4.42,0,0,1,4.76,4.57,4.43,4.43,0,0,1-4.76,4.55h-3.61V14.4Zm8.31-9.6a1.92,1.92,0,0,0-2.1-1.91h-3.19v3.8h3.19A1.91,1.91,0,0,0,173.75,4.8Z" style="fill:#fff"/></g></g></svg>