<svg xmlns="http://www.w3.org/2000/svg" viewBox="0 0 156.06 14.63"><g id="Layer_2" data-name="Layer 2"><g id="Layer_1-2" data-name="Layer 1"><path d="M11.28,14.38,10.39,12H4.31l-.89,2.4H0L5.46.21H9.24L14.7,14.38ZM7.35,3.23,5.14,9.33H9.56Z" style="fill:#fff"/><path d="M28.33,14.38V4.16l-4,10.22H23L19,4.16V14.38H16V.21h4.23l3.44,8.86L27.12.21h4.25V14.38Z" style="fill:#fff"/><path d="M34.17,14.38V.21h10V2.87h-7v3h6.86V8.5H37.19v3.22h7v2.66Z" style="fill:#fff"/><path d="M56.32,14.38,49.57,5.14v9.24h-3V.21h3.11l6.56,8.9V.21h3V14.38Z" style="fill:#fff"/><path d="M62,14.38V.21h3V14.38Z" style="fill:#fff"/><path d="M71.13,14.38V2.87H67V.21h11.3V2.87H74.16V14.38Z" style="fill:#fff"/><path d="M84.17,14.38V8.58L78.73.21h3.44l3.5,5.67L89.18.21H92.6L87.18,8.58v5.8Z" style="fill:#fff"/><path d="M111.69,14.38V4.16l-4,10.22h-1.32l-4-10.22V14.38h-3V.21h4.23L107,9.07,110.48.21h4.25V14.38Z" style="fill:#fff"/><path d="M127.32,14.38l-.89-2.4h-6.07l-.9,2.4H116L121.5.21h3.78l5.46,14.17ZM123.39,3.23l-2.21,6.1h4.42Z" style="fill:#fff"/><path d="M132.06,14.38V.21h6.62a4.42,4.42,0,0,1,4.76,4.57,4.43,4.43,0,0,1-4.76,4.55h-3.61v5.05Zm8.3-9.6a1.91,1.91,0,0,0-2.1-1.91h-3.19v3.8h3.19A1.91,1.91,0,0,0,140.36,4.78Z" style="fill:#fff"/><path d="M144.35,12.38,146,10a6.23,6.23,0,0,0,4.5,1.93c1.68,0,2.47-.75,2.47-1.57,0-2.47-8.16-.75-8.16-6.08,0-2.36,2-4.31,5.38-4.31a7.86,7.86,0,0,1,5.52,2L154,4.23a6.11,6.11,0,0,0-4.12-1.55c-1.28,0-2,.55-2,1.4,0,2.23,8.14.72,8.14,6,0,2.59-1.87,4.54-5.67,4.54A8.2,8.2,0,0,1,144.35,12.38Z" style="fill:#fff"/></g></g></svg>