<svg xmlns="http://www.w3.org/2000/svg" viewBox="0 0 221.11 14.66"><g id="Layer_2" data-name="Layer 2"><g id="Layer_1-2" data-name="Layer 1"><path d="M0,12.4l1.66-2.35A6.23,6.23,0,0,0,6.16,12c1.68,0,2.46-.74,2.46-1.57C8.62,7.94.47,9.66.47,4.33.47,2,2.51,0,5.84,0a7.86,7.86,0,0,1,5.52,2L9.69,4.25A6.11,6.11,0,0,0,5.57,2.7c-1.28,0-2,.55-2,1.4,0,2.23,8.13.72,8.13,6,0,2.59-1.87,4.55-5.67,4.55A8.17,8.17,0,0,1,0,12.4Z" style="fill:#fff"/><path d="M16.71,14.4V2.89H12.57V.23h11.3V2.89H19.75V14.4Z" style="fill:#fff"/><path d="M33.81,14.4,31,9.37H28.82v5h-3V.23h6.63A4.44,4.44,0,0,1,37.21,4.8,4.1,4.1,0,0,1,34.09,9L37.3,14.4Zm.3-9.62A1.91,1.91,0,0,0,32,2.89H28.82V6.71H32A1.92,1.92,0,0,0,34.11,4.78Z" style="fill:#fff"/><path d="M39.46,14.4V.23h10V2.89h-7v3h6.86V8.52H42.48v3.23h7V14.4Z" style="fill:#fff"/><path d="M51.84,14.4V.23h10V2.89h-7v3h6.86V8.52H54.86v3.23h7V14.4Z" style="fill:#fff"/><path d="M67.5,14.4V2.89H63.35V.23h11.3V2.89H70.53V14.4Z" style="fill:#fff"/><path d="M91.81,14.4,85.06,5.16V14.4H82V.23h3.1l6.57,8.9V.23h3V14.4Z" style="fill:#fff"/><path d="M96.84,7.33a7.41,7.41,0,0,1,14.81,0,7.41,7.41,0,0,1-14.81,0Zm11.71,0c0-2.66-1.68-4.65-4.29-4.65S100,4.67,100,7.33,101.62,12,104.26,12,108.55,10,108.55,7.33Z" style="fill:#fff"/><path d="M113.77,14.4V.23h3V14.4Z" style="fill:#fff"/><path d="M118.61,12.4l1.66-2.35a6.23,6.23,0,0,0,4.5,1.93c1.68,0,2.47-.74,2.47-1.57,0-2.47-8.16-.75-8.16-6.08,0-2.36,2-4.31,5.38-4.31A7.86,7.86,0,0,1,130,2L128.3,4.25a6.11,6.11,0,0,0-4.12-1.55c-1.28,0-2,.55-2,1.4,0,2.23,8.14.72,8.14,6,0,2.59-1.87,4.55-5.67,4.55A8.2,8.2,0,0,1,118.61,12.4Z" style="fill:#fff"/><path d="M132.33,14.4V.23h10V2.89h-7v3h6.86V8.52h-6.86v3.23h7V14.4Z" style="fill:#fff"/><path d="M162.49,14.4V4.18l-4,10.22h-1.32l-4-10.22V14.4h-3V.23h4.23l3.44,8.86L161.28.23h4.25V14.4Z" style="fill:#fff"/><path d="M167.65,7.33a7.41,7.41,0,0,1,14.81,0,7.41,7.41,0,0,1-14.81,0Zm11.71,0c0-2.66-1.68-4.65-4.3-4.65s-4.31,2-4.31,4.65S172.43,12,175.06,12,179.36,10,179.36,7.33Z" style="fill:#fff"/><path d="M184.58,14.4V.23h5.59c4.43,0,7.51,2.83,7.51,7.08s-3.08,7.09-7.49,7.09Zm10-7.09a4.13,4.13,0,0,0-4.41-4.42h-2.6v8.86h2.58A4.24,4.24,0,0,0,194.6,7.31Z" style="fill:#fff"/><path d="M199.83,14.4V.23h10V2.89h-7v3h6.86V8.52h-6.86v3.23h7V14.4Z" style="fill:#fff"/><path d="M212.08,14.4V.23h3V11.75h6V14.4Z" style="fill:#fff"/></g></g></svg>