<svg xmlns="http://www.w3.org/2000/svg" viewBox="0 0 268.55 14.66"><g id="Layer_2" data-name="Layer 2"><g id="Layer_1-2" data-name="Layer 1"><path d="M0,14.4V.23H10V2.89H3v3H9.88V8.52H3v3.23h7V14.4Z" style="fill:#fff"/><path d="M22.15,14.4,15.4,5.16V14.4h-3V.23h3.1l6.57,8.9V.23h3V14.4Z" style="fill:#fff"/><path d="M31.84,14.4,26.38.23H29.8l3.93,10.88L37.66.23h3.42L35.62,14.4Z" style="fill:#fff"/><path d="M42.39,14.4V.23h3V14.4Z" style="fill:#fff"/><path d="M56.22,14.4l-2.79-5h-2.2v5h-3V.23h6.63A4.44,4.44,0,0,1,59.62,4.8,4.11,4.11,0,0,1,56.49,9L59.7,14.4Zm.29-9.62a1.91,1.91,0,0,0-2.1-1.89H51.23V6.71h3.18A1.92,1.92,0,0,0,56.51,4.78Z" style="fill:#fff"/><path d="M61.19,7.33a7.4,7.4,0,0,1,14.8,0,7.4,7.4,0,0,1-14.8,0Zm11.7,0c0-2.66-1.68-4.65-4.29-4.65s-4.31,2-4.31,4.65S66,12,68.6,12,72.89,10,72.89,7.33Z" style="fill:#fff"/><path d="M87.88,14.4,81.13,5.16V14.4h-3V.23h3.1l6.57,8.9V.23h3V14.4Z" style="fill:#fff"/><path d="M105.92,14.4V4.18l-4,10.22H100.6l-4-10.22V14.4h-3V.23h4.22l3.44,8.86L104.7.23H109V14.4Z" style="fill:#fff"/><path d="M111.75,14.4V.23h10V2.89h-7v3h6.86V8.52h-6.86v3.23h7V14.4Z" style="fill:#fff"/><path d="M133.91,14.4l-6.76-9.24V14.4h-3V.23h3.1l6.56,8.9V.23h3V14.4Z" style="fill:#fff"/><path d="M142.89,14.4V2.89h-4.14V.23h11.3V2.89h-4.12V14.4Z" style="fill:#fff"/><path d="M160.41,14.4l-.89-2.4h-6.08l-.89,2.4h-3.42L154.59.23h3.78l5.46,14.17ZM156.48,3.25l-2.21,6.1h4.42Z" style="fill:#fff"/><path d="M165,14.4V.23h3V11.75h6V14.4Z" style="fill:#fff"/><path d="M181.54,14.4V.23h3V14.4Z" style="fill:#fff"/><path d="M199.68,14.4V4.18l-4,10.22h-1.32l-4-10.22V14.4h-3V.23h4.23L195,9.09,198.47.23h4.25V14.4Z" style="fill:#fff"/><path d="M205.52,14.4V.23h6.63A4.41,4.41,0,0,1,216.9,4.8a4.43,4.43,0,0,1-4.75,4.55h-3.61V14.4Zm8.3-9.6a1.91,1.91,0,0,0-2.1-1.91h-3.18v3.8h3.18A1.91,1.91,0,0,0,213.82,4.8Z" style="fill:#fff"/><path d="M227,14.4l-.89-2.4h-6.07l-.9,2.4h-3.42L221.19.23H225l5.46,14.17ZM223.08,3.25l-2.21,6.1h4.42Z" style="fill:#fff"/><path d="M230.35,7.33A7.19,7.19,0,0,1,237.91,0a6.44,6.44,0,0,1,5.9,3.46l-2.59,1.28a3.82,3.82,0,0,0-3.31-2.06,4.41,4.41,0,0,0-4.46,4.65A4.42,4.42,0,0,0,237.91,12a3.82,3.82,0,0,0,3.31-2.06l2.59,1.25a6.49,6.49,0,0,1-5.9,3.49A7.21,7.21,0,0,1,230.35,7.33Z" style="fill:#fff"/><path d="M248.89,14.4V2.89h-4.14V.23h11.3V2.89h-4.13V14.4Z" style="fill:#fff"/><path d="M256.85,12.4l1.66-2.35A6.23,6.23,0,0,0,263,12c1.68,0,2.47-.74,2.47-1.57,0-2.47-8.16-.75-8.16-6.08,0-2.36,2-4.31,5.37-4.31a7.86,7.86,0,0,1,5.52,2l-1.67,2.25a6.11,6.11,0,0,0-4.12-1.55c-1.28,0-2,.55-2,1.4,0,2.23,8.13.72,8.13,6,0,2.59-1.86,4.55-5.67,4.55A8.17,8.17,0,0,1,256.85,12.4Z" style="fill:#fff"/></g></g></svg>