<svg xmlns="http://www.w3.org/2000/svg" viewBox="0 0 164.53 14.63"><g id="Layer_2" data-name="Layer 2"><g id="Layer_1-2" data-name="Layer 1"><path d="M0,12.38,1.66,10A6.23,6.23,0,0,0,6.16,12c1.68,0,2.46-.75,2.46-1.57C8.62,7.92.47,9.64.47,4.31.47,2,2.51,0,5.84,0a7.86,7.86,0,0,1,5.52,2L9.69,4.23A6.11,6.11,0,0,0,5.56,2.68c-1.27,0-2,.55-2,1.4,0,2.23,8.13.72,8.13,6,0,2.59-1.87,4.54-5.67,4.54A8.17,8.17,0,0,1,0,12.38Z" style="fill:#fff"/><path d="M13.72,8.71V.21h3.06V8.62A3.07,3.07,0,0,0,20.11,12a3.06,3.06,0,0,0,3.32-3.34V.21h3.08v8.5c0,3.5-2.09,5.92-6.4,5.92S13.72,12.21,13.72,8.71Z" style="fill:#fff"/><path d="M28.33,12.38,30,10A6.23,6.23,0,0,0,34.49,12c1.68,0,2.47-.75,2.47-1.57,0-2.47-8.16-.75-8.16-6.08C28.8,2,30.84,0,34.17,0A7.9,7.9,0,0,1,39.7,2L38,4.23A6.11,6.11,0,0,0,33.9,2.68c-1.28,0-2,.55-2,1.4,0,2.23,8.14.72,8.14,6,0,2.59-1.87,4.54-5.68,4.54A8.17,8.17,0,0,1,28.33,12.38Z" style="fill:#fff"/><path d="M45.05,14.38V2.87H40.9V.21H52.2V2.87H48.08V14.38Z" style="fill:#fff"/><path d="M62.57,14.38,61.68,12H55.6l-.89,2.4H51.29L56.75.21h3.78L66,14.38ZM58.64,3.23l-2.21,6.1h4.42Z" style="fill:#fff"/><path d="M67.3,14.38V.21h3V14.38Z" style="fill:#fff"/><path d="M82.89,14.38,76.14,5.14v9.24h-3V.21h3.1l6.57,8.9V.21h3V14.38Z" style="fill:#fff"/><path d="M98.4,14.38,97.5,12H91.43l-.89,2.4H87.12L92.58.21h3.78l5.46,14.17ZM94.47,3.23l-2.21,6.1h4.42Z" style="fill:#fff"/><path d="M103.13,14.38V.21h7.46c2.69,0,4.08,1.72,4.08,3.61a3.16,3.16,0,0,1-2.45,3.25,3.41,3.41,0,0,1,2.72,3.47c0,2.14-1.4,3.84-4.12,3.84Zm8.46-10a1.49,1.49,0,0,0-1.66-1.48h-3.78v3h3.78A1.47,1.47,0,0,0,111.59,4.35Zm.27,5.76a1.62,1.62,0,0,0-1.8-1.61h-3.91v3.22h3.91C111.18,11.72,111.86,11.13,111.86,10.11Z" style="fill:#fff"/><path d="M117.21,14.38V.21h3V14.38Z" style="fill:#fff"/><path d="M122.9,14.38V.21h3V11.72h6v2.66Z" style="fill:#fff"/><path d="M134,14.38V.21h3V14.38Z" style="fill:#fff"/><path d="M143.06,14.38V2.87h-4.14V.21h11.3V2.87H146.1V14.38Z" style="fill:#fff"/><path d="M156.1,14.38V8.58L150.66.21h3.44l3.51,5.67,3.5-5.67h3.42l-5.42,8.37v5.8Z" style="fill:#fff"/></g></g></svg>