<svg xmlns="http://www.w3.org/2000/svg" viewBox="0 0 300 815.04"><g id="Layer_2" data-name="Layer 2"><g id="Layer_1-2" data-name="Layer 1"><path d="M300,0V775.44C259.61,800.07,206.31,815,147.88,815,91.48,815,39.85,801.09,0,778V0Z" style="fill:#fff"/><path d="M70.63,768.66a7.39,7.39,0,0,1,2.5-1.62,8.76,8.76,0,0,1,3.17-.56,7.87,7.87,0,0,1,3.37.72,8.56,8.56,0,0,1,2.82,2.17L86.15,766a11.33,11.33,0,0,0-4.35-3.26,15.71,15.71,0,0,0-11.1-.17,12.65,12.65,0,0,0-4.24,2.66,12.19,12.19,0,0,0-2.81,4,13.5,13.5,0,0,0,0,10.2,12.27,12.27,0,0,0,7,6.7,14.75,14.75,0,0,0,5.29.94A14.42,14.42,0,0,0,81.8,786a11.46,11.46,0,0,0,4.35-3.27l-3.66-3.38a8.4,8.4,0,0,1-2.82,2.2,7.87,7.87,0,0,1-3.37.72,8.76,8.76,0,0,1-3.17-.56A7.18,7.18,0,0,1,69,777.56a9.12,9.12,0,0,1,0-6.4A7.41,7.41,0,0,1,70.63,768.66Z" style="fill:#0843ff"/><polygon points="106.86 771.76 95.68 771.76 95.68 762.05 89.98 762.05 89.98 786.67 95.68 786.67 95.68 776.58 106.86 776.58 106.86 786.67 112.56 786.67 112.56 762.05 106.86 762.05 106.86 771.76" style="fill:#0843ff"/><polygon points="124.07 776.4 135.5 776.4 135.5 771.97 124.07 771.97 124.07 766.62 137.01 766.62 137.01 762.05 118.4 762.05 118.4 786.67 137.47 786.67 137.47 782.1 124.07 782.1 124.07 776.4" style="fill:#0843ff"/><path d="M148.44,768.66a7.39,7.39,0,0,1,2.5-1.62,8.76,8.76,0,0,1,3.17-.56,7.87,7.87,0,0,1,3.37.72,8.46,8.46,0,0,1,2.82,2.17L164,766a11.33,11.33,0,0,0-4.35-3.26,15.71,15.71,0,0,0-11.1-.17,12.6,12.6,0,0,0-4.23,2.66,12.07,12.07,0,0,0-2.82,4,13.5,13.5,0,0,0,0,10.2,12.27,12.27,0,0,0,7,6.7,14.75,14.75,0,0,0,5.29.94,14.42,14.42,0,0,0,5.82-1.13A11.46,11.46,0,0,0,164,782.7l-3.66-3.38a8.3,8.3,0,0,1-2.82,2.2,7.87,7.87,0,0,1-3.37.72,8.76,8.76,0,0,1-3.17-.56,7.39,7.39,0,0,1-2.5-1.62,7.47,7.47,0,0,1-1.63-2.5,9.12,9.12,0,0,1,0-6.4A7.57,7.57,0,0,1,148.44,768.66Z" style="fill:#0843ff"/><polygon points="189.74 762.05 183.41 762.05 172.5 773.54 172.5 762.05 166.84 762.05 166.84 786.67 172.5 786.67 172.5 780.46 175.8 777.01 183.69 786.67 190.34 786.67 179.54 773.02 189.74 762.05" style="fill:#0843ff"/><path d="M205.82,776.68a18.92,18.92,0,0,0,2.62-2.92,7.67,7.67,0,0,0,1.19-2.48,9.51,9.51,0,0,0,.3-2.37,6.55,6.55,0,0,0-1.14-3.87,7.46,7.46,0,0,0-3.2-2.52,12.06,12.06,0,0,0-4.8-.89,13.2,13.2,0,0,0-5.84,1.23A9.68,9.68,0,0,0,191,766.2l4.15,2.67a5.6,5.6,0,0,1,2.23-1.86,6.86,6.86,0,0,1,2.87-.6,4.66,4.66,0,0,1,2.94.79,2.75,2.75,0,0,1,1,2.27,4.73,4.73,0,0,1-.19,1.23,5.45,5.45,0,0,1-.73,1.48,9.87,9.87,0,0,1-1.65,1.83l-9.5,9v3.69h18.61V782h-10.6Z" style="fill:#0843ff"/><polygon points="231.29 776.86 231.29 772.25 225.9 772.25 225.9 776.86 219.28 776.86 230.05 762.05 224.07 762.05 212.47 777.67 212.47 781.5 225.73 781.5 225.73 786.67 231.29 786.67 231.29 781.5 235.3 781.5 235.3 776.86 231.29 776.86" style="fill:#0843ff"/><path d="M62.56,756.41V741.63H66v12h7.41v2.79Z" style="fill:#0d1e30"/><path d="M84.34,756.66a9,9,0,0,1-3.24-.57,7.76,7.76,0,0,1-2.57-1.6,7.23,7.23,0,0,1-1.69-2.43,7.88,7.88,0,0,1,0-6.08,7.12,7.12,0,0,1,1.7-2.43,7.8,7.8,0,0,1,2.57-1.6,9.35,9.35,0,0,1,6.43,0,7.61,7.61,0,0,1,2.55,1.6,7.58,7.58,0,0,1,0,11,7.75,7.75,0,0,1-2.55,1.59A8.79,8.79,0,0,1,84.34,756.66Zm0-2.91a4.87,4.87,0,0,0,1.82-.34,4.43,4.43,0,0,0,1.47-1,4.39,4.39,0,0,0,1-1.5,5.44,5.44,0,0,0,0-3.84,4.36,4.36,0,0,0-1-1.5,4.15,4.15,0,0,0-1.46-1,4.86,4.86,0,0,0-1.84-.34,4.77,4.77,0,0,0-1.83.34,4.34,4.34,0,0,0-1.46,1,4.41,4.41,0,0,0-1,1.5,5.56,5.56,0,0,0,0,3.83,4.58,4.58,0,0,0,1,1.51,4.29,4.29,0,0,0,1.46,1A5.06,5.06,0,0,0,84.32,753.75Z" style="fill:#0d1e30"/><path d="M104.16,756.66a8.93,8.93,0,0,1-3.18-.56,7.37,7.37,0,0,1-4.22-4,8.1,8.1,0,0,1,0-6.12,7.23,7.23,0,0,1,1.69-2.43,7.49,7.49,0,0,1,2.54-1.59,9.41,9.41,0,0,1,6.66.1,6.85,6.85,0,0,1,2.61,2l-2.2,2a5.05,5.05,0,0,0-1.69-1.3,4.81,4.81,0,0,0-2-.43,5.1,5.1,0,0,0-1.9.34,4.22,4.22,0,0,0-1.5,1,4.39,4.39,0,0,0-1,1.5,5.44,5.44,0,0,0,0,3.84,4.31,4.31,0,0,0,2.48,2.47,5.3,5.3,0,0,0,1.9.34,4.67,4.67,0,0,0,2-.44,4.76,4.76,0,0,0,1.69-1.32l2.2,2a6.85,6.85,0,0,1-2.61,2A8.66,8.66,0,0,1,104.16,756.66Z" style="fill:#0d1e30"/><path d="M112.43,756.41,119,741.63h3.37L129,756.41h-3.59l-5.4-13h1.35l-5.42,13Zm3.29-3.17.91-2.6h7.6l.93,2.6Z" style="fill:#0d1e30"/><path d="M135,756.41v-12h-4.72v-2.79h12.87v2.79h-4.73v12Z" style="fill:#0d1e30"/><path d="M147.07,756.41V741.63h3.42v14.78Z" style="fill:#0d1e30"/><path d="M163.28,756.66a9,9,0,0,1-3.24-.57,7.91,7.91,0,0,1-2.58-1.6,7.38,7.38,0,0,1-1.69-2.43,8,8,0,0,1,0-6.08,7.26,7.26,0,0,1,1.7-2.43,7.74,7.74,0,0,1,2.58-1.6,9.32,9.32,0,0,1,6.42,0,7.76,7.76,0,0,1,2.56,1.6,7.63,7.63,0,0,1,1.7,2.42,7.42,7.42,0,0,1,.61,3A7.41,7.41,0,0,1,169,754.5a7.9,7.9,0,0,1-2.56,1.59A8.7,8.7,0,0,1,163.28,756.66Zm0-2.91a4.87,4.87,0,0,0,1.82-.34,4.43,4.43,0,0,0,1.47-1,4.39,4.39,0,0,0,1-1.5,5.44,5.44,0,0,0,0-3.84,4.51,4.51,0,0,0-1-1.5,4.28,4.28,0,0,0-1.47-1,5.09,5.09,0,0,0-3.66,0A4.38,4.38,0,0,0,159,747.1a5.41,5.41,0,0,0,0,3.83,4.56,4.56,0,0,0,1,1.51,4.43,4.43,0,0,0,1.47,1A5,5,0,0,0,163.26,753.75Z" style="fill:#0d1e30"/><path d="M176,756.41V741.63h2.82l8.72,10.64H186.2V741.63h3.38v14.78h-2.81L178,745.77h1.37v10.64Z" style="fill:#0d1e30"/><path d="M224.67,748.87l1.78-1.79-2.34-2.34a16.47,16.47,0,1,1,2.75-2.58l2.25,2.26,1.79-1.78,2.21,2.21A23.14,23.14,0,0,0,237,735.7v-.06c0-.14.05-.28.08-.42l0-.14c0-.12,0-.24.05-.37l0-.18c0-.11,0-.22,0-.33l0-.23,0-.28,0-.28c0-.08,0-.17,0-.25s0-.2,0-.3,0-.16,0-.23,0-.21,0-.32,0-.15,0-.22,0-.21,0-.31V731a2.09,2.09,0,0,0,0-.25v-.3a1,1,0,0,1,0-.17c0-.13,0-.25,0-.38v0a23,23,0,0,0-22.89-21.66h-.33a23,23,0,0,0-22.89,21.65v0c0,.13,0,.25,0,.38a1,1,0,0,0,0,.17c0,.1,0,.2,0,.3a2.09,2.09,0,0,1,0,.25v.55c0,.07,0,.15,0,.23s0,.2,0,.31v.22c0,.11,0,.21,0,.32s0,.15,0,.23l0,.3a2.11,2.11,0,0,0,0,.25c0,.09,0,.18,0,.28l0,.28,0,.24a3.11,3.11,0,0,1,0,.32l0,.19.06.36,0,.14c0,.14.05.28.08.42v.06a23,23,0,0,0,6,11.61c.22.22.44.46.64.7l.18.21L214.28,767l.06-.07.06.07,13-15.36Z" style="fill:#0843ff;fill-rule:evenodd"/><path d="M214.19,743.93a12,12,0,0,1-8.52-3.51,12.41,12.41,0,0,1,8.67-21.27,12.24,12.24,0,0,1,8.73,3.63,12.57,12.57,0,0,1,3.66,8.73h0a11.92,11.92,0,0,1-3.44,8.57,12.58,12.58,0,0,1-8.92,3.85Zm.15-21a8.6,8.6,0,0,0-6,14.74,8.32,8.32,0,0,0,6,2.42,8.85,8.85,0,0,0,6.25-2.69,8.21,8.21,0,0,0,2.36-5.86h0A8.6,8.6,0,0,0,214.34,723Z" style="fill:#0d1e30"/><rect x="214.87" y="731.88" width="2.59" height="2.59" transform="translate(-517.31 948.35) rotate(-89.92)" style="fill:#0843ff"/><rect x="211.2" y="731.88" width="2.59" height="2.59" transform="translate(-520.96 944.68) rotate(-89.92)" style="fill:#0843ff"/><rect x="211.21" y="728.22" width="2.59" height="2.59" transform="matrix(0, -1, 1, 0, -517.29, 941.03)" style="fill:#0843ff"/><rect x="214.87" y="728.22" width="2.59" height="2.59" transform="translate(-513.64 944.7) rotate(-89.92)" style="fill:#0843ff"/></g></g></svg>