<svg xmlns="http://www.w3.org/2000/svg" viewBox="0 0 221.41 205.53"><g id="Layer_2" data-name="Layer 2"><g id="Layer_1-2" data-name="Layer 1"><path d="M21.28,25.09,17,8.14l-4.3,17H7.07L0,.41H5.88l4.33,17.83L14.91.41H19l4.66,17.83L28,.41h5.88l-7,24.68Z" style="fill:#fff"/><path d="M36.37,25.09V.41H53.84V5H41.63v5.18H53.58v4.63H41.63v5.62H53.84v4.63Z" style="fill:#fff"/><path d="M67.45,25.09V.41H79c5.36,0,8.28,3.62,8.28,8s-3,7.92-8.28,7.92H72.71v8.81ZM81.92,8.36C81.92,6.29,80.33,5,78.26,5H72.71v6.63h5.55C80.33,11.66,81.92,10.4,81.92,8.36Z" style="fill:#fff"/><path d="M104.53,25.09l-4.85-8.77H95.83v8.77H90.58V.41h11.54c5.14,0,8.33,3.36,8.33,8A7.15,7.15,0,0,1,105,15.69l5.58,9.4ZM105,8.33c0-2-1.59-3.3-3.66-3.3H95.83v6.66h5.55A3.34,3.34,0,0,0,105,8.33Z" style="fill:#fff"/><path d="M113.18,12.77C113.18,5.33,118.62,0,126.1,0S139,5.33,139,12.77s-5.44,12.76-12.87,12.76S113.18,20.2,113.18,12.77Zm20.39,0c0-4.63-2.92-8.11-7.47-8.11s-7.52,3.48-7.52,8.11,2.93,8.1,7.52,8.1S133.57,17.35,133.57,12.77Z" style="fill:#fff"/><path d="M148.85,25.09,139.34.41h6l6.84,18.94L159,.41h6l-9.51,24.68Z" style="fill:#fff"/><path d="M167.24,25.09V.41h5.25V25.09Z" style="fill:#fff"/><path d="M177.38,25.09V.41h9.73c7.73,0,13.1,4.92,13.1,12.32s-5.37,12.36-13.06,12.36Zm17.46-12.36c0-4.33-2.66-7.7-7.69-7.7h-4.52V20.46h4.48A7.39,7.39,0,0,0,194.84,12.73Z" style="fill:#fff"/><path d="M203.94,25.09V.41h17.47V5H209.2v5.18h12v4.63h-12v5.62h12.21v4.63Z" style="fill:#fff"/><path d="M11,48.77C11,41.14,16.76,36,24.2,36a11.22,11.22,0,0,1,10.29,6L30,44.25a6.66,6.66,0,0,0-5.77-3.59c-4.52,0-7.77,3.44-7.77,8.11s3.25,8.1,7.77,8.1A6.66,6.66,0,0,0,30,53.28l4.52,2.18A11.32,11.32,0,0,1,24.2,61.53C16.76,61.53,11,56.35,11,48.77Z" style="fill:#fff"/><path d="M37.41,61.09V36.41H42.7V56.46H53.13v4.63Z" style="fill:#fff"/><path d="M56.68,61.09V36.41H74.15V41H61.94v5.18h12v4.63h-12v5.62H74.15v4.63Z" style="fill:#fff"/><path d="M95.31,61.09l-1.55-4.18H83.18l-1.56,4.18h-6l9.51-24.68h6.59l9.51,24.68ZM88.47,41.66,84.62,52.28h7.7Z" style="fill:#fff"/><path d="M117.51,61.09l-4.84-8.77h-3.85v8.77h-5.26V36.41h11.55c5.14,0,8.32,3.36,8.32,8A7.14,7.14,0,0,1,118,51.69l5.59,9.4ZM118,44.33c0-2-1.59-3.3-3.66-3.3h-5.55v6.66h5.55A3.34,3.34,0,0,0,118,44.33Z" style="fill:#fff"/><path d="M153.92,61.09l-1.55-4.18H141.78l-1.55,4.18h-6l9.51-24.68h6.59l9.51,24.68Zm-6.85-19.43-3.84,10.62h7.69Z" style="fill:#fff"/><path d="M179.19,61.09,167.42,45v16.1h-5.25V36.41h5.4L179,51.91V36.41h5.26V61.09Z" style="fill:#fff"/><path d="M189.14,61.09V36.41h9.73c7.74,0,13.1,4.92,13.1,12.32s-5.36,12.36-13.06,12.36Zm17.47-12.36c0-4.33-2.67-7.7-7.7-7.7H194.4V56.46h4.47A7.4,7.4,0,0,0,206.61,48.73Z" style="fill:#fff"/><path d="M35.08,97.09l-1.56-4.18H22.94l-1.55,4.18h-6l9.51-24.68h6.58L41,97.09ZM28.23,77.66,24.38,88.28h7.7Z" style="fill:#fff"/><path d="M40.88,84.77C40.88,77.14,46.62,72,54.06,72a11.2,11.2,0,0,1,10.28,6l-4.51,2.22a6.68,6.68,0,0,0-5.77-3.59c-4.52,0-7.77,3.44-7.77,8.11s3.25,8.1,7.77,8.1a6.68,6.68,0,0,0,5.77-3.59l4.51,2.18a11.3,11.3,0,0,1-10.28,6.07C46.62,97.53,40.88,92.35,40.88,84.77Z" style="fill:#fff"/><path d="M66.3,84.77C66.3,77.14,72,72,79.48,72a11.2,11.2,0,0,1,10.28,6l-4.51,2.22a6.68,6.68,0,0,0-5.77-3.59c-4.52,0-7.77,3.44-7.77,8.11s3.25,8.1,7.77,8.1a6.68,6.68,0,0,0,5.77-3.59l4.51,2.18a11.3,11.3,0,0,1-10.28,6.07C72,97.53,66.3,92.35,66.3,84.77Z" style="fill:#fff"/><path d="M92.91,87.21V72.41h5.32V87.06c0,3.44,2,5.81,5.81,5.81s5.78-2.37,5.78-5.81V72.41h5.36v14.8c0,6.1-3.62,10.32-11.14,10.32S92.91,93.31,92.91,87.21Z" style="fill:#fff"/><path d="M134,97.09l-4.84-8.77h-3.85v8.77h-5.26V72.41h11.55c5.14,0,8.32,3.36,8.32,8a7.14,7.14,0,0,1-5.43,7.33l5.58,9.4Zm.52-16.76c0-2-1.59-3.3-3.66-3.3h-5.55v6.66h5.55A3.34,3.34,0,0,0,134.53,80.33Z" style="fill:#fff"/><path d="M160.91,97.09l-1.55-4.18H148.78l-1.56,4.18h-6l9.51-24.68h6.59l9.51,24.68Zm-6.84-19.43-3.85,10.62h7.7Z" style="fill:#fff"/><path d="M172.49,97.09V77h-7.21V72.41H185V77h-7.18V97.09Z" style="fill:#fff"/><path d="M188.33,97.09V72.41h17.46V77H193.58v5.18h11.95v4.63H193.58v5.62h12.21v4.63Z" style="fill:#fff"/><path d="M14.84,133.09V108.41H26.38c5.37,0,8.29,3.62,8.29,8s-3,7.92-8.29,7.92H20.09v8.81ZM29.3,116.36c0-2.07-1.59-3.33-3.66-3.33H20.09v6.63h5.55C27.71,119.66,29.3,118.4,29.3,116.36Z" style="fill:#fff"/><path d="M51.91,133.09l-4.85-8.77H43.22v8.77H38V108.41H49.51c5.14,0,8.32,3.36,8.32,8a7.14,7.14,0,0,1-5.44,7.33l5.59,9.4Zm.52-16.76c0-2-1.59-3.3-3.66-3.3H43.22v6.66h5.55A3.34,3.34,0,0,0,52.43,116.33Z" style="fill:#fff"/><path d="M60.57,120.77C60.57,113.33,66,108,73.48,108s12.88,5.33,12.88,12.77-5.44,12.76-12.88,12.76S60.57,128.2,60.57,120.77Zm20.39,0c0-4.63-2.93-8.11-7.48-8.11S66,116.14,66,120.77s2.92,8.1,7.51,8.1S81,125.35,81,120.77Z" style="fill:#fff"/><path d="M90.06,133.09V108.41H101.6c5.37,0,8.29,3.62,8.29,8s-3,7.92-8.29,7.92H95.31v8.81Zm14.47-16.73c0-2.07-1.6-3.33-3.67-3.33H95.31v6.63h5.55C102.93,119.66,104.53,118.4,104.53,116.36Z" style="fill:#fff"/><path d="M113.18,133.09V108.41h17.47V113H118.44v5.18h11.95v4.63H118.44v5.62h12.21v4.63Z" style="fill:#fff"/><path d="M148.7,133.09l-4.84-8.77H140v8.77h-5.26V108.41H146.3c5.14,0,8.32,3.36,8.32,8a7.14,7.14,0,0,1-5.44,7.33l5.59,9.4Zm.52-16.76c0-2-1.59-3.3-3.66-3.3H140v6.66h5.55A3.34,3.34,0,0,0,149.22,116.33Z" style="fill:#fff"/><path d="M163.87,133.09V113h-7.21v-4.62h19.68V113h-7.18v20.06Z" style="fill:#fff"/><path d="M186.59,133.09V123l-9.47-14.58h6l6.11,9.88,6.1-9.88h6L191.84,123v10.1Z" style="fill:#fff"/><path d="M23,169.09V144.41h5.29v20.05H38.76v4.63Z" style="fill:#fff"/><path d="M40.13,156.77C40.13,149.33,45.56,144,53,144s12.88,5.33,12.88,12.77S60.48,169.53,53,169.53,40.13,164.2,40.13,156.77Zm20.38,0c0-4.63-2.92-8.11-7.47-8.11s-7.51,3.48-7.51,8.11,2.92,8.1,7.51,8.1S60.51,161.35,60.51,156.77Z" style="fill:#fff"/><path d="M68.43,156.77c0-7.63,5.74-12.77,13.17-12.77a11.21,11.21,0,0,1,10.29,6l-4.51,2.22a6.69,6.69,0,0,0-5.78-3.59c-4.51,0-7.77,3.44-7.77,8.11s3.26,8.1,7.77,8.1a6.69,6.69,0,0,0,5.78-3.59l4.51,2.18a11.31,11.31,0,0,1-10.29,6.07C74.17,169.53,68.43,164.35,68.43,156.77Z" style="fill:#fff"/><path d="M111.83,169.09l-1.55-4.18H99.7l-1.56,4.18h-6l9.5-24.68h6.59l9.51,24.68ZM105,149.66l-3.85,10.62h7.7Z" style="fill:#fff"/><path d="M123.41,169.09V149H116.2v-4.62h19.68V149h-7.17v20.06Z" style="fill:#fff"/><path d="M139.25,169.09V144.41h5.25v24.68Z" style="fill:#fff"/><path d="M148.2,156.77c0-7.44,5.44-12.77,12.92-12.77S174,149.33,174,156.77s-5.44,12.76-12.87,12.76S148.2,164.2,148.2,156.77Zm20.39,0c0-4.63-2.92-8.11-7.47-8.11s-7.52,3.48-7.52,8.11,2.93,8.1,7.52,8.1S168.59,161.35,168.59,156.77Z" style="fill:#fff"/><path d="M194.71,169.09,183,153v16.1h-5.26V144.41h5.4l11.44,15.5v-15.5h5.25v24.68Z" style="fill:#fff"/><path d="M46.07,205.09l-4.85-8.77H37.37v8.77H32.12V180.41H43.66c5.14,0,8.33,3.36,8.33,8a7.15,7.15,0,0,1-5.44,7.33l5.58,9.4Zm.51-16.76c0-2-1.59-3.3-3.66-3.3H37.37v6.66h5.55A3.34,3.34,0,0,0,46.58,188.33Z" style="fill:#fff"/><path d="M55.91,205.09V180.41H73.37V185H61.16v5.18h12v4.63h-12v5.62H73.37v4.63Z" style="fill:#fff"/><path d="M77.48,205.09V180.41H89c5.37,0,8.29,3.62,8.29,8s-3,7.92-8.29,7.92H82.73v8.81Zm14.46-16.73c0-2.07-1.59-3.33-3.66-3.33H82.73v6.63h5.55C90.35,191.66,91.94,190.4,91.94,188.36Z" style="fill:#fff"/><path d="M99.42,192.77c0-7.44,5.44-12.77,12.91-12.77s12.88,5.33,12.88,12.77-5.44,12.76-12.88,12.76S99.42,200.2,99.42,192.77Zm20.39,0c0-4.63-2.93-8.11-7.48-8.11s-7.51,3.48-7.51,8.11,2.92,8.1,7.51,8.1S119.81,197.35,119.81,192.77Z" style="fill:#fff"/><path d="M142.86,205.09,138,196.32h-3.85v8.77h-5.25V180.41h11.54c5.14,0,8.33,3.36,8.33,8a7.15,7.15,0,0,1-5.44,7.33l5.58,9.4Zm.52-16.76c0-2-1.6-3.3-3.67-3.3h-5.55v6.66h5.55C141.78,191.69,143.38,190.44,143.38,188.33Z" style="fill:#fff"/><path d="M158,205.09V185h-7.22v-4.62H170.5V185h-7.18v20.06Z" style="fill:#fff"/><path d="M171.9,201.61l2.89-4.11a10.86,10.86,0,0,0,7.84,3.37c2.92,0,4.29-1.3,4.29-2.74,0-4.29-14.21-1.29-14.21-10.58,0-4.11,3.56-7.51,9.37-7.51a13.73,13.73,0,0,1,9.62,3.44l-2.93,3.92a10.58,10.58,0,0,0-7.18-2.7c-2.22,0-3.47,1-3.47,2.44,0,3.89,14.17,1.26,14.17,10.47,0,4.52-3.26,7.92-9.88,7.92C177.64,205.53,174.23,203.94,171.9,201.61Z" style="fill:#fff"/></g></g></svg>