<svg xmlns="http://www.w3.org/2000/svg" viewBox="0 0 199.88 157.32"><g id="Layer_2" data-name="Layer 2"><g id="Layer_1-2" data-name="Layer 1"><path d="M13.3,27.8V.5h9.76a10,10,0,0,1,6.52,1.92,6.7,6.7,0,0,1,2.35,5.46,7.18,7.18,0,0,1-.8,3.33A5.61,5.61,0,0,1,29,13.53c2.55,1.05,3.82,3.1,3.82,6.12a8.42,8.42,0,0,1-.73,3.6,6.61,6.61,0,0,1-2,2.56,9.12,9.12,0,0,1-3,1.49,13,13,0,0,1-3.67.5ZM20,11.24h2.84a2.17,2.17,0,0,0,1.73-.71,2.82,2.82,0,0,0,.61-1.87,2.53,2.53,0,0,0-.61-1.78,2.34,2.34,0,0,0-1.8-.65H20Zm0,10.83h3.22a2.57,2.57,0,0,0,2-.8,2.89,2.89,0,0,0,.72-2,2.83,2.83,0,0,0-.7-2,2.56,2.56,0,0,0-2-.75H20Z" style="fill:#0843ff"/><path d="M36.12,17.31V.5h6.66V17.31a4.76,4.76,0,0,0,1.27,3.51,4.66,4.66,0,0,0,3.49,1.29A4.56,4.56,0,0,0,51,20.82a5,5,0,0,0,1.22-3.55V.5h6.66V17.27a12.4,12.4,0,0,1-.77,4.42,9.66,9.66,0,0,1-5.8,5.77,13.35,13.35,0,0,1-4.82.82q-5.39,0-8.39-3A10.75,10.75,0,0,1,36.12,17.31Z" style="fill:#0843ff"/><path d="M61.44.5H69l4.18,8.93L77.44.5h7.37l-8.34,15V27.8H69.8V15.48Z" style="fill:#0843ff"/><path d="M87.42,27.8V.5h6.66V27.8Z" style="fill:#0843ff"/><path d="M98.84,27.8V.5h6.74l10,16.92V.5h6.51V27.8H115.5L105.36,11.06V27.8Z" style="fill:#0843ff"/><path d="M125.58,14.12A14.44,14.44,0,0,1,127.36,7a13.19,13.19,0,0,1,5-5.11A14.6,14.6,0,0,1,139.83,0a17.78,17.78,0,0,1,3.5.33,14.19,14.19,0,0,1,2.8.84,12.49,12.49,0,0,1,2.16,1.18,12.65,12.65,0,0,1,1.6,1.25A14.8,14.8,0,0,1,151,4.78l-4.22,4.35a7.49,7.49,0,0,0-.8-.8,10,10,0,0,0-1.32-1,7.79,7.79,0,0,0-2-.87,8.87,8.87,0,0,0-2.47-.34,7.34,7.34,0,0,0-5.63,2.21A7.91,7.91,0,0,0,132.45,14a8.07,8.07,0,0,0,2.19,5.92,7.36,7.36,0,0,0,5.5,2.23,11.35,11.35,0,0,0,3.76-.55A6.2,6.2,0,0,0,146,20.53V18.21h-4.71V12.47h10.91V24a26.5,26.5,0,0,1-2.33,1.64A23.46,23.46,0,0,1,147.25,27a14.73,14.73,0,0,1-3.42,1,23.32,23.32,0,0,1-4.15.34,15,15,0,0,1-5.45-1,13.74,13.74,0,0,1-4.49-2.8,12.82,12.82,0,0,1-3-4.5A15.16,15.16,0,0,1,125.58,14.12Z" style="fill:#0843ff"/><path d="M161.72,27.8,171.17.5h7l9.43,27.3h-6.7L179,21.65h-8.59l-1.95,6.15ZM172.1,16.22h5.14l-2.57-8.66Z" style="fill:#0843ff"/><path d="M11.71,70.8V43.5h6.74l10,16.92V43.5H35V70.8H28.37L18.22,54.06V70.8Z" style="fill:#0843ff"/><path d="M39.78,70.8V43.5H54.33v6H46.45V54h6.7v6h-6.7v4.85h8.18v6Z" style="fill:#0843ff"/><path d="M56.58,43.5h7.14l4.11,19.22L72.65,43.5h6l4.77,19.22L87.6,43.5h7.14l-7.1,27.3H80.06L75.6,53.4,71.12,70.8H63.68Z" style="fill:#0843ff"/><path d="M105.08,70.8V43.5H114c3.19,0,5.59.71,7.18,2.14a7.94,7.94,0,0,1,2.4,6.25,9.29,9.29,0,0,1-1,4.27,6.76,6.76,0,0,1-2.82,3L126,70.8h-7.37l-4.89-10.09h-2V70.8Zm6.66-15.67h2a2.9,2.9,0,0,0,2.17-.81,3,3,0,0,0,.79-2.2,2.85,2.85,0,0,0-.77-2.15,3.47,3.47,0,0,0-2.51-.74h-1.68Z" style="fill:#0843ff"/><path d="M128.67,70.8V43.5h14.55v6h-7.88V54H142v6h-6.7v4.85h8.19v6Z" style="fill:#0843ff"/><path d="M145.39,70.8l9.45-27.3h7l9.42,27.3h-6.7l-1.94-6.15h-8.59l-1.94,6.15Zm10.38-11.58h5.14l-2.57-8.66Z" style="fill:#0843ff"/><path d="M173.94,70.8V43.5h6.66V64.82h8.19v6Z" style="fill:#0843ff"/><path d="M41.81,113.8V86.5H56.36v6H48.47V97h6.71v6H48.47v4.85h8.19v6Z" style="fill:#0843ff"/><path d="M59,107.8,64.55,105a6.11,6.11,0,0,0,1.69,2.17,3.73,3.73,0,0,0,2.4.87,2.82,2.82,0,0,0,1.8-.49,1.71,1.71,0,0,0,.62-1.41,1.82,1.82,0,0,0-.63-1.33,6.68,6.68,0,0,0-1.62-1.12c-.66-.33-1.39-.68-2.2-1a19.76,19.76,0,0,1-2.42-1.3A14.05,14.05,0,0,1,62,99.71a6.64,6.64,0,0,1-1.62-2.37,7.93,7.93,0,0,1-.63-3.21,7.58,7.58,0,0,1,2.45-5.91A9.32,9.32,0,0,1,68.72,86a9.91,9.91,0,0,1,3.09.47,8.37,8.37,0,0,1,2.36,1.14,9.35,9.35,0,0,1,1.66,1.61A10.27,10.27,0,0,1,77,90.87a9.37,9.37,0,0,1,.62,1.47L72,94.87c-.18-.38-.35-.7-.5-1a5.51,5.51,0,0,0-.63-.83,2.54,2.54,0,0,0-1-.68,3.47,3.47,0,0,0-1.33-.24,2.27,2.27,0,0,0-1.55.52,1.68,1.68,0,0,0-.6,1.32A1.9,1.9,0,0,0,67,95.38a6.55,6.55,0,0,0,1.63,1.12c.67.33,1.41.68,2.22,1a23.37,23.37,0,0,1,2.45,1.23,13.56,13.56,0,0,1,2.23,1.59,6.68,6.68,0,0,1,1.64,2.25,7.3,7.3,0,0,1,.63,3.07,8.18,8.18,0,0,1-2.59,6.25,9.91,9.91,0,0,1-7,2.41,10.3,10.3,0,0,1-3.25-.49,8.55,8.55,0,0,1-2.46-1.2A9.76,9.76,0,0,1,60.78,111a10,10,0,0,1-1.17-1.69A8.69,8.69,0,0,1,59,107.8Z" style="fill:#0843ff"/><path d="M79.67,92.47v-6H98.12v6h-5.9V113.8H85.55V92.47Z" style="fill:#0843ff"/><path d="M96.73,113.8l9.44-27.3h7l9.43,27.3h-6.71L114,107.65h-8.59l-1.94,6.15Zm10.38-11.58h5.14l-2.57-8.66Z" style="fill:#0843ff"/><path d="M121.26,92.47v-6h18.45v6h-5.9V113.8h-6.67V92.47Z" style="fill:#0843ff"/><path d="M142.85,113.8V86.5H157.4v6h-7.88V97h6.7v6h-6.7v4.85h8.19v6Z" style="fill:#0843ff"/><path d="M0,156.8V129.5H9.81a8.66,8.66,0,0,1,6.46,2.37,8.77,8.77,0,0,1,2.34,6.44,8.9,8.9,0,0,1-2.41,6.47,8.46,8.46,0,0,1-6.35,2.46H6.67v9.56Zm6.67-15.29H8.86a2.73,2.73,0,0,0,2.19-.88,3.34,3.34,0,0,0,.78-2.32,3.2,3.2,0,0,0-.78-2.24,2.73,2.73,0,0,0-2.12-.84H6.67Z" style="fill:#0843ff"/><path d="M21.79,156.8V129.5H30.7q4.79,0,7.18,2.14a7.94,7.94,0,0,1,2.4,6.25,9.29,9.29,0,0,1-1,4.27,6.82,6.82,0,0,1-2.82,3l6.28,11.69H35.37l-4.88-10.09h-2V156.8Zm6.66-15.67h2a2.89,2.89,0,0,0,2.16-.81,3,3,0,0,0,.79-2.2,2.85,2.85,0,0,0-.76-2.15,3.5,3.5,0,0,0-2.51-.74H28.45Z" style="fill:#0843ff"/><path d="M44,143.12A14.63,14.63,0,0,1,45.77,136a12.91,12.91,0,0,1,5-5.08,15.94,15.94,0,0,1,15,0,13,13,0,0,1,5,5.08,14.63,14.63,0,0,1,1.76,7.16,14.87,14.87,0,0,1-1.76,7.22,13,13,0,0,1-5,5.1,15.94,15.94,0,0,1-15,0,12.9,12.9,0,0,1-5-5.1A14.87,14.87,0,0,1,44,143.12Zm7,0A8.1,8.1,0,0,0,53,148.83a7.39,7.39,0,0,0,10.6,0,8.1,8.1,0,0,0,2.07-5.71,8,8,0,0,0-2.07-5.64,7.41,7.41,0,0,0-10.6,0A8,8,0,0,0,51,143.12Z" style="fill:#0843ff"/><path d="M76.1,156.8V129.5h9.8a8.66,8.66,0,0,1,6.46,2.37,8.77,8.77,0,0,1,2.34,6.44,8.89,8.89,0,0,1-2.4,6.47A8.47,8.47,0,0,1,86,147.24H82.76v9.56Zm6.66-15.29H85a2.76,2.76,0,0,0,2.2-.88,3.33,3.33,0,0,0,.77-2.32,3.19,3.19,0,0,0-.77-2.24,2.73,2.73,0,0,0-2.12-.84H82.76Z" style="fill:#0843ff"/><path d="M97.88,156.8V129.5h14.55v6h-7.88V140h6.7v6h-6.7v4.85h8.18v6Z" style="fill:#0843ff"/><path d="M116.79,156.8V129.5h8.91c3.2,0,5.59.71,7.19,2.14a8,8,0,0,1,2.39,6.25,9.29,9.29,0,0,1-1,4.27,6.71,6.71,0,0,1-2.82,3l6.28,11.69h-7.37l-4.89-10.09h-2V156.8Zm6.67-15.67h2a2.89,2.89,0,0,0,2.16-.81,3,3,0,0,0,.79-2.2,2.89,2.89,0,0,0-.76-2.15,3.52,3.52,0,0,0-2.52-.74h-1.67Z" style="fill:#0843ff"/><path d="M137.93,135.47v-6h18.45v6h-5.9V156.8h-6.67V135.47Z" style="fill:#0843ff"/><path d="M158.5,129.5H166l4.19,8.93,4.3-8.93h7.37l-8.34,15V156.8h-6.67V144.48Z" style="fill:#0843ff"/><path d="M182.52,134.66a8.69,8.69,0,0,1,.62-1.44,8.5,8.5,0,0,1,1.09-1.5,8,8,0,0,1,1.59-1.37,8.45,8.45,0,0,1,2.25-1,10.78,10.78,0,0,1,3-.39,9.49,9.49,0,0,1,6.36,2.11,6.94,6.94,0,0,1,2.48,5.53,6.62,6.62,0,0,1-.35,2.14,6.79,6.79,0,0,1-.91,1.76,15,15,0,0,1-1.24,1.42c-.46.45-.91.87-1.37,1.27a13.94,13.94,0,0,0-1.23,1.17,5.35,5.35,0,0,0-.89,1.26,3.16,3.16,0,0,0-.34,1.39v1.52h-6.4v-2a6.07,6.07,0,0,1,.34-2,6.37,6.37,0,0,1,.87-1.64,14.65,14.65,0,0,1,1.17-1.33c.43-.42.86-.8,1.29-1.16s.83-.71,1.18-1.05a4.53,4.53,0,0,0,.87-1.11,2.37,2.37,0,0,0,.34-1.22,2.27,2.27,0,0,0-.67-1.67,2.6,2.6,0,0,0-1.94-.68,3.21,3.21,0,0,0-1.2.21,2.2,2.2,0,0,0-.87.62,6.87,6.87,0,0,0-.52.69,5.59,5.59,0,0,0-.39.72Zm4.37,18.79a4.32,4.32,0,0,1,.9-2.76,3,3,0,0,1,2.54-1.14,3.75,3.75,0,0,1,2.77,1.14,3.82,3.82,0,0,1,1.12,2.76,3.91,3.91,0,0,1-3.89,3.87,3.13,3.13,0,0,1-2.43-1.14A3.91,3.91,0,0,1,186.89,153.45Z" style="fill:#0843ff"/></g></g></svg>