<svg xmlns="http://www.w3.org/2000/svg" xmlns:xlink="http://www.w3.org/1999/xlink" viewBox="0 0 270.43 119.91"><defs><style>.cls-1{isolation:isolate;}.cls-2{fill:url(#Áåçûìÿííûé_ãðàäèåíò_262);}.cls-3{fill:#570048;opacity:0.3;mix-blend-mode:multiply;}.cls-4,.cls-7{fill:#dfdfa1;mix-blend-mode:soft-light;}.cls-4{opacity:0.51;}.cls-5{fill:#680b23;}.cls-6{fill:#01afdc;}.cls-7{opacity:0.16;}.cls-8{fill:#65152e;}.cls-9{fill:#c64f59;}.cls-10{fill:#c6685f;}.cls-11{fill:url(#Áåçûìÿííûé_ãðàäèåíò_262-2);}.cls-12{fill:url(#Áåçûìÿííûé_ãðàäèåíò_262-3);}.cls-13{opacity:0.61;mix-blend-mode:screen;fill:url(#Áåçûìÿííûé_ãðàäèåíò_163);}</style><linearGradient id="Áåçûìÿííûé_ãðàäèåíò_262" x1="163.08" y1="119.91" x2="163.08" gradientUnits="userSpaceOnUse"><stop offset="0" stop-color="#91151e"/><stop offset="1" stop-color="#a12622"/></linearGradient><linearGradient id="Áåçûìÿííûé_ãðàäèåíò_262-2" x1="251.1" y1="114.96" x2="251.1" y2="98.77" xlink:href="#Áåçûìÿííûé_ãðàäèåíò_262"/><linearGradient id="Áåçûìÿííûé_ãðàäèåíò_262-3" x1="21.85" y1="119.68" x2="21.85" y2="109.23" xlink:href="#Áåçûìÿííûé_ãðàäèåíò_262"/><radialGradient id="Áåçûìÿííûé_ãðàäèåíò_163" cx="130.56" cy="77.11" r="29.83" gradientUnits="userSpaceOnUse"><stop offset="0" stop-color="#005eff"/><stop offset="0.12" stop-color="#004dd1"/><stop offset="0.3" stop-color="#003692"/><stop offset="0.48" stop-color="#00235e"/><stop offset="0.64" stop-color="#001435"/><stop offset="0.78" stop-color="#000918"/><stop offset="0.91" stop-color="#000206"/><stop offset="1"/></radialGradient></defs><g class="cls-1"><g id="Layer_2" data-name="Layer 2"><g id="space"><path class="cls-2" d="M78.4,117l39.07,3,31.63-1.43-16-2.4,18.4-1.6h96.25l-37-3.1-7.44-8.55-13.19-2.75-6.44-1.42-10.12-2,4.51-46.09-1.06-3.28V15.6L161.39,0l-5.12,14.88L146,23.25l-9.2,40.85s-14.71,3.69-23.15,13.5V98.77l-4,4.06-2.61,9-5.53,1.3Z"/><polygon class="cls-3" points="113.64 77.6 118.14 83.67 118.14 90.1 123.51 92.33 123.51 112.69 114.89 108.64 113.64 98.77 113.64 77.6"/><polygon class="cls-3" points="107.04 111.8 113.64 117.41 82.35 117.25 107.04 111.8"/><polygon class="cls-3" points="136.79 64.11 147.47 68.61 150.4 100.53 153.08 52.52 153.08 28.81 145.99 23.25 136.79 64.11"/><polygon class="cls-3" points="156.27 14.88 159.66 15.88 157.97 43.84 163.08 14.83 158.43 8.61 156.27 14.88"/><path class="cls-4" d="M118.14,83.67s4.47.83,13.37-1.6,16-13.46,16-13.46L136.79,64.1s-11.65,1.72-23.15,13.5Z"/><polygon class="cls-4" points="109.65 102.83 112.01 107.42 114.89 108.64 113.64 98.77 109.65 102.83"/><polygon class="cls-4" points="153.08 28.81 156.27 26.22 156.27 24.54 159.66 15.88 156.27 14.88 145.99 23.25 153.08 28.81"/><polygon class="cls-4" points="158.43 8.61 163.08 14.83 169.55 15.88 170.39 14.88 171.83 14.88 177.05 15.6 161.39 0 158.43 8.61"/><polygon class="cls-4" points="177.2 48.06 173.31 52.65 161.96 54.11 158.43 57.15 163.08 55.57 174.11 55.57 174.11 59.07 178.11 50.61 177.2 48.06"/><polygon class="cls-4" points="173.6 96.69 154.71 103.7 171.83 105.14 171.83 106.44 183.14 106.44 205.08 106.44 203.35 102.83 173.6 96.69"/><polygon class="cls-3" points="154.71 103.7 154.71 109.85 156.27 109.85 155.49 114.48 169.55 114.8 171.83 106.44 171.83 105.14 154.71 103.7"/><path class="cls-5" d="M143.33,68.9s-1.93,6.8-7.88,10.24-16.09,2.93-16.09,2.93-3.11-1.78-3-4.47,15.28-10.4,18.37-10.81S143.33,68.9,143.33,68.9Z"/><path class="cls-6" d="M120.33,82.09a28.27,28.27,0,0,1,9.51-7.67,20,20,0,0,1,12-2.09s-1.15,3.54-6.4,6.81S120.33,82.09,120.33,82.09Z"/><polygon class="cls-7" points="123.51 92.33 139.43 89.32 149.08 86.17 150.4 100.53 131.09 108.64 124.64 103.7 123.51 92.33"/><polygon class="cls-7" points="169.55 15.88 168.27 31.2 163.08 38.03 158.43 42.58 163.08 14.83 169.55 15.88"/><polygon class="cls-8" points="177.05 38.27 173.39 40.3 166.22 53.56 163.08 55.57 157.39 68.9 155.76 69.23 151.34 83.67 156.27 69.63 158.75 69.21 163.56 55.82 167.74 53.37 174.11 40.79 177.05 39.65 177.05 38.27"/><polygon class="cls-9" points="163.56 55.82 159.3 69.69 158.43 69.69 156.27 69.63 158.75 69.21 163.56 55.82"/><polygon class="cls-9" points="174.11 40.79 175.13 40.99 177.05 40.3 177.05 39.65 174.11 40.79"/><polygon class="cls-10" points="173.47 55.57 175.58 55.01 174.11 59.07 173.47 55.57"/><polygon class="cls-10" points="151.84 27.84 153.08 30.17 154.28 27.84 151.84 27.84"/><polygon class="cls-10" points="116.97 82.1 118.14 85.23 119.2 83.78 116.97 82.1"/><polygon class="cls-10" points="170.5 105.03 171.44 107.89 173.47 106.46 171.83 105.14 170.5 105.03"/><polygon class="cls-8" points="142.97 86.14 141.33 91.29 142.97 88.71 142.97 86.14"/><polygon class="cls-9" points="142.97 86.14 142.97 88.71 141.33 91.29 143.47 89.1 142.97 86.14"/><polygon class="cls-8" points="155.45 57.72 150.83 54.9 152.94 57.11 155.45 57.72"/><polygon class="cls-9" points="155.45 57.72 152.94 57.11 150.83 54.9 152.45 57.5 155.45 57.72"/><path class="cls-11" d="M270.43,115l-9.13-.29L232,113.73h-.19s.16-.33.45-.89v0c1.68-3.18,7.29-13.54,9.75-14h.28c2.71.36,20,7,21.22,8.17S270.43,115,270.43,115Z"/><path class="cls-12" d="M43.7,117.9l-14.05.55s-8.81.73-14.28,1.07h0a30.06,30.06,0,0,1-4.22.12c-.66-.28-9.79-1.59-11.14-1.91,0,0,7-5,11-7.3a9.38,9.38,0,0,1,2.43-1.18c1.59-.13,12.18.6,13.59,1.09.55.2,1.09,1.31,1.54,2.57A36.33,36.33,0,0,1,29.65,117Z"/><path class="cls-3" d="M15.36,119.52a30.06,30.06,0,0,1-4.22.12c-.66-.28-9.79-1.59-11.14-1.91,0,0,7-5,11-7.3l2.43-1.18-1.14,4.25,1.14.79L12.84,117Z"/><path class="cls-3" d="M261.3,114.67l-29.52-.18s.06-.28.19-.76c.08-.25.17-.55.26-.9v0c1.68-3.18,7.29-13.54,9.75-14h.28l-3.22,7.67,6.74,2.2.73,2.27Z"/><path class="cls-4" d="M263.49,106.94s-1.53,1.29-7.54,1-16.9-1.45-16.9-1.45l3.22-7.67C245,99.13,262.27,105.73,263.49,106.94Z"/><path class="cls-4" d="M28.54,112.91c-5.38.8-16.27.59-16.27.59l1.14-4.25c1.59-.13,12.18.6,13.59,1.09C27.55,110.54,28.09,111.65,28.54,112.91Z"/><path class="cls-13" d="M140.36,49a37.42,37.42,0,0,1-2.14,11.79,4.5,4.5,0,0,1-4.55,5h0c-1,.53-2,1-3,1.42a81.26,81.26,0,0,0-11,5.8,23.81,23.81,0,0,0-5.21,5.15,49,49,0,0,1-.33,7.09,60.39,60.39,0,0,0,0,11.72,3.73,3.73,0,0,1-1.83,3.74A29.82,29.82,0,1,0,140.36,49Z"/></g></g></g></svg>