<svg xmlns="http://www.w3.org/2000/svg" xmlns:xlink="http://www.w3.org/1999/xlink" viewBox="0 0 400.53 364.8"><defs><style>.cls-1{isolation:isolate;}.cls-2{fill:url(#linear-gradient);}.cls-3{fill:#ffc2e5;opacity:0.8;mix-blend-mode:multiply;}.cls-4{fill:url(#linear-gradient-2);}.cls-5{fill:#fffdc0;}</style><linearGradient id="linear-gradient" x1="198.1" y1="346.73" x2="198.1" gradientUnits="userSpaceOnUse"><stop offset="0.13" stop-color="#ffe286"/><stop offset="0.81" stop-color="#fc6a7c"/></linearGradient><linearGradient id="linear-gradient-2" x1="73.15" y1="236.77" x2="400.53" y2="236.77" gradientUnits="userSpaceOnUse"><stop offset="0" stop-color="#ff8895"/><stop offset="0.27" stop-color="#fc8795"/><stop offset="0.47" stop-color="#f38497"/><stop offset="0.65" stop-color="#e37e99"/><stop offset="0.82" stop-color="#cc769c"/><stop offset="0.97" stop-color="#af6ba0"/><stop offset="1" stop-color="#a969a1"/></linearGradient></defs><g class="cls-1"><g id="Layer_2" data-name="Layer 2"><g id="Layer_2-2" data-name="Layer 2"><path class="cls-2" d="M396.12,95.29l-4.65,245.64c-152,7-286.42,8.14-383.31.66Q4,341.28,0,340.93c3.72-4.2,13.35-6.18,18.19-4.65-.1-19.23,16.05-22,29.16-19.85C56.15,305.1,67.94,301.54,82.4,305c-5.89-14.16-.25-21.83,14.27-24.51-48.8-35.39,10.6-117.27,59.39-81.88-4-6.37-4.38-11.63-2.79-16.28a63.17,63.17,0,0,1-15.87-6.68c-17.53-10.7-17.3-26.72-1.81-36.59a50.29,50.29,0,0,1-3.06-4.66c-16.06-27.62,4.61-55,34.43-56.64,13.92-.78,29.82,4.06,44.93,17.1-.39-4.52,1.74-6.89,6-7.44C194.57,26.11,239.66-1.89,290.33.1a134,134,0,0,1,57.48,15.5C376.47,31.09,397.78,57.92,396.12,95.29Z"/><path class="cls-3" d="M243.6,117.06c-5.29,5.5-6.51,13.88-1,19.64l1.8,2-2.53.28c-5.38.32-6.84,5.18-7.05,9.83-1.25-4.85-.09-9.77,4.3-11.77-9.21-10.41.45-27.28,13.84-27.86a13.46,13.46,0,0,1,11.23,5.31C257.48,109.42,249,111.07,243.6,117.06ZM347.81,15.6A134,134,0,0,0,290.33.1l.91.07c112.48,8.69-11.79,91.19-11.79,91.19-30.81-5.17-53.76,16.34-52.73,39.5-14.58-1.41-23.3,5.3-21.27,14.62a14.73,14.73,0,0,0,5.55,8.34l.83.61c-2.27-.82-3.11.27-3.09,2.47C223.83,167,197,171,197,171S207.08,197,181.44,211.5s-34.12,5.79-59.75,9.3-35,32.36-35,32.36c-3.33,10.22-1,18.71,10,24.5,1.55-1.83,4-2.73,6.92-3.21-4.57,2.4-7.4,5.15-6.92,8.59a6.07,6.07,0,0,1,3.41,1.44C85.73,282.62,78.36,289.76,82.4,305c-14.46-3.42-26.25.14-35.05,11.47-13.11-2.13-29.26.62-29.16,19.85-4.84-1.53-14.47.45-18.19,4.65q4,.35,8.16.66c96.89,7.48,231.35,6.38,383.31-.66l4.65-245.64C397.78,57.92,376.47,31.09,347.81,15.6ZM176.63,229.65c-24.73-4.55-49.64,12.41-45.18,39.24l.29,1.93-1.81-.12a9,9,0,0,0-8.78,4.65c-1.82,3.19-1.76,7.86,1.57,10.16-4-1.75-4.84-7.17-3.2-10.93a11.15,11.15,0,0,1,8.59-6.76c-5.71-28.8,22.27-48.33,49.2-41.25,8.32,2.2,11.94,5.29,13.85,7.46C186.2,231.24,184.55,231,176.63,229.65Z"/><path class="cls-3" d="M396.12,95.29l-4.65,245.64c-152,7-286.42,8.14-383.31.66,2.77-2.53,6.66-3.85,11.38-3.56C28,322.36,38.93,318.29,50.77,318.6c7.51-14,20.55-14.89,35.76-10.55-6.2,2.9-8.28,8.63-7.44,16.34,11.09-13.64,29.22-16.88,52.63-12.3,1.08-12.49,13.18-16.4,25.74-11.17,2-5.6,6.48-7.56,13.33-6.2-15.82-36.5,4.63-60,37.84-64.82,4-37.75,33-53.66,66.06-38.16C293.4,154.91,323,143,365,159.18c24.3-34,.1-71.44-40.63-59.86C356.07,80,376.94,34.39,347.81,15.6,376.47,31.09,397.78,57.92,396.12,95.29Z"/><path class="cls-3" d="M211.83,154.43c-2.27-.82-3.11.27-3.09,2.47-8.49-5.38-14.38-3.57-18.61,2.9-9.4,1.86-17.37,4.6-23.61,8.3s-10.79,8.43-13.25,14.19a63.17,63.17,0,0,1-15.87-6.68c31.43,9,37-58.92-1.81-36.59a50.29,50.29,0,0,1-3.06-4.66c4.77,6,20.27-2.47,26.16-20.46,15.47,2.34,24.79-2.08,28.83-8.55,4.92-7.83,2.1-18.68-6.85-24.16A25.24,25.24,0,0,0,167,77.72a53.51,53.51,0,0,1,13,.88c10.41,2,21.37,7.09,31.95,16.22-5,9.92-2.91,17.75,4.49,24C198.4,125.48,198,144.6,211.83,154.43Z"/><path class="cls-3" d="M211.83,154.43c-2.27-.82-3.11.27-3.09,2.47-8.49-5.38-14.38-3.57-18.61,2.9-9.4,1.86-17.37,4.6-23.61,8.3,4.38-11.36,11.19-19.79,21.95-23.5-3.52-7.32.1-13.33,6.67-12.4,24.5-17.53,4.93-48.49-15.2-53.6,10.41,2,21.37,7.09,31.95,16.22-5,9.92-2.91,17.75,4.49,24C198.4,125.48,198,144.6,211.83,154.43Z"/><path class="cls-4" d="M400.53,112.11l-4.46,192.33-.88,37.62c-54.91,9.75-121.3,15.07-192.79,18.42-41.77,1.95-85.28,3.22-129.25,4.32,5.07-2.87,11.63-4.65,22.46-3.37,2.17-4.79,6-5.68,11-4.21-2.6-11.4,5.43-17.55,14.32-16.57-4.29-29.13,31.93-34.46,36.22-5.33,2.82-3.73,7.21-6.09,12.92-7.3,1.26-20.08,20.07-18,26.95-2,1.94-8.45,5.81-15.25,11.79-20.49a33.43,33.43,0,0,1-9.2-6.37c-18.34-18-6-51.55,22.4-54,5-7.57,12.67-10.75,22.74-9.83-22.56-22.74-13.2-71.22,27.8-74.12-2.38-22.68,23.6-35.15,46.7-30.8,9.79,1.83,19.07,6.69,25.45,15.08-9.26-19.94,13.33-40.88,27.24-26.67,6.29-8.06,13.46-11.57,21.71-9.57A26.46,26.46,0,0,1,400.53,112.11Z"/><path class="cls-5" d="M149.43,320.1c-11.87-7.11-29.22,1.58-26.17,22.25-8.65-1-18.74,3.23-16.88,14-2-10.82,5.85-16.62,14.5-15.66C117.63,318.56,137.68,310.15,149.43,320.1Z"/><path class="cls-5" d="M319.2,130.44a43.14,43.14,0,0,1,18.4,8,43.81,43.81,0,0,0-16-6.32c-23.1-4.35-49.08,8.12-46.71,30.8-41,2.9-50.35,51.38-27.79,74.12-10.08-.92-17.72,2.26-22.74,9.83-28.37,2.45-40.74,36-22.4,54a30,30,0,0,0,2.65,2.33,31.34,31.34,0,0,1-5-4c-18.34-18-6-51.56,22.4-54,5-7.58,12.67-10.76,22.74-9.83-22.56-22.75-13.2-71.23,27.8-74.13C270.12,138.57,296.1,126.09,319.2,130.44Z"/><path class="cls-3" d="M393.6,109.28c-10-1.35-18.43,6.19-20.73,11.48-18.37-9.84-32.54,11-28.23,24.71v0c-6.38-8.38-15.65-13.24-25.44-15.07-2.65,10.2.29,19.31,13.94,26.31,14,47.17-25.5,82.05-77.7,79.67,7.77,2,14.44,4.48,19.31,7.86C268.9,244,265,247.49,263,255c-11.68-11.84-24.26-11.33-37.34-3.65,22.37,36.22-15.54,53.35-26.05,47.82-3.08-1.62,5.54,4.62,9.2,6.37a47.59,47.59,0,0,0-10.95,23.49c-5.89-4.09-11.54-4.55-16.66,2.81-11.94-4.91-21.71-.09-26.39,9.17-10.53-4.59-20.71-1.25-30.72,13.45a30.42,30.42,0,0,1,5.45-8.59c-10.84-5.56-24.34-1.24-21.9,12-4.68-.85-8.77.05-12,3.56-10.83-1.28-17.39.5-22.46,3.37,44-1.1,87.48-2.37,129.25-4.32,71.49-3.35,137.88-8.67,192.79-18.42l.88-37.62.73-31.72,3.73-160.61A26.46,26.46,0,0,0,393.6,109.28Zm-186,224.13c-4.59-2-16.62-.07-18.08,9.91-.44-8.86,4.86-13.63,13.06-13.29-3.14-5.92-.31-12.88,4.21-17.45C202.68,319,202.17,327.55,207.61,333.41Zm162-174.7c-8.51,4.78-10.36,15.74-2.81,23.78-1.74,2.16-2,4.73-1.49,7.49-13.9,2.08-17.88,15-9.55,21.33-4.81-2.68-6.53-9.22-4-14.15,2.16-4.52,6.71-7.33,11.46-8.59a11,11,0,0,1,1-5.87c-5.55-6.59-5.7-15.95-.24-22a22.13,22.13,0,0,1-2.28-.27,21.54,21.54,0,0,1-17.17-14.9C350.17,157.78,361.16,160.17,369.64,158.71Zm-32.38,166c-9.67-1.91-14.21,2.3-14.79,11.22-20.05-3.63-37.23.82-50.34,16.66-19.37-1.72-39.22.54-59.37,5.24,13.6-5.17,31.75-8,58.05-7.49a53.09,53.09,0,0,1,13.75-11.84,15.54,15.54,0,0,1,.08-19.17c4.68-6.13,13.25-8.16,20.48-6.14a29.61,29.61,0,0,1,12.44,7.21,39.48,39.48,0,0,0-12.87-5.32c-14.61-2.95-26.71,9.74-19.81,23.24,9.74-5.59,21.21-7.27,34.79-4.25-1.31-11.24,8.27-14.32,15-11.24C324,290.73,352.75,277.09,377.73,287,356.75,281.39,328.41,299.1,337.26,324.75Z"/><path class="cls-3" d="M396.07,304.44l-.88,37.62c-54.91,9.75-121.3,15.07-192.79,18.42,23.71-6.43,47-9.86,69.73-7.85,13.11-15.84,30.29-20.29,50.34-16.66.58-8.92,5.12-13.13,14.79-11.22C325,289.3,383.83,269,396.07,304.44Z"/><path class="cls-3" d="M400.53,112.11,396.8,272.72c-9.19-12.53-14-25.72-13.31-39.7-17.44,2.53-27.62-4.81-27.7-21.71-8.33-6.36-4.35-19.25,9.55-21.33-.49-2.76-.25-5.33,1.49-7.49-7.55-8-5.7-19,2.81-23.78-8.48,1.46-19.47-.93-25-13.19h0v0c-4.31-13.75,9.86-34.55,28.23-24.71,2.3-5.29,10.75-12.83,20.73-11.48A26.46,26.46,0,0,1,400.53,112.11Z"/></g></g></g></svg>