<?xml version="1.0" encoding="utf-8"?>
<!-- Generator: Adobe Illustrator 26.0.1, SVG Export Plug-In . SVG Version: 6.00 Build 0)  -->
<svg version="1.1" id="Layer_1" xmlns="http://www.w3.org/2000/svg" xmlns:xlink="http://www.w3.org/1999/xlink" x="0px" y="0px"
	 viewBox="0 0 503 171" style="enable-background:new 0 0 503 171;" xml:space="preserve">
<style type="text/css">
	.st0{fill:#FF2929;}
	.st1{fill:#C8C8C8;}
	.st2{fill:#FFFFFF;}
</style>
<path class="st0" d="M189,0l-51.1,104.8H92.8l24.6-30.6l19-40.9H65.1L50.8,63.7h34.6L0,171l35.5-79.9H0L44.8,0H189z"/>
<path class="st1" d="M69.9,148.3c-2.4,0-4.3-0.7-5.7-2c-1.3-1.3-2-3.4-2-6.2c0-1.9,0.3-3.4,0.9-4.6c0.6-1.2,1.6-2.1,2.8-2.7
	c1.2-0.6,2.7-0.9,4.3-0.9c1,0,2,0.1,2.9,0.3c0.9,0.2,1.7,0.6,2.3,1.1c0.7,0.5,1.2,1,1.6,1.7c0.4,0.7,0.6,1.5,0.6,2.5h-3.1
	c0-0.5-0.1-1-0.3-1.3c-0.2-0.4-0.5-0.7-0.9-1c-0.4-0.3-0.8-0.5-1.3-0.6c-0.5-0.1-1-0.2-1.6-0.2c-0.8,0-1.6,0.1-2.2,0.3
	c-0.6,0.2-1.2,0.6-1.6,1c-0.4,0.4-0.7,1-0.9,1.7c-0.2,0.7-0.3,1.5-0.3,2.4v0.5c0,1.2,0.2,2.3,0.5,3.1s0.9,1.4,1.6,1.8
	c0.7,0.4,1.6,0.6,2.7,0.6c0.9,0,1.7-0.1,2.4-0.4c0.7-0.3,1.2-0.7,1.6-1.2c0.4-0.5,0.6-1.2,0.6-2V142h-5v-2.5h8v8.5h-2.1l-0.3-1.7
	c-0.5,0.5-1,0.8-1.5,1.1c-0.5,0.3-1.1,0.5-1.7,0.6C71.4,148.2,70.7,148.3,69.9,148.3z M86.7,148v-6.4l-6.1-9.4h3.4l4.2,6.7h0.1
	l4.1-6.7h3.3l-6,9.4v6.4H86.7z M98.9,148v-15.8h4.7l2.5,8.8c0.1,0.3,0.2,0.7,0.3,1c0.1,0.4,0.2,0.8,0.3,1.1c0.1,0.4,0.2,0.7,0.2,0.9
	h0.2c0-0.2,0.1-0.5,0.1-0.9c0.1-0.3,0.1-0.7,0.2-1.1c0.1-0.4,0.2-0.8,0.3-1.1l2.5-8.8h4.7V148h-3v-8c0-0.7,0-1.4,0-2.1
	c0-0.7,0-1.3,0-1.8c0-0.5,0-0.8,0-0.9h-0.2c0,0.1-0.1,0.4-0.2,0.9c-0.1,0.5-0.3,1-0.4,1.5c-0.1,0.5-0.3,1-0.4,1.4l-2.6,9h-2.8
	l-2.6-9c-0.1-0.3-0.2-0.7-0.3-1.1c-0.1-0.5-0.2-0.9-0.3-1.4c-0.1-0.5-0.2-0.9-0.3-1.2h-0.2c0,0.4,0,0.9,0,1.5c0,0.6,0,1.1,0,1.7
	c0,0.6,0,1.1,0,1.6v8H98.9z M125.2,148v-15.8h11.3v2.6h-8.3v4.2h7.5v2.6h-7.5v6.4H125.2z M140.4,148v-15.8h3V148H140.4z M151.9,148
	v-13.2h-5v-2.6h13.1v2.6h-5.1V148H151.9z M163.4,148v-15.8h2.9l6.7,9.3c0.1,0.1,0.2,0.2,0.3,0.4c0.1,0.2,0.2,0.3,0.3,0.5
	c0.1,0.2,0.2,0.3,0.2,0.4h0.1c0-0.2,0-0.4,0-0.6c0-0.2,0-0.4,0-0.6v-9.3h2.9V148h-2.8l-6.8-9.4c-0.1-0.2-0.3-0.4-0.4-0.7
	c-0.2-0.3-0.3-0.5-0.3-0.6h-0.1c0,0.2,0,0.4,0,0.6c0,0.2,0,0.4,0,0.6v9.4H163.4z M181.4,148v-15.8h12.3v2.6h-9.3v3.9h8.3v2.6h-8.3
	v4.2h9.5v2.6H181.4z M203.9,148.3c-0.9,0-1.7-0.1-2.5-0.3c-0.8-0.2-1.5-0.5-2.1-0.9c-0.6-0.4-1.1-0.9-1.4-1.5
	c-0.4-0.6-0.5-1.3-0.5-2.2c0-0.1,0-0.2,0-0.3c0-0.1,0-0.2,0-0.2h3c0,0,0,0.1,0,0.2c0,0.1,0,0.1,0,0.2c0,0.5,0.1,0.9,0.4,1.3
	c0.3,0.4,0.7,0.6,1.3,0.8c0.6,0.2,1.2,0.3,2,0.3c0.5,0,0.9,0,1.3-0.1c0.4-0.1,0.7-0.1,1-0.3c0.3-0.1,0.5-0.3,0.7-0.4
	c0.2-0.2,0.3-0.4,0.4-0.6c0.1-0.2,0.1-0.4,0.1-0.6c0-0.4-0.1-0.8-0.4-1.1s-0.7-0.5-1.1-0.7c-0.5-0.2-1-0.4-1.6-0.5
	c-0.6-0.2-1.2-0.3-1.8-0.5c-0.6-0.2-1.2-0.4-1.8-0.6c-0.6-0.2-1.1-0.5-1.6-0.9c-0.5-0.3-0.8-0.8-1.1-1.3c-0.3-0.5-0.4-1.1-0.4-1.9
	c0-0.7,0.2-1.4,0.5-1.9c0.3-0.6,0.8-1,1.3-1.4c0.6-0.4,1.3-0.6,2-0.8c0.8-0.2,1.6-0.3,2.5-0.3c0.8,0,1.6,0.1,2.4,0.3
	c0.8,0.2,1.4,0.4,2,0.8c0.6,0.4,1,0.8,1.3,1.4c0.3,0.6,0.5,1.2,0.5,2v0.3h-3v-0.2c0-0.4-0.1-0.8-0.4-1.1c-0.3-0.3-0.6-0.5-1.1-0.7
	c-0.5-0.2-1-0.3-1.7-0.3c-0.7,0-1.3,0.1-1.8,0.2c-0.5,0.1-0.9,0.3-1.1,0.6c-0.3,0.2-0.4,0.6-0.4,0.9c0,0.4,0.1,0.7,0.4,1
	s0.6,0.5,1.1,0.7c0.5,0.2,1,0.4,1.6,0.5c0.6,0.2,1.2,0.3,1.8,0.5c0.6,0.2,1.2,0.4,1.8,0.6c0.6,0.2,1.1,0.5,1.6,0.9
	c0.5,0.3,0.9,0.8,1.1,1.3s0.4,1.1,0.4,1.8c0,1.2-0.3,2.1-0.9,2.9c-0.6,0.7-1.4,1.2-2.4,1.6C206.3,148.1,205.2,148.3,203.9,148.3z
	 M220.4,148.3c-0.9,0-1.7-0.1-2.5-0.3c-0.8-0.2-1.5-0.5-2.1-0.9c-0.6-0.4-1.1-0.9-1.4-1.5c-0.4-0.6-0.5-1.3-0.5-2.2
	c0-0.1,0-0.2,0-0.3c0-0.1,0-0.2,0-0.2h3c0,0,0,0.1,0,0.2c0,0.1,0,0.1,0,0.2c0,0.5,0.1,0.9,0.4,1.3c0.3,0.4,0.7,0.6,1.3,0.8
	c0.6,0.2,1.2,0.3,2,0.3c0.5,0,0.9,0,1.3-0.1c0.4-0.1,0.7-0.1,1-0.3c0.3-0.1,0.5-0.3,0.7-0.4c0.2-0.2,0.3-0.4,0.4-0.6
	c0.1-0.2,0.1-0.4,0.1-0.6c0-0.4-0.1-0.8-0.4-1.1s-0.7-0.5-1.1-0.7c-0.5-0.2-1-0.4-1.6-0.5c-0.6-0.2-1.2-0.3-1.8-0.5
	c-0.6-0.2-1.2-0.4-1.8-0.6c-0.6-0.2-1.1-0.5-1.6-0.9c-0.5-0.3-0.8-0.8-1.1-1.3c-0.3-0.5-0.4-1.1-0.4-1.9c0-0.7,0.2-1.4,0.5-1.9
	c0.3-0.6,0.8-1,1.3-1.4c0.6-0.4,1.3-0.6,2-0.8c0.8-0.2,1.6-0.3,2.5-0.3c0.8,0,1.6,0.1,2.4,0.3c0.8,0.2,1.4,0.4,2,0.8
	c0.6,0.4,1,0.8,1.3,1.4c0.3,0.6,0.5,1.2,0.5,2v0.3h-3v-0.2c0-0.4-0.1-0.8-0.4-1.1c-0.3-0.3-0.6-0.5-1.1-0.7c-0.5-0.2-1-0.3-1.7-0.3
	c-0.7,0-1.3,0.1-1.8,0.2c-0.5,0.1-0.9,0.3-1.1,0.6c-0.3,0.2-0.4,0.6-0.4,0.9c0,0.4,0.1,0.7,0.4,1s0.6,0.5,1.1,0.7
	c0.5,0.2,1,0.4,1.6,0.5c0.6,0.2,1.2,0.3,1.8,0.5c0.6,0.2,1.2,0.4,1.8,0.6c0.6,0.2,1.1,0.5,1.6,0.9c0.5,0.3,0.9,0.8,1.1,1.3
	s0.4,1.1,0.4,1.8c0,1.2-0.3,2.1-0.9,2.9c-0.6,0.7-1.4,1.2-2.4,1.6C222.8,148.1,221.6,148.3,220.4,148.3z M242.5,148.3
	c-1.2,0-2.3-0.2-3.3-0.5c-0.9-0.4-1.7-0.9-2.2-1.6s-0.8-1.5-0.8-2.4c0-1.1,0.3-1.9,0.9-2.6c0.6-0.6,1.3-1.1,2.2-1.3v-0.1
	c-0.8-0.3-1.4-0.8-2-1.3s-0.8-1.3-0.8-2.3c0-0.9,0.3-1.7,0.8-2.4c0.5-0.6,1.2-1.1,2.2-1.4c0.9-0.3,2-0.5,3.2-0.5
	c1.2,0,2.2,0.2,3.1,0.5c0.9,0.4,1.6,0.9,2.1,1.5c0.5,0.6,0.8,1.4,0.8,2.3v0.6h-2.8v-0.4c0-0.5-0.1-0.9-0.4-1.2
	c-0.2-0.3-0.6-0.6-1.1-0.7c-0.5-0.2-1.1-0.3-1.7-0.3c-0.5,0-1,0.1-1.4,0.2c-0.4,0.1-0.7,0.2-1,0.4c-0.3,0.2-0.5,0.4-0.6,0.7
	c-0.1,0.3-0.2,0.6-0.2,1c0,0.5,0.1,0.9,0.4,1.2c0.3,0.3,0.6,0.6,1,0.8c0.4,0.2,0.9,0.3,1.3,0.3h1.5v2.3h-1.5c-0.5,0-1.1,0.1-1.5,0.2
	c-0.5,0.1-0.9,0.4-1.2,0.7s-0.4,0.8-0.4,1.5c0,0.6,0.1,1,0.4,1.4c0.3,0.4,0.7,0.6,1.2,0.8c0.5,0.2,1.1,0.3,1.9,0.3
	c0.8,0,1.4-0.1,1.9-0.3c0.5-0.2,0.9-0.5,1.1-0.9c0.2-0.4,0.4-0.8,0.4-1.4v-4.6h4.9v2.3h-2.1v2.2c0,1-0.2,1.8-0.7,2.6
	c-0.5,0.7-1.2,1.3-2.1,1.7C245,148.1,243.8,148.3,242.5,148.3z M263.1,148l-4.3-15.8h3.2l2.6,10.1c0,0.2,0.1,0.4,0.1,0.6
	c0,0.3,0.1,0.5,0.1,0.8s0.1,0.6,0.1,0.8h0.1c0-0.2,0.1-0.4,0.1-0.6c0-0.2,0.1-0.4,0.1-0.6c0-0.2,0.1-0.4,0.1-0.6
	c0-0.2,0.1-0.3,0.1-0.4l2.4-10.1h3.8l2.4,10.1c0,0.2,0.1,0.4,0.1,0.6c0,0.3,0.1,0.5,0.1,0.8c0,0.3,0.1,0.6,0.1,0.8h0.1
	c0-0.2,0.1-0.4,0.1-0.6c0-0.2,0.1-0.4,0.1-0.6c0-0.2,0.1-0.4,0.1-0.6c0-0.2,0.1-0.3,0.1-0.5l2.6-10.1h2.8L276,148h-3.4l-2.6-10.4
	c0-0.2-0.1-0.5-0.2-0.7c0-0.3-0.1-0.6-0.1-0.9c0-0.3-0.1-0.5-0.1-0.8h-0.1c0,0.2,0,0.5-0.1,0.8c0,0.3-0.1,0.6-0.1,0.9
	c0,0.3-0.1,0.5-0.1,0.7l-2.5,10.4H263.1z M290.4,148.3c-1.6,0-3.1-0.3-4.3-0.9c-1.2-0.6-2.1-1.5-2.8-2.7c-0.6-1.2-0.9-2.7-0.9-4.6
	c0-1.9,0.3-3.4,0.9-4.6c0.6-1.2,1.6-2.1,2.8-2.7c1.2-0.6,2.6-0.9,4.3-0.9c1.7,0,3.1,0.3,4.3,0.9c1.2,0.6,2.1,1.5,2.7,2.7
	c0.6,1.2,1,2.7,1,4.6c0,1.8-0.3,3.4-1,4.6c-0.6,1.2-1.5,2.1-2.7,2.7C293.5,148,292,148.3,290.4,148.3z M290.4,145.7
	c0.8,0,1.5-0.1,2.1-0.3c0.6-0.2,1.1-0.6,1.5-1c0.4-0.5,0.7-1,0.9-1.7c0.2-0.7,0.3-1.4,0.3-2.3v-0.5c0-0.9-0.1-1.7-0.3-2.3
	c-0.2-0.7-0.5-1.2-0.9-1.7c-0.4-0.5-0.9-0.8-1.5-1c-0.6-0.2-1.3-0.3-2.1-0.3c-0.8,0-1.5,0.1-2.1,0.3c-0.6,0.2-1.1,0.6-1.5,1
	c-0.4,0.4-0.7,1-0.9,1.7c-0.2,0.7-0.3,1.5-0.3,2.3v0.5c0,0.9,0.1,1.6,0.3,2.3c0.2,0.7,0.5,1.2,0.9,1.7c0.4,0.4,0.9,0.8,1.5,1
	C288.9,145.6,289.6,145.7,290.4,145.7z M302.3,148v-15.8h8.3c1.2,0,2.1,0.2,2.9,0.6c0.8,0.4,1.3,1,1.7,1.7c0.4,0.7,0.6,1.6,0.6,2.6
	c0,1-0.2,1.9-0.7,2.7c-0.5,0.8-1.1,1.4-2,1.8l3.3,6.4h-3.3l-2.9-5.9h-4.9v5.9H302.3z M305.3,139.6h5.1c0.8,0,1.4-0.2,1.8-0.7
	c0.4-0.4,0.6-1.1,0.6-1.8c0-0.5-0.1-0.9-0.3-1.3c-0.2-0.4-0.5-0.6-0.8-0.8c-0.4-0.2-0.8-0.3-1.3-0.3h-5.1V139.6z M319.9,148v-15.8h3
	v7.3l7-7.3h3.7l-6.1,6.4l6.2,9.4h-3.5l-4.7-7.3l-2.5,2.2v5.1H319.9z M343,148.3c-1.6,0-3.1-0.3-4.3-0.9c-1.2-0.6-2.1-1.5-2.8-2.7
	c-0.6-1.2-0.9-2.7-0.9-4.6c0-1.9,0.3-3.4,0.9-4.6c0.6-1.2,1.6-2.1,2.8-2.7c1.2-0.6,2.6-0.9,4.3-0.9c1.7,0,3.1,0.3,4.3,0.9
	c1.2,0.6,2.1,1.5,2.7,2.7c0.6,1.2,1,2.7,1,4.6c0,1.8-0.3,3.4-1,4.6c-0.6,1.2-1.5,2.1-2.7,2.7C346.1,148,344.7,148.3,343,148.3z
	 M343,145.7c0.8,0,1.5-0.1,2.1-0.3c0.6-0.2,1.1-0.6,1.5-1c0.4-0.5,0.7-1,0.9-1.7c0.2-0.7,0.3-1.4,0.3-2.3v-0.5
	c0-0.9-0.1-1.7-0.3-2.3c-0.2-0.7-0.5-1.2-0.9-1.7c-0.4-0.5-0.9-0.8-1.5-1c-0.6-0.2-1.3-0.3-2.1-0.3c-0.8,0-1.5,0.1-2.1,0.3
	c-0.6,0.2-1.1,0.6-1.5,1c-0.4,0.4-0.7,1-0.9,1.7c-0.2,0.7-0.3,1.5-0.3,2.3v0.5c0,0.9,0.1,1.6,0.3,2.3c0.2,0.7,0.5,1.2,0.9,1.7
	c0.4,0.4,0.9,0.8,1.5,1C341.5,145.6,342.2,145.7,343,145.7z M361.5,148.3c-1.4,0-2.6-0.2-3.6-0.7c-1-0.4-1.8-1.1-2.3-2
	c-0.5-0.9-0.8-2.1-0.8-3.4v-9.9h3v9.8c0,1.2,0.3,2.1,0.9,2.8c0.6,0.6,1.5,0.9,2.7,0.9c1.2,0,2.1-0.3,2.7-0.9c0.7-0.6,1-1.5,1-2.8
	v-9.8h3v9.9c0,1.4-0.3,2.5-0.8,3.4c-0.5,0.9-1.3,1.6-2.3,2C364.1,148.1,362.9,148.3,361.5,148.3z M376.6,148v-13.2h-5v-2.6h13.1v2.6
	h-5.1V148H376.6z M397.7,148v-13.2h-5v-2.6h13.1v2.6h-5.1V148H397.7z M409.3,148v-15.8h8.3c1.2,0,2.1,0.2,2.9,0.6
	c0.8,0.4,1.3,1,1.7,1.7c0.4,0.7,0.6,1.6,0.6,2.6c0,1-0.2,1.9-0.7,2.7c-0.5,0.8-1.1,1.4-2,1.8l3.3,6.4h-3.3l-2.9-5.9h-4.9v5.9H409.3z
	 M412.3,139.6h5.1c0.8,0,1.4-0.2,1.8-0.7c0.4-0.4,0.6-1.1,0.6-1.8c0-0.5-0.1-0.9-0.3-1.3c-0.2-0.4-0.5-0.6-0.8-0.8
	c-0.4-0.2-0.8-0.3-1.3-0.3h-5.1V139.6z M425.3,148l6.1-15.8h3.8l6.2,15.8h-3.2l-1.3-3.4h-7.2l-1.3,3.4H425.3z M430.6,142.1h5.3
	l-1.6-4.3c-0.1-0.2-0.1-0.3-0.2-0.6c-0.1-0.2-0.2-0.5-0.3-0.8c-0.1-0.3-0.2-0.6-0.3-0.9c-0.1-0.3-0.2-0.6-0.3-0.8h-0.1
	c-0.1,0.3-0.2,0.7-0.3,1.1c-0.1,0.4-0.2,0.8-0.4,1.1c-0.1,0.4-0.2,0.6-0.3,0.8L430.6,142.1z M444.4,148v-15.8h3V148H444.4z M452,148
	v-15.8h2.9l6.7,9.3c0.1,0.1,0.2,0.2,0.3,0.4c0.1,0.2,0.2,0.3,0.3,0.5c0.1,0.2,0.2,0.3,0.2,0.4h0.1c0-0.2,0-0.4,0-0.6
	c0-0.2,0-0.4,0-0.6v-9.3h2.9V148h-2.8l-6.8-9.4c-0.1-0.2-0.3-0.4-0.4-0.7c-0.2-0.3-0.3-0.5-0.3-0.6h-0.1c0,0.2,0,0.4,0,0.6
	c0,0.2,0,0.4,0,0.6v9.4H452z M470,148v-15.8h12.3v2.6H473v3.9h8.3v2.6H473v4.2h9.5v2.6H470z M486.6,148v-15.8h8.3
	c1.2,0,2.1,0.2,2.9,0.6c0.8,0.4,1.3,1,1.7,1.7c0.4,0.7,0.6,1.6,0.6,2.6c0,1-0.2,1.9-0.7,2.7c-0.5,0.8-1.1,1.4-2,1.8l3.3,6.4h-3.3
	l-2.9-5.9h-4.9v5.9H486.6z M489.6,139.6h5.1c0.8,0,1.4-0.2,1.8-0.7c0.4-0.4,0.6-1.1,0.6-1.8c0-0.5-0.1-0.9-0.3-1.3
	c-0.2-0.4-0.5-0.6-0.8-0.8c-0.4-0.2-0.8-0.3-1.3-0.3h-5.1V139.6z"/>
<g>
	<path class="st2" d="M200.3,101.9c0,3.4-1.7,5.1-5.1,5.1h-16.9c-3.4,0-5.1-1.7-5.1-5.1V88.6h8.4V100h10.3V89l-16.8-15.9
		c-1.2-1.2-1.8-2.7-1.8-4.5V56.1c0-3.4,1.7-5.2,5.1-5.2h16.9c3.4,0,5.1,1.7,5.1,5.1v12.6h-8.4V58h-10.3v10.2L198.5,84
		c1.2,1.1,1.8,2.7,1.8,4.6V101.9z"/>
	<path class="st2" d="M235.1,101.9c0,3.4-1.7,5.1-5.2,5.1h-17.8c-3.4,0-5.1-1.7-5.1-5.1v-51h8.4v48.9h11.3V50.9h8.4V101.9z"/>
	<path class="st2" d="M275.8,107.1h-8.1V79.4c0-1.5,0.2-3.5,0.5-6.1l-7.2,28.7h-4.3l-7.3-28.7c0.3,2.7,0.5,4.7,0.5,6.1v27.7h-8.1
		V50.9h7.9l8.8,31c0.1,0.3,0.2,1.2,0.2,2.5c0-0.6,0.1-1.4,0.2-2.5l8.8-31h7.9V107.1z"/>
	<path class="st2" d="M291.1,107.1h-8.4V50.9h8.4V107.1z"/>
	<path class="st2" d="M322.3,58.3h-9.3v48.7h-8.4V58.3h-9.3v-7.4h26.9V58.3z"/>
	<path class="st2" d="M335.8,50.9l-4.9,17.6h-5.4l1.9-17.6H335.8z"/>
	<path class="st2" d="M367.9,101.9c0,3.4-1.7,5.1-5.1,5.1h-16.9c-3.4,0-5.1-1.7-5.1-5.1V88.6h8.4V100h10.3V89l-16.8-15.9
		c-1.2-1.2-1.8-2.7-1.8-4.5V56.1c0-3.4,1.7-5.2,5.1-5.2h16.9c3.4,0,5.1,1.7,5.1,5.1v12.6h-8.4V58h-10.3v10.2L366.1,84
		c1.2,1.1,1.8,2.7,1.8,4.6V101.9z"/>
	<path class="st2" d="M417.5,101.9c0,3.4-1.7,5.1-5.1,5.1h-17.7c-3.3,0-5-1.7-5-5.1V56.1c0-3.4,1.7-5.2,5.1-5.2h17.5
		c3.4,0,5.1,1.7,5.1,5.2v12h-8.4v-9.9h-10.9v41.7h10.9V84.1h-6.2V77h14.7V101.9z"/>
	<path class="st2" d="M452.5,51.2L445,74.7c-0.9,2.3-2.1,6.2-3.7,11.7v20.6h-8.4V86.4c-0.4-1.9-0.9-3.8-1.7-5.9
		c-1.3-3.6-2-5.5-2-5.8l-7.4-23.5c0,0,0-0.1,0-0.3h8.6l6.7,24.4l6.7-24.4h8.6C452.5,51.1,452.5,51.2,452.5,51.2z"/>
	<path class="st2" d="M490.7,107.1h-8.1V79.4c0-1.5,0.2-3.5,0.5-6.1l-7.2,28.7h-4.3l-7.3-28.7c0.3,2.7,0.5,4.7,0.5,6.1v27.7h-8.1
		V50.9h7.9l8.8,31c0.1,0.3,0.2,1.2,0.2,2.5c0-0.6,0.1-1.4,0.2-2.5l8.8-31h7.9V107.1z"/>
</g>
</svg>
