<svg xmlns="http://www.w3.org/2000/svg" xmlns:xlink="http://www.w3.org/1999/xlink" viewBox="0 0 600 800"><defs><style>.cls-1{fill:none;}.cls-2{clip-path:url(#clip-path);}.cls-3{fill:#92f5fe;}.cls-4{fill:#d7fcfe;}.cls-5{fill:#010101;}.cls-6{fill:#e7ddd1;}.cls-7{fill:#874f41;}.cls-8{fill:#582c21;}.cls-9{fill:#3bdd8b;}.cls-10{fill:#855a10;}.cls-11{fill:#f5d762;}.cls-12{fill:#6b490e;}.cls-13{fill:#a7696c;}.cls-14{fill:#c28487;}.cls-15{fill:#fae2ba;}.cls-16{fill:#e1c4c1;}.cls-17{fill:#d0942c;}.cls-18{fill:#f6b440;}.cls-19{fill:#0a956e;}.cls-20{fill:#02ca90;}.cls-21{fill:#1be8a3;}.cls-22{fill:#03ae7c;}.cls-23{fill:#211106;}.cls-24{fill:#fefefe;}.cls-25{fill:#6f4429;}</style><clipPath id="clip-path"><rect class="cls-1" y="1" width="600.75" height="798.75"/></clipPath></defs><g id="_600x800" data-name="600x800"><g class="cls-2"><rect class="cls-3" y="1" width="600.75" height="798.75"/><path class="cls-4" d="M541.48,6.42h504.29v544q0,71.19,0,142.4c-11.73,0-23.46,0-35.18-.09-1.08,0-2.61.5-3.12-.48-1.24-2.39-3.39-2-5.09-1.62-7.07,1.42-13.42-2.75-20.31-2.33a1.2,1.2,0,0,1-1.35-1c-.34-2.42-2.19-1.75-3.67-1.9-1.9-.19-4.44.93-5.57-.66-1.37-1.89-2.89-1.5-4.48-1.5-11.36,0-22.72-.21-34.08.1-2.72.08-3.86-1.57-5.37-2.85-1-.8-.57-2.14,1-2.3a10.94,10.94,0,0,0,4.38-1.65c1.68-.94,3.5-2.31,5.44-2.7,3.36-.69,7,.89,10-2.73,1.06-1.25,3.74-2.19,5.29-3.91,1-1.11,3.44-1,2.75-3.5-.78-2.83,1-4.68,2.68-6.49a30.91,30.91,0,0,1,5-4.9c2.29-1.52,3.31-4.1,5.42-5.65,4-2.91,8.17-5.19,13.39-4.47.53.08,1.58-.21,1.63-.47.64-3.24,3.15-2.25,5.17-2.43,1-.09,2.34.41,2.43-1.57-.88-1-2.16-.64-3.29-.65-4.16,0-8.31,0-12.46,0-.84,0-2.19.1-2.43-.32-1.5-2.74-4-1.74-6.15-1.83-2.93-.11-5.86,0-8.79,0-.83,0-2.11.27-2.28-.66-.63-3.21-3.06-2.14-4.93-2.23-3-.14-7,1.08-8.93-.43-3.13-2.51-6.17-1.16-9.15-1.82-4.69-1.05-8.67,1.44-13,2.36-.31.07-.77.38-.8.62-.35,2.82-2.49,2-4.2,2.17-1,.07-2.51-.08-2.76.4-1.3,2.52-3.5,1.77-5.43,1.77-30.66,0-61.33,0-92,.08-5.22,0-10.07,3.37-15.53,2.25-.28-.05-.89.25-.93.45-.55,3.4-3.2,2.28-5.17,2.33-3.9.11-7.82,0-11.72.05-1.05,0-2.48-.47-3,.72-.83,1.9-2.35,1.44-3.73,1.45-8.18,0-16.37,0-24.55,0-1.15,0-2.66-.57-3.31.83-.77,1.68-2.13,1.36-3.42,1.36q-31.87,0-63.77,0c-.95,0-2.34.44-2.76-.41-1.19-2.4-3.23-1.7-5.07-1.76-2.08-.07-4.26-.43-6.21.06-5.23,1.32-9.42-3-14.45-2.39a1.35,1.35,0,0,1-1-.81c-.3-2.37-2-1.94-3.59-2-1.19-.06-2.92.59-3.46-.48-1.16-2.28-3.12-2-4.71-1.62-5,1.13-8.88-3.11-13.71-2.41-.7.11-1-.63-1.07-1.25-.16-1-.74-1.73-1.7-1.48-2.7.68-3.95-1.55-5.26-2.91-1.06-1.11-1.91-1.73-3.31-1.54-3.87.53-6.72-3.61-10.75-2.35a.69.69,0,0,1-.59-.34c-.9-3.79-5-2.28-7.23-4.46-2.66-2.66-6.76-2.81-10.59-2.43-.6.06-1.36-.09-1.45-.81-.33-2.6-2.29-1.92-3.9-2.09-2.13-.23-4.77,1.05-6.25-.77-1.21-1.49-2.4-1.4-3.79-1.4-9.65,0-19.3-.12-28.95.05-3.13.06-5-3.12-8.12-2.63-1.12-4.09-4.46-2.2-6.93-2.51s-5.86,1.06-7.45-.51c-2.08-2.07-4.09-1.61-6.24-1.69a81.88,81.88,0,0,0-9.53,0c-3.64.31-5.69-3.17-9.27-3.35,3.31-1.11,7-.65,9.2-3.91.23-.34,1.4-.07,2.13-.08h12.83c1.33,0,2.41,0,3.3-1.53,1.6-2.79,5.11-3.4,7.56-5.35,1.76-1.39,5.27-1.33,8-2.39s5.62-3.59,9.21-2.53c.81.23,1-.75,1.38-1.38,1.46-2.4,3.26-4,6.54-3.76,2.59.19,5.45.85,8.75-1-3.26-2-6.72-.85-9.54-3.6-2.13-2.07-6.69-2.85-9.64-5-1.74-1.27-4.1-1.44-5.33-2.82a12.49,12.49,0,0,0-9.12-4.22c-18.69-.26-37.38-.12-56.07-.1-1.06,0-2.54-.48-3,.63-.92,2-2.56,1.49-4.05,1.54a50.17,50.17,0,0,0-5.49.06c-2.91.43-6.72-1.87-8.42,2.62-.11.27-1.17.34-1.73.24-4-.73-7,3.64-11.13,2.35a.36.36,0,0,0-.33.12c-1.45,2.91-4.15,1.81-6.41,1.92-2.68.12-5.38,0-8.06,0-.1-1.41-.19-2.82-.29-4.26l-5.59-.25c-.1-2-.17-3.8-.26-5.6l-5.85-.28V552.23l-5.87-.27V540.64c-2-.59-3.91.23-5.61-.57v-7c3.28,0,7.5,1.18,9.64-.4,3.5-2.59,6.83-1.38,10.21-1.75,2.4-.26,4.86,0,7.29-.07.92,0,2.32.37,2.54-.81.51-2.79,2.56-2,4.24-2.08,4.51-.13,6.19-2.46,4.88-7.37-1.82,0-3.75-.05-5.67,0-1,0-2.64-.49-2.91.76-.58,2.74-2.52,2.11-4.24,2.14-3.29,0-6.57,0-9.86,0-.83,0-2.3,0-2.4.32-1,3.14-3.47,1.7-5.32,1.82-2.79.17-5.6,0-8.39,0q0-9.5,0-19c1.15-.17,3,.58,3.27-.79.59-2.82,2.56-2,4.24-2.13.85-.07,2.2.21,2.47-.2,2.05-3.25,5.21-1.89,7.9-1.94,7.8-.16,15.61-.06,23.41-.06,13.16,0,26.31,0,39.72,0,.23-2.08,2.8-2.79,3.54-4.67.82-2.11,3.73-2.2,4-4.48.56-4.89-.6-9.75,1.94-14.72,1.65-3.23,1.52-7.8,2-11.56.74-5.94,5.36-8.63,7.36-13.21,1.29-2.94,4.22-4.53,6.35-6.73,1.67-1.72,2.78-4.5,4.79-5.18a35.78,35.78,0,0,0,12.54-7.8c1.59-1.45,2.92-2.18,5-2,.84.07,2.2.23,2.47-.19,2.06-3.24,5.21-1.71,7.91-2,2.54-.22,5.11-.1,7.67-.13h17.44c.11,2.31.19,4.07.28,6.12h11.36c.56,2-.29,3.9.74,5.87h11.41v5.88h11.35c.46,2.05-.27,3.91.48,5.52,1.94.45,3.81-.33,5.65.59v5.4H617v5.88h11.75v5.88h11.75v5.66h17.6V470H664v-5.87h5.87V452.41h5.59v-5.86h-5.77V435l-5.65-.26c-.1-2-.18-3.78-.27-5.82H657.9v-11.5l-5.52-.25c-.59-2,.23-3.87-.59-5.62l-5.28-.24c-.58-2,.25-3.88-.55-5.54-1.83-.54-3.71.29-5.37-.5-.52-1.83.31-3.7-.58-5.52H628.67v-5.87h-5.86v-5.76l-5.91-.27v-5.67c2.43-2.45,3.86-5.75,7.18-7.52,1-.55,3.33-1.77,2.44-4.11h31.37c.11-2.3.19-4.07.27-5.88l5.61-.26c.09-2,.17-3.8.25-5.6l5.61-.26c.09-2,.18-3.8.26-5.6l5.85-.27v-8.61c1.67-2.84,4.46-2.1,7-2.23,1.43-.07,3.3.7,4.2-.55,2.74-3.77,6.48-4.7,10.79-4.57,1.09,0,2.76.37,3.2-.18,2.76-3.52,6.5-1.44,9.75-2,1-.18,2.56.48,2.84-.93.51-2.61,2.38-2,4-2,8.18,0,16.37,0,24.55-.05,3.38,0,6.79.36,10.11-.29.5-1.34.94-3-.07-3.55-2.2-1.19-1.88-3-1.66-4.72.62-4.69-2-9.89,2.11-14.06-1.3-3.7,2.49-6.19,2.32-9.64,0-.38.38-1.11.66-1.14,2.81-.36,2.11-2.47,2.19-4.2.06-1.41.94-2.61,1.3-3.71.75-2.35,3-3.93,3.07-6.42.07-1.42,0-2.7,1.91-2.92a1.3,1.3,0,0,0,1-1.69c-.37-2,1-2.87,2-4.21.73-1,2.24-1.09,2.41-2.51.52-4.47,5-6.5,6.45-10.5,1.35-3.71,5.56-5.08,7.83-8,1.79-2.28,2.89-4.81,6.34-4.52.87.07,1.08-.74,1.55-1.29,1.68-2,3.15-4.89,5.33-5.69a33.23,33.23,0,0,0,12.5-7.8c1.86-1.89,4.5-1.23,5.81-2.67,2-2.16,4.95-2,7.13-4.12a11.72,11.72,0,0,1,8.65-2.91c1.55.13,5.35-1.29,5.92-2.46,1.5-3,3.65-2.11,5.75-2.32.91-.09,2.08.21,2.06-1.52-.38-.6-1.09-.66-1.82-.66H820.17c-.73,0-1.74-.15-2,.55-.89,2.28-2.78,1.62-4.37,1.62-15,0-30,0-45.07,0-1.22,0-3.07-.75-3.5,1-.52,2.06-1.84,1.91-3.31,1.91H694.85c-1,0-2.5.34-2.7-.56-.72-3.37-3.27-2.29-5.23-2.32-5.5-.11-11-.06-16.49,0-1,0-2.53-.42-2.76,1.05-.4,2.52-2.21,1.7-3.65,1.87V218H675.4c.56-2-.26-3.91.54-5.54,1.85-.54,3.73.31,5.38-.52.51-1.85-.32-3.72.5-5.36,1.85-.5,3.73.33,5.42-.53.09-1.86.18-3.63.28-5.67h11.3c.65-2-.28-3.92.61-5.54,1.87-.47,3.75.37,5.29-.46.62-1.9-.33-3.8.57-5.38,1.89-.46,3.76.28,5.38-.48.41-1.93-.3-3.79.53-5.63h5.55V171.13h5.87V159.4h5.61V136.07h-5.72v-5.88h-5.88v-5.87H704.87v-5.87H693.13v-5.88H675.52V107H646.19v5.76H617.1c-.1,2.06-.19,3.83-.29,5.88H605.36c-.1,2.06-.18,3.83-.28,5.87H593.73c-.56,2,.25,3.89-.69,5.87H582c-.55,2,.26,3.89-.7,5.87h-11c-.54,2,.28,3.9-.7,5.87H558.44c-.1,2.06-.18,3.83-.26,5.46H546.4v-5.81H482.27c-.46-2.05.28-3.92-.48-5.53-1.94-.44-3.81.31-5.66-.58v-5.41H464.51v-5.88h-5.89v-5.88h-5.88v-5.89h-5.89v-5.88H435.31c-.1-2.06-.18-3.83-.27-5.67l-5.61-.25c-.09-2-.17-3.78-.27-5.82H417.71c-.1-2.06-.18-3.83-.28-5.88H403.67c0-1.89-.23-3.57,1.89-5a28.09,28.09,0,0,0,4.84-4.24c2.72-3,4.37-6.92,9.24-7,.29,0,.76-.66.81-1,.23-1.74,1.48-1.7,2.73-1.67,4.47.1,8.25-3.67,12.95-2.29a.73.73,0,0,0,.65-.25c1.37-2.81,4-1.59,6.09-1.86,1.39-.18,2.88.41,4.17-.4.19-2.39-1.24-2.56-3-2.57-1.4,0-3.31.77-4.1-.65-1-1.75-2.32-1.5-3.73-1.5q-8.79,0-17.58,0c-1,0-2.33-.4-2.75.5-1.08,2.29-3,1.62-4.73,1.67-2.31.07-4.64,0-7,0-.92,0-2.16-.35-2.52.88-.67,2.27-2.42,2-4.13,2-2.93,0-5.87.08-8.79,0-2-.08-4.6,1-5.23-2.33-.05-.28-1-.47-1.62-.55-3.76-.49-7.4-.48-11.28-1.68s-8.39-2.29-12.74-3.24a6,6,0,0,1,.16-4.52c3.26,1.42,4.87-3.08,8-2.25,5.21,1.4,9.39-2.89,14.41-2.34.88.09,1.16-.73,1.3-1.49A1.49,1.49,0,0,1,383.2,46c3.33-.26,6.6-1.23,9.74-1.79,8.05-1.44,16.56.45,24.64-2.55,1.61-.59,3.63,0,5.46-.1.92,0,2.23.32,2.44-1,.4-2.39,2.14-1.91,3.65-1.92,4.35,0,8.7,0,12.6,0,1.25-1.64.31-3.14,1.51-4.26,4-3.73,6.85-9,13-9.85.28,0,.59-.42.73-.72,1.28-2.85,4.39-3.08,6.66-4,2.86-1.19,5.67-3.47,9.23-2.54.24.07.93-.51,1-.85.32-2.41,2.13-1.92,3.64-1.93,9.77,0,19.54-.17,29.3.09,3.09.08,7.17-2.08,9.07,2.62.07.18.71.26,1,.18,2.08-.51,3.26.86,4.32,2.25,2.75-1.81,3.45-6.17,7.73-5.31.14,0,.4-.26.54-.44C532.56,9.89,537.32,8.64,541.48,6.42ZM931.22,210.8c2.77,0,4.7-.11,6.62,0,2.36.16,4.75-.72,6.92,1.78,1,1.15,4.7,1.38,6.07-.26,3.09-3.71,7.24-4.78,11.46-6,.43-.13,1.11-.42,1.14-.69.33-2.84,2.46-2.08,4.17-2.19,1.06-.07,2.62.46,3.07-.56,1-2.26,2.77-1.51,4.35-1.63a24.44,24.44,0,0,0,3.64-.08c2-.46,3.8-2,3.82-3.87,0-2.08-2.29-1.12-3.57-1.17-3.4-.15-6.82-.09-10.23,0-1,0-2.46-.36-2.71,1.12-.38,2.22-2,1.69-3.35,1.8-1.92.16-4.58-.91-5.62.48-1.76,2.36-3.92,2-5.82,1.6-3.54-.64-5.49,3.29-8.88,2.62-.13,0-.53.53-.56.84-.19,2-1.67,2-3,1.74C935.36,205.67,933.65,207.82,931.22,210.8Z"/><path class="cls-4" d="M-361.56,402V6.42H205c-.12,1.06.46,2.74-.46,3.09-4.41,1.7-1.84,4.91-2.31,7.75a23.8,23.8,0,0,1,8.67,1.95c2.77,1.24,5.77,3.93,9.49,2.65.26-.09.91.17.95.35.7,3.36,3.33,2.38,5.48,2.53a3.76,3.76,0,0,1,2,.54c3.11,2.56,7.2,2.78,10.73,3.52,3.38.72,6.12,3.81,10,2.71.57-.16.83.76.92,1.37a1.44,1.44,0,0,0,1.83,1.32c2-.37,3.08.71,4.13,2.12a5.74,5.74,0,0,0,5.89,2.36c.88-.14,2.33-.39,2.53.78.38,2.31,2.12,1.66,3.48,2.22,3.18,1.31,5.37,4.18,8.9,5.42,1.47.51,3.8,3.38,5.18,5.7.55.92,2.62.42,2.53,2.46-.2,4.25,5.66,5.65,4.95,10.22a.91.91,0,0,0,.33.13c2.66.27,1.82,2.32,2,3.88.23,1.87-.93,4.22.79,5.49,1.41,1,1.26,2.12,1.41,3.41.46,4.14,1.67,7.93,5.08,10.67H288.89c-.63,2.3.19,4.17-.78,6.14h-17c-.09,2.06-.17,3.83-.26,5.87H259.48c-.54,2,.28,3.89-.7,5.86h-11c-.62,2,.26,3.91-.59,5.55-1.86.49-3.73-.34-5.42.53-.09,1.86-.18,3.62-.28,5.66H229.76v5.86H218.41c-.5,2,.32,3.91-.49,5.47-1.9.61-3.79-.33-5.34.54-.61,1.9.34,3.78-.53,5.32-1.91.61-3.8-.34-5.33.53-.62,1.91.34,3.8-.59,5.43-1.87.38-3.72-.3-5.7.56v11.11c-2.05.45-3.92-.3-5.47.45-.51,2,.28,3.83-.51,5.43-1.94.43-3.81-.33-5.35.43-.52,2,.29,3.84-.64,5.67h-5.4v11.61h-5.88v5.86h-5.87v11.73h-5.88V206.4h-5.87v5.87h-5.88v5.87h-5.87V224h-5.87v11.73h-5.63v5.88h5.49v11.73H136V259l-5.66.26c-.09,2-.17,3.78-.25,5.6l-5.61.27c-.09,2-.17,3.78-.26,5.59l-5.51.26v5.83h5.55v4.26c-2.1-1-4.53-1.68-6.21-3.17-1.93-1.71-3.32-3.74-6.22-4.28-3.28-.61-6.32-5.21-6.5-8.79-.06-1,.47-2.31-1.53-2.71-.68,4.06-4.11,6.1-6.67,8.84-1.75,1.87-2.29,4.47-3.35,6.67-1.57,3.29.71,6.32,3.16,8.57s3.86,4.9,3.27,8.41c-.16,1-.5,2.7.66,3,2.89.68,2.24,2.77,2.21,4.59,0,2.24.64,4.4-2.4,6-1.91,1-2.62,4.31-3.82,6.6-1.65,3.16-4.87,4.77-7.17,7.27s-3.61,5.9-7.83,5.33c-.84,3.11-4.14,1.15-5.72,2.78-1.91,2-3.19,4.1-6.62,4.86-3.08.68-5.8,3.69-9.45,4.07a1.06,1.06,0,0,0-.75.67c-.3,2.61-2.25,2.07-3.88,2.07-12.58,0-25.16.06-37.73,0-2.37,0-4.72,0-5.87,2.3s-4.39,1.34-5.32,3.36a2.51,2.51,0,0,1-2.72,1.72c-4.67.05-8.72,3.25-13.73,2.53-1.09-.16-4.68,1.33-5.18,2.55-1.17,2.9-3.13,2.1-5,2.23-1.33.09-3.31-.46-3.91.22-3.1,3.52-7,1.42-10.53,2-1.54.24-3.76-.73-4.56.45-1.64,2.43-3.8,1.69-5.85,1.73-4.39.09-8.84-.37-13.17.15-4.09.48-7.87,3-12.25,2.26-.17,0-.55.21-.57.37-.55,3.38-3.2,2.3-5.17,2.35-4.64.1-9.28,0-13.93,0-.84,0-2.18-.17-2.44.26-1.74,2.87-4.48,1.79-6.86,1.89-2.89.14-5.8,0-8.75,0-.54,2.88,1.58,2.47,2.63,2.14,4.81-1.53,8,2.34,11.7,3.83a65.6,65.6,0,0,1,7.27,3.18c1.68.93,2.38,3.21,4,3.15,3.32-.13,4.4,2.66,6.55,3.95,1.63,1,1.11,3.2,3.16,3.55,5.11.86,8.07,4.7,11,8.42,2.42,3,6.5,4.43,8.12,8.24.06.13.46.1.7.15,3.61.7,6.11,3.05,8,6,2.61,4.11,3.67,4.45,7.9,1.77a3.42,3.42,0,0,1,2.1-.36c9.42,1.14,19-2.17,28.43,1.94,3.49,1.52,7.9,1,11.89,1.86,3.73.78,6.66,2.86,9.79,4.12,4.69,1.89,9.14,4.58,14.11,6a2.15,2.15,0,0,1,1.12.76c2.2,3.09,4,6.68,8.61,6.62a1.17,1.17,0,0,1,.85.58c1.85,4.3,6.78,5.86,8.91,9.72s7.06,3.66,9.6,7.13c2.12,2.9,5.71,4.71,7.9,7.57s5.42,2.3,7.75,4.11c.28.22,1.21-.11,1.66-.43,3.37-2.46,4.92-7.45,10.21-7.26.11,0,.23-.39.37-.58,1.81-2.36,3.9-4.09,7.18-3.41.69.14,1.86.15,2-.52.63-3.37,3.21-2.15,5.18-2.39a4.37,4.37,0,0,0,2.08-.45,16.31,16.31,0,0,1,12.09-4c3.15.26,6.34.05,9.52,0v8.68l6.1.29v28.9c2,.59,3.9-.24,5.88.72V505c2,.58,3.91-.26,5.88.73V551.9c2,.56,3.91-.28,5.55.56.53,1.84-.33,3.73.54,5.4l5.67.3v11.76h5.89v17.45h5.76V605h5.76V628.3h5.87v17.29c5.87.58,5.86.58,5.86,6.38v11.54h5.68V687H183v17.59h-5.87v5.87h-5.87v5.86h-5.88v5.87h-5.58v11.73h5.64v5.73h-5.55c-.64,2.19.19,4.06-.6,5.72-1.84.52-3.71-.3-5.37.49-.53,1.83.29,3.7-.49,5.36-1.84.53-3.71-.28-5.38.5-.52,1.83.29,3.7-.49,5.36-1.83.53-3.7-.28-5.68.64v5.53h-5.61c-.1,2-.18,3.82-.28,5.85H124.53c-.1,2.05-.18,3.81-.28,5.85H112.79c-.09,2.05-.17,3.82-.26,5.85H101.07c-.1,2.06-.18,3.83-.26,5.65l-5.52.25v5.81H101v5c-1.71,0-3.42,0-5.13,0H-361.56V472.28c8.42,0,16.85,0,25.27,0,1.12,0,2.71-.61,3.16,1,.77,2.8,2.54,1.78,4.43,1.53-.25-2.7,1.18-4.09,2.84-5.92,3.44-3.78,7.35-7.12,10.57-11.12,3.09-3.83,7.43-5.8,12.19-6.78.78-.16,1.49-.32,1.58-1.2.21-2,1.72-1.64,3-1.73,1.07-.08,2.63.5,3.11-.45,1.22-2.4,3.25-1.67,5.07-1.72,2.68-.08,5.37,0,8.05,0,2.33,0,4.83-.55,6.13,2.35a74.31,74.31,0,0,1,5.85-5.33c2.72-2.41,5.3-4.4,9.07-4.35,2.56,0,5.13,0,7.69,0a4.59,4.59,0,0,0,2.79-1.13c3.08-2.19,1.77-5.18,2.05-7.89.18-1.68-.79-4.15.43-4.92,4.4-2.78,4.61-7.86,6.58-11.77s6.16-6.43,6.9-11c0-.09.22-.12.27-.22,1.55-2.89,4.68-4.21,6.67-6.79,1.67-2.18,3.37-4.86,7.21-4.94,1.51,0,3.46-1.74,5.57-2.2,1.19-.26,1.37-2.31,3.5-2.83,3.16-.78,5.63-3.51,8.7-5.07s5.71-4.07,9.46-4.2c2.31-.09,6.11.72,6.68-.31,2.25-4,8.36.67,9.42-4.7,3.93.27,7.7-2,11.12-1.95,6,.05,11.1-3,16.57-2.88,1.37-1.61.45-3.36,1.85-5.11,2.8-3.5,7.16-.75,10.25-3.79,1.76-1.74,5.86-.14,9-2.8,2.51-2.08,7.52-1.55,11.3-2.17,6.52-1.08,13.33-.83,19.87-2.64.87-.24,1.69-.29,1.73-1.43s-.63-1.47-1.61-1.53c-7.16-.37-14.42,1-21.44-2.06-2.26-1-5.32-.34-8-.11-3,.25-4.46-3-7.33-2.74-.74-3.72-3.7-2.14-5.86-2.41s-4.83.89-6.4-.51c-2.11-1.87-3.55-4.38-6.9-4.07-.71.07-.93-.7-1-1.31-.18-1.3-1.1-1.42-2.14-1.46-2.2-.07-4.59.61-6.12-2-.24-.42-2.33-.44-2.7,0-2.34,3-5.69,4.63-8.68,6.68-3.83,2.64-6.39,6.68-10.49,9a3.81,3.81,0,0,0-1.42,2c-1,2.18-2.26,4.1-5.08,4-1,0-1.62.73-2.38,1.14-1.85,1-2.46,2.92-3.41,4.29-1.92,2.76-5.84,1.16-7.31,4.17s-4.95,2.85-7.32,4.66c-3.4,2.6-7.76,4.09-10.94,7.3a1.81,1.81,0,0,1-1.35.37c-2.74-.39-5.32.18-7,2.32-1.53,1.94-4.53,1.38-5.47,3.14a3,3,0,0,1-3.35,1.9c-3.84-.36-6.75,3.52-10.76,2.36-1,2.82-4.85,1.07-5.57,2.84-1,2.5-2.59,2-4.32,2.14-.95.06-2.14-.1-2.82.39-3.2,2.3-6.41,4.41-10.62,4-.34,0-.91,0-1,.25-1.49,2.92-4.19,1.74-6.45,1.89-2.07.13-4.15,0-6.23,0-.71,0-1.66,0-2.08.39-3.72,3.65-8.51,4.2-13.29,4.69-2.18.21-4.4,0-6.59,0-.84,0-2-.26-2.36.57-.93,2.26-2.8,1.59-4.38,1.6Q-338.66,402-361.56,402Z"/><path class="cls-5" d="M196.46,165c2,0,3.95.1,5.93.1,5.17,0,5.17,0,5.47-5.09h79c.08,1.56.16,3.15.24,4.79a5.41,5.41,0,0,0,3.2.2h12.41c.09,1.85.16,3.45.25,5.31h10.33c.08,1.84.15,3.44.24,5.25l5.06.22c.07,1.66.15,3.25.24,5.12h10.4v5.3h5.31v5.3h5.3v5.3h5.31v5.3h10.48V207c1.66.81,3.35.12,5.1.53.69,1.45,0,3.13.43,5H419v5.24h10.62c.07-1.47.15-3.06.24-4.92h10c.88-1.78.15-3.47.63-5.3h9.95c.87-1.78.14-3.46.63-5.29h10c.85-1.78.12-3.46.62-5.29H471.9c.09-1.84.17-3.43.26-5.3h10.32c.09-1.84.17-3.44.26-5.29H509v-5.2h26.44v5.06h15.87v5.29h10.59v5.29h10.6v5.3h5.3v5.3h5.16v21h-5.06V239h-5.29v10.58h-5c-.74,1.66-.1,3.34-.47,5.08-1.47.68-3.15,0-4.85.43-.82,1.43,0,3.13-.52,4.85-1.39.75-3.08,0-4.76.42-.81,1.46,0,3.16-.56,5H546.22c-.09,1.84-.16,3.43-.24,5.11-1.53.78-3.22,0-4.89.48-.74,1.48,0,3.17-.46,4.84-1.48.74-3.17,0-4.84.46-.72,1.47,0,3.17-.49,5H525v4.71c-1.47,1.64-3.58,0-5.46,1.14V292H509.17c-.09,1.88-.17,3.48-.24,5-1.79.59-3.5-.21-5,.54-.54,1.64.28,3.35-.67,5.13H493.13v5.11h-10.5v5.33H477.3v5.32H466.88c-.09,1.87-.17,3.47-.26,5.33H456.44c-.59,1.83.22,3.54-.73,5.33h-10c-.09,1.88-.16,3.47-.25,5.33H435.19v5.09h5.19v5.32H451v5.32h10.25c.57,1.84-.21,3.53.69,5.32h9.92c.52,1.84-.26,3.54.7,5.32h10.16v5.1h10.48v5.32h26.48v5.31h5.14c.09,1.87.16,3.47.24,5.13l4.93.24c.57,1.78-.21,3.48.52,5,1.64.53,3.34-.26,5.1.62v15.27l-5.27.24c-.07,1.63-.15,3.22-.23,5.05l-5.06.23c-.07,1.63-.14,3.23-.23,5.05l-5,.23c-.08,1.64-.15,3.23-.24,5.31H491.24l-3.39-.28v-5.15H472.08v-5.2H461.43v-5.31c-1.89.06-3.56-.31-5.23.32.13,1.71-.34,3.34.32,4.91h5v5.2l5.15.24c.09,1.8.17,3.39.25,5.05l5,.23c.09,1.8.17,3.39.25,5.05l5,.23c.09,1.8.16,3.4.24,5.19h5.08v5.12l5.33.24v5.2l0,0-10.58-.05,0,.05c-.29-1.68.31-3.45-.48-5.33h-4.85l0,0c-.28-1.69.32-3.45-.48-5.33h-4.85l.05.05c-.29-1.69.31-3.46-.48-5.34h-4.86l.05.05c-.29-1.68.31-3.45-.48-5.33h-4.85l0,.05v-5.33H445.63l.05.05v-5.33H435.06l.05,0c-.29-1.68.3-3.44-.41-5.18h-4.89c-1.69-.35-3.51.38-5.2-.56-.11-1.53-.22-3-.34-4.73h-9.71c-1.52-1.45.15-3.68-1.36-5.34H387.45l.09-5.24h63c.67,1.93-.09,3.54.87,5.33h9.91c.1,1.88.19,3.38.29,5.24h10.29c.1,1.88.17,3.38.27,5.25h15.4c.65,1.89-.15,3.63.69,5.06h31.38v-5.06h0c1.68-.26,3.45.37,5.16-.46V386.9h-5.07c-.08-1.8-.16-3.38-.25-5.23H493.23v-5.28H482.66c-.23-1.69.33-3.44-.39-5.15h-4.91l-5.23-.12v-5.3H461.51v-5.28H450.94V355.2H440.46c-.09-1.81-.18-3.39-.27-5.09H413.92l-37-.07c.19-1.69-.42-3.47.61-5.39h25.27c1.1-1.73,0-3.57,1.28-5.29h9.33c1.11-1.86-.24-3.85,1.18-5.28h9.73c.15-2,.27-3.46.42-5.25h9.81c1-1.78-.06-3.6,1.23-5.33h9.43c.9-1.8-.15-3.62,1-5,3.27-.51,6.58.29,9.88-.48.12-1.63.24-3.12.35-4.7,3.48-.72,6.92.27,10.21-.61.14-1.66.26-3.15.42-5h10c.66-1.87-.1-3.49.79-5l4.36-.32c.95-1.65-.15-3.47,1.16-5.19h9.47c.85-1.79-.16-3.59,1.15-5.32h9.67c.12-1.8.23-3.3.33-4.71,1.65-.95,3.47.14,5-.93.12-1.49.24-3,.37-4.59,3.49-.57,6.92.27,10.09-.49.59-1.7-.16-3.32.64-4.68,1.56-.79,3.38.31,4.72-.8.51-1.55-.26-3.18.84-4.87h9.52c.84-1.8-.13-3.6.86-5,1.53-.57,3.16.21,4.56-.61.72-1.54-.31-3.35.76-4.7,1.55-.53,3.18.26,4.66-.69.11-1.48.22-3,.33-4.63l5.05-.29c1.71-.05,3.47.49,5-.34.68-1.57-.19-3.22.83-4.7l4.47-.39c.78-3.45-.29-6.88.63-10,1.62-.71,3.27.15,5-1v-10h5.18V207.34H562v-5.28H551.38v-5.3H535.53v-5.07H509v5.07H482.59v5.29H472.3c-.57,2,.18,3.65-.68,5.42h-10c-.08,1.86-.16,3.45-.25,5.27h-10.5v5.16H440.44c-.1,2-.17,3.61-.26,5.44H430c-.59,1.82.22,3.52-.68,5.2H419.19v-5.33h-3.9l-59.54-.12-.1-5.18a16.36,16.36,0,0,0-.2-5.33H345.28c-.08-1.79-.15-3.39-.22-4.89-1.75-.75-3.5.16-4.95-.65-.62-1.62.3-3.36-.76-5h-4.61c-.1-1.79-.19-3.38-.28-4.88-1.75-.73-3.49.18-4.95-.66-.54-1.62.27-3.34-.69-5h-9.91c-.13-1.8-.23-3.39-.33-4.88-1.75-.71-3.5.21-5.19-.81v-4.78H303.05c-.13-1.91-.24-3.5-.37-5.4H286.93v-5H207.87c-.11,1.75-.22,3.34-.35,5.24h-21V181H170.86l-.34,5.4H160v5.19H149.88c-.69,1.87.18,3.6-.64,5-1.65.65-3.4-.32-5.08.82v4.76H134c-.73,1.87.2,3.61-.86,5.3h-9.91c-.09,1.8-.17,3.39-.25,4.88-1.76.74-3.49-.17-5.31.87v10.13h-5c-.12,1.79-.22,3.38-.32,4.91-1.75.64-3.48-.22-4.9.59-.63,1.65.32,3.4-.8,5.08h-4.77V244c-1.87.72-3.61-.19-5,.68-.58,1.64.35,3.38-.65,4.84l-4.91.23v10.16c-1.88.58-3.59-.17-5.3.72v10l-4.89.3c-.72,1.74.19,3.48-.65,4.92-1.63.6-3.37-.32-5.06.77v4.56l-4.88.33c-.7,1.75.22,3.49-.81,5.18H65V296.8c-1.85.79-3.59-.11-5.2.78,0,1.59-.32,3.19.28,5h10v4.9c-1.71.71-3.45-.2-4.89.63-.61,1.63.31,3.37-.77,5.05H59.85c-.11,1.8-.22,3.39-.31,4.89-1.75.7-3.49-.21-4.9.63-.64,1.64.32,3.39-.81,5.07H49.37c-.59,1.74.19,3.46-.56,4.93-1.61.63-3.35-.28-4.83.62V334H54.11c.73-1.69-.18-3.43.74-5.09h4.88l-.06,0v31.38c-1.91.74-3.65-.19-5.34.88v31.18H49.05v31.35c-1.85.73-3.59-.19-5,.66v31.49h5.08v36.52c1.85.74,3.58-.17,5.39.9v26h5.17v20.68c1.85.75,3.59-.16,5.39.9v41.56h5c.08-1.72.16-3.32.25-5.09h5.1v21.19h5.37V614l5.42.3v15.8h5.18v20.69c1.87.71,3.61-.21,5.3.86v15.19l5.32.25v15.7h5.19l-.06,21.11v0h-5.38V719.6c-1.84.53-3.53-.24-5,.53-.5,1.67.3,3.37-.51,4.85-1.67.35-3.35-.27-4.76.38-.5,1.76.26,3.46-.62,5.12H86.13v5.2H81v5.16l5.2.23v5.08l-.13,5.3-10.49.08,0,0v-5.16H70.45V735.75h5v-5.29h5.3v-5.29h5.29v-5.29h5.3V704h5.18V682.88H91.42V672.47c0-5.23,0-5.23-5.28-5.74V651.14h-5.3v-21H75.66V614.24h-5.2V598.5H65.15V587.9L60,587.63c-.79-1.51,0-3.2-.49-4.87-1.48-.75-3.17,0-5-.5V540.64c-1.78-.89-3.47-.13-5.3-.65v-20.5c-1.78-.86-3.47-.11-5.3-.65V492.79l-5.5-.27V455.87c-1.83-.53-3.52.24-5.3-.67v-31c2.07-.58,3.75.16,5.54-.7V392.37l5.05-.22V375.74q0-6.48.11-12.95c0-1-.41-2.29,1.32-2.33h3.77V344.92c-1.76-.52-3.46.23-4.93-.47-.64-1.65.59-3.49-.84-4.9-1.46-.88-3.87,1.35-4.73-1.46v-3.83h-5V329l5-.23c.08-1.64.15-3.23.24-5l5.05-.24c.08-1.64.15-3.23.23-5.05L49,318.2v-5.09h5.2V302.53h-5v-5.3h5.08V286.65h5.29v-5.29H65v-5.29h5.29v-5.29h5.3V260.2h5.29V249.63h5.3v-5.29h5.3V233.88H96.3c.83-1.66.11-3.34.58-5.12,1.38-.68,3.07,0,4.82-.38.71-1.44,0-3.13.46-4.9,1.4-.68,3.08,0,4.93-.41v-10c1.78-.78,3.46-.16,5.14-.51.84-1.47,0-3.17.54-4.89,1.37-.79,3.08.07,4.8-.48.78-1.39-.07-3.09.48-4.8,1.39-.78,3.09.07,4.81-.48.73-1.41,0-3.09.44-4.93h10.23v-5.29h10.6c.09-1.83.17-3.43.25-5.11,1.52-.78,3.21,0,4.89-.47.77-1.48,0-3.17.52-5h9.91c.88-1.78.14-3.46.63-5.29h10.25c.08-1.84.15-3.43.24-5.29h15.32c.87-1.78.13-3.46.7-5.53ZM445.72,402.62h5v-4.86h-5Z"/><path class="cls-5" d="M33.24,872.26l-15.77.06v-4.49H12.31v-5.24l5-.23c.07-1.64.15-71.92.23-73.77H27.85c.08-1.84.15-3.43.23-5.28H38.41c.09-1.83.16-3.42.25-5.27H49c.08-1.83.16-3.43.24-5.27H54.3v-5c1.78-.83,3.47-.1,5.12-.57.7-1.5,0-3.19.44-4.84,1.5-.71,3.19,0,4.85-.45.7-1.49,0-3.18.44-4.83,1.5-.71,3.18,0,4.84-.45.71-1.49,0-3.18.54-5.15h5l0,0v10.05c-2,.89-3.72,0-5,1-.71,1.49.21,3.16-.72,4.48-1.46.78-3.13-.14-4.51.74-.88,1.47.29,3.33-.86,4.62-1.53.65-3.2-.27-4.46.72-.75,1.5.2,3.18-.75,4.5-1.46.76-3.14-.16-4.66.83-.13,1.41-.27,2.9-.4,4.33-1.61,1-3.47-.15-4.79.93-.7,1.49.22,3.16-1,4.87H39c-.72,2-.31,72.3-.46,73.91l0,0H28.28c-.34,2-.57,3.52.15,5.11l4.4.38C33.56,869.44,33.16,870.87,33.24,872.26Z"/><path class="cls-5" d="M419.22,471.42v-5.16H403.38V461H392.76v-5.31H382.27v-5.1H366.75c-.83-1.79-.16-3.47-.6-5.24H345.3c-.06,1.5-.14,3.09-.21,4.73-1.57.78-3.27,0-4.91.52-.72,1.5.05,3.19-.53,5H329.39v5.31h-5.32v5.31h-5.21v4.86c-1.66.9-3.36.16-5.1.58-.72,1.43,0,3.12-.42,4.8-1.46.82-3.16,0-4.84.49-.79,1.46,0,3.15-.51,5H297.73v10.25c-1.79.9-3.48.14-5.31.67v15.49l-5.29.26v32.92q0,8.57,0,17.12c0,2.22,0,4.43,0,6.65v6.3c1.54.73,3.22,0,5.06.52v10.2l5.29.25v10.31l5.28.25c.07,1.62.14,3.22.23,5l5,.23c.08,1.3.17,2.57.26,3.84v6.29c1.54.78,3.24,0,5.08.56v10.2l5.32.25v5.13H324V630h5.21v4.87c1.66.85,3.36.14,5,.54.81,1.46,0,3.17.49,4.83,1.46.8,3.17,0,4.83.49.75,1.47,0,3.17.47,4.83,1.48.74,3.18,0,5,.52.07,1.51.15,3.11.24,4.92l5,.25v5.12h-5V667h5.14v10.49h4.88c.8,1.67.13,3.36.52,5,1.47.84,3.18,0,4.87.53.77,1.42-.06,3.13.49,4.8,1.44.75,3.14,0,4.8.46.73,1.49,0,3.19.48,4.83,1.49.73,3.19,0,5,.52.07,1.52.15,3.12.24,4.93l5.13.23v5.14h5.32v5.21H387c.88,1.67.14,3.36.58,5.11,1.42.72,3.12,0,4.86.43.66,1.47,0,3.12.35,4.7-1.67.9-3.37.12-5.15.61v4.83c1.43.74,3.13,0,5,.5v10.2l5.32.27v10.39h5.2v10.6h-5v15.77h4.95v20.77c1.79.89,3.48.18,5.44.69,0,3.09,0,112.58,0,115.83l-10.52,0V794.42c-1.88-1.19-3.76,0-5.47-1.57V773.09c-1.78-.86-3.45.06-5.19-1.16V757.07c2.05-.61,3.76.21,5.13-.57V746.13h-5V735.65h-5.32v-10.6H371.78v-5.32H382v-5c-1.74-.54-3.44.24-4.93-.51-.52-1.64.29-3.34-.49-4.81-1.65-.51-3.36.3-4.81-.49-.49-1.67.32-3.37-.5-4.83-1.68-.42-3.37.3-4.77-.41-.49-1.75.28-3.45-.63-5.11H361v-5.21H355.7v-5.25h-5.16c-.35-1.68.4-3.49-.48-5.05-1.58-.57-3.19.19-4.58-.55-.78-1.56.28-3.36-.81-4.82l-4.91-.35v-10.2l-4.78-.33c-.86-1.72.21-3.52-.89-5l-4.8-.33c.25-1.79-.41-3.4.61-5.21h9.77c.2-1.89.59-3.49-.21-4.94-1.59-.54-3.2.22-4.58-.57-.74-1.57.32-3.37-.8-4.8l-4.4-.3c-.83-1.75.24-3.56-.83-4.91-1.56-.53-3.18.24-4.53-.55-.76-1.58.32-3.38-.76-4.74-1.56-.52-3.18.25-4.7-.64-.09-1.49-.18-3-.26-4.4-1.67-1-3.47.11-5-.91-.09-1.47-.18-3-.28-4.47-1.67-.77-3.45.16-5-.8-.09-1.49-.18-3-.27-4.39-1.67-.94-3.47.12-5.2-1v-9.49c-1.76-1-3.56.08-5.29-1.09v-9.48c-1.77-1-3.57.08-5.1-.95-.09-1.49-.19-3-.27-4.38-1.69-.93-3.49.14-5.22-1.05v-9.48c-1.76-1-3.57.11-5.29-1.1v-9.47c-1.77-1-3.57.11-5-.91V508.69l5.17-.43V493.12c1.77-1,3.58.1,5.3-1.12v-9.46c1.78-1,3.58.11,5.07-1,.11-1.51.21-3,.31-4.38,1.7-.91,3.5.17,5-.91.11-1.51.21-3,.31-4.56,3.53-.62,7,.25,10.15-.53.56-1.67-.16-3.29.58-4.66,1.57-.81,3.37.27,4.82-.82.11-1.54.22-3,.32-4.39,1.73-.88,3.53.2,5-.89.11-1.55.22-3.05.32-4.4,1.74-.87,3.54.22,4.9-.84.51-1.57-.23-3.18.66-4.7l4.48-.27c.76-1.68-.15-3.45.93-5.2h9.59c.82-1.78-.11-3.56.88-5.11l4.48-.25a15.78,15.78,0,0,0,.27-5.08l5.41-.17h15.9v5.42h15.39c.76,1.86-.14,3.6.94,5.41h9.89c.08,1.85.15,3.35.24,5.18H403c.73,1.86-.18,3.6.88,5.29h15.34V461h15.51c.72,1.86-.2,3.6.89,5.29h9.88c.09,1.81.18,3.39.27,5.23h10.4c.22,1.69-.35,3.45.4,5.15h4.94l5.16.25c.09,1.81.16,3.4.25,5.18H472c.3,1.68-.33,3.45.45,5.14h4.93l5.22.18c.34,1.64-.4,3.41.65,5.12H488l5,.22c.59,1.82-.21,3.51.73,5.24h10c.18,1.61-.28,3.27.32,4.83,3.29.58,12.78.52,15.52-.11V493c2.08-.7,3.81.21,5.21-.69v-5h-5.2V476.74h-5.22l0,.05V466.18h-5.34l.05,0c-.26-1.69.31-3.46-.43-5.33h-4.9l.05.05c-.27-1.69.3-3.46-.43-5.33h-4.91l.05.05c-.27-1.7.31-3.47-.43-5.33H493.2l.05.05c0-1.77,0-3.54,0-5.31l-.06.06H503.4c.79,1.63.05,3.32.52,5,1.5.71,3.19,0,4.84.45.72,1.5,0,3.19.49,5l4.76.21c.75,1.58,0,3.27.53,5.07l5,.22v10.37h5.25c.08,1.84.16,3.44.24,5.25l5.1.23v10.38h5.2v5.28h-5v10.58H525v5.29h-5.29v5.19H503.81v-5.1h-10.6v-5.31H482.62v-5.3H472.15v-4.86c-1.66-.83-3.35-.14-5.1-.54-.67-1.45,0-3.13-.43-5H456.38v-5.29H446.1c-.93-1.78-.16-3.47-.66-5.3H435.19c-.08-1.84-.15-3.44-.25-5.52Z"/><path class="cls-5" d="M487.89,439.84h5.28v5.29l.06-.06-5.31,0,.05,0,0-5.28Z"/><path class="cls-6" d="M345.25,803.63H334.52c0-1.49.45-3-.35-4.48l-4.55-.22c-.69-1.74.17-3.49-.65-4.9-1.62-.68-3.38.31-4.83-.73-.09-1.57-.19-3.07-.28-4.69-1.81-.08-3.4-.39-5,.23-.09,1.63-.16,3.13-.23,4.55-1.71.85-3.48-.14-4.95.76-.59,1.57.28,3.33-.79,5H287.1v4.46H218.21v-4.58H208.09c-.77-1.87.13-3.63-.79-5.14a11.69,11.69,0,0,0-4.53.11c-.8,1.57.19,3.34-.77,4.93-1.58,0-3.19.41-4.73-.27-.1-1.64-.19-3.15-.27-4.56-1.73-.79-3.49.18-5-.81-.07-1.5-.14-3-.22-4.66a14,14,0,0,0-5.3.17V799c-1.89,0-3.42.37-4.86-.19-.73-1.6.24-3.37-.75-4.91l-4.43-.19c-.86-1.72.11-3.49-1-5.32h-9.86c-.11-1.88-.19-3.38-.3-5.24H149.69c-.1-1.88-.17-3.38-.26-5.24H139.37c-.8-1.89.18-3.66-.83-5.12l-4.48-.26c-.79-1.73.18-3.5-.81-5l-4.43-.19c-.85-1.73.11-3.49-.88-5.17-1.52.23-3.15-.49-4.68.43-.1,1.58-.19,3.08-.28,4.48-1.73.81-3.5-.19-5,.83-.08,1.51-.15,3-.24,4.59h-10.6V757H97c-.77,1.71.23,3.48-.81,5a11.6,11.6,0,0,1-4.58-.19V751.62l5-.25V741a9.7,9.7,0,0,0,0-1.32c-.21-2.55,0-4.7,3.52-4.09,1.21.21,1.79-.56,1.78-1.78s0-2.63,0-4c0-4.51,0-4.5,4.4-5,.19,0,.36-.22.85-.53V703.93c5.28.09,5.28.09,5.36-5,0-.11,0-.22,0-.33h15.71c.09-1.92.17-3.43.24-5H138.7c.73,1.73-.26,3.49.92,5.18h9.59c.82,1.75-.16,3.51,1,5.34H160c.1,1.87.19,3.37.29,5.22h10.47v10.29a14.64,14.64,0,0,0,4.91,0c.73-1.73-.23-3.48.75-5a12,12,0,0,1,4.9.26v15.23h10.4c.09-1.76.17-3.27.24-4.75,1.74-.65,3.48.17,4.92-.63.66-1.61-.32-3.37.66-4.76h15.15c.7,1.7-.21,3.45.9,5.27h31c.1,1.87.18,3.37.26,4.89h36.75c.09-1.73.15-3.23.23-4.87H297.3c.71,1.72-.22,3.47.73,5a12.52,12.52,0,0,0,4.9-.23V719.94c1.95-.1,3.56-.41,5.34.31v4.9h10.11c.8,1.88-.19,3.64.78,5.05h15.22V719.92l-4.87-.22V709.47H340v4.89a14.77,14.77,0,0,0,5.1-.07c.07-1.78.14-3.41.22-5,1.6.15,3.27-.37,5,.49.06.94.16,1.91.17,2.87,0,1.17.41,2.07,1.68,1.87,3.72-.58,3.84,1.66,3.63,4.34-.11,1.42,0,2.85,0,4.28,0,1.12.29,2.14,1.61,1.94,4-.6,3.8,2,3.69,4.6-.08,2.09,0,4.18,0,6.26,0,4.68,0,4.68,4.48,5.24.19,0,.35.24.81.58v5c0,4.48,0,4.48,4.41,4.95.19,0,.36.22.91.58v15.18l-.09,5.13H361.22v5c1.67.79,3.42-.17,4.84.69v10H356c-.68-1.69.18-3.43-.79-5.13-1.52.3-3.15-.43-4.68.45-.09,1.6-.17,3.1-.28,5H340.16v10.35l4.89.29C345.13,800.82,345.19,802.23,345.25,803.63Z"/><path class="cls-7" d="M204.61,809.28l10-3.64c-.46-1.5-.9-2.94-1.35-4.39,1.09-1.48,3.1-1.14,4.44-2.5-.39-1.34-.82-2.79-1.27-4.3,1.12-1.4,2.9-1.27,4.25-2,1.51,1.24,1.2,3.23,2.59,4.56l4.24-1.34c1.45,1.11,1.14,3.1,2.49,4.45l4.29-1.28c1.45,1,1.14,3,2.54,4.52l9.44-3.45c.73,1.72,1.31,3.11,2,4.84l14.64-5.34c.73,1.71,1.32,3.09,2.07,4.82l9.26-3.39c1.66,1.36,1.35,3.35,2.74,4.67l4.24-1.34c1.46,1.11,1.15,3.1,2.38,4.35,1.55,0,2.87-.8,4.63-1.48l-3.48-9.53a14.35,14.35,0,0,1,4.93-2l1.8,4.31c1.79.4,3.12-1.12,5-1,.56,1.3,1.15,2.68,1.81,4.19,1.69.11,3.07-.78,4.53-1.37.36-1.82-1.18-3.14-1-4.89a11.76,11.76,0,0,1,4.22-1.66c1.38,1.11,1.14,3.06,2.5,4.56l9.51-3.47,1.57,4.3"/><path class="cls-7" d="M377,793.14v-14.6c-1.73-1-3.38-.27-4.88-.9-.93-1.58-.23-3.39-.52-5.07H361.22v5c1.67.79,3.42-.17,4.84.69v10H356c-.68-1.69.18-3.43-.79-5.13-1.52.3-3.15-.43-4.68.45-.09,1.6-.17,3.1-.28,5H340.16v10.35l4.89.29c0,.72.07,1.39.1,2q-61.89,4.13-124,3.08a6.66,6.66,0,0,0-2.15-.53l-2.66-.19h1.83v-4.58H208.09c-.77-1.87.13-3.63-.79-5.14a11.69,11.69,0,0,0-4.53.11c-.8,1.57.19,3.34-.77,4.93-1.58,0-3.19.41-4.73-.27-.1-1.64-.19-3.15-.27-4.56-1.73-.79-3.49.18-5-.81-.07-1.5-.14-3-.22-4.66a14,14,0,0,0-5.3.17V799c-1.89,0-3.42.37-4.86-.19-.73-1.6.24-3.37-.75-4.91l-4.44-.19c-.85-1.72.12-3.49-1-5.32h-9.86c-.11-1.88-.19-3.38-.3-5.24H149.69c-.1-1.88-.17-3.38-.26-5.24H139.37c-.8-1.89.18-3.66-.83-5.12l-4.48-.26c-.79-1.73.18-3.5-.81-5l-4.43-.19c-.85-1.73.11-3.49-.88-5.17-1.52.23-3.15-.49-4.68.43-.1,1.58-.19,3.08-.28,4.48-1.73.81-3.5-.19-5,.83-.08,1.51-.15,3-.24,4.59h-10.6V757H97c-.77,1.71.23,3.48-.81,5a11.6,11.6,0,0,1-4.58-.19V751.62l5-.25V741H91.6c-.11,1.67-.21,3.17-.31,4.82-1.65.68-3.38.32-5.09.3,0,1.77-.09,3.53-.13,5.3s.31,3.27-.23,4.87c-1.4,1-3.09,0-4.67.88-.84,3.08.09,6.41-.51,9.58-1.42,1.12-3.12.16-4.6.88-1.07,1.26-.06,3-.85,4.53-1.22,1.08-3.1-.07-4.72.92-.14,1.41-.29,2.89-.43,4.31-1.52,1-3.2.09-4.62.82-1,1.37,0,3.06-.79,4.52-1.31,1-3,0-4.61.83-.9,3,.1,75.07-.55,78.28-1.34,1.14-3,.19-4.55.86-1.19,1.28,0,3.17-1,4.79l-4.28.42c-.83,1.47-.33,2.93-.51,4.32.33,0,.66.09,1,.09H63.88a6.11,6.11,0,0,0,.34,6.28c-2.81,2.86-1.51,9.29,3.84,9.65,7,.46,14,.86,21,1.24q14.78.86,29.56,1.58a5.49,5.49,0,0,0,3.12,6.9c-1,3.11.67-20.77,5-20.46q12.36.87,24.72,1.3,4.7,1.29,9.41,2.53c-2.17,2.75-1.85,7.65,2.56,8.92L242.32,913c5.72,1.65,8.66-5.57,5.43-9.08h0c0-.08,0-.15,0-.23l1.8.13c-1.41,3.31.18,7.92,4.8,7.75l64.19-2.42q16.28.23,32.52,1a4.68,4.68,0,0,0,4.61-2.44l4.58-.17a5.59,5.59,0,0,0,5.11,3.53h9.89a5.58,5.58,0,0,0,5.49-5.5,5.42,5.42,0,0,0-1.17-3.31,5,5,0,0,0,2.27-4.38V803.57h.38v-9C380.63,793.11,378.73,794.34,377,793.14Z"/><path class="cls-8" d="M86.07,751.45c0,1.63.31,3.27-.23,4.87-1.4,1-3.09,0-4.67.88-.84,3.08.09,6.41-.51,9.58-1.42,1.12-3.12.16-4.6.88-1.07,1.26-.06,3-.85,4.53-1.22,1.08-3.1-.07-4.72.92-.14,1.41-.29,2.89-.43,4.31-1.52,1-3.2.09-4.62.82-1,1.37,0,3.06-.79,4.52-1.31,1-3,0-4.61.83-.9,3,.1,75.07-.55,78.28-1.34,1.14-3,.19-4.55.86-1.19,1.28,0,3.17-1,4.79l-4.29.42c-.83,1.47-.33,2.93-.51,4.32H33.24c-.08-1.39.32-2.82-.41-4.33l-4.4-.38c-.72-1.59-.49-3.07-.15-5.11H38.57c.17,1.69-.47,3.48.51,5.12,1.55.16,3.06.51,4.53-.29a7.77,7.77,0,0,0-.27-4.8H38.53c.15-1.61-.26-72,.46-73.91h9.4c1.25-1.71.33-3.38,1-4.87,1.32-1.08,3.18,0,4.79-.93.13-1.43.27-2.92.4-4.33,1.52-1,3.2-.07,4.66-.83.95-1.32,0-3,.75-4.5,1.26-1,2.93-.07,4.46-.72,1.15-1.29,0-3.15.86-4.62,1.38-.88,3,0,4.51-.74.93-1.32,0-3,.72-4.48,1.29-1,3-.07,5-1V751.53Z"/><path class="cls-8" d="M398.06,802.74v-8.32c-1.88-1.19-3.76,0-5.47-1.57V773.09c-1.78-.86-3.45.06-5.19-1.16V762h-5.18v10.28c-1.79.61-3.3.28-4.86.29-1-1.48-.06-3.23-.76-5a16.65,16.65,0,0,0-5-.15l-.09,5.13c.29,1.68-.41,3.49.52,5.07,1.5.63,3.15-.12,4.88.9v14.6c1.78,1.2,3.68,0,5.26,1.45v7a5.73,5.73,0,0,0-.24,1.66V904.06a5.1,5.1,0,0,0,4.53,5.24v2.59a5,5,0,0,0,3.21,4.87c3.24,2,8.61.5,8.61-4.45V804.48A5.58,5.58,0,0,0,398.06,802.74Z"/><path class="cls-7" d="M287.1,803.63v-4.46h25.78c1.07-1.69.2-3.45.79-5,1.47-.9,3.24.09,4.95-.76.07-1.42.14-2.92.23-4.55,1.61-.62,3.2-.31,5-.23.09,1.62.19,3.12.28,4.69,1.45,1,3.21.05,4.83.73.82,1.41,0,3.16.65,4.9l4.55.22c.8,1.46.33,3,.35,4.48Z"/><path class="cls-9" d="M59.73,328.9H54.85c-.92,1.66,0,3.4-.74,5.09H44v-4.73c1.48-.9,3.22,0,4.83-.62.75-1.47,0-3.19.56-4.93h4.46c1.13-1.68.17-3.43.81-5.07,1.41-.84,3.15.07,4.9-.63.09-1.5.2-3.09.31-4.89h4.58c1.08-1.68.16-3.42.77-5.05,1.44-.83,3.18.08,4.89-.63v-4.9h-10c-.6-1.77-.3-3.37-.28-5,1.61-.89,3.35,0,5.2-.78V286.67h4.78c1-1.69.11-3.43.81-5.18l4.88-.33V276.6c1.69-1.09,3.43-.17,5.06-.77.84-1.44-.07-3.18.65-4.92l4.89-.3v-10c1.71-.89,3.42-.14,5.3-.72V249.77l4.91-.23c1-1.46.07-3.2.65-4.84,1.42-.87,3.16,0,5-.68V233.9h4.77c1.12-1.68.17-3.43.8-5.08,1.42-.81,3.15.05,4.9-.59.1-1.53.2-3.12.32-4.91h5V213.19c1.82-1,3.55-.13,5.31-.87.08-1.49.16-3.08.25-4.88h9.91c1.06-1.69.13-3.43.86-5.3h10.13v-4.76c1.68-1.14,3.43-.17,5.08-.82.82-1.4-.05-3.13.64-5H160v-5.19h10.48l.34-5.4h15.63v-5.18h21c.13-1.9.24-3.49.35-5.24h79.06v5h15.75c.13,1.9.24,3.49.37,5.4h10.34v4.78c1.69,1,3.44.1,5.19.81.1,1.49.2,3.08.33,4.88h9.91c1,1.7.15,3.42.69,5,1.46.84,3.2-.07,4.95.66.09,1.5.18,3.09.28,4.88h4.61c1.06,1.69.14,3.43.76,5,1.45.81,3.2-.1,4.95.65.07,1.5.14,3.1.22,4.89h10.17a16.36,16.36,0,0,1,.2,5.33H334.59v5.33l0,0-26.4.07c-5.33-.14-5.33-.14-5.36,5.22H292.3c-4.84,0-4.83,0-5.49-4.58,0-.18-.27-.32-.61-.71h-4.73c-4.65,0-4.65,0-5.21-4.5,0-.19-.24-.35-.58-.8-4.29,1.3-5.07-1.42-4.59-5.26H245.61c-5.53,0-5.53,0-6.66-5.08h-57.1c-1.15,1.6.11,3.52-1.53,5.25H165.89c-.88,1.81.09,3.51-1.31,5.23H150.1c-1,1.79,0,3.49-1.24,5.16h-9.3c-5.85,0-5.82,0-5.87,5.68,0,1.5.36,3.06-.44,4.66L129,234c-1.12,1.6.14,3.51-1.52,5.25H113c-.87,1.81.09,3.51-.94,4.78-1.48.75-3.18-.22-4.46.78-.79,1.46.19,3.16-.9,4.62l-4.77.5v15.28l-4.71.49c-1.12,1.6.14,3.51-1.06,4.78-1.51.69-3.21-.28-4.57.89-.62,3.2.35,6.53-.53,9.57-1.63.81-3.33-.15-4.67.89-.63,1.44.14,3.11-.75,4.57l-4.87.51v10l-5.23.56v14.86c-1.8,1.3-3.71,0-5.45,1.66v35.55c-1.8.9-3.5-.06-5.23,1.3v25.1c-1.8.88-3.47.05-5.23,1.15v25.48l-4.75.51c-.77,1.3-.47,2.54-.47,3.72q0,19.31,0,38.61c0,4.57,0,4.57,4.55,5.18.18,0,.33.26.74.6v42c0,4.42,0,4.42,4.46,4.91.18,0,.35.23.83.57V518.2c0,5.47,0,5.47,5.28,6.7v14.68c0,5.32,0,5.32,5.32,6.4v31.16l-.08.08h-5.1c-.09,1.77-.17,3.37-.25,5.09h-5V540.75c-1.8-1.06-3.54-.15-5.39-.9V519.17H54.56v-26c-1.81-1.07-3.54-.16-5.39-.9V455.79H44.09V424.3c1.37-.85,3.11.07,5-.66V392.29h5.28V361.11c1.69-1.07,3.43-.14,5.34-.88V328.85h5.21a15.74,15.74,0,0,0-.16-5.13c-1.74-.09-3.33-.43-5,.27Zm248-131.85c1,5.56,1,5.56,5.86,4.63-.13-1.49-.26-3-.42-4.89-4.23.9-5.72-1.2-5.1-5.2H303C302.76,196.48,302.76,196.48,307.77,197.05Zm16.49,4.83c-.51,5.56.05,6.08,5.23,5.08-.13-1.49-.25-3-.39-4.65Z"/><path class="cls-10" d="M551.32,254.81l-5.05.29c-.11,1.65-.22,3.15-.33,4.63-1.48.95-3.11.16-4.66.69-1.07,1.35,0,3.16-.76,4.7-1.4.82-3,0-4.56.61-1,1.38,0,3.18-.86,5h-9.52c-1.1,1.69-.33,3.32-.84,4.87-1.34,1.11-3.16,0-4.72.8-.8,1.36,0,3-.64,4.68-3.17.76-6.6-.08-10.09.49-.13,1.6-.25,3.1-.37,4.59-1.49,1.07-3.31,0-5,.93-.1,1.41-.21,2.91-.33,4.71H494c-1.31,1.73-.3,3.53-1.15,5.32h-9.47c-1.31,1.72-.21,3.54-1.16,5.19l-4.36.32c-.89,1.53-.13,3.15-.79,5H467c-.16,1.89-.28,3.38-.42,5-3.29.88-6.73-.11-10.21.61-.11,1.58-.23,3.07-.35,4.7-3.3.77-6.61,0-9.88.48-1.12,1.42-.07,3.24-1,5h-9.43c-1.29,1.73-.19,3.55-1.23,5.33h-9.81c-.15,1.79-.27,3.29-.42,5.25h-9.73c-1.22-1.45-.08-3.49-1.16-4.94-4.79-.6-4.79-.6-4.79-5.7a19.57,19.57,0,0,1,0-2.3c.24-2.11-.56-3.13-2.76-2.84s-2.65-.78-2.57-2.69c.11-2.63,0-5.26,0-7.89,1.74,0,3.47.06,5.21,0,5.79-.11,5.44,1.06,5.37-5.32,1.73,0,3.47.06,5.2,0,5.8-.11,5.44,1.06,5.37-5.31,1.73,0,3.47.06,5.21,0,5.79-.11,5.44,1.06,5.36-5.31,6,0,5.31.7,5.29-5.28,6,0,5.31.71,5.29-5.29,6.32.08,5.21.46,5.31-5.36,0-1.73,0-3.46,0-5.2,6.28,0,5.19.56,5.3-5.37,0-1.73,0-3.47,0-5.2,6.21.06,5.24.56,5.29-5.27,6,0,5.26.74,5.29-5.29,6,0,5.26.75,5.29-5.28,6,0,5.26.76,5.28-5.28,1.73,0,3.47,0,5.2,0,6-.09,5.37.93,5.38-5.3,1.73,0,3.46,0,5.19,0,6-.1,5.37.92,5.38-5.3,1.73,0,3.46,0,5.2,0,6-.09,5.37.93,5.37-5.29,3.59,0,7.18.05,10.77,0,5.64-.07,5.1.87,5.09-5.3l26.46,0c0,6.11-.71,5.2,5.38,5.28,1.73,0,3.46,0,5.19,0q0,4.09,0,8.19c0,1.09.07,2.55-1.52,2.3-4.36-.7-3.84,2.17-3.77,4.82,0,1.31,0,2.62,0,3.93,0,.94-.22,2-1.35,1.81-4.79-.74-3.92,2.59-3.93,5.31Z"/><path class="cls-11" d="M419.19,228.54h10.13c.9-1.68.09-3.38.68-5.2h10.18c.09-1.83.16-3.42.26-5.44h10.39c-.07,1.71.54,3.49-.56,5.29-2.74-.23-5.42-.33-4.74,3.87.26,1.59-1.31,1.51-2.38,1.41-2.13-.21-3.13.57-2.82,2.78s-.79,2.72-2.71,2.55a2.64,2.64,0,0,0-2.28.49c-.61,1.51-.16,3.17-.28,4.79-6.23,0-5.22-.6-5.29,5.28-6.37,0-5.17-.49-5.3,5.29-.14,1.61.33,3.28-.54,5.26-2.36,0-4.86.09-7.35,0-2-.09-3,.54-2.68,2.6.31,2.25-.8,2.94-2.87,2.73-1-.1-2,.12-3,0-3.61-.62-5.33.71-4.93,4.47,0,.16-.22.34-.57.84-2.39,0-5,0-7.63,0-1.23,0-2.38.24-2.14,1.74.55,3.46-1.42,3.78-4.06,3.57-1.42-.11-2.86.05-4.28,0-1.73-.1-2.5.66-2.26,2.33.37,2.65-1,3-3.28,3-11.43-.09-22.86-.2-34.29.06-3.61.08-5.34-.78-4.92-4.55,0-.16-.22-.35-.55-.82-4.13,1.15-5.24-1.23-4.56-5.4-4.57,1.09-6.15-.81-5.33-4.66-1.91-.86-3.59-.34-5.2-.56V250.2c-2-.92-3.68-.39-5.28-.62l-.08-15.73c3.49,0,7,0,10.47-.08,6.1-.08,5.37.92,5.41-5.33l-.06,0,31.83.1c0,1.75,0,3.5,0,5.25l0,0c-1.68.13-3.44-.42-5.31.54v4.76l0,0c-1.7.15-3.48-.47-5.08.47v15a14.9,14.9,0,0,0,5.11.25h15.59c.49-1.94-.24-3.64.66-5.32h4.86v-5l5.18-.29V239.1c.22-6.54.3-5.2-5.23-5.3h0c0-1.74,0-3.48,0-5.22h26.53v5h10.56v-5.12Z"/><path class="cls-10" d="M414.56,397.63h9.71c.12,1.7.23,3.2.34,4.73,1.69.94,3.51.21,5.2.56.1,1.66-.47,3.39.55,5.18h4.75l-.05,0c.17,1.69-.43,3.45.58,5.33h10l-.05-.05c.17,1.69-.43,3.46.58,5.33h10l0-.05c.15,1.69-.41,3.45.55,5.33h4.78l-.05-.05c.16,1.69-.41,3.45.56,5.34h4.78l-.05-.05c.16,1.69-.41,3.45.54,5.33h4.79l0,0c.15,1.69-.42,3.45.55,5.33h4.78l0-.05c.17,1.69-.42,3.46.56,5.33H488l-.05,0c.16,1.7-.39,3.46.5,5.34h4.83l-.05-.05c.17,1.69-.38,3.45.51,5.33h4.83l-.05-.05c.17,1.69-.38,3.46.5,5.33h4.84l-.05-.05c.16,1.7-.38,3.46.49,5.33h4.84l-.05,0v10.61h5.34l0-.05v10.42H493.62c-.94-1.68.19-3.51-.89-4.86-1.54-.56-3.18.26-4.68-.71-.11-1.47-.22-3-.33-4.53-3.48-.7-6.92.27-10.09-.58-.66-1.64.16-3.28-.65-4.64-1.55-.83-3.38.31-4.71-.8-.58-1.55.26-3.19-.72-4.66l-4.39-.33c-.88-1.68.19-3.5-1.14-5.23h-9.65c-.14-1.81-.25-3.31-.37-4.88-3.47-.73-6.91.26-10.09-.6-.65-1.63.15-3.26-.87-5h-9.56c-.75-1.89-.28-3.56-.46-5.17.09-6.48.42-5.27-5.38-5.38-1.75,0-3.5,0-5.25.05l0,0c.09-6,.72-5.42-5.33-5.32l0,0c.19-6.56.2-5.26-5-5.37-1.85,0-3.71,0-5.57.05v0c0-6,.11-12.06.05-18.09,0-2.06.26-3.5,2.8-3.14,2.12.3,2.53-.84,2.57-2.71C414,402.81,413.28,400.13,414.56,397.63Z"/><path class="cls-12" d="M403.3,307.72c0,2.63.11,5.26,0,7.89-.08,1.91.48,3,2.57,2.69s3,.73,2.76,2.84a19.57,19.57,0,0,0,0,2.3c0,5.1,0,5.1,4.79,5.7,1.08,1.45-.06,3.49,1.16,4.94-1.42,1.43-.07,3.42-1.18,5.28h-9.33c-1.32,1.72-.18,3.56-1.28,5.29H377.5c-1,1.92-.42,3.7-.61,5.39l0,0H355.76v5.3H345.18v5.28H334.61v5.28H324v5.29l-5.27,0H302.83V366c0-4.38.13-8.75,0-13.13,0-2.1.6-2.91,2.79-2.85,5,.12,10.07-.1,15.1.09,2.59.1,3.68-.69,3.3-3.31a12.84,12.84,0,0,1,0-2c1.67-.39,3.5.42,5-.54.59-1.57-.26-3.22.92-4.91h14.66c1-1.77-.11-3.61,1.31-5.33h9.59c.15-1.82.27-3.31.4-4.88,3.46-.76,6.89.24,10.06-.61.68-1.62-.16-3.26.79-4.79l4.33-.33c1-1.62-.13-3.46,1.2-5.2h9.37c1-1.79-.14-3.62,1.28-5.34h9.58c.15-1.82.27-3.31.42-5.19h10.3Z"/><path class="cls-13" d="M519.67,402.87v5.06H488.29c-.84-1.43,0-3.17-.69-5.06H472.2c-.1-1.87-.17-3.37-.27-5.25H461.64c-.1-1.86-.19-3.36-.29-5.24h-9.91c-1-1.79-.2-3.4-.87-5.33H356c-.21-2.08-.36-3.57-.52-5.11-3.46-.61-6.79.24-9.86-.52-.91-1.57,0-3.26-1-4.78l-4.33-.43c-.74-1.77-.32-3.42-.41-5,1.65-.29,3.41.37,5.25-.62v-4.71h10.58v-5.27h0l10.62.1c.09,1.61-.37,3.27.54,5.22h14.6c1.27,1.8,0,3.72,1.68,5.45h19.7c.87,1.8-.09,3.5,1.31,5.22h19.76c1,1.78,0,3.48,1.28,5.21h30.7c.2,1.87.36,3.35.53,4.95,3.41.82,6.88-.35,9.95.66.78,1.66-.2,3.36,1,4.72,3.19.59,6.52-.31,9.54.49.84,1.66-.13,3.36,1.23,5.08h19.77c1,1.78.05,3.48,1.28,5.22Z"/><path class="cls-14" d="M519.67,402.87H499.21c-1.23-1.74-.27-3.44-1.28-5.22H478.16c-1.36-1.72-.39-3.42-1.23-5.08-3-.8-6.35.1-9.54-.49-1.19-1.36-.21-3.06-1-4.72-3.07-1-6.54.16-9.95-.66-.17-1.6-.33-3.08-.53-4.95h-30.7c-1.27-1.73-.3-3.43-1.28-5.21H404.18c-1.4-1.72-.44-3.42-1.31-5.22h-19.7c-1.66-1.73-.41-3.65-1.68-5.45h-14.6c-.91-1.95-.45-3.61-.54-5.22l52.87-.11c.12,1.69-.31,3.44.41,5.28h20.73c.12,1.69-.27,3.43.39,5.28h10.19c.11,1.69-.28,3.43.4,5.36h10.15l-.05,0c.32,1.67-.39,3.46.61,5.26h15.32v5.25h10.44c6.5.18,5.28.36,5.37-5.2l.05-.05H519.5c.09,1.85.17,3.43.25,5.23h5.07v10.63c-1.61.19-3.29-.34-4.86.43-.6,1.64-.23,3.3-.3,4.92Z"/><path class="cls-12" d="M414.56,397.63c-1.28,2.5-.55,5.18-.61,7.77,0,1.87-.45,3-2.57,2.71-2.54-.36-2.82,1.08-2.8,3.14.06,6,0,12.06-.05,18.09-1.68-.34-3.49.44-5-.49-.54-1.58.21-3.18-.6-4.66-3.33-.6-6.75.3-10.06-.53-.1-1.68-.19-3.17-.29-4.77-3.52-.52-6.93.27-10.28-.49-.1-1.67-.19-3.17-.3-5H366.73c-.91-1.88.16-3.67-1-5.22H350.37v-5.26l21.27-.07h10.55v-5.29l0,0c1.68-.18,3.43.37,5.32-.54v-4.78l0,.05H413.2C414.71,394,413,396.18,414.56,397.63Z"/><path class="cls-7" d="M371.64,402.82l-21.27.07h.06c-.12-1.69.45-3.46-.55-5.32H339.82l0,0c-.12-1.7.45-3.46-.55-5.32H329.25l0,0c-.12-1.69.42-3.44-.54-5.33H324v.06c-.11-1.69.41-3.44-.54-5.34h-4.76l0,0,.06-5.4h15.77V371.1h0l5.34.08c.09,1.62-.33,3.27.41,5l4.33.43c1,1.52.07,3.21,1,4.78,3.07.76,6.4-.09,9.86.52.16,1.54.31,3,.52,5.11h31.54l-.09,5.24,0-.05c-1.68.24-3.44-.36-5.32.54v4.78l0,0H371.64Z"/><path class="cls-9" d="M102.1,677.53V667.12l-5.32-.25V651.68c-1.69-1.07-3.43-.15-5.3-.86V630.13H86.3v-15.8l-5.42-.3V598.41H75.51V577.22l.08-.08c1.61.19,3.29-.29,5.26.56V588c0,4.61,0,4.6,4.52,5.19.18,0,.34.25.76.59V604.1c0,4.48,0,4.48,4.43,4.93.18,0,.35.22.86.56v8.94c0,5.59,0,5.59,5.29,6.71V630c0,4.88,0,4.88,4.55,5.5.18,0,.33.26.73.6v10c0,4.75,0,4.74,4.46,5.24.18,0,.35.23.77.53v25.79Z"/><path class="cls-15" d="M435.06,239.08c.12-1.62-.33-3.28.28-4.79a2.64,2.64,0,0,1,2.28-.49c1.92.17,3-.44,2.71-2.55s.69-3,2.82-2.78c1.07.1,2.64.18,2.38-1.41-.68-4.2,2-4.1,4.74-3.87,1.1-1.8.49-3.58.56-5.29v-5.16h10.5c.09-1.82.17-3.41.25-5.27h10c.86-1.77.11-3.46.68-5.42h10.29l.06,0c0,2.87.7,6.16-4.13,5.36-.91-.16-1.16.79-1.17,1.6,0,1.19,0,2.38,0,3.57h0c-2.62,0-5.24.1-7.85,0-1.88-.07-3,.41-2.7,2.53s-.57,3.08-2.75,2.78-2.75.71-2.55,2.65a25.27,25.27,0,0,1,0,2.61h0c-5.22.07-5.22.07-5.29,5.29h0c-1.68.27-3.49-.49-5.35.77v4.47c-1.65.35-3.45-.44-4.95.53-.62,1.53.22,3.15-.79,4.69l-4.7.22-5.35-.1Z"/><path class="cls-15" d="M408.65,228.57H366.36l-31.83-.1c0-1.75.07-3.51.1-5.27l0,0,21.16-.15,59.54.12h3.9v5.33l0-.09Z"/><path class="cls-16" d="M96.66,741H91.6c-.11,1.67-.21,3.17-.31,4.82-1.65.68-3.38.32-5.09.3v-5.08l-5.2-.23v-5.16h5.13v-5.2H91c.88-1.66.12-3.36.62-5.12,1.41-.65,3.09,0,4.76-.38.81-1.48,0-3.18.51-4.85,1.46-.77,3.15,0,5-.53V703.91h5.38V724.4c-.49.31-.66.51-.85.53-4.4.46-4.4.45-4.4,5,0,1.32,0,2.64,0,4s-.57,2-1.78,1.78c-3.55-.61-3.73,1.54-3.52,4.09A9.7,9.7,0,0,1,96.66,741Z"/><path class="cls-12" d="M551.32,254.81l0-5.24c0-2.72-.86-6,3.93-5.31,1.13.18,1.35-.87,1.35-1.81,0-1.31,0-2.62,0-3.93-.07-2.65-.59-5.52,3.77-4.82,1.59.25,1.51-1.21,1.52-2.3q0-4.1,0-8.19l0,0,5.26,0h0V238.4c-1.7,1.11-3.35.25-5,1-.92,3.14.15,6.57-.63,10l-4.47.39c-1,1.48-.15,3.13-.83,4.7C554.79,255.3,553,254.76,551.32,254.81Z"/><path class="cls-14" d="M413.92,350.11h26.27c.09,1.7.18,3.28.27,5.09h10.48v5.34l-.05,0-10.68.06-5.14-.14c-.2-5.71,1-5.2-5.22-5.21-3.59,0-7.19,0-10.78.06l-5.14-.13C413.92,353.52,413.92,351.81,413.92,350.11Z"/><path class="cls-13" d="M413.92,350.11v5.12l-37.08.06.09-5.29,0,0Z"/><path class="cls-15" d="M509,196.76v-5.07h26.51v5.07l-.06.06H509.08Z"/><path class="cls-15" d="M482.59,202.05v-5.29H509l.06.06c0,1.73-.07,3.46-.11,5.19l-5.16.16-21.16-.07Z"/><path class="cls-10" d="M355.75,223.09l-21.16.15v-5.33h21.06C355.68,219.63,355.71,221.36,355.75,223.09Z"/><path class="cls-16" d="M112.6,698.61c0,.11,0,.22,0,.33-.08,5.08-.08,5.08-5.36,5l.06-21.11,0,0h5.33Z"/><path class="cls-13" d="M472.13,371.12l5.23.12-.06,5.22-15.86,0,.05,0c0-1.76,0-3.53-.05-5.29Z"/><path class="cls-15" d="M535.53,196.76h15.85v5.3l0,0L535.54,202c0-1.74,0-3.48-.07-5.22Z"/><path class="cls-15" d="M562,207.34h10.44v10.57h-5.17c-.18-1.66.37-3.4-.55-5.32H562l-.06-5.22Z"/><path class="cls-15" d="M551.38,202.06H562v5.28l0,0-10.55,0h0l0-5.25Z"/><path class="cls-14" d="M450.94,360.54h10.57v5.28l-.05.05-10.59,0h0c0-1.77,0-3.54,0-5.3Z"/><path class="cls-14" d="M472.13,371.12l-10.69.05h0c0-1.76,0-3.53,0-5.3l.05-.05h10.62Z"/><path class="cls-14" d="M482.66,376.39h10.57v5.28l-.05.05-5.38.06-5.15-.14c0-1.73,0-3.47,0-5.2Z"/><path class="cls-17" d="M445.68,413.39h-10c-1-1.88-.41-3.64-.58-5.33h10.62Z"/><path class="cls-17" d="M456.25,418.67h-10c-1-1.87-.41-3.64-.58-5.33h10.62Z"/><path class="cls-17" d="M488,445.08H477.91c-1-1.87-.39-3.64-.56-5.33l10.58.05Z"/><path class="cls-14" d="M477.3,376.46l.06-5.22h4.91c.72,1.71.16,3.46.39,5.15l-.05.05H477.3Z"/><path class="cls-13" d="M519.66,402.88c.07-1.62-.3-3.28.3-4.92,1.57-.77,3.25-.24,4.86-.43v4.89C523.11,403.25,521.34,402.62,519.66,402.88Z"/><path class="cls-17" d="M435.11,408.1h-4.75c-1-1.79-.45-3.52-.55-5.18h4.89C435.41,404.66,434.82,406.42,435.11,408.1Z"/><path class="cls-18" d="M567.22,217.92h5.17v5.28l-5.17,0h0C567.22,221.45,567.22,219.68,567.22,217.92Z"/><path class="cls-17" d="M461.54,424h-4.78c-1-1.88-.4-3.64-.55-5.33h4.85C461.85,420.5,461.25,422.27,461.54,424Z"/><path class="cls-17" d="M466.83,429.24h-4.78c-1-1.89-.4-3.65-.56-5.34h4.86C467.14,425.78,466.54,427.55,466.83,429.24Z"/><path class="cls-17" d="M472.11,434.52h-4.79c-.95-1.88-.38-3.64-.54-5.33h4.85C472.43,431.07,471.83,432.83,472.11,434.52Z"/><path class="cls-17" d="M477.4,439.8h-4.78c-1-1.88-.4-3.64-.55-5.33h4.85C477.71,436.35,477.11,438.12,477.4,439.8Z"/><path class="cls-17" d="M567.22,223.21l5.17,0v5.26h-5.18Z"/><path class="cls-16" d="M102.1,677.53l5.12.1c0,1.74,0,3.48,0,5.21l0,0H102.1Z"/><path class="cls-19" d="M345.12,434.6a15.78,15.78,0,0,1-.27,5.08l-4.48.25c-1,1.55-.06,3.33-.88,5.11H329.9c-1.08,1.75-.17,3.52-.93,5.2l-4.48.27c-.89,1.52-.15,3.13-.66,4.7-1.36,1.06-3.16,0-4.9.84-.1,1.35-.21,2.85-.32,4.4-1.44,1.09-3.24,0-5,.89-.1,1.35-.21,2.85-.32,4.39-1.45,1.09-3.25,0-4.82.82-.74,1.37,0,3-.58,4.66-3.19.78-6.62-.09-10.15.53-.1,1.55-.2,3.05-.31,4.56-1.48,1.08-3.28,0-5,.91-.1,1.37-.2,2.87-.31,4.38-1.49,1.06-3.29,0-5.07,1V492c-1.72,1.22-3.53.14-5.3,1.12v15.14l-5.17.43v62.75c1.45,1,3.25-.05,5,.91v9.47c1.72,1.21,3.53.14,5.29,1.1v9.48c1.73,1.19,3.53.12,5.22,1.05.08,1.39.18,2.89.27,4.38,1.53,1,3.33,0,5.1.95v9.48c1.73,1.17,3.53.1,5.29,1.09v9.49c1.73,1.15,3.53.09,5.2,1,.09,1.41.18,2.9.27,4.39,1.56,1,3.34,0,5,.8.1,1.5.19,3,.28,4.47,1.55,1,3.35,0,5,.91.08,1.41.17,2.91.26,4.4,1.52.89,3.14.12,4.7.64,1.08,1.36,0,3.16.76,4.74,1.35.79,3,0,4.53.55,1.07,1.35,0,3.16.83,4.91l4.4.3c1.12,1.43.06,3.23.8,4.8,1.38.79,3,0,4.58.57.8,1.45.41,3,.21,4.94H329.9c-1,1.81-.36,3.42-.61,5.21l4.8.33c1.1,1.46,0,3.26.89,5l4.78.33v10.2l4.91.35c1.09,1.46,0,3.26.81,4.82,1.39.74,3,0,4.58.55.88,1.56.13,3.37.48,5.05-.3,1.68.29,3.44-.39,5-1.62.63-3.33-.24-5.09.79v4.73c-1.61-.14-3.28.38-5.22-.59v-9.7l-5.23-.55v-9.59c-1.81-1.27-3.71,0-5-1.21-.69-1.49.25-3.18-.77-4.46-1.48-.72-3.18.23-4.47-.77-.77-1.47.19-3.16-.77-4.47-1.45-.79-3.15.16-4.9-1.08v-9.57l-4.7-.49c-1.11-1.61.14-3.51-1.06-4.78-1.52-.67-3.22.28-4.41-.74-.8-1.54.21-3.24-.82-4.49-1.5-.76-3.2.22-4.48-.8-.78-1.46.18-3.16-.78-4.46-1.45-.8-3.15.16-4.89-1.08v-9.57l-4.76-.5c-1-1.61.16-3.5-.93-4.69-1.58-.8-3.29.22-4.49-.83-.79-1.53.21-3.23-.81-4.48-1.5-.77-3.2.21-4.5-.81-.76-1.45.19-3.15-.76-4.46-1.45-.79-3.15.16-4.48-.77-.83-1.43.12-3.13-.88-4.64l-4.3-.45c-1-1.61.16-3.49-1.1-4.89-1.5-.11-3-.55-4.31.28-.8,1.55.21,3.25-.93,4.63-1.49.23-3,.53-4.35-.22-.8-1.5.16-3.19-.8-4.5-1.45-.8-3.14.16-4.47-.78-.84-1.42.11-3.12-.89-4.64l-4.5-.47c-.73-3.42.26-6.87-.57-9.93-1.74-.78-3.44.17-4.69-.89-.71-1.49.24-3.19-.78-4.46-1.48-.74-3.18.22-4.47-.78-.78-1.46.18-3.16-.84-4.56a7,7,0,0,0-4.57.19c-.15,1.5-.31,3-.48,4.61a45.58,45.58,0,0,1-9.84,0c-1-1.62.14-3.5-1.21-5.06-5.72,0-11.55.13-17.37,0-2.61-.09-3.28.92-3.07,3.27.16,1.75,0,3.52,0,5.28,0,1.07-.14,2.06-1.53,2-2.92-.05-5.88.33-8.61-.23-.86-1.68.1-3.37-1.06-4.93-1.37,0-2.87-.38-4.44.33-.16,1.55-.31,3-.48,4.63l-4.78.49-.46,4.55c-1.6,1-3.5-.15-4.78,1-.69,1.51.26,3.2-.8,4.48-1.48.66-3.16-.18-4.54.78-.69,3.27.32,6.61-.63,9.86l-4.66.48c-.62,3.44.24,6.77-.52,9.84-1.57.92-3.27-.05-5,1.15v35.61c-1.81,1.26-3.73,0-5.46,1.69v19.9c-1.91.19-3.43.6-5.23-.56V662.18c-1.81-.9-3.5.05-5-1.07-.59-3.14.3-6.47-.49-9.55-1.57-.87-3.27.08-5-1.14V635.56l-5-.53c-.81-3.41.33-6.88-.65-9.94-1.67-.77-3.36.15-5.08-1.21V609.34c-1.81-.88-3.5.06-4.8-.94-.77-1.46.19-3.15-.84-4.56a6.87,6.87,0,0,0-4.37.12c-.88,1.48.09,3.18-.87,4.6a7.08,7.08,0,0,1-4.82-.19V599c-1.8-1.28-3.71,0-5.45-1.64v-35.6c-1.82-.8-3.49,0-4.92-.93-.62-3.26.31-6.59-.53-9.66-1.58-.85-3.27.1-5-1.15V535.5c-1.77-1-3.47-.1-5.23-1.26V525c-1.82-1.13-3.71,0-5-1.13-.69-1.5.25-3.19-.79-4.47-1.48-.68-3.16.2-4.9-1.07V493.17c-1.79-1-3.49,0-5.23-1.27V466.77c-1.78-1-3.47-.07-5-1.07v-57c1.61-1.14,3.52.12,5.08-1.36,0-5.75,0-11.69,0-17.62,0-1.14-.35-2.66,1.54-2.66,2.93,0,5.88-.32,8.6.21.84,1.7-.11,3.4,1,4.82,3.17.64,6.5-.29,9.58.52.86,1.58-.1,3.27.84,4.6,1.44.83,3.13-.12,4.65.88.14,1.41.3,2.89.44,4.3,1.61,1,3.5-.16,4.78,1,.68,1.52-.28,3.21.87,4.56,3.22.65,6.56-.35,9.61.55.79,1.62-.16,3.31.84,4.6,1.46.78,3.16-.18,4.47.78.8,1.45-.16,3.14,1.08,4.89h9.57L134,424h9.94c.39,2,.65,3.53-.14,5.06-3.33.68-6.67-.33-9.67.56-1.88,4.95,1.39,5.17,4.4,5.16.91,1.69-.05,3.39,1,4.84h25.65c.18-1.7.34-3.19.51-4.78,1.76-.29,3.33-.61,4.88.29.05.63.13,1.18.14,1.72.19,8.29.19,8.29,8.53,8.29h12.1c.9-2,0-3.68,1-5.05,3.26-.7,6.61.33,9.67-.58.84-1.58-.13-3.28,1-4.81a53.29,53.29,0,0,1,9.61.11,7.23,7.23,0,0,1-.09,4.82l-4.58.47c-.3,1.76-.62,3.33.19,4.73h9.72c.79-1.71-.16-3.41.89-4.67,1.48-.72,3.18.24,4.51-.82.62-1.45-.15-3.11.95-4.86h14.93c.2-1.88.36-3.37.55-5.23H255l.56-5.24h14.87c1.29-1.8,0-3.71,1.23-5,1.49-.68,3.18.27,4.45-.77.73-1.48-.23-3.18.78-4.46,1.47-.76,3.17.2,4.47-.78.79-1.45-.18-3.15.78-4.47,1.44-.82,3.14.15,4.64-.9.15-1.4.3-2.88.44-4.33,1.78-.74,3.45-.25,5.06-.44l5.28.06,0,0c.24,1.67-.38,3.43.56,5.31h4.76l0,0c.24,1.67-.38,3.43.55,5.32h4.77l0,0c.25,1.68-.37,3.43.56,5.32h4.76l0,0c.26,1.67-.4,3.44.59,5.31h10l0,0c.26,1.68-.4,3.45.58,5.29h10c.24,1.67-.41,3.43.6,5.35ZM194.57,450.38c-1.53,0-3.08.12-4.6,0-2.44-.23-3.83.41-3.42,3.19.23,1.54-.59,2.32-2.11,2.09-2.82-.43-3.38,1-3.18,3.43.14,1.63,0,3.29.05,4.93,0,2,1.3,2.21,2.89,2.25s2.63-.44,2.36-2.22c-.45-2.9,1.19-3.28,3.49-3.1,1.42.11,2.86-.08,4.27,0,2.11.19,3.11-.57,2.84-2.77-.22-1.75.42-2.78,2.36-2.53,2.33.31,3-.72,3-3,0-2.68-1.7-2.31-3.32-2.31Zm-39.23,5.51c-.8,3.7-.56,4.88,1.33,4.95,4.58.19,9.16.06,13.65.06.64-4,.63-4.06,4.47-5.28,1.88-.6,1.05-2.15,1.19-3.33.16-1.43-.66-1.93-2-1.91-2.65,0-5.29,0-7.93,0-5.32,0-5.32,0-6.37,5.05Zm10.06,20.52c-.4-3.22.08-5.66,4.12-5,.73.12,1-.61,1.18-1.32.64-2.76-.17-3.83-3-3.88-7.6-.14-7.6-.14-7.56,6.61C160.17,476.88,160.51,477.14,165.4,476.41Zm-26-31.3c-.69,5-.48,5.26,3.94,5.27,1.42,0,2.85-.06,4.27,0,2,.09,2-1.17,2-2.59s.15-2.74-1.89-2.7C145,445.14,142.25,445.11,139.36,445.11Zm10.21,26.44c0-.54,0-1.09,0-1.64-.06-1.76.61-3.72-2.54-3.77-3.3-.05-2.73,2-2.74,3.9,0,1.53,0,3.07,0,4.6,0,2,1.42,2.12,3,2.18s2.43-.59,2.3-2.31C149.51,473.53,149.57,472.54,149.57,471.55Z"/><path class="cls-18" d="M350.37,402.89v5.26H365.7c1.19,1.55.12,3.34,1,5.22H382c.11,1.86.2,3.36.3,5,3.35.76,6.76,0,10.28.49.1,1.6.19,3.09.29,4.77,3.31.83,6.73-.07,10.06.53.81,1.48.06,3.08.6,4.66,1.53.93,3.34.15,5,.49v0c.3,1.66-.38,3.44.6,5.32h10l0,0c.29,1.66-.35,3.43.58,5.32h4.75l0,0c.3,1.67-.39,3.45.43,5,.23.1.32.18.42.18l9.78.16c.18,1.61-.29,3.28.46,5.17H445c1,1.72.22,3.35.87,5,3.18.86,6.62-.13,10.09.6.12,1.57.23,3.07.37,4.88H466c1.33,1.73.26,3.55,1.14,5.23l4.39.33c1,1.47.14,3.11.72,4.66,1.33,1.11,3.16,0,4.71.8.81,1.36,0,3,.65,4.64,3.17.85,6.61-.12,10.09.58.11,1.57.22,3.06.33,4.53,1.5,1,3.14.15,4.68.71,1.08,1.35-.05,3.18.89,4.86h20.73V476.74h5.22v10.58h5.2v5c-1.4.9-3.13,0-5.21.69v4.91l-15.84.14h-10c-.94-1.73-.14-3.42-.73-5.24l-5-.22c-.25-1.68.39-3.45-.48-5.12h-4.92l-5.22-.18c-.05-5.25-.05-5.25-5.38-5.14h-5.07c-.09-1.78-.16-3.37-.25-5.18l-5.16-.25c-.19-1.6.34-3.27-.42-4.85-1.64-.6-3.3-.23-4.92-.3h0c-.14-1.7.5-3.49-.4-5-1.58-.8-3.29.21-4.55-.86-.72-1.48.24-3.17-.88-4.57-3.18-.66-6.52.31-9.78-.6-.17-1.61-.32-3.1-.52-5H430l-.56-5.22h-9.59c-1.28-1.81,0-3.72-1.66-5.46H403.78c-.86-1.8.08-3.5-1-4.89-3.19-.67-6.53.32-9.6-.55-.85-1.58.11-3.27-1.16-5H372.2c-1.06-1.78-.1-3.47-1.27-5.23h-9.21c-1.27-1.81,0-3.71-1.66-5.45H340.32c-.8-1.82,0-3.49-.92-4.87-3.28-.69-6.62.31-9.68-.58-.84-1.58.11-3.27-.84-4.58-1.45-.81-3.15.14-4.64-.89-.15-1.41-.31-2.9-.5-4.77h-9.6c-1.26-1.8,0-3.71-1.21-5-1.51-.67-3.2.27-4.47-.78-.7-1.49.25-3.18-.77-4.46-1.48-.75-3.17.21-4.62-.9-.6-3.15.31-6.48-.5-9.55-1.57-.89-3.27.07-5-1.15v-9.91l.06-10.53,0,0,5.26.08v5.24h5.24c.39,1.67-.42,3.5.55,5,1.58.56,3.21-.25,4.68.72.12,1.49.23,3,.38,4.83h5l0,0c.26,1.66-.35,3.41.6,5.34H324V387c.21,1.68-.37,3.44.51,5.33h4.8l0,0c.25,1.67-.38,3.44.56,5.32h10.05l0,0c.26,1.68-.38,3.45.57,5.32h10Z"/><path class="cls-16" d="M345.06,698.67v-4.73c1.76-1,3.47-.16,5.09-.79.68-1.6.09-3.36.39-5h5.16v5.25H361v5.21h4.85c.91,1.66.14,3.36.63,5.11,1.4.71,3.09,0,4.77.41.82,1.46,0,3.16.5,4.83,1.45.79,3.16,0,4.81.49.78,1.47,0,3.17.49,4.81,1.49.75,3.19,0,4.93.51v5H371.78v5.32h10.38v10.6h5.32v10.48h5V756.5c-1.37.78-3.08,0-5.13.57V762h-5.18v10.28c-1.79.61-3.3.28-4.86.29-1-1.48-.06-3.23-.76-5a16.65,16.65,0,0,0-5-.15V752.26c-.55-.36-.72-.56-.91-.58-4.41-.47-4.41-.47-4.41-4.95v-5c-.46-.34-.62-.56-.81-.58-4.48-.56-4.48-.56-4.48-5.24,0-2.08-.06-4.17,0-6.26.11-2.65.3-5.2-3.69-4.6-1.32.2-1.62-.82-1.61-1.94,0-1.43-.09-2.86,0-4.28.21-2.68.09-4.92-3.63-4.34-1.27.2-1.68-.7-1.68-1.87,0-1-.11-1.93-.17-2.87-1.73-.86-3.4-.34-5-.49Q345.17,704,345.06,698.67Z"/><path class="cls-17" d="M297.55,376.36v9.91c1.75,1.22,3.45.26,5,1.15.81,3.07-.1,6.4.5,9.55,1.45,1.11,3.14.15,4.62.9,1,1.28.07,3,.77,4.46,1.27,1.05,3,.11,4.47.78,1.19,1.28-.05,3.19,1.21,5h9.6c.19,1.87.35,3.36.5,4.77,1.49,1,3.19.08,4.64.89.95,1.31,0,3,.84,4.58,3.06.89,6.4-.11,9.68.58,1,1.38.12,3.05.92,4.87h19.74c1.64,1.74.39,3.64,1.66,5.45h9.21c1.17,1.76.21,3.45,1.27,5.23H392c1.27,1.74.31,3.43,1.16,5,3.07.87,6.41-.12,9.6.55,1.1,1.39.16,3.09,1,4.89h14.44c1.63,1.74.38,3.65,1.66,5.46h9.59l.56,5.22h10c.2,1.86.35,3.35.52,5,3.26.91,6.6-.06,9.78.6,1.12,1.4.16,3.09.88,4.57,1.26,1.07,3,.06,4.55.86.9,1.46.26,3.25.4,5h-10.4c-.09-1.84-.18-3.42-.27-5.23h-9.88c-1.09-1.69-.17-3.43-.89-5.29H419.21v-5.29H403.87c-1.06-1.69-.15-3.43-.88-5.29h-10.1c-.09-1.83-.16-3.33-.24-5.18h-9.89c-1.08-1.81-.18-3.55-.94-5.41H366.43v-5.42h-15.9c-.19-1.6.26-3.24-.49-5.18H334.62c-.22-1.68.43-3.45-.62-5.29H324l0,0c-.18-1.68.44-3.45-.58-5.31h-10l0,0c-.17-1.68.41-3.44-.55-5.32h-4.77l0,0c-.17-1.68.41-3.44-.55-5.32h-4.76l0,0c-.17-1.68.41-3.43-.56-5.31h-4.76l0,0v-10.6h-5.32l0,0q0-8,0-15.94l0,0Z"/><path class="cls-12" d="M334.57,429.25H350c.75,1.94.3,3.58.49,5.18l-5.41.17h-9.95C334.16,432.68,334.81,430.92,334.57,429.25Z"/><path class="cls-10" d="M503.72,498l15.84-.14v4.86c-2.74.63-12.23.69-15.52.11C503.44,501.29,503.9,499.63,503.72,498Z"/><path class="cls-18" d="M514.4,476.79h-5.34V466.18h5.34Z"/><path class="cls-18" d="M493.25,450.38h-4.83c-.89-1.88-.34-3.64-.5-5.34l5.31,0C493.23,446.84,493.24,448.61,493.25,450.38Z"/><path class="cls-18" d="M498.54,455.66h-4.83c-.89-1.88-.34-3.64-.51-5.33h4.91C498.85,452.19,498.27,454,498.54,455.66Z"/><path class="cls-18" d="M503.83,460.94H499c-.88-1.87-.33-3.64-.5-5.33h4.91C504.13,457.48,503.56,459.25,503.83,460.94Z"/><path class="cls-18" d="M509.11,466.22h-4.84c-.87-1.87-.33-3.63-.49-5.33h4.9C509.42,462.76,508.85,464.53,509.11,466.22Z"/><path class="cls-17" d="M456.16,471.54c1.62.07,3.28-.3,4.92.3.76,1.58.23,3.25.42,4.85h-4.94C455.81,475,456.38,473.23,456.16,471.54Z"/><path class="cls-17" d="M472,482.12c5.33-.11,5.33-.11,5.38,5.14h-4.93C471.65,485.57,472.28,483.8,472,482.12Z"/><path class="cls-12" d="M482.58,487.44h4.92c.87,1.67.23,3.44.48,5.12h-4.75C482.18,490.85,482.92,489.08,482.58,487.44Z"/><path class="cls-20" d="M345.06,698.67l.23,10.58c-.08,1.63-.15,3.26-.22,5a14.77,14.77,0,0,1-5.1.07v-4.89H329.51V719.7l4.87.22V730.2H319.16c-1-1.41,0-3.17-.78-5.05H308.27v-4.9c-1.78-.72-3.39-.41-5.34-.31V730a12.52,12.52,0,0,1-4.9.23c-.95-1.51,0-3.26-.73-5H281.86c-.08,1.64-.14,3.14-.23,4.87H244.88c-.08-1.52-.16-3-.26-4.89h-31c-1.11-1.82-.2-3.57-.9-5.27H197.57c-1,1.39,0,3.15-.66,4.76-1.44.8-3.18,0-4.92.63-.07,1.48-.15,3-.24,4.75h-10.4V714.9a12,12,0,0,0-4.9-.26c-1,1.5,0,3.25-.75,5a14.64,14.64,0,0,1-4.91,0V709.35H160.32c-.1-1.85-.19-3.35-.29-5.22h-9.85c-1.13-1.83-.15-3.59-1-5.34h-9.59c-1.18-1.69-.19-3.45-.92-5.18H128.55c-.07,1.57-.15,3.08-.24,5H112.6V682.84h-5.33c0-1.73,0-3.47,0-5.21V651.84c-.42-.3-.59-.51-.77-.53-4.46-.5-4.46-.49-4.46-5.24v-10c-.4-.34-.55-.58-.73-.6-4.55-.62-4.55-.62-4.55-5.5v-4.75c-5.29-1.12-5.29-1.12-5.29-6.71v-8.94c-.51-.34-.68-.54-.86-.56-4.43-.45-4.43-.45-4.43-4.93V593.81c-.42-.34-.58-.57-.76-.59-4.52-.59-4.52-.58-4.52-5.19V577.7c-2-.85-3.65-.37-5.26-.56V546c-5.32-1.08-5.32-1.08-5.32-6.4V524.9C65,523.67,65,523.67,65,518.2V498.67c-.48-.34-.65-.55-.83-.57-4.46-.49-4.46-.49-4.46-4.91v-42c-.41-.34-.56-.57-.74-.6-4.55-.61-4.55-.61-4.55-5.18q0-19.31,0-38.61c0-1.18-.3-2.42.47-3.72l4.75-.51V377.08c1.76-1.1,3.43-.27,5.23-1.15v-25.1c1.73-1.36,3.43-.4,5.23-1.3V314c1.74-1.62,3.65-.36,5.45-1.66V297.46l5.23-.56v-10l4.87-.51c.89-1.46.12-3.13.75-4.57,1.34-1,3-.08,4.67-.89.88-3-.09-6.37.53-9.57,1.36-1.17,3.06-.2,4.57-.89,1.2-1.27-.06-3.18,1.06-4.78l4.71-.49V249.93l4.77-.5c1.09-1.46.11-3.16.9-4.62,1.28-1,3,0,4.46-.78,1-1.27.07-3,.94-4.78h14.42c1.66-1.74.4-3.65,1.52-5.25l4.29-.45c.8-1.6.43-3.16.44-4.66.05-5.68,0-5.68,5.87-5.68h9.3c1.24-1.67.26-3.37,1.24-5.16h14.48c1.4-1.72.43-3.42,1.31-5.23h14.43c1.64-1.73.38-3.65,1.53-5.25H239c1.13,5.08,1.13,5.08,6.66,5.08h25.48c-.48,3.84.3,6.56,4.59,5.26.34.45.56.61.58.8.56,4.5.56,4.5,5.21,4.5h4.73c.34.39.58.53.61.71.66,4.58.65,4.58,5.49,4.58h10.57l.05,0V255h5.21v10.57h5.29c.23,1.67-.34,3.42.48,5.28h4.8v10.56H324c.23,1.68-.33,3.43.48,5.29h4.81q0,10.55,0,21.11l0-.05c-1.69.23-3.46-.36-5.33.5V313l0,0c-1.68.22-3.45-.36-5.35.49v4.8l0,0c-1.68.29-3.45-.36-5.33.56v10.05l0,0c-1.68.27-3.44-.34-5.33.53v4.79l0,0c-1.69.24-3.46-.27-5.36.48v9.72c-1.75.91-3.53-.13-5.22,1v20.59l0,0c-1.69.23-3.46-.37-5.36.51v10.07l0,0c-1.67.28-3.45-.37-5.06.42v15.52h5.08l0,0c0,3.51,0,7,0,10.54-1.61.19-3.28-.3-5.06.44-.14,1.45-.29,2.93-.44,4.33-1.5,1.05-3.2.08-4.64.9-1,1.32,0,3-.78,4.47-1.3,1-3,0-4.47.78-1,1.28-.05,3-.78,4.46-1.27,1-3,.09-4.45.77-1.19,1.3.06,3.21-1.23,5H255.59l-.56,5.24H239.74c-.19,1.86-.35,3.35-.55,5.23H224.26c-1.1,1.75-.33,3.41-.95,4.86-1.33,1.06-3,.1-4.51.82-1.05,1.26-.1,3-.89,4.67h-9.72c-.81-1.4-.49-3-.19-4.73l4.58-.47a7.23,7.23,0,0,0,.09-4.82,53.29,53.29,0,0,0-9.61-.11c-1.15,1.53-.18,3.23-1,4.81-3.06.91-6.41-.12-9.67.58-1,1.37-.13,3.05-1,5.05h-12.1c-8.34,0-8.34,0-8.53-8.29,0-.54-.09-1.09-.14-1.72-1.55-.9-3.12-.58-4.88-.29-.17,1.59-.33,3.08-.51,4.78H139.53c-1.05-1.45-.09-3.15-1-4.84-3,0-6.28-.21-4.4-5.16,3-.89,6.34.12,9.67-.56.79-1.53.53-3.09.14-5.06H134l-.56-5.23h-9.57c-1.24-1.75-.28-3.44-1.08-4.89-1.31-1-3,0-4.47-.78-1-1.29,0-3-.84-4.6-3-.9-6.39.1-9.61-.55-1.15-1.35-.19-3-.87-4.56-1.28-1.15-3.17,0-4.78-1-.14-1.41-.3-2.89-.44-4.3-1.52-1-3.21-.05-4.65-.88-.94-1.33,0-3-.84-4.6-3.08-.81-6.41.12-9.58-.52-1.11-1.42-.16-3.12-1-4.82C83,386.71,80,387,77.11,387c-1.89,0-1.53,1.52-1.54,2.66,0,5.93,0,11.87,0,17.62-1.56,1.48-3.47.22-5.08,1.36v57c1.55,1,3.24.11,5,1.07V491.9c1.74,1.26,3.44.31,5.23,1.27v25.11c1.74,1.27,3.42.39,4.9,1.07,1,1.28.1,3,.79,4.47,1.29,1.15,3.18,0,5,1.13v9.29c1.76,1.16,3.46.21,5.23,1.26V550c1.75,1.25,3.44.3,5,1.15.84,3.07-.09,6.4.53,9.66,1.43.94,3.1.13,4.92.93v35.6c1.74,1.61,3.65.36,5.45,1.64v9.37a7.08,7.08,0,0,0,4.82.19c1-1.42,0-3.12.87-4.6a6.87,6.87,0,0,1,4.37-.12c1,1.41.07,3.1.84,4.56,1.3,1,3,.06,4.8.94v14.54c1.72,1.36,3.41.44,5.08,1.21,1,3.06-.16,6.53.65,9.94l5,.53v14.86c1.75,1.22,3.45.27,5,1.14.79,3.08-.1,6.41.49,9.55,1.46,1.12,3.15.17,5,1.07v14.59c1.8,1.16,3.32.75,5.23.56v-19.9c1.73-1.69,3.65-.43,5.46-1.69V620.13c1.75-1.2,3.45-.23,5-1.15.76-3.07-.1-6.4.52-9.84l4.66-.48c1-3.25-.06-6.59.63-9.86,1.38-1,3.06-.12,4.54-.78,1.06-1.28.11-3,.8-4.48,1.28-1.15,3.18,0,4.78-1l.46-4.55,4.78-.49c.17-1.59.32-3.08.48-4.63,1.57-.71,3.07-.33,4.44-.33,1.16,1.56.2,3.25,1.06,4.93,2.73.56,5.69.18,8.61.23,1.39,0,1.54-1,1.53-2,0-1.76.13-3.53,0-5.28-.21-2.35.46-3.36,3.07-3.27,5.82.18,11.65,0,17.37,0,1.35,1.56.25,3.44,1.21,5.06a45.58,45.58,0,0,0,9.84,0c.17-1.63.33-3.11.48-4.61a7,7,0,0,1,4.57-.19c1,1.4.06,3.1.84,4.56,1.29,1,3,0,4.47.78,1,1.27.07,3,.78,4.46,1.25,1.06,2.95.11,4.69.89.83,3.06-.16,6.51.57,9.93l4.5.47c1,1.52.05,3.22.89,4.64,1.33.94,3,0,4.47.78,1,1.31,0,3,.8,4.5,1.37.75,2.86.45,4.35.22,1.14-1.38.13-3.08.93-4.63,1.29-.83,2.81-.39,4.31-.28,1.26,1.4.09,3.28,1.1,4.89l4.3.45c1,1.51.05,3.21.88,4.64,1.33.93,3,0,4.48.77.95,1.31,0,3,.76,4.46,1.3,1,3,0,4.5.81,1,1.25,0,3,.81,4.48,1.2,1,2.91,0,4.49.83,1.09,1.19-.09,3.08.93,4.69l4.76.5v9.57c1.74,1.24,3.44.28,4.89,1.08,1,1.3,0,3,.78,4.46,1.28,1,3,0,4.48.8,1,1.25,0,3,.82,4.49,1.19,1,2.89.07,4.41.74,1.2,1.27-.05,3.17,1.06,4.78l4.7.49v9.57c1.75,1.24,3.45.29,4.9,1.08,1,1.31,0,3,.77,4.47,1.29,1,3,.05,4.47.77,1,1.28.08,3,.77,4.46,1.3,1.18,3.2-.06,5,1.21v9.59l5.23.55v9.7C341.78,699.05,343.45,698.53,345.06,698.67Zm-174.46-465c-1.57.39-3.25-.25-4.8.5-.74,1.57-.13,3.24-.48,4.81-1.58.34-3.28-.29-5.17.69v20.5c0,5.15,0,5.15,5.16,5.44a5.18,5.18,0,0,1,.1,1.29c-.5,3.12.78,4.4,3.9,3.9a5.16,5.16,0,0,1,1.29.11c.05,1.7.09,3.4.14,5.11h-10c-1,2.06,0,3.76-1.45,5.47H144.8c-1,1.78,0,3.48-1.29,5.21H134.3c-1.05,1.78-.09,3.47-1.11,5l-4.23.44c-1.12,1.6.13,3.5-1.06,4.78-1.5.69-3.19-.27-4.55.87-.67,3.2.35,6.54-.56,9.58-1.59.84-3.29-.13-4.76,1-.57,3.13.29,6.45-.52,9.74l-4.59.49c-.66,2.23-.31,4.32-.34,6.38,0,4.35.66,4.79,5,3.32.71-1.42-.31-3.13.88-4.49,1.49-.16,3-.53,4.68.47a43.25,43.25,0,0,1,0,5.8c-.44,3.36.79,4.37,4.16,4.2,5.56-.3,11.14-.08,16.61-.08.88,5.28.88,5.28,6.08,5.28H176c.1,6-.77,5.26,5.25,5.29q11.4,0,22.78,0c1.17,0,2.44.38,3.41-.5.69-1.48-.26-3.17.86-4.54,3.2-.68,6.54.33,9.6-.57.83-1.58-.13-3.28,1-4.83a10.49,10.49,0,0,1,4.33.22c.6,2.08.28,4.06.31,6,.05,4.65.18,4.78,4.92,3.78.95-1.39-.3-3.3,1-4.66,3.21-.59,6.54.33,9.49-.48.89-1.71-.12-3.41.94-4.68,1.48-.72,3.18.23,4.46-.78.77-1.46-.2-3.16.78-4.46,1.45-.8,3.15.17,4.89-1.09v-9.55l5.23-.56v-9.93c2-.4,3.54-.65,5,.1a3.47,3.47,0,0,1,.22.79q0,2.64.06,5.28c0,4.55.39,4.82,5,3.49.72-1.39-.25-3.09.75-4.39,1.45-.78,3.15.18,4.5-.8.75-1.41-.17-3.1.74-4.44,1.42-.85,3.12.11,4.65-.9.14-1.38.3-2.87.44-4.23,1.59-1.11,3.5.14,4.87-1.15.64-3.2-.37-6.54.54-9.57,1.64-.79,3.34.16,5.06-1.22V266c1.78-1,3.48,0,4.94-1.07V244.57a46.51,46.51,0,0,0-9.8,0c-1.13,1.61.13,3.53-1.18,4.89-3.21.57-6.54-.32-9.54.47-.81,1.71.15,3.41-1.27,5.13H255.82c-1,1.79,0,3.49-1.3,5.22H240c-1.05,1.78-.09,3.48-1,4.89-1.58.6-3.23.23-4.86.26V250.25c1.9-1.13,3.79,0,5-1.12v-15c-1.72-.78-3.42.17-4.68-.89-.71-1.49.24-3.18-.8-4.5-1.46-.63-3.13.16-4.58-.77-.15-1.51-.31-3-.5-4.86h-15c-1.06-1.77-.1-3.47-1.11-5H181.84c-1.14,1.61.12,3.52-1,4.71-1.58.81-3.29-.21-4.71,1-.07,1.46-.15,3-.23,4.53-1.57.33-3.24-.25-4.8.47C170.34,230.41,171,232.08,170.6,233.65Zm68.84,391c0-.55,0-1.09,0-1.64,0-1.87.39-3.65-2.64-3.65s-2.67,1.78-2.65,3.65c0,1.53.09,3.07,0,4.59-.13,1.88.68,2.48,2.49,2.45s3.06-.23,2.83-2.45A29,29,0,0,1,239.44,624.64Zm21.15,42.26c0,.55,0,1.1,0,1.64.11,1.71-.7,3.73,2.48,3.81s2.84-1.83,2.81-3.81c0-1.53-.1-3.06,0-4.59.15-2.06-1-2.28-2.66-2.28s-2.84.22-2.65,2.28C260.67,664.93,260.59,665.92,260.59,666.9Zm21.15,5.66c-5.29-.59-5.29-.59-5.29,3.81,0,1.21.09,2.42,0,3.61-.19,2.06.48,2.9,2.72,2.92s2.69-1.12,2.61-3C281.66,677.49,281.74,675.11,281.74,672.56ZM297.53,664c.53-2.14-.9-2.25-2.65-2.34-2-.1-2.58.72-2.63,2.67-.06,2.28.93,2.69,2.93,2.71C297.38,667.05,297.81,666,297.53,664Z"/><path class="cls-10" d="M334.63,223.2c0,1.76-.06,3.52-.1,5.27l.06,0-21.06.14-5.31,0-.12-.11c0-1.72.09-3.44.13-5.16Z"/><path class="cls-21" d="M307.77,197.05c-5-.57-5-.57-4.78-5.46h5.12c-.62,4,.87,6.1,5.1,5.2.16,1.9.29,3.4.42,4.89C308.76,202.61,308.76,202.61,307.77,197.05Z"/><path class="cls-21" d="M324.26,201.88l4.84.43c.14,1.67.26,3.16.39,4.65C324.31,208,323.75,207.44,324.26,201.88Z"/><path class="cls-5" d="M59.73,328.9V324c1.66-.7,3.25-.36,5-.27a15.74,15.74,0,0,1,.16,5.13H59.67Z"/><path class="cls-20" d="M308.23,223.27c0,1.72-.08,3.44-.13,5.16l-5.18.1-.05,0C302.9,223.13,302.9,223.13,308.23,223.27Z"/><path class="cls-12" d="M551.36,217.93l-26.46,0,0,0c.24-1.67-.45-3.46.61-5.24h25.88c0,1.76,0,3.51,0,5.26Z"/><path class="cls-12" d="M524.9,217.91c0,6.17.55,5.23-5.09,5.3-3.59,0-7.18,0-10.77,0l0,0c.23-1.67-.43-3.45.62-5.29h15.24Z"/><path class="cls-12" d="M450.89,270.74c0,1.74.05,3.47,0,5.2-.1,5.82,1,5.44-5.31,5.36l-.05,0V270.71h5.31Z"/><path class="cls-12" d="M561.93,223.21c-1.73,0-3.46,0-5.19,0-6.09-.08-5.33.83-5.38-5.28l0,0,10.55,0h0l0,5.26Z"/><path class="cls-12" d="M509,223.2c0,6.22.6,5.2-5.37,5.29-1.74,0-3.47,0-5.2,0l0,0c.22-1.67-.42-3.43.6-5.28h10Z"/><path class="cls-12" d="M498.47,228.48c0,6.22.6,5.2-5.38,5.3-1.73,0-3.46,0-5.19,0l0,0c.23-1.66-.41-3.43.61-5.28h10Z"/><path class="cls-12" d="M487.9,233.76c0,6.23.6,5.21-5.38,5.3-1.73,0-3.47,0-5.2,0l0,0c.23-1.67-.41-3.43.61-5.29h10Z"/><path class="cls-12" d="M413.88,302.43c.07,6.38.42,5.21-5.37,5.32-1.74,0-3.47,0-5.21,0l0-.05c.27-1.65-.41-3.42.64-5.28h9.93Z"/><path class="cls-12" d="M424.45,297.15c.07,6.37.43,5.2-5.37,5.31-1.73,0-3.47,0-5.2,0l-.05,0c.27-1.66-.4-3.42.65-5.28h9.92Z"/><path class="cls-12" d="M435,291.87c.08,6.37.43,5.2-5.36,5.31-1.74,0-3.48,0-5.21,0l-.05,0c.27-1.66-.4-3.43.65-5.29H435Z"/><path class="cls-12" d="M456.17,260.17c0,1.73.05,3.47,0,5.2-.11,5.93,1,5.38-5.3,5.37l0,0V260.13h5.26Z"/><path class="cls-12" d="M461.46,254.9c0,5.83.92,5.33-5.29,5.27l-.05,0c.26-1.66-.37-3.41.6-5.27h4.71Z"/><path class="cls-12" d="M466.75,249.61c0,6,.75,5.26-5.29,5.29l0,0c.21-1.67-.38-3.41.57-5.29h4.72Z"/><path class="cls-12" d="M440.31,286.59c0,6,.73,5.31-5.29,5.28l0-.05c.25-1.65-.37-3.39.6-5.28h4.68Z"/><path class="cls-12" d="M445.6,281.3c0,6,.72,5.32-5.29,5.29l-.05,0c.26-1.65-.36-3.39.6-5.28h4.69Z"/><path class="cls-12" d="M472,244.33c0,6,.75,5.25-5.29,5.28l0,0c.21-1.66-.38-3.4.56-5.28H472Z"/><path class="cls-12" d="M477.32,239.05c0,6,.74,5.25-5.28,5.28l0,0c.21-1.66-.39-3.41.56-5.28h4.72Z"/><path class="cls-18" d="M551.33,202.1l0,5.25H509.78c-1.3,1.81,0,3.72-1.34,5.13-3.18.6-6.52-.36-9.59.52-.71,1.63.08,3.3-.84,4.72-3.26.66-6.6-.27-9.67.54-.86,1.57.09,3.27-1.15,5h-9.57l-.56,5.23h-9.67c-1.13,1.82,0,3.7-1.13,5-1.49.7-3.19-.25-4.46.77-.72,1.49.22,3.18-.78,4.47-1.46.78-3.16-.19-4.63.9-.58,3.14.29,6.47-.48,9.55-1.57.91-3.26,0-4.78,1-.14,1.41-.3,2.9-.44,4.24-1.6,1.12-3.51-.14-4.79,1.06-.66,1.51.28,3.21-.78,4.46-1.49.71-3.19-.24-4.8,1,1.29,4.3-1.37,5.12-4.74,4.67-1,1.75,0,3.45-1.06,4.95L430,271c-.17,1.66-.33,3.15-.47,4.5-1.6,1.12-3.51-.13-4.71,1-.79,1.57.22,3.28-.86,4.54-1.49.72-3.18-.24-4.46.77-.75,1.47.21,3.17-1.12,4.9h-9.23c-1,1.78,0,3.48-1.25,5.23H398.7c-1.21,1.81,0,3.72-1.28,5.06-3.23.62-6.56-.36-9.57.52-.77,1.69.18,3.39-.87,4.65-1.49.72-3.19-.24-4.47.77-.74,1.48.21,3.17-.89,4.61-3.16.62-6.49-.27-9.57.5-.87,1.58.07,3.27-1,4.78l-4.23.43c-1.08,1.62.16,3.53-1.17,4.89-3.21.58-6.54-.35-9.54.49-.77,1.7.13,3.39-.91,4.74-3.27.67-6.61-.33-9.66.57-.8,1.6.15,3.29-1.11,4.93-6.06,0-12.32,0-18.57,0-1.76,0-1.89-1.07-1.88-2.39,0-2.75,0-5.5,0-8.26L324,313l0,0c1.69-.19,3.45.37,5.33-.51v-4.82l0,.05c1.69-.14,3.44.26,5.26-.38v-20.7c.12-6.35.49-5.27-5.25-5.34h0V271.21c-2.05-.7-3.69-.36-5.29-.43h0q0-5.28,0-10.56l.07-.07c1.61.22,3.29-.3,5.2.56-.82,3.85.76,5.75,5.33,4.66-.68,4.17.43,6.55,4.56,5.4.33.47.57.66.55.82-.42,3.77,1.31,4.63,4.92,4.55,11.43-.26,22.86-.15,34.29-.06,2.28,0,3.65-.36,3.28-3-.24-1.67.53-2.43,2.26-2.33,1.42.09,2.86-.07,4.28,0,2.64.21,4.61-.11,4.06-3.57-.24-1.5.91-1.75,2.14-1.74,2.62,0,5.24,0,7.63,0,.35-.5.59-.68.57-.84-.4-3.76,1.32-5.09,4.93-4.47,1,.16,2-.06,3,0,2.07.21,3.18-.48,2.87-2.73-.28-2.06.72-2.69,2.68-2.6,2.49.12,5,0,7.35,0,.87-2,.4-3.65.54-5.26l5.2-.09c6.49.19,5.27.34,5.36-5.24h0c1.7-.17,3.49.49,5.36-.68v-4.5l4.7-.22c1-1.54.17-3.16.79-4.69,1.5-1,3.3-.18,4.95-.53,6.51.19,5.26.33,5.35-5.24h0c6,0,5.27.75,5.29-5.29h0c2.52,0,5-.07,7.55.07,2.15.12,3.4-.42,3.06-2.86-.25-1.82.55-2.63,2.42-2.49a3.1,3.1,0,0,0,2.57-.5c.56-1.53.18-3.17.27-4.79h0c2.51,0,5-.09,7.54.05,2.13.11,3.42-.38,3.07-2.84-.31-2.15.9-2.56,2.74-2.5,3.27.1,6.56-.12,9.82.09,2.59.16,3.69-.68,3.31-3.3a11.69,11.69,0,0,1,0-2L509,202l26.57,0Z"/><path class="cls-5" d="M387.39,239.1v5.09l-5.18.29v5h-4.86c-.9,1.68-.17,3.38-.66,5.32H361.1l0-15.75,0,0c1.69-.24,3.45.33,5.31-.45V233.8l0,0,15.82,0h0c.17,1.68-.31,3.42.41,5.3Z"/><path class="cls-15" d="M313.53,228.58l21.06-.14c0,6.25.69,5.25-5.41,5.33-3.49,0-7,.06-10.47.08l-5.21-.1Z"/><path class="cls-18" d="M313.5,233.75l5.21.1q0,7.88.08,15.73l-.07.07c-1.67-.25-3.46.47-5.22-.67Z"/><path class="cls-17" d="M382.16,233.8l-15.82,0c0-1.75,0-3.5,0-5.25h15.76C382.13,230.32,382.15,232.06,382.16,233.8Z"/><path class="cls-17" d="M361.07,239.08l0,15.75a14.9,14.9,0,0,1-5.11-.25v-15C357.59,238.61,359.37,239.23,361.07,239.08Z"/><path class="cls-5" d="M408.65,228.57l10.56-.12v5.12H408.65Z"/><path class="cls-18" d="M318.79,249.58c1.6.23,3.27-.3,5.28.62v9.95l-.07.07c-1.61-.19-3.28.31-5.28-.57v-10Z"/><path class="cls-17" d="M366.36,233.8v4.85c-1.86.78-3.62.21-5.31.45v-4.76C362.92,233.38,364.68,233.93,366.36,233.8Z"/><path class="cls-17" d="M387.39,239.1h-4.82c-.72-1.88-.24-3.62-.41-5.3C387.69,233.9,387.61,232.56,387.39,239.1Z"/><path class="cls-15" d="M429.67,249.56l-5.2.09c.13-5.78-1.07-5.3,5.3-5.29l0,0C429.72,246.07,429.7,247.82,429.67,249.56Z"/><path class="cls-15" d="M429.77,244.36c.07-5.88-.94-5.27,5.29-5.28l0,0c0,1.76,0,3.52,0,5.28h-5.28Z"/><path class="cls-12" d="M419.14,434.62h-10c-1-1.88-.3-3.66-.6-5.32,1.86,0,3.72-.09,5.57-.05C419.34,429.36,419.33,428.06,419.14,434.62Z"/><path class="cls-12" d="M435,445.19l-9.78-.16c-.1,0-.19-.08-.42-.18-.82-1.54-.13-3.32-.43-5,1.75,0,3.5-.08,5.25-.05C435.44,439.92,435.11,438.71,435,445.19Z"/><path class="cls-12" d="M424.43,439.9h-4.75c-.93-1.89-.29-3.66-.58-5.32C425.15,434.48,424.52,433.87,424.43,439.9Z"/><path class="cls-17" d="M324,318.24c0,2.76,0,5.51,0,8.26,0,1.32.12,2.4,1.88,2.39,6.25,0,12.51,0,18.57,0,1.26-1.64.31-3.33,1.11-4.93,3.05-.9,6.39.1,9.66-.57,1-1.35.14-3,.91-4.74,3-.84,6.33.09,9.54-.49,1.33-1.36.09-3.27,1.17-4.89l4.23-.43c1-1.51.1-3.2,1-4.78,3.08-.77,6.41.12,9.57-.5,1.1-1.44.15-3.13.89-4.61,1.28-1,3-.05,4.47-.77,1-1.26.1-3,.87-4.65,3-.88,6.34.1,9.57-.52,1.31-1.34.07-3.25,1.28-5.06h9.22c1.21-1.75.26-3.45,1.25-5.23h9.23c1.33-1.73.37-3.43,1.12-4.9,1.28-1,3-.05,4.46-.77,1.08-1.26.07-3,.86-4.54,1.2-1.11,3.11.14,4.71-1,.14-1.35.3-2.84.47-4.5l4.5-.45c1-1.5.09-3.2,1.06-4.95,3.37.45,6-.37,4.74-4.67,1.61-1.28,3.31-.33,4.8-1,1.06-1.25.12-3,.78-4.46,1.28-1.2,3.19.06,4.79-1.06.14-1.34.3-2.83.44-4.24,1.52-1,3.21-.05,4.78-1,.77-3.08-.1-6.41.48-9.55,1.47-1.09,3.17-.12,4.63-.9,1-1.29.06-3,.78-4.47,1.27-1,3-.07,4.46-.77,1.14-1.3,0-3.18,1.13-5h9.67l.56-5.23h9.57c1.24-1.74.29-3.44,1.15-5,3.07-.81,6.41.12,9.67-.54.92-1.42.13-3.09.84-4.72,3.07-.88,6.41.08,9.59-.52,1.29-1.41,0-3.32,1.34-5.13h41.58v5.29H525.48c-1.06,1.78-.37,3.57-.61,5.24H509.63c-1.05,1.84-.39,3.62-.62,5.29H499c-1,1.85-.38,3.61-.6,5.28h-10c-1,1.85-.38,3.62-.61,5.28h-10c-1,1.86-.38,3.62-.61,5.29h-4.72c-.95,1.87-.35,3.62-.56,5.28h-4.73c-.94,1.88-.35,3.62-.56,5.28H462c-.95,1.88-.36,3.62-.57,5.29h-4.71c-1,1.86-.34,3.61-.6,5.27h-5.26v10.58h-5.31v10.55h-4.69c-1,1.89-.34,3.63-.6,5.28h-4.68c-1,1.89-.35,3.63-.6,5.28h-9.93c-1.05,1.86-.38,3.63-.65,5.29h-9.92c-1.05,1.86-.38,3.62-.65,5.28H403.9c-1,1.86-.37,3.63-.64,5.28H393c-.15,1.88-.27,3.37-.42,5.19H383c-1.42,1.72-.31,3.55-1.28,5.34h-9.37c-1.33,1.74-.19,3.58-1.2,5.2l-4.33.33c-.95,1.53-.11,3.17-.79,4.79-3.17.85-6.6-.15-10.06.61-.13,1.57-.25,3.06-.4,4.88h-9.59c-1.42,1.72-.27,3.56-1.31,5.33H330c-1.18,1.69-.33,3.34-.92,4.91-1.5,1-3.33.15-5,.54h-15.9V334.1l0,0c1.69-.14,3.45.41,5.33-.53v-4.79l0,0c1.69-.16,3.46.43,5.33-.56V318.25l0,0Z"/><path class="cls-10" d="M308.15,334.1v10.69h15.9a12.84,12.84,0,0,0,0,2c.38,2.62-.71,3.41-3.3,3.31-5-.19-10.07,0-15.1-.09-2.19-.06-2.84.75-2.79,2.85.12,4.38,0,8.75,0,13.13l-5.26-.08V345.28c1.69-1.11,3.47-.07,5.22-1v-9.72C304.69,333.83,306.46,334.34,308.15,334.1Z"/><path class="cls-5" d="M376.93,350l-.09,5.29-21.11,0,0,0V350Z"/><path class="cls-10" d="M318.72,381.75h-5c-.15-1.85-.26-3.34-.38-4.83-1.47-1-3.1-.16-4.68-.72-1-1.51-.16-3.34-.55-5h10.7c0,1.72,0,3.44,0,5.16Z"/><path class="cls-5" d="M324,371.15v-5.29h10.57l0,0,0,5.25h0l-10.54,0Z"/><path class="cls-5" d="M345.18,360.58V355.3h10.58l0,0v5.28H345.16Z"/><path class="cls-5" d="M334.61,365.86v-5.28h10.57l0,0v5.27H334.59Z"/><path class="cls-5" d="M318.78,376.35c0-1.72,0-3.44,0-5.16l5.27,0,0,0-.06,5.22Z"/><path class="cls-8" d="M355.73,360.55v-5.28l21.11,0,37.08-.06,5.15.13c0,1.74.07,3.48.1,5.23l.05,0-52.87.11Z"/><path class="cls-8" d="M334.59,365.84h10.56v4.71c-1.84,1-3.6.33-5.25.62l-5.34-.08Z"/><path class="cls-8" d="M345.16,365.83v-5.27h10.57v5.27Z"/><path class="cls-8" d="M435.07,360.51l5.14.14c0,1.74.07,3.48.11,5.22l0-.05H419.63c-.72-1.84-.29-3.59-.41-5.28l-.05,0Z"/><path class="cls-8" d="M461.44,376.41l15.86,0h0c0,1.76,0,3.51,0,5.27l.05-.05H462.05C461.05,379.87,461.76,378.08,461.44,376.41Z"/><path class="cls-8" d="M450.94,371.1H440.75c-.66-1.85-.27-3.59-.39-5.28l0,.05,10.55,0h0c0,1.76,0,3.52,0,5.27Z"/><path class="cls-8" d="M482.65,381.64l5.15.14c0,1.71,0,3.43,0,5.14H477.37v-5.25l-.05.05Z"/><path class="cls-8" d="M461.44,371.17c0,1.76,0,3.53.05,5.29H451.34c-.68-1.93-.29-3.67-.4-5.36l-.05,0,10.56,0Z"/><path class="cls-13" d="M487.81,386.92c0-1.71,0-3.43,0-5.14l5.38-.06C493.09,387.28,494.31,387.1,487.81,386.92Z"/><path class="cls-5" d="M371.64,402.82v-5.29h10.55v5.29Z"/><path class="cls-5" d="M382.16,397.56v-4.78c1.88-.9,3.64-.3,5.32-.54V397C385.59,397.93,383.84,397.38,382.16,397.56Z"/><path class="cls-8" d="M324,376.34l.06-5.22,10.54,0v5.24Z"/><path class="cls-12" d="M339.86,397.62H329.81c-.94-1.88-.31-3.65-.56-5.32h10.06C340.31,394.16,339.74,395.92,339.86,397.62Z"/><path class="cls-12" d="M350.43,402.9h-10c-.95-1.87-.31-3.64-.57-5.32h10.06C350.88,399.44,350.31,401.21,350.43,402.9Z"/><path class="cls-10" d="M324,387.06h-4.7c-1-1.93-.34-3.68-.6-5.34h4.76C324.4,383.62,323.88,385.37,324,387.06Z"/><path class="cls-12" d="M329.29,392.33h-4.8c-.88-1.89-.3-3.65-.51-5.33h4.77C329.71,388.89,329.17,390.64,329.29,392.33Z"/><path class="cls-11" d="M503.81,202.17a11.69,11.69,0,0,0,0,2c.38,2.62-.72,3.46-3.31,3.3-3.26-.21-6.55,0-9.82-.09-1.84-.06-3.05.35-2.74,2.5.35,2.46-.94,2.95-3.07,2.84-2.51-.14-5-.05-7.54-.05,0-1.19,0-2.38,0-3.57,0-.81.26-1.76,1.17-1.6,4.83.8,4.16-2.49,4.13-5.36Z"/><path class="cls-11" d="M477.32,212.62c-.09,1.62.29,3.26-.27,4.79a3.1,3.1,0,0,1-2.57.5c-1.87-.14-2.67.67-2.42,2.49.34,2.44-.91,3-3.06,2.86-2.51-.14-5,0-7.55-.07a25.27,25.27,0,0,0,0-2.61c-.2-1.94.5-2.93,2.55-2.65s3-.67,2.75-2.78.82-2.6,2.7-2.53C472.08,212.72,474.7,212.63,477.32,212.62Z"/><path class="cls-11" d="M461.46,223.19c0,6,.74,5.26-5.29,5.29C456.24,223.26,456.24,223.26,461.46,223.19Z"/><path class="cls-11" d="M456.17,228.47c-.09,5.57,1.16,5.43-5.35,5.24v-4.47C452.68,228,454.49,228.74,456.17,228.47Z"/><path class="cls-11" d="M435,244.33c0-1.76,0-3.52,0-5.28l5.35.1v4.5C438.51,244.82,436.72,244.16,435,244.33Z"/><path class="cls-17" d="M562,223.19l0-5.26h5.29c0,1.76,0,3.53,0,5.29Z"/><path class="cls-13" d="M435.07,360.51l-15.9.08c0-1.75-.06-3.49-.1-5.23,3.59,0,7.19-.07,10.78-.06C436.09,355.31,434.87,354.8,435.07,360.51Z"/><path class="cls-13" d="M450.87,365.89l-10.55,0c0-1.74-.07-3.48-.11-5.22l10.68-.06C450.89,362.35,450.88,364.12,450.87,365.89Z"/><path class="cls-11" d="M535.54,202,509,202c0-1.73.07-3.46.11-5.19h26.39C535.49,198.56,535.52,200.3,535.54,202Z"/><path class="cls-18" d="M551.35,212.64v-5.29l10.55,0,.06,5.22-.12.12-10.49-.08Z"/><path class="cls-18" d="M567.22,217.92h-5.29c0-1.74,0-3.47-.08-5.21l.12-.12h4.7C567.59,214.52,567,216.26,567.22,217.92Z"/><path class="cls-13" d="M461.45,371.17l-10.56,0c0-1.75,0-3.51,0-5.27h10.59C461.46,367.64,461.45,369.41,461.45,371.17Z"/><path class="cls-13" d="M482.65,381.64l-5.33.08c0-1.76,0-3.51,0-5.27h5.31C482.62,378.17,482.64,379.91,482.65,381.64Z"/><path class="cls-22" d="M194.57,450.38h4.61c1.62,0,3.31-.37,3.32,2.31,0,2.26-.65,3.29-3,3-1.94-.25-2.58.78-2.36,2.53.27,2.2-.73,3-2.84,2.77-1.41-.12-2.85.07-4.27,0-2.3-.18-3.94.2-3.49,3.1.27,1.78-.74,2.26-2.36,2.22s-2.88-.28-2.89-2.25c0-1.64.09-3.3-.05-4.93-.2-2.4.36-3.86,3.18-3.43,1.52.23,2.34-.55,2.11-2.09-.41-2.78,1-3.42,3.42-3.19C191.49,450.5,193,450.38,194.57,450.38Z"/><path class="cls-22" d="M155.34,455.89l4.34-.46c1-5.05,1-5.05,6.37-5.05,2.64,0,5.28,0,7.93,0,1.34,0,2.16.48,2,1.91-.14,1.18.69,2.73-1.19,3.33-3.84,1.22-3.83,1.24-4.47,5.28-4.49,0-9.07.13-13.65-.06C154.78,460.77,154.54,459.59,155.34,455.89Z"/><path class="cls-22" d="M165.4,476.41c-4.89.73-5.23.47-5.26-3.57,0-6.75,0-6.75,7.56-6.61,2.83,0,3.64,1.12,3,3.88-.17.71-.45,1.44-1.18,1.32C165.48,470.75,165,473.19,165.4,476.41Z"/><path class="cls-10" d="M292.31,402.81c0-3.51,0-7,0-10.54h5.32v10.6Z"/><path class="cls-10" d="M313.42,418.69h10c1,1.86.4,3.63.58,5.31H314C313,422.13,313.68,420.36,313.42,418.69Z"/><path class="cls-10" d="M324,424h10c1.05,1.84.4,3.61.62,5.29H324.57C323.59,427.42,324.25,425.65,324,424Z"/><path class="cls-22" d="M139.36,445.11c2.89,0,5.61,0,8.33,0,2,0,1.86,1.37,1.89,2.7s0,2.68-2,2.59c-1.42-.07-2.85,0-4.27,0C138.88,450.37,138.67,450.11,139.36,445.11Z"/><path class="cls-22" d="M149.57,471.55c0,1-.06,2,0,3,.13,1.72-.61,2.37-2.3,2.31s-2.93-.17-3-2.18c0-1.53,0-3.07,0-4.6,0-1.9-.56-4,2.74-3.9,3.15.05,2.48,2,2.54,3.77C149.59,470.46,149.57,471,149.57,471.55Z"/><path class="cls-10" d="M297.56,402.84h4.76c1,1.88.39,3.63.56,5.31h-4.76C297.18,406.27,297.8,404.51,297.56,402.84Z"/><path class="cls-10" d="M308.13,413.4h4.77c1,1.88.38,3.64.55,5.32h-4.76C307.76,416.83,308.38,415.08,308.13,413.4Z"/><path class="cls-10" d="M302.85,408.12h4.76c1,1.88.38,3.64.55,5.32H303.4C302.47,411.55,303.09,409.79,302.85,408.12Z"/><path class="cls-10" d="M292.25,376.41V366.34c1.9-.88,3.67-.28,5.36-.51l-.06,10.53Z"/><path class="cls-10" d="M292.31,392.31h-5.08V376.79c1.61-.79,3.39-.14,5.06-.42Q292.31,384.34,292.31,392.31Z"/><path class="cls-9" d="M234.13,265.42c1.63,0,3.28.34,4.86-.26.95-1.41,0-3.11,1-4.89h14.49c1.31-1.73.34-3.43,1.3-5.22h14.47c1.42-1.72.46-3.42,1.27-5.13,3-.79,6.33.1,9.54-.47,1.31-1.36,0-3.28,1.18-4.89a46.51,46.51,0,0,1,9.8,0v20.37c-1.46,1.05-3.16.09-4.94,1.07v25c-1.72,1.38-3.42.43-5.06,1.22-.91,3,.1,6.37-.54,9.57-1.37,1.29-3.28,0-4.87,1.15-.14,1.36-.3,2.85-.44,4.23-1.53,1-3.23,0-4.65.9-.91,1.34,0,3-.74,4.44-1.35,1-3,0-4.5.8-1,1.3,0,3-.75,4.39-4.61,1.33-5,1.06-5-3.49q0-2.64-.06-5.28a3.47,3.47,0,0,0-.22-.79c-1.47-.75-3-.5-5-.1V318l-5.23.56v9.55c-1.74,1.26-3.44.29-4.89,1.09-1,1.3,0,3-.78,4.46-1.28,1-3,.06-4.46.78-1.06,1.27-.05,3-.94,4.68-2.95.81-6.28-.11-9.49.48-1.32,1.36-.07,3.27-1,4.66-4.74,1-4.87.87-4.92-3.78,0-2,.29-3.94-.31-6a10.49,10.49,0,0,0-4.33-.22c-1.16,1.55-.2,3.25-1,4.83-3.06.9-6.4-.11-9.6.57-1.12,1.37-.17,3.06-.86,4.54-1,.88-2.24.5-3.41.5q-11.39.06-22.78,0c-6,0-5.15.7-5.25-5.29,5.9,0,6.07-.16,4.76-5-4.75-.68-4.75-.68-4.76,4,0,.33,0,.66,0,1H149.94c-5.2,0-5.2,0-6.08-5.28-5.47,0-11.05-.22-16.61.08-3.37.17-4.6-.84-4.16-4.2a43.25,43.25,0,0,0,0-5.8c-1.69-1-3.19-.63-4.68-.47-1.19,1.36-.17,3.07-.88,4.49-4.34,1.47-5,1-5-3.32,0-2.06-.32-4.15.34-6.38l4.59-.49c.81-3.29-.05-6.61.52-9.74,1.47-1.12,3.17-.15,4.76-1,.91-3-.11-6.38.56-9.58,1.36-1.14,3.05-.18,4.55-.87,1.19-1.28-.06-3.18,1.06-4.78l4.23-.44c1-1.52.06-3.21,1.11-5h9.21c1.3-1.73.33-3.43,1.29-5.21h14.46c1.44-1.71.47-3.41,1.45-5.47h10l5.28,0v0c.18,1.69-.45,3.46.5,5.11h14.93c.76-1.74.25-3.4.47-5l5.17-.16h5.33c5.25.14,5.25.14,5.35-5.2l5.25,0c.21,1.69-.49,3.5.47,5h9.73c.77-1.69-.13-3.36.82-4.69,1.47-.72,3.14.17,4.65-.82.13-1.43.26-2.92.39-4.36C230.84,265.15,232.52,265.66,234.13,265.42Z"/><path class="cls-19" d="M234.13,265.42c-1.61.24-3.29-.27-5.06.47-.13,1.44-.26,2.93-.39,4.36-1.51,1-3.18.1-4.65.82-.95,1.33-.05,3-.82,4.69h-9.73c-1-1.49-.26-3.3-.47-5l3.59,0c1,0,1.7-.42,1.67-1.53-.09-2.9.36-5.83-.37-9.06H213c0-1.73.05-3.47.07-5.21,1.69-.2,3.46.3,5-.41V244.32H213c-.24-1.67.38-3.41-.54-5.28h-4.75c-.24-1.67.39-3.42-.53-5.26h-4.78c-.15-1.69.33-3.45-.39-5.19h-26l-.19-.2c.08-1.53.16-3.07.23-4.53,1.42-1.22,3.13-.2,4.71-1,1.12-1.19-.14-3.1,1-4.71h30.65c1,1.53,0,3.23,1.11,5h15c.19,1.86.35,3.35.5,4.86,1.45.93,3.12.14,4.58.77,1,1.32.09,3,.8,4.5,1.26,1.06,3,.11,4.68.89v15c-1.21,1.15-3.1,0-5,1.12Z"/><path class="cls-10" d="M302.92,228.53l5.18-.1.12.11q0,13.16,0,26.31l-.1.1h-5.21Z"/><path class="cls-19" d="M165.3,265.59c-5.15-.29-5.15-.29-5.15-5.44v-20.5c1.89-1,3.59-.35,5.17-.69l.2.19q0,13.13,0,26.25Z"/><path class="cls-10" d="M334.55,286.68v20.7c-1.82.64-3.57.24-5.26.38q0-10.56,0-21.11l.09-.1Z"/><path class="cls-10" d="M324,281.36H318.7V270.8l.1-.1,5.21.08h0c0,3.49.05,7,.08,10.49Z"/><path class="cls-10" d="M318.73,318.25V328.3c-1.87,1-3.64.4-5.33.56V318.81C315.28,317.89,317.05,318.54,318.73,318.25Z"/><path class="cls-10" d="M313.42,265.52h-5.29V255l.1-.1c1.6.24,3.28-.27,5.28.59v10Z"/><path class="cls-21" d="M239.44,624.64a29,29,0,0,0,0,3c.23,2.22-1.06,2.43-2.83,2.45s-2.62-.57-2.49-2.45c.1-1.52,0-3.06,0-4.59,0-1.87-.38-3.65,2.65-3.65s2.68,1.78,2.64,3.65C239.43,623.55,239.44,624.09,239.44,624.64Z"/><path class="cls-21" d="M260.59,666.9c0-1,.08-2,0-2.95-.19-2.06,1-2.28,2.65-2.28s2.81.22,2.66,2.28c-.11,1.53,0,3.06,0,4.59,0,2,.42,3.89-2.81,3.81s-2.37-2.1-2.48-3.81C260.56,668,260.59,667.45,260.59,666.9Z"/><path class="cls-21" d="M281.74,672.56c0,2.55-.08,4.93,0,7.31.08,1.91-.23,3-2.61,3s-2.91-.86-2.72-2.92c.11-1.19,0-2.4,0-3.61C276.45,672,276.45,672,281.74,672.56Z"/><path class="cls-10" d="M324,318.24l-5.29.05v-4.8c1.9-.85,3.67-.27,5.35-.49Z"/><path class="cls-10" d="M313.44,328.82v4.79c-1.88.94-3.64.39-5.33.53v-4.79C310,328.48,311.76,329.09,313.44,328.82Z"/><path class="cls-19" d="M176,276l-5.28,0c-.05-1.71-.09-3.41-.14-5.11l.19-.2,5.18.11C176,272.54,176,274.29,176,276Z"/><path class="cls-10" d="M318.7,270.8h-4.8c-.82-1.86-.25-3.61-.48-5.28l.09-.1c1.61.24,3.28-.27,5.29.57v4.71Z"/><path class="cls-10" d="M329.33,307.71v4.82c-1.88.88-3.64.32-5.33.51v-4.83C325.87,307.35,327.64,307.94,329.33,307.71Z"/><path class="cls-19" d="M170.6,233.65c.36-1.57-.26-3.24.5-4.79,1.56-.72,3.23-.14,4.8-.47l.19.2-.15,5.18-5.14.09Z"/><path class="cls-19" d="M170.6,270.89a5.16,5.16,0,0,0-1.29-.11c-3.12.5-4.4-.78-3.9-3.9a5.18,5.18,0,0,0-.1-1.29l.2-.19,5.2.09.08,5.2Z"/><path class="cls-19" d="M165.32,239c.35-1.57-.26-3.24.48-4.81,1.55-.75,3.23-.11,4.8-.5l.2.21c0,1.71-.07,3.43-.1,5.14l-5.18.15Z"/><path class="cls-21" d="M297.53,664c.28,2-.15,3-2.35,3-2,0-3-.43-2.93-2.71.05-2,.59-2.77,2.63-2.67C296.63,661.75,298.06,661.86,297.53,664Z"/><path class="cls-10" d="M329.28,286.65h-4.81c-.81-1.86-.25-3.61-.48-5.29l.1-.09,5.21.08h0c0,1.74.05,3.48.07,5.21Z"/><path class="cls-17" d="M318.8,270.7V266c-2-.84-3.68-.33-5.29-.57v-10c-2-.86-3.68-.35-5.28-.59q0-13.15,0-26.31l5.31,0,0,5.17V249c1.76,1.14,3.55.42,5.22.67v10c2,.88,3.67.38,5.28.57q0,5.28,0,10.56Z"/><path class="cls-17" d="M561.85,212.72c0,1.74,0,3.47.08,5.21l-10.55,0c0-1.75,0-3.5,0-5.26Z"/><path class="cls-17" d="M329.3,281.35l-5.21-.08c0-3.5,0-7-.08-10.49,1.6.07,3.24-.27,5.29.43Z"/><path class="cls-17" d="M329.37,286.55c0-1.73-.05-3.47-.07-5.21,5.74.07,5.37-1,5.25,5.34Z"/><path class="cls-11" d="M429.74,244.33H435c-.09,5.58,1.13,5.43-5.36,5.24C429.7,247.82,429.72,246.07,429.74,244.33Z"/><path class="cls-23" d="M176,276c0-1.75,0-3.5-.05-5.24l.05-.06,21.18.05-.12,5.19-5.17.16L176,276Z"/><path class="cls-19" d="M176,276l15.9.12c-.22,1.59.29,3.25-.47,5H176.51C175.56,279.48,176.19,277.71,176,276Z"/><path class="cls-20" d="M213,260.16h4.92c.73,3.23.28,6.16.37,9.06,0,1.11-.65,1.52-1.67,1.53l-3.59,0-5.25,0-.07-.06c.05-1.72.09-3.43.14-5.14,1.58-.37,3.29.29,5.15-.67v-4.76Z"/><path class="cls-20" d="M176,339.44c0-.32,0-.65,0-1,0-4.69,0-4.69,4.76-4,1.31,4.82,1.14,5-4.76,5Z"/><path class="cls-20" d="M207.76,270.79c-.1,5.34-.1,5.34-5.35,5.2,0-1.71.09-3.41.13-5.12l5.15-.14Z"/><path class="cls-19" d="M202.54,270.87c0,1.71-.09,3.41-.13,5.12h-5.33l.12-5.19,0,0,5.19-.14Z"/><path class="cls-23" d="M175.94,233.77l.15-5.18h26c.72,1.74.24,3.5.39,5.19l0,0-15.76,0-10.65,0Z"/><path class="cls-23" d="M213,244.32h5.05v10.22c-1.58.71-3.35.21-5,.41l-.06-.06V244.37Z"/><path class="cls-23" d="M202.44,233.78h4.78c.92,1.84.29,3.59.53,5.26l-.05.05-5.17-.05-.11-5.24Z"/><path class="cls-23" d="M213.05,255c0,1.74-.05,3.48-.07,5.21h0l-5.23.09c0-1.78,0-3.55,0-5.32l5.25,0Z"/><path class="cls-23" d="M207.75,239h4.75c.92,1.87.3,3.61.54,5.28l0,.05-5.25,0c0-1.75,0-3.5,0-5.24Z"/><path class="cls-23" d="M165.52,239.15l5.18-.15,0,.07,0,15.93c0,3.48,0,7-.05,10.46l0,0-5.2-.09Q165.51,252.27,165.52,239.15Z"/><path class="cls-23" d="M170.79,270.69l-.08-5.2,0,0,5.24,0,.05,5.3-.05.06Z"/><path class="cls-5" d="M170.7,239c0-1.71.06-3.43.1-5.14l5.14-.09.07,0,0,5.24-5.24,0Z"/><path class="cls-8" d="M176,270.74c0-1.77,0-3.53-.05-5.3l-.06,0,21.22.06,0,5.35,0,0Z"/><path class="cls-19" d="M207.69,270.73l-5.15.14-.19-.2c0-1.72.08-3.43.13-5.15l5.15-.13.2.2Z"/><path class="cls-19" d="M207.75,260.25l5.23-.09v4.76c-1.86,1-3.57.3-5.15.67l-.2-.2c.05-1.73.1-3.46.14-5.18Z"/><path class="cls-23" d="M202.48,265.52c0,1.72-.09,3.43-.13,5.15l-5.19.14,0-5.35h5.28Z"/><path class="cls-24" d="M202.42,233.8l.11,5.24-.17,5.27H197.1v5.28h-5.36v-5.37h-5.25v-5.14c.06-1.75.11-3.5.17-5.24Z"/><path class="cls-8" d="M186.66,233.84c-.06,1.74-.11,3.49-.17,5.24l-5.23,0-5.17.09L176,239l0-5.24Z"/><path class="cls-8" d="M207.74,244.33l5.25,0v10.52l-5.25,0-.08-.08V244.41Z"/><path class="cls-8" d="M202.36,244.31c0-1.76.11-3.51.17-5.27l5.17.05c0,1.74,0,3.49,0,5.24l-.08.08Z"/><path class="cls-8" d="M207.74,254.93c0,1.77,0,3.54,0,5.32l0,0-5.35,0c.15-1.61-.31-3.27.37-4.88,1.59-.75,3.27-.2,4.87-.44Z"/><path class="cls-8" d="M170.74,239.07l5.24,0,.11.11-.09,5.17.1,10.41-.16.28h-5.16Z"/><path class="cls-24" d="M170.78,255h5.16l0,10.39.06,0-5.24,0C170.75,262,170.76,258.48,170.78,255Z"/><path class="cls-25" d="M175.91,265.4l0-10.39.16-.28,4.73.37c1,1.62-.15,3.46,1.06,5a57.29,57.29,0,0,0,9.54-.11c.94-1.66-.18-3.48.9-4.83,1.52-.6,3.15.22,4.77-.8v-10h5.26l5.3.1v10.44c-1.6.24-3.28-.31-4.87.44-.68,1.61-.22,3.27-.37,4.88h0c-6,.1-5.17-.75-5.28,5.27h0Z"/><path class="cls-23" d="M202.42,260.17l5.35,0c0,1.72-.09,3.45-.14,5.18l-5.15.13-.07-.07v-5.27Z"/><path class="cls-8" d="M202.41,260.18v5.27h-5.28C197.24,259.43,196.38,260.28,202.41,260.18Z"/><path class="cls-5" d="M197.1,249.59v4.76c-1.62,1-3.25.2-4.77.8-1.08,1.35,0,3.17-.9,4.83a57.29,57.29,0,0,1-9.54.11c-1.21-1.53-.06-3.37-1.06-5l-4.73-.37-.1-10.41c1.68-.12,3.42.41,5.26-.48v-4.78l5.23,0v5.14h5.25v5.37Z"/><path class="cls-25" d="M181.26,239.06v4.78c-1.84.89-3.58.36-5.26.48l.09-5.17Z"/></g></g></svg>