<svg id="Layer_1" data-name="Layer 1" xmlns="http://www.w3.org/2000/svg" viewBox="0 0 372 90"><defs><style>.cls-1{fill:#ccdeff;}.cls-2{fill:#cf0;}.cls-3{fill:#082caf;}.cls-4{fill:#1954ed;}</style></defs><path class="cls-1" d="M103.32,59.49c0,1-.47,1.61-1.41,1.61H96.63A1.28,1.28,0,0,1,95.21,60a1.5,1.5,0,0,1,0-.3v-4.1a1.25,1.25,0,0,0-1-1.42,1.09,1.09,0,0,0-.36,0H89.74a1.26,1.26,0,0,0-1.41,1.11,1.61,1.61,0,0,0,0,.31v4.1a1.26,1.26,0,0,1-1.08,1.42,1,1,0,0,1-.34,0H81.63c-.89,0-1.41-.57-1.41-1.61v-20c0-5.94.94-12.26,11.55-12.26s11.55,6.32,11.55,12.26Zm-8.11-20c0-2.26-.33-3.39-3.44-3.39s-3.44,1.13-3.44,3.39v5.14A1.28,1.28,0,0,0,89.47,46H93.8a1.3,1.3,0,0,0,1.42-1.15,1.61,1.61,0,0,0,0-.31Z"/><path class="cls-1" d="M119.72,28.09c8.87,0,11.79,3.58,11.79,11.32V49.73c0,7.74-2.92,11.37-11.79,11.37H109.21a1.29,1.29,0,0,1-1.41-1.16,1.13,1.13,0,0,1,0-.26V29.55a1.31,1.31,0,0,1,1.12-1.46,1.41,1.41,0,0,1,.29,0Zm.15,24.9c2.26,0,3.39-.38,3.39-3.21V39.41c0-2.93-1.13-3.21-3.39-3.21h-2.55a1.26,1.26,0,0,0-1.41,1.11,1.61,1.61,0,0,0,0,.31v14A1.29,1.29,0,0,0,117.1,53h2.77Z"/><path class="cls-1" d="M140.37,28.09a1.46,1.46,0,0,1,1.56,1.23l4.15,18.1c.09.43.47.43.56,0l4.15-18.1a1.46,1.46,0,0,1,1.56-1.23H158a1.13,1.13,0,0,1,1.31.92,1.16,1.16,0,0,1-.08.64L152.3,59.87a1.46,1.46,0,0,1-1.55,1.23H142a1.46,1.46,0,0,1-1.56-1.23l-6.88-30.22a1.13,1.13,0,0,1,.56-1.48,1.16,1.16,0,0,1,.66-.08Z"/><path class="cls-1" d="M183.61,28.09A1.24,1.24,0,0,1,185,29.18a.91.91,0,0,1,0,.33v5.28a1.27,1.27,0,0,1-1.11,1.41H172.2a1.26,1.26,0,0,0-1.42,1.1,1.71,1.71,0,0,0,0,.32v1.5a1.29,1.29,0,0,0,1.15,1.42h7.57a1.25,1.25,0,0,1,1.43,1.05,1.14,1.14,0,0,1,0,.41v5.28a1.26,1.26,0,0,1-1.1,1.42H172.2a1.27,1.27,0,0,0-1.42,1.1,1.61,1.61,0,0,0,0,.31v1.51A1.29,1.29,0,0,0,172,53h11.64A1.25,1.25,0,0,1,185,54.09a1.61,1.61,0,0,1,0,.31v5.28A1.25,1.25,0,0,1,184,61.1a1.09,1.09,0,0,1-.36,0H163.8a1.29,1.29,0,0,1-1.41-1.16,1.13,1.13,0,0,1,0-.26V29.51a1.27,1.27,0,0,1,1.1-1.42,1.61,1.61,0,0,1,.31,0Z"/><path class="cls-1" d="M213.5,58.55a1.67,1.67,0,0,1-.53,2.3,1.7,1.7,0,0,1-1,.25h-5.38a1.14,1.14,0,0,1-1.08-.66L200.58,51a.52.52,0,0,0-.38-.24h-1.89a1.42,1.42,0,0,0-1.46,1.38v7.53a1.42,1.42,0,0,1-1.37,1.47h-5.37a1.42,1.42,0,0,1-1.46-1.38V29.55A1.41,1.41,0,0,1,190,28.09h10.43c8.39,0,11.78,3.58,11.78,11.32,0,4.38-1.08,7.45-3.58,9.24a.48.48,0,0,0-.14.61ZM198.31,36.2a1.41,1.41,0,0,0-1.46,1.36v3.59a1.41,1.41,0,0,0,1.36,1.46h2.51c2.26,0,3.39-.28,3.39-3.2S203,36.2,200.72,36.2Z"/><path class="cls-1" d="M223.21,37.62a1.26,1.26,0,0,0-1.08-1.42,1,1,0,0,0-.34,0h-6.6a1.28,1.28,0,0,1-1.41-1.14,1.22,1.22,0,0,1,0-.27V29.51a1.27,1.27,0,0,1,1.1-1.42,1.61,1.61,0,0,1,.31,0h24.14a1.26,1.26,0,0,1,1.42,1.08,1,1,0,0,1,0,.34v5.28a1.26,1.26,0,0,1-1.11,1.41h-6.91a1.26,1.26,0,0,0-1.41,1.11,1.61,1.61,0,0,0,0,.31V59.68a1.28,1.28,0,0,1-1.12,1.42h-5.58a1.29,1.29,0,0,1-1.41-1.16,1.13,1.13,0,0,1,0-.26Z"/><path class="cls-1" d="M250.17,28.09a1.25,1.25,0,0,1,1.42,1.05,1.15,1.15,0,0,1,0,.37V59.68a1.26,1.26,0,0,1-1.1,1.42H245a1.29,1.29,0,0,1-1.41-1.16,1.13,1.13,0,0,1,0-.26V29.51a1.27,1.27,0,0,1,1.1-1.42,1.61,1.61,0,0,1,.31,0Z"/><path class="cls-1" d="M272.75,39.78c-.94.19-1.41-.23-1.55-1.17a3.83,3.83,0,0,0-4.1-3.16c-1.84,0-3,1.08-2.78,2.17C265,41.29,279.87,41.2,279.87,52c0,1.42-1.6,9.76-12.77,9.76-9.9,0-12-6.5-12.26-10.18A1.39,1.39,0,0,1,256,50h0l5.33-1.18c.94-.18,1.46.24,1.56,1.23a3.87,3.87,0,0,0,4.14,3.58h0c2.31,0,4-1.36,3.72-2.64-.89-4-15.09-3.11-15.09-13.95,0-1.42.8-9.76,11.37-9.76,9.71,0,12,6.31,12.26,9.71a1.4,1.4,0,0,1-1.22,1.56h0Z"/><path class="cls-1" d="M304.48,28.09a1.25,1.25,0,0,1,1.42,1.05,1.15,1.15,0,0,1,0,.37v5.28a1.26,1.26,0,0,1-1.11,1.41H293.07a1.26,1.26,0,0,0-1.41,1.11,1.61,1.61,0,0,0,0,.31v1.5a1.29,1.29,0,0,0,1.15,1.42h7.57a1.25,1.25,0,0,1,1.43,1.05,1.14,1.14,0,0,1,0,.41v5.28a1.28,1.28,0,0,1-1.12,1.42h-7.61a1.27,1.27,0,0,0-1.41,1.11,1.5,1.5,0,0,0,0,.3v1.51A1.29,1.29,0,0,0,292.85,53h11.63a1.25,1.25,0,0,1,1.42,1,1.09,1.09,0,0,1,0,.36v5.28a1.26,1.26,0,0,1-1.08,1.42,1,1,0,0,1-.34,0h-19.8A1.29,1.29,0,0,1,283.26,60a1.22,1.22,0,0,1,0-.27V29.51a1.26,1.26,0,0,1,1.1-1.42,1.71,1.71,0,0,1,.32,0Z"/><path class="cls-2" d="M37.75,60.77,23.53,52.52c.79,2.65,2.81,9.7,4.66,15.86L44.74,79Z"/><path class="cls-3" d="M50.31,44.67l-6.78,1.69L39.89,59.87l7.16,18.69c4.1-2.75,13.38-9,17.75-12Z"/><path class="cls-4" d="M46.82,9.49l5.07,33.36L66,64.21c.8-3.45,2.46-10.62,3.15-12.95C64.78,43.08,50.76,16.84,46.82,9.49Z"/><path class="cls-2" d="M42.93,43.9l.41.12,6.15-1.54-5-32.89-11.13,23Z"/><path class="cls-4" d="M37.94,58.2l3.39-12.59-9.1-10.79C28.86,40.78,25.58,47,24,50.1Z"/><path class="cls-1" d="M315.28,53.4a1.21,1.21,0,0,1,1.38,1.37v5.15a1.24,1.24,0,0,1-1.38,1.38h-5.15a1.26,1.26,0,0,1-1.38-1.38V54.77a1.23,1.23,0,0,1,1.38-1.37Z"/><path class="cls-1" d="M326.64,29.12A1.22,1.22,0,0,1,328,30.5V52a1.26,1.26,0,0,0,1.38,1.38h10.25A1.21,1.21,0,0,1,341,54.77v5.15a1.22,1.22,0,0,1-1.38,1.38H321.49a1.26,1.26,0,0,1-1.38-1.38V30.5a1.24,1.24,0,0,1,1.38-1.38Z"/><path class="cls-1" d="M345.08,29.12a1.49,1.49,0,0,1,1.56,1.06l3.4,8.55c.19.41.46.41.65,0l3.4-8.55a1.49,1.49,0,0,1,1.56-1.06h6.58c1,0,1.51.64,1,1.61l-8.23,18.39a1.18,1.18,0,0,0-.09.55V59.92a1.24,1.24,0,0,1-1.38,1.38h-6.43a1.25,1.25,0,0,1-1.38-1.38V49.67a1.18,1.18,0,0,0-.09-.55L337.4,30.73c-.46-1,0-1.61,1.06-1.61Z"/></svg>