<svg id="Layer_1" data-name="Layer 1" xmlns="http://www.w3.org/2000/svg" xmlns:xlink="http://www.w3.org/1999/xlink" viewBox="0 0 309.5 90"><defs><style>.cls-1{fill:#fff;}.cls-2{fill:#ccdeff;}.cls-3{mask:url(#mask);}.cls-4{fill:#cf0;}.cls-5{fill:#082caf;}.cls-6{fill:#1954ed;}</style><mask id="mask" x="-19.12" y="-22.66" width="132.02" height="132.02" maskUnits="userSpaceOnUse"><g id="mask0_1_9805" data-name="mask0 1 9805"><path class="cls-1" d="M112.89-22.66h-132v132h132Z"/></g></mask></defs><path class="cls-2" d="M103.32,59.49c0,1-.47,1.61-1.41,1.61H96.63a1.28,1.28,0,0,1-1.42-1.42v-4.1a1.25,1.25,0,0,0-1.41-1.42H89.74a1.27,1.27,0,0,0-1.41,1.42v4.1a1.26,1.26,0,0,1-1.42,1.42H81.63c-.89,0-1.41-.57-1.41-1.61v-20c0-5.94.94-12.26,11.55-12.26s11.55,6.32,11.55,12.26Zm-8.11-20c0-2.26-.33-3.39-3.44-3.39s-3.44,1.13-3.44,3.39v5.14a1.28,1.28,0,0,0,1.41,1.41H93.8a1.29,1.29,0,0,0,1.41-1.46Z"/><path class="cls-2" d="M119.72,28.09c8.87,0,11.79,3.58,11.79,11.32V49.73c0,7.74-2.92,11.37-11.79,11.37H109.21a1.29,1.29,0,0,1-1.41-1.42V29.55a1.3,1.3,0,0,1,1.41-1.46Zm.15,24.9c2.26,0,3.39-.38,3.39-3.21V39.41c0-2.93-1.13-3.21-3.39-3.21h-2.55a1.27,1.27,0,0,0-1.41,1.42v14A1.29,1.29,0,0,0,117.32,53Z"/><path class="cls-2" d="M140.37,28.09a1.46,1.46,0,0,1,1.56,1.23l4.15,18.1c.09.43.47.43.56,0l4.15-18.1a1.46,1.46,0,0,1,1.56-1.23H158a1.13,1.13,0,0,1,1.23,1.56L152.3,59.87a1.46,1.46,0,0,1-1.55,1.23H142a1.46,1.46,0,0,1-1.56-1.23l-6.88-30.22a1.12,1.12,0,0,1,1.22-1.56Z"/><path class="cls-2" d="M183.61,28.09A1.25,1.25,0,0,1,185,29.51v5.28a1.27,1.27,0,0,1-1.41,1.41H172.2a1.27,1.27,0,0,0-1.42,1.42v1.5a1.29,1.29,0,0,0,1.42,1.42h7.3A1.25,1.25,0,0,1,180.92,42v5.28a1.27,1.27,0,0,1-1.42,1.42h-7.3a1.27,1.27,0,0,0-1.42,1.41v1.51A1.29,1.29,0,0,0,172.2,53h11.41A1.25,1.25,0,0,1,185,54.4v5.28a1.25,1.25,0,0,1-1.41,1.42H163.8a1.29,1.29,0,0,1-1.41-1.42V29.51a1.27,1.27,0,0,1,1.41-1.42Z"/><path class="cls-2" d="M213.5,58.55a1.67,1.67,0,0,1-1.56,2.55h-5.38a1.15,1.15,0,0,1-1.08-.66L200.58,51a.51.51,0,0,0-.38-.24h-1.89a1.42,1.42,0,0,0-1.46,1.47v7.44a1.42,1.42,0,0,1-1.46,1.47h-5.28a1.42,1.42,0,0,1-1.46-1.47V29.55a1.41,1.41,0,0,1,1.46-1.46h10.33c8.39,0,11.78,3.58,11.78,11.32,0,4.38-1.08,7.45-3.58,9.24a.49.49,0,0,0-.14.61ZM198.31,36.2a1.41,1.41,0,0,0-1.46,1.46v3.49a1.41,1.41,0,0,0,1.46,1.46h2.41c2.26,0,3.39-.28,3.39-3.2S203,36.2,200.72,36.2Z"/><path class="cls-2" d="M223.21,37.62a1.26,1.26,0,0,0-1.42-1.42h-6.6a1.28,1.28,0,0,1-1.41-1.41V29.51a1.27,1.27,0,0,1,1.41-1.42h24.14a1.26,1.26,0,0,1,1.42,1.42v5.28a1.27,1.27,0,0,1-1.42,1.41h-6.6a1.27,1.27,0,0,0-1.41,1.42V59.68a1.28,1.28,0,0,1-1.42,1.42h-5.28a1.29,1.29,0,0,1-1.41-1.42Z"/><path class="cls-2" d="M250.17,28.09a1.25,1.25,0,0,1,1.42,1.42V59.68a1.27,1.27,0,0,1-1.42,1.42H245a1.29,1.29,0,0,1-1.41-1.42V29.51A1.27,1.27,0,0,1,245,28.09Z"/><path class="cls-2" d="M272.75,39.78c-.94.19-1.41-.23-1.55-1.17a3.83,3.83,0,0,0-4.1-3.16c-1.84,0-3,1.08-2.78,2.17C265,41.29,279.87,41.2,279.87,52c0,1.42-1.6,9.76-12.77,9.76-9.9,0-12-6.5-12.26-10.18a1.38,1.38,0,0,1,1.22-1.56l5.33-1.18c.94-.18,1.46.24,1.56,1.23a3.87,3.87,0,0,0,4.15,3.58c2.31,0,4-1.36,3.72-2.64-.89-4-15.09-3.11-15.09-13.95,0-1.42.8-9.76,11.37-9.76,9.71,0,12,6.31,12.26,9.71a1.4,1.4,0,0,1-1.23,1.56Z"/><path class="cls-2" d="M304.48,28.09a1.25,1.25,0,0,1,1.42,1.42v5.28a1.27,1.27,0,0,1-1.42,1.41H293.07a1.27,1.27,0,0,0-1.41,1.42v1.5a1.29,1.29,0,0,0,1.41,1.42h7.31A1.25,1.25,0,0,1,301.8,42v5.28a1.28,1.28,0,0,1-1.42,1.42h-7.31a1.27,1.27,0,0,0-1.41,1.41v1.51A1.29,1.29,0,0,0,293.07,53h11.41a1.25,1.25,0,0,1,1.42,1.41v5.28a1.26,1.26,0,0,1-1.42,1.42h-19.8a1.29,1.29,0,0,1-1.42-1.42V29.51a1.27,1.27,0,0,1,1.42-1.42Z"/><g class="cls-3"><path class="cls-4" d="M37.75,60.77,23.53,52.52c.79,2.65,2.81,9.7,4.66,15.86C33.82,72,41.52,76.94,44.74,79Z"/><path class="cls-5" d="M50.31,44.67l-6.78,1.69L39.89,59.87l7.16,18.69c4.1-2.75,13.38-9,17.75-12Z"/><path class="cls-6" d="M46.82,9.49l5.07,33.36L66,64.21c.8-3.45,2.46-10.62,3.15-12.95C64.78,43.08,50.76,16.84,46.82,9.49Z"/><path class="cls-4" d="M42.93,43.9l.41.12,6.15-1.54-5-32.89-11.13,23Z"/><path class="cls-6" d="M37.94,58.2l3.39-12.59-9.1-10.79C28.86,40.78,25.58,47,24,50.1Z"/></g></svg>