<svg xmlns="http://www.w3.org/2000/svg" xmlns:xlink="http://www.w3.org/1999/xlink" viewBox="0 0 282.31 235.31"><defs><style>.cls-1{isolation:isolate;}.cls-2{fill:url(#linear-gradient);}.cls-15,.cls-16,.cls-17,.cls-18,.cls-3{mix-blend-mode:overlay;}.cls-3{fill:url(#radial-gradient);}.cls-10,.cls-11,.cls-12,.cls-13,.cls-14,.cls-4,.cls-5,.cls-7,.cls-8,.cls-9{mix-blend-mode:multiply;}.cls-4{fill:url(#linear-gradient-2);}.cls-5{fill:url(#linear-gradient-3);}.cls-6{fill:#fff;}.cls-7{fill:url(#linear-gradient-4);}.cls-8{fill:url(#linear-gradient-5);}.cls-9{fill:url(#linear-gradient-6);}.cls-10{fill:url(#linear-gradient-7);}.cls-11{fill:url(#linear-gradient-8);}.cls-12{fill:url(#linear-gradient-9);}.cls-13{fill:url(#linear-gradient-10);}.cls-14{fill:url(#linear-gradient-11);}.cls-15{fill:url(#linear-gradient-12);}.cls-16{fill:url(#linear-gradient-13);}.cls-17{fill:url(#linear-gradient-14);}.cls-18{fill:url(#linear-gradient-15);}</style><linearGradient id="linear-gradient" x1="135.32" y1="184.37" x2="160.23" y2="-8.82" gradientUnits="userSpaceOnUse"><stop offset="0" stop-color="#5d9fff"/><stop offset="0.51" stop-color="#5f62ff"/><stop offset="1" stop-color="#a663f8"/></linearGradient><radialGradient id="radial-gradient" cx="162.49" cy="22.29" r="57.69" gradientTransform="translate(20.48 -57.46) rotate(25.42) scale(1 0.5)" gradientUnits="userSpaceOnUse"><stop offset="0" stop-color="#fff"/><stop offset="1" stop-color="#fff" stop-opacity="0"/></radialGradient><linearGradient id="linear-gradient-2" x1="250.19" y1="243.22" x2="267.48" y2="243.22" gradientTransform="matrix(1.13, 0.22, 0.22, 1.38, -186.48, -322.46)" gradientUnits="userSpaceOnUse"><stop offset="0" stop-color="#515d8b"/><stop offset="1" stop-color="#fff" stop-opacity="0"/></linearGradient><linearGradient id="linear-gradient-3" x1="696.71" y1="171.77" x2="714" y2="171.77" gradientTransform="matrix(-1.13, 0.22, -0.22, 1.38, 959.16, -322.46)" xlink:href="#linear-gradient-2"/><linearGradient id="linear-gradient-4" x1="213.16" y1="110.08" x2="311.6" y2="179.26" gradientTransform="matrix(1, 0, 0, 1, 0, 0)" xlink:href="#linear-gradient-2"/><linearGradient id="linear-gradient-5" x1="229.4" y1="95.07" x2="236.83" y2="37.5" gradientTransform="matrix(1, 0, 0, 1, 0, 0)" xlink:href="#linear-gradient-2"/><linearGradient id="linear-gradient-6" x1="198.69" y1="156.88" x2="215.16" y2="248.52" gradientTransform="matrix(1, 0, 0, 1, 0, 0)" xlink:href="#linear-gradient-2"/><linearGradient id="linear-gradient-7" x1="152.22" y1="162.48" x2="172.91" y2="246.1" gradientTransform="matrix(1, 0, 0, 1, 0, 0)" xlink:href="#linear-gradient-2"/><linearGradient id="linear-gradient-8" x1="778.65" y1="110.08" x2="877.08" y2="179.26" gradientTransform="matrix(-1, 0, 0, 1, 847.8, 0)" xlink:href="#linear-gradient-2"/><linearGradient id="linear-gradient-9" x1="794.89" y1="95.07" x2="802.31" y2="37.5" gradientTransform="matrix(-1, 0, 0, 1, 847.8, 0)" xlink:href="#linear-gradient-2"/><linearGradient id="linear-gradient-10" x1="764.17" y1="156.88" x2="780.65" y2="248.52" gradientTransform="matrix(-1, 0, 0, 1, 847.8, 0)" xlink:href="#linear-gradient-2"/><linearGradient id="linear-gradient-11" x1="717.7" y1="162.48" x2="738.4" y2="246.1" gradientTransform="matrix(-1, 0, 0, 1, 847.8, 0)" xlink:href="#linear-gradient-2"/><linearGradient id="linear-gradient-12" x1="167.47" y1="78.94" x2="249.37" y2="78.94" gradientTransform="matrix(1, 0, 0, 1, 0, 0)" xlink:href="#radial-gradient"/><linearGradient id="linear-gradient-13" x1="727.97" y1="78.94" x2="809.88" y2="78.94" gradientTransform="matrix(-1, 0, 0, 1, 842.82, 0)" xlink:href="#radial-gradient"/><linearGradient id="linear-gradient-14" x1="181.61" y1="11.2" x2="151.2" y2="58.5" gradientTransform="matrix(1, 0, 0, 1, 0, 0)" xlink:href="#radial-gradient"/><linearGradient id="linear-gradient-15" x1="686.22" y1="11.13" x2="655.81" y2="58.43" gradientTransform="matrix(-1, 0, 0, 1, 786.87, 0)" xlink:href="#radial-gradient"/></defs><g class="cls-1"><g id="Layer_2" data-name="Layer 2"><g id="OBJECTS"><path class="cls-2" d="M262.29,165.18c-16,1.78-30.07-7.43-38.63-18.87-10.53-14.1-22.56-18.72-33.66-21.92h0c12.26,10.52,24.9,18.73,26.68,36,2.76,26.7-11.38,35.82-7.68,47.52s13.87,5.54,15.7.79c2.55-6.65-2.94-10.82-.33-11.39s6.33,1.91,7.89,6.39a14.71,14.71,0,0,1-.38,10c-3.85,10.43-19.92,15-28.78,7.19-5.37-4.73-10.8-10.59-4.81-32.84,5.64-20.87-5.23-39.21-27.23-44.51-2.57,0-5.59.91-5.1,5.89,1.2,12,6.75,18.9,12.39,28.44,7,11.82,9.36,26.48,8.45,36.46-.73,8.08-5.8,16.15-13.39,19.32-9.06,3.8-21.15,1.19-25.89-9-2.66-5.7-1-8.39.41-6.55,6.25,7.91,22.71,10,26.25-1.63s-4.75-24.58-12.72-32.18c-6.68-6.37-16.72-19.11-20.26-29.11-3.54,10-13.58,22.74-20.27,29.11-8,7.6-16.24,20.6-12.72,32.18s20,9.54,26.25,1.63c1.45-1.84,3.08.85.41,6.55-4.74,10.14-16.83,12.75-25.88,9-7.59-3.17-12.67-11.24-13.4-19.32-.9-10,1.47-24.64,8.46-36.46,5.63-9.54,11.18-16.41,12.38-28.44.49-5-2.53-5.94-5.1-5.89-22,5.3-32.86,23.64-27.23,44.51,6,22.25.56,28.11-4.81,32.84-8.85,7.79-24.92,3.24-28.77-7.19a14.66,14.66,0,0,1-.39-10c1.56-4.48,5.4-6.93,7.9-6.39s-2.89,4.74-.33,11.39c1.82,4.75,12,10.93,15.69-.79S62.92,187.1,65.67,160.4c1.79-17.29,14.42-25.5,26.69-36h0c-11.11,3.2-23.13,7.82-33.67,21.92C50.09,157.75,36,167,20,165.18c-17.09-1.92-23.47-22.8-18.27-36a18.3,18.3,0,0,1,4.91-7.29c6.5-5.62,15-2.53,15.54,1.55.28,2.19-4-1.32-8.32,3C8.46,132,8.31,142.7,15,147.84c8.19,6.31,19.5-.62,25.78-6.75,8.77-8.56,13.72-20.28,23-28.4a41.15,41.15,0,0,1,5-3.74C59.8,106.8,51.2,103.66,44,99c-13.42-8.66-25.39-22.6-23.66-40.54.8-8.12,4-12.87,8-15.53a18.6,18.6,0,0,1,7.86-2.88c.25,0,.52-.07.77-.09,7.66-.63,15.74,5.43,13.76,13.78-2.19-.75-3.33-3.13-5.18-4.42C40,45.5,34.1,48.14,32.9,54.39,30,69.37,41.08,79.59,53.61,85c10.44,4.48,20.29,2.89,35.47-1.25A93.66,93.66,0,0,1,114.85,80c-.52-.33-1-.68-1.52-1-8.83-6.83-11.85-18.72-4.5-24.24h0l0,0a34.51,34.51,0,0,1-3.14-5.38.27.27,0,0,1,0-.11,26.45,26.45,0,0,1-2.69-11c0-24.54,17-38.16,38.27-38.16a40.4,40.4,0,0,1,23.35,6.86c9.1,6.32,14.92,17,14.92,31.3,0,8.76-5.94,16.51-5.94,16.51a.11.11,0,0,0,0,0c7.28,5.53,4.25,17.38-4.55,24.2-.48.37-1,.72-1.52,1a93.59,93.59,0,0,1,25.76,3.74c15.18,4.14,25,5.73,35.48,1.25,9.46-4,18.08-10.88,20.49-20.42a23.08,23.08,0,0,0,.21-10.14c-1.2-6.25-7.14-8.89-12.62-5-1.85,1.29-3,3.67-5.18,4.42-2-8.35,6.1-14.41,13.75-13.78q.39,0,.78.09A18.61,18.61,0,0,1,254,43c4,2.66,7.15,7.41,7.95,15.53C263.67,76.43,251.7,90.37,238.28,99c-7.16,4.63-15.77,7.77-24.77,9.92a40.39,40.39,0,0,1,5,3.74c9.27,8.12,14.22,19.84,23,28.4,6.27,6.13,17.59,13.06,25.78,6.75,6.7-5.14,6.55-15.88,1.12-21.33-4.33-4.34-8.61-.83-8.33-3,.54-4.08,9-7.17,15.54-1.55a18.42,18.42,0,0,1,4.92,7.29C285.75,142.38,279.37,163.26,262.29,165.18Z"/><circle class="cls-3" cx="141.16" cy="31.55" r="24.63"/><path class="cls-4" d="M167.43,66.51c2.34,3.33.71,11.68-6.05,12.66-4.78.7-11.95-6-11.69-9.14.15-1.83,2.87-2.61,7.47-4.08C160,65.06,165,63,167.43,66.51Z"/><path class="cls-5" d="M117.48,66.51c-2.34,3.33-.7,11.68,6.06,12.66,4.78.7,11.94-6,11.68-9.14-.15-1.83-2.86-2.61-7.46-4.08C125,65.06,120,63,117.48,66.51Z"/><path class="cls-6" d="M166.23,64.29c1.66,2.14-1.3,5.2-4.21,6.36-4.43,1.77-10.17,1.43-11.91.09s2.92-5,7.35-6.81C160.15,62.85,164.48,62,166.23,64.29Z"/><path class="cls-6" d="M118.81,64.29c-1.66,2.14,1.3,5.2,4.21,6.36,4.43,1.77,10.17,1.43,11.91.09s-2.93-5-7.35-6.81C124.89,62.85,120.56,62,118.81,64.29Z"/><path class="cls-7" d="M262.29,165.18c-16,1.78-30.07-7.43-38.63-18.87-10.53-14.1-22.56-18.72-33.66-21.92h0s6.32-7.61,20.68.56c23.94,13.62,25.91,31.53,43.92,33.22s26-7.16,25.06-23.93a23.52,23.52,0,0,0-4-12.29,18.42,18.42,0,0,1,4.92,7.29C285.75,142.38,279.37,163.26,262.29,165.18Z"/><path class="cls-8" d="M238.28,99c-7.16,4.63-15.77,7.77-24.77,9.92-3.43-2.74-14.14-3.72-14.14-3.72s2.49-3.78,8.17-2.82c7.46,1.27,9.61,0,15.49-2.25,11.84-4.6,32.31-19.15,34.56-35.47C259,54.29,256.84,47.76,254,43c4,2.66,7.15,7.41,7.95,15.53C263.67,76.43,251.7,90.37,238.28,99Z"/><path class="cls-9" d="M231.84,213.7c-3.85,10.43-19.92,15-28.78,7.19-5.37-4.73-10.8-10.59-4.81-32.84,5.64-20.87-5.23-39.21-27.23-44.51,11.32-.16,19.35,1.11,28.22,9.55s8.44,30.84,3.79,45.62,4.72,22.45,13.59,21.59c7.64-.72,15.84-5.6,15.6-16.59A14.71,14.71,0,0,1,231.84,213.7Z"/><path class="cls-10" d="M167.56,229.12c-9.29,0-14.83-4.62-19.67-11,6.25,7.91,22.71,10,26.25-1.63s-4.75-24.58-12.72-32.18c-6.68-6.37-16.72-19.11-20.26-29.11,4.44,1.24,8.52,11.91,18,19.83,13.09,11,16.88,15.62,21.12,27.87S176.86,229.12,167.56,229.12Z"/><path class="cls-11" d="M20,165.18C36,167,50.09,157.75,58.65,146.31c10.54-14.1,22.56-18.72,33.67-21.92h0s-6.33-7.61-20.68.56c-24,13.62-25.91,31.53-43.93,33.22S1.76,151,2.69,134.23a23.61,23.61,0,0,1,4-12.29,18.3,18.3,0,0,0-4.91,7.29C-3.44,142.38,2.94,163.26,20,165.18Z"/><path class="cls-12" d="M44,99C51.2,103.66,59.8,106.8,68.8,109c3.44-2.74,14.14-3.72,14.14-3.72s-2.49-3.78-8.17-2.82c-7.46,1.27-9.61,0-15.49-2.25C47.44,95.56,27,81,24.73,64.69c-1.44-10.4.74-16.93,3.59-21.73-4,2.66-7.15,7.41-7.95,15.53C18.64,76.43,30.61,90.37,44,99Z"/><path class="cls-13" d="M50.48,213.7c3.85,10.43,19.92,15,28.77,7.19,5.37-4.73,10.8-10.59,4.81-32.84-5.63-20.87,5.23-39.21,27.23-44.51-11.32-.16-19.35,1.11-28.21,9.55s-8.45,30.84-3.8,45.62S74.57,221.16,65.7,220.3c-7.64-.72-15.85-5.6-15.61-16.59A14.66,14.66,0,0,0,50.48,213.7Z"/><path class="cls-14" d="M114.75,229.12c9.3,0,14.84-4.62,19.67-11-6.25,7.91-22.7,10-26.25-1.63s4.76-24.58,12.72-32.18c6.69-6.37,16.73-19.11,20.27-29.11-4.45,1.24-8.53,11.91-18,19.83-13.08,11-16.88,15.62-21.11,27.87S105.46,229.12,114.75,229.12Z"/><path class="cls-15" d="M248.65,69.47C238.51,88.05,224.73,100,198,89.32A222.67,222.67,0,0,0,167.47,80a93.59,93.59,0,0,1,25.76,3.74c15.18,4.14,25,5.73,35.48,1.25,9.46-4,18.08-10.88,20.49-20.42A7.58,7.58,0,0,1,248.65,69.47Z"/><path class="cls-16" d="M33.66,69.47C43.8,88.05,57.58,100,84.34,89.32A223,223,0,0,1,114.85,80,93.66,93.66,0,0,0,89.08,83.7c-15.18,4.14-25,5.73-35.47,1.25-9.47-4-18.08-10.88-20.49-20.42A7.5,7.5,0,0,0,33.66,69.47Z"/><path class="cls-17" d="M179.43,38.16c0,8.76-5.94,16.51-5.94,16.51-3.4,0-6.77-.82-10.58,1.28,0,0,17-9.71,12.39-31.68-1.59-7.51-7.38-13.19-10.79-17.41C173.61,13.18,179.43,23.81,179.43,38.16Z"/><path class="cls-18" d="M102.84,38.1c0,8.76,5.93,16.51,5.93,16.51,3.4,0,6.77-.83,10.58,1.27,0,0-17-9.7-12.39-31.67,1.59-7.51,7.38-13.2,10.79-17.42C108.65,13.12,102.84,23.74,102.84,38.1Z"/></g></g></g></svg>