<svg xmlns="http://www.w3.org/2000/svg" xmlns:xlink="http://www.w3.org/1999/xlink" viewBox="0 0 659.68 671.68"><defs><style>.cls-1,.cls-16,.cls-17{fill:none;}.cls-2{isolation:isolate;}.cls-3{fill:url(#Degradado_sin_nombre_2943);}.cls-4{fill:url(#Degradado_sin_nombre_2897);}.cls-5{opacity:0.5;mix-blend-mode:overlay;}.cls-6{fill:url(#Degradado_sin_nombre_2889);}.cls-7{fill:url(#Degradado_sin_nombre_2889-2);}.cls-8{fill:url(#Degradado_sin_nombre_2889-3);}.cls-9{fill:url(#Degradado_sin_nombre_2889-4);}.cls-10{fill:url(#Degradado_sin_nombre_2889-5);}.cls-11{fill:url(#Degradado_sin_nombre_2889-6);}.cls-12{fill:url(#Degradado_sin_nombre_2889-7);}.cls-13{fill:url(#Degradado_sin_nombre_2889-8);}.cls-14{fill:url(#Degradado_sin_nombre_2889-9);}.cls-15{fill:url(#Degradado_sin_nombre_2889-10);}.cls-16,.cls-17{stroke-miterlimit:10;opacity:0.6;}.cls-16{stroke-width:14.27px;stroke:url(#Degradado_sin_nombre_2961);}.cls-17{stroke-width:4.16px;stroke:url(#Degradado_sin_nombre_2961-2);}.cls-18{clip-path:url(#clip-path);}.cls-19{fill:#010101;}.cls-20{fill:#e7ddd1;}.cls-21{fill:#874f41;}.cls-22{fill:#582c21;}.cls-23{fill:#3bdd8b;}.cls-24{fill:#855a10;}.cls-25{fill:#f5d762;}.cls-26{fill:#6b490e;}.cls-27{fill:#a7696c;}.cls-28{fill:#c28487;}.cls-29{fill:#fae2ba;}.cls-30{fill:#e1c4c1;}.cls-31{fill:#d0942c;}.cls-32{fill:#f6b440;}.cls-33{fill:#0a956e;}.cls-34{fill:#02ca90;}.cls-35{fill:#1be8a3;}.cls-36{fill:#03ae7c;}.cls-37{fill:#211106;}.cls-38{fill:#fefefe;}.cls-39{fill:#6f4429;}</style><linearGradient id="Degradado_sin_nombre_2943" x1="282.01" y1="88.04" x2="465.92" y2="631.78" gradientUnits="userSpaceOnUse"><stop offset="0" stop-color="#23e4a1"/><stop offset="1" stop-color="#0fb69c"/></linearGradient><linearGradient id="Degradado_sin_nombre_2897" x1="316.58" y1="315.86" x2="-37.25" y2="497.77" gradientUnits="userSpaceOnUse"><stop offset="0.09" stop-color="#23e4a1"/><stop offset="0.97" stop-color="#2b52db"/></linearGradient><linearGradient id="Degradado_sin_nombre_2889" x1="0.01" y1="359.84" x2="73.44" y2="359.84" gradientUnits="userSpaceOnUse"><stop offset="0" stop-color="#0ac5a2"/><stop offset="0.49" stop-color="#0009af"/><stop offset="1"/></linearGradient><linearGradient id="Degradado_sin_nombre_2889-2" x1="0.55" y1="299.87" x2="74.69" y2="299.87" xlink:href="#Degradado_sin_nombre_2889"/><linearGradient id="Degradado_sin_nombre_2889-3" x1="6.57" y1="419.81" x2="83.94" y2="419.81" xlink:href="#Degradado_sin_nombre_2889"/><linearGradient id="Degradado_sin_nombre_2889-4" x1="23.32" y1="479.78" x2="105.34" y2="479.78" xlink:href="#Degradado_sin_nombre_2889"/><linearGradient id="Degradado_sin_nombre_2889-5" x1="9" y1="239.9" x2="87.23" y2="239.9" xlink:href="#Degradado_sin_nombre_2889"/><linearGradient id="Degradado_sin_nombre_2889-6" x1="28.05" y1="179.94" x2="111.11" y2="179.94" xlink:href="#Degradado_sin_nombre_2889"/><linearGradient id="Degradado_sin_nombre_2889-7" x1="68.56" y1="107.97" x2="160.06" y2="107.97" xlink:href="#Degradado_sin_nombre_2889"/><linearGradient id="Degradado_sin_nombre_2889-8" x1="126.05" y1="47.99" x2="233.4" y2="47.99" xlink:href="#Degradado_sin_nombre_2889"/><linearGradient id="Degradado_sin_nombre_2889-9" x1="60.17" y1="551.75" x2="149.89" y2="551.75" xlink:href="#Degradado_sin_nombre_2889"/><linearGradient id="Degradado_sin_nombre_2889-10" x1="111.95" y1="611.72" x2="214.37" y2="611.72" xlink:href="#Degradado_sin_nombre_2889"/><linearGradient id="Degradado_sin_nombre_2961" x1="515.64" y1="107.67" x2="238.71" y2="564.23" gradientUnits="userSpaceOnUse"><stop offset="0" stop-color="#0ac5a2"/><stop offset="0.49" stop-color="#0009af"/><stop offset="1" stop-color="#000069"/></linearGradient><linearGradient id="Degradado_sin_nombre_2961-2" x1="502.53" y1="133.22" x2="255.52" y2="540.45" xlink:href="#Degradado_sin_nombre_2961"/><clipPath id="clip-path"><path class="cls-1" d="M603.27,338.28c.42,133.09-98.68,241-221.39,240.9S159.51,470.74,159.51,337.52c0-133,99.25-240.35,221.62-240.08S602.86,205.45,603.27,338.28Z"/></clipPath></defs><g class="cls-2"><g id="Layer_2" data-name="Layer 2"><g id="Layer_5" data-name="Layer 5"><path class="cls-3" d="M365.82,671.68C203.53,671.68,72,521.32,72,335.84S203.53,0,365.82,0,659.68,150.36,659.68,335.84,528.12,671.68,365.82,671.68"/><path class="cls-4" d="M72,335.84C72,164.3,184.53,22.89,329.84,2.6a259.57,259.57,0,0,0-36-2.6C131.56,0,0,150.36,0,335.84S131.56,671.68,293.86,671.68a261.12,261.12,0,0,0,36-2.59C184.53,648.79,72,507.38,72,335.84"/><g class="cls-5"><path class="cls-6" d="M72,347.85H0c.24,8.07.7,16.07,1.43,24h72Q72.33,360,72,347.85"/><path class="cls-7" d="M74.69,287.87H2.77c-1,7.91-1.7,15.92-2.22,24h72c.51-8.06,1.21-16.07,2.18-24"/><path class="cls-8" d="M78.55,407.82h-72Q8.91,420,12,431.81h72c-2.06-7.87-3.84-15.87-5.39-24"/><path class="cls-9" d="M95.33,467.79h-72c3.05,8.18,6.43,16.15,10,24h72q-5.4-11.71-10-24"/><path class="cls-10" d="M87.23,227.9H15.33c-2.33,7.88-4.51,15.86-6.33,24H81c1.82-8.1,3.85-16.12,6.19-24"/><path class="cls-11" d="M111.11,167.94h-72c-4,7.81-7.68,15.8-11.09,24h72q5.1-12.28,11-24"/><path class="cls-12" d="M160.06,96H88q-10.23,11.44-19.45,24h72q9.22-12.54,19.48-24"/><path class="cls-13" d="M233.4,36H161.26a290,290,0,0,0-35.21,24h72.07A291.83,291.83,0,0,1,233.4,36"/><path class="cls-14" d="M132.16,539.75h-72q8.35,12.48,17.67,24h72q-9.36-11.5-17.73-24"/><path class="cls-15" d="M112,599.72a295.38,295.38,0,0,0,30.28,24h72.14a296.71,296.71,0,0,1-30.49-24Z"/></g><ellipse class="cls-16" cx="377.17" cy="335.95" rx="237.36" ry="267.59"/><ellipse class="cls-17" cx="379.03" cy="336.83" rx="215.63" ry="243.09"/><g class="cls-18"><path class="cls-19" d="M325.84,175.07c1.06,0,2.13.06,3.19.07,2.77,0,2.77,0,2.93-3l42.41.09c0,.91.09,1.84.13,2.79a2.76,2.76,0,0,0,1.72.12h6.66c.05,1.08.09,2,.14,3.09h5.54c.05,1.07.09,2,.14,3.06l2.71.13c0,1,.09,1.9.14,3h5.58v3.09H400v3.09h2.85v3.09h2.85v3.08l5.62,0v2.84c.89.46,1.79.07,2.73.31.37.84,0,1.82.24,2.9l31,.06v3H451c0-.85.07-1.78.12-2.86h5.38c.47-1,.07-2,.33-3.08h5.34c.46-1,.07-2,.33-3.08h5.34c.46-1,.06-2,.33-3.08h5.49l.13-3.08h5.54c0-1.07.08-2,.13-3.08l14.07,0v-3l14.18,0v2.94l8.52,0v3.08l5.67,0V194h5.69v3.08h2.85v3.09h2.77l0,12.24H530.6v6.15h-2.84l0,6.15H525.1c-.39,1-.05,1.94-.25,3-.78.39-1.69,0-2.6.24-.43.83,0,1.83-.27,2.83-.74.43-1.65,0-2.55.23-.43.85,0,1.84-.29,2.91h-5.47c0,1.07-.09,2-.13,3-.81.45-1.72,0-2.62.28-.4.86,0,1.84-.24,2.81-.79.44-1.7,0-2.6.27-.38.86,0,1.84-.25,2.91h-5.51v2.74c-.79,1-1.92,0-2.93.66v2.86l-5.59,0c0,1.1-.08,2-.12,2.9-1,.34-1.88-.12-2.67.31-.28,1,.16,2-.35,3h-5.45v3l-5.64,0v3.11h-2.87v3.1h-5.59c-.05,1.09-.09,2-.13,3.11h-5.47c-.32,1.06.12,2.06-.39,3.1h-5.36c0,1.1-.08,2-.13,3.11h-5.51v3H457V280h5.7v3.1h5.5c.31,1.07-.11,2.06.38,3.1h5.32c.29,1.07-.13,2.06.38,3.1h5.46v3h5.64v3.1l14.22,0v3.1h2.76c0,1.09.09,2,.13,3l2.65.14c.3,1-.11,2,.28,2.9.88.31,1.8-.15,2.74.36v4.38l0,4.52-2.83.14c0,.95-.08,1.88-.12,2.95l-2.72.12c0,1-.07,1.89-.11,2.95l-2.72.13c0,.95-.07,1.88-.12,3.09l-15.18,0-1.82-.16v-3l-8.47,0v-3h-5.71c0-1,0-2,0-3.09a7.68,7.68,0,0,0-2.81.18,9.37,9.37,0,0,0,.18,2.86h2.68v3l2.76.15c0,1.05.1,2,.14,2.94l2.71.14c.05,1.05.09,2,.14,3l2.71.13c0,1.06.09,2,.13,3h2.73v3l2.86.15v3l0,0-5.68,0,0,0c-.15-1,.17-2-.26-3.11h-2.61l0,0c-.16-1,.16-2-.27-3.11h-2.6l0,0c-.16-1,.16-2-.26-3.11H468.4l0,0c-.16-1,.16-2-.27-3.11h-2.61l0,0V320h-5.7l0,0v-3.11h-5.71l0,0c-.16-1,.16-2-.23-3h-2.62c-.91-.21-1.88.22-2.8-.33-.06-.9-.12-1.77-.19-2.76h-5.21c-.82-.85.08-2.14-.74-3.12l-13.82,0c0-1,0-2,0-3.05l33.84.06c.37,1.13,0,2.06.48,3.1h5.32c.06,1.1.11,2,.16,3.06H474c0,1.09.1,2,.15,3.06h8.27c.35,1.11-.07,2.12.38,3l16.85,0V314h0c.9-.15,1.85.22,2.76-.26v-2.85l0-6.2h-2.72c-.05-1.05-.09-2-.14-3.05l-14.1,0V298.5H479.7c-.12-1,.17-2-.21-3h-2.64l-2.81-.08v-3.09h-5.69v-3.07h-5.68v-3.11H457c0-1.06-.1-2-.15-3l-14.11,0L422.88,283c.1-1-.23-2,.32-3.14l13.57,0c.59-1,0-2.08.68-3.08h5c.6-1.08-.13-2.25.63-3.08h5.22c.08-1.14.14-2,.22-3.06h5.27c.55-1,0-2.09.65-3.1h5.07c.48-1.05-.09-2.11.51-2.93,1.75-.3,3.53.17,5.3-.27.07-.95.13-1.83.19-2.74,1.86-.42,3.71.16,5.48-.35.07-1,.13-1.84.21-2.93h5.38c.35-1.09-.06-2,.42-2.93l2.34-.18c.51-1-.08-2,.62-3h5.08c.45-1-.09-2.09.61-3.1h5.19c.06-1.05.12-1.92.17-2.74.89-.55,1.86.08,2.66-.54l.19-2.67c1.88-.33,3.72.16,5.42-.27.31-1-.09-1.94.33-2.73.84-.46,1.82.18,2.53-.46.28-.9-.14-1.85.45-2.84h5.11c.45-1-.08-2.09.45-2.9.82-.32,1.7.13,2.45-.35.38-.89-.17-1.94.4-2.73.83-.31,1.71.15,2.5-.4,0-.86.11-1.73.17-2.69l2.71-.17c.91,0,1.86.29,2.68-.19.36-.91-.11-1.87.43-2.73l2.4-.23c.41-2-.17-4,.32-5.83.87-.41,1.76.09,2.67-.55v-5.79h2.77v-6.14l0-6.15H522v-3.07h-5.67V194h-8.5V191l-14.22,0v2.95l-14.18,0V197h-5.52c-.3,1.14.1,2.12-.36,3.15h-5.39c0,1.08-.08,2-.12,3.07h-5.64v3h-5.58c0,1.17-.09,2.1-.13,3.17h-5.47c-.31,1,.13,2-.36,3h-5.43c0-1,0-2,0-3.1h-2.09l-32-.13-.05-3a10.21,10.21,0,0,0-.12-3.1h-5.45c0-1.05-.09-2-.12-2.85-.95-.44-1.88.09-2.66-.38-.34-1,.15-2-.42-2.94H400.1c-.06-1-.11-2-.16-2.84-.94-.42-1.87.1-2.65-.39-.3-.94.14-1.94-.38-2.93h-5.32c-.07-1.05-.13-2-.18-2.85-.94-.41-1.88.12-2.79-.47v-2.78l-5.55,0c-.07-1.11-.13-2-.2-3.14l-8.46,0v-2.9L332,178.32c-.06,1-.11,1.94-.18,3.05l-11.29,0v3h-8.39c-.06,1.11-.11,2-.18,3.14H306.3v3h-5.46c-.37,1.08.1,2.09-.34,2.91-.88.38-1.82-.19-2.73.47v2.77h-5.44c-.39,1.09.11,2.1-.46,3.09l-5.32,0c-.05,1.05-.09,2-.13,2.85-.95.43-1.88-.11-2.85.5v5.89h-2.68l-.16,2.86c-.94.37-1.88-.13-2.63.34-.35,1,.17,2-.44,3h-2.56V221c-1,.42-1.94-.11-2.7.39-.31,1,.19,2-.35,2.82l-2.64.13v5.92c-1,.33-1.93-.1-2.85.42v5.8l-2.63.16c-.39,1,.11,2-.35,2.87-.87.35-1.81-.19-2.71.45v2.65l-2.62.19c-.38,1,.11,2-.44,3h-2.57v5.9c-1,.46-1.93-.06-2.79.45a8.16,8.16,0,0,0,.15,2.89h5.39v2.86c-.91.41-1.85-.12-2.63.37-.32.94.17,2-.41,2.94h-2.46c-.06,1.05-.11,2-.16,2.85-.94.41-1.88-.13-2.64.36-.34,1,.18,2-.43,2.95h-2.39c-.32,1,.1,2-.3,2.87-.87.37-1.8-.16-2.6.36v2.76h5.45c.39-1-.1-2,.39-3h2.62l0,0v18.29c-1,.43-2-.11-2.86.51v18.18h-2.84v18.28c-1,.42-1.93-.11-2.67.38v18.37h2.74V365.7c1,.44,1.93-.09,2.9.53v15.16h2.78v12.07c1,.45,1.93-.08,2.9.53v24.28h2.71c.05-1,.09-1.94.13-3h2.75v12.38H264v9.13l2.92.18v9.23h2.79v12.09c1,.42,1.94-.11,2.85.51v8.88l2.86.15V477h2.79l0,12.34h-2.89v9.17c-1,.3-1.9-.14-2.69.31-.27,1,.17,2-.27,2.83-.9.21-1.8-.16-2.56.22-.27,1,.14,2-.33,3h-2.61v3H264.1v3l2.8.13v3l-.07,3.1-5.64,0,0,0v-3h-2.73V508h2.71v-3.09H264v-3.09h2.84v-3.09h2.85v-9.28h2.79V477.05h-2.76V471c0-3.06,0-3.06-2.84-3.36V458.5H264V446.2h-2.79v-9.26h-2.79v-9.19h-2.86v-6.19l-2.75-.16c-.42-.88,0-1.87-.26-2.85-.8-.44-1.71,0-2.7-.29V393.92c-1-.52-1.87-.08-2.85-.38v-12c-1-.51-1.87-.07-2.85-.38V366l-3-.16V344.43c-1-.32-1.89.13-2.85-.4V326c1.11-.33,2,.1,3-.4V307.38l2.71-.12v-9.57c0-2.52,0-5,.05-7.55,0-.58-.22-1.34.71-1.36h2v-9.06c-.94-.3-1.86.13-2.65-.27-.34-1,.32-2-.45-2.86-.78-.52-2.08.78-2.54-.86V273.5h-2.69v-3.06l2.67-.13c0-.95.08-1.88.12-2.94l2.72-.14c0-1,.08-1.88.12-2.94l2.74-.13v-3h2.8V255h-2.66v-3.09h2.73v-6.16h2.85v-3.09h2.84v-3.09h2.84v-3.08H261v-6.16h2.85v-6.16h2.85v-3.08h2.85v-6.09h2.62c.45-1,.06-1.94.31-3,.74-.39,1.65,0,2.59-.22.38-.84,0-1.82.24-2.85.75-.39,1.66,0,2.65-.23V203c.95-.45,1.85-.09,2.75-.29.46-.86,0-1.85.29-2.85.74-.45,1.66.05,2.58-.27.42-.81,0-1.8.26-2.8.74-.45,1.66,0,2.58-.27.39-.82,0-1.8.23-2.87h5.5v-3.08h5.68c.05-1.07.09-2,.14-3,.81-.45,1.72,0,2.62-.27.41-.86,0-1.85.28-2.91h5.32c.47-1,.07-2,.33-3.08H312c0-1.07.08-2,.12-3.08l8.23,0c.46-1,.07-2,.37-3.22ZM459.9,313.75h2.67v-2.83H459.9Z"/><path class="cls-19" d="M238.44,587.8l-8.5,0V585.2h-2.78v-3.07l2.68-.13c0-1,.06-42.09.1-43.18h5.56c.05-1.07.09-2,.13-3.09h5.56l.13-3.09h5.56c.05-1.07.09-2,.13-3.08h2.73v-2.92c1-.48,1.87,0,2.76-.33.37-.88,0-1.86.23-2.83.81-.41,1.72,0,2.61-.26.38-.87,0-1.86.23-2.82.81-.42,1.72,0,2.61-.26.38-.87,0-1.86.29-3h2.7l0,0v5.88c-1.1.52-2,0-2.69.56-.39.87.11,1.85-.39,2.62-.79.45-1.69-.08-2.43.43-.47.86.16,2-.46,2.7-.82.38-1.72-.16-2.4.42-.4.88.11,1.86-.4,2.63-.79.45-1.69-.09-2.51.48l-.21,2.54c-.87.56-1.87-.09-2.58.53-.38.88.12,1.86-.55,2.86H241.5c-.38,1.14-.14,42.31-.22,43.26l0,0h-5.54a5.35,5.35,0,0,0,.08,3l2.37.23A6.34,6.34,0,0,1,238.44,587.8Z"/><path class="cls-19" d="M445.75,353.85v-3l-8.51,0v-3.09h-5.7v-3.1h-5.64v-3l-8.34,0c-.45-1-.09-2-.33-3.05l-11.2,0c0,.87-.07,1.8-.11,2.76-.84.45-1.75,0-2.63.29-.39.88,0,1.87-.28,2.94h-5.52v3.1h-2.86v3.1h-2.8v2.83c-.89.52-1.8.09-2.74.33-.39.84,0,1.82-.22,2.8-.78.48-1.7,0-2.6.28-.42.85,0,1.85-.27,2.91h-5.51v6c-1,.52-1.88.08-2.86.38v9l-2.83.15,0,19.21q0,5,0,10v7.56c.83.43,1.73,0,2.72.31v6l2.85.14v6l2.84.16c0,.94.08,1.87.13,2.94l2.71.14c.05.76.09,1.5.14,2.24v3.68c.83.46,1.74,0,2.73.33v6l2.86.15v3h2.86v3.11h2.8v2.84c.9.51,1.81.09,2.71.33.44.85,0,1.84.27,2.82.79.47,1.7,0,2.6.29.4.86,0,1.85.26,2.82.79.44,1.71,0,2.67.31,0,.88.09,1.81.14,2.87l2.69.15v3h-2.67V468H409l0,6.13h2.62c.43,1,.07,2,.29,2.94.79.49,1.71,0,2.62.31.41.83,0,1.83.26,2.81.78.44,1.69,0,2.58.27.4.87,0,1.86.27,2.82.8.43,1.71,0,2.67.31,0,.89.09,1.82.14,2.88l2.75.14v3h2.86v3h2.61c.47,1,.08,2,.32,3,.76.43,1.67,0,2.61.26.36.86,0,1.82.2,2.75-.9.52-1.82.07-2.77.35v2.82c.77.44,1.69,0,2.68.3v6l2.86.16v6.08h2.8v6.2h-2.68l0,9.23h2.66l0,12.15c1,.52,1.88.1,2.93.4,0,1.81.13,65.88.14,67.79l-5.66,0c0-1.84-.13-65.84-.13-67.52-1-.69-2,0-2.95-.92l0-11.56c-.95-.5-1.85,0-2.79-.68,0-1.84,0-3.82,0-5.8,0-1,0-2,0-2.88,1.11-.36,2,.12,2.76-.34v-6.06H429v-6.13h-2.86v-6.2h-5.58v-3.1H426v-2.92c-.94-.32-1.85.13-2.65-.3-.28-1,.15-2-.27-2.82-.89-.29-1.8.18-2.59-.29-.26-1,.17-2-.27-2.82-.9-.25-1.81.17-2.57-.24-.26-1,.15-2-.34-3h-2.61v-3.05h-2.86v-3.07h-2.77c-.2-1,.2-2-.27-2.95-.85-.34-1.72.11-2.46-.33-.43-.91.15-2-.44-2.82l-2.64-.2v-6l-2.57-.2c-.47-1,.11-2.06-.49-2.91l-2.58-.2c.14-1-.22-2,.32-3h5.26a5.21,5.21,0,0,0-.12-2.88c-.85-.32-1.72.12-2.46-.34-.4-.92.17-2-.44-2.8l-2.36-.19c-.46-1,.12-2.07-.46-2.86-.84-.31-1.71.14-2.43-.33-.41-.92.17-2-.42-2.76-.84-.31-1.71.14-2.52-.39-.05-.86-.1-1.74-.15-2.57-.89-.55-1.86.07-2.7-.53q-.08-1.29-.15-2.61c-.9-.45-1.86.09-2.7-.47-.05-.87-.1-1.75-.15-2.57-.89-.55-1.86.07-2.79-.61v-5.53c-.95-.58-1.92,0-2.85-.65v-5.53c-1-.58-1.92,0-2.74-.56-.05-.87-.1-1.75-.15-2.56-.91-.54-1.87.08-2.8-.62v-5.53c-.95-.57-1.92.06-2.85-.65v-5.53c-.95-.56-1.91.06-2.7-.54l-.05-36.63,2.78-.24v-8.84c.95-.57,1.92.06,2.84-.65v-5.52c1-.56,1.92.07,2.72-.55.05-.88.11-1.75.16-2.55.91-.53,1.88.1,2.68-.53.05-.88.11-1.75.16-2.66,1.9-.36,3.74.16,5.45-.3.3-1-.09-1.91.31-2.72.84-.47,1.81.16,2.59-.47.06-.9.11-1.77.16-2.56.93-.51,1.91.12,2.67-.52.06-.9.12-1.77.17-2.56.94-.51,1.91.13,2.64-.49.27-.91-.13-1.85.34-2.74l2.41-.15c.41-1-.08-2,.5-3h5.15c.44-1-.06-2.08.47-3l2.4-.15a9.65,9.65,0,0,0,.14-3l2.91-.09h8.54v3.17h8.28c.41,1.08-.08,2.09.51,3.15h5.31c0,1.08.08,2,.13,3H437c.39,1.09-.09,2.1.48,3.09l8.24,0v3.08h8.34c.38,1.09-.11,2.1.48,3.09h5.31c.05,1.05.1,2,.15,3.05h5.59c.12,1-.19,2,.22,3h2.65l2.77.15c.05,1.06.09,2,.14,3h2.73c.16,1-.18,2,.24,3H477l2.81.11c.18.95-.21,2,.35,3h2.56l2.66.13c.32,1.06-.1,2.05.4,3.06h5.4a12.06,12.06,0,0,0,.17,2.82,32.67,32.67,0,0,0,8.34-.06v-5.69c1.11-.41,2.05.12,2.8-.4v-2.9h-2.8V357h-2.8l0,0v-6.19H494l0,0c-.15-1,.16-2-.24-3.11h-2.63l0,0c-.14-1,.16-2-.24-3.11h-2.63l0,0c-.15-1,.16-2-.24-3.1h-2.64l0,0c0-1,0-2.06,0-3.09l0,0h5.49c.43,1,0,1.94.29,2.9.8.41,1.71,0,2.6.27.38.87,0,1.85.27,2.91l2.56.13c.4.92,0,1.91.29,2.95l2.67.14,0,6.05h2.81c.05,1.08.1,2,.14,3.07l2.74.13,0,6.06h2.79v3.08h-2.71v6.17H502.6v3.09h-2.85v3h-8.53v-3h-5.69v-3.09h-5.69v-3.09h-5.62v-2.84c-.89-.49-1.8-.08-2.74-.32-.36-.84,0-1.82-.24-2.9h-5.5v-3.09H460.2c-.5-1-.09-2-.36-3.09h-5.5c0-1.08-.09-2-.14-3.22Z"/><path class="cls-19" d="M482.6,335.49h2.83v3.09l0,0-2.85,0,0,0,0-3.09Z"/><path class="cls-20" d="M406.35,547.85h-5.78a5.55,5.55,0,0,0-.19-2.62l-2.45-.14c-.37-1,.09-2-.35-2.86-.87-.4-1.82.18-2.6-.43-.05-.92-.1-1.8-.16-2.74a5.9,5.9,0,0,0-2.69.13c-.05,1-.09,1.83-.12,2.65-.92.5-1.88-.08-2.66.45-.32.92.15,1.94-.42,2.93l-13.87,0v2.62l-37.07,0v-2.68h-5.44c-.42-1.09.06-2.12-.43-3a5.89,5.89,0,0,0-2.44.07c-.43.91.1,2-.41,2.88a5.14,5.14,0,0,1-2.55-.16c0-1-.1-1.84-.15-2.67-.93-.46-1.88.1-2.71-.48,0-.88-.08-1.76-.12-2.72a6.94,6.94,0,0,0-2.86.09V545a6.35,6.35,0,0,1-2.61-.11c-.4-.94.13-2-.41-2.87l-2.39-.12c-.46-1,.06-2-.53-3.11h-5.3c-.06-1.1-.11-2-.16-3.06h-8.39l-.14-3.07h-5.41c-.43-1.1.09-2.13-.45-3l-2.41-.16c-.43-1,.09-2-.44-2.94l-2.39-.12c-.46-1,.06-2-.47-3-.82.14-1.7-.28-2.52.26-.06.92-.11,1.8-.15,2.61-.93.48-1.89-.11-2.71.49l-.12,2.68h-5.71v-9h-5.42c-.42,1,.12,2-.43,2.91a5.89,5.89,0,0,1-2.47-.11v-5.94l2.7-.15v-6a6.66,6.66,0,0,0,0-.77c-.12-1.5,0-2.76,1.89-2.39.65.12,1-.33.95-1s0-1.54,0-2.31c0-2.64,0-2.64,2.37-2.9.1,0,.19-.13.46-.31v-12h0c2.84.05,2.84.05,2.88-2.91,0-.07,0-.13,0-.19h8.45c0-1.13.09-2,.13-2.93h5.46c.39,1-.14,2,.5,3h5.15c.45,1-.08,2.05.53,3.12h5.3c.06,1.09.1,2,.16,3.05h5.63v6a7.07,7.07,0,0,0,2.64,0c.39-1-.13-2,.4-2.91a6,6,0,0,1,2.64.16v8.9h5.6l.12-2.78c.94-.38,1.88.11,2.65-.36.35-.94-.18-2,.35-2.78H335c.38,1-.11,2,.49,3.08l16.67,0,.15,2.86,19.77,0c0-1,.08-1.89.12-2.85h8.31c.38,1-.12,2,.39,2.91a6.15,6.15,0,0,0,2.64-.13v-5.9a5.89,5.89,0,0,1,2.87.19v2.87h5.43c.44,1.1-.1,2.13.43,2.95h8.19v-6l-2.63-.13v-6h5.63v2.86a7.24,7.24,0,0,0,2.75,0c0-1,.07-2,.11-2.94.86.09,1.76-.22,2.69.29,0,.55.09,1.11.1,1.68s.22,1.21.9,1.09c2-.33,2.07,1,2,2.54-.06.83,0,1.67,0,2.5,0,.66.16,1.25.87,1.14,2.14-.35,2.05,1.14,2,2.69,0,1.22,0,2.44,0,3.66,0,2.73,0,2.73,2.41,3.06.1,0,.19.14.44.35v2.92c0,2.62,0,2.62,2.38,2.9.1,0,.19.13.49.34,0,2.86,0,5.87,0,8.88l-.05,3H414.9v2.93c.9.46,1.84-.1,2.61.41v5.87h-5.4c-.36-1,.1-2-.43-3-.81.17-1.69-.26-2.51.26-.05.94-.09,1.81-.15,2.9h-5.45v6.05l2.64.17C406.28,546.2,406.31,547,406.35,547.85Z"/><path class="cls-21" d="M330.67,551.05l5.36-2.12-.73-2.57c.58-.86,1.66-.66,2.39-1.46-.22-.78-.45-1.63-.69-2.51.6-.82,1.56-.75,2.28-1.18.82.73.65,1.89,1.4,2.67l2.28-.78c.79.65.62,1.81,1.34,2.6l2.31-.74c.79.6.62,1.76,1.37,2.64l5.08-2,1.1,2.83,7.88-3.11,1.11,2.82,5-2c.89.79.73,2,1.48,2.73l2.27-.78c.79.64.62,1.81,1.29,2.54a6.5,6.5,0,0,0,2.49-.86l-1.88-5.58a7.26,7.26,0,0,1,2.65-1.15l1,2.52c1,.23,1.68-.65,2.7-.56.3.75.63,1.56,1,2.45a5.23,5.23,0,0,0,2.44-.8c.19-1.06-.64-1.84-.53-2.86a6.11,6.11,0,0,1,2.27-1c.75.65.62,1.79,1.36,2.67l5.11-2,.85,2.52"/><path class="cls-21" d="M423.39,541.73l0-8.54c-.93-.6-1.81-.16-2.62-.53-.5-.92-.13-2-.29-3H414.9v2.93c.9.46,1.84-.1,2.61.41v5.87h-5.4c-.36-1,.1-2-.43-3-.81.17-1.69-.26-2.51.26-.05.94-.09,1.81-.15,2.9h-5.45v6.05l2.64.17c0,.42,0,.82.05,1.2q-33.3,2.38-66.7,1.72a3.27,3.27,0,0,0-1.16-.31l-1.43-.11h1v-2.68h-5.44c-.42-1.09.06-2.12-.43-3a5.89,5.89,0,0,0-2.44.07c-.43.91.1,2-.41,2.88a5.14,5.14,0,0,1-2.55-.16c0-1-.1-1.84-.15-2.67-.93-.46-1.88.1-2.71-.48,0-.88-.08-1.76-.12-2.72a6.94,6.94,0,0,0-2.86.09V545a6.35,6.35,0,0,1-2.61-.11c-.4-.94.13-2-.41-2.87l-2.39-.12c-.46-1,.06-2-.53-3.11h-5.3c-.06-1.1-.11-2-.16-3.06h-8.39l-.14-3.07h-5.41c-.43-1.1.09-2.13-.45-3l-2.41-.16c-.43-1,.09-2-.44-2.94l-2.39-.12c-.46-1,.06-2-.47-3-.82.14-1.7-.28-2.52.26-.06.92-.11,1.8-.15,2.61-.93.48-1.89-.11-2.71.49,0,.88-.08,1.76-.12,2.68h-5.71v-9h-5.42c-.42,1,.12,2-.43,2.91a5.89,5.89,0,0,1-2.47-.11v-5.94l2.7-.15v-6h-2.72c-.06,1-.11,1.85-.17,2.82a6,6,0,0,1-2.74.17c0,1,0,2.07-.07,3.1a9.39,9.39,0,0,1-.12,2.85c-.75.57-1.66,0-2.51.52-.45,1.79.05,3.74-.27,5.59-.77.66-1.68.1-2.48.52-.57.73,0,1.73-.46,2.65-.65.63-1.66,0-2.53.53-.08.83-.16,1.69-.23,2.52-.82.57-1.73,0-2.49.48-.52.8,0,1.79-.42,2.64-.71.57-1.62,0-2.48.48-.49,1.79.08,43.94-.27,45.82-.72.67-1.64.11-2.45.5-.64.75,0,1.86-.56,2.8l-2.31.25a6.31,6.31,0,0,0-.27,2.52,4.78,4.78,0,0,0,.53.06h7.43a3.83,3.83,0,0,0,.18,3.67c-1.51,1.68-.81,5.44,2.07,5.65,3.77.28,7.53.52,11.29.75q8,.51,15.92.94a3.32,3.32,0,0,0,1.69,4c-.56,1.82.35-12.16,2.68-12,4.43.35,8.87.6,13.31.78,1.69.51,3.38,1,5.07,1.49-1.17,1.61-1,4.48,1.38,5.22L351,611.77c3.09,1,4.67-3.25,2.92-5.31h0a.57.57,0,0,0,0-.13l1,.08c-.75,1.93.11,4.63,2.6,4.53l34.55-1.37q8.76.13,17.51.62a2.47,2.47,0,0,0,2.48-1.42l2.46-.1a3,3,0,0,0,2.75,2.07h5.33a3.14,3.14,0,0,0,2.95-3.21,3.32,3.32,0,0,0-.64-1.94,3,3,0,0,0,1.22-2.57l-.1-55.18h.2v-5.26C425.37,541.71,424.35,542.44,423.39,541.73Z"/><path class="cls-22" d="M266.83,517.14a9.39,9.39,0,0,1-.12,2.85c-.75.57-1.66,0-2.51.52-.45,1.79.05,3.74-.27,5.59-.77.66-1.68.1-2.48.52-.57.73,0,1.73-.46,2.65-.65.63-1.66,0-2.53.53-.08.83-.16,1.69-.23,2.52-.82.57-1.73,0-2.49.48-.52.8,0,1.79-.42,2.64-.71.57-1.62,0-2.48.48-.49,1.79.08,43.94-.27,45.82-.72.67-1.64.11-2.45.5-.64.75,0,1.86-.56,2.8l-2.31.25a6.31,6.31,0,0,0-.27,2.52h-8.54a6.34,6.34,0,0,0-.23-2.53l-2.37-.23a5.35,5.35,0,0,1-.08-3h5.54c.1,1-.25,2,.28,3a3.65,3.65,0,0,0,2.44-.17,4.88,4.88,0,0,0-.15-2.81h-2.59c.08-1-.16-42.12.22-43.26h5.07c.67-1,.17-2,.55-2.86.71-.62,1.71,0,2.58-.53l.21-2.54c.82-.57,1.72,0,2.51-.48.51-.77,0-1.75.4-2.63.68-.58,1.58,0,2.4-.42.62-.75,0-1.84.46-2.7.74-.51,1.64,0,2.43-.43.5-.77,0-1.75.39-2.62.69-.58,1.59,0,2.69-.56v-5.88Z"/><path class="cls-22" d="M434.76,547.36c0-1.68,0-3.34,0-4.87-1-.69-2,0-2.95-.92l0-11.56c-.95-.5-1.85,0-2.79-.68v-5.8h-2.79v6a6.93,6.93,0,0,1-2.61.17c-.56-.87,0-1.89-.41-2.92a8.17,8.17,0,0,0-2.67-.09c0,1,0,2-.05,3,.16,1-.21,2,.29,3,.81.37,1.69-.07,2.62.53l0,8.54c1,.71,2,0,2.83.85v4.09a3.67,3.67,0,0,0-.13,1l.11,59a2.93,2.93,0,0,0,2.45,3.07v1.52a2.93,2.93,0,0,0,1.73,2.85,3,3,0,0,0,4.63-2.6l-.12-63.1A3.59,3.59,0,0,0,434.76,547.36Z"/><path class="cls-21" d="M375.06,547.81v-2.62l13.87,0c.57-1,.1-2,.42-2.93.78-.53,1.74.05,2.66-.45,0-.82.07-1.7.12-2.65a5.9,5.9,0,0,1,2.69-.13c.06.94.11,1.82.16,2.74.78.61,1.73,0,2.6.43.44.82,0,1.85.35,2.86l2.45.14a5.55,5.55,0,0,1,.19,2.62Z"/><path class="cls-23" d="M252.49,270.4h-2.62c-.49,1,0,2-.39,3H244v-2.76c.8-.52,1.73,0,2.6-.36.4-.85,0-1.86.3-2.87h2.39c.61-1,.09-2,.43-2.95.76-.49,1.7,0,2.64-.36.05-.88.1-1.8.16-2.85H255c.58-1,.09-2,.41-2.94.78-.49,1.72,0,2.63-.37V255h-5.39a8.16,8.16,0,0,1-.15-2.89c.86-.51,1.79,0,2.79-.45v-5.9h2.57c.55-1,.06-2,.44-3l2.62-.19v-2.65c.9-.64,1.84-.1,2.71-.45.46-.83,0-1.85.35-2.87l2.63-.16v-5.8c.92-.52,1.84-.09,2.85-.42v-5.92l2.64-.13c.54-.85,0-1.86.35-2.82.76-.5,1.7,0,2.7-.39v-5.89h2.56c.61-1,.09-2,.44-3,.75-.47,1.69,0,2.63-.34l.16-2.86h2.68v-5.89c1-.61,1.9-.07,2.85-.5,0-.87.08-1.8.13-2.85l5.32,0c.57-1,.07-2,.46-3.09h5.44v-2.77c.91-.66,1.85-.09,2.73-.47.44-.82,0-1.83.34-2.91h5.46v-3h5.63c.07-1.1.12-2,.18-3.14h8.39v-3l11.29,0c.07-1.11.12-2,.18-3.05l42.44.09v2.9l8.46,0c.07,1.11.13,2,.2,3.14l5.55,0v2.78c.91.59,1.85.06,2.79.47,0,.87.11,1.8.18,2.85h5.32c.52,1,.08,2,.38,2.93.78.49,1.71,0,2.65.39.05.87.1,1.8.16,2.84h2.47c.57,1,.08,2,.42,2.94.78.47,1.71-.06,2.66.38,0,.87.07,1.8.12,2.85h5.45a10.21,10.21,0,0,1,.12,3.1L400,206v3.1l0,0H385.89c-2.86-.09-2.86-.09-2.87,3h-5.68c-2.6,0-2.59,0-2.95-2.67,0-.11-.14-.19-.33-.41h-2.54c-2.49,0-2.49,0-2.79-2.63,0-.11-.14-.2-.32-.46-2.3.75-2.72-.84-2.47-3.07l-13.67,0c-3,0-3,0-3.59-3L318,199.84c-.62.94.06,2-.82,3.06h-7.75c-.47,1.05.05,2-.7,3l-7.77,0c-.53,1,0,2-.67,3h-5c-3.14,0-3.13,0-3.15,3.3a6,6,0,0,1-.23,2.71l-2.31.26c-.6.93.08,2-.81,3h-7.75c-.46,1.05.05,2-.5,2.78-.79.43-1.71-.13-2.39.45-.43.85.1,1.84-.49,2.69l-2.56.29v8.89l-2.53.29c-.6.93.08,2-.57,2.78-.81.4-1.72-.17-2.45.52-.33,1.86.19,3.8-.28,5.57-.88.47-1.79-.09-2.51.52-.34.84.08,1.8-.4,2.66l-2.62.29v5.82l-2.81.32v8.66c-1,.75-2,0-2.92,1v20.72c-1,.53-1.88,0-2.81.76v14.63c-1,.51-1.87,0-2.81.66v14.87l-2.55.29a4.06,4.06,0,0,0-.26,2.17q0,11.25,0,22.52c0,2.67,0,2.67,2.45,3,.09,0,.17.15.4.35v2q0,11.26,0,22.53c0,2.58,0,2.58,2.4,2.88.1,0,.19.13.45.33v11.4c0,3.19,0,3.19,2.85,3.92v8.57c0,3.1,0,3.1,2.87,3.74v18.19l0,.05h-2.75c0,1-.08,2-.13,3h-2.71V394c-1-.61-1.91-.08-2.9-.53V381.39h-2.78V366.23c-1-.62-1.91-.09-2.9-.53V344.39h-2.74V326c.74-.49,1.67,0,2.67-.38V307.35h2.84V289.17c.9-.62,1.84-.08,2.86-.51,0-6,0-12.16,0-18.29h2.8a10.14,10.14,0,0,0-.08-3,5.32,5.32,0,0,0-2.69.16Zm133.13-76.55c.54,3.25.54,3.25,3.15,2.71l-.23-2.85c-2.27.52-3.07-.7-2.74-3h-2.75C382.93,193.52,382.93,193.52,385.62,193.85Zm8.85,2.84c-.27,3.23,0,3.53,2.81,3-.06-.87-.13-1.74-.21-2.71Z"/><path class="cls-24" d="M516.39,227.74l-2.71.17c-.06,1-.12,1.83-.17,2.69-.79.55-1.67.09-2.5.4-.57.79,0,1.84-.4,2.73-.75.48-1.63,0-2.45.35-.53.81,0,1.86-.45,2.9H502.6c-.59,1-.17,1.94-.45,2.84-.71.64-1.69,0-2.53.46-.42.79,0,1.74-.33,2.73-1.7.43-3.54-.06-5.42.27l-.19,2.67c-.8.62-1.77,0-2.66.54,0,.82-.11,1.69-.17,2.74h-5.19c-.7,1-.16,2.06-.61,3.1H480c-.7,1-.11,2.06-.62,3l-2.34.18c-.48.89-.07,1.84-.42,2.93h-5.38c-.08,1.09-.14,2-.21,2.93-1.77.51-3.62-.07-5.48.35-.06.91-.12,1.79-.19,2.74-1.77.44-3.55,0-5.3.27-.6.82,0,1.88-.51,2.93h-5.07c-.69,1-.1,2.07-.65,3.1h-5.27c-.08,1-.14,1.92-.22,3.06h-5.22c-.66-.84,0-2-.63-2.87-2.57-.36-2.57-.36-2.58-3.33a12,12,0,0,1,0-1.34c.12-1.23-.3-1.83-1.48-1.66S437,264.11,437,263c.06-1.53,0-3.07,0-4.6.94,0,1.87,0,2.8,0,3.11-.05,2.92.63,2.87-3.08.94,0,1.87,0,2.8,0,3.11-.06,2.92.62,2.87-3.09.94,0,1.87,0,2.8,0,3.11-.06,2.92.62,2.87-3.09,3.23,0,2.86.42,2.83-3.07,3.23,0,2.86.42,2.84-3.07,3.39.05,2.8.27,2.84-3.12,0-1,0-2,0-3,3.37,0,2.79.33,2.84-3.13,0-1,0-2,0-3,3.34,0,2.82.33,2.84-3.06,3.24,0,2.82.44,2.83-3.07,3.24,0,2.82.44,2.83-3.07,3.23,0,2.82.45,2.83-3.07.93,0,1.86,0,2.79,0,3.21-.05,2.88.55,2.88-3.08.93,0,1.86,0,2.79,0,3.2-.05,2.88.54,2.87-3.08.93,0,1.86,0,2.79,0,3.21-.05,2.88.55,2.88-3.07,1.92,0,3.85,0,5.78,0,3,0,2.73.51,2.72-3.07l14.19,0c0,3.56-.37,3,2.9,3.09H522c0,1.59,0,3.18,0,4.77,0,.63,0,1.48-.81,1.33-2.34-.41-2.06,1.26-2,2.8,0,.77,0,1.53,0,2.29,0,.55-.12,1.16-.72,1.06-2.58-.44-2.1,1.5-2.1,3.08C516.39,225.71,516.39,226.73,516.39,227.74Z"/><path class="cls-25" d="M445.45,212.31h5.43c.49-1,.05-2,.36-3h5.47c0-1.07.08-2,.13-3.17h5.58c0,1,.29,2-.3,3.08-1.47-.14-2.91-.2-2.54,2.24.14.93-.7.89-1.27.82-1.14-.12-1.68.33-1.51,1.62s-.42,1.58-1.45,1.48a1.32,1.32,0,0,0-1.22.28,9.59,9.59,0,0,0-.15,2.79c-3.34,0-2.8-.35-2.83,3.07-3.42,0-2.78-.29-2.84,3.08a8.4,8.4,0,0,1-.29,3.06c-1.26,0-2.6.05-3.94,0-1.05,0-1.59.31-1.43,1.51s-.43,1.72-1.54,1.59c-.53-.06-1.07.07-1.59,0-1.94-.36-2.86.41-2.64,2.6,0,.09-.12.2-.31.49-1.28,0-2.69,0-4.09,0-.66,0-1.28.13-1.15,1,.3,2-.76,2.2-2.17,2.07-.77-.07-1.54,0-2.3,0-.93-.07-1.34.38-1.22,1.35.21,1.54-.53,1.76-1.75,1.75-6.14-.06-12.28-.14-18.41,0-1.94,0-2.86-.46-2.64-2.66,0-.09-.13-.2-.3-.47-2.22.66-2.81-.73-2.45-3.16-2.46.63-3.31-.47-2.87-2.71-1-.51-1.93-.21-2.79-.34,0-2,0-3.92,0-5.79-1.08-.54-2-.23-2.84-.37l-.05-9.16,5.62,0c3.27,0,2.88.54,2.89-3.1l0,0,17.08.09v3c-.9.08-1.84-.24-2.85.31v2.76c-.91.09-1.87-.27-2.73.27l0,8.75a7.61,7.61,0,0,0,2.74.16h8.37c.26-1.13-.13-2.12.35-3.09h2.61v-2.93l2.78-.16v-3c.11-3.8.15-3-2.82-3.09h0c0-1,0-2,0-3l14.23,0v2.92h5.67v-2.93Z"/><path class="cls-24" d="M443.16,310.81h5.21c.07,1,.13,1.86.19,2.76.92.55,1.89.12,2.8.33.06,1-.25,2,.3,3h2.55l0,0c.09,1-.22,2,.32,3.11h5.39l0,0c.09,1-.23,2,.31,3.11h5.4l0,0c.09,1-.21,2,.31,3.11h2.57l0,0c.09,1-.22,2,.3,3.11h2.57l0,0c.08,1-.22,2,.29,3.11h2.58l0,0c.09,1-.22,2,.31,3.11H477l0,0c.09,1-.23,2,.3,3.11h5.4l0,0c.09,1-.21,2,.27,3.11h2.6l0,0c.1,1-.2,2,.28,3.11h2.6l0,0c.09,1-.2,2,.28,3.11h2.59l0,0c.09,1-.2,2,.27,3.11H494l0,0,0,6.19h2.86l0,0v6.07l-11.14,0c-.5-1,.1-2-.48-2.83-.83-.33-1.71.15-2.51-.42l-.19-2.64c-1.87-.42-3.71.15-5.42-.35-.36-1,.08-1.91-.35-2.7-.84-.49-1.82.17-2.53-.48-.31-.9.13-1.86-.39-2.72l-2.37-.19c-.47-1,.1-2-.61-3.05h-5.19c-.07-1.06-.13-1.93-.2-2.85-1.87-.43-3.71.14-5.42-.36-.35-.95.08-1.9-.47-2.9h-5.14a10.07,10.07,0,0,1-.25-3c0-3.78.22-3.07-2.9-3.14-.94,0-1.88,0-2.82,0l0,0c0-3.52.38-3.16-2.87-3.11l0,0c.1-3.82.11-3.06-2.71-3.13-1,0-2,0-3,0v0c0-3.52.05-7,0-10.55,0-1.21.13-2,1.5-1.83,1.14.18,1.35-.49,1.37-1.58C442.87,313.83,442.48,312.26,443.16,310.81Z"/><path class="cls-26" d="M437,258.4c0,1.53.07,3.07,0,4.6,0,1.11.26,1.73,1.39,1.57s1.6.43,1.48,1.66a12,12,0,0,0,0,1.34c0,3,0,3,2.58,3.33.58.84,0,2,.63,2.87-.76.83,0,2-.63,3.08h-5c-.7,1-.09,2.07-.68,3.08l-13.57,0c-.55,1.11-.22,2.15-.32,3.14l0,0-11.37,0c0,1.2,0,2.14,0,3.09h-5.68v3.08h-5.68v3.08h-5.68c0,1.2,0,2.14,0,3.07l-2.83,0-5.75,0h-2.81c0-1.17,0-2.11,0-3.06,0-2.55.06-5.1,0-7.65,0-1.22.31-1.69,1.49-1.66,2.7.08,5.41,0,8.11.07,1.39.06,2-.4,1.77-1.92a7.36,7.36,0,0,1,0-1.15c.89-.22,1.88.25,2.68-.3.32-.92-.14-1.88.49-2.86h7.87c.56-1-.06-2.11.7-3.11h5.15c.08-1.06.14-1.93.21-2.84,1.86-.44,3.7.15,5.4-.34.37-.95-.09-1.91.42-2.8l2.33-.18c.54-.95-.08-2,.63-3h5c.52-1-.08-2.11.68-3.11h5.14c.08-1.06.14-1.93.22-3H437Z"/><path class="cls-27" d="M499.61,314v2.95l-16.85,0c-.45-.84,0-1.85-.38-3h-8.27c-.05-1.09-.1-2-.15-3.06h-5.53c-.05-1.08-.1-2-.16-3.06H463c-.52-1-.11-2-.48-3.1l-33.84-.06-16.94,0c-.12-1.22-.2-2.08-.28-3-1.86-.36-3.65.13-5.3-.32-.49-.91,0-1.9-.53-2.78l-2.33-.26a8.5,8.5,0,0,1-.22-2.94c.88-.17,1.83.22,2.82-.35v-2.75h5.68v-3.08h0l5.7.07a7.49,7.49,0,0,0,.3,3l7.84,0c.68,1.05,0,2.16.9,3.17l10.58,0c.47,1.05,0,2,.71,3l10.61,0c.53,1,0,2,.7,3.05l16.48,0c.11,1.08.2,1.95.29,2.88,1.84.48,3.7-.2,5.35.39.42,1-.1,2,.53,2.76,1.72.34,3.5-.18,5.13.29.45,1-.07,2,.67,3l10.61,0c.55,1,0,2,.69,3.05Z"/><path class="cls-28" d="M499.61,314l-11,0c-.66-1-.14-2-.69-3.05l-10.61,0c-.74-1-.22-2-.67-3-1.63-.47-3.41.05-5.13-.29-.63-.8-.11-1.79-.53-2.76-1.65-.59-3.51.09-5.35-.39-.09-.93-.18-1.8-.29-2.88l-16.48,0c-.68-1-.17-2-.7-3.05l-10.61,0c-.75-1-.24-2-.71-3l-10.58,0c-.89-1-.22-2.12-.9-3.17l-7.84,0a7.49,7.49,0,0,1-.3-3h28.39a10.16,10.16,0,0,0,.23,3.07l11.13,0a11.22,11.22,0,0,0,.21,3.07h5.47a11.3,11.3,0,0,0,.23,3.12h5.45l0,0c.17,1-.2,2,.33,3.06l8.23,0c0,1,0,2,0,3.06h5.6c3.49.11,2.84.21,2.88-3l0,0,14.1,0c.05,1.08.09,2,.14,3.05h2.72l0,6.2c-.86.11-1.77-.21-2.61.24a9.59,9.59,0,0,0-.15,2.87Z"/><path class="cls-26" d="M443.16,310.81c-.68,1.45-.29,3-.32,4.53,0,1.09-.23,1.76-1.37,1.58-1.37-.21-1.52.62-1.5,1.83,0,3.51,0,7,0,10.55-.9-.2-1.87.25-2.7-.3-.29-.92.11-1.85-.33-2.72-1.78-.35-3.62.17-5.4-.31,0-1-.11-1.85-.16-2.78-1.89-.31-3.72.14-5.52-.3-.06-1-.11-1.85-.17-2.94h-8.19c-.49-1.09.08-2.14-.56-3H408.7v-3.06l11.43,0h5.66v-3.08l0,0c.9-.11,1.85.22,2.86-.31v-2.76l13.82,0C443.24,308.67,442.34,310,443.16,310.81Z"/><path class="cls-21" d="M420.12,313.79l-11.43,0h0c-.07-1,.23-2-.31-3.1H403l0,0c-.07-1,.24-2-.3-3.1h-5.4l0,0c-.07-1,.22-2-.29-3.11H394.5v0c-.06-1,.23-2-.29-3.11h-2.55v0l0-3.15h8.47v-3.05h0l2.87.05a8.5,8.5,0,0,0,.22,2.94l2.33.26c.55.88,0,1.87.53,2.78,1.65.45,3.44,0,5.3.32.08.9.16,1.76.28,3l16.94,0c0,1,0,2,0,3.05v0c-.9.13-1.84-.22-2.86.3v2.79l0,0h-5.67Z"/><path class="cls-23" d="M275.43,473.93v-6.08l-2.86-.15v-8.88c-.91-.62-1.84-.09-2.85-.51V446.22H266.9V437l-2.92-.18v-9.13h-2.89V415.3l0-.05c.87.12,1.77-.16,2.83.34v6c0,2.69,0,2.69,2.44,3,.09,0,.18.15.41.35v6c0,2.62,0,2.62,2.39,2.89.1,0,.19.13.46.32v5.23c0,3.26,0,3.26,2.85,3.92v2.78c0,2.85,0,2.85,2.45,3.21.1,0,.18.16.4.35v5.84c0,2.77,0,2.77,2.4,3.06.1,0,.19.14.42.31V474Z"/><path class="cls-29" d="M454,218.46a9.59,9.59,0,0,1,.15-2.79,1.32,1.32,0,0,1,1.22-.28c1,.1,1.61-.25,1.45-1.48s.37-1.74,1.51-1.62c.57.07,1.41.11,1.27-.82-.37-2.44,1.07-2.38,2.54-2.24.59-1,.26-2.09.3-3.08s0-1.9,0-3h5.64c0-1.06.08-2,.12-3.07h5.39c.46-1,.06-2,.36-3.15h5.52l0,0c0,1.67.38,3.59-2.21,3.11-.49-.09-.62.46-.63.93,0,.7,0,1.39,0,2.08h0c-1.4,0-2.81,0-4.21,0-1,0-1.6.23-1.45,1.46s-.29,1.8-1.46,1.62-1.48.41-1.37,1.54a12.85,12.85,0,0,1,0,1.52h0c-2.8,0-2.8,0-2.84,3.07h0c-.9.15-1.88-.29-2.87.44v2.6c-.88.2-1.85-.25-2.65.31-.33.89.12,1.83-.42,2.72l-2.53.13-2.87-.07Z"/><path class="cls-29" d="M439.79,212.31l-14.23,0-8.47,0L400,212.18c0-1,0-2.05.05-3.07l0,0,11.35-.06,32,.13h2.09c0,1.1,0,2.1,0,3.1v-.05Z"/><path class="cls-30" d="M272.53,511.06h-2.72c-.06,1-.11,1.85-.17,2.82a6,6,0,0,1-2.74.17v-3l-2.8-.13v-3h2.76v-3h2.61c.47-1,.06-2,.33-3,.76-.38,1.66,0,2.56-.22.44-.87,0-1.86.27-2.83.79-.45,1.7,0,2.69-.31v-9.17h2.9v12c-.27.18-.36.3-.46.31-2.37.26-2.37.26-2.37,2.9,0,.77,0,1.54,0,2.31s-.3,1.16-.95,1c-1.92-.37-2,.89-1.89,2.39A6.66,6.66,0,0,1,272.53,511.06Z"/><path class="cls-26" d="M516.39,227.74c0-1,0-2,0-3.05,0-1.58-.48-3.52,2.1-3.08.6.1.72-.51.72-1.06,0-.76,0-1.52,0-2.29,0-1.54-.32-3.21,2-2.8.85.15.81-.7.81-1.33,0-1.59,0-3.18,0-4.77h2.84v8.84c-.91.64-1.8.14-2.67.55-.49,1.83.09,3.83-.32,5.83l-2.4.23c-.54.86-.07,1.82-.43,2.73C518.25,228,517.3,227.72,516.39,227.74Z"/><path class="cls-28" d="M442.76,283.11l14.11,0c.05,1,.1,1.91.15,3h5.63v3.11l0,0-5.74,0-2.76-.09c-.11-3.33.54-3-2.81-3-1.93,0-3.86,0-5.78,0l-2.77-.09C442.77,285.1,442.77,284.11,442.76,283.11Z"/><path class="cls-27" d="M442.76,283.11c0,1,0,2,0,3H422.86l0-3.08,0,0Z"/><path class="cls-29" d="M493.61,193.91V191l14.22,0v2.95l0,0-14.16,0Z"/><path class="cls-29" d="M479.44,197v-3.08l14.18,0,0,0c0,1,0,2-.05,3l-2.76.09L479.47,197Z"/><path class="cls-24" d="M411.39,209.07l-11.35.06V206l11.31,0C411.36,207.06,411.38,208.06,411.39,209.07Z"/><path class="cls-30" d="M281.09,486.27c0,.06,0,.12,0,.19,0,3,0,3-2.88,2.91l0-12.34h2.86Z"/><path class="cls-27" d="M474,295.41l2.81.08c0,1,0,2,0,3l-8.52,0,0,0c0-1,0-2.05,0-3.08Z"/><path class="cls-29" d="M507.83,193.94h8.5V197l0,0-8.48-.05c0-1,0-2,0-3Z"/><path class="cls-29" d="M522,200.12h5.6l0,6.15h-2.78c-.1-1,.2-2-.3-3.1H522l0-3Z"/><path class="cls-29" d="M516.34,197H522v3.07l0,0-5.66,0h0c0-1,0-2,0-3.06Z"/><path class="cls-28" d="M462.65,289.23h5.68v3.07l0,0h-5.69c0-1,0-2.07,0-3.1Z"/><path class="cls-28" d="M474,295.41l-5.74,0h0v-3.1l0,0H474Z"/><path class="cls-28" d="M479.7,298.49h5.68v3.08l0,0-2.89,0-2.76-.08,0-3Z"/><path class="cls-31" d="M459.89,320H454.5c-.54-1.1-.23-2.13-.32-3.11h5.71Z"/><path class="cls-31" d="M465.58,323.12h-5.4c-.54-1.1-.22-2.13-.31-3.11h5.7Z"/><path class="cls-31" d="M482.64,338.55h-5.4c-.53-1.09-.21-2.12-.3-3.11l5.68,0Z"/><path class="cls-28" d="M476.83,298.53c0-1,0-2,0-3h2.64c.38,1,.09,2,.21,3l0,0Z"/><path class="cls-27" d="M499.61,314a9.59,9.59,0,0,1,.15-2.87c.84-.45,1.75-.13,2.61-.24v2.85C501.46,314.19,500.51,313.82,499.61,314Z"/><path class="cls-31" d="M454.21,316.94h-2.55c-.55-1-.24-2.05-.3-3H454C454.37,314.93,454.05,316,454.21,316.94Z"/><path class="cls-32" d="M524.86,206.29h2.78v3.08h-2.77C524.87,208.34,524.87,207.31,524.86,206.29Z"/><path class="cls-31" d="M468.43,326.2h-2.57c-.52-1.1-.22-2.13-.31-3.11h2.61C468.59,324.19,468.27,325.22,468.43,326.2Z"/><path class="cls-31" d="M471.27,329.29H468.7c-.52-1.1-.21-2.12-.3-3.11H471C471.43,327.28,471.11,328.3,471.27,329.29Z"/><path class="cls-31" d="M474.12,332.37h-2.58c-.51-1.1-.21-2.13-.29-3.11h2.6C474.28,330.36,474,331.39,474.12,332.37Z"/><path class="cls-31" d="M477,335.46H474.4c-.53-1.1-.22-2.12-.31-3.11h2.61C477.13,333.45,476.81,334.48,477,335.46Z"/><path class="cls-31" d="M524.87,209.37h2.77v3.06h-2.77Z"/><path class="cls-30" d="M275.43,473.93l2.75.07,0,3h-2.78Z"/><path class="cls-33" d="M405.9,332.3a9.65,9.65,0,0,1-.14,3l-2.4.15c-.53.9,0,1.94-.47,3h-5.15c-.58,1-.09,2.05-.5,3l-2.41.15c-.47.89-.07,1.83-.34,2.74-.73.62-1.7,0-2.64.49-.05.79-.11,1.66-.17,2.56-.76.64-1.74,0-2.67.52-.05.79-.1,1.66-.16,2.56-.78.63-1.75,0-2.59.47-.4.81,0,1.75-.31,2.72-1.71.46-3.55-.06-5.45.3-.05.91-.11,1.78-.16,2.66-.8.63-1.77,0-2.68.53-.05.8-.11,1.67-.16,2.55-.8.62-1.77,0-2.72.55v5.52c-.92.71-1.89.08-2.84.65v8.84l-2.78.24.05,36.63c.79.6,1.75,0,2.7.54v5.53c.93.71,1.9.08,2.85.65v5.53c.93.7,1.89.08,2.8.62.05.81.1,1.69.15,2.56.82.6,1.79,0,2.74.56v5.53c.93.69,1.9.07,2.85.65v5.53c.93.68,1.9.06,2.79.61.05.82.1,1.7.15,2.57.84.56,1.8,0,2.7.47q.08,1.32.15,2.61c.84.6,1.81,0,2.7.53.05.83.1,1.71.15,2.57.81.53,1.68.08,2.52.39.59.79,0,1.84.42,2.76.72.47,1.59,0,2.43.33.58.79,0,1.84.46,2.86l2.36.19c.61.83,0,1.88.44,2.8.74.46,1.61,0,2.46.34a5.21,5.21,0,0,1,.12,2.88h-5.26c-.54,1.05-.18,2-.32,3l2.58.2c.6.85,0,1.9.49,2.91l2.57.2v6l2.64.2c.59.85,0,1.91.44,2.82.74.44,1.61,0,2.46.33.47.91.07,2,.26,2.95-.16,1,.17,2-.2,2.94-.87.37-1.79-.14-2.74.46v2.76c-.87-.08-1.76.22-2.81-.35v-5.66l-2.81-.33v-5.6c-1-.75-2,0-2.7-.72-.37-.87.14-1.86-.42-2.6-.79-.42-1.71.13-2.4-.46-.42-.85.1-1.84-.42-2.61-.78-.46-1.69.1-2.63-.63v-5.59l-2.53-.29c-.6-.94.07-2.06-.58-2.8-.81-.39-1.73.16-2.37-.43-.43-.9.11-1.9-.44-2.63-.81-.45-1.72.13-2.42-.47-.41-.85.1-1.84-.42-2.61-.78-.46-1.69.1-2.63-.63v-5.59l-2.56-.29c-.54-.95.09-2.05-.5-2.75-.85-.47-1.77.13-2.42-.48-.42-.9.11-1.89-.44-2.62-.8-.45-1.72.12-2.41-.48-.42-.85.1-1.84-.42-2.6-.78-.47-1.69.09-2.41-.46-.45-.84.06-1.82-.48-2.71l-2.31-.26c-.54-.94.09-2.05-.59-2.86-.81-.07-1.63-.33-2.32.16-.43.9.11,1.9-.5,2.7a3.31,3.31,0,0,1-2.34-.13c-.43-.88.09-1.87-.43-2.63-.78-.47-1.69.09-2.4-.46-.46-.83.05-1.82-.48-2.71l-2.43-.28c-.39-2,.14-4-.31-5.8-.94-.46-1.85.1-2.52-.52-.39-.87.12-1.86-.43-2.61-.79-.43-1.7.13-2.4-.46-.42-.85.1-1.84-.46-2.66a3.42,3.42,0,0,0-2.45.11l-.26,2.69a22.27,22.27,0,0,1-5.29,0c-.52-1,.08-2-.65-3-3.08,0-6.21.06-9.34,0-1.41-.05-1.76.53-1.65,1.91.09,1,0,2.05,0,3.08,0,.63-.07,1.2-.82,1.19a23.65,23.65,0,0,1-4.63-.15c-.46-1,.05-2-.58-2.87a4.81,4.81,0,0,0-2.38.18l-.26,2.71-2.57.28-.24,2.66c-.86.59-1.88-.1-2.57.58-.37.88.14,1.87-.43,2.61-.8.39-1.7-.1-2.44.45-.37,1.91.17,3.86-.33,5.76l-2.51.28c-.33,2,.13,4-.27,5.75-.84.54-1.76,0-2.7.67l0,20.8c-1,.74-2,0-2.94,1v11.64c-1,.1-1.84.34-2.81-.33V465c-1-.53-1.88,0-2.67-.63-.31-1.84.16-3.78-.27-5.58-.84-.51-1.76,0-2.7-.67v-8.69l-2.68-.31c-.43-2,.18-4-.35-5.81-.9-.45-1.81.09-2.73-.71v-8.5c-1-.51-1.88,0-2.58-.54-.42-.86.1-1.85-.46-2.67a3.45,3.45,0,0,0-2.35.06c-.47.87.05,1.86-.46,2.69a3.5,3.5,0,0,1-2.59-.11v-5.48c-1-.75-2,0-2.93-1l0-20.79c-1-.47-1.87,0-2.65-.55-.33-1.9.17-3.85-.29-5.64-.84-.5-1.76.06-2.69-.68V391c-1-.62-1.87-.06-2.82-.75v-5.42c-1-.66-2,0-2.69-.66-.37-.88.14-1.86-.42-2.61-.8-.4-1.71.11-2.64-.63V366.23c-1-.56-1.88,0-2.81-.75V350.82c-1-.56-1.87,0-2.7-.63l0-33.27c.87-.66,1.9.07,2.73-.79,0-3.35,0-6.81,0-10.27,0-.67-.19-1.56.83-1.55a22.1,22.1,0,0,1,4.62.13c.45,1-.06,2,.54,2.81,1.7.38,3.5-.17,5.15.31.46.92-.05,1.91.45,2.68.77.49,1.69-.06,2.5.52.08.82.16,1.69.24,2.51.87.59,1.88-.09,2.57.58.36.89-.15,1.88.47,2.66,1.73.39,3.53-.2,5.16.33.43,1-.08,1.94.46,2.69.79.45,1.7-.11,2.4.45.43.85-.08,1.84.58,2.86h5.15c.11,1.09.19,2,.3,3h5.35a4.66,4.66,0,0,1-.08,2.95c-1.79.39-3.58-.2-5.19.32-1,2.88.74,3,2.36,3,.49,1,0,2,.54,2.83l13.79,0,.27-2.79a3.48,3.48,0,0,1,2.62.17c0,.37.07.69.08,1,.11,4.83.11,4.83,4.59,4.84h6.5c.49-1.16,0-2.14.55-2.94,1.76-.4,3.55.19,5.2-.33.45-.92-.08-1.92.54-2.81a26.34,26.34,0,0,1,5.17.08,4.56,4.56,0,0,1-.05,2.81l-2.46.27a4.29,4.29,0,0,0,.11,2.76h5.22c.43-1-.09-2,.47-2.73.8-.42,1.72.15,2.43-.47.33-.84-.08-1.81.5-2.84l8,0,.29-3.05h8.22c.1-1.09.19-2,.29-3.05h8c.69-1,0-2.16.66-2.92.8-.39,1.71.16,2.39-.44.39-.87-.13-1.86.42-2.61.78-.44,1.7.13,2.4-.45.42-.84-.1-1.83.41-2.6.77-.48,1.69.09,2.49-.52.08-.81.16-1.68.24-2.52.95-.44,1.85-.15,2.71-.26l2.84,0h0c.14,1-.2,2,.31,3.09h2.56l0,0c.13,1-.2,2,.3,3.1H386c.14,1-.2,2,.31,3.1h2.56l0,0c.14,1-.21,2,.32,3.1h5.38l0,0c.14,1-.21,2,.32,3.09h5.37c.13,1-.22,2,.33,3.12ZM325,341.37c-.82,0-1.65.06-2.47,0-1.31-.14-2.06.24-1.83,1.86.12.9-.32,1.35-1.14,1.22-1.51-.25-1.82.6-1.7,2,.07,1,0,1.92,0,2.88,0,1.15.71,1.29,1.56,1.32s1.41-.26,1.26-1.29c-.24-1.7.64-1.92,1.88-1.81.76.06,1.54,0,2.3,0,1.13.11,1.67-.33,1.52-1.62-.12-1,.22-1.62,1.27-1.47,1.25.18,1.6-.42,1.59-1.74,0-1.56-.91-1.34-1.78-1.35Zm-21.08,3.18c-.43,2.15-.3,2.84.72,2.89,2.46.11,4.92,0,7.34,0,.33-2.36.33-2.36,2.39-3.08,1-.35.57-1.25.64-1.94s-.35-1.12-1.08-1.11c-1.42,0-2.84,0-4.26,0-2.85,0-2.85,0-3.42,2.94Zm5.42,12c-.22-1.88,0-3.31,2.21-2.91.4.07.54-.35.63-.77.35-1.6-.09-2.23-1.61-2.26-4.08-.09-4.08-.09-4.06,3.85C306.55,356.79,306.73,357,309.36,356.53Zm-14-18.29c-.38,2.92-.26,3.07,2.11,3.08.77,0,1.54,0,2.3,0,1.06.05,1.1-.68,1.08-1.51s.08-1.6-1-1.58C298.36,338.26,296.9,338.24,295.35,338.24Zm5.5,15.44c0-.32,0-.64,0-1,0-1,.32-2.17-1.37-2.2s-1.46,1.16-1.47,2.27c0,.9,0,1.79,0,2.69,0,1.17.77,1.23,1.6,1.27s1.31-.34,1.24-1.34C300.81,354.83,300.85,354.26,300.85,353.68Z"/><path class="cls-32" d="M408.69,313.82v3.06h8.23c.64.9.07,2,.56,3h8.19c.06,1.09.11,2,.17,2.94,1.8.44,3.63,0,5.52.3.05.93.11,1.8.16,2.78,1.78.48,3.62,0,5.4.31.44.87,0,1.8.33,2.72.83.55,1.8.1,2.7.3v0c.16,1-.2,2,.33,3.1h5.37l0,0c.16,1-.18,2,.32,3.1h2.55l0,0c.16,1-.2,2,.24,2.91.12.06.17.11.22.11l5.26.1a10.07,10.07,0,0,0,.25,3h5.14c.55,1,.12,2,.47,2.9,1.71.5,3.55-.07,5.42.36.07.92.13,1.79.2,2.85h5.19c.71,1,.14,2.07.61,3.05l2.37.19c.52.86.08,1.82.39,2.72.71.65,1.69,0,2.53.48.43.79,0,1.74.35,2.7,1.71.5,3.55-.07,5.42.35l.19,2.64c.8.57,1.68.09,2.51.42.58.79,0,1.85.48,2.83l11.14,0V357h2.8v6.17h2.8v2.9c-.75.52-1.69,0-2.8.4,0,.87,0,1.86,0,2.86l-8.51.07h-5.4c-.5-1-.08-2-.4-3.06l-2.66-.13c-.14-1,.2-2-.27-3h-2.64l-2.81-.11c0-3.07,0-3.07-2.89-3h-2.73c-.05-1-.09-2-.14-3l-2.77-.15c-.1-.94.18-1.91-.23-2.83a7.64,7.64,0,0,0-2.64-.18h0c-.08-1,.26-2-.23-2.89-.85-.47-1.76.12-2.44-.5-.39-.87.12-1.85-.48-2.67-1.71-.39-3.5.18-5.25-.36-.1-.94-.18-1.81-.29-2.89h-5.37l-.31-3.05h-5.15c-.69-1.05,0-2.16-.9-3.18h-7.75c-.47-1.06,0-2.05-.56-2.86-1.71-.39-3.51.18-5.15-.33-.46-.92,0-1.91-.63-2.92l-10.64,0c-.57-1-.06-2-.69-3.05h-4.94c-.69-1.05,0-2.16-.9-3.18l-10.6,0c-.44-1.06,0-2-.51-2.84-1.76-.4-3.55.17-5.2-.34-.45-.92.06-1.91-.45-2.68-.78-.47-1.69.08-2.5-.52-.08-.82-.16-1.69-.27-2.78h-5.16c-.67-1.05,0-2.16-.65-2.91-.81-.4-1.72.15-2.4-.46-.38-.87.13-1.86-.42-2.6-.79-.44-1.7.12-2.48-.53-.33-1.84.16-3.78-.28-5.57-.84-.52-1.76,0-2.7-.68,0-1.83,0-3.8,0-5.77l0-6.14,0,0,2.83.05v3.06h2.81c.21,1-.22,2,.3,2.93.85.32,1.73-.15,2.52.42.06.87.12,1.74.2,2.82h2.71v0c.13,1-.19,2,.32,3.12h2.52v0c.12,1-.19,2,.28,3.11h2.58l0,0c.13,1-.21,2,.3,3.1H403l0,0c.14,1-.2,2,.31,3.1h5.36Z"/><path class="cls-30" d="M406.14,486.47v-2.76c.95-.6,1.87-.09,2.74-.46.37-.93,0-2,.2-2.94h2.78v3.07h2.86v3.05h2.61c.49,1,.08,2,.34,3,.76.41,1.67,0,2.57.24.44.85,0,1.85.27,2.82.79.47,1.7,0,2.59.29.42.86,0,1.86.27,2.82.8.43,1.71,0,2.65.3v2.92h-5.5v3.1h5.58v6.2H429v6.13h2.72v6.06c-.74.46-1.65,0-2.76.34,0,.89,0,1.89,0,2.88h-2.79v6a6.93,6.93,0,0,1-2.61.17c-.56-.87,0-1.89-.41-2.92a8.17,8.17,0,0,0-2.67-.09l0-8.88c-.3-.21-.39-.33-.49-.34-2.37-.28-2.37-.28-2.38-2.9v-2.92c-.25-.21-.34-.33-.44-.35-2.41-.33-2.41-.33-2.41-3.06,0-1.22,0-2.44,0-3.66.06-1.55.15-3-2-2.69-.71.11-.87-.48-.87-1.14,0-.83-.05-1.67,0-2.5.11-1.57,0-2.87-2-2.54-.68.12-.9-.41-.9-1.09S409,493.5,409,493c-.93-.51-1.83-.2-2.69-.29C406.23,490.59,406.18,488.53,406.14,486.47Z"/><path class="cls-31" d="M380.29,298.3v5.77c.94.72,1.86.16,2.7.68.44,1.79-.05,3.73.28,5.57.78.65,1.69.09,2.48.53.55.74,0,1.73.42,2.6.68.61,1.59.06,2.4.46.64.75,0,1.86.65,2.91h5.16c.11,1.09.19,2,.27,2.78.81.6,1.72.05,2.5.52.51.77,0,1.76.45,2.68,1.65.51,3.44-.06,5.2.34.51.81.07,1.78.51,2.84l10.6,0c.88,1,.21,2.13.9,3.18h4.94c.63,1,.12,2,.69,3.05l10.64,0c.68,1,.17,2,.63,2.92,1.64.51,3.44-.06,5.15.33.6.81.09,1.8.56,2.86h7.75c.88,1,.21,2.13.9,3.18h5.15l.31,3.05h5.37c.11,1.08.19,1.95.29,2.89,1.75.54,3.54,0,5.25.36.6.82.09,1.8.48,2.67.68.62,1.59,0,2.44.5.49.85.15,1.9.23,2.89H460c-.05-1.07-.1-2-.15-3.05h-5.31c-.59-1-.1-2-.48-3.09h-8.34V344.7l-8.24,0c-.57-1-.09-2-.48-3.09h-5.43c-.05-1.06-.09-1.94-.13-3h-5.31c-.59-1.06-.1-2.07-.51-3.15h-8.28v-3.17h-8.54a11,11,0,0,0-.27-3h-8.28c-.12-1,.22-2-.34-3.09h-5.38l0,0c-.1-1,.23-2-.32-3.1h-5.38l0,0c-.1-1,.21-2-.31-3.1H386c-.09-1,.22-2-.3-3.09h-2.56l0,0c-.1-1,.21-2-.31-3.1h-2.54c0-2,0-4,0-6.18h-2.86l0,0q0-4.65,0-9.29l0,0Z"/><path class="cls-26" d="M400.23,329.17h8.31a11,11,0,0,1,.27,3l-2.91.09h-5.34C400,331.17,400.36,330.14,400.23,329.17Z"/><path class="cls-24" d="M491.18,369.44l8.51-.07v2.83a32.67,32.67,0,0,1-8.34.06A12.06,12.06,0,0,1,491.18,369.44Z"/><path class="cls-32" d="M496.88,357.06H494l0-6.19h2.87Z"/><path class="cls-32" d="M485.49,341.64h-2.6c-.48-1.09-.18-2.12-.27-3.11l2.85,0C485.48,339.58,485.48,340.61,485.49,341.64Z"/><path class="cls-32" d="M488.34,344.72h-2.6c-.48-1.09-.18-2.12-.28-3.11h2.64C488.5,342.7,488.19,343.74,488.34,344.72Z"/><path class="cls-32" d="M491.18,347.81h-2.59c-.48-1.1-.19-2.13-.28-3.11h2.63C491.34,345.79,491,346.82,491.18,347.81Z"/><path class="cls-32" d="M494,350.9h-2.6c-.47-1.09-.18-2.12-.27-3.11h2.63C494.19,348.88,493.88,349.91,494,350.9Z"/><path class="cls-31" d="M465.6,354a7.64,7.64,0,0,1,2.64.18c.41.92.13,1.89.23,2.83h-2.65C465.41,356,465.72,354.94,465.6,354Z"/><path class="cls-31" d="M474.11,360.14c2.86-.07,2.86-.07,2.89,3h-2.65C473.93,362.15,474.27,361.12,474.11,360.14Z"/><path class="cls-26" d="M479.81,363.25h2.64c.47,1,.13,2,.27,3h-2.56C479.6,365.24,480,364.2,479.81,363.25Z"/><path class="cls-34" d="M406.14,486.47l.13,6.19c0,.95-.07,1.9-.11,2.94a7.24,7.24,0,0,1-2.75,0v-2.86h-5.63v6l2.63.13v6h-8.19c-.53-.82,0-1.85-.43-2.95h-5.43v-2.87a5.89,5.89,0,0,0-2.87-.19v5.9a6.15,6.15,0,0,1-2.64.13c-.51-.88,0-1.9-.39-2.91h-8.31c0,1-.08,1.84-.12,2.85l-19.77,0-.15-2.86-16.67,0c-.6-1.07-.11-2.09-.49-3.08h-8.15c-.53.81,0,1.84-.35,2.78-.77.47-1.71,0-2.65.36l-.12,2.78h-5.6v-8.9a6,6,0,0,0-2.64-.16c-.53.88,0,1.91-.4,2.91a7.07,7.07,0,0,1-2.64,0v-6h-5.63c-.06-1.08-.1-2-.16-3.05h-5.3c-.61-1.07-.08-2.1-.53-3.12h-5.15c-.64-1-.11-2-.5-3h-5.46c0,.92-.08,1.8-.13,2.93h-8.45c0-3,0-6,0-9.22h-2.87l0-3c0-5.06,0-10.12,0-15.08-.23-.17-.32-.3-.42-.31-2.39-.29-2.39-.29-2.4-3.06v-5.84c-.22-.19-.3-.33-.4-.35-2.45-.36-2.45-.36-2.45-3.21v-2.78c-2.84-.66-2.84-.66-2.85-3.92v-5.23c-.27-.19-.36-.31-.46-.32-2.38-.27-2.39-.27-2.39-2.89v-6c-.23-.2-.32-.33-.41-.35-2.44-.34-2.44-.34-2.44-3v-6c-1.06-.5-2-.22-2.83-.34,0-6.08,0-12.16,0-18.19-2.86-.64-2.86-.64-2.87-3.74v-8.57c-2.84-.73-2.84-.73-2.85-3.92v-11.4c-.26-.2-.35-.32-.45-.33-2.4-.3-2.4-.3-2.4-2.88q0-11.27,0-22.53v-2c-.23-.2-.31-.34-.4-.35-2.45-.36-2.45-.36-2.45-3q0-11.26,0-22.52a4.06,4.06,0,0,1,.26-2.17l2.55-.29V298.48c.94-.63,1.85-.15,2.81-.66V283.19c.93-.8,1.84-.23,2.81-.76V261.71c.93-.94,2-.21,2.92-1v-8.66l2.81-.32V246l2.62-.29c.48-.86.06-1.82.4-2.66.72-.61,1.63-.05,2.51-.52.47-1.77-.05-3.71.28-5.57.73-.69,1.64-.12,2.45-.52.65-.74,0-1.85.57-2.78l2.53-.29v-8.89l2.56-.29c.59-.85.06-1.84.49-2.69.68-.58,1.6,0,2.39-.45.55-.74,0-1.73.5-2.78h7.75c.89-1,.21-2.12.81-3l2.31-.26a6,6,0,0,0,.23-2.71c0-3.31,0-3.31,3.15-3.3h5c.67-1,.14-2,.67-3l7.77,0c.75-1,.23-2,.7-3h7.75c.88-1,.2-2.12.82-3.06l30.65.07c.62,3,.62,3,3.59,3l13.67,0c-.25,2.23.17,3.82,2.47,3.07.18.26.3.35.32.46.3,2.62.3,2.62,2.79,2.63h2.54c.19.22.32.3.33.41.36,2.66.35,2.66,2.95,2.67H383l0,0,0,15.38h2.79v6.15h2.84c.13,1-.17,2,.26,3.08h2.59V243h2.83c.13,1-.17,2,.27,3.08h2.58q0,6.15,0,12.3l0,0c-.91.13-1.86-.21-2.86.29v2.81l0,0c-.9.12-1.85-.22-2.87.28v2.8l0,0c-.9.17-1.85-.21-2.86.32v5.86l0,0c-.91.15-1.85-.21-2.86.3v2.79l0,0c-.91.13-1.86-.16-2.88.27v5.67c-.94.52-1.9-.08-2.81.57l0,12,0,0c-.91.13-1.86-.22-2.88.29v5.87l0,0c-.9.16-1.85-.22-2.72.24v9h2.73l0,0,0,6.14c-.86.11-1.76-.18-2.71.26-.08.84-.16,1.71-.24,2.52-.8.61-1.72,0-2.49.52-.51.77,0,1.76-.41,2.6-.7.58-1.62,0-2.4.45-.55.75,0,1.74-.42,2.61-.68.6-1.59.05-2.39.44-.64.76,0,1.87-.66,2.92h-8c-.1,1.09-.19,2-.29,3.05h-8.22l-.29,3.05-8,0c-.58,1-.17,2-.5,2.84-.71.62-1.63.05-2.43.47-.56.74,0,1.73-.47,2.73h-5.22a4.29,4.29,0,0,1-.11-2.76l2.46-.27a4.56,4.56,0,0,0,.05-2.81,26.34,26.34,0,0,0-5.17-.08c-.62.89-.09,1.89-.54,2.81-1.65.52-3.44-.07-5.2.33-.52.8-.06,1.78-.55,2.94h-6.5c-4.48,0-4.48,0-4.59-4.84,0-.32-.05-.64-.08-1a3.48,3.48,0,0,0-2.62-.17l-.27,2.79-13.79,0c-.56-.85-.05-1.84-.54-2.83-1.62,0-3.37-.13-2.36-3,1.61-.52,3.4.07,5.19-.32a4.66,4.66,0,0,0,.08-2.95h-5.35c-.11-1.09-.19-2-.3-3H287c-.66-1-.15-2-.58-2.86-.7-.56-1.61,0-2.4-.45-.54-.75,0-1.74-.46-2.69-1.63-.53-3.43.06-5.16-.33-.62-.78-.11-1.77-.47-2.66-.69-.67-1.7,0-2.57-.58-.08-.82-.16-1.69-.24-2.51-.81-.58-1.73,0-2.5-.52-.5-.77,0-1.76-.45-2.68-1.65-.48-3.45.07-5.15-.31-.6-.83-.09-1.82-.54-2.81a22.1,22.1,0,0,0-4.62-.13c-1,0-.83.88-.83,1.55,0,3.46,0,6.92,0,10.27-.83.86-1.86.13-2.73.79l0,33.27c.83.59,1.74.07,2.7.63v14.66c.93.74,1.85.19,2.81.75v14.66c.93.74,1.84.23,2.64.63.56.75.05,1.73.42,2.61.7.67,1.71,0,2.69.66v5.42c.95.69,1.86.13,2.82.75v8.47c.93.74,1.85.18,2.69.68.46,1.79,0,3.74.29,5.64.78.55,1.67.08,2.65.55l0,20.79c.94.94,2,.21,2.93,1v5.48a3.5,3.5,0,0,0,2.59.11c.51-.83,0-1.82.46-2.69a3.45,3.45,0,0,1,2.35-.06c.56.82,0,1.81.46,2.67.7.58,1.61,0,2.58.54v8.5c.92.8,1.83.26,2.73.71.53,1.79-.08,3.82.35,5.81l2.68.31v8.69c.94.71,1.86.16,2.7.67.43,1.8,0,3.74.27,5.58.79.66,1.7.1,2.67.63v8.53c1,.67,1.79.43,2.81.33V462.22c.93-1,2-.24,2.94-1l0-20.8c.94-.7,1.86-.13,2.7-.67.4-1.8-.06-3.74.27-5.75l2.51-.28c.5-1.9,0-3.85.33-5.76.74-.55,1.64-.06,2.44-.45.57-.74.06-1.73.43-2.61.69-.68,1.71,0,2.57-.58l.24-2.66,2.57-.28.26-2.71a4.81,4.81,0,0,1,2.38-.18c.63.9.12,1.89.58,2.87a23.65,23.65,0,0,0,4.63.15c.75,0,.82-.56.82-1.19,0-1,.07-2.06,0-3.08-.11-1.38.24-2,1.65-1.91,3.13.11,6.26,0,9.34,0,.73.91.13,2,.65,3a22.27,22.27,0,0,0,5.29,0l.26-2.69a3.42,3.42,0,0,1,2.45-.11c.56.82,0,1.81.46,2.66.7.59,1.61,0,2.4.46.55.75,0,1.74.43,2.61.67.62,1.58.06,2.52.52.45,1.79-.08,3.8.31,5.8l2.43.28c.53.89,0,1.88.48,2.71.71.55,1.62,0,2.4.46.52.76,0,1.75.43,2.63a3.31,3.31,0,0,0,2.34.13c.61-.8.07-1.8.5-2.7.69-.49,1.51-.23,2.32-.16.68.81,0,1.92.59,2.86l2.31.26c.54.89,0,1.87.48,2.71.72.55,1.63,0,2.41.46.52.76,0,1.75.42,2.6.69.6,1.61,0,2.41.48.55.73,0,1.72.44,2.62.65.61,1.57,0,2.42.48.59.7,0,1.8.5,2.75l2.56.29v5.59c.94.73,1.85.17,2.63.63.52.77,0,1.76.42,2.61.7.6,1.61,0,2.42.47.55.73,0,1.73.44,2.63.64.59,1.56,0,2.37.43.65.74,0,1.86.58,2.8l2.53.29v5.59c.94.73,1.85.17,2.63.63.52.77,0,1.76.42,2.61.69.59,1.61,0,2.4.46.56.74.05,1.73.42,2.6.7.69,1.72,0,2.7.72v5.6l2.81.33v5.66C404.38,486.69,405.27,486.39,406.14,486.47ZM312,215c-.84.22-1.74-.15-2.57.29-.4.91-.07,1.88-.26,2.79-.85.2-1.76-.17-2.78.4,0,3.93,0,7.94,0,11.94,0,3,0,3,2.77,3.18a3.86,3.86,0,0,1,.06.75c-.27,1.82.42,2.56,2.1,2.27a2.35,2.35,0,0,1,.69.07c0,1,.05,2,.07,3h-5.38c-.53,1.2,0,2.19-.78,3.19l-7.77,0c-.51,1,0,2-.68,3h-4.95c-.57,1-.05,2-.59,2.91l-2.28.25c-.6.93.07,2-.56,2.78-.81.4-1.72-.16-2.45.5-.35,1.87.19,3.81-.29,5.59-.86.48-1.77-.08-2.56.57-.3,1.82.16,3.76-.28,5.68l-2.46.28a13.77,13.77,0,0,0-.18,3.71c0,2.54.36,2.79,2.69,1.94.38-.83-.17-1.82.47-2.61a3.32,3.32,0,0,1,2.51.28,27.1,27.1,0,0,1,0,3.37c-.23,2,.42,2.56,2.24,2.46,3-.17,6,0,8.92,0,.48,3.08.48,3.08,3.27,3.08l14,0h0c.06,3.49-.41,3.07,2.83,3.09q6.1,0,12.23,0c.63,0,1.31.23,1.83-.29.38-.86-.14-1.85.46-2.64,1.72-.39,3.52.2,5.16-.32.45-.93-.07-1.92.55-2.82a5,5,0,0,1,2.33.14,13.4,13.4,0,0,1,.16,3.5c0,2.71.11,2.79,2.65,2.21.51-.81-.16-1.93.54-2.71,1.73-.34,3.52.2,5.11-.27.47-1-.08-2,.5-2.73.79-.42,1.7.14,2.39-.45.41-.85-.11-1.84.42-2.6.77-.46,1.69.1,2.62-.63v-5.57l2.81-.32v-5.78a3.65,3.65,0,0,1,2.68.06,2.23,2.23,0,0,1,.12.46c0,1,0,2.05,0,3.08,0,2.65.21,2.81,2.69,2,.39-.81-.14-1.8.39-2.56.78-.45,1.7.11,2.42-.46.4-.83-.09-1.81.39-2.59.77-.49,1.68.07,2.5-.52.08-.8.16-1.67.23-2.46.86-.65,1.88.08,2.62-.67.34-1.86-.2-3.81.28-5.57.88-.46,1.79.1,2.72-.7l0-14.59c1-.57,1.88,0,2.66-.62l0-11.86a22.59,22.59,0,0,0-5.26,0c-.61.94.07,2-.63,2.85-1.73.33-3.51-.19-5.12.26-.44,1,.08,2-.68,3h-7.77c-.51,1,0,2-.69,3H349.3c-.56,1,0,2-.55,2.84a7,7,0,0,1-2.61.15v-8.84c1-.65,2,0,2.68-.64v-8.72c-.92-.46-1.83.09-2.51-.52-.38-.87.13-1.86-.43-2.62-.79-.37-1.68.09-2.46-.46-.09-.88-.17-1.75-.27-2.83l-8,0c-.57-1-.06-2-.61-2.91L318,206c-.61.93.07,2.05-.54,2.74-.84.47-1.76-.13-2.52.58,0,.86-.08,1.75-.12,2.64-.85.19-1.74-.15-2.58.27C311.86,213.13,312.19,214.11,312,215Zm37.27,228.11v-.95c0-1.1.21-2.14-1.42-2.14s-1.44,1-1.42,2.13c0,.9.05,1.79,0,2.68-.07,1.1.37,1.45,1.35,1.44s1.64-.13,1.51-1.43C349.23,444.29,349.27,443.71,349.27,443.13Zm11.41,24.71c0,.32,0,.64,0,1,.06,1-.37,2.18,1.34,2.23s1.52-1.07,1.51-2.22c0-.9-.06-1.8,0-2.69.08-1.2-.55-1.33-1.43-1.33s-1.53.12-1.43,1.33C360.72,466.69,360.68,467.27,360.68,467.84Zm11.38,3.33c-2.84-.35-2.84-.35-2.84,2.22,0,.7,0,1.41,0,2.11-.1,1.2.26,1.7,1.47,1.71s1.44-.65,1.4-1.77C372,474.05,372.06,472.66,372.06,471.17Zm8.49-5c.28-1.24-.49-1.31-1.43-1.36-1.1-.06-1.39.41-1.42,1.55,0,1.34.51,1.58,1.59,1.59S380.7,467.34,380.55,466.17Z"/><path class="cls-19" d="M241.28,582.08h2.59a4.88,4.88,0,0,1,.15,2.81,3.65,3.65,0,0,1-2.44.17c-.53-1-.18-2-.28-3Z"/><path class="cls-24" d="M400.06,209.11c0,1,0,2-.05,3.07l0,0-11.3.06-2.85,0-.06-.06.06-3Z"/><path class="cls-35" d="M385.62,193.85c-2.69-.33-2.69-.33-2.57-3.17h2.75c-.33,2.33.47,3.55,2.74,3l.23,2.85C386.16,197.1,386.16,197.1,385.62,193.85Z"/><path class="cls-35" d="M394.47,196.69l2.6.25c.08,1,.15,1.84.21,2.71C394.51,200.22,394.2,199.92,394.47,196.69Z"/><path class="cls-19" d="M252.49,270.4v-2.86a5.32,5.32,0,0,1,2.69-.16,10.14,10.14,0,0,1,.08,3h-2.8Z"/><path class="cls-34" d="M385.89,209.12l-.06,3-2.79.05,0,0C383,209,383,209,385.89,209.12Z"/><path class="cls-26" d="M516.35,206.27l-14.19,0,0,0c.13-1-.24-2,.32-3.05l13.89,0h0c0,1,0,2,0,3.06Z"/><path class="cls-26" d="M502.16,206.24c0,3.58.3,3-2.72,3.07-1.93,0-3.86,0-5.78,0l0,0c.13-1-.23-2,.33-3.08l8.17,0Z"/><path class="cls-26" d="M462.51,236.92c0,1,0,2,0,3,0,3.39.55,3.17-2.84,3.12l0,0c0-2,0-4,0-6.14h2.85Z"/><path class="cls-26" d="M522,209.36h-2.78c-3.27-.06-2.86.47-2.9-3.09h0l5.65,0h0l0,3.06Z"/><path class="cls-26" d="M493.66,209.3c0,3.62.33,3-2.88,3.07-.93,0-1.86,0-2.79,0v0c.12-1-.23-2,.31-3.07h5.35Z"/><path class="cls-26" d="M488,212.36c0,3.62.33,3-2.87,3.08-.93,0-1.86,0-2.79,0h0c.12-1-.23-2,.32-3.08H488Z"/><path class="cls-26" d="M482.33,215.42c0,3.63.33,3-2.88,3.08-.93,0-1.86,0-2.79,0l0,0c.12-1-.22-2,.32-3.08l5.35,0Z"/><path class="cls-26" d="M442.68,255.34c.05,3.71.24,3-2.87,3.08-.93,0-1.86,0-2.8,0l0,0c.14-1-.22-2,.34-3.08h5.33Z"/><path class="cls-26" d="M448.35,252.27c0,3.71.24,3-2.87,3.09-.93,0-1.86,0-2.8,0l0,0c.14-1-.22-2,.34-3.08h5.33Z"/><path class="cls-26" d="M454,249.2c.05,3.71.24,3-2.87,3.09-.93,0-1.86,0-2.8,0l0,0c.14-1-.22-2,.34-3.07H454Z"/><path class="cls-26" d="M465.33,230.76c0,1,0,2,0,3-.05,3.46.53,3.13-2.84,3.13v0c0-2,0-4,0-6.17h2.82Z"/><path class="cls-26" d="M468.17,227.7c0,3.39.5,3.1-2.84,3.06l0,0c.14-1-.2-2,.31-3.06h2.53Z"/><path class="cls-26" d="M471,224.63c0,3.51.41,3.06-2.83,3.07l0,0c.11-1-.21-2,.3-3.07H471Z"/><path class="cls-26" d="M456.85,246.13c0,3.49.4,3.1-2.83,3.07l0,0c.13-1-.2-2,.32-3.08h2.51Z"/><path class="cls-26" d="M459.69,243.06c0,3.49.39,3.09-2.84,3.07l0,0c.13-1-.2-2,.32-3.08h2.51Z"/><path class="cls-26" d="M473.83,221.56c0,3.51.41,3.06-2.83,3.07l0,0c.12-1-.21-2,.3-3.07h2.53Z"/><path class="cls-26" d="M476.66,218.49c0,3.52.4,3.06-2.83,3.07l0,0c.12-1-.21-2,.3-3.08h2.53Z"/><path class="cls-32" d="M516.32,197.06c0,1,0,2,0,3.06l-22.31,0c-.69,1,0,2.16-.71,3-1.7.35-3.5-.22-5.14.29-.38,1,.05,1.92-.45,2.75-1.75.37-3.54-.17-5.18.3-.46.91.05,1.9-.61,2.92H476.8c-.11,1.08-.19,1.95-.29,3h-5.19c-.61,1.06,0,2.15-.6,2.91-.8.41-1.71-.15-2.4.44-.38.87.13,1.85-.41,2.6-.78.45-1.69-.11-2.48.52-.31,1.83.16,3.77-.25,5.56-.84.53-1.75,0-2.56.56-.08.82-.16,1.68-.23,2.46-.86.65-1.89-.08-2.57.62-.35.87.15,1.86-.41,2.59-.81.41-1.72-.14-2.58.6.7,2.51-.73,3-2.54,2.71-.51,1,0,2-.56,2.89l-2.42.26c-.09,1-.17,1.83-.24,2.62-.86.65-1.89-.08-2.53.56-.42.92.12,1.91-.46,2.64-.79.42-1.7-.14-2.39.45-.4.85.12,1.84-.59,2.85h-5c-.53,1,0,2-.67,3h-5c-.64,1.06,0,2.17-.68,3-1.73.36-3.52-.21-5.13.29-.41,1,.09,2-.47,2.71-.8.42-1.71-.14-2.39.45-.4.86.11,1.85-.48,2.68-1.69.36-3.48-.16-5.13.28-.47.92,0,1.91-.52,2.79l-2.27.24c-.58,1,.09,2.06-.62,2.85-1.72.34-3.52-.21-5.13.28-.41,1,.08,2-.48,2.76-1.75.39-3.55-.2-5.19.32-.43.93.09,1.92-.59,2.87-3.25,0-6.61,0-10,0-1,0-1-.62-1-1.4,0-1.6,0-3.2,0-4.81l0-3.05,0,0c.91-.11,1.85.22,2.86-.29v-2.81l0,0a9.2,9.2,0,0,0,2.83-.22c0-4.07,0-8.06,0-12.06.06-3.69.26-3.06-2.83-3.11h0v-5.9a8.09,8.09,0,0,0-2.84-.26h0c0-2.05,0-4.1,0-6.15l0,0c.86.13,1.76-.17,2.79.34-.44,2.24.41,3.34,2.87,2.71-.36,2.43.23,3.82,2.45,3.16.17.27.31.38.3.47-.22,2.2.7,2.7,2.64,2.66,6.13-.14,12.27-.06,18.41,0,1.22,0,2-.21,1.75-1.75-.12-1,.29-1.42,1.22-1.35.76.05,1.53,0,2.3,0,1.41.13,2.47-.06,2.17-2.07-.13-.88.49-1,1.15-1,1.4,0,2.81,0,4.09,0,.19-.29.32-.4.31-.49-.22-2.19.7-3,2.64-2.6.52.1,1.06,0,1.59,0,1.11.13,1.7-.28,1.54-1.59s.38-1.56,1.43-1.51c1.34.08,2.68,0,3.94,0a8.4,8.4,0,0,0,.29-3.06l2.79-.05c3.48.12,2.83.2,2.87-3.05h0c.92-.1,1.88.29,2.88-.39v-2.62l2.53-.13c.54-.89.09-1.83.42-2.72.8-.56,1.77-.11,2.65-.31,3.49.12,2.83.2,2.87-3h0c3.24,0,2.83.45,2.84-3.07h0c1.35,0,2.71,0,4.05,0,1.16.07,1.83-.24,1.64-1.67-.13-1.05.29-1.52,1.3-1.44a1.55,1.55,0,0,0,1.38-.29,9.92,9.92,0,0,0,.13-2.78h0c1.35,0,2.7,0,4,0,1.15.07,1.84-.22,1.65-1.65-.17-1.25.48-1.49,1.46-1.45,1.76.06,3.52-.07,5.28.06,1.38.1,2-.39,1.76-1.92a7.26,7.26,0,0,1,0-1.14l2.76-.08,14.25,0Z"/><path class="cls-19" d="M428.4,218.42v3l-2.78.16v2.93H423c-.48,1-.09,2-.35,3.09H414.3l0-9.18v0c.9-.14,1.85.19,2.85-.26v-2.81h8.49a11.46,11.46,0,0,0,.23,3.09Z"/><path class="cls-29" d="M388.74,212.22l11.3-.06c0,3.64.38,3.06-2.89,3.1l-5.62,0-2.8-.06C388.73,214.22,388.73,213.22,388.74,212.22Z"/><path class="cls-32" d="M388.73,215.23l2.8.06q0,4.59.05,9.16l0,.05c-.89-.15-1.85.26-2.8-.4Z"/><path class="cls-31" d="M425.58,215.33h-8.49v-3.06l8.47,0C425.56,213.3,425.57,214.32,425.58,215.33Z"/><path class="cls-31" d="M414.27,218.38l0,9.18a7.61,7.61,0,0,1-2.74-.16l0-8.75C412.4,218.11,413.36,218.47,414.27,218.38Z"/><path class="cls-19" d="M439.79,212.31l5.67-.05v3H439.8Z"/><path class="cls-32" d="M391.58,224.45c.86.14,1.76-.17,2.84.37,0,1.87,0,3.83,0,5.79l0,0c-.86-.11-1.76.18-2.84-.33V224.5Z"/><path class="cls-31" d="M417.1,215.31v2.83c-1,.45-1.95.12-2.85.26,0-.94,0-1.87,0-2.78C415.26,215.07,416.2,215.39,417.1,215.31Z"/><path class="cls-31" d="M428.4,218.42h-2.59a11.46,11.46,0,0,1-.23-3.09C428.55,215.4,428.51,214.62,428.4,218.42Z"/><path class="cls-29" d="M451.1,224.56l-2.79.05c.06-3.37-.58-3.09,2.84-3.08l0,0Z"/><path class="cls-29" d="M451.15,221.53c0-3.42-.51-3.07,2.83-3.07l0,0v3.08h-2.83Z"/><path class="cls-26" d="M445.66,332.38h-5.37c-.53-1.09-.17-2.13-.33-3.1,1,0,2,0,3,0C445.77,329.32,445.76,328.56,445.66,332.38Z"/><path class="cls-26" d="M454.21,338.56l-5.26-.1c-.05,0-.1,0-.22-.11-.44-.9-.08-1.93-.24-2.91.94,0,1.88,0,2.82,0C454.43,335.49,454.25,334.78,454.21,338.56Z"/><path class="cls-26" d="M448.51,335.47H446c-.5-1.1-.16-2.13-.32-3.1C448.89,332.31,448.55,332,448.51,335.47Z"/><path class="cls-31" d="M394.43,264.45c0,1.61,0,3.21,0,4.81,0,.78.06,1.4,1,1.4,3.36,0,6.72,0,10,0,.68-.95.16-1.94.59-2.87,1.64-.52,3.44.07,5.19-.32.56-.79.07-1.77.48-2.76,1.61-.49,3.41.06,5.13-.28.71-.79,0-1.9.62-2.85l2.27-.24c.56-.88,0-1.87.52-2.79,1.65-.44,3.44.08,5.13-.28.59-.83.08-1.82.48-2.68.68-.59,1.59,0,2.39-.45.56-.73.06-1.72.47-2.71,1.61-.5,3.4.07,5.13-.29.71-.78,0-1.89.68-3h5c.65-1,.14-2,.67-3h5c.71-1,.19-2,.59-2.85.69-.59,1.6,0,2.39-.45.58-.73,0-1.72.46-2.64.64-.64,1.67.09,2.53-.56.07-.79.15-1.66.24-2.62l2.42-.26c.56-.88,0-1.86.56-2.89,1.81.27,3.24-.2,2.54-2.71.86-.74,1.77-.19,2.58-.6.56-.73.06-1.72.41-2.59.68-.7,1.71,0,2.57-.62.07-.78.15-1.64.23-2.46.81-.59,1.72,0,2.56-.56.41-1.79-.06-3.73.25-5.56.79-.63,1.7-.07,2.48-.52.54-.75,0-1.73.41-2.6.69-.59,1.6,0,2.4-.44.61-.76,0-1.85.6-2.91h5.19c.1-1.09.18-2,.29-3h5.14c.66-1,.15-2,.61-2.92,1.64-.47,3.43.07,5.18-.3.5-.83.07-1.8.45-2.75,1.64-.51,3.44.06,5.14-.29.69-.82,0-1.93.71-3l22.31,0h0v3.08l-13.89,0c-.56,1-.19,2.07-.32,3.05l-8.17,0c-.56,1.07-.2,2.11-.33,3.08h-5.35c-.54,1.07-.19,2.1-.31,3.07h-5.35c-.55,1.08-.2,2.11-.32,3.08l-5.35,0c-.54,1.08-.2,2.11-.32,3.08h-2.53c-.51,1.1-.18,2.11-.3,3.08h-2.53c-.51,1.09-.18,2.1-.3,3.07h-2.53c-.51,1.09-.19,2.1-.3,3.07h-2.53c-.51,1.08-.17,2.1-.31,3.06h-2.82c0,2.19,0,4.18,0,6.17h-2.85c0,2.16,0,4.15,0,6.14h-2.51c-.52,1.1-.19,2.11-.32,3.08h-2.51c-.52,1.1-.19,2.12-.32,3.08h-5.33c-.56,1.08-.2,2.11-.34,3.07H443c-.56,1.08-.2,2.11-.34,3.08h-5.33c-.56,1.08-.2,2.11-.34,3.08h-5.53c-.08,1.09-.14,2-.22,3H426.1c-.76,1-.16,2.07-.68,3.11h-5c-.71,1-.09,2.08-.63,3l-2.33.18c-.51.89-.05,1.85-.42,2.8-1.7.49-3.54-.1-5.4.34-.07.91-.13,1.78-.21,2.84h-5.15c-.76,1-.14,2.07-.7,3.11h-7.87c-.63,1-.17,1.94-.49,2.86-.8.55-1.79.08-2.68.3H386v-6.23l0,0c.91-.08,1.85.24,2.86-.3v-2.79l0,0c.91-.09,1.86.25,2.86-.32v-5.86l0,0Z"/><path class="cls-24" d="M386,273.68v6.23h8.54a7.36,7.36,0,0,0,0,1.15c.21,1.52-.38,2-1.77,1.92-2.7-.11-5.41,0-8.11-.07-1.18,0-1.52.44-1.49,1.66.06,2.55,0,5.1,0,7.65l-2.83-.05c0-4,0-8,0-12,.91-.65,1.87-.05,2.81-.57V274C384.09,273.52,385,273.81,386,273.68Z"/><path class="cls-19" d="M422.9,283c0,1,0,2.06,0,3.08l-11.34,0,0,0V283Z"/><path class="cls-24" d="M391.67,301.46H389c-.08-1.08-.14-1.95-.2-2.82-.79-.57-1.67-.1-2.52-.42-.52-.89-.09-2-.3-2.93l5.75,0c0,1,0,2,0,3Z"/><path class="cls-19" d="M394.52,295.28v-3.07h5.68v0c0,1,0,2,0,3.06h-5.65Z"/><path class="cls-19" d="M405.86,289.15v-3.08h5.68l0,0c0,1,0,2.05,0,3.08h-5.68Z"/><path class="cls-19" d="M400.19,292.22v-3.08h5.68v0c0,1,0,2.05,0,3.08h-5.68Z"/><path class="cls-19" d="M391.7,298.31c0-1,0-2,0-3l2.83,0h0c0,1,0,2,0,3Z"/><path class="cls-22" d="M411.53,289.14c0-1,0-2.05,0-3.08l11.34,0h19.91l2.77.09.06,3,0,0H417.23Z"/><path class="cls-22" d="M400.18,292.2h5.67c0,.93,0,1.86,0,2.75-1,.57-1.94.18-2.82.35l-2.87-.05C400.17,294.24,400.17,293.22,400.18,292.2Z"/><path class="cls-22" d="M405.86,292.21c0-1,0-2,0-3.08h5.67c0,.94,0,1.87,0,3.08Z"/><path class="cls-22" d="M454.13,289.19l2.76.09c0,1,.05,2,.07,3l0,0-11.13,0a10.16,10.16,0,0,1-.23-3.07l0,0Z"/><path class="cls-22" d="M468.31,298.49l8.52,0h0c0,1,0,2,0,3.07l0,0-8.23,0C468.11,300.5,468.48,299.46,468.31,298.49Z"/><path class="cls-22" d="M462.66,295.38h-5.47a11.22,11.22,0,0,1-.21-3.07l0,0,5.66,0h0c0,1,0,2.05,0,3.07Z"/><path class="cls-22" d="M479.71,301.56l2.76.08c0,1,0,2,0,3h-5.6c0-1.1,0-2.08,0-3.06l0,0Z"/><path class="cls-22" d="M468.3,295.43c0,1,0,2.06,0,3.08h-5.45a11.3,11.3,0,0,1-.23-3.12l0,0,5.67,0Z"/><path class="cls-27" d="M482.48,304.64c0-1,0-2,0-3l2.89,0C485.32,304.85,486,304.75,482.48,304.64Z"/><path class="cls-19" d="M420.12,313.79v-3.08h5.67v3.08Z"/><path class="cls-19" d="M425.76,310.74V308c1-.52,2-.17,2.86-.3v2.78C427.61,311,426.66,310.63,425.76,310.74Z"/><path class="cls-22" d="M394.48,298.31c0-1,0-2,0-3h5.66c0,.93,0,1.87,0,3.05Z"/><path class="cls-26" d="M403,310.73h-5.4c-.51-1.09-.17-2.12-.3-3.1h5.4C403.28,308.72,403,309.74,403,310.73Z"/><path class="cls-26" d="M408.73,313.82h-5.4c-.51-1.09-.17-2.12-.31-3.1h5.4C409,311.81,408.66,312.83,408.73,313.82Z"/><path class="cls-24" d="M394.5,304.56H392c-.51-1.13-.19-2.15-.32-3.12h2.55C394.73,302.56,394.44,303.58,394.5,304.56Z"/><path class="cls-26" d="M397.36,307.64h-2.58c-.47-1.11-.16-2.13-.28-3.11h2.57C397.58,305.63,397.29,306.66,397.36,307.64Z"/><path class="cls-25" d="M490.83,197.05a7.26,7.26,0,0,0,0,1.14c.21,1.53-.38,2-1.76,1.92-1.76-.13-3.52,0-5.28-.06-1,0-1.63.2-1.46,1.45.19,1.43-.5,1.72-1.65,1.65-1.34-.08-2.69,0-4,0,0-.69,0-1.38,0-2.08,0-.47.14-1,.63-.93,2.59.48,2.23-1.44,2.21-3.11Z"/><path class="cls-25" d="M476.62,203.11a9.92,9.92,0,0,1-.13,2.78,1.55,1.55,0,0,1-1.38.29c-1-.08-1.43.39-1.3,1.44.19,1.43-.48,1.74-1.64,1.67-1.34-.09-2.7,0-4.05,0a12.85,12.85,0,0,0,0-1.52c-.11-1.13.27-1.71,1.37-1.54s1.62-.39,1.46-1.62.44-1.51,1.45-1.46C473.81,203.16,475.22,203.11,476.62,203.11Z"/><path class="cls-25" d="M468.13,209.24c0,3.52.4,3.06-2.84,3.07C465.33,209.28,465.33,209.28,468.13,209.24Z"/><path class="cls-25" d="M465.3,212.31c0,3.24.62,3.16-2.87,3v-2.6C463.42,212,464.4,212.46,465.3,212.31Z"/><path class="cls-25" d="M454,221.52v-3.08l2.87.07c0,.89,0,1.78,0,2.62C455.84,221.81,454.88,221.42,454,221.52Z"/><path class="cls-31" d="M522.05,209.35l0-3.06h2.83c0,1,0,2.05,0,3.07Z"/><path class="cls-27" d="M454.13,289.19l-8.53,0-.06-3c1.92,0,3.85,0,5.78,0C454.67,286.17,454,285.86,454.13,289.19Z"/><path class="cls-27" d="M462.62,292.35l-5.66,0c0-1,0-2-.07-3l5.74,0C462.63,290.28,462.63,291.32,462.62,292.35Z"/><path class="cls-25" d="M507.84,197l-14.25,0c0-1,0-2,.05-3l14.16,0C507.82,195,507.83,196,507.84,197Z"/><path class="cls-32" d="M516.35,203.2v-3.08l5.66,0c0,1,0,2,0,3l-.06.08-5.63-.06Z"/><path class="cls-32" d="M524.86,206.29H522c0-1,0-2,0-3l.06-.08h2.52C525.06,204.31,524.76,205.32,524.86,206.29Z"/><path class="cls-27" d="M468.31,295.44l-5.67,0c0-1,0-2,0-3.07h5.69Z"/><path class="cls-27" d="M479.71,301.56l-2.86,0c0-1,0-2.05,0-3.07h2.85Z"/><path class="cls-36" d="M325,341.37h2.48c.87,0,1.78-.21,1.78,1.35,0,1.32-.34,1.92-1.59,1.74-1.05-.15-1.39.45-1.27,1.47.15,1.29-.39,1.73-1.52,1.62-.76-.08-1.54,0-2.3,0-1.24-.11-2.12.11-1.88,1.81.15,1-.39,1.31-1.26,1.29s-1.55-.17-1.56-1.32c0-1,.05-1.92,0-2.88-.12-1.39.19-2.24,1.7-2,.82.13,1.26-.32,1.14-1.22-.23-1.62.52-2,1.83-1.86C323.37,341.43,324.2,341.37,325,341.37Z"/><path class="cls-36" d="M303.94,344.55l2.33-.27c.57-2.94.57-2.94,3.42-2.94,1.42,0,2.84,0,4.26,0,.73,0,1.17.28,1.08,1.11s.38,1.59-.64,1.94c-2.06.72-2.06.72-2.39,3.08-2.42,0-4.88.07-7.34,0C303.64,347.39,303.51,346.7,303.94,344.55Z"/><path class="cls-36" d="M309.36,356.53c-2.63.42-2.81.26-2.83-2.09,0-3.94,0-3.94,4.06-3.85,1.52,0,2,.66,1.61,2.26-.09.42-.23.84-.63.77C309.4,353.22,309.14,354.65,309.36,356.53Z"/><path class="cls-24" d="M377.5,313.71l0-6.14h2.86c0,2.17,0,4.18,0,6.18Z"/><path class="cls-24" d="M388.86,323h5.38c.55,1.09.22,2.12.32,3.1h-5.38C388.65,325,389,324,388.86,323Z"/><path class="cls-24" d="M394.54,326.08h5.38c.56,1.08.22,2.11.34,3.09h-5.4C394.33,328.09,394.68,327.06,394.54,326.08Z"/><path class="cls-36" d="M295.35,338.24c1.55,0,3,0,4.47,0,1.1,0,1,.8,1,1.58s0,1.56-1.08,1.51c-.76,0-1.53,0-2.3,0C295.09,341.31,295,341.16,295.35,338.24Z"/><path class="cls-36" d="M300.85,353.68c0,.58,0,1.15,0,1.73.07,1-.33,1.38-1.24,1.34s-1.58-.1-1.6-1.27c0-.9,0-1.79,0-2.69,0-1.11-.31-2.3,1.47-2.27s1.33,1.17,1.37,2.2C300.86,353,300.85,353.36,300.85,353.68Z"/><path class="cls-24" d="M380.32,313.74h2.56c.52,1.1.21,2.12.31,3.1h-2.56C380.12,315.73,380.46,314.71,380.32,313.74Z"/><path class="cls-24" d="M386,319.91h2.56c.52,1.1.21,2.12.31,3.1h-2.56C385.81,321.91,386.15,320.88,386,319.91Z"/><path class="cls-24" d="M383.17,316.82h2.56c.52,1.09.21,2.12.3,3.09h-2.56C383,318.82,383.3,317.8,383.17,316.82Z"/><path class="cls-24" d="M377.45,298.32v-5.87c1-.51,2-.16,2.88-.29l0,6.14Z"/><path class="cls-24" d="M377.49,307.59h-2.73v-9c.87-.46,1.82-.08,2.72-.24Q377.49,302.93,377.49,307.59Z"/><path class="cls-23" d="M346.14,233.59a7,7,0,0,0,2.61-.15c.51-.82,0-1.81.55-2.84h7.79c.7-1,.18-2,.69-3h7.77c.76-1,.24-2,.68-3,1.61-.45,3.39.07,5.12-.26.7-.8,0-1.91.63-2.85a22.59,22.59,0,0,1,5.26,0l0,11.86c-.78.61-1.7,0-2.66.62l0,14.59c-.93.8-1.84.24-2.72.7-.48,1.76.06,3.71-.28,5.57-.74.75-1.76,0-2.62.67-.07.79-.15,1.66-.23,2.46-.82.59-1.73,0-2.5.52-.48.78,0,1.76-.39,2.59-.72.57-1.64,0-2.42.46-.53.76,0,1.75-.39,2.56-2.48.77-2.68.61-2.69-2,0-1,0-2.05,0-3.08a2.23,2.23,0,0,0-.12-.46,3.65,3.65,0,0,0-2.68-.06v5.78l-2.81.32v5.57c-.93.73-1.85.17-2.62.63-.53.76,0,1.75-.42,2.6-.69.59-1.6,0-2.39.45-.58.74,0,1.73-.5,2.73-1.59.47-3.38-.07-5.11.27-.7.78,0,1.9-.54,2.71-2.54.58-2.61.5-2.65-2.21a13.4,13.4,0,0,0-.16-3.5,5,5,0,0,0-2.33-.14c-.62.9-.1,1.89-.55,2.82-1.64.52-3.44-.07-5.16.32-.6.79-.08,1.78-.46,2.64-.52.52-1.2.29-1.83.29q-6.12,0-12.23,0c-3.24,0-2.77.4-2.83-3.09,3.17,0,3.26-.09,2.55-2.89-2.55-.41-2.55-.41-2.55,2.33,0,.19,0,.38,0,.57l-14,0c-2.79,0-2.79,0-3.27-3.08-2.94,0-5.94-.14-8.92,0-1.82.1-2.47-.49-2.24-2.46a27.1,27.1,0,0,0,0-3.37,3.32,3.32,0,0,0-2.51-.28c-.64.79-.09,1.78-.47,2.61-2.33.85-2.72.6-2.69-1.94a13.77,13.77,0,0,1,.18-3.71l2.46-.28c.44-1.92,0-3.86.28-5.68.79-.65,1.7-.09,2.56-.57.48-1.78-.06-3.72.29-5.59.73-.66,1.64-.1,2.45-.5.63-.74,0-1.85.56-2.78l2.28-.25c.54-.89,0-1.88.59-2.91h4.95c.69-1,.17-2,.68-3l7.77,0c.77-1,.25-2,.78-3.19h5.38l2.84,0h0c.1,1-.23,2,.28,3h8a10.07,10.07,0,0,0,.24-2.9l2.78-.09h2.86c2.82.09,2.82.09,2.87-3h2.82c.12,1-.26,2,.26,2.91h5.23c.41-1-.08-2,.43-2.73.79-.42,1.69.1,2.5-.47.07-.84.14-1.7.2-2.55C344.38,233.43,345.28,233.73,346.14,233.59Z"/><path class="cls-33" d="M346.14,233.59c-.86.14-1.76-.16-2.72.26-.06.85-.13,1.71-.2,2.55-.81.57-1.71,0-2.5.47-.51.77,0,1.74-.43,2.73h-5.23c-.52-.87-.14-1.92-.26-2.91h1.93c.55,0,.91-.24.89-.89a27.11,27.11,0,0,0-.2-5.27h-2.64l0-3c.91-.12,1.86.17,2.71-.23v-6H334.8c-.13-1,.2-2-.29-3.08H332c-.13-1,.2-2-.29-3.06H329.1a10.07,10.07,0,0,0-.21-3l-13.94,0-.1-.12.12-2.64c.76-.71,1.68-.11,2.52-.58.61-.69-.07-1.81.54-2.74l16.45,0c.55.89,0,1.88.61,2.91l8,0c.1,1.08.18,1.95.27,2.83.78.55,1.67.09,2.46.46.56.76.05,1.75.43,2.62.68.61,1.59.06,2.51.52v8.72c-.65.66-1.66,0-2.68.64Z"/><path class="cls-24" d="M383,212.18l2.79-.05.06.06,0,15.32-.06.06h-2.79Z"/><path class="cls-33" d="M309.18,233.62c-2.77-.18-2.77-.18-2.77-3.18,0-4,0-8,0-11.94,1-.57,1.93-.2,2.78-.4l.11.12q0,7.64,0,15.29Z"/><path class="cls-24" d="M400.08,246.07l0,12.06a9.2,9.2,0,0,1-2.83.22q0-6.15,0-12.3l.05-.05Z"/><path class="cls-24" d="M394.4,243h-2.83v-6.15l.05-.06,2.8.05h0q0,3.06,0,6.11Z"/><path class="cls-24" d="M391.61,264.45v5.86c-1,.57-1.95.23-2.86.32,0-2,0-3.92,0-5.86C389.76,264.24,390.71,264.62,391.61,264.45Z"/><path class="cls-24" d="M388.71,233.73h-2.84v-6.15l.06-.06c.86.14,1.76-.16,2.84.35v5.81Z"/><path class="cls-35" d="M349.27,443.13c0,.58,0,1.16,0,1.73.13,1.3-.56,1.42-1.51,1.43s-1.42-.34-1.35-1.44c.06-.89,0-1.78,0-2.68,0-1.09-.21-2.13,1.42-2.13s1.44,1,1.42,2.14Z"/><path class="cls-35" d="M360.68,467.84c0-.57,0-1.15,0-1.72-.1-1.21.55-1.33,1.43-1.33s1.51.13,1.43,1.33c-.06.89,0,1.79,0,2.69,0,1.15.23,2.27-1.51,2.22s-1.28-1.23-1.34-2.23C360.67,468.48,360.68,468.16,360.68,467.84Z"/><path class="cls-35" d="M372.06,471.17c0,1.49,0,2.88,0,4.27,0,1.12-.12,1.78-1.4,1.77s-1.57-.51-1.47-1.71c.06-.7,0-1.41,0-2.11C369.22,470.82,369.22,470.82,372.06,471.17Z"/><path class="cls-24" d="M394.43,264.45l-2.84,0v-2.8c1-.5,2-.16,2.87-.28Z"/><path class="cls-24" d="M388.79,270.61v2.79c-1,.54-2,.22-2.86.3v-2.79C386.94,270.4,387.88,270.76,388.79,270.61Z"/><path class="cls-33" d="M314.94,239.71l-2.84,0c0-1-.05-2-.07-3l.1-.12,2.78.07Z"/><path class="cls-24" d="M391.56,236.81H389c-.43-1.09-.13-2.11-.26-3.08l.05-.06c.87.14,1.76-.15,2.84.34v2.74Z"/><path class="cls-24" d="M397.3,258.32v2.81c-1,.51-1.95.18-2.86.29v-2.81C395.44,258.11,396.39,258.45,397.3,258.32Z"/><path class="cls-33" d="M312,215c.19-.91-.14-1.89.27-2.79.84-.42,1.73-.08,2.58-.27l.1.12c0,1-.05,2-.08,3l-2.76,0Z"/><path class="cls-33" d="M312,236.71a2.35,2.35,0,0,0-.69-.07c-1.68.29-2.37-.45-2.1-2.27a3.86,3.86,0,0,0-.06-.75l.11-.11,2.79.05.05,3Z"/><path class="cls-33" d="M309.17,218.1c.19-.91-.14-1.88.26-2.79.83-.44,1.73-.07,2.57-.29l.11.12c0,1,0,2-.05,3l-2.78.09Z"/><path class="cls-35" d="M380.55,466.17c.15,1.17-.09,1.79-1.26,1.78s-1.62-.25-1.59-1.59c0-1.14.32-1.61,1.42-1.55C380.06,464.86,380.83,464.93,380.55,466.17Z"/><path class="cls-24" d="M397.25,246.05h-2.58c-.44-1.09-.14-2.1-.27-3.08l.06-.06,2.79.05h0c0,1,0,2,.05,3Z"/><path class="cls-31" d="M391.61,236.75V234c-1.08-.49-2-.2-2.84-.34v-5.81c-1.08-.51-2-.21-2.84-.35l0-15.32,2.85,0c0,1,0,2,0,3,0,3,0,5.93,0,8.87.95.66,1.91.25,2.8.4,0,2,0,3.93,0,5.82,1.08.51,2,.22,2.84.33,0,2,0,4.1,0,6.15Z"/><path class="cls-31" d="M522,203.26c0,1,0,2,0,3l-5.65,0c0-1,0-2,0-3.06Z"/><path class="cls-31" d="M397.25,243l-2.79-.05q0-3,0-6.11a8.09,8.09,0,0,1,2.84.26Z"/><path class="cls-31" d="M397.3,246c0-1,0-2-.05-3,3.09,0,2.89-.58,2.83,3.11Z"/><path class="cls-25" d="M451.13,221.51H454c0,3.25.61,3.17-2.87,3.05Z"/><path class="cls-37" d="M314.94,239.71l0-3.05,0,0,11.37,0-.06,3-2.78.09-8.54-.09Z"/><path class="cls-33" d="M314.93,239.7l8.54.09a10.07,10.07,0,0,1-.24,2.9h-8C314.7,241.72,315,240.69,314.93,239.7Z"/><path class="cls-34" d="M334.78,230.5h2.64a27.11,27.11,0,0,1,.2,5.27c0,.65-.34.89-.89.89H332l0,0c0-1,0-2,.07-3,.85-.21,1.76.17,2.76-.39V230.5Z"/><path class="cls-34" d="M315,276.66c0-.19,0-.38,0-.57,0-2.74,0-2.74,2.55-2.33.71,2.8.62,2.91-2.55,2.89Z"/><path class="cls-34" d="M332,236.69c-.05,3.11-.05,3.11-2.87,3,0-1,.05-2,.07-3l2.77-.08Z"/><path class="cls-33" d="M329.18,236.73c0,1,0,2-.07,3h-2.86l.06-3,0,0,2.79-.08Z"/><path class="cls-37" d="M314.87,215.09c0-1,.05-2,.08-3l13.94,0a10.07,10.07,0,0,1,.21,3h-8.47l-5.72,0Z"/><path class="cls-37" d="M334.8,221.28h2.71v6c-.85.4-1.8.11-2.71.23l0,0c0-2,0-4.08,0-6.12Z"/><path class="cls-37" d="M329.1,215.13h2.57c.49,1.07.16,2.09.29,3.06l0,0-2.78,0-.06-3.05Z"/><path class="cls-37" d="M334.81,227.47l0,3h0l-2.81.05c0-1,0-2.07,0-3.1l2.82,0Z"/><path class="cls-37" d="M332,218.19h2.55c.49,1.09.16,2.11.29,3.08l0,0-2.81,0,0-3.06Z"/><path class="cls-37" d="M309.28,218.22l2.78-.09,0,0,0,9.28q0,3,0,6.1h0l-2.79-.05Q309.29,225.86,309.28,218.22Z"/><path class="cls-37" d="M312.13,236.59l-.05-3h2.83l0,3.09,0,0Z"/><path class="cls-19" d="M312.06,218.13c0-1,0-2,.05-3l2.76,0,0,0c0,1,0,2,0,3h-2.82Z"/><path class="cls-22" d="M314.94,236.63l0-3.09,0,0,11.39.06c0,1,0,2.08,0,3.12l0,0Z"/><path class="cls-33" d="M332,236.65l-2.77.08-.1-.12.06-3,2.77-.07.11.12Z"/><path class="cls-33" d="M332,230.55l2.81-.05v2.77c-1,.56-1.91.18-2.76.39l-.11-.12c0-1,0-2,.07-3Z"/><path class="cls-37" d="M329.14,233.61l-.06,3-2.79.08c0-1,0-2.08,0-3.12h2.84Z"/><path class="cls-38" d="M329.09,215.14l.06,3.05-.09,3.07h-2.82v3.07h-2.88V221.2h-2.82v-3l.09-3.06Z"/><path class="cls-22" d="M320.63,215.14l-.09,3.06-2.81,0-2.77,0-.06-.07v-3Z"/><path class="cls-22" d="M332,221.28l2.81,0c0,2,0,4.09,0,6.13l-2.82,0,0,0q0-3,0-6.08Z"/><path class="cls-22" d="M329.06,221.26l.09-3.07,2.78,0,0,3.06,0,0Z"/><path class="cls-22" d="M332,227.45c0,1,0,2.06,0,3.1v0l-2.87,0a9.79,9.79,0,0,1,.19-2.85c.86-.43,1.76-.11,2.62-.25Z"/><path class="cls-22" d="M312.08,218.17h2.82l.06.07c0,1,0,2,0,3l.06,6.06-.08.16h-2.78Z"/><path class="cls-38" d="M312.11,227.45h2.78q0,3,0,6l0,0h-2.82Q312.11,230.49,312.11,227.45Z"/><path class="cls-39" d="M314.88,233.51q0-3,0-6l.08-.16,2.54.22c.54.95-.08,2,.58,2.91a29.17,29.17,0,0,0,5.12-.06c.5-1-.1-2,.48-2.8.81-.36,1.69.12,2.56-.47v-5.84h2.82l2.85.06q0,3,0,6.08c-.86.14-1.76-.18-2.62.25a9.79,9.79,0,0,0-.19,2.85h0c-3.25.05-2.79-.44-2.84,3.07h0Z"/><path class="cls-37" d="M329.11,230.5l2.87,0c0,1,0,2-.07,3l-2.77.07,0,0V230.5Z"/><path class="cls-22" d="M329.11,230.5v3.08h-2.84C326.32,230.06,325.86,230.55,329.11,230.5Z"/><path class="cls-19" d="M326.25,224.33v2.77c-.87.59-1.75.11-2.56.47-.58.78,0,1.84-.48,2.8a29.17,29.17,0,0,1-5.12.06c-.66-.89,0-2-.58-2.91L315,227.3l-.06-6.06c.9-.07,1.84.24,2.82-.27v-2.79l2.81,0v3h2.82v3.12Z"/><path class="cls-39" d="M317.73,218.18V221c-1,.51-1.92.2-2.82.27,0-1,0-2,0-3Z"/></g></g></g></g></svg>