<?xml version="1.0" encoding="utf-8"?>
<!-- Generator: Adobe Illustrator 26.0.1, SVG Export Plug-In . SVG Version: 6.00 Build 0)  -->
<svg version="1.1" id="Layer_1" xmlns="http://www.w3.org/2000/svg" xmlns:xlink="http://www.w3.org/1999/xlink" x="0px" y="0px"
	 viewBox="0 0 378.3 7.3" style="enable-background:new 0 0 378.3 7.3;" xml:space="preserve">
<style type="text/css">
	.st0{fill:#FFE4F9;}
</style>
<g>
	<path class="st0" d="M203,7.3h-5.1c-0.3,0-0.5-0.2-0.5-0.5c0,0,0,0,0,0V2.7c0-0.3,0.2-0.5,0.5-0.5c0,0,0,0,0,0h3.4
		c0.3,0,0.5,0.2,0.5,0.5c0,0,0,0,0,0v2.6c0,0.3-0.2,0.5-0.5,0.5l0,0h-1.8c-0.3,0-0.5-0.2-0.5-0.5c0,0,0,0,0,0V4.6
		c0-0.3,0.2-0.5,0.5-0.5c0,0,0,0,0,0c0.3,0,0.5,0.2,0.5,0.5v0.1h0.8V3.2h-2.3v3h4V1H197v5.7c0,0.3-0.2,0.5-0.5,0.5c0,0,0,0,0,0h-6.5
		c-0.3,0-0.5-0.2-0.5-0.5c0,0,0,0,0,0V0.5c0-0.3,0.2-0.5,0.5-0.5c0,0,0,0,0,0h5.1c0.3,0,0.5,0.2,0.5,0.5v4.1c0,0.3-0.2,0.5-0.5,0.5
		h-3.4c-0.3,0-0.5-0.2-0.5-0.5V2c0-0.3,0.2-0.5,0.5-0.5h1.8c0.3,0,0.6,0.2,0.6,0.5c0,0,0,0,0,0.1v0.6c0,0.3-0.2,0.5-0.5,0.5
		c-0.3,0-0.5-0.2-0.5-0.5V2.5h-0.8v1.5h2.3v-3h-4v5.2h5.5V0.5c0-0.3,0.2-0.5,0.5-0.5c0,0,0,0,0,0h6.5c0.3,0,0.5,0.2,0.5,0.5v6.2
		C203.5,7,203.3,7.3,203,7.3C203,7.3,203,7.3,203,7.3z"/>
	<path class="st0" d="M217.5,7.3h-5.1c-0.3,0-0.5-0.2-0.5-0.5c0,0,0,0,0,0V2.7c0-0.3,0.2-0.5,0.5-0.5l0,0h3.4c0.3,0,0.5,0.2,0.5,0.5
		c0,0,0,0,0,0v2.6c0,0.3-0.2,0.5-0.5,0.5c0,0,0,0,0,0h-1.8c-0.3,0-0.5-0.2-0.5-0.5c0,0,0,0,0,0V4.6c0-0.3,0.2-0.5,0.5-0.5
		c0,0,0,0,0,0c0.3,0,0.5,0.2,0.5,0.5v0.1h0.8V3.2h-2.3v3h4V1h-5.5v5.7c0,0.3-0.2,0.5-0.5,0.5c0,0,0,0,0,0h-6.5
		c-0.3,0-0.5-0.2-0.5-0.5c0,0,0,0,0,0V0.5c0-0.3,0.2-0.5,0.5-0.5h5.1c0.3,0,0.5,0.2,0.5,0.5v4.1c0,0.3-0.2,0.5-0.5,0.5h-3.4
		c-0.3,0-0.5-0.2-0.5-0.5V2c0-0.3,0.2-0.5,0.5-0.5h1.8c0.3,0,0.5,0.2,0.5,0.5v0.6c0,0.3-0.2,0.5-0.5,0.5c-0.3,0-0.5-0.2-0.5-0.5
		c0,0,0,0,0,0V2.5h-0.8v1.5h2.3v-3h-4v5.2h5.5V0.5c0-0.3,0.2-0.5,0.5-0.5c0,0,0,0,0,0h6.5c0.3,0,0.5,0.2,0.5,0.5v6.2
		C218,7,217.8,7.3,217.5,7.3C217.5,7.3,217.5,7.3,217.5,7.3z"/>
	<path class="st0" d="M232,7.3h-5.1c-0.3,0-0.5-0.2-0.5-0.5c0,0,0,0,0,0V2.7c0-0.3,0.2-0.5,0.5-0.5c0,0,0,0,0,0h3.4
		c0.3,0,0.5,0.2,0.5,0.5c0,0,0,0,0,0v2.6c0,0.3-0.2,0.5-0.5,0.5l0,0h-1.8c-0.3,0-0.5-0.2-0.5-0.5c0,0,0,0,0,0V4.6
		c0-0.3,0.2-0.5,0.5-0.5c0,0,0,0,0,0c0.3,0,0.5,0.2,0.5,0.5v0.1h0.8V3.2h-2.3v3h4V1H226v5.7c0,0.3-0.2,0.5-0.5,0.5c0,0,0,0,0,0h-6.5
		c-0.3,0-0.5-0.2-0.5-0.5c0,0,0,0,0,0V0.5c0-0.3,0.2-0.5,0.5-0.5h5.1c0.3,0,0.5,0.2,0.5,0.5v4.1c0,0.3-0.2,0.5-0.5,0.5h-3.4
		c-0.3,0-0.5-0.2-0.5-0.5V2c0-0.3,0.2-0.5,0.5-0.5h1.8c0.3,0,0.5,0.2,0.5,0.5v0.6c0,0.3-0.2,0.5-0.5,0.5s-0.5-0.2-0.5-0.5
		c0,0,0,0,0,0V2.5h-0.8v1.5h2.3v-3h-4v5.2h5.5V0.5c0-0.3,0.2-0.5,0.5-0.5c0,0,0,0,0,0h6.5c0.3,0,0.5,0.2,0.5,0.5v6.2
		C232.5,7,232.3,7.3,232,7.3C232,7.3,232,7.3,232,7.3z"/>
	<path class="st0" d="M246.5,7.3h-5.1c-0.3,0-0.5-0.2-0.5-0.5c0,0,0,0,0,0V2.7c0-0.3,0.2-0.5,0.5-0.5l0,0h3.4c0.3,0,0.5,0.2,0.5,0.5
		c0,0,0,0,0,0v2.6c0,0.3-0.2,0.5-0.5,0.5l0,0H243c-0.3,0-0.5-0.2-0.5-0.5c0,0,0,0,0,0V4.6c0-0.3,0.2-0.5,0.5-0.5c0,0,0,0,0,0
		c0.3,0,0.5,0.2,0.5,0.5v0.1h0.8V3.2H242v3h4V1h-5.5v5.7c0,0.3-0.2,0.5-0.5,0.5c0,0,0,0,0,0h-6.5c-0.3,0-0.5-0.2-0.5-0.5
		c0,0,0,0,0,0V0.5c0-0.3,0.2-0.5,0.5-0.5h5.1c0.3,0,0.5,0.2,0.5,0.5v4.1c0,0.3-0.2,0.5-0.5,0.5h-3.4c-0.3,0-0.5-0.2-0.5-0.5V2
		c0-0.3,0.2-0.5,0.5-0.5h1.8c0.3,0,0.5,0.2,0.5,0.5v0.6c0,0.3-0.2,0.5-0.5,0.5c-0.3,0-0.5-0.2-0.5-0.5c0,0,0,0,0,0V2.5h-0.8v1.5h2.3
		v-3h-4v5.2h5.5V0.5c0-0.3,0.2-0.5,0.5-0.5c0,0,0,0,0,0h6.5c0.3,0,0.5,0.2,0.5,0.5v6.2C247.1,7,246.8,7.3,246.5,7.3
		C246.5,7.3,246.5,7.3,246.5,7.3z"/>
	<path class="st0" d="M261.1,7.3h-5.1c-0.3,0-0.5-0.2-0.5-0.5c0,0,0,0,0,0V2.7c0-0.3,0.2-0.5,0.5-0.5c0,0,0,0,0,0h3.4
		c0.3,0,0.5,0.2,0.5,0.5c0,0,0,0,0,0v2.6c0,0.3-0.2,0.5-0.5,0.5c0,0,0,0,0,0h-1.8c-0.3,0-0.5-0.2-0.5-0.5c0,0,0,0,0,0V4.6
		c0-0.3,0.2-0.5,0.5-0.5c0.3,0,0.5,0.2,0.5,0.5c0,0,0,0,0,0v0.1h0.8V3.2h-2.3v3h4V1h-5.5v5.7c0,0.3-0.2,0.5-0.5,0.5l0,0h-6.5
		c-0.3,0-0.5-0.2-0.5-0.5c0,0,0,0,0,0V0.5c0-0.3,0.2-0.5,0.5-0.5h5.1c0.3,0,0.5,0.2,0.5,0.5c0,0,0,0,0,0v4.1c0,0.3-0.2,0.5-0.5,0.5
		c0,0,0,0,0,0h-3.3c-0.3,0-0.5-0.2-0.5-0.5c0,0,0,0,0,0V2c0-0.3,0.2-0.5,0.5-0.5c0,0,0,0,0,0h1.8c0.3,0,0.5,0.2,0.5,0.5c0,0,0,0,0,0
		v0.6c0,0.3-0.2,0.5-0.5,0.5c0,0,0,0,0,0c-0.3,0-0.5-0.2-0.5-0.5V2.5h-0.8v1.5h2.3v-3h-4v5.2h5.5V0.5c0-0.3,0.2-0.5,0.5-0.5h6.5
		c0.3,0,0.5,0.2,0.5,0.5v6.2C261.7,7,261.5,7.3,261.1,7.3C261.2,7.3,261.2,7.3,261.1,7.3z"/>
	<path class="st0" d="M275.7,7.3h-5.1c-0.3,0-0.5-0.2-0.5-0.5c0,0,0,0,0,0V2.7c0-0.3,0.2-0.5,0.5-0.5c0,0,0,0,0,0h3.4
		c0.3,0,0.5,0.2,0.5,0.5c0,0,0,0,0,0v2.6c0,0.3-0.2,0.5-0.5,0.5c0,0,0,0,0,0h-1.8c-0.3,0-0.5-0.2-0.5-0.5c0,0,0,0,0,0V4.6
		c0-0.3,0.2-0.5,0.5-0.5c0.3,0,0.5,0.2,0.5,0.5c0,0,0,0,0,0v0.1h0.8V3.2h-2.3v3h4V1h-5.5v5.7c0,0.3-0.2,0.5-0.5,0.5c0,0,0,0,0,0
		h-6.6c-0.3,0-0.5-0.2-0.5-0.5c0,0,0,0,0,0V0.5c0-0.3,0.2-0.5,0.5-0.5h5.1c0.3,0,0.5,0.2,0.5,0.5v4.1c0,0.3-0.2,0.5-0.5,0.5h-3.4
		c-0.3,0-0.5-0.2-0.5-0.5c0,0,0,0,0,0V2c0-0.3,0.2-0.5,0.5-0.5c0,0,0,0,0,0h1.8c0.3,0,0.5,0.2,0.5,0.5c0,0,0,0,0,0v0.6
		c0,0.3-0.2,0.5-0.5,0.5c0,0,0,0,0,0c-0.3,0-0.5-0.2-0.5-0.5V2.5h-0.8v1.5h2.3v-3h-4v5.2h5.5V0.5c0-0.3,0.2-0.5,0.5-0.5h6.5
		c0.3,0,0.5,0.2,0.5,0.5c0,0,0,0,0,0v6.2C276.2,7,276,7.3,275.7,7.3C275.7,7.3,275.7,7.3,275.7,7.3z"/>
	<path class="st0" d="M290.3,7.3h-5.1c-0.3,0-0.5-0.2-0.5-0.5c0,0,0,0,0,0V2.7c0-0.3,0.2-0.5,0.5-0.5c0,0,0,0,0,0h3.4
		c0.3,0,0.5,0.2,0.5,0.5c0,0,0,0,0,0v2.6c0,0.3-0.2,0.5-0.5,0.5c0,0,0,0,0,0h-1.8c-0.3,0-0.5-0.2-0.5-0.5c0,0,0,0,0,0V4.6
		c0-0.3,0.2-0.5,0.5-0.5c0.3,0,0.5,0.2,0.5,0.5v0.1h0.8V3.2h-2.3v3h4V1h-5.5v5.7c0,0.3-0.2,0.5-0.5,0.5h-6.5c-0.3,0-0.5-0.2-0.5-0.5
		V0.5c0-0.3,0.2-0.5,0.5-0.5c0,0,0,0,0,0h5.1c0.3,0,0.5,0.2,0.5,0.5c0,0,0,0,0,0v4.1c0,0.3-0.2,0.5-0.5,0.5c0,0,0,0,0,0h-3.4
		c-0.3,0-0.5-0.2-0.5-0.5c0,0,0,0,0,0V2c0-0.3,0.2-0.5,0.5-0.5c0,0,0,0,0,0h1.8c0.3,0,0.5,0.2,0.5,0.5c0,0,0,0,0,0v0.6
		c0,0.3-0.2,0.5-0.5,0.5c0,0,0,0,0,0c-0.3,0-0.5-0.2-0.5-0.5V2.5h-0.8v1.5h2.3v-3h-4v5.2h5.5V0.5c0-0.3,0.2-0.5,0.5-0.5h6.5
		c0.3,0,0.5,0.2,0.5,0.5c0,0,0,0,0,0v6.2C290.8,7,290.6,7.3,290.3,7.3z"/>
	<path class="st0" d="M305.1,7.3H300c-0.3,0-0.5-0.2-0.5-0.5c0,0,0,0,0,0V2.7c0-0.3,0.2-0.5,0.5-0.5c0,0,0,0,0,0h3.4
		c0.3,0,0.5,0.2,0.5,0.5c0,0,0,0,0,0v2.6c0,0.3-0.2,0.5-0.5,0.5c0,0,0,0,0,0h-1.8c-0.3,0-0.5-0.2-0.5-0.5V4.6c0-0.3,0.2-0.5,0.5-0.5
		c0,0,0,0,0,0c0.3,0,0.5,0.2,0.5,0.5v0.1h0.8V3.2h-2.3v3h4V1H299v5.7c0,0.3-0.2,0.5-0.5,0.5c0,0,0,0,0,0H292c-0.3,0-0.5-0.2-0.5-0.5
		c0,0,0,0,0,0V0.5c0-0.3,0.2-0.5,0.5-0.5h5.1c0.3,0,0.5,0.2,0.5,0.5v4.1c0,0.3-0.2,0.5-0.5,0.5h-3.4c-0.3,0-0.5-0.2-0.5-0.5V2
		c0-0.3,0.2-0.5,0.5-0.5h1.8c0.3,0,0.5,0.2,0.5,0.5v0.6c0,0.3-0.2,0.5-0.5,0.5c-0.3,0-0.5-0.2-0.5-0.5V2.5h-0.8v1.5h2.3v-3h-4v5.2
		h5.5V0.5c0-0.3,0.2-0.5,0.5-0.5c0,0,0,0,0,0h6.5c0.3,0,0.5,0.2,0.5,0.5v6.2C305.6,7,305.4,7.3,305.1,7.3z"/>
	<path class="st0" d="M319.6,7.3h-5.1c-0.3,0-0.5-0.2-0.5-0.5c0,0,0,0,0,0V2.7c0-0.3,0.2-0.5,0.5-0.5c0,0,0,0,0,0h3.4
		c0.3,0,0.5,0.2,0.5,0.5v2.6c0,0.3-0.2,0.5-0.5,0.5h-1.8c-0.3,0-0.5-0.2-0.5-0.5V4.6c0-0.3,0.2-0.5,0.5-0.5c0,0,0,0,0,0
		c0.3,0,0.5,0.2,0.5,0.5v0.1h0.8V3.2h-2.3v3h4V1h-5.5v5.7c0,0.3-0.2,0.5-0.5,0.5c0,0,0,0,0,0h-6.5c-0.3,0-0.5-0.2-0.5-0.5
		c0,0,0,0,0,0V0.5c0-0.3,0.2-0.5,0.5-0.5h5.1c0.3,0,0.5,0.2,0.5,0.5v4.1c0,0.3-0.2,0.5-0.5,0.5h-3.4c-0.3,0-0.5-0.2-0.5-0.5V2
		c0-0.3,0.2-0.5,0.5-0.5h1.8c0.3,0,0.5,0.2,0.5,0.5v0.6c0,0.3-0.2,0.5-0.5,0.5c-0.3,0-0.5-0.2-0.5-0.5c0,0,0,0,0,0V2.5h-0.8v1.5h2.3
		v-3h-4v5.2h5.5V0.5c0-0.3,0.2-0.5,0.5-0.5c0,0,0,0,0,0h6.5c0.3,0,0.5,0.2,0.5,0.5v6.2C320.1,7,319.9,7.3,319.6,7.3
		C319.6,7.3,319.6,7.3,319.6,7.3z"/>
	<path class="st0" d="M334.1,7.3H329c-0.3,0-0.5-0.2-0.5-0.5c0,0,0,0,0,0V2.7c0-0.3,0.2-0.5,0.5-0.5c0,0,0,0,0,0h3.4
		c0.3,0,0.5,0.2,0.5,0.5v2.6c0,0.3-0.2,0.5-0.5,0.5h-1.8c-0.3,0-0.5-0.2-0.5-0.5V4.6c0-0.3,0.2-0.5,0.5-0.5c0,0,0,0,0,0
		c0.3,0,0.5,0.2,0.5,0.5v0.1h0.8V3.2h-2.3v3h4V1h-5.5v5.7c0,0.3-0.2,0.5-0.5,0.5c0,0,0,0,0,0H321c-0.3,0-0.5-0.2-0.5-0.5
		c0,0,0,0,0,0V0.5c0-0.3,0.2-0.5,0.5-0.5h5.1c0.3,0,0.5,0.2,0.5,0.5v4.1c0,0.3-0.2,0.5-0.5,0.5h-3.4c-0.3,0-0.5-0.2-0.5-0.5V2
		c0-0.3,0.2-0.5,0.5-0.5h1.8c0.3,0,0.5,0.2,0.5,0.5v0.6c0,0.3-0.2,0.5-0.5,0.5c-0.3,0-0.5-0.2-0.5-0.5c0,0,0,0,0,0V2.5h-0.8v1.5h2.3
		v-3h-4v5.2h5.5V0.5c0-0.3,0.2-0.5,0.5-0.5c0,0,0,0,0,0h6.5c0.3,0,0.5,0.2,0.5,0.5v6.2C334.6,7,334.4,7.3,334.1,7.3
		C334.1,7.3,334.1,7.3,334.1,7.3z"/>
	<path class="st0" d="M348.6,7.3h-5.1c-0.3,0-0.5-0.2-0.5-0.5V2.7c0-0.3,0.2-0.5,0.5-0.5h3.4c0.3,0,0.5,0.2,0.5,0.5v2.6
		c0,0.3-0.2,0.5-0.5,0.5h-1.8c-0.3,0-0.5-0.2-0.5-0.5V4.6c0-0.3,0.2-0.5,0.5-0.5c0,0,0,0,0,0c0.3,0,0.5,0.2,0.5,0.5v0.1h0.8V3.2
		h-2.3v3h4V1h-5.5v5.7c0,0.3-0.2,0.5-0.5,0.5c0,0,0,0,0,0h-6.5c-0.3,0-0.5-0.2-0.5-0.5c0,0,0,0,0,0V0.5c0-0.3,0.2-0.5,0.5-0.5h5.1
		c0.3,0,0.5,0.2,0.5,0.5v4.1c0,0.3-0.2,0.5-0.5,0.5h-3.4c-0.3,0-0.5-0.2-0.5-0.5V2c0-0.3,0.2-0.5,0.5-0.5h1.8c0.3,0,0.5,0.2,0.5,0.5
		v0.6c0,0.3-0.2,0.5-0.5,0.5c-0.3,0-0.5-0.2-0.5-0.5c0,0,0,0,0,0V2.5h-0.8v1.5h2.3v-3h-4v5.2h5.5V0.5c0-0.3,0.2-0.5,0.5-0.5
		c0,0,0,0,0,0h6.5c0.3,0,0.5,0.2,0.5,0.5v6.2C349.2,7,348.9,7.3,348.6,7.3C348.6,7.3,348.6,7.3,348.6,7.3z"/>
	<path class="st0" d="M363.3,7.3h-5.1c-0.3,0-0.5-0.2-0.5-0.5c0,0,0,0,0,0V2.7c0-0.3,0.2-0.5,0.5-0.5c0,0,0,0,0,0h3.4
		c0.3,0,0.5,0.2,0.5,0.5c0,0,0,0,0,0v2.6c0,0.3-0.2,0.5-0.5,0.5c0,0,0,0,0,0h-1.8c-0.3,0-0.5-0.2-0.5-0.5c0,0,0,0,0,0V4.6
		c0-0.3,0.2-0.5,0.5-0.5c0.3,0,0.5,0.2,0.5,0.5c0,0,0,0,0,0v0.1h0.8V3.2h-2.3v3h4V1h-5.5v5.7c0,0.3-0.2,0.5-0.5,0.5h-6.5
		c-0.3,0-0.5-0.2-0.5-0.5c0,0,0,0,0,0V0.5c0-0.3,0.2-0.5,0.5-0.5h5.1c0.3,0,0.5,0.2,0.5,0.5v4.1c0,0.3-0.2,0.5-0.5,0.5H352
		c-0.3,0-0.5-0.2-0.5-0.5V2c0-0.3,0.2-0.5,0.5-0.5h1.8c0.3,0,0.5,0.2,0.5,0.5c0,0,0,0,0,0v0.6c0,0.3-0.2,0.5-0.5,0.5c0,0,0,0,0,0
		c-0.3,0-0.5-0.2-0.5-0.5V2.5h-0.8v1.5h2.3v-3h-4v5.2h5.5V0.5c0-0.3,0.2-0.5,0.5-0.5h6.5c0.3,0,0.5,0.2,0.5,0.5v6.2
		C363.9,7,363.6,7.3,363.3,7.3C363.3,7.3,363.3,7.3,363.3,7.3z"/>
	<path class="st0" d="M377.8,7.3h-5.1c-0.3,0-0.5-0.2-0.5-0.5c0,0,0,0,0,0V2.7c0-0.3,0.2-0.5,0.5-0.5c0,0,0,0,0,0h3.4
		c0.3,0,0.5,0.2,0.5,0.5c0,0,0,0,0,0v2.6c0,0.3-0.2,0.5-0.5,0.5c0,0,0,0,0,0h-1.8c-0.3,0-0.5-0.2-0.5-0.5c0,0,0,0,0,0V4.6
		c0-0.3,0.2-0.5,0.5-0.5c0.3,0,0.5,0.2,0.5,0.5c0,0,0,0,0,0v0.1h0.8V3.2h-2.3v3h4V1h-5.5v5.7c0,0.3-0.2,0.5-0.5,0.5h-6.5
		c-0.3,0-0.5-0.2-0.5-0.5c0,0,0,0,0,0V0.5c0-0.3,0.2-0.5,0.5-0.5h5.1c0.3,0,0.5,0.2,0.5,0.5c0,0,0,0,0,0v4.1c0,0.3-0.2,0.5-0.5,0.5
		c0,0,0,0,0,0h-3.4c-0.3,0-0.5-0.2-0.5-0.5V2c0-0.3,0.2-0.5,0.5-0.5h1.8c0.3,0,0.5,0.2,0.5,0.5c0,0,0,0,0,0v0.6
		c0,0.3-0.2,0.5-0.5,0.5c0,0,0,0,0,0c-0.3,0-0.5-0.2-0.5-0.5V2.5H367v1.5h2.3v-3h-4v5.2h5.5V0.5c0-0.3,0.2-0.5,0.5-0.5h6.5
		c0.3,0,0.5,0.2,0.5,0.5v6.2C378.4,7,378.1,7.3,377.8,7.3C377.8,7.3,377.8,7.3,377.8,7.3z"/>
	<path class="st0" d="M13.6,7.3H8.5C8.2,7.3,8,7,8,6.8c0,0,0,0,0,0V2.7c0-0.3,0.2-0.5,0.5-0.5c0,0,0,0,0,0h3.4
		c0.3,0,0.5,0.2,0.5,0.5c0,0,0,0,0,0v2.6c0,0.3-0.2,0.5-0.5,0.5l0,0h-1.8c-0.3,0-0.5-0.2-0.5-0.5c0,0,0,0,0,0V4.6
		C9.5,4.3,9.7,4.1,10,4c0.3,0,0.6,0.2,0.6,0.5c0,0,0,0.1,0,0.1v0.1h0.8V3.2H9v3h4V1H7.6v5.7c0,0.3-0.2,0.5-0.5,0.5c0,0,0,0,0,0H0.5
		C0.2,7.3,0,7,0,6.8c0,0,0,0,0,0V0.5C0,0.2,0.2,0,0.5,0h5.1c0.3,0,0.5,0.2,0.5,0.5v4.1c0,0.3-0.2,0.5-0.5,0.5H2.2
		c-0.3,0-0.5-0.2-0.5-0.5V2c0-0.3,0.2-0.5,0.5-0.5H4c0.3,0,0.5,0.2,0.5,0.5c0,0,0,0,0,0v0.6c0,0.3-0.2,0.5-0.5,0.5
		c-0.3,0-0.5-0.2-0.5-0.5c0,0,0,0,0,0V2.5H2.8v1.5h2.3v-3h-4v5.2h5.5V0.5C6.5,0.2,6.7,0,7,0c0,0,0,0,0,0h6.5c0.3,0,0.5,0.2,0.5,0.5
		v6.2C14.1,7,13.9,7.3,13.6,7.3C13.6,7.3,13.6,7.3,13.6,7.3z"/>
	<path class="st0" d="M28.1,7.3H23c-0.3,0-0.5-0.2-0.5-0.5v0V2.7c0-0.3,0.2-0.5,0.5-0.5l0,0h3.4c0.3,0,0.5,0.2,0.5,0.5c0,0,0,0,0,0
		v2.6c0,0.3-0.2,0.5-0.5,0.5l0,0h-1.8c-0.3,0-0.5-0.2-0.5-0.5c0,0,0,0,0,0V4.6c0-0.3,0.2-0.6,0.5-0.6s0.6,0.2,0.6,0.5
		c0,0,0,0.1,0,0.1v0.1h0.8V3.2h-2.3v3h4V1h-5.5v5.7c0,0.3-0.2,0.5-0.5,0.5l0,0H15c-0.3,0-0.5-0.2-0.5-0.5c0,0,0,0,0,0V0.5
		C14.5,0.2,14.7,0,15,0h5.1c0.3,0,0.5,0.2,0.5,0.5c0,0,0,0,0,0v4.1c0,0.3-0.2,0.5-0.5,0.5c0,0,0,0,0,0h-3.3c-0.3,0-0.5-0.2-0.5-0.5
		v0V2c0-0.3,0.2-0.5,0.5-0.5l0,0h1.8c0.3,0,0.5,0.2,0.5,0.5c0,0,0,0,0,0v0.6c0,0.3-0.2,0.5-0.5,0.5l0,0c-0.3,0-0.5-0.2-0.5-0.5
		c0,0,0,0,0,0V2.5h-0.8v1.5h2.3v-3h-4v5.2h5.5V0.5c0-0.3,0.2-0.5,0.5-0.5h6.5c0.3,0,0.5,0.2,0.5,0.5c0,0,0,0,0,0v6.2
		C28.6,7,28.4,7.3,28.1,7.3C28.1,7.3,28.1,7.3,28.1,7.3z"/>
	<path class="st0" d="M42.6,7.3h-5.1c-0.3,0-0.5-0.2-0.5-0.5c0,0,0,0,0,0V2.7c0-0.3,0.2-0.5,0.5-0.5l0,0h3.4c0.3,0,0.5,0.2,0.5,0.5
		c0,0,0,0,0,0v2.6c0,0.3-0.2,0.5-0.5,0.5l0,0h-1.8c-0.3,0-0.5-0.2-0.5-0.5c0,0,0,0,0,0V4.6c-0.1-0.3,0-0.6,0.3-0.7s0.6,0,0.7,0.3
		c0,0.1,0,0.2,0,0.4v0.1h0.8V3.2H38v3h4V1h-5.4v5.7c0,0.3-0.2,0.5-0.5,0.5l0,0h-6.5c-0.3,0-0.5-0.2-0.5-0.5c0,0,0,0,0,0V0.5
		C29,0.2,29.2,0,29.5,0c0,0,0,0,0,0h5.1c0.3,0,0.5,0.2,0.5,0.5v4.1c0,0.3-0.2,0.5-0.5,0.5h-3.4c-0.3,0-0.5-0.2-0.5-0.5v0V2
		c0-0.3,0.2-0.5,0.5-0.5l0,0h1.8c0.3,0,0.5,0.2,0.5,0.5v0.6c0,0.3-0.2,0.5-0.5,0.5c-0.3,0-0.5-0.2-0.5-0.5c0,0,0,0,0,0V2.5h-0.8v1.5
		h2.3v-3h-4v5.2h5.5V0.5c0-0.3,0.2-0.5,0.5-0.5h6.5c0.3,0,0.5,0.2,0.5,0.5v6.2C43.1,7,42.9,7.3,42.6,7.3C42.6,7.3,42.6,7.3,42.6,7.3
		z"/>
	<path class="st0" d="M57.1,7.3H52c-0.3,0-0.5-0.2-0.5-0.5v0V2.7c0-0.3,0.2-0.5,0.5-0.5l0,0h3.4c0.3,0,0.5,0.2,0.5,0.5c0,0,0,0,0,0
		v2.6c0,0.3-0.2,0.5-0.5,0.5c0,0,0,0,0,0h-1.8c-0.3,0-0.5-0.2-0.5-0.5v0V4.6c-0.1-0.3,0-0.6,0.3-0.7s0.6,0,0.7,0.3
		c0,0.1,0,0.2,0,0.4v0.1h0.8V3.2h-2.3v3h4V1h-5.4v5.7c0,0.3-0.2,0.5-0.5,0.5c0,0,0,0,0,0H44c-0.3,0-0.5-0.2-0.5-0.5c0,0,0,0,0,0V0.5
		C43.5,0.2,43.8,0,44,0h5.1c0.3,0,0.5,0.2,0.5,0.5c0,0,0,0,0,0v4.1c0,0.3-0.2,0.5-0.5,0.5c0,0,0,0,0,0h-3.4c-0.3,0-0.5-0.2-0.5-0.5
		V2c0-0.3,0.2-0.5,0.5-0.5h1.8c0.3,0,0.5,0.2,0.5,0.5v0.6c0,0.3-0.2,0.5-0.5,0.5c-0.3,0-0.5-0.2-0.5-0.5c0,0,0,0,0,0V2.5h-0.8v1.5
		h2.3v-3h-4v5.2h5.5V0.5c0-0.3,0.2-0.5,0.5-0.5c0,0,0,0,0,0h6.5c0.3,0,0.5,0.2,0.5,0.5v6.2C57.6,7,57.4,7.3,57.1,7.3
		C57.1,7.3,57.1,7.3,57.1,7.3z"/>
	<path class="st0" d="M71.8,7.3h-5.1c-0.3,0-0.5-0.2-0.5-0.5c0,0,0,0,0,0V2.7c0-0.3,0.2-0.5,0.5-0.5c0,0,0,0,0,0h3.3
		c0.3,0,0.5,0.2,0.5,0.5c0,0,0,0,0,0v2.6c0,0.3-0.2,0.5-0.5,0.5c0,0,0,0,0,0h-1.8c-0.3,0-0.5-0.2-0.5-0.5c0,0,0,0,0,0V4.6
		c0-0.3,0.2-0.5,0.5-0.5c0.3,0,0.5,0.2,0.5,0.5v0.1h0.8V3.2h-2.3v3h4V1h-5.5v5.7c0,0.3-0.2,0.5-0.5,0.5c0,0,0,0,0,0h-6.5
		c-0.3,0-0.5-0.2-0.5-0.5v0V0.5c0-0.3,0.2-0.5,0.5-0.5c0,0,0,0,0,0h5.1c0.3,0,0.5,0.2,0.5,0.5c0,0,0,0,0,0v4.1
		c0,0.3-0.2,0.5-0.5,0.5h-3.4c-0.3,0-0.5-0.2-0.5-0.5V2c0-0.3,0.2-0.5,0.5-0.5h1.8c0.3,0,0.5,0.2,0.5,0.5v0.6c0,0.3-0.2,0.5-0.5,0.5
		c-0.3,0-0.5-0.2-0.5-0.5V2.5H61v1.5h2.3v-3h-4v5.2h5.5V0.5C64.8,0.3,65,0,65.3,0h6.5c0.3,0,0.5,0.2,0.5,0.5c0,0,0,0,0,0v6.2
		C72.3,7,72.1,7.3,71.8,7.3z"/>
	<path class="st0" d="M86.3,7.3h-5.1c-0.3,0-0.5-0.2-0.5-0.5c0,0,0,0,0,0V2.7c0-0.3,0.2-0.5,0.5-0.5c0,0,0,0,0,0h3.3
		c0.3,0,0.5,0.2,0.5,0.5c0,0,0,0,0,0v2.6c0,0.3-0.2,0.5-0.5,0.5c0,0,0,0,0,0h-1.8c-0.3,0-0.5-0.2-0.5-0.5c0,0,0,0,0,0V4.6
		c0-0.3,0.2-0.5,0.5-0.5c0.3,0,0.5,0.2,0.5,0.5v0.1h0.8V3.2h-2.3v3h4V1h-5.5v5.7c0,0.3-0.2,0.5-0.5,0.5c0,0,0,0,0,0h-6.5
		c-0.3,0-0.5-0.2-0.5-0.5V0.5c0-0.3,0.2-0.5,0.5-0.5c0,0,0,0,0,0h5.1c0.3,0,0.5,0.2,0.5,0.5v4.1c0,0.3-0.2,0.5-0.5,0.5H75
		c-0.3,0-0.5-0.2-0.5-0.5V2c0-0.3,0.2-0.5,0.5-0.5h1.8c0.3,0,0.5,0.2,0.5,0.5v0.6c0,0.3-0.2,0.5-0.5,0.5c-0.3,0-0.5-0.2-0.5-0.5
		c0,0,0,0,0,0V2.5h-0.8v1.5h2.3v-3h-4v5.2h5.5V0.5c0-0.3,0.2-0.5,0.5-0.5h6.5c0.3,0,0.5,0.2,0.5,0.5c0,0,0,0,0,0v6.2
		C86.8,7,86.6,7.3,86.3,7.3z"/>
	<path class="st0" d="M100.9,7.3h-5.1c-0.3,0-0.5-0.2-0.5-0.5c0,0,0,0,0,0V2.7c0-0.3,0.2-0.5,0.5-0.5c0,0,0,0,0,0h3.3
		c0.3,0,0.5,0.2,0.5,0.5c0,0,0,0,0,0v2.6c0,0.3-0.2,0.5-0.5,0.5c0,0,0,0,0,0h-1.8c-0.3,0-0.5-0.2-0.5-0.5c0,0,0,0,0,0V4.6
		c0-0.3,0.2-0.5,0.5-0.5c0.3,0,0.5,0.2,0.5,0.5v0.1h0.8V3.2h-2.3v3h4V1h-5.5v5.7c0,0.3-0.2,0.5-0.5,0.5c0,0,0,0,0,0h-6.5
		c-0.3,0-0.5-0.2-0.5-0.5V0.5c0-0.3,0.2-0.5,0.5-0.5c0,0,0,0,0,0h5.1c0.3,0,0.5,0.2,0.5,0.5v4.1c0,0.3-0.2,0.5-0.5,0.5h-3.3
		c-0.3,0-0.5-0.2-0.6-0.5c0,0,0,0,0,0V2c0-0.3,0.2-0.5,0.5-0.5h1.8c0.3,0,0.5,0.2,0.5,0.5v0.6c0,0.3-0.2,0.5-0.5,0.5
		c-0.3,0-0.5-0.2-0.5-0.5c0,0,0,0,0,0V2.5H90v1.5h2.3v-3h-4v5.2h5.5V0.5c0-0.3,0.2-0.5,0.5-0.5c0,0,0,0,0,0h6.5
		c0.3,0,0.5,0.2,0.5,0.5c0,0,0,0,0,0v6.2C101.4,7,101.2,7.3,100.9,7.3z"/>
	<path class="st0" d="M115.7,7.3h-5.1c-0.3,0-0.5-0.2-0.5-0.5V2.7c0-0.3,0.2-0.5,0.5-0.5h3.3c0.3,0,0.5,0.2,0.5,0.5v2.6
		c0,0.3-0.2,0.5-0.5,0.5h-1.8c-0.3,0-0.5-0.2-0.5-0.5V4.6c-0.1-0.3,0-0.6,0.3-0.7c0.3-0.1,0.6,0,0.7,0.3c0,0.1,0,0.2,0,0.4v0.1h0.8
		V3.2h-2.3v3h4V1h-5.5v5.7c0,0.3-0.2,0.5-0.5,0.5c0,0,0,0,0,0h-6.5c-0.3,0-0.5-0.2-0.5-0.5c0,0,0,0,0,0V0.5c0-0.3,0.2-0.5,0.5-0.5
		h5.1c0.3,0,0.5,0.2,0.5,0.5v4.1c0,0.3-0.2,0.5-0.5,0.5h-3.3c-0.3,0-0.5-0.2-0.5-0.5V2c0-0.3,0.2-0.5,0.5-0.5h1.8
		c0.3,0,0.5,0.2,0.5,0.5v0.6c0,0.3-0.2,0.5-0.5,0.5c-0.3,0-0.5-0.2-0.5-0.5c0,0,0,0,0,0V2.5h-0.8v1.5h2.3v-3h-4v5.2h5.5V0.5
		c0-0.3,0.2-0.5,0.5-0.5c0,0,0,0,0.1,0h6.5c0.3,0,0.5,0.2,0.5,0.5v6.2C116.3,7,116,7.3,115.7,7.3C115.7,7.3,115.7,7.3,115.7,7.3z"/>
	<path class="st0" d="M130.2,7.3h-5.1c-0.3,0-0.5-0.2-0.5-0.5V2.7c0-0.3,0.2-0.5,0.5-0.5h3.4c0.3,0,0.5,0.2,0.5,0.5c0,0,0,0,0,0v2.6
		c0,0.3-0.2,0.5-0.5,0.5l0,0h-1.8c-0.3,0-0.5-0.2-0.5-0.5V4.6c-0.1-0.3,0-0.6,0.3-0.7c0.3-0.1,0.6,0,0.7,0.3c0,0.1,0,0.2,0,0.4v0.1
		h0.8V3.2h-2.3v3h4V1h-5.5v5.7c0,0.3-0.2,0.5-0.5,0.5c0,0,0,0,0,0h-6.5c-0.3,0-0.5-0.2-0.5-0.5c0,0,0,0,0,0V0.5
		c0-0.3,0.2-0.5,0.5-0.5h5.1c0.3,0,0.5,0.2,0.5,0.5c0,0,0,0,0,0v4.1c0,0.3-0.2,0.5-0.5,0.5c0,0,0,0,0,0h-3.4c-0.3,0-0.5-0.2-0.5-0.5
		V2c0-0.3,0.2-0.5,0.5-0.5h1.8c0.3,0,0.5,0.2,0.5,0.5v0.6c0,0.3-0.2,0.5-0.5,0.5c-0.3,0-0.5-0.2-0.5-0.5c0,0,0,0,0,0V2.5h-0.8v1.5
		h2.3v-3h-4v5.2h5.5V0.5c0-0.3,0.2-0.5,0.5-0.5c0,0,0,0,0,0h6.5c0.3,0,0.5,0.2,0.5,0.5v6.2C130.8,7,130.5,7.3,130.2,7.3
		C130.2,7.3,130.2,7.3,130.2,7.3z"/>
	<path class="st0" d="M144.7,7.3h-5.1c-0.3,0-0.5-0.2-0.5-0.5c0,0,0,0,0,0V2.7c0-0.3,0.2-0.5,0.5-0.5l0,0h3.4c0.3,0,0.5,0.2,0.5,0.5
		c0,0,0,0,0,0v2.6c0,0.3-0.2,0.5-0.5,0.5l0,0h-1.8c-0.3,0-0.5-0.2-0.5-0.5c0,0,0,0,0,0V4.6c0-0.3,0.2-0.6,0.5-0.6
		c0.3,0,0.6,0.2,0.6,0.5c0,0,0,0.1,0,0.1v0.1h0.8V3.2h-2.3v3h4V1h-5.5v5.7c0,0.3-0.2,0.5-0.5,0.5c0,0,0,0,0,0h-6.5
		c-0.3,0-0.5-0.2-0.5-0.5c0,0,0,0,0,0V0.5c0-0.3,0.2-0.5,0.5-0.5h5.1c0.3,0,0.5,0.2,0.5,0.5v4.1c0,0.3-0.2,0.5-0.5,0.5h-3.3
		c-0.3,0-0.5-0.2-0.5-0.5c0,0,0,0,0,0V2c0-0.3,0.2-0.5,0.5-0.5c0,0,0,0,0,0h1.8c0.3,0,0.5,0.2,0.5,0.5v0.6c0,0.3-0.2,0.5-0.5,0.5
		c-0.3,0-0.5-0.2-0.5-0.5c0,0,0,0,0,0V2.5h-0.8v1.5h2.3v-3h-4v5.2h5.5V0.5c0-0.3,0.2-0.5,0.5-0.5c0,0,0,0,0,0h6.5
		c0.3,0,0.5,0.2,0.5,0.5v6.2C145.3,7,145.1,7.3,144.7,7.3C144.8,7.3,144.8,7.3,144.7,7.3z"/>
	<path class="st0" d="M159.3,7.3h-5.1c-0.3,0-0.5-0.2-0.5-0.5c0,0,0,0,0,0V2.7c0-0.3,0.2-0.5,0.5-0.5l0,0h3.4c0.3,0,0.5,0.2,0.5,0.5
		c0,0,0,0,0,0v2.6c0,0.3-0.2,0.5-0.5,0.5l0,0h-1.8c-0.3,0-0.5-0.2-0.5-0.5c0,0,0,0,0,0V4.6c-0.1-0.3,0-0.6,0.3-0.7s0.6,0,0.7,0.3
		c0,0.1,0,0.2,0,0.4v0.1h0.8V3.2h-2.3v3h4V1h-5.5v5.7c0,0.3-0.2,0.5-0.5,0.5c0,0,0,0,0,0h-6.5c-0.3,0-0.5-0.2-0.5-0.5c0,0,0,0,0,0
		V0.5c0-0.3,0.2-0.5,0.5-0.5h5.1c0.3,0,0.5,0.2,0.5,0.5c0,0,0,0,0,0v4.1c0,0.3-0.2,0.5-0.5,0.5c0,0,0,0,0,0h-3.4
		c-0.3,0-0.5-0.2-0.5-0.5V2c0-0.3,0.2-0.5,0.5-0.5h1.8c0.3,0,0.5,0.2,0.5,0.5v0.6c0,0.3-0.2,0.5-0.5,0.5c-0.3,0-0.5-0.2-0.5-0.5
		c0,0,0,0,0,0V2.5h-0.8v1.5h2.3v-3h-4v5.2h5.5V0.5c0-0.3,0.2-0.5,0.5-0.5c0,0,0,0,0,0h6.5c0.3,0,0.5,0.2,0.5,0.5v6.2
		C159.8,7,159.6,7.3,159.3,7.3C159.3,7.3,159.3,7.3,159.3,7.3z"/>
	<path class="st0" d="M174,7.3h-5.1c-0.3,0-0.5-0.2-0.5-0.5c0,0,0,0,0,0V2.7c0-0.3,0.2-0.5,0.5-0.5c0,0,0,0,0,0h3.4
		c0.3,0,0.5,0.2,0.5,0.5c0,0,0,0,0,0v2.6c0,0.3-0.2,0.5-0.5,0.5c0,0,0,0,0,0h-1.8c-0.3,0-0.5-0.2-0.5-0.5c0,0,0,0,0,0V4.6
		c0-0.3,0.2-0.5,0.5-0.5c0.3,0,0.5,0.2,0.5,0.5v0.1h0.8V3.2h-2.3v3h4V1H168v5.7c0,0.3-0.2,0.5-0.5,0.5l0,0h-6.5
		c-0.3,0-0.5-0.2-0.5-0.5c0,0,0,0,0,0V0.5c0-0.3,0.2-0.5,0.5-0.5c0,0,0,0,0,0h5.1c0.3,0,0.5,0.2,0.5,0.5v4.1c0,0.3-0.2,0.5-0.5,0.5
		h-3.4c-0.3,0-0.5-0.2-0.5-0.5V2c0-0.3,0.2-0.5,0.5-0.5h1.8c0.3,0,0.5,0.2,0.5,0.5c0,0,0,0,0,0v0.6c0,0.3-0.2,0.5-0.5,0.5
		c0,0,0,0,0,0c-0.3,0-0.5-0.2-0.5-0.5V2.5h-0.8v1.5h2.3v-3h-4v5.2h5.5V0.5c0-0.3,0.2-0.5,0.5-0.5h6.5c0.3,0,0.5,0.2,0.5,0.5
		c0,0,0,0,0,0v6.2C174.5,7,174.3,7.3,174,7.3L174,7.3z"/>
	<path class="st0" d="M188.4,7.3h-5.1c-0.3,0-0.5-0.2-0.5-0.5c0,0,0,0,0,0V2.7c0-0.3,0.2-0.5,0.5-0.5c0,0,0,0,0,0h3.4
		c0.3,0,0.5,0.2,0.5,0.5c0,0,0,0,0,0v2.6c0,0.3-0.2,0.5-0.5,0.5c0,0,0,0,0,0h-1.8c-0.3,0-0.5-0.2-0.5-0.5c0,0,0,0,0,0V4.6
		c0-0.3,0.2-0.5,0.5-0.5c0.3,0,0.5,0.2,0.5,0.5v0.1h0.8V3.2h-2.3v3h4V1h-5.5v5.7c0,0.3-0.2,0.5-0.5,0.5c0,0,0,0,0,0h-6.5
		c-0.3,0-0.5-0.2-0.5-0.5c0,0,0,0,0,0V0.5c0-0.3,0.2-0.5,0.5-0.5c0,0,0,0,0,0h5.1c0.3,0,0.5,0.2,0.5,0.5v4.1c0,0.3-0.2,0.5-0.5,0.5
		h-3.3c-0.3,0-0.5-0.2-0.5-0.5V2c0-0.3,0.2-0.5,0.5-0.5h1.8c0.3,0,0.5,0.2,0.5,0.5c0,0,0,0,0,0v0.6c0,0.3-0.2,0.5-0.5,0.5
		c0,0,0,0,0,0c-0.3,0-0.5-0.2-0.5-0.5V2.5h-0.8v1.5h2.3v-3h-4v5.2h5.5V0.5c0-0.3,0.2-0.5,0.5-0.5h6.5c0.3,0,0.5,0.2,0.5,0.5
		c0,0,0,0,0,0v6.2C189,7,188.7,7.3,188.4,7.3C188.5,7.3,188.4,7.3,188.4,7.3z"/>
</g>
</svg>
