<?xml version="1.0" encoding="utf-8"?>
<!-- Generator: Adobe Illustrator 26.0.1, SVG Export Plug-In . SVG Version: 6.00 Build 0)  -->
<svg version="1.1" id="Layer_1" xmlns="http://www.w3.org/2000/svg" xmlns:xlink="http://www.w3.org/1999/xlink" x="0px" y="0px"
	 viewBox="0 0 246 297.9" style="enable-background:new 0 0 246 297.9;" xml:space="preserve">
<style type="text/css">
	.st0{fill:#F7931E;}
	.st1{fill:#FBD83B;}
	.st2{fill:#BF6306;}
	.st3{opacity:0.19;fill:#FFFF00;}
	.st4{fill:#D77006;}
	.st5{fill:#FFFFFF;}
	.st6{fill:#310339;}
	.st7{opacity:0.25;fill:#FFFF00;}
	.st8{opacity:0.14;fill:#FFFF00;}
</style>
<g id="Layer_2_00000109712428381629359240000000580022338074262969_">
	<g id="Layer_1-2">
		<path class="st0" d="M228.1,196.7c-0.2,9.9-10.7,30.4-33.2,52c-8.8,8.6-18.6,16.1-29.1,22.3c-3.4,2-6.9,3.8-10.5,5.3
			c-10,4.2-16.6,4.1-18.9,1.8c-2.7-2.8-1.4-10.7,3.3-20.1c5.8-11.6,15.9-24.7,28.6-36.8c5.8-5.6,12-10.8,18.6-15.5l0,0
			c3.5-2.5,7-4.8,10.4-6.8c10.7-6.2,19-8.7,24.1-8.7c2.5,0,4.3,0.6,5.2,1.6S228.1,194.5,228.1,196.7z"/>
		<path class="st1" d="M198.8,253c21.7-20.7,36.4-44.1,36.7-58.2c0.1-3.6-0.8-6.4-2.6-8.2s-4.9-3-8.6-3c-13.7,0-37.7,13.3-59.6,34.2
			C143,238.5,128.3,261.9,128,276c-0.1,3.6,0.8,6.4,2.6,8.2C139.9,293.8,171.1,279.5,198.8,253z M137.9,257.2
			c5.9-11.8,16.2-25.1,29-37.3c8.9-8.7,18.8-16.2,29.5-22.6c18.1-10.5,28.4-10.2,31.8-6.8c1.3,1.4,2,3.5,1.9,6.3
			c-0.2,10.7-10.8,31.3-33.9,53.4c-8.9,8.7-18.8,16.3-29.5,22.6c-11.3,6.6-19.6,8.9-25,8.9c-3.3,0-5.5-0.9-6.8-2.1
			C131.5,276.1,132.6,267.7,137.9,257.2L137.9,257.2z"/>
		<path class="st2" d="M200.6,254.9c-22.8,21.8-46.7,34.9-61.4,34.9c-1.2,0-2.3-0.1-3.5-0.3l2.7,2.8c9.2,9.5,40.4-4.8,68.1-31.2
			c21.7-20.7,36.4-44.1,36.7-58.2c0.1-3.6-0.8-6.4-2.6-8.2l-2.7-2.8c0.1,1,0.2,2,0.2,3C237.9,209.6,222.8,233.7,200.6,254.9z"/>
		<path class="st3" d="M217.1,194.3c0,0,9.8-3.5,1.7,16.1c-5.4,13.1-17.6,25.3-17.3,24.9S217.1,194.3,217.1,194.3z"/>
		<path class="st3" d="M208.9,198l-17,46.4c0,0-9.4,11.6-19,16.7l22.8-55.1C195.6,206,201.7,199,208.9,198z"/>
		<path class="st4" d="M155.2,276.4c-10,4.2-16.6,4.1-18.9,1.8c-2.7-2.8-1.4-10.7,3.3-20.1c5.8-11.6,15.9-24.7,28.6-36.8
			c5.8-5.6,12-10.8,18.6-15.5c-1.5,1.5-43.6,44.1-43.8,62.4C143,274.8,148.3,276.7,155.2,276.4z"/>
		<g>
			<polygon class="st5" points="169.9,229.7 178.8,252 179,250.8 171.2,230.1 			"/>
			<polygon class="st5" points="186.2,243.6 178.8,252 179,250.8 			"/>
			<polygon class="st5" points="178.6,229.9 182,235.2 181.5,235.7 			"/>
			<polyline class="st5" points="169.9,229.7 177.8,223.3 171.2,230.1 			"/>
			<polygon class="st5" points="185.8,217 184.5,217.4 204.6,227.8 204.9,226.7 			"/>
			<polygon class="st5" points="221.1,212 204.6,227.8 204.9,226.7 			"/>
			<polygon class="st5" points="197.5,204.4 184.5,217.4 188.2,216.5 			"/>
			<path class="st5" d="M158.4,270.5c0,0,10.8-9.5,12.5-13.8c1.7-4.3-4.2,1.7-4.2,1.7l-8.4,8.7L158.4,270.5z"/>
			<polygon class="st5" points="148.1,252.8 146.6,252.9 158.4,270.5 158.4,269.4 			"/>
			<path class="st5" d="M146.6,252.9c0,0,10.6-10.8,13.5-11.4c2.9-0.6-9.8,11.5-9.8,11.5L146.6,252.9z"/>
			<polygon class="st5" points="160.2,256.1 160.1,255.4 163.3,259.1 162.6,259 			"/>
			<polygon class="st5" points="155.2,250.2 157.4,253.1 158,252.9 155.1,249.6 			"/>
			<g>
				<path class="st6" d="M148.1,252.8c2-2.7,4.4-5.4,7-7.8c4.7-4.4,9.1-6.7,10.6-4.8c1,1.3,0.5,3.5-1,6.8c3.7-3,7.1-4.2,9-2
					c3.4,4-3.5,13.9-10.7,20.6c-1.6,1.5-3.2,2.7-4.7,3.7L148.1,252.8z M162.6,259c2.7-2.7,4.7-5.8,3.7-7.1c-0.7-1-2.1-0.3-3.7,1.2
					c-1,0.9-1.9,2-2.5,2.9L162.6,259z M157.4,253.1c2.3-2.3,3.7-4.9,3-6c-0.6-0.9-2-0.4-3.6,1.1c-0.6,0.6-1.2,1.3-1.7,2.1
					L157.4,253.1z"/>
				<path class="st6" d="M195.5,235.8l-6-2.3l-5.9,5.7l2.6,4.4l-7.2,7.2l-7.8-20.7l6.6-6.8l25.1,5.2L195.5,235.8z M178.6,229.9
					l2.9,5.8l4-3.7L178.6,229.9z"/>
				<path class="st6" d="M204.9,226.7l-19-9.7l11.7-12.5l4.3,1.4l-7.1,7.6l2.6,1l5.9-6l4.6,1.5l-5.9,6.2l3.3,1.1l7.7-8.2l8.2,2.9
					L204.9,226.7z"/>
			</g>
		</g>
		<path class="st0" d="M20.7,60.3c0.2,11.2,12.1,34.5,37.7,58.9c10,9.7,21.1,18.2,33,25.3c3.8,2.3,7.8,4.3,11.9,6
			c11.3,4.7,18.8,4.7,21.3,2.1c3.1-3.2,1.6-12.1-3.7-22.8c-6.6-13.2-18-27.9-32.4-41.6c-6.6-6.4-13.7-12.2-21.1-17.6l0,0
			c-4-2.8-7.9-5.4-11.8-7.7c-12.1-7.1-21.5-9.8-27.3-9.8c-2.8,0-4.8,0.6-5.9,1.8S20.6,57.8,20.7,60.3z"/>
		<path class="st1" d="M130.6,158.6c2.1-2.1,3.1-5.3,3-9.3c-0.3-16-17-42.5-41.6-65.9c-24.8-23.7-52-38.7-67.5-38.7
			c-4.1,0-7.5,1.1-9.7,3.4s-3.1,5.3-3,9.3c0.3,16,17,42.5,41.5,65.9C84.8,153.2,120.1,169.4,130.6,158.6z M125.8,153.3
			c-1.4,1.5-4,2.4-7.7,2.4c-6.2,0-15.5-2.7-28.3-10.1c-12.1-7.2-23.3-15.8-33.4-25.7C30.2,95,18.2,71.6,18,59.5
			c-0.1-3.2,0.7-5.6,2.2-7.2c3.8-3.9,15.5-4.3,36,7.7c12.1,7.2,23.3,15.8,33.4,25.6c14.5,13.9,26.2,28.9,32.8,42.2
			C128.4,139.9,129.6,149.3,125.8,153.3z"/>
		<path class="st2" d="M51.3,125.4c25.8,24.7,52.9,39.6,69.5,39.6c1.3,0,2.6-0.1,3.9-0.3l-3,3.1c-10.5,10.8-45.8-5.4-77.2-35.4
			C20,108.9,3.3,82.4,3,66.4c-0.1-4,0.9-7.2,3-9.3L9,54c-0.1,1.1-0.2,2.2-0.2,3.3C9.2,74,26.3,101.4,51.3,125.4z"/>
		<path class="st4" d="M102.8,149.7c11.3,4.7,18.8,4.7,21.3,2.1c3.1-3.2,1.6-12.1-3.7-22.8c-6.6-13.2-18-27.9-32.4-41.6
			C81.4,81,74.4,75.1,66.9,69.7c1.7,1.7,49.4,49.9,49.6,70.7C116.6,147.9,110.6,150.1,102.8,149.7z"/>
		<path class="st0" d="M231.2,11.3c-1.3,6.6-10.6,19.1-28.2,31c-6.9,4.7-14.3,8.6-22.1,11.6c-2.5,0.9-5,1.7-7.6,2.3
			c-7.2,1.6-11.6,0.9-12.8-1c-1.5-2.2,0.3-7.3,4.5-13.1c5.2-7.1,13.5-14.7,23.4-21.3c4.6-3.1,9.3-5.8,14.3-8.2l0,0
			c2.6-1.3,5.2-2.4,7.8-3.3c7.9-2.9,13.7-3.6,17.1-3c1.3,0.1,2.5,0.7,3.3,1.7C231.4,9,231.5,10.2,231.2,11.3z"/>
		<path class="st1" d="M205.1,45.6c16.9-11.4,29.5-25.3,31.3-34.7c0.5-2,0.2-4.1-0.8-5.9c-1.3-1.7-3.2-2.8-5.4-3
			c-9.2-1.6-26.8,4.6-43.8,16s-29.5,25.4-31.3,34.8c-0.5,2-0.2,4.1,0.8,5.8C161,66.1,183.5,60.1,205.1,45.6z M163.9,41.3
			c5.3-7.2,13.7-14.9,23.7-21.6c7-4.8,14.5-8.7,22.3-11.7c13.3-5,20.2-3.6,22-0.9c0.8,1.3,1,3,0.6,4.5c-1.4,7.1-10.8,19.7-28.8,31.8
			c-7,4.8-14.5,8.7-22.3,11.7c-8.3,3.1-14.1,3.7-17.8,3.1c-2.1-0.4-3.6-1.2-4.2-2.2C157.5,53.2,159.2,47.8,163.9,41.3z"/>
		<path class="st2" d="M206.1,47.1C188.4,59,170.9,65,161.1,63.3c-0.8-0.1-1.5-0.3-2.3-0.6l1.5,2.2c5.1,7.5,27.6,1.5,49.2-13
			c16.9-11.4,29.5-25.3,31.3-34.7c0.5-2,0.2-4.1-0.8-5.8l-1.5-2.2c0,0.7-0.1,1.3-0.2,2C236.3,21,223.4,35.4,206.1,47.1z"/>
		<path class="st4" d="M173.3,56.2c-7.2,1.6-11.6,0.9-12.8-1c-1.5-2.2,0.3-7.3,4.5-13.1c5.2-7.1,13.5-14.7,23.4-21.3
			c4.6-3.1,9.3-5.8,14.3-8.2c-1.2,0.8-34.3,24.5-36.5,36.7C165.3,53.7,168.6,55.6,173.3,56.2z"/>
		<g>
			<polygon class="st5" points="188.2,26 191.8,42.6 192.1,41.8 189.1,26.4 			"/>
			<polygon class="st5" points="197.9,37.6 191.8,42.6 192.1,41.8 			"/>
			<polygon class="st5" points="194.2,27.2 196,31.3 195.6,31.6 			"/>
			<polyline class="st5" points="188.2,26 194.5,22.5 189.1,26.4 			"/>
			<polygon class="st5" points="200.8,19 199.8,19.2 212.6,28.8 212.9,28 			"/>
			<polygon class="st5" points="226,19.7 212.6,28.8 212.9,28 			"/>
			<polygon class="st5" points="210.4,11.6 199.8,19.2 202.5,19 			"/>
			<path class="st5" d="M175.4,53.1c0,0,8.6-5.4,10.3-8.1c1.7-2.8-3.1,0.7-3.1,0.7l-6.9,5.1L175.4,53.1z"/>
			<polygon class="st5" points="170.3,39.6 169.2,39.5 175.4,53.1 175.5,52.4 			"/>
			<path class="st5" d="M169.2,39.5c0,0,8.7-6.3,10.8-6.4c2.1-0.1-8.2,6.9-8.2,6.9L169.2,39.5z"/>
			<polygon class="st5" points="178.3,43.3 178.4,42.8 180.2,45.7 179.7,45.6 			"/>
			<polygon class="st5" points="175.5,38.6 176.8,40.9 177.2,40.8 175.5,38.1 			"/>
			<g>
				<path class="st6" d="M170.3,39.6c1.7-1.6,3.7-3.2,5.8-4.6c3.8-2.5,7.1-3.6,8-2.1c0.6,1-0.1,2.5-1.5,4.6c2.9-1.7,5.4-2.1,6.5-0.3
					c1.9,3.2-4.1,9.3-9.9,13.1c-1.3,0.8-2.5,1.5-3.7,2.1L170.3,39.6z M179.7,45.6c2.2-1.5,3.9-3.5,3.4-4.5c-0.4-0.8-1.4-0.5-2.7,0.4
					c-0.8,0.5-1.6,1.2-2.1,1.7L179.7,45.6z M176.8,40.9c1.9-1.3,3.2-3,2.8-3.9c-0.3-0.7-1.4-0.5-2.6,0.3c-0.5,0.3-1,0.8-1.4,1.3
					L176.8,40.9z"/>
				<path class="st6" d="M205.3,33.3l-3.9-2.3l-4.8,3.3l1.3,3.4l-5.9,4.2l-3-15.4l5.4-3.9l16.9,6.6L205.3,33.3z M194.2,27.2l1.3,4.4
					l3.2-2.1L194.2,27.2z"/>
				<path class="st6" d="M212.9,28l-12.1-9l9.6-7.4l2.8,1.5l-5.8,4.5l1.7,1l4.8-3.5l3,1.6l-4.9,3.6l2.2,1.2l6.3-4.8l5.3,3L212.9,28z
					"/>
			</g>
		</g>
		<path class="st7" d="M224.1,8.4c0,0,7-1.2-0.7,10.9c-5.1,8.1-14.7,14.9-14.4,14.6S224.1,8.4,224.1,8.4z"/>
		<path class="st7" d="M218.2,10l-16.7,29.1c0,0-7.6,6.7-14.6,9l21.6-34.2C208.4,13.9,213.3,9.8,218.2,10z"/>
		<path class="st6" d="M162.9,215.8c-22.1,21.2-37.2,45.3-37.5,60.1c-0.1,4.3,1.1,7.7,3.4,10.1l7.8,8.1c2.5,2.5,6.1,3.8,10.5,3.8
			c14.7,0,38.6-13.1,61.4-34.9c22.1-21.2,37.2-45.3,37.5-60.1c0.1-4.3-1.1-7.7-3.4-10.1l-7.8-8.1
			C224.1,173.7,192.6,187.4,162.9,215.8z M128,276c0.3-14.1,15-37.5,36.7-58.2c21.9-20.9,45.9-34.2,59.6-34.2c3.7,0,6.6,0.9,8.6,3
			s2.7,4.6,2.6,8.2c-0.3,14.1-15,37.5-36.7,58.2c-27.7,26.5-58.9,40.8-68.1,31.2C128.8,282.3,127.9,279.5,128,276z M240.7,194.6
			c1.8,1.9,2.7,4.7,2.6,8.2c-0.3,14.1-15,37.5-36.7,58.2c-27.7,26.5-58.9,40.8-68.1,31.2l-2.7-2.8c1.1,0.2,2.3,0.3,3.5,0.3
			c14.7,0,38.6-13.1,61.4-34.9c22.1-21.2,37.2-45.3,37.5-60.1c0-1,0-2-0.2-3L240.7,194.6z"/>
		<path class="st6" d="M166.7,272.8c10.7-6.4,20.6-14,29.5-22.6c23.1-22.1,33.7-42.7,33.9-53.4c0.1-2.8-0.6-4.9-1.9-6.3
			c-3.3-3.5-13.7-3.8-31.8,6.8c-10.7,6.4-20.6,14-29.5,22.6c-12.8,12.2-23.1,25.5-29,37.3c-5.2,10.5-6.4,18.9-2.9,22.4
			c1.2,1.3,3.5,2.1,6.8,2.1C147.2,281.7,155.4,279.4,166.7,272.8z M136.4,278.2c-2.7-2.8-1.4-10.7,3.3-20.1
			c5.8-11.6,15.9-24.7,28.6-36.8c8.8-8.5,18.6-16,29.1-22.3c10.7-6.2,19-8.7,24.1-8.7c2.5,0,4.3,0.6,5.2,1.6s1.4,2.7,1.4,4.9
			c-0.2,9.9-10.7,30.4-33.2,52c-8.8,8.5-18.6,16-29.1,22.3C149.8,280.4,139.4,281.3,136.4,278.2L136.4,278.2z"/>
		<path class="st6" d="M12.7,45.8L3.8,55C1.2,57.7-0.1,61.6,0,66.5c0.3,16.7,17.4,44.1,42.5,68.1c25.8,24.7,52.9,39.6,69.5,39.6
			c5,0,9.1-1.4,11.9-4.3l8.9-9.2c2.6-2.7,3.9-6.6,3.9-11.5c-0.3-16.7-17.4-44.1-42.5-68.1C60.5,48.9,24.7,33.4,12.7,45.8z
			 M130.6,158.6c-10.5,10.8-45.8-5.4-77.2-35.4c-24.5-23.5-41.2-50-41.5-65.9c-0.1-4,0.9-7.2,3-9.3s5.5-3.4,9.7-3.4
			c15.5,0,42.7,15.1,67.5,38.7c24.6,23.5,41.2,50,41.6,65.9C133.7,153.3,132.7,156.4,130.6,158.6z M9.1,54c-0.1,1.1-0.2,2.2-0.2,3.3
			c0.3,16.7,17.4,44,42.5,68c25.8,24.7,52.9,39.6,69.5,39.6c1.3,0,2.6-0.1,3.9-0.3l-3,3.1c-10.5,10.8-45.8-5.4-77.2-35.4
			C20,108.9,3.3,82.4,3,66.4c-0.1-4,0.9-7.2,3-9.3L9.1,54z"/>
		<path class="st6" d="M118.1,155.8c3.7,0,6.2-1,7.7-2.4c3.9-4,2.6-13.5-3.3-25.4c-6.7-13.4-18.3-28.4-32.8-42.2
			c-10.1-9.8-21.3-18.4-33.4-25.6c-20.5-11.9-32.2-11.6-36-7.7c-1.5,1.6-2.2,4-2.2,7.2C18.2,71.6,30.2,95,56.4,120
			c10.1,9.8,21.3,18.4,33.4,25.6C102.5,153.1,111.9,155.8,118.1,155.8z M90.9,143.7c-11.9-7.1-23-15.6-33-25.3
			C32.4,94,20.5,70.7,20.3,59.5c0-2.5,0.5-4.4,1.5-5.5s3.1-1.8,5.9-1.8c5.8,0,15.2,2.8,27.3,9.9C67,69.1,78,77.6,88,87.3
			c14.3,13.7,25.8,28.5,32.4,41.6c5.3,10.7,6.8,19.6,3.7,22.8C120.8,155.2,108.9,154.2,90.9,143.7z"/>
		<path class="st6" d="M185.4,16.6c-17.3,11.6-30.1,26-32,35.9c-0.6,2.4-0.2,5,1.1,7.2l4.3,6.3c1.4,2,3.6,3.2,6.6,3.7
			c9.8,1.7,27.3-4.3,45.1-16.3c17.3-11.6,30.1-26,32-35.9c0.6-2.4,0.2-5-1.1-7.2L237.1,4C231.2-4.5,208.5,1,185.4,16.6z M155.1,52.8
			c1.8-9.4,14.4-23.4,31.3-34.7s34.6-17.6,43.8-16c2.1,0.2,4.1,1.3,5.4,3c1.1,1.7,1.4,3.8,0.8,5.8c-1.8,9.4-14.4,23.3-31.3,34.7
			c-21.6,14.5-44.1,20.5-49.2,13C154.9,56.8,154.6,54.7,155.1,52.8z M239.9,11.3c1,1.8,1.3,3.8,0.8,5.8
			c-1.8,9.4-14.4,23.4-31.3,34.7c-21.6,14.5-44.1,20.5-49.2,13l-1.5-2.2c0.7,0.3,1.5,0.5,2.3,0.6c9.8,1.7,27.3-4.3,45.1-16.3
			c17.3-11.6,30.1-26,32-35.9c0.1-0.7,0.2-1.3,0.2-2L239.9,11.3z"/>
		<path class="st6" d="M181.4,55.1c7.9-3,15.4-7,22.3-11.7c18-12.1,27.4-24.7,28.8-31.8c0.4-1.5,0.2-3.1-0.5-4.5
			c-1.8-2.7-8.7-4.1-22,0.9c-7.9,3-15.4,7-22.4,11.7c-10,6.7-18.4,14.4-23.7,21.6c-4.7,6.4-6.4,11.9-4.6,14.7c0.7,1,2.1,1.8,4.3,2.2
			C167.3,58.8,173.1,58.2,181.4,55.1z M160.5,55.2c-1.5-2.2,0.3-7.3,4.5-13.1c5.2-7.1,13.5-14.7,23.4-21.3c6.9-4.7,14.3-8.6,22-11.6
			c7.9-2.9,13.7-3.6,17.1-3c1.3,0.1,2.5,0.7,3.3,1.7c0.6,1.1,0.7,2.3,0.4,3.4c-1.3,6.6-10.6,19.1-28.2,31
			c-6.9,4.7-14.3,8.6-22.1,11.6C169.2,58.2,162.1,57.6,160.5,55.2L160.5,55.2z"/>
		<g>
			<polygon class="st5" points="77.2,87.5 53.6,99.3 54.9,99.4 76.9,88.9 			"/>
			<polygon class="st5" points="63.5,106.7 53.6,99.3 54.9,99.4 			"/>
			<polygon class="st5" points="77.8,97 72.3,101.3 71.7,100.7 			"/>
			<polyline class="st5" points="77.2,87.5 85,95.5 76.9,88.9 			"/>
			<polygon class="st5" points="92.7,103.7 92,102.3 82.6,125.4 83.9,125.5 			"/>
			<polygon class="st5" points="101.5,141.9 82.6,125.4 83.9,125.5 			"/>
			<polygon class="st5" points="107.6,115.3 92,102.3 93.4,106.2 			"/>
			<path class="st5" d="M31.3,78.7c0,0,11.5,10.9,16.3,12.4c4.8,1.5-2.3-4.4-2.3-4.4L35,78.3L31.3,78.7z"/>
			<polygon class="st5" points="49.7,65.8 49.5,64.1 31.3,78.7 32.5,78.6 			"/>
			<path class="st5" d="M49.5,64.1c0,0,12.9,10.6,13.8,13.7c0.9,3.1-13.6-9.6-13.6-9.6L49.5,64.1z"/>
			<polygon class="st5" points="47.3,79.3 48,79.2 44.3,83 44.3,82.3 			"/>
			<polygon class="st5" points="53.3,73.2 50.3,76 50.6,76.7 54,73.1 			"/>
			<g>
				<path class="st6" d="M49.7,65.8c3.1,1.9,6.3,4.3,9.2,6.9c5.2,4.7,8.2,9.3,6.2,11.2c-1.3,1.3-3.8,0.9-7.5-0.4
					c3.7,3.8,5.3,7.3,3,9.7c-4,4.1-15.6-2.5-23.6-9.8c-1.8-1.6-3.3-3.2-4.6-4.7L49.7,65.8z M44.3,82.3c3.2,2.8,6.8,4.6,8.1,3.4
					c1-0.9,0.1-2.3-1.7-4c-1.1-1-2.4-1.9-3.4-2.4L44.3,82.3z M50.3,76c2.7,2.4,5.8,3.6,6.9,2.7c1-0.8,0.2-2.3-1.5-3.8
					c-0.7-0.6-1.6-1.2-2.4-1.6L50.3,76z"/>
				<path class="st6" d="M72.9,116.1l1.9-6.8l-6.8-5.9l-4.5,3.3l-8.6-7.2l22-10.5l8.1,6.6l-3.3,28.1L72.9,116.1z M77.8,97l-6.1,3.7
					l4.4,4L77.8,97z"/>
				<path class="st6" d="M83.9,125.5l8.8-21.8l14.9,11.6l-1.2,4.9l-9-7l-0.9,3l7.1,5.9l-1.2,5.2l-7.3-5.9l-0.9,3.8l9.7,7.6l-2.4,9.2
					L83.9,125.5z"/>
			</g>
		</g>
		<path class="st8" d="M32.7,56.8c0,0-11.1-4-1.9,18.2c6.1,14.8,19.9,28.6,19.6,28.2S32.7,56.8,32.7,56.8z"/>
		<path class="st8" d="M42,61l19.2,52.6c0,0,10.6,13.1,21.5,18.9L57,70.1C57,70.1,50.2,62,42,61z"/>
	</g>
</g>
</svg>
