<?xml version="1.0" encoding="utf-8"?>
<!-- Generator: Adobe Illustrator 26.0.1, SVG Export Plug-In . SVG Version: 6.00 Build 0)  -->
<svg version="1.1" id="Layer_1" xmlns="http://www.w3.org/2000/svg" xmlns:xlink="http://www.w3.org/1999/xlink" x="0px" y="0px"
	 viewBox="0 0 500 97.8" style="enable-background:new 0 0 500 97.8;" xml:space="preserve">
<style type="text/css">
	.st0{fill:#E6E7E8;}
	.st1{fill:#FB44D5;}
	.st2{fill:#CC00A6;}
	.st3{fill:none;stroke:#FFE4F9;stroke-width:2;stroke-linecap:round;stroke-linejoin:round;stroke-miterlimit:10;}
	.st4{fill:none;stroke:#6D6E71;stroke-width:2;stroke-linecap:round;stroke-linejoin:round;stroke-miterlimit:10;}
	.st5{fill:#DA1C5C;}
	.st6{fill:#AE1C42;}
	.st7{opacity:0.4;fill:#DA1C5C;enable-background:new    ;}
	.st8{fill:none;stroke:#981C1E;stroke-width:2;stroke-linecap:round;stroke-linejoin:round;stroke-miterlimit:10;}
	.st9{fill:#FBD140;}
	.st10{fill:#FBAE40;}
	.st11{opacity:0.4;fill:#FBAE40;enable-background:new    ;}
	.st12{opacity:0.5;fill:#FBD140;enable-background:new    ;}
	.st13{fill:none;stroke:#E77000;stroke-width:2;stroke-linecap:round;stroke-linejoin:round;stroke-miterlimit:10;}
	.st14{fill:#27AAE1;}
	.st15{fill:#1C75BC;}
	.st16{opacity:0.4;fill:#27AAE1;}
	.st17{opacity:0.5;fill:#27AAE1;}
	.st18{fill:none;stroke:#2B3990;stroke-width:2;stroke-linecap:round;stroke-linejoin:round;stroke-miterlimit:10;}
	.st19{fill:#8DC63F;}
	.st20{fill:#39B54A;}
	.st21{opacity:0.4;fill:#39B54A;enable-background:new    ;}
	.st22{opacity:0.5;fill:#39B54A;enable-background:new    ;}
	.st23{fill:none;stroke:#006838;stroke-width:2;stroke-linecap:round;stroke-linejoin:round;stroke-miterlimit:10;}
	.st24{fill:#FFFFFF;}
</style>
<g id="BACKGROUND">
</g>
<g id="TEXTURE">
</g>
<g>
	<g>
		<path class="st0" d="M13.8,18.3c-4.8,0-8.6,3.9-8.6,8.6v18.8c0,4.8,3.9,8.6,8.6,8.6H20l4.7,9.5l4.7-9.5h9.3V49V23.5v-5.3H13.8
			V18.3z"/>
		<path class="st0" d="M13.8,18.3c-4.8,0-8.6,3.9-8.6,8.6v18.8c0,4.8,3.9,8.6,8.6,8.6H20l4.7,9.5l4.7-9.5h9.3V49V23.5v-5.3H13.8
			V18.3z"/>
		<path class="st1" d="M5.8,48.8c1.3,3.2,4.4,5.5,8,5.5H20l4.7,9.5l4.7-9.5h9.3V49v-0.2H5.8z"/>
		<path class="st1" d="M181.2,48.8c1.3,3.2,4.4,5.5,8,5.5h6.2l4.7,9.5l4.7-9.5h9.3V49v-0.2H181.2z"/>
		<path class="st1" d="M370.3,48.8c1.3,3.2,4.4,5.5,8,5.5h6.2l4.7,9.5l4.7-9.5h9.3V49v-0.2H370.3z"/>
		<path class="st1" d="M454.4,48.8c1.3,3.2,4.4,5.5,8,5.5h6.2l4.7,9.5l4.7-9.5h9.3V49v-0.2H454.4z"/>
		<g>
			<path class="st1" d="M487.7,19.3L11,18.2c-2.9,0-5.3,2.3-5.3,5.2l0,0v25.5V49c0,2.9,2.3,5.2,5.2,5.2l476.8,1.1
				c4.8,0,8.6-3.9,8.6-8.6V27.9C496.3,23.1,492.5,19.3,487.7,19.3z"/>
			<path class="st2" d="M496.3,45.7V28.3l-15.7,26h7C492.5,54.3,496.3,50.4,496.3,45.7z"/>
			<path class="st3" d="M38.6,18.3H13.8c-4.8,0-8.6,3.9-8.6,8.6v18.8c0,4.8,3.9,8.6,8.6,8.6H20l4.7,9.5l4.7-9.5h9.3"/>
			<polyline class="st3" points="195.2,54.3 199.9,63.8 204.6,54.3 213.8,54.3 			"/>
			<polyline class="st3" points="385,54.3 389.7,63.8 394.4,54.3 403.6,54.3 			"/>
			<polyline class="st3" points="469.3,54.3 474,63.8 478.7,54.3 487.9,54.3 			"/>
			<path class="st3" d="M478.7,54.3h9c4.8,0,8.6-3.9,8.6-8.6V26.9c0-4.8-3.9-8.6-8.6-8.6H38.6"/>
			<path class="st3" d="M478.7,54.3"/>
			<path class="st3" d="M469.3,54.3"/>
			<path class="st3" d="M394.4,54.3h74.9"/>
			<path class="st4" d="M394.4,54.3"/>
			<path class="st4" d="M385,54.3"/>
			<line class="st3" x1="204.6" y1="54.3" x2="385" y2="54.3"/>
			<path class="st4" d="M204.6,54.3"/>
			<path class="st4" d="M195.2,54.3"/>
			<line class="st3" x1="38.6" y1="54.3" x2="195.2" y2="54.3"/>
		</g>
	</g>
	<g>
		<g>
			<path class="st5" d="M329.5,45.1c0,2.3-1.9,4.2-4.2,4.2H159.7c-2.3,0-4.2-1.9-4.2-4.2V27.5c0-2.3,1.9-4.2,4.2-4.2h165.6
				c2.3,0,4.2,1.9,4.2,4.2L329.5,45.1L329.5,45.1z"/>
			<path class="st6" d="M155.5,38.7v6.4c0,2.3,1.9,4.2,4.2,4.2h165.6c2.3,0,4.2-1.9,4.2-4.2v-6.4H155.5z"/>
			<path class="st7" d="M325.3,23.3h-143l-11.4,25.9h154.5c2.3,0,4.2-1.9,4.2-4.2V27.5C329.5,25.2,327.6,23.3,325.3,23.3z"/>
			<path class="st7" d="M169.8,23.3h-10.1c-2.3,0-4.2,1.9-4.2,4.2v17.6c0,1.7,1.1,3.2,2.6,3.9L169.8,23.3z"/>
			<path class="st8" d="M329.5,45.1c0,2.3-1.9,4.2-4.2,4.2H159.7c-2.3,0-4.2-1.9-4.2-4.2V27.5c0-2.3,1.9-4.2,4.2-4.2h165.6
				c2.3,0,4.2,1.9,4.2,4.2L329.5,45.1L329.5,45.1z"/>
		</g>
	</g>
	<g>
		<g>
			<path class="st9" d="M422.8,45.1c0,2.3-1.9,4.2-4.2,4.2H338c-2.3,0-4.2-1.9-4.2-4.2V27.5c0-2.3,1.9-4.2,4.2-4.2h80.6
				c2.3,0,4.2,1.9,4.2,4.2V45.1z"/>
			<path class="st10" d="M333.8,38.2v6.9c0,2.3,1.9,4.2,4.2,4.2h80.6c2.3,0,4.2-1.9,4.2-4.2v-6.9H333.8z"/>
			<path class="st11" d="M418.6,23.4h-46.2L361,49.3h57.6c2.3,0,4.2-1.9,4.2-4.2V27.5C422.8,25.2,420.9,23.4,418.6,23.4z"/>
			<path class="st12" d="M353.1,23.4H338c-2.3,0-4.2,1.9-4.2,4.2v17.6c0,2.3,1.9,4.2,4.2,4.2h3.3L353.1,23.4z"/>
			<path class="st13" d="M422.8,45.1c0,2.3-1.9,4.2-4.2,4.2H338c-2.3,0-4.2-1.9-4.2-4.2V27.5c0-2.3,1.9-4.2,4.2-4.2h80.6
				c2.3,0,4.2,1.9,4.2,4.2V45.1z"/>
		</g>
	</g>
	<g>
		<g>
			<path class="st14" d="M490.6,45.1c0,2.3-1.9,4.2-4.2,4.2h-55.9c-2.3,0-4.2-1.9-4.2-4.2V27.5c0-2.3,1.9-4.2,4.2-4.2h55.9
				c2.3,0,4.2,1.9,4.2,4.2V45.1z"/>
			<path class="st15" d="M426.2,38.2v6.9c0,2.3,1.9,4.2,4.2,4.2h55.9c2.3,0,4.2-1.9,4.2-4.2v-6.9H426.2z"/>
			<path class="st16" d="M486.4,23.4h-21.5l-11.4,25.9h32.9c2.3,0,4.2-1.9,4.2-4.2V27.5C490.6,25.2,488.7,23.4,486.4,23.4z"/>
			<path class="st17" d="M445.5,23.4h-15.1c-2.3,0-4.2,1.9-4.2,4.2v17.6c0,2.3,1.9,4.2,4.2,4.2h3.3L445.5,23.4z"/>
			<path class="st18" d="M490.6,45.1c0,2.3-1.9,4.2-4.2,4.2h-55.9c-2.3,0-4.2-1.9-4.2-4.2V27.5c0-2.3,1.9-4.2,4.2-4.2h55.9
				c2.3,0,4.2,1.9,4.2,4.2V45.1z"/>
		</g>
	</g>
	<g>
		<g>
			<path class="st19" d="M150.2,45.1c0,2.3-1.9,4.2-4.2,4.2H14.2c-2.3,0-4.2-1.9-4.2-4.2V27.5c0-2.3,1.9-4.2,4.2-4.2H146
				c2.3,0,4.2,1.9,4.2,4.2V45.1z"/>
			<path class="st20" d="M10,38.2v6.9c0,2.3,1.9,4.2,4.2,4.2H146c2.3,0,4.2-1.9,4.2-4.2v-6.9H10z"/>
			<path class="st21" d="M146,23.3H74.6L63.2,49.2H146c2.3,0,4.2-1.9,4.2-4.2V27.5C150.2,25.2,148.3,23.3,146,23.3z"/>
			<path class="st22" d="M36.5,23.3H14.2c-2.3,0-4.2,1.9-4.2,4.2v17.6c0,2.3,1.9,4.2,4.2,4.2h10.5L36.5,23.3z"/>
			<path class="st23" d="M150.2,45.1c0,2.3-1.9,4.2-4.2,4.2H14.2c-2.3,0-4.2-1.9-4.2-4.2V27.5c0-2.3,1.9-4.2,4.2-4.2H146
				c2.3,0,4.2,1.9,4.2,4.2V45.1z"/>
		</g>
	</g>
	<g>
		<path class="st24" d="M231.4,41.6c-0.6,0-1.2,0-1.9-0.1c-0.7,0-1.3-0.1-1.9-0.2v-1.6h3.8c0.4,0,0.6-0.1,0.8-0.2s0.3-0.3,0.4-0.5
			s0.1-0.4,0.1-0.6v-0.7c0-0.3-0.1-0.6-0.3-0.8c-0.2-0.2-0.5-0.3-0.9-0.3h-0.8c-0.3,0-0.6,0.1-0.7,0.2c-0.2,0.1-0.3,0.3-0.3,0.6h-2
			l0.3-6.7h6.5v1.9h-4.6l-0.1,2.6c0.1-0.2,0.3-0.3,0.6-0.4c0.3-0.1,0.5-0.1,0.9-0.1h1.2c0.6,0,1,0.1,1.4,0.3s0.6,0.5,0.8,0.9
			c0.2,0.4,0.3,0.8,0.3,1.3v1.6c0,0.6-0.1,1.2-0.4,1.6c-0.3,0.4-0.7,0.7-1.2,0.9S232.2,41.6,231.4,41.6z"/>
		<path class="st24" d="M239.4,41.6c-0.6,0-1.1-0.1-1.5-0.3s-0.7-0.5-1-0.9c-0.2-0.4-0.3-0.9-0.3-1.5v-5.3c0-0.6,0.1-1.2,0.3-1.6
			c0.2-0.4,0.6-0.8,1-1s0.9-0.3,1.5-0.3h2.3c0.6,0,1.1,0.1,1.5,0.3s0.7,0.6,0.9,1c0.2,0.4,0.3,1,0.3,1.6v5.3c0,0.9-0.2,1.6-0.7,2.1
			s-1.2,0.7-2,0.7L239.4,41.6L239.4,41.6z M239.9,39.6h1.2c0.4,0,0.7-0.1,0.9-0.3s0.3-0.5,0.3-0.9v-4.7c0-0.4-0.1-0.7-0.3-0.9
			c-0.2-0.2-0.5-0.3-0.8-0.3h-1.3c-0.4,0-0.6,0.1-0.8,0.3c-0.2,0.2-0.4,0.5-0.4,0.9v4.7c0,0.4,0.1,0.7,0.3,0.9
			C239.2,39.5,239.5,39.6,239.9,39.6z"/>
		<path class="st24" d="M247.6,36.4c-0.7,0-1.2-0.2-1.5-0.5s-0.4-0.8-0.4-1.4v-1.8c0-0.6,0.1-1.1,0.4-1.4s0.8-0.5,1.6-0.5h1.5
			c0.7,0,1.2,0.2,1.5,0.5s0.4,0.8,0.4,1.4v1.7c0,0.6-0.1,1.1-0.4,1.4c-0.3,0.3-0.8,0.5-1.6,0.5L247.6,36.4L247.6,36.4z M247.9,35h1
			c0.3,0,0.6-0.1,0.7-0.2c0.1-0.1,0.2-0.4,0.2-0.6v-1.1c0-0.3-0.1-0.6-0.2-0.7c-0.1-0.1-0.3-0.2-0.6-0.2h-1c-0.3,0-0.5,0.1-0.6,0.2
			c-0.2,0.1-0.2,0.3-0.2,0.7v1.1c0,0.3,0.1,0.5,0.2,0.6C247.4,34.9,247.6,35,247.9,35z M248.2,41.5l6.6-10.7h1.4l-6.5,10.7H248.2z
			 M255.4,41.5c-0.7,0-1.2-0.2-1.5-0.5s-0.4-0.8-0.4-1.4v-1.7c0-0.6,0.1-1.1,0.4-1.4s0.8-0.5,1.5-0.5h1.5c0.7,0,1.2,0.2,1.5,0.5
			s0.4,0.8,0.4,1.4v1.7c0,0.6-0.1,1.1-0.4,1.4c-0.3,0.3-0.8,0.5-1.6,0.5H255.4z M255.6,40.1h0.9c0.3,0,0.6-0.1,0.7-0.2
			s0.2-0.4,0.2-0.6v-1.1c0-0.3-0.1-0.6-0.2-0.7s-0.3-0.2-0.7-0.2h-0.8c-0.3,0-0.5,0.1-0.6,0.2s-0.2,0.3-0.2,0.7v1.1
			c0,0.3,0.1,0.5,0.2,0.6S255.3,40.1,255.6,40.1z"/>
	</g>
	<g>
		<path class="st24" d="M9.6,83.1l3.1-9.9h2.5l3.1,9.9h-2.1L15.6,81h-3.4l-0.6,2.1H9.6z M12.8,79.2h2.4L14,74.9L12.8,79.2z"/>
		<path class="st24" d="M19.4,83.1v-9.9h2v9.9H19.4z"/>
		<path class="st24" d="M23,83.1v-7.2h1.5L25,77c0.3-0.3,0.6-0.6,0.9-0.8c0.3-0.2,0.7-0.3,1.2-0.3c0.1,0,0.2,0,0.3,0s0.2,0,0.3,0.1
			v2c-0.1,0-0.3,0-0.4,0c-0.1,0-0.3,0-0.4,0c-0.3,0-0.5,0-0.7,0.1s-0.4,0.1-0.6,0.3c-0.2,0.1-0.3,0.3-0.5,0.4v4.5H23V83.1z"/>
		<path class="st24" d="M31,83.1c-0.6,0-1-0.1-1.4-0.4c-0.4-0.2-0.7-0.6-0.9-1.1s-0.3-1.2-0.3-2.1s0.1-1.6,0.2-2.2
			c0.2-0.6,0.4-1,0.8-1.2s0.9-0.4,1.6-0.4c0.3,0,0.7,0,1,0.1c0.3,0.1,0.6,0.1,0.9,0.2v-3.2h2V83h-1.7l-0.3-0.7
			c-0.2,0.1-0.3,0.3-0.6,0.4c-0.2,0.1-0.4,0.2-0.7,0.3C31.5,83.1,31.3,83.1,31,83.1z M31.7,81.6c0.3,0,0.5,0,0.7-0.1
			s0.4-0.2,0.5-0.3v-3.6c-0.2-0.1-0.4-0.1-0.6-0.2c-0.2-0.1-0.4-0.1-0.6-0.1c-0.3,0-0.6,0.1-0.8,0.2s-0.3,0.3-0.4,0.6
			c-0.1,0.3-0.1,0.8-0.1,1.4s0,1,0.1,1.3s0.2,0.5,0.4,0.6C31.2,81.5,31.4,81.6,31.7,81.6z"/>
		<path class="st24" d="M36.5,83.1v-7.2H38l0.5,1.1c0.3-0.3,0.6-0.6,0.9-0.8c0.3-0.2,0.7-0.3,1.2-0.3c0.1,0,0.2,0,0.3,0
			s0.2,0,0.3,0.1v2c-0.1,0-0.3,0-0.4,0c-0.1,0-0.3,0-0.4,0c-0.3,0-0.5,0-0.7,0.1s-0.4,0.1-0.6,0.3c-0.2,0.1-0.3,0.3-0.5,0.4v4.5
			h-2.1V83.1z"/>
		<path class="st24" d="M45.2,83.1c-0.6,0-1.1-0.1-1.5-0.2s-0.8-0.3-1-0.6c-0.3-0.3-0.5-0.7-0.6-1.1c-0.1-0.5-0.2-1.1-0.2-1.8
			c0-0.7,0.1-1.3,0.2-1.8c0.1-0.5,0.3-0.9,0.6-1.1c0.3-0.3,0.6-0.5,1-0.6s0.9-0.2,1.5-0.2s1.1,0.1,1.5,0.2s0.8,0.3,1,0.6
			c0.3,0.3,0.5,0.6,0.6,1.1s0.2,1.1,0.2,1.8c0,0.7-0.1,1.3-0.2,1.8s-0.3,0.9-0.6,1.1c-0.3,0.3-0.6,0.5-1,0.6
			C46.3,83.1,45.8,83.1,45.2,83.1z M45.2,81.6c0.2,0,0.4,0,0.6-0.1c0.2,0,0.3-0.1,0.4-0.3c0.1-0.1,0.2-0.3,0.2-0.6
			c0.1-0.3,0.1-0.7,0.1-1.1c0-0.5,0-0.8-0.1-1.1c-0.1-0.3-0.1-0.5-0.2-0.6s-0.2-0.2-0.4-0.3c-0.2,0-0.4-0.1-0.6-0.1s-0.4,0-0.6,0.1
			c-0.2,0-0.3,0.1-0.4,0.3c-0.1,0.1-0.2,0.3-0.2,0.6c0,0.3-0.1,0.7-0.1,1.1c0,0.5,0,0.8,0.1,1.1c0,0.3,0.1,0.5,0.2,0.6
			c0.1,0.1,0.2,0.2,0.4,0.3C44.8,81.5,45,81.6,45.2,81.6z"/>
		<path class="st24" d="M49.8,86.2V75.9h1.7l0.3,0.7c0.2-0.1,0.4-0.3,0.6-0.4s0.4-0.2,0.7-0.3c0.2-0.1,0.5-0.1,0.8-0.1
			c0.4,0,0.8,0.1,1.1,0.3c0.3,0.2,0.6,0.4,0.8,0.7c0.2,0.3,0.4,0.7,0.5,1.2s0.1,1,0.1,1.5c0,0.8-0.1,1.4-0.2,2
			c-0.2,0.6-0.4,1-0.8,1.3s-0.9,0.4-1.5,0.4c-0.3,0-0.7,0-1-0.1c-0.4-0.1-0.7-0.2-1-0.3v3.4C51.9,86.2,49.8,86.2,49.8,86.2z
			 M53.2,81.5c0.2,0,0.4-0.1,0.6-0.2s0.3-0.3,0.4-0.6c0.1-0.3,0.2-0.7,0.2-1.3c0-0.5-0.1-1-0.2-1.3s-0.2-0.5-0.4-0.7
			c-0.2-0.1-0.4-0.2-0.6-0.2c-0.3,0-0.5,0-0.8,0.1c-0.2,0.1-0.4,0.2-0.6,0.3v3.6c0.2,0.1,0.4,0.2,0.6,0.3
			C52.7,81.5,52.9,81.5,53.2,81.5z"/>
		<path class="st24" d="M60.3,83.1c-0.2,0-0.5,0-0.7,0c-0.3,0-0.5,0-0.8-0.1s-0.5-0.1-0.7-0.1s-0.4-0.1-0.6-0.1v-1.2h3.2
			c0.2,0,0.3,0,0.5,0c0.1,0,0.2-0.1,0.3-0.2s0.1-0.2,0.1-0.4v-0.2c0-0.2-0.1-0.3-0.2-0.4s-0.3-0.1-0.6-0.1h-1.1
			c-0.4,0-0.8-0.1-1.1-0.2s-0.6-0.3-0.8-0.6c-0.2-0.3-0.3-0.7-0.3-1.2v-0.4c0-0.5,0.1-0.8,0.3-1.2c0.2-0.3,0.5-0.5,0.9-0.7
			s1-0.2,1.7-0.2c0.3,0,0.6,0,0.9,0s0.7,0.1,0.9,0.1c0.3,0,0.5,0.1,0.7,0.2v1.2h-3c-0.3,0-0.5,0-0.6,0.1s-0.2,0.2-0.2,0.5v0.2
			c0,0.2,0,0.3,0.1,0.4s0.2,0.1,0.3,0.2s0.3,0,0.5,0h1.1c0.7,0,1.3,0.2,1.6,0.5s0.5,0.8,0.5,1.4v0.6c0,0.5-0.1,0.9-0.3,1.1
			c-0.2,0.3-0.6,0.5-1,0.6C61.4,83.1,60.9,83.1,60.3,83.1z"/>
		<path class="st24" d="M63.6,84l3.8-11.3h2L65.6,84H63.6z"/>
		<path class="st24" d="M73.2,83.1c-0.6,0-1.1-0.1-1.5-0.4s-0.7-0.6-0.9-1s-0.4-1-0.5-1.6s-0.1-1.3-0.1-2.1c0-0.8,0.1-1.5,0.2-2.1
			s0.3-1.2,0.5-1.6c0.3-0.4,0.6-0.8,1.1-1s1.1-0.3,1.8-0.3c0.5,0,0.9,0,1.3,0.1c0.4,0,0.7,0.1,1.1,0.2c0.3,0.1,0.7,0.1,1,0.2V75
			c-0.2,0-0.4-0.1-0.7-0.1s-0.7-0.1-1-0.1c-0.4,0-0.8,0-1.2,0c-0.6,0-1,0.1-1.3,0.3c-0.3,0.2-0.5,0.5-0.6,1s-0.2,1.1-0.2,2
			c0,0.6,0,1.2,0.1,1.6s0.2,0.7,0.3,1c0.1,0.2,0.3,0.4,0.5,0.5s0.5,0.1,0.8,0.1c0.4,0,0.7,0,1-0.1s0.6-0.1,0.8-0.2v-1.9h-1.8v-1.6
			c0.2,0,0.4,0,0.7-0.1c0.3,0,0.5,0,0.8,0s0.6,0,0.8,0c0.3,0,0.5,0,0.8,0c0.2,0,0.4,0,0.6,0V83h-1.5l-0.3-0.7
			c-0.3,0.2-0.6,0.3-1.1,0.5C74.3,83,73.8,83.1,73.2,83.1z"/>
		<path class="st24" d="M79.5,74.8c-0.2,0-0.3-0.1-0.3-0.3v-1.3c0-0.2,0.1-0.3,0.3-0.3H81c0.1,0,0.1,0,0.2,0.1
			c0,0.1,0.1,0.1,0.1,0.2v1.3c0,0.2-0.1,0.3-0.3,0.3C81,74.8,79.5,74.8,79.5,74.8z M79.2,83.1v-7.2h2v7.2H79.2z"/>
		<path class="st24" d="M84.5,83.1l-2.4-7.2h2l1.6,5.3l1.6-5.3h2l-2.5,7.2H84.5z"/>
		<path class="st24" d="M93,83.1c-0.8,0-1.4-0.1-1.9-0.3c-0.5-0.2-0.8-0.6-1-1.1s-0.3-1.3-0.3-2.2c0-1,0.1-1.7,0.3-2.3
			c0.2-0.5,0.5-0.9,1-1.1s1.1-0.3,1.9-0.3c0.7,0,1.3,0.1,1.7,0.2s0.7,0.4,0.9,0.7c0.2,0.4,0.3,0.9,0.3,1.5c0,0.5-0.1,0.9-0.3,1.1
			c-0.2,0.3-0.5,0.5-0.8,0.6s-0.8,0.2-1.2,0.2h-1.8c0,0.4,0.1,0.7,0.2,0.9c0.1,0.2,0.3,0.4,0.5,0.5c0.3,0.1,0.6,0.1,1.1,0.1h2.1v1.2
			c-0.3,0.1-0.7,0.1-1.1,0.2C94.1,83.1,93.6,83.1,93,83.1z M91.7,79h1.6c0.3,0,0.5-0.1,0.6-0.2s0.2-0.3,0.2-0.6c0-0.3,0-0.5-0.1-0.6
			c-0.1-0.2-0.2-0.3-0.4-0.3c-0.2-0.1-0.4-0.1-0.7-0.1s-0.5,0.1-0.7,0.2s-0.3,0.3-0.4,0.5C91.8,78.2,91.7,78.5,91.7,79z"/>
		<path class="st24" d="M98.7,83.1c-0.5,0-1-0.2-1.3-0.5s-0.5-0.8-0.5-1.3v-0.6c0-0.5,0.2-1,0.6-1.3c0.4-0.4,1-0.5,1.8-0.5h1.8v-0.5
			c0-0.2,0-0.4-0.1-0.6c-0.1-0.1-0.2-0.3-0.4-0.3c-0.2-0.1-0.6-0.1-1-0.1h-2.2v-1.2c0.3-0.1,0.8-0.2,1.2-0.3c0.5-0.1,1-0.1,1.7-0.1
			c0.6,0,1.1,0.1,1.5,0.2s0.7,0.4,1,0.7c0.2,0.3,0.3,0.8,0.3,1.4V83h-1.6l-0.3-0.8c-0.1,0.1-0.2,0.2-0.3,0.2
			c-0.2,0.1-0.3,0.2-0.6,0.3c-0.2,0.1-0.5,0.2-0.7,0.2C99.3,83.1,99,83.1,98.7,83.1z M99.7,81.8c0.1,0,0.2,0,0.3,0s0.2,0,0.3-0.1
			c0.1,0,0.2-0.1,0.3-0.1s0.2-0.1,0.3-0.1s0.1,0,0.1-0.1v-1.7l-1.2,0.1c-0.3,0-0.6,0.1-0.8,0.3s-0.2,0.4-0.2,0.6V81
			c0,0.2,0,0.3,0.1,0.4s0.2,0.2,0.3,0.2C99.4,81.7,99.5,81.8,99.7,81.8z"/>
		<path class="st24" d="M105.8,83.1l-1.9-7.2h2l1.1,5.3l1.4-5.3h1.6l1.4,5.3l1-5.3h2l-1.9,7.2h-2.2l-1.3-4.4l-1.3,4.4H105.8z"/>
		<path class="st24" d="M116.8,83.1c-0.5,0-1-0.2-1.3-0.5s-0.5-0.8-0.5-1.3v-0.6c0-0.5,0.2-1,0.6-1.3c0.4-0.4,1-0.5,1.8-0.5h1.8
			v-0.5c0-0.2,0-0.4-0.1-0.6c-0.1-0.1-0.2-0.3-0.4-0.3c-0.2-0.1-0.6-0.1-1-0.1h-2.2v-1.2c0.3-0.1,0.8-0.2,1.2-0.3
			c0.5-0.1,1-0.1,1.7-0.1c0.6,0,1.1,0.1,1.5,0.2s0.7,0.4,1,0.7c0.2,0.3,0.3,0.8,0.3,1.4V83h-1.6l-0.3-0.8c-0.1,0.1-0.2,0.2-0.3,0.2
			c-0.2,0.1-0.3,0.2-0.6,0.3c-0.2,0.1-0.5,0.2-0.7,0.2C117.4,83.1,117.1,83.1,116.8,83.1z M117.8,81.8c0.1,0,0.2,0,0.3,0
			s0.2,0,0.3-0.1c0.1,0,0.2-0.1,0.3-0.1s0.2-0.1,0.3-0.1s0.1,0,0.1-0.1v-1.7l-1.2,0.1c-0.3,0-0.6,0.1-0.8,0.3s-0.2,0.4-0.2,0.6V81
			c0,0.2,0,0.3,0.1,0.4s0.2,0.2,0.3,0.2C117.5,81.7,117.7,81.8,117.8,81.8z"/>
		<path class="st24" d="M124.9,86.2l0.8-3.2c-0.4,0-0.8-0.1-1.1-0.2c-0.3-0.2-0.6-0.4-0.8-0.6c-0.2-0.3-0.4-0.6-0.5-1l-1.4-5.3h2.1
			l1.1,4.9c0,0.2,0.1,0.3,0.2,0.4c0.1,0.1,0.1,0.2,0.2,0.2c0.1,0,0.2,0.1,0.2,0.1c0.1,0,0.1,0,0.2,0l1.3-5.6h2l-2.1,9l-0.6,1.3
			C126.5,86.2,124.9,86.2,124.9,86.2z"/>
		<path class="st24" d="M132.9,83.1c-0.2,0-0.5,0-0.7,0c-0.3,0-0.5,0-0.8-0.1s-0.5-0.1-0.7-0.1s-0.4-0.1-0.6-0.1v-1.2h3.2
			c0.2,0,0.3,0,0.5,0c0.1,0,0.2-0.1,0.3-0.2s0.1-0.2,0.1-0.4v-0.2c0-0.2-0.1-0.3-0.2-0.4c-0.1-0.1-0.3-0.1-0.6-0.1h-1.1
			c-0.4,0-0.8-0.1-1.1-0.2s-0.6-0.3-0.8-0.6c-0.2-0.3-0.3-0.7-0.3-1.2v-0.4c0-0.5,0.1-0.8,0.3-1.2c0.2-0.3,0.5-0.5,0.9-0.7
			s1-0.2,1.7-0.2c0.3,0,0.6,0,0.9,0s0.7,0.1,0.9,0.1c0.3,0,0.5,0.1,0.7,0.2v1.2h-3c-0.3,0-0.5,0-0.6,0.1s-0.2,0.2-0.2,0.5v0.2
			c0,0.2,0,0.3,0.1,0.4s0.2,0.1,0.3,0.2s0.3,0,0.5,0h1.1c0.7,0,1.3,0.2,1.6,0.5s0.5,0.8,0.5,1.4v0.6c0,0.5-0.1,0.9-0.3,1.1
			c-0.2,0.3-0.6,0.5-1,0.6C134,83.1,133.5,83.1,132.9,83.1z"/>
	</g>
	<g>
		<path class="st24" d="M166.6,83v-9.9h2V83H166.6z"/>
		<path class="st24" d="M170.2,83v-7.2h1.6l0.3,0.7c0.3-0.2,0.6-0.4,1-0.6s0.8-0.3,1.2-0.3c0.6,0,1,0.1,1.4,0.3
			c0.3,0.2,0.5,0.5,0.7,0.9c0.1,0.4,0.2,0.8,0.2,1.3v4.7h-2v-4.5c0-0.2,0-0.4-0.1-0.6s-0.2-0.3-0.4-0.3c-0.2-0.1-0.3-0.1-0.5-0.1
			s-0.4,0-0.5,0.1s-0.3,0.1-0.5,0.2s-0.3,0.2-0.4,0.3v5L170.2,83L170.2,83z"/>
		<path class="st24" d="M178.4,74.7c-0.2,0-0.3-0.1-0.3-0.3v-1.3c0-0.2,0.1-0.3,0.3-0.3h1.5c0.1,0,0.1,0,0.2,0.1
			c0,0.1,0.1,0.1,0.1,0.2v1.3c0,0.2-0.1,0.3-0.3,0.3C179.9,74.7,178.4,74.7,178.4,74.7z M178.1,83v-7.2h2V83H178.1z"/>
		<path class="st24" d="M184.3,83c-0.6,0-1-0.1-1.3-0.2c-0.3-0.2-0.6-0.4-0.7-0.8c-0.2-0.4-0.2-0.9-0.2-1.5l0.1-3h-1.1v-1.4l1.2-0.3
			l0.3-2h1.6v2h1.7v1.6h-1.7v3c0,0.2,0,0.4,0.1,0.5c0,0.1,0.1,0.2,0.2,0.3c0.1,0.1,0.1,0.1,0.2,0.2c0.1,0,0.2,0.1,0.3,0.1l0.9,0.1
			v1.5L184.3,83L184.3,83z"/>
		<path class="st24" d="M187.1,74.7c-0.2,0-0.3-0.1-0.3-0.3v-1.3c0-0.2,0.1-0.3,0.3-0.3h1.5c0.1,0,0.1,0,0.2,0.1
			c0,0.1,0.1,0.1,0.1,0.2v1.3c0,0.2-0.1,0.3-0.3,0.3C188.6,74.7,187.1,74.7,187.1,74.7z M186.8,83v-7.2h2V83H186.8z"/>
		<path class="st24" d="M191.8,83c-0.5,0-1-0.2-1.3-0.5s-0.5-0.8-0.5-1.3v-0.6c0-0.5,0.2-1,0.6-1.3c0.4-0.4,1-0.5,1.8-0.5h1.8v-0.5
			c0-0.2,0-0.4-0.1-0.6c-0.1-0.1-0.2-0.3-0.4-0.3c-0.2-0.1-0.5-0.1-1-0.1h-2.2v-1.2c0.3-0.1,0.8-0.2,1.2-0.3s1-0.1,1.7-0.1
			c0.6,0,1.1,0.1,1.5,0.2s0.7,0.4,1,0.7c0.2,0.3,0.3,0.8,0.3,1.4v4.9h-1.6l-0.3-0.8c-0.1,0.1-0.2,0.2-0.3,0.2
			c-0.2,0.1-0.3,0.2-0.6,0.3s-0.5,0.2-0.7,0.2C192.4,83,192.1,83,191.8,83z M192.9,81.7c0.1,0,0.2,0,0.3,0s0.2,0,0.3-0.1
			s0.2-0.1,0.3-0.1s0.2-0.1,0.3-0.1s0.1,0,0.1-0.1v-1.7l-1.2,0.1c-0.3,0-0.6,0.1-0.8,0.3c-0.2,0.2-0.2,0.4-0.2,0.6v0.3
			c0,0.2,0,0.3,0.1,0.4s0.2,0.2,0.3,0.2C192.5,81.6,192.7,81.7,192.9,81.7z"/>
		<path class="st24" d="M199.9,83c-0.5,0-0.9-0.1-1.3-0.2s-0.6-0.4-0.7-0.8c-0.2-0.3-0.2-0.8-0.2-1.3v-7.9h2v7.6
			c0,0.3,0,0.5,0.1,0.6c0.1,0.2,0.1,0.3,0.2,0.3c0.1,0.1,0.3,0.1,0.4,0.1l0.5,0.1v1.4h-1V83z"/>
		<path class="st24" d="M207.5,83v-8.1h-2.7v-1.8h7.4v1.8h-2.7V83H207.5z"/>
		<path class="st24" d="M215.6,83c-0.6,0-1.1-0.1-1.5-0.2s-0.8-0.3-1-0.6c-0.3-0.3-0.5-0.7-0.6-1.1c-0.1-0.5-0.2-1.1-0.2-1.8
			c0-0.7,0.1-1.3,0.2-1.8s0.3-0.9,0.6-1.1c0.3-0.3,0.6-0.5,1-0.6s0.9-0.2,1.5-0.2s1.1,0.1,1.5,0.2s0.8,0.3,1,0.6
			c0.3,0.3,0.5,0.6,0.6,1.1s0.2,1.1,0.2,1.8c0,0.7-0.1,1.3-0.2,1.8s-0.3,0.9-0.6,1.1s-0.6,0.5-1,0.6C216.7,83,216.2,83,215.6,83z
			 M215.6,81.5c0.2,0,0.4,0,0.6-0.1c0.2,0,0.3-0.1,0.4-0.3c0.1-0.1,0.2-0.3,0.2-0.6c0.1-0.3,0.1-0.7,0.1-1.1c0-0.5,0-0.8-0.1-1.1
			c-0.1-0.3-0.1-0.5-0.2-0.6s-0.2-0.2-0.4-0.3c-0.2,0-0.4-0.1-0.6-0.1s-0.4,0-0.6,0.1c-0.2,0-0.3,0.1-0.4,0.3
			c-0.1,0.1-0.2,0.3-0.2,0.6c0,0.3-0.1,0.7-0.1,1.1c0,0.5,0,0.8,0.1,1.1s0.1,0.5,0.2,0.6s0.2,0.2,0.4,0.3
			C215.1,81.4,215.3,81.5,215.6,81.5z"/>
		<path class="st24" d="M220.2,83V72.8h2v5.5h0.8l1.6-2.5h2l-2.1,3.4l2.3,3.8h-2l-1.8-2.9h-0.8V83H220.2z"/>
		<path class="st24" d="M230.6,83c-0.8,0-1.4-0.1-1.9-0.3c-0.5-0.2-0.8-0.6-1-1.1s-0.3-1.3-0.3-2.2c0-1,0.1-1.7,0.3-2.3
			c0.2-0.5,0.5-0.9,1-1.1s1.1-0.3,1.9-0.3c0.7,0,1.3,0.1,1.7,0.2c0.4,0.1,0.7,0.4,0.9,0.7c0.2,0.4,0.3,0.9,0.3,1.5
			c0,0.5-0.1,0.9-0.3,1.1c-0.2,0.3-0.5,0.5-0.8,0.6s-0.8,0.2-1.2,0.2h-1.9c0,0.4,0.1,0.7,0.2,0.9c0.1,0.2,0.3,0.4,0.5,0.5
			c0.3,0.1,0.6,0.1,1.1,0.1h2.1v1.2c-0.3,0.1-0.7,0.1-1.1,0.2C231.7,83,231.2,83,230.6,83z M229.3,78.9h1.6c0.3,0,0.5-0.1,0.6-0.2
			s0.2-0.3,0.2-0.6c0-0.3,0-0.5-0.1-0.6c-0.1-0.2-0.2-0.3-0.4-0.3c-0.2-0.1-0.4-0.1-0.7-0.1c-0.3,0-0.5,0.1-0.7,0.2
			s-0.3,0.3-0.4,0.5C229.4,78.1,229.3,78.4,229.3,78.9z"/>
		<path class="st24" d="M234.8,83v-7.2h1.6l0.3,0.7c0.3-0.2,0.6-0.4,1-0.6s0.8-0.3,1.2-0.3c0.6,0,1,0.1,1.4,0.3
			c0.3,0.2,0.5,0.5,0.7,0.9c0.1,0.4,0.2,0.8,0.2,1.3v4.7h-2v-4.5c0-0.2,0-0.4-0.1-0.6s-0.2-0.3-0.4-0.3c-0.2-0.1-0.3-0.1-0.5-0.1
			s-0.4,0-0.5,0.1s-0.3,0.1-0.5,0.2s-0.3,0.2-0.4,0.3v5L234.8,83L234.8,83z"/>
		<path class="st24" d="M249.3,83c-0.3,0-0.5,0-0.8,0s-0.5,0-0.8-0.1c-0.3,0-0.5-0.1-0.8-0.1c-0.2,0-0.5-0.1-0.7-0.1v-1.6
			c0.3,0,0.6,0,0.9,0.1c0.3,0,0.7,0,1.1,0s0.7,0,1,0s0.6,0,0.9-0.1s0.4-0.2,0.6-0.3s0.2-0.3,0.2-0.6v-0.4c0-0.3-0.1-0.5-0.3-0.7
			c-0.2-0.2-0.4-0.2-0.7-0.2h-0.8c-0.9,0-1.7-0.2-2.2-0.6s-0.8-1.1-0.8-2.1v-0.5c0-1,0.3-1.7,0.8-2.1c0.6-0.4,1.3-0.7,2.4-0.7
			c0.4,0,0.7,0,1.1,0.1c0.4,0,0.7,0.1,1,0.1s0.6,0.1,0.9,0.2v1.6c-0.4,0-0.9-0.1-1.4-0.1s-1,0-1.4,0c-0.3,0-0.6,0-0.8,0.1
			s-0.4,0.2-0.5,0.3c-0.1,0.2-0.2,0.4-0.2,0.7v0.2c0,0.3,0.1,0.6,0.3,0.7c0.2,0.2,0.5,0.2,0.9,0.2h1c0.6,0,1.1,0.1,1.5,0.3
			s0.7,0.5,0.9,0.9c0.2,0.4,0.3,0.8,0.3,1.3v0.6c0,0.8-0.1,1.4-0.4,1.8s-0.7,0.7-1.2,0.8C250.5,83,249.9,83,249.3,83z"/>
		<path class="st24" d="M256.1,83c-0.6,0-1.1-0.2-1.5-0.6s-0.5-0.9-0.5-1.6v-5.1h2v4.5c0,0.4,0.1,0.7,0.3,0.8
			c0.2,0.1,0.4,0.2,0.8,0.2c0.2,0,0.5,0,0.8-0.1s0.5-0.2,0.7-0.4v-5h2v7.2h-1.6l-0.3-0.7c-0.3,0.2-0.7,0.4-1.1,0.6
			C257,83,256.6,83,256.1,83z"/>
		<path class="st24" d="M262,86.1V75.8h1.7l0.3,0.7c0.2-0.1,0.4-0.3,0.6-0.4s0.4-0.2,0.7-0.3c0.2-0.1,0.5-0.1,0.8-0.1
			c0.4,0,0.8,0.1,1.1,0.3c0.3,0.2,0.6,0.4,0.8,0.7c0.2,0.3,0.4,0.7,0.5,1.2s0.1,1,0.1,1.5c0,0.8-0.1,1.4-0.2,2
			c-0.2,0.6-0.4,1-0.8,1.3s-0.9,0.4-1.5,0.4c-0.3,0-0.7,0-1-0.1c-0.4-0.1-0.7-0.2-1-0.3v3.4C264.1,86.1,262,86.1,262,86.1z
			 M265.3,81.4c0.2,0,0.4-0.1,0.6-0.2s0.3-0.3,0.4-0.6c0.1-0.3,0.2-0.7,0.2-1.3c0-0.5-0.1-1-0.2-1.3s-0.2-0.5-0.4-0.7
			c-0.2-0.1-0.4-0.2-0.6-0.2c-0.3,0-0.5,0-0.8,0.1c-0.2,0.1-0.4,0.2-0.6,0.3v3.6c0.2,0.1,0.4,0.2,0.6,0.3
			C264.9,81.4,265.1,81.4,265.3,81.4z"/>
		<path class="st24" d="M269.8,86.1V75.8h1.7l0.3,0.7c0.2-0.1,0.4-0.3,0.6-0.4s0.4-0.2,0.7-0.3c0.2-0.1,0.5-0.1,0.8-0.1
			c0.4,0,0.8,0.1,1.1,0.3c0.3,0.2,0.6,0.4,0.8,0.7c0.2,0.3,0.4,0.7,0.5,1.2s0.1,1,0.1,1.5c0,0.8-0.1,1.4-0.2,2
			c-0.2,0.6-0.4,1-0.8,1.3s-0.9,0.4-1.5,0.4c-0.3,0-0.7,0-1-0.1c-0.4-0.1-0.7-0.2-1-0.3v3.4C271.9,86.1,269.8,86.1,269.8,86.1z
			 M273.2,81.4c0.2,0,0.4-0.1,0.6-0.2s0.3-0.3,0.4-0.6c0.1-0.3,0.2-0.7,0.2-1.3c0-0.5-0.1-1-0.2-1.3s-0.2-0.5-0.4-0.7
			c-0.2-0.1-0.4-0.2-0.6-0.2c-0.3,0-0.5,0-0.8,0.1c-0.2,0.1-0.4,0.2-0.6,0.3v3.6c0.2,0.1,0.4,0.2,0.6,0.3
			C272.7,81.4,272.9,81.4,273.2,81.4z"/>
		<path class="st24" d="M279.9,83c-0.5,0-0.9-0.1-1.3-0.2s-0.6-0.4-0.7-0.8c-0.2-0.3-0.2-0.8-0.2-1.3v-7.9h2v7.6
			c0,0.3,0,0.5,0.1,0.6c0.1,0.2,0.1,0.3,0.2,0.3c0.1,0.1,0.3,0.1,0.4,0.1l0.5,0.1v1.4h-1V83z"/>
		<path class="st24" d="M284.1,86.1l0.8-3.2c-0.4,0-0.8-0.1-1.1-0.2c-0.3-0.2-0.6-0.4-0.8-0.6c-0.2-0.3-0.4-0.6-0.5-1l-1.4-5.3h2.1
			l1.1,4.9c0,0.2,0.1,0.3,0.2,0.4s0.1,0.2,0.2,0.2s0.2,0.1,0.2,0.1c0.1,0,0.1,0,0.2,0l1.3-5.6h2l-2.1,9l-0.6,1.3
			C285.7,86.1,284.1,86.1,284.1,86.1z"/>
	</g>
	<g>
		<path class="st24" d="M456.3,84.4v-8.1h-2.7v-1.8h7.4v1.8h-2.7v8.1H456.3z"/>
		<path class="st24" d="M464.4,84.4c-0.8,0-1.4-0.1-1.9-0.3c-0.5-0.2-0.8-0.6-1-1.1s-0.3-1.3-0.3-2.2c0-1,0.1-1.7,0.3-2.3
			c0.2-0.5,0.5-0.9,1-1.1s1.1-0.3,1.9-0.3c0.7,0,1.3,0.1,1.7,0.2c0.4,0.1,0.7,0.4,0.9,0.7c0.2,0.4,0.3,0.9,0.3,1.5
			c0,0.5-0.1,0.9-0.3,1.1c-0.2,0.3-0.5,0.5-0.8,0.6s-0.8,0.2-1.2,0.2h-1.8c0,0.4,0.1,0.7,0.2,0.9c0.1,0.2,0.3,0.4,0.5,0.5
			c0.3,0.1,0.6,0.1,1.1,0.1h2.1v1.2c-0.3,0.1-0.7,0.1-1.1,0.2C465.4,84.4,464.9,84.4,464.4,84.4z M463.1,80.3h1.6
			c0.3,0,0.5-0.1,0.6-0.2s0.2-0.3,0.2-0.6c0-0.3,0-0.5-0.1-0.6c-0.1-0.2-0.2-0.3-0.4-0.3c-0.2-0.1-0.4-0.1-0.7-0.1
			c-0.3,0-0.5,0.1-0.7,0.2s-0.3,0.3-0.4,0.5C463.1,79.5,463.1,79.8,463.1,80.3z"/>
		<path class="st24" d="M470.1,84.4c-0.5,0-1-0.2-1.3-0.5s-0.5-0.8-0.5-1.3V82c0-0.5,0.2-1,0.6-1.3c0.4-0.4,1-0.5,1.8-0.5h1.8v-0.5
			c0-0.2,0-0.4-0.1-0.6c-0.1-0.1-0.2-0.3-0.4-0.3c-0.2-0.1-0.5-0.1-1-0.1h-2.2v-1.2c0.3-0.1,0.8-0.2,1.2-0.3s1-0.1,1.7-0.1
			c0.6,0,1.1,0.1,1.5,0.2s0.7,0.4,1,0.7c0.2,0.3,0.3,0.8,0.3,1.4v4.9h-1.6l-0.3-0.8c-0.1,0.1-0.2,0.2-0.3,0.2
			c-0.2,0.1-0.3,0.2-0.6,0.3s-0.5,0.2-0.7,0.2C470.6,84.4,470.4,84.4,470.1,84.4z M471.1,83.1c0.1,0,0.2,0,0.3,0
			c0.1,0,0.2,0,0.3-0.1s0.2-0.1,0.3-0.1c0.1,0,0.2-0.1,0.3-0.1c0.1,0,0.1,0,0.1-0.1V81l-1.2,0.1c-0.3,0-0.6,0.1-0.8,0.3
			c-0.2,0.2-0.2,0.4-0.2,0.6v0.3c0,0.2,0,0.3,0.1,0.4s0.2,0.2,0.3,0.2C470.8,83,470.9,83.1,471.1,83.1z"/>
		<path class="st24" d="M475.9,84.4v-7.2h1.6l0.3,0.7c0.3-0.2,0.7-0.4,1-0.6c0.4-0.2,0.8-0.3,1.4-0.3c0.5,0,0.8,0.1,1.1,0.3
			s0.5,0.4,0.7,0.7c0.2-0.2,0.4-0.3,0.7-0.5c0.3-0.2,0.6-0.3,0.9-0.4s0.6-0.2,0.9-0.2c0.6,0,1,0.1,1.4,0.3s0.6,0.5,0.7,0.9
			s0.2,0.9,0.2,1.4v4.7h-2v-4.5c0-0.2,0-0.4-0.1-0.6s-0.2-0.3-0.4-0.3c-0.2-0.1-0.3-0.1-0.5-0.1c-0.3,0-0.5,0.1-0.8,0.2
			s-0.5,0.2-0.7,0.4c0,0.1,0,0.2,0,0.3c0,0.1,0,0.2,0,0.3v4.4h-2v-4.5c0-0.2,0-0.4-0.1-0.6s-0.2-0.3-0.4-0.3
			c-0.2-0.1-0.3-0.1-0.5-0.1s-0.4,0-0.5,0.1s-0.3,0.1-0.5,0.2s-0.3,0.2-0.4,0.3v5C477.9,84.4,475.9,84.4,475.9,84.4z"/>
	</g>
</g>
<g>
	<path class="st24" d="M365.9,41.3v-8.9l-1.9,0.2v-1.4l2.2-0.9h1.9v10.9H365.9z"/>
	<path class="st24" d="M372.7,41.4c-0.6,0-1.1-0.1-1.5-0.3c-0.4-0.2-0.7-0.5-1-0.9c-0.2-0.4-0.3-0.9-0.3-1.5v-5.3
		c0-0.6,0.1-1.2,0.3-1.6c0.2-0.4,0.6-0.8,1-1c0.4-0.2,0.9-0.3,1.5-0.3h2.3c0.6,0,1.1,0.1,1.5,0.3s0.7,0.6,0.9,1
		c0.2,0.4,0.3,1,0.3,1.6v5.3c0,0.9-0.2,1.6-0.7,2.1c-0.5,0.5-1.2,0.7-2,0.7H372.7z M373.2,39.5h1.2c0.4,0,0.7-0.1,0.9-0.3
		s0.3-0.5,0.3-0.9v-4.7c0-0.4-0.1-0.7-0.3-0.9s-0.5-0.3-0.8-0.3h-1.3c-0.4,0-0.6,0.1-0.8,0.3s-0.3,0.5-0.3,0.9v4.7
		c0,0.4,0.1,0.7,0.3,0.9C372.5,39.4,372.8,39.5,373.2,39.5z"/>
	<path class="st24" d="M380.9,36.2c-0.7,0-1.2-0.2-1.5-0.5c-0.3-0.3-0.4-0.8-0.4-1.4v-1.7c0-0.6,0.1-1.1,0.4-1.4
		c0.3-0.3,0.8-0.5,1.6-0.5h1.5c0.7,0,1.2,0.2,1.5,0.5c0.3,0.3,0.4,0.8,0.4,1.4v1.7c0,0.6-0.1,1.1-0.4,1.4c-0.3,0.3-0.8,0.5-1.6,0.5
		H380.9z M381.2,34.8h1c0.3,0,0.6-0.1,0.7-0.2c0.1-0.1,0.2-0.4,0.2-0.6v-1.1c0-0.3-0.1-0.6-0.2-0.7s-0.3-0.2-0.6-0.2h-1
		c-0.3,0-0.5,0.1-0.6,0.2c-0.2,0.1-0.2,0.3-0.2,0.7V34c0,0.3,0.1,0.5,0.2,0.6C380.6,34.8,380.9,34.8,381.2,34.8z M381.5,41.3
		l6.6-10.7h1.4L383,41.3H381.5z M388.6,41.3c-0.7,0-1.2-0.2-1.5-0.5c-0.3-0.3-0.4-0.8-0.4-1.4v-1.7c0-0.6,0.1-1.1,0.4-1.4
		s0.8-0.5,1.5-0.5h1.5c0.7,0,1.2,0.2,1.5,0.5c0.3,0.3,0.4,0.8,0.4,1.4v1.7c0,0.6-0.1,1.1-0.4,1.4c-0.3,0.3-0.8,0.5-1.6,0.5H388.6z
		 M388.9,39.9h0.9c0.3,0,0.6-0.1,0.7-0.2s0.2-0.4,0.2-0.6v-1.1c0-0.3-0.1-0.6-0.2-0.7s-0.3-0.2-0.7-0.2h-0.9c-0.3,0-0.5,0.1-0.6,0.2
		s-0.2,0.3-0.2,0.7V39c0,0.3,0.1,0.5,0.2,0.6S388.6,39.9,388.9,39.9z"/>
</g>
<g>
	<path class="st24" d="M67.1,41.4c-0.8,0-1.5,0-2.2-0.1c-0.7-0.1-1.3-0.1-1.9-0.2v-1.7h3.3c0.4,0,0.7,0,1-0.1s0.4-0.2,0.6-0.3
		s0.2-0.4,0.2-0.6v-0.5c0-0.3-0.1-0.5-0.2-0.6c-0.1-0.2-0.3-0.3-0.5-0.3s-0.5-0.1-0.7-0.1l-2.7-0.1v-1.7l2.6-0.1
		c0.4,0,0.8-0.1,1-0.2s0.4-0.4,0.4-0.7v-0.4c0-0.4-0.1-0.7-0.4-0.9s-0.7-0.3-1.3-0.3h-3v-1.7c0.6-0.1,1.2-0.2,1.8-0.2
		c0.7-0.1,1.3-0.1,2.1-0.1c0.6,0,1.2,0.1,1.6,0.3c0.4,0.2,0.8,0.5,1,0.9c0.2,0.4,0.3,0.9,0.3,1.5v0.8c0,0.3,0,0.5-0.1,0.7
		s-0.2,0.4-0.3,0.6s-0.3,0.3-0.4,0.4s-0.3,0.2-0.5,0.3c0.2,0,0.4,0.1,0.6,0.3c0.2,0.1,0.3,0.3,0.5,0.5c0.1,0.2,0.2,0.4,0.3,0.7
		s0.1,0.6,0.1,0.9v0.6c0,0.9-0.3,1.5-0.8,2S68,41.4,67.1,41.4z"/>
	<path class="st24" d="M75.4,41.4c-0.6,0-1.2,0-1.9-0.1c-0.7,0-1.3-0.1-1.9-0.2v-1.7h3.8c0.4,0,0.6-0.1,0.8-0.2s0.3-0.3,0.4-0.5
		c0.1-0.2,0.1-0.4,0.1-0.6v-0.7c0-0.3-0.1-0.6-0.3-0.8c-0.2-0.2-0.5-0.3-0.9-0.3h-0.8c-0.3,0-0.6,0.1-0.7,0.2
		c-0.2,0.1-0.3,0.3-0.3,0.6h-2l0.3-6.7h6.5v1.9H74L73.9,35c0.1-0.2,0.3-0.3,0.6-0.4c0.3-0.1,0.5-0.1,0.9-0.1h1.2
		c0.6,0,1,0.1,1.4,0.3s0.6,0.5,0.8,0.9c0.2,0.4,0.3,0.8,0.3,1.3v1.6c0,0.6-0.1,1.2-0.4,1.6c-0.3,0.4-0.7,0.7-1.2,0.9
		S76.2,41.4,75.4,41.4z"/>
	<path class="st24" d="M82.2,36.2c-0.7,0-1.2-0.2-1.5-0.5c-0.3-0.3-0.4-0.8-0.4-1.4v-1.7c0-0.6,0.1-1.1,0.4-1.4
		c0.3-0.3,0.8-0.5,1.6-0.5h1.5c0.7,0,1.2,0.2,1.5,0.5c0.3,0.3,0.4,0.8,0.4,1.4v1.7c0,0.6-0.1,1.1-0.4,1.4c-0.3,0.3-0.8,0.5-1.6,0.5
		H82.2z M82.4,34.8h1c0.3,0,0.6-0.1,0.7-0.2c0.1-0.1,0.2-0.4,0.2-0.6v-1.1c0-0.3-0.1-0.6-0.2-0.7S83.7,32,83.4,32h-1
		c-0.3,0-0.5,0.1-0.6,0.2c-0.2,0.1-0.2,0.3-0.2,0.7V34c0,0.3,0.1,0.5,0.2,0.6C81.9,34.8,82.1,34.8,82.4,34.8z M82.7,41.3l6.6-10.7
		h1.4l-6.5,10.7H82.7z M89.9,41.3c-0.7,0-1.2-0.2-1.5-0.5c-0.3-0.3-0.4-0.8-0.4-1.4v-1.7c0-0.6,0.1-1.1,0.4-1.4s0.8-0.5,1.5-0.5h1.5
		c0.7,0,1.2,0.2,1.5,0.5c0.3,0.3,0.4,0.8,0.4,1.4v1.7c0,0.6-0.1,1.1-0.4,1.4c-0.3,0.3-0.8,0.5-1.6,0.5H89.9z M90.2,39.9h0.9
		c0.3,0,0.6-0.1,0.7-0.2S92,39.3,92,39v-1.1c0-0.3-0.1-0.6-0.2-0.7s-0.3-0.2-0.7-0.2h-0.9c-0.3,0-0.5,0.1-0.6,0.2s-0.2,0.3-0.2,0.7
		V39c0,0.3,0.1,0.5,0.2,0.6S89.8,39.9,90.2,39.9z"/>
</g>
<g>
	<path class="st24" d="M453.3,41.4c-0.6,0-1.2,0-1.9-0.1c-0.7,0-1.3-0.1-1.9-0.2v-1.6h3.8c0.4,0,0.6-0.1,0.8-0.2s0.3-0.3,0.4-0.5
		s0.1-0.4,0.1-0.6v-0.7c0-0.3-0.1-0.6-0.3-0.8c-0.2-0.2-0.5-0.3-0.9-0.3h-0.8c-0.3,0-0.6,0.1-0.7,0.2c-0.2,0.1-0.3,0.3-0.3,0.6h-2
		l0.3-6.7h6.5v1.9h-4.6l-0.1,2.6c0.1-0.2,0.3-0.3,0.6-0.4c0.3-0.1,0.5-0.1,0.9-0.1h1.2c0.6,0,1,0.1,1.4,0.3s0.6,0.5,0.8,0.9
		c0.2,0.4,0.3,0.8,0.3,1.3v1.6c0,0.6-0.1,1.2-0.4,1.6c-0.3,0.4-0.7,0.7-1.2,0.9S454.1,41.4,453.3,41.4z"/>
	<path class="st24" d="M460.1,36.2c-0.7,0-1.2-0.2-1.5-0.5s-0.4-0.8-0.4-1.4v-1.8c0-0.6,0.1-1.1,0.4-1.4s0.8-0.5,1.6-0.5h1.5
		c0.7,0,1.2,0.2,1.5,0.5s0.4,0.8,0.4,1.4v1.7c0,0.6-0.1,1.1-0.4,1.4c-0.3,0.3-0.8,0.5-1.6,0.5L460.1,36.2L460.1,36.2z M460.3,34.8h1
		c0.3,0,0.6-0.1,0.7-0.2c0.1-0.1,0.2-0.4,0.2-0.6v-1.1c0-0.3-0.1-0.6-0.2-0.7c-0.1-0.1-0.3-0.2-0.6-0.2h-1c-0.3,0-0.5,0.1-0.6,0.2
		c-0.2,0.1-0.2,0.3-0.2,0.7V34c0,0.3,0.1,0.5,0.2,0.6C459.8,34.7,460,34.8,460.3,34.8z M460.6,41.3l6.6-10.7h1.4l-6.5,10.7H460.6z
		 M467.8,41.3c-0.7,0-1.2-0.2-1.5-0.5s-0.4-0.8-0.4-1.4v-1.7c0-0.6,0.1-1.1,0.4-1.4s0.8-0.5,1.5-0.5h1.5c0.7,0,1.2,0.2,1.5,0.5
		s0.4,0.8,0.4,1.4v1.7c0,0.6-0.1,1.1-0.4,1.4c-0.3,0.3-0.8,0.5-1.6,0.5H467.8z M468.1,39.9h0.9c0.3,0,0.6-0.1,0.7-0.2
		s0.2-0.4,0.2-0.6V38c0-0.3-0.1-0.6-0.2-0.7s-0.3-0.2-0.7-0.2h-0.9c-0.3,0-0.5,0.1-0.6,0.2s-0.2,0.3-0.2,0.7v1.1
		c0,0.3,0.1,0.5,0.2,0.6S467.7,39.9,468.1,39.9z"/>
</g>
<g>
	<path class="st24" d="M352.3,84c-0.5,0-1.1-0.1-1.5-0.2c-0.4-0.1-0.8-0.4-1.1-0.7s-0.5-0.8-0.7-1.5c-0.2-0.6-0.2-1.5-0.2-2.5
		c0-1,0.1-1.8,0.2-2.4c0.2-0.6,0.4-1.1,0.7-1.5s0.7-0.6,1.1-0.7c0.4-0.2,0.9-0.2,1.4-0.2c0.4,0,0.8,0,1.2,0.1c0.4,0,0.7,0.1,1,0.2
		c0.3,0.1,0.5,0.1,0.8,0.2v1.5c-0.2,0-0.4-0.1-0.6-0.1c-0.3,0-0.5-0.1-0.9-0.1c-0.4,0-0.7,0-1.1,0c-0.4,0-0.7,0-0.9,0.1
		c-0.3,0.1-0.5,0.2-0.6,0.5s-0.3,0.5-0.4,0.9c-0.1,0.4-0.1,0.9-0.1,1.6c0,0.6,0,1.2,0.1,1.6c0.1,0.4,0.2,0.7,0.3,1
		c0.2,0.2,0.4,0.4,0.6,0.5c0.3,0.1,0.6,0.1,1,0.1c0.7,0,1.2,0,1.6,0c0.4,0,0.7,0,1-0.1v1.5c-0.2,0.1-0.5,0.2-0.8,0.2
		c-0.3,0-0.6,0.1-1,0.1C353.2,84,352.8,84,352.3,84z"/>
	<path class="st24" d="M359.4,84c-0.6,0-1.1,0-1.4-0.2c-0.4-0.1-0.7-0.3-1-0.6c-0.2-0.3-0.4-0.6-0.5-1.1c-0.1-0.5-0.2-1-0.2-1.7
		c0-0.7,0-1.3,0.2-1.8c0.1-0.5,0.3-0.8,0.5-1.1c0.2-0.3,0.6-0.4,1-0.5c0.4-0.1,0.9-0.2,1.4-0.2c0.6,0,1.1,0,1.5,0.2
		c0.4,0.1,0.7,0.3,1,0.5c0.3,0.3,0.4,0.6,0.5,1.1c0.1,0.5,0.2,1.1,0.2,1.8c0,0.7,0,1.2-0.2,1.7s-0.3,0.8-0.5,1.1s-0.6,0.5-1,0.6
		C360.5,84,360,84,359.4,84z M359.4,82.5c0.2,0,0.4,0,0.6-0.1c0.2,0,0.3-0.1,0.4-0.3c0.1-0.1,0.2-0.4,0.2-0.6c0-0.3,0.1-0.6,0.1-1.1
		s0-0.8-0.1-1.1c0-0.3-0.1-0.5-0.2-0.6c-0.1-0.1-0.2-0.2-0.4-0.3c-0.2,0-0.4-0.1-0.6-0.1c-0.2,0-0.4,0-0.6,0.1s-0.3,0.1-0.4,0.3
		c-0.1,0.1-0.2,0.4-0.2,0.6s-0.1,0.6-0.1,1.1c0,0.4,0,0.8,0.1,1.1c0,0.3,0.1,0.5,0.2,0.6c0.1,0.1,0.2,0.2,0.4,0.3
		C359,82.5,359.2,82.5,359.4,82.5z"/>
	<path class="st24" d="M363.9,84V77h1.6l0.4,0.7c0.3-0.2,0.6-0.4,1-0.6c0.4-0.2,0.8-0.2,1.3-0.2c0.4,0,0.8,0.1,1.1,0.3
		c0.3,0.2,0.5,0.4,0.7,0.7c0.2-0.2,0.4-0.3,0.7-0.5c0.3-0.2,0.5-0.3,0.9-0.4c0.3-0.1,0.6-0.2,0.9-0.2c0.5,0,1,0.1,1.3,0.3
		c0.3,0.2,0.5,0.5,0.7,0.9s0.2,0.8,0.2,1.4v4.5h-1.9v-4.3c0-0.2,0-0.4-0.1-0.5c-0.1-0.2-0.2-0.3-0.4-0.4s-0.3-0.1-0.5-0.1
		c-0.3,0-0.5,0-0.8,0.2c-0.3,0.1-0.5,0.2-0.7,0.4c0,0.1,0,0.2,0,0.2c0,0.1,0,0.2,0,0.2v4.3h-1.9v-4.3c0-0.2,0-0.4-0.1-0.5
		c-0.1-0.2-0.2-0.3-0.4-0.4c-0.2-0.1-0.3-0.1-0.5-0.1c-0.2,0-0.4,0-0.5,0.1c-0.2,0-0.3,0.1-0.5,0.2c-0.2,0.1-0.3,0.2-0.4,0.3V84
		H363.9z"/>
	<path class="st24" d="M375.8,84V77h1.6l0.4,0.7c0.3-0.2,0.6-0.4,1-0.6c0.4-0.2,0.8-0.2,1.3-0.2c0.4,0,0.8,0.1,1.1,0.3
		c0.3,0.2,0.5,0.4,0.7,0.7c0.2-0.2,0.4-0.3,0.7-0.5c0.3-0.2,0.5-0.3,0.9-0.4c0.3-0.1,0.6-0.2,0.9-0.2c0.5,0,1,0.1,1.3,0.3
		c0.3,0.2,0.5,0.5,0.7,0.9c0.1,0.4,0.2,0.8,0.2,1.4v4.5h-1.9v-4.3c0-0.2,0-0.4-0.1-0.5c-0.1-0.2-0.2-0.3-0.4-0.4
		c-0.2-0.1-0.3-0.1-0.5-0.1c-0.3,0-0.5,0-0.8,0.2s-0.5,0.2-0.7,0.4c0,0.1,0,0.2,0,0.2c0,0.1,0,0.2,0,0.2v4.3h-1.9v-4.3
		c0-0.2,0-0.4-0.1-0.5c-0.1-0.2-0.2-0.3-0.4-0.4s-0.3-0.1-0.5-0.1c-0.2,0-0.4,0-0.5,0.1c-0.2,0-0.3,0.1-0.5,0.2
		c-0.2,0.1-0.3,0.2-0.4,0.3V84H375.8z"/>
	<path class="st24" d="M389.8,84c-0.6,0-1.1-0.2-1.4-0.5c-0.4-0.4-0.5-0.9-0.5-1.6V77h1.9v4.3c0,0.4,0.1,0.7,0.3,0.8
		c0.2,0.1,0.4,0.2,0.7,0.2c0.2,0,0.5,0,0.7-0.1c0.3-0.1,0.5-0.2,0.7-0.4v-4.8h1.9V84h-1.6l-0.4-0.7c-0.3,0.2-0.7,0.4-1.1,0.5
		C390.7,84,390.2,84,389.8,84z"/>
	<path class="st24" d="M395.5,84V77h1.6l0.4,0.7c0.3-0.2,0.6-0.4,1-0.6c0.4-0.2,0.8-0.2,1.2-0.2c0.6,0,1,0.1,1.3,0.4
		c0.3,0.2,0.5,0.5,0.7,0.9s0.2,0.8,0.2,1.2V84h-1.9v-4.3c0-0.2,0-0.4-0.1-0.5c-0.1-0.2-0.2-0.3-0.4-0.4s-0.3-0.1-0.5-0.1
		c-0.2,0-0.4,0-0.5,0.1c-0.2,0-0.3,0.1-0.5,0.2c-0.2,0.1-0.3,0.2-0.4,0.3V84H395.5z"/>
	<path class="st24" d="M403.4,76c-0.2,0-0.3-0.1-0.3-0.3v-1.2c0-0.2,0.1-0.3,0.3-0.3h1.5c0.1,0,0.2,0,0.2,0.1s0.1,0.1,0.1,0.2v1.2
		c0,0.2-0.1,0.3-0.2,0.3H403.4z M403.1,84V77h1.9V84H403.1z"/>
	<path class="st24" d="M409.1,84c-0.5,0-1-0.1-1.3-0.2c-0.3-0.2-0.6-0.4-0.7-0.8c-0.2-0.4-0.2-0.9-0.2-1.4l0.1-2.9h-1.1v-1.2
		l1.1-0.3l0.3-1.9h1.5v1.9h1.6v1.5h-1.6v2.9c0,0.2,0,0.4,0,0.5c0,0.1,0.1,0.2,0.2,0.3c0.1,0.1,0.2,0.1,0.2,0.2c0.1,0,0.2,0,0.3,0.1
		l0.9,0.1V84L409.1,84L409.1,84z"/>
	<path class="st24" d="M413.7,87l0.7-3c-0.4,0-0.7-0.1-1-0.2c-0.3-0.2-0.5-0.4-0.7-0.6c-0.2-0.3-0.4-0.6-0.4-1l-1.3-5.1h2l1.1,4.7
		c0,0.2,0.1,0.3,0.2,0.4c0.1,0.1,0.2,0.2,0.2,0.2c0.1,0,0.2,0.1,0.2,0.1c0.1,0,0.1,0,0.2,0L416,77h1.9l-2.1,8.7l-0.6,1.3L413.7,87
		L413.7,87z"/>
</g>
</svg>
