<?xml version="1.0" encoding="utf-8"?>
<!-- Generator: Adobe Illustrator 26.0.1, SVG Export Plug-In . SVG Version: 6.00 Build 0)  -->
<svg version="1.1" xmlns="http://www.w3.org/2000/svg" xmlns:xlink="http://www.w3.org/1999/xlink" x="0px" y="0px"
	 viewBox="0 0 500 97.8" style="enable-background:new 0 0 500 97.8;" xml:space="preserve">
<style type="text/css">
	.st0{fill:#FB44D5;}
	.st1{fill:#933181;}
	.st2{fill:none;stroke:#FFE4F9;stroke-width:2.208;stroke-linecap:round;stroke-linejoin:round;stroke-miterlimit:10;}
	.st3{fill:#FBD140;}
	.st4{fill:#DA1C5C;}
	.st5{fill:#27AAE1;}
	.st6{fill:#8DC63F;}
	.st7{fill:#39B54A;}
	.st8{fill:#1C75BC;}
	.st9{fill:#AE1C42;}
	.st10{fill:#FBAE40;}
	.st11{opacity:0.4;fill:#FBAE40;}
	.st12{opacity:0.4;fill:#DA1C5C;}
	.st13{opacity:0.4;fill:#39B54A;}
	.st14{opacity:0.4;fill:#27AAE1;}
	.st15{fill:#FFFFFF;}
	.st16{opacity:0.5;fill:#FBD140;}
	.st17{opacity:0.5;fill:#27AAE1;}
	.st18{opacity:0.5;fill:#39B54A;}
	.st19{fill:none;stroke:#E77000;stroke-width:2.208;stroke-linecap:round;stroke-linejoin:round;stroke-miterlimit:10;}
	.st20{fill:none;stroke:#981C1E;stroke-width:2.208;stroke-linecap:round;stroke-linejoin:round;stroke-miterlimit:10;}
	.st21{fill:none;stroke:#2B3990;stroke-width:2.208;stroke-linecap:round;stroke-linejoin:round;stroke-miterlimit:10;}
	.st22{fill:none;stroke:#006838;stroke-width:2.208;stroke-linecap:round;stroke-linejoin:round;stroke-miterlimit:10;}
	.st23{fill:#FFE4F9;}
</style>
<g id="BACKGROUND">
</g>
<g id="OBJECTS">
	<g>
		<g>
			<g>
				<path class="st0" d="M478.1,50.1H22.6C12.3,50.1,4,41.3,4,30.5s8.3-19.6,18.6-19.6h455.5c10.2,0,18.6,8.8,18.6,19.6
					S488.3,50.1,478.1,50.1z"/>
			</g>
			<path class="st0" d="M496.5,31.2H4c0.4,10.5,8.5,18.9,18.5,18.9h455.5c9.4,0,17.2-7.5,18.4-17.1V31.2z"/>
			<path class="st1" d="M312.3,50.1h165.8c9.4,0,17.2-7.5,18.4-17.1v-1.9H326L312.3,50.1z"/>
			<g>
				<path class="st2" d="M478.1,50.1H22.6C12.3,50.1,4,41.3,4,30.5s8.3-19.6,18.6-19.6h455.5c10.2,0,18.6,8.8,18.6,19.6
					S488.3,50.1,478.1,50.1z"/>
			</g>
			<path class="st3" d="M113.1,18.6H25.6c-6.5,0-11.9,5.3-11.9,11.9c0,6.5,5.3,11.9,11.9,11.9h27.7l8.8,18l8.8-18h42.2V18.6z"/>
			<polygon class="st4" points="200.4,18.6 113.1,18.6 113.1,42.4 150.3,42.4 159.1,60.3 167.9,42.4 200.4,42.4 			"/>
			<polygon class="st5" points="387.6,18.6 200.4,18.6 200.4,42.4 283.9,42.4 290.6,60.3 301.6,42.4 387.6,42.4 			"/>
			<path class="st6" d="M475.1,18.6h-87.5v23.7h39.3l8.8,18l8.8-18h30.5c6.5,0,11.9-5.3,11.9-11.9C486.9,24,481.6,18.6,475.1,18.6z"
				/>
			<path class="st7" d="M387.6,31.9v11.1h39.3l8.8,18l8.8-18h30.5c6.3,0,11.4-4.9,11.8-11.1H387.6z"/>
			<polygon class="st8" points="200.4,31.9 200.4,43.1 283.9,43.1 290.6,61 301.6,43.1 387.6,43.1 387.6,31.9 			"/>
			<polygon class="st9" points="113.1,31.9 113.1,43.1 150.3,43.1 159.1,61 167.9,43.1 200.4,43.1 200.4,31.9 			"/>
			<path class="st10" d="M13.7,31.2c0.4,6.2,5.5,11.1,11.8,11.1h27.7l8.8,18l8.8-18h42.2V31.2H13.7z"/>
			<polygon class="st11" points="113.1,18.6 84.4,18.6 70.9,42.4 113.1,42.4 			"/>
			<polygon class="st12" points="167.9,42.4 167.9,42.4 167.9,42.4 200.4,42.4 200.4,18.6 181.4,18.6 			"/>
			<path class="st13" d="M475.1,18.6h-17l-13.5,23.7l0,0v0h30.5c6.5,0,11.9-5.3,11.9-11.9C486.9,24,481.6,18.6,475.1,18.6z"/>
			<polygon class="st14" points="301.6,42.4 301.6,42.4 301.6,42.4 387.6,42.4 387.6,18.6 315.1,18.6 			"/>
			<g>
				<path class="st15" d="M33.4,26.3c-0.5,0-0.9-0.5-0.9-1l0,0c0-0.6,0.4-1.1,0.9-1.1h34c0.5,0,0.9,0.5,0.9,1.1l0,0
					c0,0.6-0.4,1-0.9,1H33.4z"/>
				<path class="st15" d="M26.5,26.3c-0.5,0-0.9-0.5-0.9-1l0,0c0-0.6,0.4-1.1,0.9-1.1h2.9c0.5,0,0.9,0.5,0.9,1.1l0,0
					c0,0.6-0.4,1-0.9,1H26.5z"/>
			</g>
			<g>
				<path class="st15" d="M405.8,26.3c-0.5,0-0.9-0.5-0.9-1l0,0c0-0.6,0.4-1.1,0.9-1.1H433c0.5,0,0.9,0.5,0.9,1.1l0,0
					c0,0.6-0.4,1-0.9,1H405.8z"/>
				<path class="st15" d="M398.9,26.3c-0.5,0-0.9-0.5-0.9-1l0,0c0-0.6,0.4-1.1,0.9-1.1h2.9c0.5,0,0.9,0.5,0.9,1.1l0,0
					c0,0.6-0.4,1-0.9,1H398.9z"/>
			</g>
			<g>
				<path class="st15" d="M220.4,26.3c-0.5,0-0.9-0.5-0.9-1l0,0c0-0.6,0.4-1.1,0.9-1.1h104.3c0.5,0,0.9,0.5,0.9,1.1l0,0
					c0,0.6-0.4,1-0.9,1H220.4z"/>
				<path class="st15" d="M213.5,26.3c-0.5,0-0.9-0.5-0.9-1l0,0c0-0.6,0.4-1.1,0.9-1.1h2.9c0.5,0,0.9,0.5,0.9,1.1l0,0
					c0,0.6-0.4,1-0.9,1H213.5z"/>
			</g>
			<g>
				<path class="st15" d="M129.2,26.3c-0.5,0-0.9-0.5-0.9-1l0,0c0-0.6,0.4-1.1,0.9-1.1h27c0.5,0,0.9,0.5,0.9,1.1l0,0
					c0,0.6-0.4,1-0.9,1H129.2z"/>
				<path class="st15" d="M122.3,26.3c-0.5,0-0.9-0.5-0.9-1l0,0c0-0.6,0.4-1.1,0.9-1.1h2.9c0.5,0,0.9,0.5,0.9,1.1l0,0
					c0,0.6-0.4,1-0.9,1H122.3z"/>
			</g>
			<path class="st16" d="M25.6,18.6c-6.5,0-11.9,5.3-11.9,11.9c0,6.5,5.3,11.9,11.9,11.9h2.7l10.7-23.7H25.6z"/>
			<polygon class="st12" points="113.1,18.6 113.1,42.4 125.2,42.4 135.9,18.6 			"/>
			<polygon class="st17" points="239.4,18.6 200.4,18.6 200.4,42.4 228.7,42.4 			"/>
			<polygon class="st18" points="414.7,18.6 387.6,18.6 387.6,42.4 404.1,42.4 			"/>
			<path class="st19" d="M113.1,18.6H25.6c-6.5,0-11.9,5.3-11.9,11.9c0,6.5,5.3,11.9,11.9,11.9h27.7l8.8,18l8.8-18h42.2V18.6z"/>
			<polygon class="st20" points="200.4,18.6 113.1,18.6 113.1,42.4 150.3,42.4 159.1,60.3 167.9,42.4 200.4,42.4 			"/>
			<polygon class="st21" points="387.6,18.6 200.4,18.6 200.4,42.4 283.9,42.4 290.6,60.3 301.6,42.4 387.6,42.4 			"/>
			<path class="st22" d="M475.1,18.6h-87.5v23.7h39.3l8.8,18l8.8-18h30.5c6.5,0,11.9-5.3,11.9-11.9C486.9,24,481.6,18.6,475.1,18.6z
				"/>
			<g>
				<path class="st23" d="M44.1,79.9V70h4.1c0.4,0,0.8,0,1.1,0.1c0.3,0.1,0.6,0.3,0.9,0.5c0.3,0.2,0.5,0.6,0.6,1s0.2,0.9,0.2,1.6
					c0,0.5,0,0.8-0.1,1.2c-0.1,0.3-0.2,0.6-0.4,0.8c-0.1,0.2-0.3,0.4-0.5,0.5c-0.2,0.1-0.4,0.2-0.6,0.3l1.8,4h-2l-1.6-3.7
					c-0.1,0-0.2,0-0.4,0c-0.1,0-0.3,0-0.4,0c-0.1,0-0.3,0-0.4,0s-0.3,0-0.4,0v3.7H44.1z M46.1,74.6h1.8c0.2,0,0.3,0,0.5-0.1
					s0.3-0.1,0.4-0.2c0.1-0.1,0.2-0.3,0.2-0.4c0.1-0.2,0.1-0.4,0.1-0.7c0-0.3,0-0.5-0.1-0.7c-0.1-0.2-0.1-0.3-0.2-0.4
					s-0.2-0.2-0.4-0.2s-0.3-0.1-0.5-0.1h-1.8V74.6z"/>
				<path class="st23" d="M55.3,79.9c-0.8,0-1.4-0.1-1.9-0.3c-0.5-0.2-0.8-0.6-1-1.1C52.1,78,52,77.2,52,76.3c0-1,0.1-1.7,0.3-2.3
					c0.2-0.5,0.5-0.9,1-1.1c0.5-0.2,1.1-0.3,1.9-0.3c0.7,0,1.3,0.1,1.7,0.2c0.4,0.1,0.7,0.4,0.9,0.7c0.2,0.4,0.3,0.9,0.3,1.5
					c0,0.5-0.1,0.9-0.3,1.1c-0.2,0.3-0.5,0.5-0.8,0.6c-0.3,0.1-0.8,0.2-1.2,0.2H54c0,0.4,0.1,0.7,0.2,0.9c0.1,0.2,0.3,0.4,0.5,0.5
					c0.3,0.1,0.6,0.1,1.1,0.1h2.1v1.2c-0.3,0.1-0.7,0.1-1.1,0.2C56.3,79.9,55.8,79.9,55.3,79.9z M54,75.8h1.6c0.3,0,0.5-0.1,0.6-0.2
					c0.1-0.1,0.2-0.3,0.2-0.6c0-0.3,0-0.5-0.1-0.6c-0.1-0.2-0.2-0.3-0.4-0.3C55.7,74,55.5,74,55.2,74c-0.3,0-0.5,0.1-0.7,0.2
					c-0.2,0.1-0.3,0.3-0.4,0.5C54,75,54,75.3,54,75.8z"/>
				<path class="st23" d="M62,79.9c-0.2,0-0.5,0-0.7,0c-0.3,0-0.5,0-0.8-0.1s-0.5-0.1-0.7-0.1s-0.4-0.1-0.6-0.1v-1.2h3.2
					c0.2,0,0.3,0,0.5,0c0.1,0,0.2-0.1,0.3-0.2c0.1-0.1,0.1-0.2,0.1-0.4v-0.2c0-0.2-0.1-0.3-0.2-0.4c-0.1-0.1-0.3-0.1-0.6-0.1h-1.1
					c-0.4,0-0.8-0.1-1.1-0.2c-0.3-0.1-0.6-0.3-0.8-0.6c-0.2-0.3-0.3-0.7-0.3-1.2v-0.4c0-0.5,0.1-0.8,0.3-1.2
					c0.2-0.3,0.5-0.5,0.9-0.7c0.4-0.2,1-0.2,1.7-0.2c0.3,0,0.6,0,0.9,0s0.7,0.1,0.9,0.1c0.3,0,0.5,0.1,0.7,0.2v1.2h-3
					c-0.3,0-0.5,0-0.6,0.1c-0.1,0.1-0.2,0.2-0.2,0.5v0.2c0,0.2,0,0.3,0.1,0.4s0.2,0.1,0.3,0.2s0.3,0,0.5,0h1.1
					c0.7,0,1.3,0.2,1.6,0.5c0.3,0.3,0.5,0.8,0.5,1.4V78c0,0.5-0.1,0.9-0.3,1.1c-0.2,0.3-0.6,0.5-1,0.6C63.2,79.9,62.6,79.9,62,79.9z
					"/>
				<path class="st23" d="M69.2,79.9c-0.8,0-1.4-0.1-1.9-0.3c-0.5-0.2-0.8-0.6-1-1.1c-0.2-0.5-0.3-1.3-0.3-2.2c0-1,0.1-1.7,0.3-2.3
					c0.2-0.5,0.5-0.9,1-1.1c0.5-0.2,1.1-0.3,1.9-0.3c0.7,0,1.3,0.1,1.7,0.2c0.4,0.1,0.7,0.4,0.9,0.7C72,73.9,72,74.4,72,75
					c0,0.5-0.1,0.9-0.3,1.1c-0.2,0.3-0.5,0.5-0.8,0.6c-0.3,0.1-0.8,0.2-1.2,0.2h-1.8c0,0.4,0.1,0.7,0.2,0.9c0.1,0.2,0.3,0.4,0.5,0.5
					c0.3,0.1,0.6,0.1,1.1,0.1h2.1v1.2c-0.3,0.1-0.7,0.1-1.1,0.2C70.2,79.9,69.8,79.9,69.2,79.9z M67.9,75.8h1.6
					c0.3,0,0.5-0.1,0.6-0.2c0.1-0.1,0.2-0.3,0.2-0.6c0-0.3,0-0.5-0.1-0.6c-0.1-0.2-0.2-0.3-0.4-0.3C69.6,74,69.4,74,69.1,74
					c-0.3,0-0.5,0.1-0.7,0.2c-0.2,0.1-0.3,0.3-0.4,0.5C67.9,75,67.9,75.3,67.9,75.8z"/>
				<path class="st23" d="M73.3,79.9v-7.2h1.5l0.5,1.1c0.3-0.3,0.6-0.6,0.9-0.8c0.3-0.2,0.7-0.3,1.2-0.3c0.1,0,0.2,0,0.3,0
					c0.1,0,0.2,0,0.3,0.1v2c-0.1,0-0.3,0-0.4,0c-0.1,0-0.3,0-0.4,0c-0.3,0-0.5,0-0.7,0.1c-0.2,0.1-0.4,0.1-0.6,0.3
					c-0.2,0.1-0.3,0.3-0.5,0.4v4.5H73.3z"/>
				<path class="st23" d="M80.8,79.9l-2.4-7.2h2L82,78l1.6-5.3h2l-2.5,7.2H80.8z"/>
				<path class="st23" d="M89.3,79.9c-0.8,0-1.4-0.1-1.9-0.3c-0.5-0.2-0.8-0.6-1-1.1c-0.2-0.5-0.3-1.3-0.3-2.2c0-1,0.1-1.7,0.3-2.3
					c0.2-0.5,0.5-0.9,1-1.1c0.5-0.2,1.1-0.3,1.9-0.3c0.7,0,1.3,0.1,1.7,0.2c0.4,0.1,0.7,0.4,0.9,0.7c0.2,0.4,0.3,0.9,0.3,1.5
					c0,0.5-0.1,0.9-0.3,1.1c-0.2,0.3-0.5,0.5-0.8,0.6c-0.3,0.1-0.8,0.2-1.2,0.2H88c0,0.4,0.1,0.7,0.2,0.9c0.1,0.2,0.3,0.4,0.5,0.5
					c0.3,0.1,0.6,0.1,1.1,0.1h2.1v1.2c-0.3,0.1-0.7,0.1-1.1,0.2C90.4,79.9,89.9,79.9,89.3,79.9z M88,75.8h1.6c0.3,0,0.5-0.1,0.6-0.2
					c0.1-0.1,0.2-0.3,0.2-0.6c0-0.3,0-0.5-0.1-0.6c-0.1-0.2-0.2-0.3-0.4-0.3C89.7,74,89.5,74,89.2,74c-0.3,0-0.5,0.1-0.7,0.2
					c-0.2,0.1-0.3,0.3-0.4,0.5C88,75,88,75.3,88,75.8z"/>
			</g>
			<g>
				<path class="st23" d="M115.8,79.9l3.1-9.9h2.5l3.1,9.9h-2.1l-0.6-2.1h-3.4l-0.6,2.1H115.8z M119,76h2.4l-1.2-4.3L119,76z"/>
				<path class="st23" d="M125.6,79.9V70h2v9.9H125.6z"/>
				<path class="st23" d="M129.2,79.9v-7.2h1.5l0.5,1.1c0.3-0.3,0.6-0.6,0.9-0.8c0.3-0.2,0.7-0.3,1.2-0.3c0.1,0,0.2,0,0.3,0
					c0.1,0,0.2,0,0.3,0.1v2c-0.1,0-0.3,0-0.4,0c-0.1,0-0.3,0-0.4,0c-0.3,0-0.5,0-0.7,0.1c-0.2,0.1-0.4,0.1-0.6,0.3
					c-0.2,0.1-0.3,0.3-0.5,0.4v4.5H129.2z"/>
				<path class="st23" d="M137.2,79.9c-0.6,0-1-0.1-1.4-0.4c-0.4-0.2-0.7-0.6-0.9-1.1c-0.2-0.5-0.3-1.2-0.3-2.1
					c0-0.9,0.1-1.6,0.2-2.2c0.2-0.6,0.4-1,0.8-1.2s0.9-0.4,1.6-0.4c0.3,0,0.7,0,1,0.1c0.3,0.1,0.6,0.1,0.9,0.2v-3.2h2v10.2h-1.7
					l-0.3-0.7c-0.2,0.1-0.3,0.3-0.6,0.4c-0.2,0.1-0.4,0.2-0.7,0.3C137.7,79.9,137.5,79.9,137.2,79.9z M137.9,78.4
					c0.3,0,0.5,0,0.7-0.1c0.2-0.1,0.4-0.2,0.5-0.3v-3.6c-0.2-0.1-0.4-0.1-0.6-0.2c-0.2-0.1-0.4-0.1-0.6-0.1c-0.3,0-0.6,0.1-0.8,0.2
					s-0.3,0.3-0.4,0.6c-0.1,0.3-0.1,0.8-0.1,1.4c0,0.6,0,1,0.1,1.3c0.1,0.3,0.2,0.5,0.4,0.6C137.4,78.3,137.6,78.4,137.9,78.4z"/>
				<path class="st23" d="M142.7,79.9v-7.2h1.5l0.5,1.1c0.3-0.3,0.6-0.6,0.9-0.8c0.3-0.2,0.7-0.3,1.2-0.3c0.1,0,0.2,0,0.3,0
					c0.1,0,0.2,0,0.3,0.1v2c-0.1,0-0.3,0-0.4,0c-0.1,0-0.3,0-0.4,0c-0.3,0-0.5,0-0.7,0.1c-0.2,0.1-0.4,0.1-0.6,0.3
					c-0.2,0.1-0.3,0.3-0.5,0.4v4.5H142.7z"/>
				<path class="st23" d="M151.4,79.9c-0.6,0-1.1-0.1-1.5-0.2c-0.4-0.1-0.8-0.3-1-0.6c-0.3-0.3-0.5-0.7-0.6-1.1
					c-0.1-0.5-0.2-1.1-0.2-1.8c0-0.7,0.1-1.3,0.2-1.8c0.1-0.5,0.3-0.9,0.6-1.1c0.3-0.3,0.6-0.5,1-0.6s0.9-0.2,1.5-0.2
					c0.6,0,1.1,0.1,1.5,0.2s0.8,0.3,1,0.6c0.3,0.3,0.5,0.6,0.6,1.1c0.1,0.5,0.2,1.1,0.2,1.8c0,0.7-0.1,1.3-0.2,1.8
					c-0.1,0.5-0.3,0.9-0.6,1.1c-0.3,0.3-0.6,0.5-1,0.6C152.5,79.9,152,79.9,151.4,79.9z M151.4,78.4c0.2,0,0.4,0,0.6-0.1
					c0.2,0,0.3-0.1,0.4-0.3c0.1-0.1,0.2-0.3,0.2-0.6c0.1-0.3,0.1-0.7,0.1-1.1c0-0.5,0-0.8-0.1-1.1c-0.1-0.3-0.1-0.5-0.2-0.6
					c-0.1-0.1-0.2-0.2-0.4-0.3c-0.2,0-0.4-0.1-0.6-0.1c-0.2,0-0.4,0-0.6,0.1c-0.2,0-0.3,0.1-0.4,0.3c-0.1,0.1-0.2,0.3-0.2,0.6
					c0,0.3-0.1,0.7-0.1,1.1c0,0.5,0,0.8,0.1,1.1c0,0.3,0.1,0.5,0.2,0.6c0.1,0.1,0.2,0.2,0.4,0.3C151,78.3,151.2,78.4,151.4,78.4z"/>
				<path class="st23" d="M156,83V72.7h1.7l0.3,0.7c0.2-0.1,0.4-0.3,0.6-0.4c0.2-0.1,0.4-0.2,0.7-0.3c0.2-0.1,0.5-0.1,0.8-0.1
					c0.4,0,0.8,0.1,1.1,0.3c0.3,0.2,0.6,0.4,0.8,0.7c0.2,0.3,0.4,0.7,0.5,1.2c0.1,0.5,0.1,1,0.1,1.5c0,0.8-0.1,1.4-0.2,2
					c-0.2,0.6-0.4,1-0.8,1.3c-0.4,0.3-0.9,0.4-1.5,0.4c-0.3,0-0.7,0-1-0.1c-0.4-0.1-0.7-0.2-1-0.3V83H156z M159.4,78.3
					c0.2,0,0.4-0.1,0.6-0.2c0.2-0.1,0.3-0.3,0.4-0.6c0.1-0.3,0.2-0.7,0.2-1.3c0-0.5-0.1-1-0.2-1.3s-0.2-0.5-0.4-0.7
					c-0.2-0.1-0.4-0.2-0.6-0.2c-0.3,0-0.5,0-0.8,0.1c-0.2,0.1-0.4,0.2-0.6,0.3V78c0.2,0.1,0.4,0.2,0.6,0.3
					C158.9,78.3,159.1,78.3,159.4,78.3z"/>
				<path class="st23" d="M166.5,79.9c-0.2,0-0.5,0-0.7,0c-0.3,0-0.5,0-0.8-0.1s-0.5-0.1-0.7-0.1s-0.4-0.1-0.6-0.1v-1.2h3.2
					c0.2,0,0.3,0,0.5,0c0.1,0,0.2-0.1,0.3-0.2c0.1-0.1,0.1-0.2,0.1-0.4v-0.2c0-0.2-0.1-0.3-0.2-0.4c-0.1-0.1-0.3-0.1-0.6-0.1h-1.1
					c-0.4,0-0.8-0.1-1.1-0.2c-0.3-0.1-0.6-0.3-0.8-0.6c-0.2-0.3-0.3-0.7-0.3-1.2v-0.4c0-0.5,0.1-0.8,0.3-1.2
					c0.2-0.3,0.5-0.5,0.9-0.7c0.4-0.2,1-0.2,1.7-0.2c0.3,0,0.6,0,0.9,0s0.7,0.1,0.9,0.1c0.3,0,0.5,0.1,0.7,0.2v1.2h-3
					c-0.3,0-0.5,0-0.6,0.1c-0.1,0.1-0.2,0.2-0.2,0.5v0.2c0,0.2,0,0.3,0.1,0.4s0.2,0.1,0.3,0.2s0.3,0,0.5,0h1.1
					c0.7,0,1.3,0.2,1.6,0.5c0.3,0.3,0.5,0.8,0.5,1.4V78c0,0.5-0.1,0.9-0.3,1.1c-0.2,0.3-0.6,0.5-1,0.6
					C167.6,79.9,167.1,79.9,166.5,79.9z"/>
				<path class="st23" d="M169.8,80.8l3.8-11.3h2l-3.8,11.3H169.8z"/>
				<path class="st23" d="M179.4,79.9c-0.6,0-1.1-0.1-1.5-0.4s-0.7-0.6-0.9-1c-0.2-0.4-0.4-1-0.5-1.6c-0.1-0.6-0.1-1.3-0.1-2.1
					c0-0.8,0.1-1.5,0.2-2.1s0.3-1.2,0.5-1.6c0.3-0.4,0.6-0.8,1.1-1s1.1-0.3,1.8-0.3c0.5,0,0.9,0,1.3,0.1c0.4,0,0.7,0.1,1.1,0.2
					c0.3,0.1,0.7,0.1,1,0.2v1.5c-0.2,0-0.4-0.1-0.7-0.1c-0.3,0-0.7-0.1-1-0.1c-0.4,0-0.8,0-1.2,0c-0.6,0-1,0.1-1.3,0.3
					c-0.3,0.2-0.5,0.5-0.6,1s-0.2,1.1-0.2,2c0,0.6,0,1.2,0.1,1.6c0.1,0.4,0.2,0.7,0.3,1c0.1,0.2,0.3,0.4,0.5,0.5
					c0.2,0.1,0.5,0.1,0.8,0.1c0.4,0,0.7,0,1-0.1c0.3-0.1,0.6-0.1,0.8-0.2v-1.9h-1.8v-1.6c0.2,0,0.4,0,0.7-0.1c0.3,0,0.5,0,0.8,0
					s0.6,0,0.8,0c0.3,0,0.5,0,0.8,0c0.2,0,0.4,0,0.6,0v5.6h-1.5l-0.3-0.7c-0.3,0.2-0.6,0.3-1.1,0.5C180.5,79.8,180,79.9,179.4,79.9z
					"/>
				<path class="st23" d="M185.7,71.6c-0.2,0-0.3-0.1-0.3-0.3V70c0-0.2,0.1-0.3,0.3-0.3h1.5c0.1,0,0.1,0,0.2,0.1
					c0,0.1,0.1,0.1,0.1,0.2v1.3c0,0.2-0.1,0.3-0.3,0.3H185.7z M185.4,79.9v-7.2h2v7.2H185.4z"/>
				<path class="st23" d="M190.7,79.9l-2.4-7.2h2l1.6,5.3l1.6-5.3h2l-2.5,7.2H190.7z"/>
				<path class="st23" d="M199.2,79.9c-0.8,0-1.4-0.1-1.9-0.3c-0.5-0.2-0.8-0.6-1-1.1c-0.2-0.5-0.3-1.3-0.3-2.2c0-1,0.1-1.7,0.3-2.3
					c0.2-0.5,0.5-0.9,1-1.1c0.5-0.2,1.1-0.3,1.9-0.3c0.7,0,1.3,0.1,1.7,0.2c0.4,0.1,0.7,0.4,0.9,0.7c0.2,0.4,0.3,0.9,0.3,1.5
					c0,0.5-0.1,0.9-0.3,1.1c-0.2,0.3-0.5,0.5-0.8,0.6c-0.3,0.1-0.8,0.2-1.2,0.2h-1.8c0,0.4,0.1,0.7,0.2,0.9c0.1,0.2,0.3,0.4,0.5,0.5
					c0.3,0.1,0.6,0.1,1.1,0.1h2.1v1.2c-0.3,0.1-0.7,0.1-1.1,0.2C200.3,79.9,199.8,79.9,199.2,79.9z M197.9,75.8h1.6
					c0.3,0,0.5-0.1,0.6-0.2c0.1-0.1,0.2-0.3,0.2-0.6c0-0.3,0-0.5-0.1-0.6c-0.1-0.2-0.2-0.3-0.4-0.3c-0.2-0.1-0.4-0.1-0.7-0.1
					c-0.3,0-0.5,0.1-0.7,0.2c-0.2,0.1-0.3,0.3-0.4,0.5C198,75,197.9,75.3,197.9,75.8z"/>
				<path class="st23" d="M204.9,79.9c-0.5,0-1-0.2-1.3-0.5c-0.3-0.3-0.5-0.8-0.5-1.3v-0.6c0-0.5,0.2-1,0.6-1.3
					c0.4-0.4,1-0.5,1.8-0.5h1.8v-0.5c0-0.2,0-0.4-0.1-0.6c-0.1-0.1-0.2-0.3-0.4-0.3c-0.2-0.1-0.6-0.1-1-0.1h-2.2V73
					c0.3-0.1,0.8-0.2,1.2-0.3c0.5-0.1,1-0.1,1.7-0.1c0.6,0,1.1,0.1,1.5,0.2s0.7,0.4,1,0.7c0.2,0.3,0.3,0.8,0.3,1.4v4.9h-1.6
					l-0.3-0.8c-0.1,0.1-0.2,0.2-0.3,0.2c-0.2,0.1-0.3,0.2-0.6,0.3c-0.2,0.1-0.5,0.2-0.7,0.2C205.5,79.9,205.2,79.9,204.9,79.9z
					 M205.9,78.6c0.1,0,0.2,0,0.3,0c0.1,0,0.2,0,0.3-0.1c0.1,0,0.2-0.1,0.3-0.1c0.1,0,0.2-0.1,0.3-0.1c0.1,0,0.1,0,0.1-0.1v-1.7
					l-1.2,0.1c-0.3,0-0.6,0.1-0.8,0.3s-0.2,0.4-0.2,0.6v0.3c0,0.2,0,0.3,0.1,0.4c0.1,0.1,0.2,0.2,0.3,0.2
					C205.6,78.5,205.7,78.6,205.9,78.6z"/>
				<path class="st23" d="M212,79.9l-1.9-7.2h2l1.1,5.3l1.4-5.3h1.6l1.4,5.3l1-5.3h2l-1.9,7.2h-2.2l-1.3-4.4l-1.3,4.4H212z"/>
				<path class="st23" d="M223,79.9c-0.5,0-1-0.2-1.3-0.5c-0.3-0.3-0.5-0.8-0.5-1.3v-0.6c0-0.5,0.2-1,0.6-1.3c0.4-0.4,1-0.5,1.8-0.5
					h1.8v-0.5c0-0.2,0-0.4-0.1-0.6c-0.1-0.1-0.2-0.3-0.4-0.3c-0.2-0.1-0.6-0.1-1-0.1h-2.2V73c0.3-0.1,0.8-0.2,1.2-0.3
					c0.5-0.1,1-0.1,1.7-0.1c0.6,0,1.1,0.1,1.5,0.2s0.7,0.4,1,0.7c0.2,0.3,0.3,0.8,0.3,1.4v4.9h-1.6l-0.3-0.8
					c-0.1,0.1-0.2,0.2-0.3,0.2c-0.2,0.1-0.3,0.2-0.6,0.3c-0.2,0.1-0.5,0.2-0.7,0.2C223.6,79.9,223.3,79.9,223,79.9z M224,78.6
					c0.1,0,0.2,0,0.3,0c0.1,0,0.2,0,0.3-0.1c0.1,0,0.2-0.1,0.3-0.1c0.1,0,0.2-0.1,0.3-0.1c0.1,0,0.1,0,0.1-0.1v-1.7l-1.2,0.1
					c-0.3,0-0.6,0.1-0.8,0.3s-0.2,0.4-0.2,0.6v0.3c0,0.2,0,0.3,0.1,0.4c0.1,0.1,0.2,0.2,0.3,0.2C223.7,78.5,223.9,78.6,224,78.6z"/>
				<path class="st23" d="M231.1,83l0.8-3.2c-0.4,0-0.8-0.1-1.1-0.2c-0.3-0.2-0.6-0.4-0.8-0.6c-0.2-0.3-0.4-0.6-0.5-1l-1.4-5.3h2.1
					l1.1,4.9c0,0.2,0.1,0.3,0.2,0.4c0.1,0.1,0.1,0.2,0.2,0.2c0.1,0,0.2,0.1,0.2,0.1c0.1,0,0.1,0,0.2,0l1.3-5.6h2l-2.1,9l-0.6,1.3
					H231.1z"/>
				<path class="st23" d="M239.1,79.9c-0.2,0-0.5,0-0.7,0c-0.3,0-0.5,0-0.8-0.1s-0.5-0.1-0.7-0.1s-0.4-0.1-0.6-0.1v-1.2h3.2
					c0.2,0,0.3,0,0.5,0c0.1,0,0.2-0.1,0.3-0.2c0.1-0.1,0.1-0.2,0.1-0.4v-0.2c0-0.2-0.1-0.3-0.2-0.4c-0.1-0.1-0.3-0.1-0.6-0.1h-1.1
					c-0.4,0-0.8-0.1-1.1-0.2c-0.3-0.1-0.6-0.3-0.8-0.6c-0.2-0.3-0.3-0.7-0.3-1.2v-0.4c0-0.5,0.1-0.8,0.3-1.2
					c0.2-0.3,0.5-0.5,0.9-0.7c0.4-0.2,1-0.2,1.7-0.2c0.3,0,0.6,0,0.9,0s0.7,0.1,0.9,0.1c0.3,0,0.5,0.1,0.7,0.2v1.2h-3
					c-0.3,0-0.5,0-0.6,0.1c-0.1,0.1-0.2,0.2-0.2,0.5v0.2c0,0.2,0,0.3,0.1,0.4s0.2,0.1,0.3,0.2s0.3,0,0.5,0h1.1
					c0.7,0,1.3,0.2,1.6,0.5c0.3,0.3,0.5,0.8,0.5,1.4V78c0,0.5-0.1,0.9-0.3,1.1c-0.2,0.3-0.6,0.5-1,0.6
					C240.2,79.9,239.7,79.9,239.1,79.9z"/>
			</g>
			<g>
				<path class="st23" d="M269.3,79.9V70h2v9.9H269.3z"/>
				<path class="st23" d="M272.9,79.9v-7.2h1.6l0.3,0.7c0.3-0.2,0.6-0.4,1-0.6s0.8-0.3,1.2-0.3c0.6,0,1,0.1,1.4,0.3
					c0.3,0.2,0.5,0.5,0.7,0.9c0.1,0.4,0.2,0.8,0.2,1.3v4.7h-2v-4.5c0-0.2,0-0.4-0.1-0.6c-0.1-0.2-0.2-0.3-0.4-0.3
					c-0.2-0.1-0.3-0.1-0.5-0.1c-0.2,0-0.4,0-0.5,0.1s-0.3,0.1-0.5,0.2s-0.3,0.2-0.4,0.3v5H272.9z"/>
				<path class="st23" d="M281.1,71.6c-0.2,0-0.3-0.1-0.3-0.3V70c0-0.2,0.1-0.3,0.3-0.3h1.5c0.1,0,0.1,0,0.2,0.1
					c0,0.1,0.1,0.1,0.1,0.2v1.3c0,0.2-0.1,0.3-0.3,0.3H281.1z M280.8,79.9v-7.2h2v7.2H280.8z"/>
				<path class="st23" d="M287,79.9c-0.6,0-1-0.1-1.3-0.2c-0.3-0.2-0.6-0.4-0.7-0.8c-0.2-0.4-0.2-0.9-0.2-1.5l0.1-3h-1.1V73l1.2-0.3
					l0.3-2h1.6v2h1.7v1.6h-1.7v3c0,0.2,0,0.4,0.1,0.5c0,0.1,0.1,0.2,0.2,0.3c0.1,0.1,0.1,0.1,0.2,0.2c0.1,0,0.2,0.1,0.3,0.1l0.9,0.1
					v1.5H287z"/>
				<path class="st23" d="M289.8,71.6c-0.2,0-0.3-0.1-0.3-0.3V70c0-0.2,0.1-0.3,0.3-0.3h1.5c0.1,0,0.1,0,0.2,0.1
					c0,0.1,0.1,0.1,0.1,0.2v1.3c0,0.2-0.1,0.3-0.3,0.3H289.8z M289.5,79.9v-7.2h2v7.2H289.5z"/>
				<path class="st23" d="M294.5,79.9c-0.5,0-1-0.2-1.3-0.5c-0.3-0.3-0.5-0.8-0.5-1.3v-0.6c0-0.5,0.2-1,0.6-1.3
					c0.4-0.4,1-0.5,1.8-0.5h1.8v-0.5c0-0.2,0-0.4-0.1-0.6c-0.1-0.1-0.2-0.3-0.4-0.3c-0.2-0.1-0.5-0.1-1-0.1h-2.2V73
					c0.3-0.1,0.8-0.2,1.2-0.3s1-0.1,1.7-0.1c0.6,0,1.1,0.1,1.5,0.2c0.4,0.1,0.7,0.4,1,0.7c0.2,0.3,0.3,0.8,0.3,1.4v4.9h-1.6
					l-0.3-0.8c-0.1,0.1-0.2,0.2-0.3,0.2c-0.2,0.1-0.3,0.2-0.6,0.3s-0.5,0.2-0.7,0.2C295.1,79.9,294.8,79.9,294.5,79.9z M295.6,78.6
					c0.1,0,0.2,0,0.3,0c0.1,0,0.2,0,0.3-0.1s0.2-0.1,0.3-0.1c0.1,0,0.2-0.1,0.3-0.1c0.1,0,0.1,0,0.1-0.1v-1.7l-1.2,0.1
					c-0.3,0-0.6,0.1-0.8,0.3c-0.2,0.2-0.2,0.4-0.2,0.6v0.3c0,0.2,0,0.3,0.1,0.4c0.1,0.1,0.2,0.2,0.3,0.2
					C295.2,78.5,295.4,78.6,295.6,78.6z"/>
				<path class="st23" d="M302.6,79.9c-0.5,0-0.9-0.1-1.3-0.2s-0.6-0.4-0.7-0.8c-0.2-0.3-0.2-0.8-0.2-1.3v-7.9h2v7.6
					c0,0.3,0,0.5,0.1,0.6c0.1,0.2,0.1,0.3,0.2,0.3c0.1,0.1,0.3,0.1,0.4,0.1l0.5,0.1v1.4H302.6z"/>
				<path class="st23" d="M310.2,79.9v-8.1h-2.7V70h7.4v1.8h-2.7v8.1H310.2z"/>
				<path class="st23" d="M318.3,79.9c-0.6,0-1.1-0.1-1.5-0.2c-0.4-0.1-0.8-0.3-1-0.6c-0.3-0.3-0.5-0.7-0.6-1.1
					c-0.1-0.5-0.2-1.1-0.2-1.8c0-0.7,0.1-1.3,0.2-1.8c0.1-0.5,0.3-0.9,0.6-1.1c0.3-0.3,0.6-0.5,1-0.6c0.4-0.1,0.9-0.2,1.5-0.2
					c0.6,0,1.1,0.1,1.5,0.2s0.8,0.3,1,0.6c0.3,0.3,0.5,0.6,0.6,1.1c0.1,0.5,0.2,1.1,0.2,1.8c0,0.7-0.1,1.3-0.2,1.8
					c-0.1,0.5-0.3,0.9-0.6,1.1s-0.6,0.5-1,0.6C319.4,79.9,318.9,79.9,318.3,79.9z M318.3,78.4c0.2,0,0.4,0,0.6-0.1
					c0.2,0,0.3-0.1,0.4-0.3c0.1-0.1,0.2-0.3,0.2-0.6c0.1-0.3,0.1-0.7,0.1-1.1c0-0.5,0-0.8-0.1-1.1c-0.1-0.3-0.1-0.5-0.2-0.6
					c-0.1-0.1-0.2-0.2-0.4-0.3c-0.2,0-0.4-0.1-0.6-0.1c-0.2,0-0.4,0-0.6,0.1c-0.2,0-0.3,0.1-0.4,0.3c-0.1,0.1-0.2,0.3-0.2,0.6
					c0,0.3-0.1,0.7-0.1,1.1c0,0.5,0,0.8,0.1,1.1s0.1,0.5,0.2,0.6c0.1,0.1,0.2,0.2,0.4,0.3C317.8,78.3,318,78.4,318.3,78.4z"/>
				<path class="st23" d="M322.9,79.9V69.7h2v5.5h0.8l1.6-2.5h2l-2.1,3.4l2.3,3.8h-2l-1.8-2.9h-0.8v2.9H322.9z"/>
				<path class="st23" d="M333.3,79.9c-0.8,0-1.4-0.1-1.9-0.3c-0.5-0.2-0.8-0.6-1-1.1c-0.2-0.5-0.3-1.3-0.3-2.2c0-1,0.1-1.7,0.3-2.3
					c0.2-0.5,0.5-0.9,1-1.1s1.1-0.3,1.9-0.3c0.7,0,1.3,0.1,1.7,0.2c0.4,0.1,0.7,0.4,0.9,0.7c0.2,0.4,0.3,0.9,0.3,1.5
					c0,0.5-0.1,0.9-0.3,1.1c-0.2,0.3-0.5,0.5-0.8,0.6c-0.3,0.1-0.8,0.2-1.2,0.2H332c0,0.4,0.1,0.7,0.2,0.9c0.1,0.2,0.3,0.4,0.5,0.5
					c0.3,0.1,0.6,0.1,1.1,0.1h2.1v1.2c-0.3,0.1-0.7,0.1-1.1,0.2C334.4,79.9,333.9,79.9,333.3,79.9z M332,75.8h1.6
					c0.3,0,0.5-0.1,0.6-0.2c0.1-0.1,0.2-0.3,0.2-0.6c0-0.3,0-0.5-0.1-0.6c-0.1-0.2-0.2-0.3-0.4-0.3c-0.2-0.1-0.4-0.1-0.7-0.1
					c-0.3,0-0.5,0.1-0.7,0.2c-0.2,0.1-0.3,0.3-0.4,0.5C332.1,75,332,75.3,332,75.8z"/>
				<path class="st23" d="M337.5,79.9v-7.2h1.6l0.3,0.7c0.3-0.2,0.6-0.4,1-0.6s0.8-0.3,1.2-0.3c0.6,0,1,0.1,1.4,0.3
					c0.3,0.2,0.5,0.5,0.7,0.9c0.1,0.4,0.2,0.8,0.2,1.3v4.7h-2v-4.5c0-0.2,0-0.4-0.1-0.6c-0.1-0.2-0.2-0.3-0.4-0.3
					c-0.2-0.1-0.3-0.1-0.5-0.1c-0.2,0-0.4,0-0.5,0.1s-0.3,0.1-0.5,0.2s-0.3,0.2-0.4,0.3v5H337.5z"/>
				<path class="st23" d="M352,79.9c-0.3,0-0.5,0-0.8,0c-0.3,0-0.5,0-0.8-0.1c-0.3,0-0.5-0.1-0.8-0.1c-0.2,0-0.5-0.1-0.7-0.1V78
					c0.3,0,0.6,0,0.9,0.1c0.3,0,0.7,0,1.1,0s0.7,0,1,0c0.3,0,0.6,0,0.9-0.1s0.4-0.2,0.6-0.3s0.2-0.3,0.2-0.6v-0.4
					c0-0.3-0.1-0.5-0.3-0.7c-0.2-0.2-0.4-0.2-0.7-0.2h-0.8c-0.9,0-1.7-0.2-2.2-0.6c-0.5-0.4-0.8-1.1-0.8-2.1v-0.5
					c0-1,0.3-1.7,0.8-2.1c0.6-0.4,1.3-0.7,2.4-0.7c0.4,0,0.7,0,1.1,0.1c0.4,0,0.7,0.1,1,0.1c0.3,0,0.6,0.1,0.9,0.2v1.6
					c-0.4,0-0.9-0.1-1.4-0.1c-0.5,0-1,0-1.4,0c-0.3,0-0.6,0-0.8,0.1s-0.4,0.2-0.5,0.3c-0.1,0.2-0.2,0.4-0.2,0.7V73
					c0,0.3,0.1,0.6,0.3,0.7c0.2,0.2,0.5,0.2,0.9,0.2h1c0.6,0,1.1,0.1,1.5,0.3s0.7,0.5,0.9,0.9c0.2,0.4,0.3,0.8,0.3,1.3v0.6
					c0,0.8-0.1,1.4-0.4,1.8c-0.3,0.4-0.7,0.7-1.2,0.8C353.2,79.9,352.6,79.9,352,79.9z"/>
				<path class="st23" d="M358.8,79.9c-0.6,0-1.1-0.2-1.5-0.6c-0.4-0.4-0.5-0.9-0.5-1.6v-5.1h2v4.5c0,0.4,0.1,0.7,0.3,0.8
					c0.2,0.1,0.4,0.2,0.8,0.2c0.2,0,0.5,0,0.8-0.1c0.3-0.1,0.5-0.2,0.7-0.4v-5h2v7.2h-1.6l-0.3-0.7c-0.3,0.2-0.7,0.4-1.1,0.6
					C359.7,79.9,359.3,79.9,358.8,79.9z"/>
				<path class="st23" d="M364.7,83V72.7h1.7l0.3,0.7c0.2-0.1,0.4-0.3,0.6-0.4c0.2-0.1,0.4-0.2,0.7-0.3c0.2-0.1,0.5-0.1,0.8-0.1
					c0.4,0,0.8,0.1,1.1,0.3c0.3,0.2,0.6,0.4,0.8,0.7c0.2,0.3,0.4,0.7,0.5,1.2c0.1,0.5,0.1,1,0.1,1.5c0,0.8-0.1,1.4-0.2,2
					c-0.2,0.6-0.4,1-0.8,1.3c-0.4,0.3-0.9,0.4-1.5,0.4c-0.3,0-0.7,0-1-0.1c-0.4-0.1-0.7-0.2-1-0.3V83H364.7z M368,78.3
					c0.2,0,0.4-0.1,0.6-0.2c0.2-0.1,0.3-0.3,0.4-0.6c0.1-0.3,0.2-0.7,0.2-1.3c0-0.5-0.1-1-0.2-1.3s-0.2-0.5-0.4-0.7
					c-0.2-0.1-0.4-0.2-0.6-0.2c-0.3,0-0.5,0-0.8,0.1c-0.2,0.1-0.4,0.2-0.6,0.3V78c0.2,0.1,0.4,0.2,0.6,0.3
					C367.6,78.3,367.8,78.3,368,78.3z"/>
				<path class="st23" d="M372.5,83V72.7h1.7l0.3,0.7c0.2-0.1,0.4-0.3,0.6-0.4c0.2-0.1,0.4-0.2,0.7-0.3c0.2-0.1,0.5-0.1,0.8-0.1
					c0.4,0,0.8,0.1,1.1,0.3c0.3,0.2,0.6,0.4,0.8,0.7c0.2,0.3,0.4,0.7,0.5,1.2c0.1,0.5,0.1,1,0.1,1.5c0,0.8-0.1,1.4-0.2,2
					c-0.2,0.6-0.4,1-0.8,1.3c-0.4,0.3-0.9,0.4-1.5,0.4c-0.3,0-0.7,0-1-0.1c-0.4-0.1-0.7-0.2-1-0.3V83H372.5z M375.9,78.3
					c0.2,0,0.4-0.1,0.6-0.2c0.2-0.1,0.3-0.3,0.4-0.6c0.1-0.3,0.2-0.7,0.2-1.3c0-0.5-0.1-1-0.2-1.3s-0.2-0.5-0.4-0.7
					c-0.2-0.1-0.4-0.2-0.6-0.2c-0.3,0-0.5,0-0.8,0.1c-0.2,0.1-0.4,0.2-0.6,0.3V78c0.2,0.1,0.4,0.2,0.6,0.3
					C375.4,78.3,375.6,78.3,375.9,78.3z"/>
				<path class="st23" d="M382.6,79.9c-0.5,0-0.9-0.1-1.3-0.2s-0.6-0.4-0.7-0.8c-0.2-0.3-0.2-0.8-0.2-1.3v-7.9h2v7.6
					c0,0.3,0,0.5,0.1,0.6c0.1,0.2,0.1,0.3,0.2,0.3c0.1,0.1,0.3,0.1,0.4,0.1l0.5,0.1v1.4H382.6z"/>
				<path class="st23" d="M386.8,83l0.8-3.2c-0.4,0-0.8-0.1-1.1-0.2c-0.3-0.2-0.6-0.4-0.8-0.6c-0.2-0.3-0.4-0.6-0.5-1l-1.4-5.3h2.1
					l1.1,4.9c0,0.2,0.1,0.3,0.2,0.4c0.1,0.1,0.1,0.2,0.2,0.2s0.2,0.1,0.2,0.1c0.1,0,0.1,0,0.2,0l1.3-5.6h2l-2.1,9l-0.6,1.3H386.8z"
					/>
			</g>
			<g>
				<path class="st23" d="M419.8,79.9v-8.1h-2.7V70h7.4v1.8h-2.7v8.1H419.8z"/>
				<path class="st23" d="M427.9,79.9c-0.8,0-1.4-0.1-1.9-0.3c-0.5-0.2-0.8-0.6-1-1.1c-0.2-0.5-0.3-1.3-0.3-2.2c0-1,0.1-1.7,0.3-2.3
					c0.2-0.5,0.5-0.9,1-1.1s1.1-0.3,1.9-0.3c0.7,0,1.3,0.1,1.7,0.2c0.4,0.1,0.7,0.4,0.9,0.7c0.2,0.4,0.3,0.9,0.3,1.5
					c0,0.5-0.1,0.9-0.3,1.1c-0.2,0.3-0.5,0.5-0.8,0.6c-0.3,0.1-0.8,0.2-1.2,0.2h-1.8c0,0.4,0.1,0.7,0.2,0.9c0.1,0.2,0.3,0.4,0.5,0.5
					c0.3,0.1,0.6,0.1,1.1,0.1h2.1v1.2c-0.3,0.1-0.7,0.1-1.1,0.2C428.9,79.9,428.4,79.9,427.9,79.9z M426.6,75.8h1.6
					c0.3,0,0.5-0.1,0.6-0.2c0.1-0.1,0.2-0.3,0.2-0.6c0-0.3,0-0.5-0.1-0.6c-0.1-0.2-0.2-0.3-0.4-0.3c-0.2-0.1-0.4-0.1-0.7-0.1
					c-0.3,0-0.5,0.1-0.7,0.2c-0.2,0.1-0.3,0.3-0.4,0.5C426.6,75,426.6,75.3,426.6,75.8z"/>
				<path class="st23" d="M433.6,79.9c-0.5,0-1-0.2-1.3-0.5c-0.3-0.3-0.5-0.8-0.5-1.3v-0.6c0-0.5,0.2-1,0.6-1.3
					c0.4-0.4,1-0.5,1.8-0.5h1.8v-0.5c0-0.2,0-0.4-0.1-0.6c-0.1-0.1-0.2-0.3-0.4-0.3c-0.2-0.1-0.5-0.1-1-0.1h-2.2V73
					c0.3-0.1,0.8-0.2,1.2-0.3s1-0.1,1.7-0.1c0.6,0,1.1,0.1,1.5,0.2c0.4,0.1,0.7,0.4,1,0.7c0.2,0.3,0.3,0.8,0.3,1.4v4.9h-1.6
					l-0.3-0.8c-0.1,0.1-0.2,0.2-0.3,0.2c-0.2,0.1-0.3,0.2-0.6,0.3s-0.5,0.2-0.7,0.2C434.1,79.9,433.9,79.9,433.6,79.9z M434.6,78.6
					c0.1,0,0.2,0,0.3,0c0.1,0,0.2,0,0.3-0.1s0.2-0.1,0.3-0.1c0.1,0,0.2-0.1,0.3-0.1c0.1,0,0.1,0,0.1-0.1v-1.7l-1.2,0.1
					c-0.3,0-0.6,0.1-0.8,0.3c-0.2,0.2-0.2,0.4-0.2,0.6v0.3c0,0.2,0,0.3,0.1,0.4c0.1,0.1,0.2,0.2,0.3,0.2
					C434.3,78.5,434.4,78.6,434.6,78.6z"/>
				<path class="st23" d="M439.4,79.9v-7.2h1.6l0.3,0.7c0.3-0.2,0.7-0.4,1-0.6c0.4-0.2,0.8-0.3,1.4-0.3c0.5,0,0.8,0.1,1.1,0.3
					s0.5,0.4,0.7,0.7c0.2-0.2,0.4-0.3,0.7-0.5c0.3-0.2,0.6-0.3,0.9-0.4c0.3-0.1,0.6-0.2,0.9-0.2c0.6,0,1,0.1,1.4,0.3
					s0.6,0.5,0.7,0.9s0.2,0.9,0.2,1.4v4.7h-2v-4.5c0-0.2,0-0.4-0.1-0.6c-0.1-0.2-0.2-0.3-0.4-0.3c-0.2-0.1-0.3-0.1-0.5-0.1
					c-0.3,0-0.5,0.1-0.8,0.2c-0.3,0.1-0.5,0.2-0.7,0.4c0,0.1,0,0.2,0,0.3c0,0.1,0,0.2,0,0.3v4.4h-2v-4.5c0-0.2,0-0.4-0.1-0.6
					c-0.1-0.2-0.2-0.3-0.4-0.3c-0.2-0.1-0.3-0.1-0.5-0.1c-0.2,0-0.4,0-0.5,0.1s-0.3,0.1-0.5,0.2s-0.3,0.2-0.4,0.3v5H439.4z"/>
			</g>
		</g>
	</g>
	<g>
		<path class="st15" d="M346.8,36c-0.6,0-1.2,0-1.9-0.1c-0.7,0-1.3-0.1-1.9-0.2V34h3.9c0.4,0,0.6-0.1,0.8-0.2
			c0.2-0.1,0.3-0.3,0.4-0.5c0.1-0.2,0.1-0.4,0.1-0.6v-0.8c0-0.3-0.1-0.6-0.3-0.8c-0.2-0.2-0.5-0.3-0.9-0.3h-0.9
			c-0.3,0-0.6,0.1-0.7,0.2s-0.3,0.3-0.3,0.6h-2.1l0.3-6.7h6.5v2h-4.7l-0.1,2.6c0.1-0.2,0.4-0.3,0.6-0.4c0.3-0.1,0.6-0.1,0.9-0.1h1.2
			c0.6,0,1,0.1,1.4,0.3c0.4,0.2,0.7,0.5,0.8,0.9c0.2,0.4,0.3,0.8,0.3,1.3v1.6c0,0.6-0.1,1.2-0.4,1.6c-0.3,0.4-0.7,0.7-1.2,0.9
			C348.3,35.9,347.6,36,346.8,36z"/>
		<path class="st15" d="M354.8,36c-0.6,0-1.1-0.1-1.6-0.3c-0.4-0.2-0.8-0.5-1-1c-0.2-0.4-0.3-0.9-0.3-1.5v-5.3
			c0-0.6,0.1-1.2,0.3-1.6s0.6-0.8,1-1c0.4-0.2,1-0.3,1.5-0.3h2.3c0.6,0,1.1,0.1,1.5,0.3s0.7,0.6,0.9,1c0.2,0.4,0.3,1,0.3,1.6v5.3
			c0,0.9-0.2,1.6-0.7,2.1c-0.5,0.5-1.2,0.7-2,0.7H354.8z M355.3,34h1.2c0.4,0,0.7-0.1,0.9-0.3c0.2-0.2,0.3-0.5,0.3-0.9v-4.8
			c0-0.4-0.1-0.7-0.3-0.9c-0.2-0.2-0.5-0.3-0.8-0.3h-1.3c-0.4,0-0.6,0.1-0.8,0.3c-0.2,0.2-0.3,0.5-0.3,0.9v4.8
			c0,0.4,0.1,0.7,0.3,0.9C354.6,33.9,354.9,34,355.3,34z"/>
		<path class="st15" d="M363.1,30.8c-0.7,0-1.2-0.2-1.5-0.5s-0.5-0.8-0.5-1.4v-1.8c0-0.6,0.1-1.1,0.4-1.4c0.3-0.3,0.8-0.5,1.6-0.5
			h1.5c0.7,0,1.2,0.2,1.5,0.5c0.3,0.3,0.4,0.8,0.4,1.4v1.8c0,0.6-0.1,1.1-0.4,1.4s-0.8,0.5-1.6,0.5H363.1z M363.4,29.4h1
			c0.3,0,0.6-0.1,0.7-0.2s0.2-0.4,0.2-0.6v-1.1c0-0.3-0.1-0.6-0.2-0.7c-0.1-0.1-0.3-0.2-0.6-0.2h-1c-0.3,0-0.5,0.1-0.6,0.2
			c-0.2,0.1-0.2,0.3-0.2,0.7v1.1c0,0.3,0.1,0.5,0.2,0.6S363.1,29.4,363.4,29.4z M363.7,35.9l6.6-10.8h1.4l-6.5,10.8H363.7z
			 M370.9,35.9c-0.7,0-1.2-0.2-1.5-0.5c-0.3-0.3-0.4-0.8-0.4-1.4v-1.8c0-0.6,0.1-1.1,0.4-1.4c0.3-0.3,0.8-0.5,1.6-0.5h1.5
			c0.7,0,1.2,0.2,1.5,0.5c0.3,0.3,0.4,0.8,0.4,1.4v1.8c0,0.6-0.1,1.1-0.4,1.4c-0.3,0.3-0.8,0.5-1.6,0.5H370.9z M371.2,34.5h0.9
			c0.3,0,0.6-0.1,0.7-0.2s0.2-0.4,0.2-0.6v-1.1c0-0.3-0.1-0.6-0.2-0.7s-0.4-0.2-0.7-0.2h-0.9c-0.3,0-0.5,0.1-0.6,0.2
			c-0.2,0.1-0.2,0.3-0.2,0.7v1.1c0,0.3,0.1,0.5,0.2,0.6S370.8,34.5,371.2,34.5z"/>
	</g>
	<g>
		<path class="st15" d="M446,35.9v-1.8l3.6-3.6c0.3-0.3,0.5-0.6,0.7-0.8c0.2-0.2,0.3-0.5,0.4-0.7c0.1-0.2,0.1-0.5,0.1-0.8
			c0-0.3-0.1-0.5-0.2-0.7c-0.1-0.2-0.3-0.3-0.5-0.4s-0.5-0.1-1-0.1h-3.1v-1.7c0.5-0.1,1-0.2,1.6-0.2c0.6-0.1,1.2-0.1,1.9-0.1
			c0.9,0,1.5,0.1,2,0.4c0.5,0.2,0.8,0.6,1,1c0.2,0.4,0.3,1,0.3,1.6c0,0.5-0.1,0.9-0.2,1.3s-0.3,0.8-0.6,1.2c-0.3,0.4-0.6,0.7-1,1.1
			l-2.4,2.4h4.5v2H446z"/>
		<path class="st15" d="M457.6,36c-0.6,0-1.1-0.1-1.6-0.3c-0.4-0.2-0.8-0.5-1-1c-0.2-0.4-0.3-0.9-0.3-1.5v-5.3
			c0-0.6,0.1-1.2,0.3-1.6s0.6-0.8,1-1c0.4-0.2,1-0.3,1.5-0.3h2.3c0.6,0,1.1,0.1,1.5,0.3s0.7,0.6,0.9,1c0.2,0.4,0.3,1,0.3,1.6v5.3
			c0,0.9-0.2,1.6-0.7,2.1c-0.5,0.5-1.2,0.7-2,0.7H457.6z M458.2,34h1.2c0.4,0,0.7-0.1,0.9-0.3c0.2-0.2,0.3-0.5,0.3-0.9v-4.8
			c0-0.4-0.1-0.7-0.3-0.9c-0.2-0.2-0.5-0.3-0.8-0.3h-1.3c-0.4,0-0.6,0.1-0.8,0.3c-0.2,0.2-0.3,0.5-0.3,0.9v4.8
			c0,0.4,0.1,0.7,0.3,0.9C457.5,33.9,457.8,34,458.2,34z"/>
		<path class="st15" d="M466,30.8c-0.7,0-1.2-0.2-1.5-0.5s-0.5-0.8-0.5-1.4v-1.8c0-0.6,0.1-1.1,0.4-1.4c0.3-0.3,0.8-0.5,1.6-0.5h1.5
			c0.7,0,1.2,0.2,1.5,0.5c0.3,0.3,0.4,0.8,0.4,1.4v1.8c0,0.6-0.1,1.1-0.4,1.4s-0.8,0.5-1.6,0.5H466z M466.2,29.4h1
			c0.3,0,0.6-0.1,0.7-0.2s0.2-0.4,0.2-0.6v-1.1c0-0.3-0.1-0.6-0.2-0.7c-0.1-0.1-0.3-0.2-0.6-0.2h-1c-0.3,0-0.5,0.1-0.6,0.2
			c-0.2,0.1-0.2,0.3-0.2,0.7v1.1c0,0.3,0.1,0.5,0.2,0.6S465.9,29.4,466.2,29.4z M466.5,35.9l6.6-10.8h1.4L468,35.9H466.5z
			 M473.8,35.9c-0.7,0-1.2-0.2-1.5-0.5c-0.3-0.3-0.4-0.8-0.4-1.4v-1.8c0-0.6,0.1-1.1,0.4-1.4c0.3-0.3,0.8-0.5,1.6-0.5h1.5
			c0.7,0,1.2,0.2,1.5,0.5c0.3,0.3,0.4,0.8,0.4,1.4v1.8c0,0.6-0.1,1.1-0.4,1.4c-0.3,0.3-0.8,0.5-1.6,0.5H473.8z M474,34.5h0.9
			c0.3,0,0.6-0.1,0.7-0.2s0.2-0.4,0.2-0.6v-1.1c0-0.3-0.1-0.6-0.2-0.7s-0.4-0.2-0.7-0.2h-0.9c-0.3,0-0.5,0.1-0.6,0.2
			c-0.2,0.1-0.2,0.3-0.2,0.7v1.1c0,0.3,0.1,0.5,0.2,0.6S473.7,34.5,474,34.5z"/>
	</g>
	<g>
		<path class="st15" d="M167.2,35.7v-8.9l-1.9,0.3v-1.4l2.2-0.9h1.9v11H167.2z"/>
		<path class="st15" d="M174,35.7c-0.6,0-1.1-0.1-1.6-0.3c-0.4-0.2-0.8-0.5-1-1c-0.2-0.4-0.3-0.9-0.3-1.5v-5.3
			c0-0.6,0.1-1.2,0.3-1.6s0.6-0.8,1-1c0.4-0.2,1-0.3,1.5-0.3h2.3c0.6,0,1.1,0.1,1.5,0.3s0.7,0.6,0.9,1c0.2,0.4,0.3,1,0.3,1.6v5.3
			c0,0.9-0.2,1.6-0.7,2.1c-0.5,0.5-1.2,0.7-2,0.7H174z M174.5,33.8h1.2c0.4,0,0.7-0.1,0.9-0.3c0.2-0.2,0.3-0.5,0.3-0.9v-4.8
			c0-0.4-0.1-0.7-0.3-0.9c-0.2-0.2-0.5-0.3-0.8-0.3h-1.3c-0.4,0-0.6,0.1-0.8,0.3c-0.2,0.2-0.3,0.5-0.3,0.9v4.8
			c0,0.4,0.1,0.7,0.3,0.9C173.8,33.7,174.1,33.8,174.5,33.8z"/>
		<path class="st15" d="M182.3,30.5c-0.7,0-1.2-0.2-1.5-0.5s-0.5-0.8-0.5-1.4v-1.8c0-0.6,0.1-1.1,0.4-1.4c0.3-0.3,0.8-0.5,1.6-0.5
			h1.5c0.7,0,1.2,0.2,1.5,0.5c0.3,0.3,0.4,0.8,0.4,1.4v1.8c0,0.6-0.1,1.1-0.4,1.4s-0.8,0.5-1.6,0.5H182.3z M182.6,29.1h1
			c0.3,0,0.6-0.1,0.7-0.2s0.2-0.4,0.2-0.6v-1.1c0-0.3-0.1-0.6-0.2-0.7c-0.1-0.1-0.3-0.2-0.6-0.2h-1c-0.3,0-0.5,0.1-0.6,0.2
			c-0.2,0.1-0.2,0.3-0.2,0.7v1.1c0,0.3,0.1,0.5,0.2,0.6S182.3,29.1,182.6,29.1z M182.9,35.7l6.6-10.8h1.4l-6.5,10.8H182.9z
			 M190.1,35.6c-0.7,0-1.2-0.2-1.5-0.5c-0.3-0.3-0.4-0.8-0.4-1.4v-1.8c0-0.6,0.1-1.1,0.4-1.4c0.3-0.3,0.8-0.5,1.6-0.5h1.5
			c0.7,0,1.2,0.2,1.5,0.5c0.3,0.3,0.4,0.8,0.4,1.4v1.8c0,0.6-0.1,1.1-0.4,1.4c-0.3,0.3-0.8,0.5-1.6,0.5H190.1z M190.4,34.2h0.9
			c0.3,0,0.6-0.1,0.7-0.2s0.2-0.4,0.2-0.6v-1.1c0-0.3-0.1-0.6-0.2-0.7s-0.4-0.2-0.7-0.2h-0.9c-0.3,0-0.5,0.1-0.6,0.2
			c-0.2,0.1-0.2,0.3-0.2,0.7v1.1c0,0.3,0.1,0.5,0.2,0.6S190.1,34.2,190.4,34.2z"/>
	</g>
	<g>
		<path class="st15" d="M76.4,35.9v-1.8l3.6-3.6c0.3-0.3,0.5-0.6,0.7-0.8c0.2-0.2,0.3-0.5,0.4-0.7c0.1-0.2,0.1-0.5,0.1-0.8
			c0-0.3-0.1-0.5-0.2-0.7c-0.1-0.2-0.3-0.3-0.5-0.4s-0.5-0.1-1-0.1h-3.1v-1.7c0.5-0.1,1-0.2,1.6-0.2c0.6-0.1,1.2-0.1,1.9-0.1
			c0.9,0,1.5,0.1,2,0.4c0.5,0.2,0.8,0.6,1,1c0.2,0.4,0.3,1,0.3,1.6c0,0.5-0.1,0.9-0.2,1.3S83,30,82.8,30.4c-0.3,0.4-0.6,0.7-1,1.1
			L79.3,34h4.5v2H76.4z"/>
		<path class="st15" d="M88.1,36c-0.6,0-1.1-0.1-1.6-0.3c-0.4-0.2-0.8-0.5-1-1c-0.2-0.4-0.3-0.9-0.3-1.5v-5.3c0-0.6,0.1-1.2,0.3-1.6
			s0.6-0.8,1-1c0.4-0.2,1-0.3,1.5-0.3h2.3c0.6,0,1.1,0.1,1.5,0.3s0.7,0.6,0.9,1c0.2,0.4,0.3,1,0.3,1.6v5.3c0,0.9-0.2,1.6-0.7,2.1
			c-0.5,0.5-1.2,0.7-2,0.7H88.1z M88.6,34h1.2c0.4,0,0.7-0.1,0.9-0.3c0.2-0.2,0.3-0.5,0.3-0.9v-4.8c0-0.4-0.1-0.7-0.3-0.9
			c-0.2-0.2-0.5-0.3-0.8-0.3h-1.3c-0.4,0-0.6,0.1-0.8,0.3c-0.2,0.2-0.3,0.5-0.3,0.9v4.8c0,0.4,0.1,0.7,0.3,0.9
			C87.9,33.9,88.2,34,88.6,34z"/>
		<path class="st15" d="M96.4,30.8c-0.7,0-1.2-0.2-1.5-0.5s-0.5-0.8-0.5-1.4v-1.8c0-0.6,0.1-1.1,0.4-1.4c0.3-0.3,0.8-0.5,1.6-0.5
			h1.5c0.7,0,1.2,0.2,1.5,0.5c0.3,0.3,0.4,0.8,0.4,1.4v1.8c0,0.6-0.1,1.1-0.4,1.4s-0.8,0.5-1.6,0.5H96.4z M96.7,29.4h1
			c0.3,0,0.6-0.1,0.7-0.2s0.2-0.4,0.2-0.6v-1.1c0-0.3-0.1-0.6-0.2-0.7c-0.1-0.1-0.3-0.2-0.6-0.2h-1c-0.3,0-0.5,0.1-0.6,0.2
			c-0.2,0.1-0.2,0.3-0.2,0.7v1.1c0,0.3,0.1,0.5,0.2,0.6S96.4,29.4,96.7,29.4z M97,35.9l6.6-10.8h1.4l-6.5,10.8H97z M104.2,35.9
			c-0.7,0-1.2-0.2-1.5-0.5c-0.3-0.3-0.4-0.8-0.4-1.4v-1.8c0-0.6,0.1-1.1,0.4-1.4c0.3-0.3,0.8-0.5,1.6-0.5h1.5c0.7,0,1.2,0.2,1.5,0.5
			c0.3,0.3,0.4,0.8,0.4,1.4v1.8c0,0.6-0.1,1.1-0.4,1.4c-0.3,0.3-0.8,0.5-1.6,0.5H104.2z M104.5,34.5h0.9c0.3,0,0.6-0.1,0.7-0.2
			s0.2-0.4,0.2-0.6v-1.1c0-0.3-0.1-0.6-0.2-0.7s-0.4-0.2-0.7-0.2h-0.9c-0.3,0-0.5,0.1-0.6,0.2c-0.2,0.1-0.2,0.3-0.2,0.7v1.1
			c0,0.3,0.1,0.5,0.2,0.6S104.1,34.5,104.5,34.5z"/>
	</g>
</g>
<g id="TEXTURE">
</g>
<g id="DESIGNED_BY_FREEPIK">
</g>
</svg>
