<?xml version="1.0" encoding="utf-8"?>
<!-- Generator: Adobe Illustrator 26.0.1, SVG Export Plug-In . SVG Version: 6.00 Build 0)  -->
<svg version="1.1" id="Layer_1" xmlns="http://www.w3.org/2000/svg" xmlns:xlink="http://www.w3.org/1999/xlink" x="0px" y="0px"
	 viewBox="0 0 303 514" style="enable-background:new 0 0 303 514;" xml:space="preserve">
<style type="text/css">
	.st0{fill:#FB44D5;}
	.st1{fill:#933181;}
	.st2{fill:none;stroke:#FFE4F9;stroke-width:2.208;stroke-linecap:round;stroke-linejoin:round;stroke-miterlimit:10;}
	.st3{fill:#FBD140;}
	.st4{fill:#DA1C5C;}
	.st5{fill:#27AAE1;}
	.st6{fill:#8DC63F;}
	.st7{fill:#39B54A;}
	.st8{fill:#1C75BC;}
	.st9{fill:#AE1C42;}
	.st10{fill:#FBAE40;}
	.st11{opacity:0.4;fill:#FBAE40;}
	.st12{opacity:0.4;fill:#DA1C5C;}
	.st13{opacity:0.4;fill:#39B54A;}
	.st14{opacity:0.4;fill:#27AAE1;}
	.st15{fill:#FFFFFF;}
	.st16{opacity:0.5;fill:#FBD140;}
	.st17{opacity:0.5;fill:#27AAE1;}
	.st18{opacity:0.5;fill:#39B54A;}
	.st19{fill:none;stroke:#E77000;stroke-width:2.208;stroke-linecap:round;stroke-linejoin:round;stroke-miterlimit:10;}
	.st20{fill:none;stroke:#981C1E;stroke-width:2.208;stroke-linecap:round;stroke-linejoin:round;stroke-miterlimit:10;}
	.st21{fill:none;stroke:#2B3990;stroke-width:2.208;stroke-linecap:round;stroke-linejoin:round;stroke-miterlimit:10;}
	.st22{fill:none;stroke:#006838;stroke-width:2.208;stroke-linecap:round;stroke-linejoin:round;stroke-miterlimit:10;}
	.st23{fill:#FFE4F9;}
</style>
<g>
	<path class="st0" d="M175.4,27.5V483c0,10.2-8.8,18.6-19.6,18.6c-10.8,0-19.6-8.3-19.6-18.6V27.5c0-10.2,8.8-18.6,19.6-18.6
		C166.5,9,175.4,17.3,175.4,27.5z"/>
</g>
<path class="st0" d="M156.4,9.1v492.4c10.5-0.4,18.9-8.5,18.9-18.5V27.5c0-9.4-7.5-17.2-17.1-18.4H156.4z"/>
<path class="st1" d="M175.4,193.3V27.5c0-9.4-7.5-17.2-17.1-18.4h-1.9v170.5L175.4,193.3z"/>
<g>
	<path class="st2" d="M175.4,27.5V483c0,10.2-8.8,18.6-19.6,18.6c-10.8,0-19.6-8.3-19.6-18.6V27.5c0-10.2,8.8-18.6,19.6-18.6
		C166.5,9,175.4,17.3,175.4,27.5z"/>
</g>
<path class="st3" d="M143.9,392.5V480c0,6.5,5.3,11.9,11.9,11.9c6.5,0,11.9-5.3,11.9-11.9v-27.7l18-8.8l-18-8.8v-42.2H143.9z"/>
<polygon class="st4" points="167.6,305.2 167.6,392.5 143.9,392.5 143.9,355.3 125.9,346.5 143.9,337.7 143.9,305.2 "/>
<polygon class="st5" points="143.9,118 143.9,305.2 167.6,305.2 167.6,221.7 185.5,215 167.6,204 167.6,118 "/>
<path class="st6" d="M167.6,30.2v87.5h-23.7V78.3l-18-8.8l18-8.8V30.2c0-6.5,5.3-11.9,11.9-11.9C162.3,18.3,167.6,23.6,167.6,30.2z"
	/>
<path class="st7" d="M154.3,117.7h-11.1V78.3l-18-8.8l18-8.8V30.2c0-6.3,4.9-11.4,11.1-11.8V117.7z"/>
<polygon class="st8" points="157.2,305.2 168.3,305.2 168.3,221.7 186.3,215 168.3,204 168.3,118 157.2,118 "/>
<polygon class="st9" points="154.3,392.5 143.2,392.5 143.2,355.3 125.2,346.5 143.2,337.7 143.2,305.2 154.3,305.2 "/>
<path class="st10" d="M156.4,491.8c6.2-0.4,11.1-5.5,11.1-11.8v-27.7l18-8.8l-18-8.8v-42.2h-11.1V491.8z"/>
<polygon class="st11" points="143.9,392.5 143.9,421.2 167.6,434.7 167.6,392.5 "/>
<polygon class="st12" points="143.9,337.7 143.9,337.7 143.9,337.7 143.9,305.2 167.6,305.2 167.6,324.2 "/>
<path class="st13" d="M167.6,30.2v17l-23.7,13.5l0,0h0V30.2c0-6.5,5.3-11.9,11.9-11.9C162.3,18.3,167.6,23.6,167.6,30.2z"/>
<polygon class="st14" points="167.6,204 167.6,204 167.6,204 167.6,118 143.9,118 143.9,190.5 "/>
<g>
	<path class="st15" d="M151.5,472.2c0,0.5-0.5,0.9-1,0.9l0,0c-0.6,0-1.1-0.4-1.1-0.9v-34c0-0.5,0.5-0.9,1.1-0.9l0,0
		c0.6,0,1,0.4,1,0.9V472.2z"/>
	<path class="st15" d="M151.5,479.1c0,0.5-0.5,0.9-1,0.9l0,0c-0.6,0-1.1-0.4-1.1-0.9v-2.9c0-0.5,0.5-0.9,1.1-0.9l0,0
		c0.6,0,1,0.4,1,0.9V479.1z"/>
</g>
<g>
	<path class="st15" d="M149,99.5c0,0.5,0.5,0.9,1,0.9l0,0c0.6,0,1.1-0.4,1.1-0.9V72.2c0-0.5-0.5-0.9-1.1-0.9l0,0c-0.6,0-1,0.4-1,0.9
		V99.5z"/>
	<path class="st15" d="M149,106.4c0,0.5,0.5,0.9,1,0.9l0,0c0.6,0,1.1-0.4,1.1-0.9v-2.9c0-0.5-0.5-0.9-1.1-0.9l0,0
		c-0.6,0-1,0.4-1,0.9V106.4z"/>
</g>
<g>
	<path class="st15" d="M151.5,285.2c0,0.5-0.5,0.9-1,0.9l0,0c-0.6,0-1.1-0.4-1.1-0.9V180.9c0-0.5,0.5-0.9,1.1-0.9l0,0
		c0.6,0,1,0.4,1,0.9V285.2z"/>
	<path class="st15" d="M151.5,292.1c0,0.5-0.5,0.9-1,0.9l0,0c-0.6,0-1.1-0.4-1.1-0.9v-2.9c0-0.5,0.5-0.9,1.1-0.9l0,0
		c0.6,0,1,0.4,1,0.9V292.1z"/>
</g>
<g>
	<path class="st15" d="M151.5,376.4c0,0.5-0.5,0.9-1,0.9l0,0c-0.6,0-1.1-0.4-1.1-0.9v-27c0-0.5,0.5-0.9,1.1-0.9l0,0
		c0.6,0,1,0.4,1,0.9V376.4z"/>
	<path class="st15" d="M151.5,383.3c0,0.5-0.5,0.9-1,0.9l0,0c-0.6,0-1.1-0.4-1.1-0.9v-2.9c0-0.5,0.5-0.9,1.1-0.9l0,0
		c0.6,0,1,0.4,1,0.9V383.3z"/>
</g>
<path class="st16" d="M143.9,480c0,6.5,5.3,11.9,11.9,11.9c6.5,0,11.9-5.3,11.9-11.9v-2.7l-23.7-10.7V480z"/>
<polygon class="st12" points="167.6,392.5 143.9,392.5 143.9,380.4 167.6,369.7 "/>
<polygon class="st17" points="143.9,266.2 143.9,305.2 167.6,305.2 167.6,276.9 "/>
<polygon class="st18" points="167.6,90.5 167.6,117.7 143.9,117.7 143.9,101.2 "/>
<path class="st19" d="M143.9,392.5V480c0,6.5,5.3,11.9,11.9,11.9c6.5,0,11.9-5.3,11.9-11.9v-27.7l18-8.8l-18-8.8v-42.2H143.9z"/>
<polygon class="st20" points="167.6,305.2 167.6,392.5 143.9,392.5 143.9,355.3 125.9,346.5 143.9,337.7 143.9,305.2 "/>
<polygon class="st21" points="143.9,118 143.9,305.2 167.6,305.2 167.6,221.7 185.5,215 167.6,204 167.6,118 "/>
<path class="st22" d="M167.6,30.2v87.5h-23.7V78.3l-18-8.8l18-8.8V30.2c0-6.5,5.3-11.9,11.9-11.9C162.3,18.3,167.6,23.6,167.6,30.2z
	"/>
<g>
	<path class="st23" d="M193.1,448.4v-9.9h4.1c0.4,0,0.8,0,1.1,0.1c0.3,0.1,0.6,0.3,0.9,0.5c0.3,0.2,0.5,0.6,0.6,1s0.2,0.9,0.2,1.6
		c0,0.5,0,0.8-0.1,1.2c-0.1,0.3-0.2,0.6-0.4,0.8c-0.1,0.2-0.3,0.4-0.5,0.5c-0.2,0.1-0.4,0.2-0.6,0.3l1.8,4h-2l-1.6-3.7
		c-0.1,0-0.2,0-0.4,0c-0.1,0-0.3,0-0.4,0c-0.1,0-0.3,0-0.4,0s-0.3,0-0.4,0v3.7H193.1z M195.1,443.1h1.8c0.2,0,0.3,0,0.5-0.1
		s0.3-0.1,0.4-0.2c0.1-0.1,0.2-0.3,0.2-0.4c0.1-0.2,0.1-0.4,0.1-0.7c0-0.3,0-0.5-0.1-0.7c-0.1-0.2-0.1-0.3-0.2-0.4s-0.2-0.2-0.4-0.2
		s-0.3-0.1-0.5-0.1h-1.8V443.1z"/>
	<path class="st23" d="M204.3,448.5c-0.8,0-1.4-0.1-1.9-0.3c-0.5-0.2-0.8-0.6-1-1.1c-0.2-0.5-0.3-1.3-0.3-2.2c0-1,0.1-1.7,0.3-2.3
		c0.2-0.5,0.5-0.9,1-1.1c0.5-0.2,1.1-0.3,1.9-0.3c0.7,0,1.3,0.1,1.7,0.2c0.4,0.1,0.7,0.4,0.9,0.7c0.2,0.4,0.3,0.9,0.3,1.5
		c0,0.5-0.1,0.9-0.3,1.1c-0.2,0.3-0.5,0.5-0.8,0.6c-0.3,0.1-0.8,0.2-1.2,0.2H203c0,0.4,0.1,0.7,0.2,0.9c0.1,0.2,0.3,0.4,0.5,0.5
		c0.3,0.1,0.6,0.1,1.1,0.1h2.1v1.2c-0.3,0.1-0.7,0.1-1.1,0.2C205.4,448.4,204.9,448.5,204.3,448.5z M203,444.3h1.6
		c0.3,0,0.5-0.1,0.6-0.2c0.1-0.1,0.2-0.3,0.2-0.6c0-0.3,0-0.5-0.1-0.6c-0.1-0.2-0.2-0.3-0.4-0.3c-0.2-0.1-0.4-0.1-0.7-0.1
		c-0.3,0-0.5,0.1-0.7,0.2c-0.2,0.1-0.3,0.3-0.4,0.5C203,443.5,203,443.9,203,444.3z"/>
	<path class="st23" d="M211.1,448.5c-0.2,0-0.5,0-0.7,0c-0.3,0-0.5,0-0.8-0.1s-0.5-0.1-0.7-0.1s-0.4-0.1-0.6-0.1V447h3.2
		c0.2,0,0.3,0,0.5,0c0.1,0,0.2-0.1,0.3-0.2c0.1-0.1,0.1-0.2,0.1-0.4v-0.2c0-0.2-0.1-0.3-0.2-0.4c-0.1-0.1-0.3-0.1-0.6-0.1h-1.1
		c-0.4,0-0.8-0.1-1.1-0.2c-0.3-0.1-0.6-0.3-0.8-0.6c-0.2-0.3-0.3-0.7-0.3-1.2v-0.4c0-0.5,0.1-0.8,0.3-1.2c0.2-0.3,0.5-0.5,0.9-0.7
		c0.4-0.2,1-0.2,1.7-0.2c0.3,0,0.6,0,0.9,0s0.7,0.1,0.9,0.1c0.3,0,0.5,0.1,0.7,0.2v1.2h-3c-0.3,0-0.5,0-0.6,0.1
		c-0.1,0.1-0.2,0.2-0.2,0.5v0.2c0,0.2,0,0.3,0.1,0.4s0.2,0.1,0.3,0.2s0.3,0,0.5,0h1.1c0.7,0,1.3,0.2,1.6,0.5
		c0.3,0.3,0.5,0.8,0.5,1.4v0.6c0,0.5-0.1,0.9-0.3,1.1c-0.2,0.3-0.6,0.5-1,0.6C212.2,448.4,211.7,448.5,211.1,448.5z"/>
	<path class="st23" d="M218.2,448.5c-0.8,0-1.4-0.1-1.9-0.3c-0.5-0.2-0.8-0.6-1-1.1c-0.2-0.5-0.3-1.3-0.3-2.2c0-1,0.1-1.7,0.3-2.3
		c0.2-0.5,0.5-0.9,1-1.1c0.5-0.2,1.1-0.3,1.9-0.3c0.7,0,1.3,0.1,1.7,0.2c0.4,0.1,0.7,0.4,0.9,0.7c0.2,0.4,0.3,0.9,0.3,1.5
		c0,0.5-0.1,0.9-0.3,1.1c-0.2,0.3-0.5,0.5-0.8,0.6c-0.3,0.1-0.8,0.2-1.2,0.2H217c0,0.4,0.1,0.7,0.2,0.9c0.1,0.2,0.3,0.4,0.5,0.5
		c0.3,0.1,0.6,0.1,1.1,0.1h2.1v1.2c-0.3,0.1-0.7,0.1-1.1,0.2C219.3,448.4,218.8,448.5,218.2,448.5z M216.9,444.3h1.6
		c0.3,0,0.5-0.1,0.6-0.2c0.1-0.1,0.2-0.3,0.2-0.6c0-0.3,0-0.5-0.1-0.6c-0.1-0.2-0.2-0.3-0.4-0.3c-0.2-0.1-0.4-0.1-0.7-0.1
		c-0.3,0-0.5,0.1-0.7,0.2c-0.2,0.1-0.3,0.3-0.4,0.5C217,443.5,216.9,443.9,216.9,444.3z"/>
	<path class="st23" d="M222.4,448.4v-7.2h1.5l0.5,1.1c0.3-0.3,0.6-0.6,0.9-0.8c0.3-0.2,0.7-0.3,1.2-0.3c0.1,0,0.2,0,0.3,0
		c0.1,0,0.2,0,0.3,0.1v2c-0.1,0-0.3,0-0.4,0c-0.1,0-0.3,0-0.4,0c-0.3,0-0.5,0-0.7,0.1c-0.2,0.1-0.4,0.1-0.6,0.3
		c-0.2,0.1-0.3,0.3-0.5,0.4v4.5H222.4z"/>
	<path class="st23" d="M229.9,448.4l-2.4-7.2h2l1.6,5.3l1.6-5.3h2l-2.5,7.2H229.9z"/>
	<path class="st23" d="M238.3,448.5c-0.8,0-1.4-0.1-1.9-0.3c-0.5-0.2-0.8-0.6-1-1.1c-0.2-0.5-0.3-1.3-0.3-2.2c0-1,0.1-1.7,0.3-2.3
		c0.2-0.5,0.5-0.9,1-1.1c0.5-0.2,1.1-0.3,1.9-0.3c0.7,0,1.3,0.1,1.7,0.2c0.4,0.1,0.7,0.4,0.9,0.7c0.2,0.4,0.3,0.9,0.3,1.5
		c0,0.5-0.1,0.9-0.3,1.1c-0.2,0.3-0.5,0.5-0.8,0.6c-0.3,0.1-0.8,0.2-1.2,0.2h-1.8c0,0.4,0.1,0.7,0.2,0.9c0.1,0.2,0.3,0.4,0.5,0.5
		c0.3,0.1,0.6,0.1,1.1,0.1h2.1v1.2c-0.3,0.1-0.7,0.1-1.1,0.2C239.4,448.4,238.9,448.5,238.3,448.5z M237.1,444.3h1.6
		c0.3,0,0.5-0.1,0.6-0.2c0.1-0.1,0.2-0.3,0.2-0.6c0-0.3,0-0.5-0.1-0.6c-0.1-0.2-0.2-0.3-0.4-0.3c-0.2-0.1-0.4-0.1-0.7-0.1
		c-0.3,0-0.5,0.1-0.7,0.2c-0.2,0.1-0.3,0.3-0.4,0.5C237.1,443.5,237.1,443.9,237.1,444.3z"/>
</g>
<g>
	<path class="st23" d="M46.4,347.2l3.1-9.9H52l3.1,9.9h-2.1l-0.6-2.1h-3.4l-0.6,2.1H46.4z M49.5,343.4H52l-1.2-4.3L49.5,343.4z"/>
	<path class="st23" d="M56.2,347.2v-9.9h2v9.9H56.2z"/>
	<path class="st23" d="M59.8,347.2v-7.2h1.5l0.5,1.1c0.3-0.3,0.6-0.6,0.9-0.8c0.3-0.2,0.7-0.3,1.2-0.3c0.1,0,0.2,0,0.3,0
		c0.1,0,0.2,0,0.3,0.1v2c-0.1,0-0.3,0-0.4,0c-0.1,0-0.3,0-0.4,0c-0.3,0-0.5,0-0.7,0.1c-0.2,0.1-0.4,0.1-0.6,0.3
		c-0.2,0.1-0.3,0.3-0.5,0.4v4.5H59.8z"/>
	<path class="st23" d="M67.8,347.3c-0.6,0-1-0.1-1.4-0.4c-0.4-0.2-0.7-0.6-0.9-1.1c-0.2-0.5-0.3-1.2-0.3-2.1c0-0.9,0.1-1.6,0.2-2.2
		c0.2-0.6,0.4-1,0.8-1.2s0.9-0.4,1.6-0.4c0.3,0,0.7,0,1,0.1c0.3,0.1,0.6,0.1,0.9,0.2V337h2v10.2h-1.7l-0.3-0.7
		c-0.2,0.1-0.3,0.3-0.6,0.4c-0.2,0.1-0.4,0.2-0.7,0.3C68.3,347.3,68.1,347.3,67.8,347.3z M68.5,345.7c0.3,0,0.5,0,0.7-0.1
		c0.2-0.1,0.4-0.2,0.5-0.3v-3.6c-0.2-0.1-0.4-0.1-0.6-0.2c-0.2-0.1-0.4-0.1-0.6-0.1c-0.3,0-0.6,0.1-0.8,0.2s-0.3,0.3-0.4,0.6
		c-0.1,0.3-0.1,0.8-0.1,1.4c0,0.6,0,1,0.1,1.3c0.1,0.3,0.2,0.5,0.4,0.6C68,345.7,68.2,345.7,68.5,345.7z"/>
	<path class="st23" d="M73.3,347.2v-7.2h1.5l0.5,1.1c0.3-0.3,0.6-0.6,0.9-0.8c0.3-0.2,0.7-0.3,1.2-0.3c0.1,0,0.2,0,0.3,0
		c0.1,0,0.2,0,0.3,0.1v2c-0.1,0-0.3,0-0.4,0c-0.1,0-0.3,0-0.4,0c-0.3,0-0.5,0-0.7,0.1c-0.2,0.1-0.4,0.1-0.6,0.3
		c-0.2,0.1-0.3,0.3-0.5,0.4v4.5H73.3z"/>
	<path class="st23" d="M82,347.3c-0.6,0-1.1-0.1-1.5-0.2c-0.4-0.1-0.8-0.3-1-0.6c-0.3-0.3-0.5-0.7-0.6-1.1c-0.1-0.5-0.2-1.1-0.2-1.8
		c0-0.7,0.1-1.3,0.2-1.8c0.1-0.5,0.3-0.9,0.6-1.1c0.3-0.3,0.6-0.5,1-0.6s0.9-0.2,1.5-0.2c0.6,0,1.1,0.1,1.5,0.2s0.8,0.3,1,0.6
		c0.3,0.3,0.5,0.6,0.6,1.1c0.1,0.5,0.2,1.1,0.2,1.8c0,0.7-0.1,1.3-0.2,1.8c-0.1,0.5-0.3,0.9-0.6,1.1c-0.3,0.3-0.6,0.5-1,0.6
		C83.1,347.3,82.6,347.3,82,347.3z M82,345.7c0.2,0,0.4,0,0.6-0.1c0.2,0,0.3-0.1,0.4-0.3c0.1-0.1,0.2-0.3,0.2-0.6
		c0.1-0.3,0.1-0.7,0.1-1.1c0-0.5,0-0.8-0.1-1.1c-0.1-0.3-0.1-0.5-0.2-0.6c-0.1-0.1-0.2-0.2-0.4-0.3c-0.2,0-0.4-0.1-0.6-0.1
		c-0.2,0-0.4,0-0.6,0.1c-0.2,0-0.3,0.1-0.4,0.3c-0.1,0.1-0.2,0.3-0.2,0.6c0,0.3-0.1,0.7-0.1,1.1c0,0.5,0,0.8,0.1,1.1
		c0,0.3,0.1,0.5,0.2,0.6c0.1,0.1,0.2,0.2,0.4,0.3C81.6,345.7,81.8,345.7,82,345.7z"/>
	<path class="st23" d="M86.6,350.4v-10.3h1.7l0.3,0.7c0.2-0.1,0.4-0.3,0.6-0.4c0.2-0.1,0.4-0.2,0.7-0.3c0.2-0.1,0.5-0.1,0.8-0.1
		c0.4,0,0.8,0.1,1.1,0.3c0.3,0.2,0.6,0.4,0.8,0.7c0.2,0.3,0.4,0.7,0.5,1.2c0.1,0.5,0.1,1,0.1,1.5c0,0.8-0.1,1.4-0.2,2
		c-0.2,0.6-0.4,1-0.8,1.3c-0.4,0.3-0.9,0.4-1.5,0.4c-0.3,0-0.7,0-1-0.1c-0.4-0.1-0.7-0.2-1-0.3v3.5H86.6z M89.9,345.7
		c0.2,0,0.4-0.1,0.6-0.2c0.2-0.1,0.3-0.3,0.4-0.6c0.1-0.3,0.2-0.7,0.2-1.3c0-0.5-0.1-1-0.2-1.3s-0.2-0.5-0.4-0.7
		c-0.2-0.1-0.4-0.2-0.6-0.2c-0.3,0-0.5,0-0.8,0.1c-0.2,0.1-0.4,0.2-0.6,0.3v3.4c0.2,0.1,0.4,0.2,0.6,0.3
		C89.5,345.7,89.7,345.7,89.9,345.7z"/>
	<path class="st23" d="M97,347.3c-0.2,0-0.5,0-0.7,0c-0.3,0-0.5,0-0.8-0.1s-0.5-0.1-0.7-0.1s-0.4-0.1-0.6-0.1v-1.2h3.2
		c0.2,0,0.3,0,0.5,0c0.1,0,0.2-0.1,0.3-0.2c0.1-0.1,0.1-0.2,0.1-0.4V345c0-0.2-0.1-0.3-0.2-0.4c-0.1-0.1-0.3-0.1-0.6-0.1h-1.1
		c-0.4,0-0.8-0.1-1.1-0.2c-0.3-0.1-0.6-0.3-0.8-0.6c-0.2-0.3-0.3-0.7-0.3-1.2v-0.4c0-0.5,0.1-0.8,0.3-1.2c0.2-0.3,0.5-0.5,0.9-0.7
		c0.4-0.2,1-0.2,1.7-0.2c0.3,0,0.6,0,0.9,0s0.7,0.1,0.9,0.1c0.3,0,0.5,0.1,0.7,0.2v1.2h-3c-0.3,0-0.5,0-0.6,0.1
		c-0.1,0.1-0.2,0.2-0.2,0.5v0.2c0,0.2,0,0.3,0.1,0.4s0.2,0.1,0.3,0.2s0.3,0,0.5,0h1.1c0.7,0,1.3,0.2,1.6,0.5
		c0.3,0.3,0.5,0.8,0.5,1.4v0.6c0,0.5-0.1,0.9-0.3,1.1c-0.2,0.3-0.6,0.5-1,0.6C98.2,347.3,97.7,347.3,97,347.3z"/>
	<path class="st23" d="M100.4,348.2l3.8-11.3h2l-3.8,11.3H100.4z"/>
	<path class="st23" d="M49,360.3c-0.6,0-1.1-0.1-1.5-0.4s-0.7-0.6-0.9-1c-0.2-0.4-0.4-1-0.5-1.6c-0.1-0.6-0.1-1.3-0.1-2.1
		c0-0.8,0.1-1.5,0.2-2.1s0.3-1.2,0.5-1.6c0.3-0.4,0.6-0.8,1.1-1s1.1-0.3,1.8-0.3c0.5,0,0.9,0,1.3,0.1c0.4,0,0.7,0.1,1.1,0.2
		c0.3,0.1,0.7,0.1,1,0.2v1.5c-0.2,0-0.4-0.1-0.7-0.1c-0.3,0-0.7-0.1-1-0.1c-0.4,0-0.8,0-1.2,0c-0.6,0-1,0.1-1.3,0.3
		c-0.3,0.2-0.5,0.5-0.6,1s-0.2,1.1-0.2,2c0,0.6,0,1.2,0.1,1.6c0.1,0.4,0.2,0.7,0.3,1c0.1,0.2,0.3,0.4,0.5,0.5
		c0.2,0.1,0.5,0.1,0.8,0.1c0.4,0,0.7,0,1-0.1c0.3-0.1,0.6-0.1,0.8-0.2v-1.9h-1.8v-1.6c0.2,0,0.4,0,0.7-0.1c0.3,0,0.5,0,0.8,0
		s0.6,0,0.8,0c0.3,0,0.5,0,0.8,0c0.2,0,0.4,0,0.6,0v5.6h-1.5l-0.3-0.7c-0.3,0.2-0.6,0.3-1.1,0.5C50.1,360.2,49.6,360.3,49,360.3z"/>
	<path class="st23" d="M55.3,352c-0.2,0-0.3-0.1-0.3-0.3v-1.3c0-0.2,0.1-0.3,0.3-0.3h1.5c0.1,0,0.1,0,0.2,0.1c0,0.1,0.1,0.1,0.1,0.2
		v1.3c0,0.2-0.1,0.3-0.3,0.3H55.3z M55,360.2v-7.2h2v7.2H55z"/>
	<path class="st23" d="M60.3,360.2l-2.4-7.2h2l1.6,5.3l1.6-5.3h2l-2.5,7.2H60.3z"/>
	<path class="st23" d="M68.8,360.3c-0.8,0-1.4-0.1-1.9-0.3c-0.5-0.2-0.8-0.6-1-1.1c-0.2-0.5-0.3-1.3-0.3-2.2c0-1,0.1-1.7,0.3-2.3
		c0.2-0.5,0.5-0.9,1-1.1c0.5-0.2,1.1-0.3,1.9-0.3c0.7,0,1.3,0.1,1.7,0.2c0.4,0.1,0.7,0.4,0.9,0.7c0.2,0.4,0.3,0.9,0.3,1.5
		c0,0.5-0.1,0.9-0.3,1.1c-0.2,0.3-0.5,0.5-0.8,0.6c-0.3,0.1-0.8,0.2-1.2,0.2h-1.8c0,0.4,0.1,0.7,0.2,0.9c0.1,0.2,0.3,0.4,0.5,0.5
		c0.3,0.1,0.6,0.1,1.1,0.1h2.1v1.2c-0.3,0.1-0.7,0.1-1.1,0.2C69.9,360.3,69.4,360.3,68.8,360.3z M67.5,356.2h1.6
		c0.3,0,0.5-0.1,0.6-0.2c0.1-0.1,0.2-0.3,0.2-0.6c0-0.3,0-0.5-0.1-0.6c-0.1-0.2-0.2-0.3-0.4-0.3c-0.2-0.1-0.4-0.1-0.7-0.1
		c-0.3,0-0.5,0.1-0.7,0.2c-0.2,0.1-0.3,0.3-0.4,0.5C67.6,355.3,67.5,355.7,67.5,356.2z"/>
	<path class="st23" d="M74.5,360.3c-0.5,0-1-0.2-1.3-0.5c-0.3-0.3-0.5-0.8-0.5-1.3v-0.6c0-0.5,0.2-1,0.6-1.3c0.4-0.4,1-0.5,1.8-0.5
		h1.8v-0.5c0-0.2,0-0.4-0.1-0.6c-0.1-0.1-0.2-0.3-0.4-0.3c-0.2-0.1-0.6-0.1-1-0.1h-2.2v-1.2c0.3-0.1,0.8-0.2,1.2-0.3
		c0.5-0.1,1-0.1,1.7-0.1c0.6,0,1.1,0.1,1.5,0.2s0.7,0.4,1,0.7c0.2,0.3,0.3,0.8,0.3,1.4v4.9h-1.6l-0.3-0.8c-0.1,0.1-0.2,0.2-0.3,0.2
		c-0.2,0.1-0.3,0.2-0.6,0.3c-0.2,0.1-0.5,0.2-0.7,0.2C75.1,360.3,74.8,360.3,74.5,360.3z M75.5,358.9c0.1,0,0.2,0,0.3,0
		c0.1,0,0.2,0,0.3-0.1c0.1,0,0.2-0.1,0.3-0.1c0.1,0,0.2-0.1,0.3-0.1c0.1,0,0.1,0,0.1-0.1v-1.7l-1.2,0.1c-0.3,0-0.6,0.1-0.8,0.3
		s-0.2,0.4-0.2,0.6v0.3c0,0.2,0,0.3,0.1,0.4c0.1,0.1,0.2,0.2,0.3,0.2C75.2,358.9,75.3,358.9,75.5,358.9z"/>
	<path class="st23" d="M81.6,360.2l-1.9-7.2h2l1.1,5.3l1.4-5.3H86l1.4,5.3l1-5.3h2l-1.9,7.2h-2.2l-1.3-4.4l-1.3,4.4H81.6z"/>
	<path class="st23" d="M92.6,360.3c-0.5,0-1-0.2-1.3-0.5c-0.3-0.3-0.5-0.8-0.5-1.3v-0.6c0-0.5,0.2-1,0.6-1.3c0.4-0.4,1-0.5,1.8-0.5
		H95v-0.5c0-0.2,0-0.4-0.1-0.6c-0.1-0.1-0.2-0.3-0.4-0.3c-0.2-0.1-0.6-0.1-1-0.1h-2.2v-1.2c0.3-0.1,0.8-0.2,1.2-0.3
		c0.5-0.1,1-0.1,1.7-0.1c0.6,0,1.1,0.1,1.5,0.2s0.7,0.4,1,0.7c0.2,0.3,0.3,0.8,0.3,1.4v4.9h-1.6l-0.3-0.8c-0.1,0.1-0.2,0.2-0.3,0.2
		c-0.2,0.1-0.3,0.2-0.6,0.3c-0.2,0.1-0.5,0.2-0.7,0.2C93.2,360.3,92.9,360.3,92.6,360.3z M93.6,358.9c0.1,0,0.2,0,0.3,0
		c0.1,0,0.2,0,0.3-0.1c0.1,0,0.2-0.1,0.3-0.1c0.1,0,0.2-0.1,0.3-0.1c0.1,0,0.1,0,0.1-0.1v-1.7l-1.2,0.1c-0.3,0-0.6,0.1-0.8,0.3
		s-0.2,0.4-0.2,0.6v0.3c0,0.2,0,0.3,0.1,0.4c0.1,0.1,0.2,0.2,0.3,0.2C93.3,358.9,93.5,358.9,93.6,358.9z"/>
	<path class="st23" d="M100.7,363.4l0.8-3.2c-0.4,0-0.8-0.1-1.1-0.2c-0.3-0.2-0.6-0.4-0.8-0.6c-0.2-0.3-0.4-0.6-0.5-1l-1.4-5.3h2.1
		l1.1,4.9c0,0.2,0.1,0.3,0.2,0.4c0.1,0.1,0.1,0.2,0.2,0.2c0.1,0,0.2,0.1,0.2,0.1c0.1,0,0.1,0,0.2,0l1.3-5.6h2l-2.1,9l-0.6,1.3H100.7
		z"/>
	<path class="st23" d="M108.7,360.3c-0.2,0-0.5,0-0.7,0c-0.3,0-0.5,0-0.8-0.1s-0.5-0.1-0.7-0.1s-0.4-0.1-0.6-0.1v-1.2h3.2
		c0.2,0,0.3,0,0.5,0c0.1,0,0.2-0.1,0.3-0.2c0.1-0.1,0.1-0.2,0.1-0.4V358c0-0.2-0.1-0.3-0.2-0.4c-0.1-0.1-0.3-0.1-0.6-0.1H108
		c-0.4,0-0.8-0.1-1.1-0.2c-0.3-0.1-0.6-0.3-0.8-0.6c-0.2-0.3-0.3-0.7-0.3-1.2v-0.4c0-0.5,0.1-0.8,0.3-1.2c0.2-0.3,0.5-0.5,0.9-0.7
		c0.4-0.2,1-0.2,1.7-0.2c0.3,0,0.6,0,0.9,0s0.7,0.1,0.9,0.1c0.3,0,0.5,0.1,0.7,0.2v1.2h-3c-0.3,0-0.5,0-0.6,0.1
		c-0.1,0.1-0.2,0.2-0.2,0.5v0.2c0,0.2,0,0.3,0.1,0.4s0.2,0.1,0.3,0.2s0.3,0,0.5,0h1.1c0.7,0,1.3,0.2,1.6,0.5
		c0.3,0.3,0.5,0.8,0.5,1.4v0.6c0,0.5-0.1,0.9-0.3,1.1c-0.2,0.3-0.6,0.5-1,0.6C109.8,360.3,109.3,360.3,108.7,360.3z"/>
</g>
<g>
	<path class="st23" d="M197.6,204.9V195h2v9.9H197.6z"/>
	<path class="st23" d="M201.2,204.9v-7.2h1.6l0.3,0.7c0.3-0.2,0.6-0.4,1-0.6s0.8-0.3,1.2-0.3c0.6,0,1,0.1,1.4,0.3
		c0.3,0.2,0.5,0.5,0.7,0.9c0.1,0.4,0.2,0.8,0.2,1.3v4.7h-2v-4.5c0-0.2,0-0.4-0.1-0.6c-0.1-0.2-0.2-0.3-0.4-0.3
		c-0.2-0.1-0.3-0.1-0.5-0.1c-0.2,0-0.4,0-0.5,0.1s-0.3,0.1-0.5,0.2s-0.3,0.2-0.4,0.3v5H201.2z"/>
	<path class="st23" d="M209.4,196.6c-0.2,0-0.3-0.1-0.3-0.3v-1.3c0-0.2,0.1-0.3,0.3-0.3h1.5c0.1,0,0.1,0,0.2,0.1
		c0,0.1,0.1,0.1,0.1,0.2v1.3c0,0.2-0.1,0.3-0.3,0.3H209.4z M209.1,204.9v-7.2h2v7.2H209.1z"/>
	<path class="st23" d="M215.4,204.9c-0.6,0-1-0.1-1.3-0.2c-0.3-0.2-0.6-0.4-0.7-0.8c-0.2-0.4-0.2-0.9-0.2-1.5l0.1-3H212V198l1.2-0.3
		l0.3-2h1.6v2h1.7v1.6H215v3c0,0.2,0,0.4,0.1,0.5c0,0.1,0.1,0.2,0.2,0.3c0.1,0.1,0.1,0.1,0.2,0.2c0.1,0,0.2,0.1,0.3,0.1l0.9,0.1v1.5
		H215.4z"/>
	<path class="st23" d="M218.1,196.6c-0.2,0-0.3-0.1-0.3-0.3v-1.3c0-0.2,0.1-0.3,0.3-0.3h1.5c0.1,0,0.1,0,0.2,0.1
		c0,0.1,0.1,0.1,0.1,0.2v1.3c0,0.2-0.1,0.3-0.3,0.3H218.1z M217.8,204.9v-7.2h2v7.2H217.8z"/>
	<path class="st23" d="M222.9,205c-0.5,0-1-0.2-1.3-0.5c-0.3-0.3-0.5-0.8-0.5-1.3v-0.6c0-0.5,0.2-1,0.6-1.3c0.4-0.4,1-0.5,1.8-0.5
		h1.8v-0.5c0-0.2,0-0.4-0.1-0.6c-0.1-0.1-0.2-0.3-0.4-0.3c-0.2-0.1-0.5-0.1-1-0.1h-2.2V198c0.3-0.1,0.8-0.2,1.2-0.3s1-0.1,1.7-0.1
		c0.6,0,1.1,0.1,1.5,0.2c0.4,0.1,0.7,0.4,1,0.7c0.2,0.3,0.3,0.8,0.3,1.4v4.9h-1.6l-0.3-0.8c-0.1,0.1-0.2,0.2-0.3,0.2
		c-0.2,0.1-0.3,0.2-0.6,0.3s-0.5,0.2-0.7,0.2C223.4,204.9,223.2,205,222.9,205z M223.9,203.6c0.1,0,0.2,0,0.3,0c0.1,0,0.2,0,0.3-0.1
		s0.2-0.1,0.3-0.1c0.1,0,0.2-0.1,0.3-0.1c0.1,0,0.1,0,0.1-0.1v-1.7l-1.2,0.1c-0.3,0-0.6,0.1-0.8,0.3c-0.2,0.2-0.2,0.4-0.2,0.6v0.3
		c0,0.2,0,0.3,0.1,0.4c0.1,0.1,0.2,0.2,0.3,0.2C223.6,203.6,223.7,203.6,223.9,203.6z"/>
	<path class="st23" d="M230.9,204.9c-0.5,0-0.9-0.1-1.3-0.2s-0.6-0.4-0.7-0.8c-0.2-0.3-0.2-0.8-0.2-1.3v-7.9h2v7.6
		c0,0.3,0,0.5,0.1,0.6c0.1,0.2,0.1,0.3,0.2,0.3c0.1,0.1,0.3,0.1,0.4,0.1l0.5,0.1v1.4H230.9z"/>
	<path class="st23" d="M199.5,217.9v-8.1h-2.7V208h7.4v1.8h-2.7v8.1H199.5z"/>
	<path class="st23" d="M207.6,217.9c-0.6,0-1.1-0.1-1.5-0.2c-0.4-0.1-0.8-0.3-1-0.6c-0.3-0.3-0.5-0.7-0.6-1.1
		c-0.1-0.5-0.2-1.1-0.2-1.8c0-0.7,0.1-1.3,0.2-1.8c0.1-0.5,0.3-0.9,0.6-1.1c0.3-0.3,0.6-0.5,1-0.6c0.4-0.1,0.9-0.2,1.5-0.2
		c0.6,0,1.1,0.1,1.5,0.2s0.8,0.3,1,0.6c0.3,0.3,0.5,0.6,0.6,1.1c0.1,0.5,0.2,1.1,0.2,1.8c0,0.7-0.1,1.3-0.2,1.8
		c-0.1,0.5-0.3,0.9-0.6,1.1s-0.6,0.5-1,0.6C208.7,217.9,208.2,217.9,207.6,217.9z M207.6,216.4c0.2,0,0.4,0,0.6-0.1
		c0.2,0,0.3-0.1,0.4-0.3c0.1-0.1,0.2-0.3,0.2-0.6c0.1-0.3,0.1-0.7,0.1-1.1c0-0.5,0-0.8-0.1-1.1c-0.1-0.3-0.1-0.5-0.2-0.6
		c-0.1-0.1-0.2-0.2-0.4-0.3c-0.2,0-0.4-0.1-0.6-0.1c-0.2,0-0.4,0-0.6,0.1c-0.2,0-0.3,0.1-0.4,0.3c-0.1,0.1-0.2,0.3-0.2,0.6
		c0,0.3-0.1,0.7-0.1,1.1c0,0.5,0,0.8,0.1,1.1s0.1,0.5,0.2,0.6c0.1,0.1,0.2,0.2,0.4,0.3C207.2,216.3,207.4,216.4,207.6,216.4z"/>
	<path class="st23" d="M212.2,217.9v-10.2h2v5.5h0.8l1.6-2.5h2l-2.1,3.4l2.3,3.8h-2L215,215h-0.8v2.9H212.2z"/>
	<path class="st23" d="M222.6,217.9c-0.8,0-1.4-0.1-1.9-0.3c-0.5-0.2-0.8-0.6-1-1.1c-0.2-0.5-0.3-1.3-0.3-2.2c0-1,0.1-1.7,0.3-2.3
		c0.2-0.5,0.5-0.9,1-1.1s1.1-0.3,1.9-0.3c0.7,0,1.3,0.1,1.7,0.2c0.4,0.1,0.7,0.4,0.9,0.7c0.2,0.4,0.3,0.9,0.3,1.5
		c0,0.5-0.1,0.9-0.3,1.1c-0.2,0.3-0.5,0.5-0.8,0.6c-0.3,0.1-0.8,0.2-1.2,0.2h-1.8c0,0.4,0.1,0.7,0.2,0.9c0.1,0.2,0.3,0.4,0.5,0.5
		c0.3,0.1,0.6,0.1,1.1,0.1h2.1v1.2c-0.3,0.1-0.7,0.1-1.1,0.2C223.7,217.9,223.2,217.9,222.6,217.9z M221.3,213.8h1.6
		c0.3,0,0.5-0.1,0.6-0.2c0.1-0.1,0.2-0.3,0.2-0.6c0-0.3,0-0.5-0.1-0.6c-0.1-0.2-0.2-0.3-0.4-0.3c-0.2-0.1-0.4-0.1-0.7-0.1
		c-0.3,0-0.5,0.1-0.7,0.2c-0.2,0.1-0.3,0.3-0.4,0.5C221.4,213,221.3,213.3,221.3,213.8z"/>
	<path class="st23" d="M226.8,217.9v-7.2h1.6l0.3,0.7c0.3-0.2,0.6-0.4,1-0.6s0.8-0.3,1.2-0.3c0.6,0,1,0.1,1.4,0.3
		c0.3,0.2,0.5,0.5,0.7,0.9c0.1,0.4,0.2,0.8,0.2,1.3v4.7h-2v-4.5c0-0.2,0-0.4-0.1-0.6c-0.1-0.2-0.2-0.3-0.4-0.3
		c-0.2-0.1-0.3-0.1-0.5-0.1c-0.2,0-0.4,0-0.5,0.1s-0.3,0.1-0.5,0.2s-0.3,0.2-0.4,0.3v5H226.8z"/>
	<path class="st23" d="M201.3,231c-0.3,0-0.5,0-0.8,0c-0.3,0-0.5,0-0.8-0.1c-0.3,0-0.5-0.1-0.8-0.1c-0.2,0-0.5-0.1-0.7-0.1v-1.6
		c0.3,0,0.6,0,0.9,0.1c0.3,0,0.7,0,1.1,0s0.7,0,1,0c0.3,0,0.6,0,0.9-0.1s0.4-0.2,0.6-0.3s0.2-0.3,0.2-0.6v-0.4
		c0-0.3-0.1-0.5-0.3-0.7c-0.2-0.2-0.4-0.2-0.7-0.2H201c-0.9,0-1.7-0.2-2.2-0.6c-0.5-0.4-0.8-1.1-0.8-2.1v-0.5c0-1,0.3-1.7,0.8-2.1
		c0.6-0.4,1.3-0.7,2.4-0.7c0.4,0,0.7,0,1.1,0.1c0.4,0,0.7,0.1,1,0.1c0.3,0,0.6,0.1,0.9,0.2v1.6c-0.4,0-0.9-0.1-1.4-0.1
		c-0.5,0-1,0-1.4,0c-0.3,0-0.6,0-0.8,0.1s-0.4,0.2-0.5,0.3c-0.1,0.2-0.2,0.4-0.2,0.7v0.3c0,0.3,0.1,0.6,0.3,0.7
		c0.2,0.2,0.5,0.2,0.9,0.2h1c0.6,0,1.1,0.1,1.5,0.3s0.7,0.5,0.9,0.9c0.2,0.4,0.3,0.8,0.3,1.3v0.6c0,0.8-0.1,1.4-0.4,1.8
		c-0.3,0.4-0.7,0.7-1.2,0.8C202.6,230.9,202,231,201.3,231z"/>
	<path class="st23" d="M208.1,231c-0.6,0-1.1-0.2-1.5-0.6c-0.4-0.4-0.5-0.9-0.5-1.6v-5.1h2v4.5c0,0.4,0.1,0.7,0.3,0.8
		c0.2,0.1,0.4,0.2,0.8,0.2c0.2,0,0.5,0,0.8-0.1c0.3-0.1,0.5-0.2,0.7-0.4v-5h2v7.2h-1.6l-0.3-0.7c-0.3,0.2-0.7,0.4-1.1,0.6
		C209,230.9,208.6,231,208.1,231z"/>
	<path class="st23" d="M214,234v-10.3h1.7l0.3,0.7c0.2-0.1,0.4-0.3,0.6-0.4c0.2-0.1,0.4-0.2,0.7-0.3c0.2-0.1,0.5-0.1,0.8-0.1
		c0.4,0,0.8,0.1,1.1,0.3c0.3,0.2,0.6,0.4,0.8,0.7c0.2,0.3,0.4,0.7,0.5,1.2c0.1,0.5,0.1,1,0.1,1.5c0,0.8-0.1,1.4-0.2,2
		c-0.2,0.6-0.4,1-0.8,1.3c-0.4,0.3-0.9,0.4-1.5,0.4c-0.3,0-0.7,0-1-0.1c-0.4-0.1-0.7-0.2-1-0.3v3.5H214z M217.4,229.3
		c0.2,0,0.4-0.1,0.6-0.2c0.2-0.1,0.3-0.3,0.4-0.6c0.1-0.3,0.2-0.7,0.2-1.3c0-0.5-0.1-1-0.2-1.3s-0.2-0.5-0.4-0.7
		c-0.2-0.1-0.4-0.2-0.6-0.2c-0.3,0-0.5,0-0.8,0.1c-0.2,0.1-0.4,0.2-0.6,0.3v3.4c0.2,0.1,0.4,0.2,0.6,0.3
		C216.9,229.3,217.1,229.3,217.4,229.3z"/>
	<path class="st23" d="M221.9,234v-10.3h1.7l0.3,0.7c0.2-0.1,0.4-0.3,0.6-0.4c0.2-0.1,0.4-0.2,0.7-0.3c0.2-0.1,0.5-0.1,0.8-0.1
		c0.4,0,0.8,0.1,1.1,0.3c0.3,0.2,0.6,0.4,0.8,0.7c0.2,0.3,0.4,0.7,0.5,1.2c0.1,0.5,0.1,1,0.1,1.5c0,0.8-0.1,1.4-0.2,2
		c-0.2,0.6-0.4,1-0.8,1.3c-0.4,0.3-0.9,0.4-1.5,0.4c-0.3,0-0.7,0-1-0.1c-0.4-0.1-0.7-0.2-1-0.3v3.5H221.9z M225.2,229.3
		c0.2,0,0.4-0.1,0.6-0.2c0.2-0.1,0.3-0.3,0.4-0.6c0.1-0.3,0.2-0.7,0.2-1.3c0-0.5-0.1-1-0.2-1.3s-0.2-0.5-0.4-0.7
		c-0.2-0.1-0.4-0.2-0.6-0.2c-0.3,0-0.5,0-0.8,0.1c-0.2,0.1-0.4,0.2-0.6,0.3v3.4c0.2,0.1,0.4,0.2,0.6,0.3
		C224.7,229.3,224.9,229.3,225.2,229.3z"/>
	<path class="st23" d="M231.9,230.9c-0.5,0-0.9-0.1-1.3-0.2s-0.6-0.4-0.7-0.8c-0.2-0.3-0.2-0.8-0.2-1.3v-7.9h2v7.6
		c0,0.3,0,0.5,0.1,0.6c0.1,0.2,0.1,0.3,0.2,0.3c0.1,0.1,0.3,0.1,0.4,0.1l0.5,0.1v1.4H231.9z"/>
	<path class="st23" d="M236.1,234l0.8-3.2c-0.4,0-0.8-0.1-1.1-0.2c-0.3-0.2-0.6-0.4-0.8-0.6c-0.2-0.3-0.4-0.6-0.5-1l-1.4-5.3h2.1
		l1.1,4.9c0,0.2,0.1,0.3,0.2,0.4c0.1,0.1,0.1,0.2,0.2,0.2s0.2,0.1,0.2,0.1c0.1,0,0.1,0,0.2,0l1.3-5.6h2l-2.1,9l-0.6,1.3H236.1z"/>
</g>
<g>
	<path class="st23" d="M82.3,72.8v-8.1h-2.7v-1.8H87v1.8h-2.7v8.1H82.3z"/>
	<path class="st23" d="M90.3,72.8c-0.8,0-1.4-0.1-1.9-0.3c-0.5-0.2-0.8-0.6-1-1.1c-0.2-0.5-0.3-1.3-0.3-2.2c0-1,0.1-1.7,0.3-2.3
		c0.2-0.5,0.5-0.9,1-1.1s1.1-0.3,1.9-0.3c0.7,0,1.3,0.1,1.7,0.2c0.4,0.1,0.7,0.4,0.9,0.7c0.2,0.4,0.3,0.9,0.3,1.5
		c0,0.5-0.1,0.9-0.3,1.1c-0.2,0.3-0.5,0.5-0.8,0.6c-0.3,0.1-0.8,0.2-1.2,0.2H89c0,0.4,0.1,0.7,0.2,0.9c0.1,0.2,0.3,0.4,0.5,0.5
		c0.3,0.1,0.6,0.1,1.1,0.1h2.1v1.2c-0.3,0.1-0.7,0.1-1.1,0.2C91.4,72.8,90.9,72.8,90.3,72.8z M89,68.7h1.6c0.3,0,0.5-0.1,0.6-0.2
		c0.1-0.1,0.2-0.3,0.2-0.6c0-0.3,0-0.5-0.1-0.6c-0.1-0.2-0.2-0.3-0.4-0.3c-0.2-0.1-0.4-0.1-0.7-0.1c-0.3,0-0.5,0.1-0.7,0.2
		c-0.2,0.1-0.3,0.3-0.4,0.5C89,67.9,89,68.2,89,68.7z"/>
	<path class="st23" d="M96,72.8c-0.5,0-1-0.2-1.3-0.5c-0.3-0.3-0.5-0.8-0.5-1.3v-0.6c0-0.5,0.2-1,0.6-1.3c0.4-0.4,1-0.5,1.8-0.5h1.8
		V68c0-0.2,0-0.4-0.1-0.6c-0.1-0.1-0.2-0.3-0.4-0.3c-0.2-0.1-0.5-0.1-1-0.1h-2.2v-1.2c0.3-0.1,0.8-0.2,1.2-0.3s1-0.1,1.7-0.1
		c0.6,0,1.1,0.1,1.5,0.2c0.4,0.1,0.7,0.4,1,0.7c0.2,0.3,0.3,0.8,0.3,1.4v4.9h-1.6L98.4,72c-0.1,0.1-0.2,0.2-0.3,0.2
		c-0.2,0.1-0.3,0.2-0.6,0.3s-0.5,0.2-0.7,0.2C96.6,72.8,96.3,72.8,96,72.8z M97,71.5c0.1,0,0.2,0,0.3,0c0.1,0,0.2,0,0.3-0.1
		s0.2-0.1,0.3-0.1c0.1,0,0.2-0.1,0.3-0.1c0.1,0,0.1,0,0.1-0.1v-1.7l-1.2,0.1c-0.3,0-0.6,0.1-0.8,0.3c-0.2,0.2-0.2,0.4-0.2,0.6v0.3
		c0,0.2,0,0.3,0.1,0.4c0.1,0.1,0.2,0.2,0.3,0.2C96.7,71.4,96.8,71.5,97,71.5z"/>
	<path class="st23" d="M101.8,72.8v-7.2h1.6l0.3,0.7c0.3-0.2,0.7-0.4,1-0.6c0.4-0.2,0.8-0.3,1.4-0.3c0.5,0,0.8,0.1,1.1,0.3
		s0.5,0.4,0.7,0.7c0.2-0.2,0.4-0.3,0.7-0.5c0.3-0.2,0.6-0.3,0.9-0.4c0.3-0.1,0.6-0.2,0.9-0.2c0.6,0,1,0.1,1.4,0.3s0.6,0.5,0.7,0.9
		s0.2,0.9,0.2,1.4v4.7h-2v-4.5c0-0.2,0-0.4-0.1-0.6c-0.1-0.2-0.2-0.3-0.4-0.3c-0.2-0.1-0.3-0.1-0.5-0.1c-0.3,0-0.5,0.1-0.8,0.2
		c-0.3,0.1-0.5,0.2-0.7,0.4c0,0.1,0,0.2,0,0.3c0,0.1,0,0.2,0,0.3v4.4h-2v-4.5c0-0.2,0-0.4-0.1-0.6c-0.1-0.2-0.2-0.3-0.4-0.3
		c-0.2-0.1-0.3-0.1-0.5-0.1c-0.2,0-0.4,0-0.5,0.1s-0.3,0.1-0.5,0.2s-0.3,0.2-0.4,0.3v5H101.8z"/>
</g>
<g>
	<path class="st15" d="M150.8,140.4c-0.6,0-1.2,0-1.9-0.1c-0.7,0-1.3-0.1-1.9-0.2v-1.7h3.9c0.4,0,0.6-0.1,0.8-0.2
		c0.2-0.1,0.3-0.3,0.4-0.5c0.1-0.2,0.1-0.4,0.1-0.6v-0.8c0-0.3-0.1-0.6-0.3-0.8c-0.2-0.2-0.5-0.3-0.9-0.3h-0.9
		c-0.3,0-0.6,0.1-0.7,0.2s-0.3,0.3-0.3,0.6h-2.1l0.3-6.7h6.5v2h-4.7l-0.1,2.6c0.1-0.2,0.4-0.3,0.6-0.4c0.3-0.1,0.6-0.1,0.9-0.1h1.2
		c0.6,0,1,0.1,1.4,0.3c0.4,0.2,0.7,0.5,0.8,0.9c0.2,0.4,0.3,0.8,0.3,1.3v1.6c0,0.6-0.1,1.2-0.4,1.6c-0.3,0.4-0.7,0.7-1.2,0.9
		C152.2,140.3,151.5,140.4,150.8,140.4z"/>
	<path class="st15" d="M158.7,140.4c-0.6,0-1.1-0.1-1.6-0.3c-0.4-0.2-0.8-0.5-1-1c-0.2-0.4-0.3-0.9-0.3-1.5v-5.3
		c0-0.6,0.1-1.2,0.3-1.6s0.6-0.8,1-1c0.4-0.2,1-0.3,1.5-0.3h2.3c0.6,0,1.1,0.1,1.5,0.3s0.7,0.6,0.9,1c0.2,0.4,0.3,1,0.3,1.6v5.3
		c0,0.9-0.2,1.6-0.7,2.1c-0.5,0.5-1.2,0.7-2,0.7H158.7z M159.3,138.4h1.2c0.4,0,0.7-0.1,0.9-0.3c0.2-0.2,0.3-0.5,0.3-0.9v-4.8
		c0-0.4-0.1-0.7-0.3-0.9c-0.2-0.2-0.5-0.3-0.8-0.3h-1.3c-0.4,0-0.6,0.1-0.8,0.3c-0.2,0.2-0.3,0.5-0.3,0.9v4.8c0,0.4,0.1,0.7,0.3,0.9
		C158.6,138.3,158.9,138.4,159.3,138.4z"/>
	<path class="st15" d="M150.1,149.2c-0.7,0-1.2-0.2-1.5-0.5s-0.5-0.8-0.5-1.4v-1.8c0-0.6,0.1-1.1,0.4-1.4c0.3-0.3,0.8-0.5,1.6-0.5
		h1.5c0.7,0,1.2,0.2,1.5,0.5c0.3,0.3,0.4,0.8,0.4,1.4v1.8c0,0.6-0.1,1.1-0.4,1.4s-0.8,0.5-1.6,0.5H150.1z M150.3,147.8h1
		c0.3,0,0.6-0.1,0.7-0.2s0.2-0.4,0.2-0.6v-1.1c0-0.3-0.1-0.6-0.2-0.7c-0.1-0.1-0.3-0.2-0.6-0.2h-1c-0.3,0-0.5,0.1-0.6,0.2
		c-0.2,0.1-0.2,0.3-0.2,0.7v1.1c0,0.3,0.1,0.5,0.2,0.6S150,147.8,150.3,147.8z M150.6,154.3l6.6-10.8h1.4l-6.5,10.8H150.6z
		 M157.9,154.3c-0.7,0-1.2-0.2-1.5-0.5c-0.3-0.3-0.4-0.8-0.4-1.4v-1.8c0-0.6,0.1-1.1,0.4-1.4c0.3-0.3,0.8-0.5,1.6-0.5h1.5
		c0.7,0,1.2,0.2,1.5,0.5c0.3,0.3,0.4,0.8,0.4,1.4v1.8c0,0.6-0.1,1.1-0.4,1.4c-0.3,0.3-0.8,0.5-1.6,0.5H157.9z M158.1,152.9h0.9
		c0.3,0,0.6-0.1,0.7-0.2s0.2-0.4,0.2-0.6v-1.1c0-0.3-0.1-0.6-0.2-0.7s-0.4-0.2-0.7-0.2h-0.9c-0.3,0-0.5,0.1-0.6,0.2
		c-0.2,0.1-0.2,0.3-0.2,0.7v1.1c0,0.3,0.1,0.5,0.2,0.6S157.8,152.9,158.1,152.9z"/>
</g>
<g>
	<path class="st15" d="M147,40.4v-1.8l3.6-3.6c0.3-0.3,0.5-0.6,0.7-0.8c0.2-0.2,0.3-0.5,0.4-0.7c0.1-0.2,0.1-0.5,0.1-0.8
		c0-0.3-0.1-0.5-0.2-0.7c-0.1-0.2-0.3-0.3-0.5-0.4s-0.5-0.1-1-0.1h-3.1v-1.7c0.5-0.1,1-0.2,1.6-0.2c0.6-0.1,1.2-0.1,1.9-0.1
		c0.9,0,1.5,0.1,2,0.4c0.5,0.2,0.8,0.6,1,1c0.2,0.4,0.3,1,0.3,1.6c0,0.5-0.1,0.9-0.2,1.3s-0.3,0.8-0.6,1.2c-0.3,0.4-0.6,0.7-1,1.1
		l-2.4,2.4h4.5v2H147z"/>
	<path class="st15" d="M158.7,40.5c-0.6,0-1.1-0.1-1.6-0.3c-0.4-0.2-0.8-0.5-1-1c-0.2-0.4-0.3-0.9-0.3-1.5v-5.3
		c0-0.6,0.1-1.2,0.3-1.6s0.6-0.8,1-1c0.4-0.2,1-0.3,1.5-0.3h2.3c0.6,0,1.1,0.1,1.5,0.3s0.7,0.6,0.9,1c0.2,0.4,0.3,1,0.3,1.6v5.3
		c0,0.9-0.2,1.6-0.7,2.1c-0.5,0.5-1.2,0.7-2,0.7H158.7z M159.2,38.5h1.2c0.4,0,0.7-0.1,0.9-0.3c0.2-0.2,0.3-0.5,0.3-0.9v-4.8
		c0-0.4-0.1-0.7-0.3-0.9c-0.2-0.2-0.5-0.3-0.8-0.3h-1.3c-0.4,0-0.6,0.1-0.8,0.3c-0.2,0.2-0.3,0.5-0.3,0.9v4.8c0,0.4,0.1,0.7,0.3,0.9
		C158.5,38.4,158.8,38.5,159.2,38.5z"/>
	<path class="st15" d="M151.5,48.8c-0.7,0-1.2-0.2-1.5-0.5s-0.5-0.8-0.5-1.4v-1.8c0-0.6,0.1-1.1,0.4-1.4c0.3-0.3,0.8-0.5,1.6-0.5
		h1.5c0.7,0,1.2,0.2,1.5,0.5c0.3,0.3,0.4,0.8,0.4,1.4v1.8c0,0.6-0.1,1.1-0.4,1.4s-0.8,0.5-1.6,0.5H151.5z M151.8,47.4h1
		c0.3,0,0.6-0.1,0.7-0.2s0.2-0.4,0.2-0.6v-1.1c0-0.3-0.1-0.6-0.2-0.7c-0.1-0.1-0.3-0.2-0.6-0.2h-1c-0.3,0-0.5,0.1-0.6,0.2
		c-0.2,0.1-0.2,0.3-0.2,0.7v1.1c0,0.3,0.1,0.5,0.2,0.6S151.5,47.4,151.8,47.4z M152.1,53.9l6.6-10.8h1.4l-6.5,10.8H152.1z
		 M159.3,53.9c-0.7,0-1.2-0.2-1.5-0.5c-0.3-0.3-0.4-0.8-0.4-1.4v-1.8c0-0.6,0.1-1.1,0.4-1.4c0.3-0.3,0.8-0.5,1.6-0.5h1.5
		c0.7,0,1.2,0.2,1.5,0.5c0.3,0.3,0.4,0.8,0.4,1.4v1.8c0,0.6-0.1,1.1-0.4,1.4c-0.3,0.3-0.8,0.5-1.6,0.5H159.3z M159.6,52.5h0.9
		c0.3,0,0.6-0.1,0.7-0.2s0.2-0.4,0.2-0.6v-1.1c0-0.3-0.1-0.6-0.2-0.7s-0.4-0.2-0.7-0.2h-0.9c-0.3,0-0.5,0.1-0.6,0.2
		c-0.2,0.1-0.2,0.3-0.2,0.7v1.1c0,0.3,0.1,0.5,0.2,0.6S159.2,52.5,159.6,52.5z"/>
</g>
<g>
	<path class="st15" d="M150.2,323.6v-8.9l-1.9,0.3v-1.4l2.2-0.9h1.9v11H150.2z"/>
	<path class="st15" d="M156.9,323.7c-0.6,0-1.1-0.1-1.6-0.3c-0.4-0.2-0.8-0.5-1-1c-0.2-0.4-0.3-0.9-0.3-1.5v-5.3
		c0-0.6,0.1-1.2,0.3-1.6s0.6-0.8,1-1c0.4-0.2,1-0.3,1.5-0.3h2.3c0.6,0,1.1,0.1,1.5,0.3s0.7,0.6,0.9,1c0.2,0.4,0.3,1,0.3,1.6v5.3
		c0,0.9-0.2,1.6-0.7,2.1c-0.5,0.5-1.2,0.7-2,0.7H156.9z M157.5,321.7h1.2c0.4,0,0.7-0.1,0.9-0.3c0.2-0.2,0.3-0.5,0.3-0.9v-4.8
		c0-0.4-0.1-0.7-0.3-0.9c-0.2-0.2-0.5-0.3-0.8-0.3h-1.3c-0.4,0-0.6,0.1-0.8,0.3c-0.2,0.2-0.3,0.5-0.3,0.9v4.8c0,0.4,0.1,0.7,0.3,0.9
		C156.8,321.6,157.1,321.7,157.5,321.7z"/>
	<path class="st15" d="M150.8,332c-0.7,0-1.2-0.2-1.5-0.5s-0.5-0.8-0.5-1.4v-1.8c0-0.6,0.1-1.1,0.4-1.4c0.3-0.3,0.8-0.5,1.6-0.5h1.5
		c0.7,0,1.2,0.2,1.5,0.5c0.3,0.3,0.4,0.8,0.4,1.4v1.8c0,0.6-0.1,1.1-0.4,1.4s-0.8,0.5-1.6,0.5H150.8z M151.1,330.6h1
		c0.3,0,0.6-0.1,0.7-0.2s0.2-0.4,0.2-0.6v-1.1c0-0.3-0.1-0.6-0.2-0.7c-0.1-0.1-0.3-0.2-0.6-0.2h-1c-0.3,0-0.5,0.1-0.6,0.2
		c-0.2,0.1-0.2,0.3-0.2,0.7v1.1c0,0.3,0.1,0.5,0.2,0.6S150.7,330.6,151.1,330.6z M151.3,337.1l6.6-10.8h1.4l-6.5,10.8H151.3z
		 M158.6,337.1c-0.7,0-1.2-0.2-1.5-0.5c-0.3-0.3-0.4-0.8-0.4-1.4v-1.8c0-0.6,0.1-1.1,0.4-1.4c0.3-0.3,0.8-0.5,1.6-0.5h1.5
		c0.7,0,1.2,0.2,1.5,0.5c0.3,0.3,0.4,0.8,0.4,1.4v1.8c0,0.6-0.1,1.1-0.4,1.4c-0.3,0.3-0.8,0.5-1.6,0.5H158.6z M158.8,335.7h0.9
		c0.3,0,0.6-0.1,0.7-0.2s0.2-0.4,0.2-0.6v-1.1c0-0.3-0.1-0.6-0.2-0.7s-0.4-0.2-0.7-0.2h-0.9c-0.3,0-0.5,0.1-0.6,0.2
		c-0.2,0.1-0.2,0.3-0.2,0.7v1.1c0,0.3,0.1,0.5,0.2,0.6S158.5,335.7,158.8,335.7z"/>
</g>
<g>
	<path class="st15" d="M147,414v-1.8l3.6-3.6c0.3-0.3,0.5-0.6,0.7-0.8c0.2-0.2,0.3-0.5,0.4-0.7c0.1-0.2,0.1-0.5,0.1-0.8
		c0-0.3-0.1-0.5-0.2-0.7c-0.1-0.2-0.3-0.3-0.5-0.4s-0.5-0.1-1-0.1h-3.1v-1.7c0.5-0.1,1-0.2,1.6-0.2c0.6-0.1,1.2-0.1,1.9-0.1
		c0.9,0,1.5,0.1,2,0.4c0.5,0.2,0.8,0.6,1,1c0.2,0.4,0.3,1,0.3,1.6c0,0.5-0.1,0.9-0.2,1.3s-0.3,0.8-0.6,1.2c-0.3,0.4-0.6,0.7-1,1.1
		l-2.4,2.4h4.5v2H147z"/>
	<path class="st15" d="M158.7,414.1c-0.6,0-1.1-0.1-1.6-0.3c-0.4-0.2-0.8-0.5-1-1c-0.2-0.4-0.3-0.9-0.3-1.5v-5.3
		c0-0.6,0.1-1.2,0.3-1.6s0.6-0.8,1-1c0.4-0.2,1-0.3,1.5-0.3h2.3c0.6,0,1.1,0.1,1.5,0.3s0.7,0.6,0.9,1c0.2,0.4,0.3,1,0.3,1.6v5.3
		c0,0.9-0.2,1.6-0.7,2.1c-0.5,0.5-1.2,0.7-2,0.7H158.7z M159.2,412.1h1.2c0.4,0,0.7-0.1,0.9-0.3c0.2-0.2,0.3-0.5,0.3-0.9v-4.8
		c0-0.4-0.1-0.7-0.3-0.9c-0.2-0.2-0.5-0.3-0.8-0.3h-1.3c-0.4,0-0.6,0.1-0.8,0.3c-0.2,0.2-0.3,0.5-0.3,0.9v4.8c0,0.4,0.1,0.7,0.3,0.9
		C158.5,412,158.8,412.1,159.2,412.1z"/>
	<path class="st15" d="M151,422.8c-0.7,0-1.2-0.2-1.5-0.5s-0.5-0.8-0.5-1.4v-1.8c0-0.6,0.1-1.1,0.4-1.4c0.3-0.3,0.8-0.5,1.6-0.5h1.5
		c0.7,0,1.2,0.2,1.5,0.5c0.3,0.3,0.4,0.8,0.4,1.4v1.8c0,0.6-0.1,1.1-0.4,1.4s-0.8,0.5-1.6,0.5H151z M151.3,421.4h1
		c0.3,0,0.6-0.1,0.7-0.2s0.2-0.4,0.2-0.6v-1.1c0-0.3-0.1-0.6-0.2-0.7c-0.1-0.1-0.3-0.2-0.6-0.2h-1c-0.3,0-0.5,0.1-0.6,0.2
		c-0.2,0.1-0.2,0.3-0.2,0.7v1.1c0,0.3,0.1,0.5,0.2,0.6S151,421.4,151.3,421.4z M151.6,428l6.6-10.8h1.4l-6.5,10.8H151.6z M158.8,428
		c-0.7,0-1.2-0.2-1.5-0.5c-0.3-0.3-0.4-0.8-0.4-1.4v-1.8c0-0.6,0.1-1.1,0.4-1.4c0.3-0.3,0.8-0.5,1.6-0.5h1.5c0.7,0,1.2,0.2,1.5,0.5
		c0.3,0.3,0.4,0.8,0.4,1.4v1.8c0,0.6-0.1,1.1-0.4,1.4c-0.3,0.3-0.8,0.5-1.6,0.5H158.8z M159.1,426.5h0.9c0.3,0,0.6-0.1,0.7-0.2
		s0.2-0.4,0.2-0.6v-1.1c0-0.3-0.1-0.6-0.2-0.7s-0.4-0.2-0.7-0.2h-0.9c-0.3,0-0.5,0.1-0.6,0.2c-0.2,0.1-0.2,0.3-0.2,0.7v1.1
		c0,0.3,0.1,0.5,0.2,0.6S158.7,426.5,159.1,426.5z"/>
</g>
</svg>
