<?xml version="1.0" encoding="utf-8"?>
<!-- Generator: Adobe Illustrator 26.0.1, SVG Export Plug-In . SVG Version: 6.00 Build 0)  -->
<svg version="1.1" id="Layer_1" xmlns="http://www.w3.org/2000/svg" xmlns:xlink="http://www.w3.org/1999/xlink" x="0px" y="0px"
	 viewBox="0 0 396 176.9" style="enable-background:new 0 0 396 176.9;" xml:space="preserve">
<style type="text/css">
	.st0{fill:#E6E7E8;}
	.st1{fill:#FB44D5;}
	.st2{fill:#CC00A6;}
	.st3{fill:none;stroke:#FFE4F9;stroke-width:2.3423;stroke-linecap:round;stroke-linejoin:round;stroke-miterlimit:10;}
	.st4{fill:none;stroke:#6D6E71;stroke-width:2.3423;stroke-linecap:round;stroke-linejoin:round;stroke-miterlimit:10;}
	.st5{fill:#FBD140;}
	.st6{fill:#FBAE40;}
	.st7{opacity:0.4;fill:#FBAE40;enable-background:new    ;}
	.st8{opacity:0.5;fill:#FBD140;enable-background:new    ;}
	.st9{fill:none;stroke:#E77000;stroke-width:2.3423;stroke-linecap:round;stroke-linejoin:round;stroke-miterlimit:10;}
	.st10{fill:#27AAE1;}
	.st11{fill:#1C75BC;}
	.st12{opacity:0.4;fill:#27AAE1;}
	.st13{opacity:0.5;fill:#27AAE1;}
	.st14{fill:none;stroke:#2B3990;stroke-width:2.3423;stroke-linecap:round;stroke-linejoin:round;stroke-miterlimit:10;}
	.st15{fill:#8DC63F;}
	.st16{fill:#39B54A;}
	.st17{opacity:0.4;fill:#39B54A;enable-background:new    ;}
	.st18{opacity:0.5;fill:#39B54A;enable-background:new    ;}
	.st19{fill:none;stroke:#006838;stroke-width:2.3423;stroke-linecap:round;stroke-linejoin:round;stroke-miterlimit:10;}
	.st20{fill:#FFFFFF;}
	.st21{fill:#DA1C5C;}
	.st22{fill:#AE1C42;}
	.st23{opacity:0.4;fill:#DA1C5C;enable-background:new    ;}
	.st24{fill:none;stroke:#981C1E;stroke-width:2.3423;stroke-linecap:round;stroke-linejoin:round;stroke-miterlimit:10;}
</style>
<g>
	<g>
		<path class="st0" d="M25.7,48.4c-5.6,0-10.1,4.6-10.1,10.1V116c0,5.6,4.6,10.1,10.1,10.1H33l5.5,11.1l5.5-11.1h10.9v-6.2V54.4
			v-6.2H25.7V48.4z"/>
		<path class="st0" d="M25.7,48.4c-5.6,0-10.1,4.6-10.1,10.1V116c0,5.6,4.6,10.1,10.1,10.1H33l5.5,11.1l5.5-11.1h10.9v-6.2V54.4
			v-6.2H25.7V48.4z"/>
		<path class="st1" d="M16.4,119.6c1.5,3.7,5.2,6.4,9.4,6.4H33l5.5,11.1l5.5-11.1h10.9v-6.2v-0.2H16.4z"/>
		<path class="st1" d="M221.8,119.6c1.5,3.7,5.2,6.4,9.4,6.4h7.3l5.5,11.1l5.5-11.1h10.9v-6.2v-0.2H221.8z"/>
		<path class="st1" d="M299,55.4c-1.5-3.7-5.2-6.4-9.4-6.4h-7.3l-5.5-11.1L271.3,49h-10.9v6.2v0.2H299z"/>
		<path class="st1" d="M331.9,119.6c1.5,3.7,5.2,6.4,9.4,6.4h7.3l5.5,11.1l5.5-11.1h10.9v-6.2v-0.2H331.9z"/>
		<g>
			<path class="st1" d="M370.9,49.5L22.5,48.2c-3.4,0-6.2,2.7-6.2,6.1l0,0v65.4v0.1c0,3.4,2.7,6.1,6.1,6.1l348.6,1.3
				c5.6,0,10.1-4.6,10.1-10.1V59.6C381,54,376.5,49.5,370.9,49.5z"/>
			<path class="st2" d="M381,116v-56l-18.4,66h8.2C376.5,126.1,381,121.5,381,116z"/>
			<path class="st3" d="M54.8,48.4h-29c-5.6,0-10.1,4.6-10.1,10.1V116c0,5.6,4.6,10.1,10.1,10.1H33l5.5,11.1l5.5-11.1h10.9"/>
			<polyline class="st3" points="238.2,126.1 243.7,137.2 249.2,126.1 260,126.1 			"/>
			<polyline class="st3" points="282.2,48.4 276.7,37.2 271.2,48.4 260.4,48.4 			"/>
			<polyline class="st3" points="349.3,126.1 354.8,137.2 360.3,126.1 371.1,126.1 			"/>
			<path class="st3" d="M271.2,48.4H54.8"/>
			<path class="st3" d="M271.2,48.4"/>
			<path class="st3" d="M360.3,126.1h10.6c5.6,0,10.1-4.6,10.1-10.1V58.4c0-5.6-4.6-10.1-10.1-10.1h-88.7"/>
			<path class="st3" d="M360.3,126.1"/>
			<path class="st3" d="M349.3,126.1"/>
			<path class="st3" d="M261.6,126.1h87.7"/>
			<path class="st4" d="M261.6,126.1"/>
			<path class="st4" d="M250.6,126.1"/>
			<polyline class="st3" points="249.2,126.1 250.6,126.1 261.6,126.1 			"/>
			<path class="st4" d="M249.2,126.1"/>
			<path class="st4" d="M238.2,126.1"/>
			<line class="st3" x1="54.8" y1="126.1" x2="238.2" y2="126.1"/>
		</g>
	</g>
	<g>
		<g>
			<path class="st5" d="M294.6,115.4c0,2.7-2.2,4.9-4.9,4.9h-94.4c-2.7,0-4.9-2.2-4.9-4.9V94.8c0-2.7,2.2-4.9,4.9-4.9h94.4
				c2.7,0,4.9,2.2,4.9,4.9V115.4z"/>
			<path class="st6" d="M190.4,107.3v8.1c0,2.7,2.2,4.9,4.9,4.9h94.4c2.7,0,4.9-2.2,4.9-4.9v-8.1H190.4z"/>
			<path class="st7" d="M289.7,90h-54.1l-13.4,30.3h67.5c2.7,0,4.9-2.2,4.9-4.9V94.8C294.6,92.1,292.4,90,289.7,90z"/>
			<path class="st8" d="M213,90h-17.7c-2.7,0-4.9,2.2-4.9,4.9v20.6c0,2.7,2.2,4.9,4.9,4.9h3.9L213,90z"/>
			<path class="st9" d="M294.6,115.4c0,2.7-2.2,4.9-4.9,4.9h-94.4c-2.7,0-4.9-2.2-4.9-4.9V94.8c0-2.7,2.2-4.9,4.9-4.9h94.4
				c2.7,0,4.9,2.2,4.9,4.9V115.4z"/>
		</g>
	</g>
	<g>
		<g>
			<path class="st10" d="M374,115.4c0,2.7-2.2,4.9-4.9,4.9h-65.5c-2.7,0-4.9-2.2-4.9-4.9V94.8c0-2.7,2.2-4.9,4.9-4.9h65.5
				c2.7,0,4.9,2.2,4.9,4.9V115.4z"/>
			<path class="st11" d="M298.7,107.3v8.1c0,2.7,2.2,4.9,4.9,4.9h65.5c2.7,0,4.9-2.2,4.9-4.9v-8.1H298.7z"/>
			<path class="st12" d="M369.1,90h-25.2l-13.4,30.3h38.6c2.7,0,4.9-2.2,4.9-4.9V94.8C374,92.1,371.8,90,369.1,90z"/>
			<path class="st13" d="M321.3,90h-17.7c-2.7,0-4.9,2.2-4.9,4.9v20.6c0,2.7,2.2,4.9,4.9,4.9h3.9L321.3,90z"/>
			<path class="st14" d="M374,115.4c0,2.7-2.2,4.9-4.9,4.9h-65.5c-2.7,0-4.9-2.2-4.9-4.9V94.8c0-2.7,2.2-4.9,4.9-4.9h65.5
				c2.7,0,4.9,2.2,4.9,4.9V115.4z"/>
		</g>
	</g>
	<g>
		<g>
			<path class="st15" d="M185.5,115.3c0,2.7-2.2,4.9-4.9,4.9H26.2c-2.7,0-4.9-2.2-4.9-4.9V94.7c0-2.7,2.2-4.9,4.9-4.9h154.4
				c2.7,0,4.9,2.2,4.9,4.9V115.3z"/>
			<path class="st16" d="M21.3,107.2v8.1c0,2.7,2.2,4.9,4.9,4.9h154.4c2.7,0,4.9-2.2,4.9-4.9v-8.1H21.3z"/>
			<path class="st17" d="M180.6,89.8H96.9l-13.4,30.3h97c2.7,0,4.9-2.2,4.9-4.9V94.7C185.5,92,183.3,89.8,180.6,89.8z"/>
			<path class="st18" d="M52.3,89.8H26.2c-2.7,0-4.9,2.2-4.9,4.9v20.6c0,2.7,2.2,4.9,4.9,4.9h12.3L52.3,89.8z"/>
			<path class="st19" d="M185.5,115.3c0,2.7-2.2,4.9-4.9,4.9H26.2c-2.7,0-4.9-2.2-4.9-4.9V94.7c0-2.7,2.2-4.9,4.9-4.9h154.4
				c2.7,0,4.9,2.2,4.9,4.9V115.3z"/>
		</g>
	</g>
	<g>
		<path class="st20" d="M20.8,159.8l3.6-11.6h2.9l3.6,11.6h-2.5l-0.7-2.5h-4l-0.7,2.5H20.8z M24.6,155.2h2.8l-1.4-5L24.6,155.2z"/>
		<path class="st20" d="M32.3,159.8v-11.6h2.3v11.6H32.3z"/>
		<path class="st20" d="M36.5,159.8v-8.4h1.8l0.6,1.3c0.4-0.4,0.7-0.7,1.1-0.9c0.4-0.2,0.8-0.4,1.4-0.4c0.1,0,0.2,0,0.4,0
			s0.2,0,0.4,0.1v2.3c-0.1,0-0.4,0-0.5,0c-0.1,0-0.4,0-0.5,0c-0.4,0-0.6,0-0.8,0.1c-0.2,0.1-0.5,0.1-0.7,0.4
			c-0.2,0.1-0.4,0.4-0.6,0.5v5.3h-2.5V159.8z"/>
		<path class="st20" d="M45.9,159.8c-0.7,0-1.2-0.1-1.6-0.5c-0.5-0.2-0.8-0.7-1.1-1.3s-0.4-1.4-0.4-2.5c0-1.1,0.1-1.9,0.2-2.6
			c0.2-0.7,0.5-1.2,0.9-1.4c0.5-0.2,1.1-0.5,1.9-0.5c0.4,0,0.8,0,1.2,0.1c0.4,0.1,0.7,0.1,1.1,0.2v-3.7h2.3v11.9h-2l-0.4-0.8
			c-0.2,0.1-0.4,0.4-0.7,0.5c-0.2,0.1-0.5,0.2-0.8,0.4C46.5,159.8,46.2,159.8,45.9,159.8z M46.7,158.1c0.4,0,0.6,0,0.8-0.1
			c0.2-0.1,0.5-0.2,0.6-0.4v-4.2c-0.2-0.1-0.5-0.1-0.7-0.2c-0.2-0.1-0.5-0.1-0.7-0.1c-0.4,0-0.7,0.1-0.9,0.2
			c-0.2,0.1-0.4,0.4-0.5,0.7c-0.1,0.4-0.1,0.9-0.1,1.6c0,0.7,0,1.2,0.1,1.5s0.2,0.6,0.5,0.7C46.1,157.9,46.3,158.1,46.7,158.1z"/>
		<path class="st20" d="M52.3,159.8v-8.4h1.8l0.6,1.3c0.4-0.4,0.7-0.7,1.1-0.9c0.4-0.2,0.8-0.4,1.4-0.4c0.1,0,0.2,0,0.4,0
			s0.2,0,0.4,0.1v2.3c-0.1,0-0.4,0-0.5,0c-0.1,0-0.4,0-0.5,0c-0.4,0-0.6,0-0.8,0.1c-0.2,0.1-0.5,0.1-0.7,0.4
			c-0.2,0.1-0.4,0.4-0.6,0.5v5.3h-2.5V159.8z"/>
		<path class="st20" d="M62.5,159.8c-0.7,0-1.3-0.1-1.8-0.2s-0.9-0.4-1.2-0.7c-0.4-0.4-0.6-0.8-0.7-1.3c-0.1-0.6-0.2-1.3-0.2-2.1
			c0-0.8,0.1-1.5,0.2-2.1c0.1-0.6,0.4-1.1,0.7-1.3c0.4-0.4,0.7-0.6,1.2-0.7c0.5-0.1,1.1-0.2,1.8-0.2s1.3,0.1,1.8,0.2
			c0.5,0.1,0.9,0.4,1.2,0.7c0.4,0.4,0.6,0.7,0.7,1.3s0.2,1.3,0.2,2.1s-0.1,1.5-0.2,2.1s-0.4,1.1-0.7,1.3c-0.4,0.4-0.7,0.6-1.2,0.7
			C63.8,159.8,63.2,159.8,62.5,159.8z M62.5,158.1c0.2,0,0.5,0,0.7-0.1c0.2,0,0.4-0.1,0.5-0.4c0.1-0.1,0.2-0.4,0.2-0.7
			c0.1-0.4,0.1-0.8,0.1-1.3c0-0.6,0-0.9-0.1-1.3s-0.1-0.6-0.2-0.7s-0.2-0.2-0.5-0.4c-0.2,0-0.5-0.1-0.7-0.1s-0.5,0-0.7,0.1
			c-0.2,0-0.4,0.1-0.5,0.4c-0.1,0.1-0.2,0.4-0.2,0.7c0,0.4-0.1,0.8-0.1,1.3c0,0.6,0,0.9,0.1,1.3c0,0.4,0.1,0.6,0.2,0.7
			c0.1,0.1,0.2,0.2,0.5,0.4C62,157.9,62.3,158.1,62.5,158.1z"/>
		<path class="st20" d="M67.9,163.4v-12.1h2l0.4,0.8c0.2-0.1,0.5-0.4,0.7-0.5c0.2-0.1,0.5-0.2,0.8-0.4c0.2-0.1,0.6-0.1,0.9-0.1
			c0.5,0,0.9,0.1,1.3,0.4c0.4,0.2,0.7,0.5,0.9,0.8c0.2,0.4,0.5,0.8,0.6,1.4c0.1,0.6,0.1,1.2,0.1,1.8c0,0.9-0.1,1.6-0.2,2.3
			c-0.2,0.7-0.5,1.2-0.9,1.5c-0.5,0.4-1.1,0.5-1.8,0.5c-0.4,0-0.8,0-1.2-0.1c-0.5-0.1-0.8-0.2-1.2-0.4v4
			C70.4,163.4,67.9,163.4,67.9,163.4z M71.9,157.9c0.2,0,0.5-0.1,0.7-0.2s0.4-0.4,0.5-0.7c0.1-0.4,0.2-0.8,0.2-1.5
			c0-0.6-0.1-1.2-0.2-1.5c-0.1-0.4-0.2-0.6-0.5-0.8c-0.2-0.1-0.5-0.2-0.7-0.2c-0.4,0-0.6,0-0.9,0.1c-0.2,0.1-0.5,0.2-0.7,0.4v4.2
			c0.2,0.1,0.5,0.2,0.7,0.4C71.3,157.9,71.5,157.9,71.9,157.9z"/>
		<path class="st20" d="M80.2,159.8c-0.2,0-0.6,0-0.8,0c-0.4,0-0.6,0-0.9-0.1c-0.4-0.1-0.6-0.1-0.8-0.1c-0.2,0-0.5-0.1-0.7-0.1v-1.4
			h3.7c0.2,0,0.4,0,0.6,0c0.1,0,0.2-0.1,0.4-0.2s0.1-0.2,0.1-0.5v-0.2c0-0.2-0.1-0.4-0.2-0.5c-0.1-0.1-0.4-0.1-0.7-0.1h-1.3
			c-0.5,0-0.9-0.1-1.3-0.2c-0.4-0.1-0.7-0.4-0.9-0.7c-0.2-0.4-0.4-0.8-0.4-1.4v-0.5c0-0.6,0.1-0.9,0.4-1.4c0.2-0.4,0.6-0.6,1.1-0.8
			c0.5-0.2,1.2-0.2,2-0.2c0.4,0,0.7,0,1.1,0c0.4,0,0.8,0.1,1.1,0.1c0.4,0,0.6,0.1,0.8,0.2v1.4h-3.5c-0.4,0-0.6,0-0.7,0.1
			c-0.1,0.1-0.2,0.2-0.2,0.6v0.2c0,0.2,0,0.4,0.1,0.5c0.1,0.1,0.2,0.1,0.4,0.2c0.1,0.1,0.4,0,0.6,0h1.3c0.8,0,1.5,0.2,1.9,0.6
			c0.4,0.4,0.6,0.9,0.6,1.6v0.7c0,0.6-0.1,1.1-0.4,1.3c-0.2,0.4-0.7,0.6-1.2,0.7C81.5,159.8,80.9,159.8,80.2,159.8z"/>
		<path class="st20" d="M84.1,160.9l4.5-13.2h2.3l-4.5,13.2H84.1z"/>
		<path class="st20" d="M95.3,159.8c-0.7,0-1.3-0.1-1.8-0.5c-0.5-0.4-0.8-0.7-1.1-1.2s-0.5-1.2-0.6-1.9c-0.1-0.7-0.1-1.5-0.1-2.5
			c0-0.9,0.1-1.8,0.2-2.5c0.1-0.7,0.4-1.4,0.6-1.9c0.4-0.5,0.7-0.9,1.3-1.2c0.6-0.2,1.3-0.4,2.1-0.4c0.6,0,1.1,0,1.5,0.1
			c0.5,0,0.8,0.1,1.3,0.2c0.4,0.1,0.8,0.1,1.2,0.2v1.8c-0.2,0-0.5-0.1-0.8-0.1c-0.4,0-0.8-0.1-1.2-0.1c-0.5,0-0.9,0-1.4,0
			c-0.7,0-1.2,0.1-1.5,0.4c-0.4,0.2-0.6,0.6-0.7,1.2c-0.1,0.6-0.2,1.3-0.2,2.3c0,0.7,0,1.4,0.1,1.9c0.1,0.5,0.2,0.8,0.4,1.2
			c0.1,0.2,0.4,0.5,0.6,0.6s0.6,0.1,0.9,0.1c0.5,0,0.8,0,1.2-0.1s0.7-0.1,0.9-0.2v-2.2h-2.1v-1.9c0.2,0,0.5,0,0.8-0.1
			c0.4,0,0.6,0,0.9,0s0.7,0,0.9,0c0.4,0,0.6,0,0.9,0c0.2,0,0.5,0,0.7,0v6.6h-1.8l-0.4-0.8c-0.4,0.2-0.7,0.4-1.3,0.6
			C96.6,159.7,96,159.8,95.3,159.8z"/>
		<path class="st20" d="M102.7,150.1c-0.2,0-0.4-0.1-0.4-0.4v-1.5c0-0.2,0.1-0.4,0.4-0.4h1.8c0.1,0,0.1,0,0.2,0.1
			c0,0.1,0.1,0.1,0.1,0.2v1.5c0,0.2-0.1,0.4-0.4,0.4C104.4,150.1,102.7,150.1,102.7,150.1z M102.3,159.8v-8.4h2.3v8.4H102.3z"/>
		<path class="st20" d="M108.5,159.8l-2.8-8.4h2.3l1.9,6.2l1.9-6.2h2.3l-2.9,8.4H108.5z"/>
		<path class="st20" d="M118.5,159.8c-0.9,0-1.6-0.1-2.2-0.4c-0.6-0.2-0.9-0.7-1.2-1.3c-0.2-0.6-0.4-1.5-0.4-2.6
			c0-1.2,0.1-2,0.4-2.7c0.2-0.6,0.6-1.1,1.2-1.3c0.6-0.2,1.3-0.4,2.2-0.4c0.8,0,1.5,0.1,2,0.2s0.8,0.5,1.1,0.8
			c0.2,0.5,0.4,1.1,0.4,1.8c0,0.6-0.1,1.1-0.4,1.3c-0.2,0.4-0.6,0.6-0.9,0.7s-0.9,0.2-1.4,0.2h-2.1c0,0.5,0.1,0.8,0.2,1.1
			c0.1,0.2,0.4,0.5,0.6,0.6c0.4,0.1,0.7,0.1,1.3,0.1h2.5v1.4c-0.4,0.1-0.8,0.1-1.3,0.2C119.8,159.8,119.2,159.8,118.5,159.8z
			 M117,155h1.9c0.4,0,0.6-0.1,0.7-0.2s0.2-0.4,0.2-0.7c0-0.4,0-0.6-0.1-0.7c-0.1-0.2-0.2-0.4-0.5-0.4c-0.2-0.1-0.5-0.1-0.8-0.1
			s-0.6,0.1-0.8,0.2c-0.2,0.1-0.4,0.4-0.5,0.6C117.1,154.1,117,154.4,117,155z"/>
		<path class="st20" d="M125.2,159.8c-0.6,0-1.2-0.2-1.5-0.6c-0.4-0.4-0.6-0.9-0.6-1.5V157c0-0.6,0.2-1.2,0.7-1.5
			c0.5-0.5,1.2-0.6,2.1-0.6h2.1v-0.6c0-0.2,0-0.5-0.1-0.7c-0.1-0.1-0.2-0.4-0.5-0.4c-0.2-0.1-0.7-0.1-1.2-0.1h-2.6v-1.4
			c0.4-0.1,0.9-0.2,1.4-0.4c0.6-0.1,1.2-0.1,2-0.1c0.7,0,1.3,0.1,1.8,0.2s0.8,0.5,1.2,0.8c0.2,0.4,0.4,0.9,0.4,1.6v5.7h-1.9
			l-0.4-0.9c-0.1,0.1-0.2,0.2-0.4,0.2c-0.2,0.1-0.4,0.2-0.7,0.4c-0.2,0.1-0.6,0.2-0.8,0.2C125.9,159.8,125.5,159.8,125.2,159.8z
			 M126.3,158.3c0.1,0,0.2,0,0.4,0c0.1,0,0.2,0,0.4-0.1c0.1,0,0.2-0.1,0.4-0.1s0.2-0.1,0.4-0.1s0.1,0,0.1-0.1v-2l-1.4,0.1
			c-0.4,0-0.7,0.1-0.9,0.4c-0.2,0.2-0.2,0.5-0.2,0.7v0.4c0,0.2,0,0.4,0.1,0.5c0.1,0.1,0.2,0.2,0.4,0.2
			C126,158.2,126.1,158.3,126.3,158.3z"/>
		<path class="st20" d="M133.5,159.8l-2.2-8.4h2.3l1.3,6.2l1.6-6.2h1.9l1.6,6.2l1.2-6.2h2.3l-2.2,8.4h-2.6l-1.5-5.2l-1.5,5.2H133.5z
			"/>
		<path class="st20" d="M146.4,159.8c-0.6,0-1.2-0.2-1.5-0.6c-0.4-0.4-0.6-0.9-0.6-1.5V157c0-0.6,0.2-1.2,0.7-1.5
			c0.5-0.5,1.2-0.6,2.1-0.6h2.1v-0.6c0-0.2,0-0.5-0.1-0.7c-0.1-0.1-0.2-0.4-0.5-0.4c-0.2-0.1-0.7-0.1-1.2-0.1h-2.6v-1.4
			c0.4-0.1,0.9-0.2,1.4-0.4c0.6-0.1,1.2-0.1,2-0.1c0.7,0,1.3,0.1,1.8,0.2s0.8,0.5,1.2,0.8c0.2,0.4,0.4,0.9,0.4,1.6v5.7h-1.9
			l-0.4-0.9c-0.1,0.1-0.2,0.2-0.4,0.2c-0.2,0.1-0.4,0.2-0.7,0.4c-0.2,0.1-0.6,0.2-0.8,0.2C147.1,159.8,146.7,159.8,146.4,159.8z
			 M147.5,158.3c0.1,0,0.2,0,0.4,0s0.2,0,0.4-0.1c0.1,0,0.2-0.1,0.4-0.1s0.2-0.1,0.4-0.1s0.1,0,0.1-0.1v-2l-1.4,0.1
			c-0.4,0-0.7,0.1-0.9,0.4s-0.2,0.5-0.2,0.7v0.4c0,0.2,0,0.4,0.1,0.5c0.1,0.1,0.2,0.2,0.4,0.2C147.2,158.2,147.4,158.3,147.5,158.3z
			"/>
		<path class="st20" d="M155.9,163.4l0.9-3.7c-0.5,0-0.9-0.1-1.3-0.2c-0.4-0.2-0.7-0.5-0.9-0.7c-0.2-0.4-0.5-0.7-0.6-1.2l-1.6-6.2
			h2.5l1.3,5.7c0,0.2,0.1,0.4,0.2,0.5c0.1,0.1,0.1,0.2,0.2,0.2c0.1,0,0.2,0.1,0.2,0.1c0.1,0,0.1,0,0.2,0l1.5-6.6h2.3l-2.5,10.5
			l-0.7,1.5C157.7,163.4,155.9,163.4,155.9,163.4z"/>
		<path class="st20" d="M165.2,159.8c-0.2,0-0.6,0-0.8,0c-0.4,0-0.6,0-0.9-0.1c-0.4-0.1-0.6-0.1-0.8-0.1c-0.2,0-0.5-0.1-0.7-0.1
			v-1.4h3.7c0.2,0,0.4,0,0.6,0c0.1,0,0.2-0.1,0.4-0.2s0.1-0.2,0.1-0.5v-0.2c0-0.2-0.1-0.4-0.2-0.5c-0.1-0.1-0.4-0.1-0.7-0.1h-1.3
			c-0.5,0-0.9-0.1-1.3-0.2c-0.4-0.1-0.7-0.4-0.9-0.7c-0.2-0.4-0.4-0.8-0.4-1.4v-0.5c0-0.6,0.1-0.9,0.4-1.4c0.2-0.4,0.6-0.6,1.1-0.8
			c0.5-0.2,1.2-0.2,2-0.2c0.4,0,0.7,0,1.1,0c0.4,0,0.8,0.1,1.1,0.1c0.4,0,0.6,0.1,0.8,0.2v1.4h-3.5c-0.4,0-0.6,0-0.7,0.1
			c-0.1,0.1-0.2,0.2-0.2,0.6v0.2c0,0.2,0,0.4,0.1,0.5c0.1,0.1,0.2,0.1,0.4,0.2c0.1,0.1,0.4,0,0.6,0h1.3c0.8,0,1.5,0.2,1.9,0.6
			c0.4,0.4,0.6,0.9,0.6,1.6v0.7c0,0.6-0.1,1.1-0.4,1.3c-0.2,0.4-0.7,0.6-1.2,0.7C166.5,159.8,165.9,159.8,165.2,159.8z"/>
	</g>
	<g>
		<path class="st20" d="M196.6,24.1V12.5h2.3v11.6H196.6z"/>
		<path class="st20" d="M200.8,24.1v-8.4h1.9l0.4,0.8c0.4-0.2,0.7-0.5,1.2-0.7c0.5-0.2,0.9-0.4,1.4-0.4c0.7,0,1.2,0.1,1.6,0.4
			c0.4,0.2,0.6,0.6,0.8,1.1c0.1,0.5,0.2,0.9,0.2,1.5v5.5H206v-5.3c0-0.2,0-0.5-0.1-0.7c-0.1-0.2-0.2-0.4-0.5-0.4
			c-0.2-0.1-0.4-0.1-0.6-0.1c-0.2,0-0.5,0-0.6,0.1c-0.1,0.1-0.4,0.1-0.6,0.2c-0.2,0.1-0.4,0.2-0.5,0.4v5.9L200.8,24.1L200.8,24.1z"
			/>
		<path class="st20" d="M210.4,14.3c-0.2,0-0.4-0.1-0.4-0.4v-1.5c0-0.2,0.1-0.4,0.4-0.4h1.8c0.1,0,0.1,0,0.2,0.1
			c0,0.1,0.1,0.1,0.1,0.2V14c0,0.2-0.1,0.4-0.4,0.4C212.2,14.3,210.4,14.3,210.4,14.3z M210,24.1v-8.4h2.3v8.4H210z"/>
		<path class="st20" d="M217.3,24.1c-0.7,0-1.2-0.1-1.5-0.2c-0.4-0.2-0.7-0.5-0.8-0.9c-0.2-0.5-0.2-1.1-0.2-1.8l0.1-3.5h-1.3V16
			l1.4-0.4l0.4-2.3h1.9v2.3h2v1.9h-2V21c0,0.2,0,0.5,0.1,0.6c0,0.1,0.1,0.2,0.2,0.4c0.1,0.1,0.1,0.1,0.2,0.2c0.1,0,0.2,0.1,0.4,0.1
			l1.1,0.1v1.8L217.3,24.1L217.3,24.1z"/>
		<path class="st20" d="M220.6,14.3c-0.2,0-0.4-0.1-0.4-0.4v-1.5c0-0.2,0.1-0.4,0.4-0.4h1.8c0.1,0,0.1,0,0.2,0.1
			c0,0.1,0.1,0.1,0.1,0.2V14c0,0.2-0.1,0.4-0.4,0.4C222.3,14.3,220.6,14.3,220.6,14.3z M220.2,24.1v-8.4h2.3v8.4H220.2z"/>
		<path class="st20" d="M226.1,24.1c-0.6,0-1.2-0.2-1.5-0.6c-0.4-0.4-0.6-0.9-0.6-1.5v-0.7c0-0.6,0.2-1.2,0.7-1.5
			c0.5-0.5,1.2-0.6,2.1-0.6h2.1v-0.6c0-0.2,0-0.5-0.1-0.7c-0.1-0.1-0.2-0.4-0.5-0.4c-0.2-0.1-0.6-0.1-1.2-0.1h-2.6V16
			c0.4-0.1,0.9-0.2,1.4-0.4s1.2-0.1,2-0.1c0.7,0,1.3,0.1,1.8,0.2c0.5,0.1,0.8,0.5,1.2,0.8c0.2,0.4,0.4,0.9,0.4,1.6v5.7h-1.9L229,23
			c-0.1,0.1-0.2,0.2-0.4,0.2c-0.2,0.1-0.4,0.2-0.7,0.4c-0.4,0.1-0.6,0.2-0.8,0.2C226.8,24.1,226.4,24.1,226.1,24.1z M227.4,22.5
			c0.1,0,0.2,0,0.4,0s0.2,0,0.4-0.1c0.1-0.1,0.2-0.1,0.4-0.1s0.2-0.1,0.4-0.1s0.1,0,0.1-0.1v-2l-1.4,0.1c-0.4,0-0.7,0.1-0.9,0.4
			c-0.2,0.2-0.2,0.5-0.2,0.7v0.4c0,0.2,0,0.4,0.1,0.5s0.2,0.2,0.4,0.2C226.9,22.4,227.1,22.5,227.4,22.5z"/>
		<path class="st20" d="M235.6,24.1c-0.6,0-1.1-0.1-1.5-0.2c-0.5-0.1-0.7-0.5-0.8-0.9c-0.2-0.4-0.2-0.9-0.2-1.5v-9.3h2.3V21
			c0,0.4,0,0.6,0.1,0.7c0.1,0.2,0.1,0.4,0.2,0.4c0.1,0.1,0.4,0.1,0.5,0.1l0.6,0.1v1.6h-1.2V24.1z"/>
		<path class="st20" d="M244.5,24.1v-9.5h-3.2v-2.1h8.7v2.1h-3.2v9.5H244.5z"/>
		<path class="st20" d="M254,24.1c-0.7,0-1.3-0.1-1.8-0.2c-0.5-0.1-0.9-0.4-1.2-0.7c-0.4-0.4-0.6-0.8-0.7-1.3
			c-0.1-0.6-0.2-1.3-0.2-2.1c0-0.8,0.1-1.5,0.2-2.1c0.1-0.6,0.4-1.1,0.7-1.3c0.4-0.4,0.7-0.6,1.2-0.7c0.5-0.1,1.1-0.2,1.8-0.2
			c0.7,0,1.3,0.1,1.8,0.2c0.5,0.1,0.9,0.4,1.2,0.7c0.4,0.4,0.6,0.7,0.7,1.3c0.1,0.6,0.2,1.3,0.2,2.1c0,0.8-0.1,1.5-0.2,2.1
			c-0.1,0.6-0.4,1.1-0.7,1.3c-0.4,0.2-0.7,0.6-1.2,0.7C255.3,24.1,254.7,24.1,254,24.1z M254,22.3c0.2,0,0.5,0,0.7-0.1
			c0.2,0,0.4-0.1,0.5-0.4c0.1-0.1,0.2-0.4,0.2-0.7c0.1-0.4,0.1-0.8,0.1-1.3c0-0.6,0-0.9-0.1-1.3c-0.1-0.4-0.1-0.6-0.2-0.7
			c-0.1-0.1-0.2-0.2-0.5-0.4c-0.2,0-0.5-0.1-0.7-0.1c-0.2,0-0.5,0-0.7,0.1c-0.2,0-0.4,0.1-0.5,0.4c-0.1,0.1-0.2,0.4-0.2,0.7
			c0,0.4-0.1,0.8-0.1,1.3c0,0.6,0,0.9,0.1,1.3s0.1,0.6,0.2,0.7c0.1,0.1,0.2,0.2,0.5,0.4C253.4,22.2,253.6,22.3,254,22.3z"/>
		<path class="st20" d="M259.4,24.1V12.1h2.3v6.4h0.9l1.9-2.9h2.3l-2.5,4l2.7,4.5h-2.3l-2.1-3.4h-0.9v3.4H259.4z"/>
		<path class="st20" d="M271.5,24.1c-0.9,0-1.6-0.1-2.2-0.4c-0.6-0.2-0.9-0.7-1.2-1.3c-0.2-0.6-0.4-1.5-0.4-2.6c0-1.2,0.1-2,0.4-2.7
			c0.2-0.6,0.6-1.1,1.2-1.3c0.6-0.2,1.3-0.4,2.2-0.4c0.8,0,1.5,0.1,2,0.2c0.5,0.1,0.8,0.5,1.1,0.8c0.2,0.5,0.4,1.1,0.4,1.8
			c0,0.6-0.1,1.1-0.4,1.3c-0.2,0.4-0.6,0.6-0.9,0.7c-0.4,0.1-0.9,0.2-1.4,0.2H270c0,0.5,0.1,0.8,0.2,1.1c0.1,0.2,0.4,0.5,0.6,0.6
			c0.4,0.1,0.7,0.1,1.3,0.1h2.5v1.4c-0.4,0.1-0.8,0.1-1.3,0.2C272.8,24.1,272.2,24.1,271.5,24.1z M270,19.3h1.9
			c0.4,0,0.6-0.1,0.7-0.2s0.2-0.4,0.2-0.7c0-0.4,0-0.6-0.1-0.7c-0.1-0.2-0.2-0.4-0.5-0.4c-0.2-0.1-0.5-0.1-0.8-0.1
			c-0.4,0-0.6,0.1-0.8,0.2c-0.2,0.1-0.4,0.4-0.5,0.6C270.1,18.3,270,18.7,270,19.3z"/>
		<path class="st20" d="M276.5,24.1v-8.4h1.9l0.4,0.8c0.4-0.2,0.7-0.5,1.2-0.7c0.5-0.2,0.9-0.4,1.4-0.4c0.7,0,1.2,0.1,1.6,0.4
			c0.4,0.2,0.6,0.6,0.8,1.1c0.1,0.5,0.2,0.9,0.2,1.5v5.5h-2.3v-5.3c0-0.2,0-0.5-0.1-0.7c-0.1-0.2-0.2-0.4-0.5-0.4
			c-0.2-0.1-0.4-0.1-0.6-0.1s-0.5,0-0.6,0.1c-0.1,0.1-0.4,0.1-0.6,0.2s-0.4,0.2-0.5,0.4v5.9L276.5,24.1L276.5,24.1z"/>
		<path class="st20" d="M293.4,24.1c-0.4,0-0.6,0-0.9,0c-0.4,0-0.6,0-0.9-0.1c-0.4,0-0.6-0.1-0.9-0.1c-0.2,0-0.6-0.1-0.8-0.1v-1.9
			c0.4,0,0.7,0,1.1,0.1c0.4,0,0.8,0,1.3,0c0.5,0,0.8,0,1.2,0s0.7,0,1.1-0.1c0.4-0.1,0.5-0.2,0.7-0.4c0.2-0.1,0.2-0.4,0.2-0.7v-0.5
			c0-0.4-0.1-0.6-0.4-0.8c-0.2-0.2-0.5-0.2-0.8-0.2h-0.9c-1.1,0-2-0.2-2.6-0.7c-0.6-0.5-0.9-1.3-0.9-2.5v-0.6c0-1.2,0.4-2,0.9-2.5
			c0.7-0.5,1.5-0.8,2.8-0.8c0.5,0,0.8,0,1.3,0.1c0.5,0,0.8,0.1,1.2,0.1s0.7,0.1,1.1,0.2v1.9c-0.5,0-1.1-0.1-1.6-0.1
			c-0.6,0-1.2,0-1.6,0c-0.4,0-0.7,0-0.9,0.1c-0.2,0.1-0.5,0.2-0.6,0.4c-0.1,0.2-0.2,0.5-0.2,0.8V16c0,0.4,0.1,0.7,0.4,0.8
			c0.2,0.2,0.6,0.2,1.1,0.2h1.2c0.7,0,1.3,0.1,1.8,0.4c0.5,0.2,0.8,0.6,1.1,1.1c0.2,0.5,0.4,0.9,0.4,1.5v0.7c0,0.9-0.1,1.6-0.5,2.1
			c-0.4,0.5-0.8,0.8-1.4,0.9C294.8,24.1,294.1,24.1,293.4,24.1z"/>
		<path class="st20" d="M301.4,24.1c-0.7,0-1.3-0.2-1.8-0.7c-0.5-0.5-0.6-1.1-0.6-1.9v-6h2.3v5.3c0,0.5,0.1,0.8,0.4,0.9
			c0.2,0.1,0.5,0.2,0.9,0.2c0.2,0,0.6,0,0.9-0.1c0.4-0.1,0.6-0.2,0.8-0.5v-5.9h2.3v8.4h-1.9l-0.4-0.8c-0.4,0.2-0.8,0.5-1.3,0.7
			C302.5,24.1,302,24.1,301.4,24.1z"/>
		<path class="st20" d="M308.3,27.7V15.6h2l0.4,0.8c0.2-0.1,0.5-0.4,0.7-0.5s0.5-0.2,0.8-0.4c0.2-0.1,0.6-0.1,0.9-0.1
			c0.5,0,0.9,0.1,1.3,0.4c0.4,0.2,0.7,0.5,0.9,0.8c0.2,0.4,0.5,0.8,0.6,1.4s0.1,1.2,0.1,1.8c0,0.9-0.1,1.6-0.2,2.3
			c-0.2,0.7-0.5,1.2-0.9,1.5c-0.5,0.4-1.1,0.5-1.8,0.5c-0.4,0-0.8,0-1.2-0.1c-0.5-0.1-0.8-0.2-1.2-0.4v4
			C310.8,27.7,308.3,27.7,308.3,27.7z M312.2,22.2c0.2,0,0.5-0.1,0.7-0.2c0.2-0.1,0.4-0.4,0.5-0.7c0.1-0.4,0.2-0.8,0.2-1.5
			c0-0.6-0.1-1.2-0.2-1.5c-0.1-0.4-0.2-0.6-0.5-0.8c-0.2-0.1-0.5-0.2-0.7-0.2c-0.4,0-0.6,0-0.9,0.1c-0.2,0.1-0.5,0.2-0.7,0.4v4.2
			c0.2,0.1,0.5,0.2,0.7,0.4C311.7,22.2,311.9,22.2,312.2,22.2z"/>
		<path class="st20" d="M317.4,27.7V15.6h2l0.4,0.8c0.2-0.1,0.5-0.4,0.7-0.5c0.2-0.1,0.5-0.2,0.8-0.4c0.2-0.1,0.6-0.1,0.9-0.1
			c0.5,0,0.9,0.1,1.3,0.4c0.4,0.2,0.7,0.5,0.9,0.8c0.2,0.4,0.5,0.8,0.6,1.4s0.1,1.2,0.1,1.8c0,0.9-0.1,1.6-0.2,2.3
			c-0.2,0.7-0.5,1.2-0.9,1.5c-0.5,0.4-1.1,0.5-1.8,0.5c-0.4,0-0.8,0-1.2-0.1c-0.5-0.1-0.8-0.2-1.2-0.4v4
			C319.9,27.7,317.4,27.7,317.4,27.7z M321.4,22.2c0.2,0,0.5-0.1,0.7-0.2c0.2-0.1,0.4-0.4,0.5-0.7c0.1-0.4,0.2-0.8,0.2-1.5
			c0-0.6-0.1-1.2-0.2-1.5c-0.1-0.4-0.2-0.6-0.5-0.8c-0.2-0.1-0.5-0.2-0.7-0.2c-0.4,0-0.6,0-0.9,0.1c-0.2,0.1-0.5,0.2-0.7,0.4v4.2
			c0.2,0.1,0.5,0.2,0.7,0.4C320.8,22.2,321.1,22.2,321.4,22.2z"/>
		<path class="st20" d="M329.3,24.1c-0.6,0-1.1-0.1-1.5-0.2c-0.5-0.1-0.7-0.5-0.8-0.9c-0.2-0.4-0.2-0.9-0.2-1.5v-9.3h2.3V21
			c0,0.4,0,0.6,0.1,0.7c0.1,0.2,0.1,0.4,0.2,0.4c0.1,0.1,0.4,0.1,0.5,0.1l0.6,0.1v1.6h-1.2V24.1z"/>
		<path class="st20" d="M334.2,27.7l0.9-3.7c-0.5,0-0.9-0.1-1.3-0.2c-0.4-0.2-0.7-0.5-0.9-0.7c-0.2-0.4-0.5-0.7-0.6-1.2l-1.6-6.2
			h2.5l1.3,5.7c0,0.2,0.1,0.4,0.2,0.5s0.1,0.2,0.2,0.2s0.2,0.1,0.2,0.1c0.1,0,0.1,0,0.2,0l1.5-6.6h2.3l-2.5,10.5l-0.7,1.5
			C336.1,27.7,334.2,27.7,334.2,27.7z"/>
	</g>
	<g>
		<path class="st20" d="M334.1,161.3v-9.5h-3.2v-2.1h8.7v2.1h-3.2v9.5H334.1z"/>
		<path class="st20" d="M343.6,161.3c-0.9,0-1.6-0.1-2.2-0.4c-0.6-0.2-0.9-0.7-1.2-1.3s-0.4-1.5-0.4-2.6c0-1.2,0.1-2,0.4-2.7
			c0.2-0.6,0.6-1.1,1.2-1.3c0.6-0.2,1.3-0.4,2.2-0.4c0.8,0,1.5,0.1,2,0.2s0.8,0.5,1.1,0.8c0.2,0.5,0.4,1.1,0.4,1.8
			c0,0.6-0.1,1.1-0.4,1.3c-0.2,0.4-0.6,0.6-0.9,0.7c-0.4,0.1-0.9,0.2-1.4,0.2h-2.1c0,0.5,0.1,0.8,0.2,1.1s0.4,0.5,0.6,0.6
			c0.4,0.1,0.7,0.1,1.3,0.1h2.5v1.4c-0.4,0.1-0.8,0.1-1.3,0.2C344.7,161.3,344.2,161.3,343.6,161.3z M342.1,156.5h1.9
			c0.4,0,0.6-0.1,0.7-0.2s0.2-0.4,0.2-0.7c0-0.4,0-0.6-0.1-0.7c-0.1-0.2-0.2-0.4-0.5-0.4c-0.2-0.1-0.5-0.1-0.8-0.1
			c-0.4,0-0.6,0.1-0.8,0.2s-0.4,0.4-0.5,0.6C342.1,155.6,342.1,156,342.1,156.5z"/>
		<path class="st20" d="M350.3,161.3c-0.6,0-1.2-0.2-1.5-0.6c-0.4-0.4-0.6-0.9-0.6-1.5v-0.7c0-0.6,0.2-1.2,0.7-1.5
			c0.5-0.5,1.2-0.6,2.1-0.6h2.1v-0.6c0-0.2,0-0.5-0.1-0.7c-0.1-0.1-0.2-0.4-0.5-0.4c-0.2-0.1-0.6-0.1-1.2-0.1h-2.6v-1.4
			c0.4-0.1,0.9-0.2,1.4-0.4c0.5-0.1,1.2-0.1,2-0.1c0.7,0,1.3,0.1,1.8,0.2c0.5,0.1,0.8,0.5,1.2,0.8c0.2,0.4,0.4,0.9,0.4,1.6v5.7h-1.9
			l-0.4-0.9c-0.1,0.1-0.2,0.2-0.4,0.2c-0.2,0.1-0.4,0.2-0.7,0.4s-0.6,0.2-0.8,0.2C350.8,161.3,350.6,161.3,350.3,161.3z
			 M351.4,159.8c0.1,0,0.2,0,0.4,0c0.1,0,0.2,0,0.4-0.1c0.1-0.1,0.2-0.1,0.4-0.1c0.1,0,0.2-0.1,0.4-0.1c0.1,0,0.1,0,0.1-0.1v-2
			l-1.4,0.1c-0.4,0-0.7,0.1-0.9,0.4c-0.2,0.2-0.2,0.5-0.2,0.7v0.4c0,0.2,0,0.4,0.1,0.5c0.1,0.1,0.2,0.2,0.4,0.2
			C351.1,159.7,351.2,159.8,351.4,159.8z"/>
		<path class="st20" d="M357,161.3v-8.4h1.9l0.4,0.8c0.4-0.2,0.8-0.5,1.2-0.7c0.5-0.2,0.9-0.4,1.6-0.4c0.6,0,0.9,0.1,1.3,0.4
			c0.4,0.2,0.6,0.5,0.8,0.8c0.2-0.2,0.5-0.4,0.8-0.6c0.4-0.2,0.7-0.4,1.1-0.5c0.4-0.1,0.7-0.2,1.1-0.2c0.7,0,1.2,0.1,1.6,0.4
			c0.5,0.2,0.7,0.6,0.8,1.1s0.2,1.1,0.2,1.6v5.5h-2.3v-5.3c0-0.2,0-0.5-0.1-0.7c-0.1-0.2-0.2-0.4-0.5-0.4c-0.2-0.1-0.4-0.1-0.6-0.1
			c-0.4,0-0.6,0.1-0.9,0.2c-0.4,0.1-0.6,0.2-0.8,0.5c0,0.1,0,0.2,0,0.4c0,0.1,0,0.2,0,0.4v5.2h-2.3V156c0-0.2,0-0.5-0.1-0.7
			c-0.1-0.2-0.2-0.4-0.5-0.4c-0.2-0.1-0.4-0.1-0.6-0.1s-0.5,0-0.6,0.1c-0.1,0.1-0.4,0.1-0.6,0.2s-0.4,0.2-0.5,0.4v5.9
			C359.4,161.3,357,161.3,357,161.3z"/>
	</g>
</g>
<g>
	<g>
		<path class="st21" d="M373.5,79.4c0,2.7-2.2,4.9-4.9,4.9H26.5c-2.7,0-4.9-2.2-4.9-4.9V58.8c0-2.7,2.2-4.9,4.9-4.9h342.1
			c2.7,0,4.9,2.2,4.9,4.9L373.5,79.4L373.5,79.4z"/>
		<path class="st22" d="M21.5,71.9v7.5c0,2.7,2.2,4.9,4.9,4.9h342.1c2.7,0,4.9-2.2,4.9-4.9v-7.5H21.5z"/>
		<path class="st23" d="M368.6,53.9H52.9L39.6,84.2h329.1c2.7,0,4.9-2.2,4.9-4.9V58.8C373.5,56.1,371.3,53.9,368.6,53.9z"/>
		<path class="st23" d="M38.3,53.9H26.5c-2.7,0-4.9,2.2-4.9,4.9v20.6c0,2,1.3,3.7,3,4.6L38.3,53.9z"/>
		<path class="st24" d="M373.5,79.4c0,2.7-2.2,4.9-4.9,4.9H26.5c-2.7,0-4.9-2.2-4.9-4.9V58.8c0-2.7,2.2-4.9,4.9-4.9h342.1
			c2.7,0,4.9,2.2,4.9,4.9L373.5,79.4L373.5,79.4z"/>
	</g>
</g>
<g>
	<path class="st20" d="M184.6,75.5c-0.7,0-1.4,0-2.2-0.1c-0.8,0-1.5-0.1-2.2-0.2v-1.9h4.5c0.5,0,0.7-0.1,0.9-0.2
		c0.2-0.1,0.4-0.4,0.5-0.6c0.1-0.2,0.1-0.5,0.1-0.7v-0.8c0-0.4-0.1-0.7-0.4-0.9c-0.2-0.2-0.6-0.4-1.1-0.4h-0.9
		c-0.4,0-0.7,0.1-0.8,0.2c-0.2,0.1-0.4,0.4-0.4,0.7h-2.3l0.4-7.8h7.6v2.2h-5.4l-0.1,3c0.1-0.2,0.4-0.4,0.7-0.5
		c0.4-0.1,0.6-0.1,1.1-0.1h1.4c0.7,0,1.2,0.1,1.6,0.4c0.5,0.2,0.7,0.6,0.9,1.1c0.2,0.5,0.4,0.9,0.4,1.5v1.9c0,0.7-0.1,1.4-0.5,1.9
		c-0.4,0.5-0.8,0.8-1.4,1.1C186.3,75.3,185.5,75.5,184.6,75.5z"/>
	<path class="st20" d="M193.9,75.5c-0.7,0-1.3-0.1-1.8-0.4c-0.5-0.2-0.8-0.6-1.2-1.1c-0.2-0.5-0.4-1.1-0.4-1.8v-6.2
		c0-0.7,0.1-1.4,0.4-1.9c0.2-0.5,0.7-0.9,1.2-1.2c0.5-0.2,1.1-0.4,1.8-0.4h2.7c0.7,0,1.3,0.1,1.8,0.4s0.8,0.7,1.1,1.2
		c0.2,0.5,0.4,1.2,0.4,1.9v6.2c0,1.1-0.2,1.9-0.8,2.5s-1.4,0.8-2.3,0.8h-2.7V75.5z M194.5,73.1h1.4c0.5,0,0.8-0.1,1.1-0.4
		c0.2-0.2,0.4-0.6,0.4-1.1v-5.5c0-0.5-0.1-0.8-0.4-1.1c-0.2-0.2-0.6-0.4-0.9-0.4h-1.5c-0.5,0-0.7,0.1-0.9,0.4
		c-0.2,0.2-0.5,0.6-0.5,1.1v5.5c0,0.5,0.1,0.8,0.4,1.1C193.7,73,194,73.1,194.5,73.1z"/>
	<path class="st20" d="M203.5,69.4c-0.8,0-1.4-0.2-1.8-0.6s-0.5-0.9-0.5-1.6V65c0-0.7,0.1-1.3,0.5-1.6c0.4-0.4,0.9-0.6,1.9-0.6h1.8
		c0.8,0,1.4,0.2,1.8,0.6c0.4,0.4,0.5,0.9,0.5,1.6v2c0,0.7-0.1,1.3-0.5,1.6c-0.4,0.4-0.9,0.6-1.9,0.6h-1.8V69.4z M203.9,67.7h1.2
		c0.4,0,0.7-0.1,0.8-0.2s0.2-0.5,0.2-0.7v-1.3c0-0.4-0.1-0.7-0.2-0.8s-0.4-0.2-0.7-0.2H204c-0.4,0-0.6,0.1-0.7,0.2
		c-0.2,0.1-0.2,0.4-0.2,0.8v1.3c0,0.4,0.1,0.6,0.2,0.7C203.3,67.6,203.5,67.7,203.9,67.7z M204.2,75.3l7.7-12.5h1.6L206,75.3H204.2z
		 M212.7,75.3c-0.8,0-1.4-0.2-1.8-0.6c-0.4-0.4-0.5-0.9-0.5-1.6v-2c0-0.7,0.1-1.3,0.5-1.6c0.4-0.4,0.9-0.6,1.8-0.6h1.8
		c0.8,0,1.4,0.2,1.8,0.6s0.5,0.9,0.5,1.6v2c0,0.7-0.1,1.3-0.5,1.6c-0.4,0.4-0.9,0.6-1.9,0.6H212.7z M212.9,73.7h1.1
		c0.4,0,0.7-0.1,0.8-0.2c0.1-0.1,0.2-0.5,0.2-0.7v-1.3c0-0.4-0.1-0.7-0.2-0.8c-0.1-0.1-0.4-0.2-0.8-0.2H213c-0.4,0-0.6,0.1-0.7,0.2
		c-0.1,0.1-0.2,0.4-0.2,0.8v1.3c0,0.4,0.1,0.6,0.2,0.7C212.4,73.6,212.5,73.7,212.9,73.7z"/>
</g>
<g>
	<path class="st20" d="M235.2,110.9v-10.4l-2.2,0.3v-1.6l2.5-1.1h2.3v12.8H235.2z"/>
	<path class="st20" d="M243.1,111c-0.7,0-1.3-0.1-1.8-0.4c-0.5-0.2-0.9-0.6-1.1-1.1c-0.3-0.5-0.4-1.1-0.4-1.8v-6.2
		c0-0.7,0.1-1.4,0.4-1.9c0.3-0.5,0.6-0.9,1.2-1.1c0.5-0.3,1.1-0.4,1.8-0.4h2.6c0.7,0,1.3,0.1,1.8,0.4c0.5,0.3,0.8,0.7,1.1,1.2
		c0.2,0.5,0.4,1.1,0.4,1.8v6.2c0,1.1-0.3,1.9-0.8,2.4c-0.6,0.6-1.4,0.8-2.4,0.8H243.1z M243.7,108.7h1.4c0.5,0,0.8-0.1,1-0.3
		c0.2-0.2,0.3-0.6,0.3-1v-5.6c0-0.5-0.1-0.9-0.3-1.1c-0.2-0.2-0.5-0.3-0.9-0.3h-1.6c-0.4,0-0.7,0.1-1,0.3c-0.2,0.2-0.3,0.6-0.3,1
		v5.5c0,0.5,0.1,0.8,0.4,1.1C242.9,108.6,243.2,108.7,243.7,108.7z"/>
	<path class="st20" d="M252.8,104.9c-0.8,0-1.4-0.2-1.8-0.6c-0.3-0.4-0.5-0.9-0.5-1.7v-2c0-0.7,0.2-1.3,0.5-1.7
		c0.3-0.4,0.9-0.6,1.8-0.6h1.7c0.8,0,1.4,0.2,1.8,0.6c0.3,0.4,0.5,0.9,0.5,1.7v2c0,0.7-0.2,1.3-0.5,1.7c-0.3,0.4-0.9,0.6-1.8,0.6
		H252.8z M253.1,103.3h1.1c0.4,0,0.7-0.1,0.8-0.2c0.1-0.2,0.2-0.4,0.2-0.7V101c0-0.4-0.1-0.7-0.2-0.8c-0.1-0.1-0.4-0.2-0.8-0.2h-1.1
		c-0.3,0-0.6,0.1-0.7,0.2c-0.2,0.1-0.3,0.4-0.3,0.8v1.3c0,0.3,0.1,0.6,0.2,0.7C252.5,103.2,252.7,103.3,253.1,103.3z M253.4,110.9
		l7.7-12.6h1.6l-7.6,12.6H253.4z M261.8,110.9c-0.8,0-1.4-0.2-1.8-0.6c-0.3-0.4-0.5-0.9-0.5-1.7v-2c0-0.7,0.2-1.3,0.5-1.7
		c0.3-0.4,0.9-0.6,1.8-0.6h1.7c0.8,0,1.4,0.2,1.8,0.6c0.3,0.4,0.5,0.9,0.5,1.7v2c0,0.7-0.2,1.3-0.5,1.7c-0.3,0.4-0.9,0.6-1.8,0.6
		H261.8z M262.1,109.2h1.1c0.4,0,0.7-0.1,0.8-0.2c0.1-0.2,0.2-0.4,0.2-0.7v-1.3c0-0.4-0.1-0.7-0.2-0.8c-0.2-0.1-0.4-0.2-0.8-0.2
		h-1.1c-0.3,0-0.6,0.1-0.7,0.2c-0.2,0.1-0.3,0.4-0.3,0.8v1.3c0,0.3,0.1,0.6,0.2,0.7S261.7,109.2,262.1,109.2z"/>
</g>
<g>
	<path class="st20" d="M88.2,111c-0.9,0-1.8,0-2.6-0.1c-0.8-0.1-1.6-0.2-2.2-0.3v-2h3.9c0.5,0,0.9,0,1.1-0.1
		c0.3-0.1,0.5-0.2,0.7-0.4c0.1-0.2,0.2-0.4,0.2-0.7v-0.5c0-0.3-0.1-0.6-0.2-0.7c-0.1-0.2-0.3-0.3-0.6-0.4c-0.2-0.1-0.5-0.1-0.8-0.1
		l-3.1-0.1v-2l3-0.2c0.5,0,0.9-0.1,1.2-0.3c0.3-0.2,0.4-0.4,0.4-0.8v-0.4c0-0.5-0.2-0.8-0.5-1s-0.8-0.3-1.5-0.3h-3.5v-2
		c0.7-0.1,1.4-0.2,2.1-0.3c0.8-0.1,1.6-0.1,2.4-0.1c0.7,0,1.4,0.1,1.9,0.4c0.5,0.2,0.9,0.6,1.2,1c0.3,0.5,0.4,1,0.4,1.7v0.9
		c0,0.3,0,0.6-0.1,0.9c-0.1,0.3-0.2,0.5-0.3,0.7c-0.1,0.2-0.3,0.3-0.5,0.5c-0.2,0.1-0.4,0.2-0.6,0.3c0.2,0.1,0.5,0.2,0.7,0.3
		c0.2,0.2,0.4,0.4,0.6,0.6c0.2,0.2,0.3,0.5,0.4,0.8c0.1,0.3,0.1,0.6,0.1,1v0.7c0,1-0.3,1.8-1,2.3C90.2,110.8,89.3,111,88.2,111z"/>
	<path class="st20" d="M98,111c-0.7,0-1.4,0-2.2-0.1c-0.8-0.1-1.5-0.1-2.2-0.2v-2h4.5c0.4,0,0.7-0.1,1-0.2c0.2-0.1,0.4-0.3,0.5-0.5
		c0.1-0.2,0.1-0.5,0.1-0.7v-0.9c0-0.4-0.1-0.7-0.3-1c-0.2-0.2-0.5-0.4-1-0.4h-1c-0.4,0-0.7,0.1-0.8,0.2c-0.2,0.2-0.3,0.4-0.4,0.7
		h-2.4l0.4-7.8h7.6v2.3h-5.4l-0.1,3c0.2-0.2,0.4-0.3,0.7-0.4c0.3-0.1,0.6-0.1,1-0.1h1.4c0.7,0,1.2,0.1,1.6,0.4s0.8,0.6,1,1.1
		c0.2,0.5,0.3,1,0.3,1.5v1.9c0,0.7-0.2,1.3-0.5,1.8c-0.3,0.5-0.8,0.8-1.4,1C99.7,110.9,98.9,111,98,111z"/>
	<path class="st20" d="M105.9,104.9c-0.8,0-1.4-0.2-1.8-0.6c-0.3-0.4-0.5-0.9-0.5-1.7v-2c0-0.7,0.2-1.3,0.5-1.7
		c0.3-0.4,0.9-0.6,1.8-0.6h1.7c0.8,0,1.4,0.2,1.8,0.6c0.3,0.4,0.5,0.9,0.5,1.7v2c0,0.7-0.2,1.3-0.5,1.7c-0.3,0.4-0.9,0.6-1.8,0.6
		H105.9z M106.2,103.3h1.1c0.4,0,0.7-0.1,0.8-0.2c0.1-0.2,0.2-0.4,0.2-0.7V101c0-0.4-0.1-0.7-0.2-0.8c-0.1-0.1-0.4-0.2-0.8-0.2h-1.1
		c-0.3,0-0.6,0.1-0.7,0.2c-0.2,0.1-0.3,0.4-0.3,0.8v1.3c0,0.3,0.1,0.6,0.2,0.7C105.5,103.2,105.8,103.3,106.2,103.3z M106.5,110.9
		l7.7-12.6h1.6l-7.6,12.6H106.5z M114.9,110.9c-0.8,0-1.4-0.2-1.8-0.6c-0.3-0.4-0.5-0.9-0.5-1.7v-2c0-0.7,0.2-1.3,0.5-1.7
		c0.3-0.4,0.9-0.6,1.8-0.6h1.7c0.8,0,1.4,0.2,1.8,0.6c0.3,0.4,0.5,0.9,0.5,1.7v2c0,0.7-0.2,1.3-0.5,1.7c-0.3,0.4-0.9,0.6-1.8,0.6
		H114.9z M115.2,109.2h1.1c0.4,0,0.7-0.1,0.8-0.2s0.2-0.4,0.2-0.7v-1.3c0-0.4-0.1-0.7-0.2-0.8c-0.2-0.1-0.4-0.2-0.8-0.2h-1.1
		c-0.3,0-0.6,0.1-0.7,0.2c-0.2,0.1-0.3,0.4-0.3,0.8v1.3c0,0.3,0.1,0.6,0.2,0.7C114.6,109.1,114.8,109.2,115.2,109.2z"/>
</g>
<g>
	<path class="st20" d="M329.3,111c-0.7,0-1.4,0-2.2-0.1c-0.8,0-1.5-0.1-2.2-0.2v-1.9h4.5c0.5,0,0.7-0.1,0.9-0.2
		c0.2-0.1,0.4-0.4,0.5-0.6c0.1-0.2,0.1-0.5,0.1-0.7v-0.8c0-0.4-0.1-0.7-0.4-0.9c-0.2-0.2-0.6-0.4-1.1-0.4h-0.9
		c-0.4,0-0.7,0.1-0.8,0.2c-0.2,0.1-0.4,0.4-0.4,0.7h-2.3l0.4-7.8h7.6v2.2h-5.4l-0.1,3c0.1-0.2,0.4-0.4,0.7-0.5
		c0.4-0.1,0.6-0.1,1.1-0.1h1.4c0.7,0,1.2,0.1,1.6,0.4c0.5,0.2,0.7,0.6,0.9,1.1c0.2,0.5,0.4,0.9,0.4,1.5v1.9c0,0.7-0.1,1.4-0.5,1.9
		c-0.4,0.5-0.8,0.8-1.4,1.1C331,110.9,330.2,111,329.3,111z"/>
	<path class="st20" d="M337.2,104.9c-0.8,0-1.4-0.2-1.8-0.6c-0.4-0.4-0.5-0.9-0.5-1.6v-2.1c0-0.7,0.1-1.3,0.5-1.6
		c0.4-0.4,0.9-0.6,1.9-0.6h1.8c0.8,0,1.4,0.2,1.8,0.6c0.4,0.4,0.5,0.9,0.5,1.6v2c0,0.7-0.1,1.3-0.5,1.6c-0.4,0.4-0.9,0.6-1.9,0.6
		h-1.8V104.9z M337.5,103.3h1.2c0.4,0,0.7-0.1,0.8-0.2s0.2-0.5,0.2-0.7v-1.3c0-0.4-0.1-0.7-0.2-0.8s-0.4-0.2-0.7-0.2h-1.2
		c-0.4,0-0.6,0.1-0.7,0.2c-0.2,0.1-0.2,0.4-0.2,0.8v1.3c0,0.4,0.1,0.6,0.2,0.7C336.9,103.2,337.1,103.3,337.5,103.3z M337.8,110.9
		l7.7-12.5h1.6l-7.6,12.5H337.8z M346.3,110.9c-0.8,0-1.4-0.2-1.8-0.6c-0.4-0.4-0.5-0.9-0.5-1.6v-2c0-0.7,0.1-1.3,0.5-1.6
		c0.4-0.4,0.9-0.6,1.8-0.6h1.8c0.8,0,1.4,0.2,1.8,0.6s0.5,0.9,0.5,1.6v2c0,0.7-0.1,1.3-0.5,1.6c-0.4,0.4-0.9,0.6-1.9,0.6H346.3z
		 M346.6,109.3h1.1c0.4,0,0.7-0.1,0.8-0.2s0.2-0.5,0.2-0.7v-1.3c0-0.4-0.1-0.7-0.2-0.8s-0.4-0.2-0.8-0.2h-1.1
		c-0.4,0-0.6,0.1-0.7,0.2s-0.2,0.4-0.2,0.8v1.3c0,0.4,0.1,0.6,0.2,0.7C346,109.2,346.1,109.3,346.6,109.3z"/>
</g>
<g>
	<path class="st20" d="M213.2,160.2c-0.6,0-1.2-0.1-1.7-0.2s-0.9-0.4-1.3-0.8c-0.4-0.4-0.6-1-0.8-1.7c-0.2-0.7-0.3-1.7-0.3-2.9
		c0-1.1,0.1-2.1,0.3-2.8c0.2-0.7,0.5-1.3,0.8-1.7c0.4-0.4,0.8-0.7,1.3-0.9c0.5-0.2,1.1-0.2,1.7-0.2c0.5,0,1,0,1.4,0.1
		c0.5,0,0.8,0.1,1.2,0.2c0.4,0.1,0.6,0.1,0.9,0.2v1.7c-0.2,0-0.4-0.1-0.7-0.1c-0.3,0-0.6-0.1-1-0.1c-0.4,0-0.8,0-1.2,0
		c-0.4,0-0.8,0-1.1,0.1c-0.3,0.1-0.5,0.3-0.7,0.5s-0.3,0.6-0.4,1.1c-0.1,0.5-0.1,1.1-0.1,1.9c0,0.7,0,1.4,0.1,1.8
		c0.1,0.5,0.2,0.9,0.4,1.1c0.2,0.3,0.4,0.5,0.7,0.5c0.3,0.1,0.7,0.1,1.1,0.1c0.8,0,1.4,0,1.9,0c0.5,0,0.9,0,1.1-0.1v1.7
		c-0.3,0.1-0.6,0.2-1,0.2c-0.4,0-0.7,0.1-1.2,0.1C214.2,160.2,213.8,160.2,213.2,160.2z"/>
	<path class="st20" d="M221.5,160.2c-0.7,0-1.2,0-1.7-0.2c-0.5-0.1-0.9-0.4-1.1-0.7s-0.5-0.7-0.6-1.3c-0.1-0.5-0.2-1.2-0.2-2
		c0-0.8,0-1.5,0.2-2c0.1-0.5,0.4-1,0.6-1.3c0.3-0.3,0.7-0.5,1.2-0.6c0.5-0.1,1-0.2,1.7-0.2c0.7,0,1.2,0,1.7,0.2
		c0.5,0.1,0.9,0.4,1.1,0.6c0.3,0.3,0.5,0.7,0.6,1.3c0.1,0.5,0.2,1.2,0.2,2c0,0.8,0,1.5-0.2,2c-0.1,0.5-0.4,1-0.6,1.3
		c-0.3,0.3-0.7,0.5-1.1,0.7C222.8,160.1,222.2,160.2,221.5,160.2z M221.5,158.5c0.3,0,0.5,0,0.7-0.1c0.2,0,0.3-0.1,0.5-0.3
		c0.1-0.1,0.2-0.4,0.3-0.7c0-0.3,0.1-0.7,0.1-1.3c0-0.5,0-1-0.1-1.3s-0.1-0.5-0.3-0.7c-0.1-0.1-0.3-0.3-0.5-0.3
		c-0.2,0-0.4-0.1-0.7-0.1s-0.5,0-0.7,0.1c-0.2,0-0.3,0.1-0.5,0.3c-0.1,0.1-0.2,0.4-0.3,0.7c0,0.3-0.1,0.7-0.1,1.3c0,0.5,0,1,0.1,1.3
		c0,0.3,0.1,0.5,0.3,0.7c0.1,0.1,0.3,0.3,0.5,0.3C221.1,158.4,221.3,158.5,221.5,158.5z"/>
	<path class="st20" d="M226.8,160.1V152h1.8l0.4,0.8c0.4-0.3,0.7-0.5,1.1-0.7c0.4-0.2,0.9-0.3,1.5-0.3c0.5,0,1,0.1,1.3,0.3
		s0.6,0.5,0.8,0.8c0.2-0.2,0.5-0.4,0.8-0.5c0.3-0.2,0.6-0.3,1-0.5c0.4-0.1,0.7-0.2,1-0.2c0.6,0,1.2,0.1,1.5,0.4
		c0.4,0.2,0.6,0.6,0.8,1c0.1,0.5,0.2,1,0.2,1.6v5.2h-2.2v-5c0-0.3,0-0.5-0.1-0.6c-0.1-0.2-0.2-0.3-0.4-0.4s-0.4-0.1-0.6-0.1
		c-0.3,0-0.6,0-0.9,0.2s-0.6,0.3-0.8,0.5c0,0.1,0,0.2,0,0.3c0,0.1,0,0.2,0,0.3v5h-2.2v-5c0-0.3,0-0.5-0.1-0.6
		c-0.1-0.2-0.2-0.3-0.4-0.4c-0.2-0.1-0.4-0.1-0.6-0.1c-0.2,0-0.4,0-0.6,0.1c-0.2,0-0.4,0.1-0.5,0.2s-0.4,0.2-0.5,0.3v5.6H226.8z"/>
	<path class="st20" d="M240.8,160.1V152h1.8l0.4,0.8c0.4-0.3,0.7-0.5,1.1-0.7c0.4-0.2,0.9-0.3,1.5-0.3c0.5,0,1,0.1,1.3,0.3
		s0.6,0.5,0.8,0.8c0.2-0.2,0.5-0.4,0.8-0.5c0.3-0.2,0.6-0.3,1-0.5c0.4-0.1,0.7-0.2,1-0.2c0.6,0,1.2,0.1,1.5,0.4
		c0.4,0.2,0.6,0.6,0.8,1c0.1,0.5,0.2,1,0.2,1.6v5.2H251v-5c0-0.3,0-0.5-0.1-0.6c-0.1-0.2-0.2-0.3-0.4-0.4s-0.4-0.1-0.6-0.1
		c-0.3,0-0.6,0-0.9,0.2s-0.6,0.3-0.8,0.5c0,0.1,0,0.2,0,0.3c0,0.1,0,0.2,0,0.3v5h-2.2v-5c0-0.3,0-0.5-0.1-0.6
		c-0.1-0.2-0.2-0.3-0.4-0.4c-0.2-0.1-0.4-0.1-0.6-0.1c-0.2,0-0.4,0-0.6,0.1c-0.2,0-0.4,0.1-0.5,0.2c-0.2,0.1-0.4,0.2-0.5,0.3v5.6
		H240.8z"/>
	<path class="st20" d="M257.1,160.2c-0.7,0-1.3-0.2-1.7-0.6c-0.4-0.4-0.6-1-0.6-1.8V152h2.2v5.1c0,0.5,0.1,0.8,0.3,0.9
		c0.2,0.1,0.5,0.2,0.9,0.2c0.3,0,0.6,0,0.9-0.1c0.3-0.1,0.5-0.2,0.8-0.4v-5.6h2.2v8.1h-1.9l-0.4-0.8c-0.4,0.2-0.8,0.5-1.2,0.6
		C258.1,160.1,257.6,160.2,257.1,160.2z"/>
	<path class="st20" d="M263.8,160.1V152h1.8l0.4,0.8c0.3-0.3,0.7-0.5,1.1-0.7c0.5-0.2,0.9-0.3,1.4-0.3c0.7,0,1.2,0.1,1.5,0.4
		s0.6,0.6,0.8,1s0.2,0.9,0.2,1.5v5.3h-2.3v-5.1c0-0.3,0-0.5-0.1-0.6c-0.1-0.2-0.2-0.3-0.4-0.4s-0.4-0.1-0.6-0.1
		c-0.2,0-0.4,0-0.6,0.1c-0.2,0-0.4,0.1-0.5,0.2c-0.2,0.1-0.4,0.2-0.5,0.3v5.6H263.8z"/>
	<path class="st20" d="M273,150.9c-0.2,0-0.3-0.1-0.3-0.3v-1.5c0-0.2,0.1-0.3,0.3-0.3h1.7c0.1,0,0.2,0,0.2,0.1s0.1,0.1,0.1,0.2v1.5
		c0,0.2-0.1,0.3-0.3,0.3H273z M272.8,160.1V152h2.2v8.1H272.8z"/>
	<path class="st20" d="M279.8,160.1c-0.6,0-1.1-0.1-1.5-0.3s-0.7-0.5-0.8-0.9c-0.2-0.4-0.2-1-0.2-1.7l0.1-3.4H276v-1.4l1.3-0.4
		l0.3-2.3h1.8v2.3h1.9v1.8h-1.9v3.4c0,0.2,0,0.4,0,0.5s0.1,0.3,0.2,0.3c0.1,0.1,0.2,0.1,0.3,0.2c0.1,0,0.2,0,0.3,0.1l1,0.1v1.6
		L279.8,160.1L279.8,160.1z"/>
	<path class="st20" d="M285.1,163.7l0.9-3.6c-0.5,0-0.9-0.1-1.2-0.3c-0.4-0.2-0.6-0.4-0.9-0.7c-0.2-0.3-0.4-0.7-0.5-1.2l-1.5-5.9
		h2.3l1.3,5.5c0,0.2,0.1,0.4,0.2,0.5c0.1,0.1,0.2,0.2,0.3,0.2c0.1,0,0.2,0.1,0.2,0.1c0.1,0,0.1,0,0.2,0l1.5-6.3h2.3l-2.4,10.2
		l-0.7,1.5L285.1,163.7L285.1,163.7z"/>
</g>
</svg>
