<?xml version="1.0" encoding="utf-8"?>
<!-- Generator: Adobe Illustrator 26.0.1, SVG Export Plug-In . SVG Version: 6.00 Build 0)  -->
<svg version="1.1" id="Layer_1" xmlns="http://www.w3.org/2000/svg" xmlns:xlink="http://www.w3.org/1999/xlink" x="0px" y="0px"
	 viewBox="0 0 500 97.8" style="enable-background:new 0 0 500 97.8;" xml:space="preserve">
<style type="text/css">
	.st0{fill:#E6E7E8;}
	.st1{fill:#FB44D5;}
	.st2{fill:#CC00A6;}
	.st3{fill:none;stroke:#FFE4F9;stroke-width:2;stroke-linecap:round;stroke-linejoin:round;stroke-miterlimit:10;}
	.st4{fill:none;stroke:#6D6E71;stroke-width:2;stroke-linecap:round;stroke-linejoin:round;stroke-miterlimit:10;}
	.st5{fill:#DA1C5C;}
	.st6{fill:#AE1C42;}
	.st7{opacity:0.4;fill:#DA1C5C;}
	.st8{fill:#FFFFFF;}
	.st9{fill:none;stroke:#981C1E;stroke-width:2;stroke-linecap:round;stroke-linejoin:round;stroke-miterlimit:10;}
	.st10{fill:#FBD140;}
	.st11{fill:#FBAE40;}
	.st12{opacity:0.4;fill:#FBAE40;}
	.st13{opacity:0.5;fill:#FBD140;}
	.st14{fill:none;stroke:#E77000;stroke-width:2;stroke-linecap:round;stroke-linejoin:round;stroke-miterlimit:10;}
	.st15{fill:#8DC63F;}
	.st16{fill:#39B54A;}
	.st17{opacity:0.4;fill:#39B54A;}
	.st18{opacity:0.5;fill:#39B54A;}
	.st19{fill:none;stroke:#006838;stroke-width:2;stroke-linecap:round;stroke-linejoin:round;stroke-miterlimit:10;}
</style>
<g id="BACKGROUND">
</g>
<g id="TEXTURE">
</g>
<g>
	<g>
		<path class="st0" d="M33.1,16.6c-4.8,0-8.6,3.9-8.6,8.6V44c0,4.8,3.9,8.6,8.6,8.6h6.2l4.7,9.5l4.7-9.5h9.3v-5.3V21.8v-5.3H33.1z"
			/>
		<path class="st0" d="M33.1,16.6c-4.8,0-8.6,3.9-8.6,8.6V44c0,4.8,3.9,8.6,8.6,8.6h6.2l4.7,9.5l4.7-9.5h9.3v-5.3V21.8v-5.3H33.1z"
			/>
		<path class="st1" d="M25.1,47.1c1.3,3.2,4.4,5.5,8,5.5h6.2l4.7,9.5l4.7-9.5h9.3v-5.3v-0.2H25.1z"/>
		<path class="st1" d="M200.5,47.1c1.3,3.2,4.4,5.5,8,5.5h6.2l4.7,9.5l4.7-9.5h9.3v-5.3v-0.2H200.5z"/>
		<path class="st1" d="M389.6,47.1c1.3,3.2,4.4,5.5,8,5.5h6.2l4.7,9.5l4.7-9.5h9.3v-5.3v-0.2H389.6z"/>
		<g>
			<path class="st1" d="M468,17.6L30.3,16.5c-2.9,0-5.3,2.3-5.3,5.2v0v25.5v0.1c0,2.9,2.3,5.2,5.2,5.2L468,53.6
				c4.8,0,8.6-3.9,8.6-8.6V26.2C476.6,21.4,472.8,17.6,468,17.6z"/>
			<path class="st2" d="M476.6,44V26.6l-15.7,26h7C472.8,52.6,476.6,48.7,476.6,44z"/>
			<path class="st3" d="M57.9,16.6H33.1c-4.8,0-8.6,3.9-8.6,8.6V44c0,4.8,3.9,8.6,8.6,8.6h6.2l4.7,9.5l4.7-9.5h9.3"/>
			<polyline class="st3" points="214.5,52.6 219.2,62.1 223.9,52.6 233.1,52.6 			"/>
			<polyline class="st3" points="404.3,52.6 409,62.1 413.7,52.6 422.9,52.6 			"/>
			<path class="st3" d="M413.7,52.6H468c4.8,0,8.6-3.9,8.6-8.6V25.2c0-4.8-3.9-8.6-8.6-8.6H57.9"/>
			<path class="st4" d="M413.7,52.6"/>
			<path class="st4" d="M404.3,52.6"/>
			<line class="st3" x1="223.9" y1="52.6" x2="404.3" y2="52.6"/>
			<path class="st4" d="M223.9,52.6"/>
			<path class="st4" d="M214.5,52.6"/>
			<line class="st3" x1="57.9" y1="52.6" x2="214.5" y2="52.6"/>
		</g>
	</g>
	<g>
		<g>
			<path class="st5" d="M376.8,43.4c0,2.3-1.9,4.2-4.2,4.2H207c-2.3,0-4.2-1.9-4.2-4.2V25.8c0-2.3,1.9-4.2,4.2-4.2h165.6
				c2.3,0,4.2,1.9,4.2,4.2V43.4z"/>
			<path class="st6" d="M202.8,37v6.4c0,2.3,1.9,4.2,4.2,4.2h165.6c2.3,0,4.2-1.9,4.2-4.2V37H202.8z"/>
			<path class="st7" d="M372.6,21.6H229.6l-11.4,25.9h154.5c2.3,0,4.2-1.9,4.2-4.2V25.8C376.8,23.5,374.9,21.6,372.6,21.6z"/>
			<path class="st7" d="M217.1,21.6H207c-2.3,0-4.2,1.9-4.2,4.2v17.6c0,1.7,1.1,3.2,2.6,3.9L217.1,21.6z"/>
			<g>
				<path class="st8" d="M215.4,29.2c-0.4,0-0.8-0.4-0.8-1l0,0c0-0.5,0.4-1,0.8-1h65.5c0.4,0,0.8,0.4,0.8,1l0,0c0,0.5-0.4,1-0.8,1
					H215.4z"/>
				<path class="st8" d="M209.1,29.2c-0.4,0-0.8-0.4-0.8-1l0,0c0-0.5,0.4-1,0.8-1h2.6c0.4,0,0.8,0.4,0.8,1l0,0c0,0.5-0.4,1-0.8,1
					H209.1z"/>
			</g>
			<path class="st9" d="M376.8,43.4c0,2.3-1.9,4.2-4.2,4.2H207c-2.3,0-4.2-1.9-4.2-4.2V25.8c0-2.3,1.9-4.2,4.2-4.2h165.6
				c2.3,0,4.2,1.9,4.2,4.2V43.4z"/>
		</g>
	</g>
	<g>
		<g>
			<path class="st10" d="M470.9,43.2c0,2.3-1.9,4.2-4.2,4.2h-80.6c-2.3,0-4.2-1.9-4.2-4.2V25.6c0-2.3,1.9-4.2,4.2-4.2h80.6
				c2.3,0,4.2,1.9,4.2,4.2V43.2z"/>
			<path class="st11" d="M381.9,36.3v6.9c0,2.3,1.9,4.2,4.2,4.2h80.6c2.3,0,4.2-1.9,4.2-4.2v-6.9H381.9z"/>
			<path class="st12" d="M466.7,21.5h-46.2l-11.4,25.9h57.6c2.3,0,4.2-1.9,4.2-4.2V25.6C470.9,23.3,469,21.5,466.7,21.5z"/>
			<path class="st13" d="M401.2,21.5h-15.1c-2.3,0-4.2,1.9-4.2,4.2v17.6c0,2.3,1.9,4.2,4.2,4.2h3.3L401.2,21.5z"/>
			<g>
				<path class="st8" d="M394.5,29.1c-0.4,0-0.8-0.4-0.8-1l0,0c0-0.5,0.4-1,0.8-1h31.4c0.4,0,0.8,0.4,0.8,1l0,0c0,0.5-0.4,1-0.8,1
					H394.5z"/>
				<path class="st8" d="M388.2,29.1c-0.4,0-0.8-0.4-0.8-1l0,0c0-0.5,0.4-1,0.8-1h2.6c0.4,0,0.8,0.4,0.8,1l0,0c0,0.5-0.4,1-0.8,1
					H388.2z"/>
			</g>
			<path class="st14" d="M470.9,43.2c0,2.3-1.9,4.2-4.2,4.2h-80.6c-2.3,0-4.2-1.9-4.2-4.2V25.6c0-2.3,1.9-4.2,4.2-4.2h80.6
				c2.3,0,4.2,1.9,4.2,4.2V43.2z"/>
		</g>
	</g>
	<g>
		<g>
			<path class="st15" d="M196.9,43.4c0,2.3-1.9,4.2-4.2,4.2H33.5c-2.3,0-4.2-1.9-4.2-4.2V25.8c0-2.3,1.9-4.2,4.2-4.2h159.2
				c2.3,0,4.2,1.9,4.2,4.2V43.4z"/>
			<path class="st16" d="M29.3,36.5v6.9c0,2.3,1.9,4.2,4.2,4.2h159.2c2.3,0,4.2-1.9,4.2-4.2v-6.9H29.3z"/>
			<path class="st17" d="M192.7,21.6H93.9L82.5,47.5h110.2c2.3,0,4.2-1.9,4.2-4.2V25.8C196.9,23.5,195,21.6,192.7,21.6z"/>
			<path class="st18" d="M55.8,21.6H33.5c-2.3,0-4.2,1.9-4.2,4.2v17.6c0,2.3,1.9,4.2,4.2,4.2h10.5L55.8,21.6z"/>
			<g>
				<path class="st8" d="M41.9,28.3c-0.4,0-0.8-0.4-0.8-1l0,0c0-0.5,0.4-1,0.8-1H85c0.4,0,0.8,0.4,0.8,1l0,0c0,0.5-0.4,1-0.8,1H41.9
					z"/>
				<path class="st8" d="M35.6,28.3c-0.4,0-0.8-0.4-0.8-1l0,0c0-0.5,0.4-1,0.8-1h2.6c0.4,0,0.8,0.4,0.8,1l0,0c0,0.5-0.4,1-0.8,1
					H35.6z"/>
			</g>
			<path class="st19" d="M196.9,43.4c0,2.3-1.9,4.2-4.2,4.2H33.5c-2.3,0-4.2-1.9-4.2-4.2V25.8c0-2.3,1.9-4.2,4.2-4.2h159.2
				c2.3,0,4.2,1.9,4.2,4.2V43.4z"/>
		</g>
	</g>
	<g>
		<path class="st8" d="M163.1,39.9c-0.8,0-1.5,0-2.2-0.1c-0.7-0.1-1.3-0.1-1.9-0.2v-1.7h3.3c0.4,0,0.7,0,1-0.1s0.4-0.2,0.6-0.3
			s0.2-0.4,0.2-0.6v-0.5c0-0.3-0.1-0.5-0.2-0.6c-0.1-0.2-0.3-0.3-0.5-0.3s-0.5-0.1-0.7-0.1l-2.7-0.1v-1.7l2.6-0.1
			c0.4,0,0.8-0.1,1-0.2s0.4-0.4,0.4-0.7v-0.4c0-0.4-0.1-0.7-0.4-0.9s-0.7-0.3-1.3-0.3h-3v-1.7c0.6-0.1,1.2-0.2,1.8-0.2
			c0.7-0.1,1.3-0.1,2.1-0.1c0.6,0,1.2,0.1,1.6,0.3c0.4,0.2,0.8,0.5,1,0.9c0.2,0.4,0.3,0.9,0.3,1.5v0.8c0,0.3,0,0.5-0.1,0.7
			s-0.2,0.4-0.3,0.6s-0.3,0.3-0.4,0.4s-0.3,0.2-0.5,0.3c0.2,0,0.4,0.1,0.6,0.3c0.2,0.1,0.3,0.3,0.5,0.5c0.1,0.2,0.2,0.4,0.3,0.7
			s0.1,0.6,0.1,0.9v0.6c0,0.9-0.3,1.5-0.8,2S164,39.9,163.1,39.9z"/>
		<path class="st8" d="M171.4,39.9c-0.6,0-1.2,0-1.9-0.1c-0.7,0-1.3-0.1-1.9-0.2V38h3.8c0.4,0,0.6-0.1,0.8-0.2s0.3-0.3,0.4-0.5
			c0.1-0.2,0.1-0.4,0.1-0.6V36c0-0.3-0.1-0.6-0.3-0.8c-0.2-0.2-0.5-0.3-0.9-0.3h-0.8c-0.3,0-0.6,0.1-0.7,0.2
			c-0.2,0.1-0.3,0.3-0.3,0.6h-2l0.3-6.7h6.5v1.9H170l-0.1,2.6c0.1-0.2,0.3-0.3,0.6-0.4c0.3-0.1,0.5-0.1,0.9-0.1h1.2
			c0.6,0,1,0.1,1.4,0.3s0.6,0.5,0.8,0.9c0.2,0.4,0.3,0.8,0.3,1.3v1.6c0,0.6-0.1,1.2-0.4,1.6c-0.3,0.4-0.7,0.7-1.2,0.9
			S172.2,39.9,171.4,39.9z"/>
		<path class="st8" d="M178.2,34.7c-0.7,0-1.2-0.2-1.5-0.5c-0.3-0.3-0.4-0.8-0.4-1.4V31c0-0.6,0.1-1.1,0.4-1.4
			c0.3-0.3,0.8-0.5,1.6-0.5h1.5c0.7,0,1.2,0.2,1.5,0.5c0.3,0.3,0.4,0.8,0.4,1.4v1.7c0,0.6-0.1,1.1-0.4,1.4c-0.3,0.3-0.8,0.5-1.6,0.5
			H178.2z M178.4,33.3h1c0.3,0,0.6-0.1,0.7-0.2c0.1-0.1,0.2-0.4,0.2-0.6v-1.1c0-0.3-0.1-0.6-0.2-0.7s-0.3-0.2-0.6-0.2h-1
			c-0.3,0-0.5,0.1-0.6,0.2c-0.2,0.1-0.2,0.3-0.2,0.7v1.1c0,0.3,0.1,0.5,0.2,0.6C177.9,33.2,178.1,33.3,178.4,33.3z M178.7,39.8
			l6.6-10.7h1.4l-6.5,10.7H178.7z M185.9,39.8c-0.7,0-1.2-0.2-1.5-0.5c-0.3-0.3-0.4-0.8-0.4-1.4v-1.7c0-0.6,0.1-1.1,0.4-1.4
			s0.8-0.5,1.5-0.5h1.5c0.7,0,1.2,0.2,1.5,0.5c0.3,0.3,0.4,0.8,0.4,1.4v1.7c0,0.6-0.1,1.1-0.4,1.4c-0.3,0.3-0.8,0.5-1.6,0.5H185.9z
			 M186.2,38.4h0.9c0.3,0,0.6-0.1,0.7-0.2s0.2-0.4,0.2-0.6v-1.1c0-0.3-0.1-0.6-0.2-0.7s-0.3-0.2-0.7-0.2h-0.9
			c-0.3,0-0.5,0.1-0.6,0.2s-0.2,0.3-0.2,0.7v1.1c0,0.3,0.1,0.5,0.2,0.6S185.8,38.4,186.2,38.4z"/>
	</g>
	<g>
		<path class="st8" d="M341.7,39.9c-0.6,0-1.2,0-1.9-0.1c-0.7,0-1.3-0.1-1.9-0.2V38h3.8c0.4,0,0.6-0.1,0.8-0.2s0.3-0.3,0.4-0.5
			c0.1-0.2,0.1-0.4,0.1-0.6V36c0-0.3-0.1-0.6-0.3-0.8c-0.2-0.2-0.5-0.3-0.9-0.3h-0.8c-0.3,0-0.6,0.1-0.7,0.2
			c-0.2,0.1-0.3,0.3-0.3,0.6h-2l0.3-6.7h6.5v1.9h-4.6l-0.1,2.6c0.1-0.2,0.3-0.3,0.6-0.4c0.3-0.1,0.5-0.1,0.9-0.1h1.2
			c0.6,0,1,0.1,1.4,0.3s0.6,0.5,0.8,0.9c0.2,0.4,0.3,0.8,0.3,1.3v1.6c0,0.6-0.1,1.2-0.4,1.6c-0.3,0.4-0.7,0.7-1.2,0.9
			S342.5,39.9,341.7,39.9z"/>
		<path class="st8" d="M349.7,39.9c-0.6,0-1.1-0.1-1.5-0.3c-0.4-0.2-0.7-0.5-1-0.9c-0.2-0.4-0.3-0.9-0.3-1.5v-5.3
			c0-0.6,0.1-1.2,0.3-1.6c0.2-0.4,0.6-0.8,1-1c0.4-0.2,0.9-0.3,1.5-0.3h2.3c0.6,0,1.1,0.1,1.5,0.3s0.7,0.6,0.9,1
			c0.2,0.4,0.3,1,0.3,1.6v5.3c0,0.9-0.2,1.6-0.7,2.1c-0.5,0.5-1.2,0.7-2,0.7H349.7z M350.2,37.9h1.2c0.4,0,0.7-0.1,0.9-0.3
			s0.3-0.5,0.3-0.9V32c0-0.4-0.1-0.7-0.3-0.9s-0.5-0.3-0.8-0.3h-1.3c-0.4,0-0.6,0.1-0.8,0.3S349,31.6,349,32v4.7
			c0,0.4,0.1,0.7,0.3,0.9C349.5,37.8,349.8,37.9,350.2,37.9z"/>
		<path class="st8" d="M357.9,34.7c-0.7,0-1.2-0.2-1.5-0.5c-0.3-0.3-0.4-0.8-0.4-1.4V31c0-0.6,0.1-1.1,0.4-1.4
			c0.3-0.3,0.8-0.5,1.6-0.5h1.5c0.7,0,1.2,0.2,1.5,0.5c0.3,0.3,0.4,0.8,0.4,1.4v1.7c0,0.6-0.1,1.1-0.4,1.4c-0.3,0.3-0.8,0.5-1.6,0.5
			H357.9z M358.2,33.3h1c0.3,0,0.6-0.1,0.7-0.2c0.1-0.1,0.2-0.4,0.2-0.6v-1.1c0-0.3-0.1-0.6-0.2-0.7s-0.3-0.2-0.6-0.2h-1
			c-0.3,0-0.5,0.1-0.6,0.2c-0.2,0.1-0.2,0.3-0.2,0.7v1.1c0,0.3,0.1,0.5,0.2,0.6C357.7,33.2,357.9,33.3,358.2,33.3z M358.5,39.8
			l6.6-10.7h1.4L360,39.8H358.5z M365.7,39.8c-0.7,0-1.2-0.2-1.5-0.5c-0.3-0.3-0.4-0.8-0.4-1.4v-1.7c0-0.6,0.1-1.1,0.4-1.4
			s0.8-0.5,1.5-0.5h1.5c0.7,0,1.2,0.2,1.5,0.5c0.3,0.3,0.4,0.8,0.4,1.4v1.7c0,0.6-0.1,1.1-0.4,1.4c-0.3,0.3-0.8,0.5-1.6,0.5H365.7z
			 M365.9,38.4h0.9c0.3,0,0.6-0.1,0.7-0.2s0.2-0.4,0.2-0.6v-1.1c0-0.3-0.1-0.6-0.2-0.7s-0.3-0.2-0.7-0.2H366c-0.3,0-0.5,0.1-0.6,0.2
			s-0.2,0.3-0.2,0.7v1.1c0,0.3,0.1,0.5,0.2,0.6S365.6,38.4,365.9,38.4z"/>
	</g>
	<g>
		<path class="st8" d="M438.4,39.8V31l-1.9,0.2v-1.4l2.2-0.9h1.9v10.9H438.4z"/>
		<path class="st8" d="M446,39.9c-0.6,0-1.2,0-1.9-0.1c-0.7,0-1.3-0.1-1.9-0.2V38h3.8c0.4,0,0.6-0.1,0.8-0.2s0.3-0.3,0.4-0.5
			c0.1-0.2,0.1-0.4,0.1-0.6V36c0-0.3-0.1-0.6-0.3-0.8c-0.2-0.2-0.5-0.3-0.9-0.3h-0.8c-0.3,0-0.6,0.1-0.7,0.2
			c-0.2,0.1-0.3,0.3-0.3,0.6h-2l0.3-6.7h6.5v1.9h-4.6l-0.1,2.6c0.1-0.2,0.3-0.3,0.6-0.4c0.3-0.1,0.5-0.1,0.9-0.1h1.2
			c0.6,0,1,0.1,1.4,0.3s0.6,0.5,0.8,0.9c0.2,0.4,0.3,0.8,0.3,1.3v1.6c0,0.6-0.1,1.2-0.4,1.6c-0.3,0.4-0.7,0.7-1.2,0.9
			S446.8,39.9,446,39.9z"/>
		<path class="st8" d="M452.8,34.7c-0.7,0-1.2-0.2-1.5-0.5c-0.3-0.3-0.4-0.8-0.4-1.4V31c0-0.6,0.1-1.1,0.4-1.4
			c0.3-0.3,0.8-0.5,1.6-0.5h1.5c0.7,0,1.2,0.2,1.5,0.5c0.3,0.3,0.4,0.8,0.4,1.4v1.7c0,0.6-0.1,1.1-0.4,1.4c-0.3,0.3-0.8,0.5-1.6,0.5
			H452.8z M453,33.3h1c0.3,0,0.6-0.1,0.7-0.2c0.1-0.1,0.2-0.4,0.2-0.6v-1.1c0-0.3-0.1-0.6-0.2-0.7s-0.3-0.2-0.6-0.2h-1
			c-0.3,0-0.5,0.1-0.6,0.2c-0.2,0.1-0.2,0.3-0.2,0.7v1.1c0,0.3,0.1,0.5,0.2,0.6C452.5,33.2,452.7,33.3,453,33.3z M453.3,39.8
			l6.6-10.7h1.4l-6.5,10.7H453.3z M460.5,39.8c-0.7,0-1.2-0.2-1.5-0.5c-0.3-0.3-0.4-0.8-0.4-1.4v-1.7c0-0.6,0.1-1.1,0.4-1.4
			s0.8-0.5,1.5-0.5h1.5c0.7,0,1.2,0.2,1.5,0.5c0.3,0.3,0.4,0.8,0.4,1.4v1.7c0,0.6-0.1,1.1-0.4,1.4c-0.3,0.3-0.8,0.5-1.6,0.5H460.5z
			 M460.8,38.4h0.9c0.3,0,0.6-0.1,0.7-0.2s0.2-0.4,0.2-0.6v-1.1c0-0.3-0.1-0.6-0.2-0.7s-0.3-0.2-0.7-0.2h-0.9
			c-0.3,0-0.5,0.1-0.6,0.2s-0.2,0.3-0.2,0.7v1.1c0,0.3,0.1,0.5,0.2,0.6S460.4,38.4,460.8,38.4z"/>
	</g>
	<g>
		<path class="st8" d="M28.9,81.4l3.1-9.9h2.5l3.1,9.9h-2.1l-0.6-2.1h-3.4l-0.6,2.1H28.9z M32.1,77.5h2.4l-1.2-4.3L32.1,77.5z"/>
		<path class="st8" d="M38.7,81.4v-9.9h2v9.9H38.7z"/>
		<path class="st8" d="M42.3,81.4v-7.2h1.5l0.5,1.1c0.3-0.3,0.6-0.6,0.9-0.8c0.3-0.2,0.7-0.3,1.2-0.3c0.1,0,0.2,0,0.3,0
			s0.2,0,0.3,0.1v2c-0.1,0-0.3,0-0.4,0c-0.1,0-0.3,0-0.4,0c-0.3,0-0.5,0-0.7,0.1s-0.4,0.1-0.6,0.3c-0.2,0.1-0.3,0.3-0.5,0.4v4.5
			h-2.1V81.4z"/>
		<path class="st8" d="M50.3,81.4c-0.6,0-1-0.1-1.4-0.4c-0.4-0.2-0.7-0.6-0.9-1.1s-0.3-1.2-0.3-2.1s0.1-1.6,0.2-2.2
			c0.2-0.6,0.4-1,0.8-1.2s0.9-0.4,1.6-0.4c0.3,0,0.7,0,1,0.1s0.6,0.1,0.9,0.2v-3.2h2v10.2h-1.7l-0.3-0.7c-0.2,0.1-0.3,0.3-0.6,0.4
			c-0.2,0.1-0.4,0.2-0.7,0.3C50.8,81.4,50.6,81.4,50.3,81.4z M51,79.9c0.3,0,0.5,0,0.7-0.1s0.4-0.2,0.5-0.3v-3.6
			c-0.2-0.1-0.4-0.1-0.6-0.2c-0.2-0.1-0.4-0.1-0.6-0.1c-0.3,0-0.6,0.1-0.8,0.2s-0.3,0.3-0.4,0.6c-0.1,0.3-0.1,0.8-0.1,1.4
			s0,1,0.1,1.3s0.2,0.5,0.4,0.6C50.5,79.8,50.7,79.9,51,79.9z"/>
		<path class="st8" d="M55.8,81.4v-7.2h1.5l0.5,1.1c0.3-0.3,0.6-0.6,0.9-0.8c0.3-0.2,0.7-0.3,1.2-0.3c0.1,0,0.2,0,0.3,0
			s0.2,0,0.3,0.1v2c-0.1,0-0.3,0-0.4,0c-0.1,0-0.3,0-0.4,0c-0.3,0-0.5,0-0.7,0.1s-0.4,0.1-0.6,0.3c-0.2,0.1-0.3,0.3-0.5,0.4v4.5
			h-2.1V81.4z"/>
		<path class="st8" d="M64.5,81.4c-0.6,0-1.1-0.1-1.5-0.2s-0.8-0.3-1-0.6c-0.3-0.3-0.5-0.7-0.6-1.1c-0.1-0.5-0.2-1.1-0.2-1.8
			c0-0.7,0.1-1.3,0.2-1.8c0.1-0.5,0.3-0.9,0.6-1.1c0.3-0.3,0.6-0.5,1-0.6s0.9-0.2,1.5-0.2c0.6,0,1.1,0.1,1.5,0.2s0.8,0.3,1,0.6
			c0.3,0.3,0.5,0.6,0.6,1.1s0.2,1.1,0.2,1.8c0,0.7-0.1,1.3-0.2,1.8c-0.1,0.5-0.3,0.9-0.6,1.1c-0.3,0.3-0.6,0.5-1,0.6
			C65.6,81.4,65.1,81.4,64.5,81.4z M64.5,79.9c0.2,0,0.4,0,0.6-0.1c0.2,0,0.3-0.1,0.4-0.3c0.1-0.1,0.2-0.3,0.2-0.6
			c0.1-0.3,0.1-0.7,0.1-1.1c0-0.5,0-0.8-0.1-1.1c-0.1-0.3-0.1-0.5-0.2-0.6c-0.1-0.1-0.2-0.2-0.4-0.3c-0.2,0-0.4-0.1-0.6-0.1
			c-0.2,0-0.4,0-0.6,0.1c-0.2,0-0.3,0.1-0.4,0.3c-0.1,0.1-0.2,0.3-0.2,0.6c0,0.3-0.1,0.7-0.1,1.1c0,0.5,0,0.8,0.1,1.1
			c0,0.3,0.1,0.5,0.2,0.6c0.1,0.1,0.2,0.2,0.4,0.3C64.1,79.8,64.3,79.9,64.5,79.9z"/>
		<path class="st8" d="M69.1,84.5V74.2h1.7l0.3,0.7c0.2-0.1,0.4-0.3,0.6-0.4c0.2-0.1,0.4-0.2,0.7-0.3c0.2-0.1,0.5-0.1,0.8-0.1
			c0.4,0,0.8,0.1,1.1,0.3c0.3,0.2,0.6,0.4,0.8,0.7c0.2,0.3,0.4,0.7,0.5,1.2s0.1,1,0.1,1.5c0,0.8-0.1,1.4-0.2,2
			c-0.2,0.6-0.4,1-0.8,1.3c-0.4,0.3-0.9,0.4-1.5,0.4c-0.3,0-0.7,0-1-0.1c-0.4-0.1-0.7-0.2-1-0.3v3.4H69.1z M72.5,79.8
			c0.2,0,0.4-0.1,0.6-0.2c0.2-0.1,0.3-0.3,0.4-0.6c0.1-0.3,0.2-0.7,0.2-1.3c0-0.5-0.1-1-0.2-1.3s-0.2-0.5-0.4-0.7
			c-0.2-0.1-0.4-0.2-0.6-0.2c-0.3,0-0.5,0-0.8,0.1c-0.2,0.1-0.4,0.2-0.6,0.3v3.6c0.2,0.1,0.4,0.2,0.6,0.3
			C72,79.8,72.2,79.8,72.5,79.8z"/>
		<path class="st8" d="M79.6,81.4c-0.2,0-0.5,0-0.7,0c-0.3,0-0.5,0-0.8-0.1s-0.5-0.1-0.7-0.1s-0.4-0.1-0.6-0.1v-1.2H80
			c0.2,0,0.3,0,0.5,0c0.1,0,0.2-0.1,0.3-0.2s0.1-0.2,0.1-0.4v-0.2c0-0.2-0.1-0.3-0.2-0.4c-0.1-0.1-0.3-0.1-0.6-0.1H79
			c-0.4,0-0.8-0.1-1.1-0.2s-0.6-0.3-0.8-0.6c-0.2-0.3-0.3-0.7-0.3-1.2v-0.4c0-0.5,0.1-0.8,0.3-1.2c0.2-0.3,0.5-0.5,0.9-0.7
			s1-0.2,1.7-0.2c0.3,0,0.6,0,0.9,0s0.7,0.1,0.9,0.1c0.3,0,0.5,0.1,0.7,0.2v1.2h-3c-0.3,0-0.5,0-0.6,0.1s-0.2,0.2-0.2,0.5v0.2
			c0,0.2,0,0.3,0.1,0.4s0.2,0.1,0.3,0.2s0.3,0,0.5,0h1.1c0.7,0,1.3,0.2,1.6,0.5s0.5,0.8,0.5,1.4v0.6c0,0.5-0.1,0.9-0.3,1.1
			c-0.2,0.3-0.6,0.5-1,0.6C80.7,81.4,80.2,81.4,79.6,81.4z"/>
		<path class="st8" d="M82.9,82.3L86.7,71h2l-3.8,11.3H82.9z"/>
		<path class="st8" d="M92.5,81.4c-0.6,0-1.1-0.1-1.5-0.4s-0.7-0.6-0.9-1s-0.4-1-0.5-1.6s-0.1-1.3-0.1-2.1c0-0.8,0.1-1.5,0.2-2.1
			s0.3-1.2,0.5-1.6c0.3-0.4,0.6-0.8,1.1-1s1.1-0.3,1.8-0.3c0.5,0,0.9,0,1.3,0.1c0.4,0,0.7,0.1,1.1,0.2c0.3,0.1,0.7,0.1,1,0.2v1.5
			c-0.2,0-0.4-0.1-0.7-0.1s-0.7-0.1-1-0.1c-0.4,0-0.8,0-1.2,0c-0.6,0-1,0.1-1.3,0.3c-0.3,0.2-0.5,0.5-0.6,1s-0.2,1.1-0.2,2
			c0,0.6,0,1.2,0.1,1.6s0.2,0.7,0.3,1c0.1,0.2,0.3,0.4,0.5,0.5s0.5,0.1,0.8,0.1c0.4,0,0.7,0,1-0.1s0.6-0.1,0.8-0.2v-1.9h-1.8v-1.6
			c0.2,0,0.4,0,0.7-0.1c0.3,0,0.5,0,0.8,0s0.6,0,0.8,0c0.3,0,0.5,0,0.8,0c0.2,0,0.4,0,0.6,0v5.6h-1.5l-0.3-0.7
			c-0.3,0.2-0.6,0.3-1.1,0.5C93.6,81.3,93.1,81.4,92.5,81.4z"/>
		<path class="st8" d="M98.8,73.1c-0.2,0-0.3-0.1-0.3-0.3v-1.3c0-0.2,0.1-0.3,0.3-0.3h1.5c0.1,0,0.1,0,0.2,0.1
			c0,0.1,0.1,0.1,0.1,0.2v1.3c0,0.2-0.1,0.3-0.3,0.3H98.8z M98.5,81.4v-7.2h2v7.2H98.5z"/>
		<path class="st8" d="M103.8,81.4l-2.4-7.2h2l1.6,5.3l1.6-5.3h2l-2.5,7.2H103.8z"/>
		<path class="st8" d="M112.3,81.4c-0.8,0-1.4-0.1-1.9-0.3c-0.5-0.2-0.8-0.6-1-1.1s-0.3-1.3-0.3-2.2c0-1,0.1-1.7,0.3-2.3
			c0.2-0.5,0.5-0.9,1-1.1s1.1-0.3,1.9-0.3c0.7,0,1.3,0.1,1.7,0.2s0.7,0.4,0.9,0.7c0.2,0.4,0.3,0.9,0.3,1.5c0,0.5-0.1,0.9-0.3,1.1
			c-0.2,0.3-0.5,0.5-0.8,0.6s-0.8,0.2-1.2,0.2h-1.8c0,0.4,0.1,0.7,0.2,0.9c0.1,0.2,0.3,0.4,0.5,0.5c0.3,0.1,0.6,0.1,1.1,0.1h2.1v1.2
			c-0.3,0.1-0.7,0.1-1.1,0.2C113.4,81.4,112.9,81.4,112.3,81.4z M111,77.3h1.6c0.3,0,0.5-0.1,0.6-0.2s0.2-0.3,0.2-0.6
			c0-0.3,0-0.5-0.1-0.6c-0.1-0.2-0.2-0.3-0.4-0.3c-0.2-0.1-0.4-0.1-0.7-0.1s-0.5,0.1-0.7,0.2s-0.3,0.3-0.4,0.5
			C111.1,76.5,111,76.8,111,77.3z"/>
		<path class="st8" d="M118,81.4c-0.5,0-1-0.2-1.3-0.5s-0.5-0.8-0.5-1.3V79c0-0.5,0.2-1,0.6-1.3c0.4-0.4,1-0.5,1.8-0.5h1.8v-0.5
			c0-0.2,0-0.4-0.1-0.6c-0.1-0.1-0.2-0.3-0.4-0.3c-0.2-0.1-0.6-0.1-1-0.1h-2.2v-1.2c0.3-0.1,0.8-0.2,1.2-0.3c0.5-0.1,1-0.1,1.7-0.1
			c0.6,0,1.1,0.1,1.5,0.2s0.7,0.4,1,0.7c0.2,0.3,0.3,0.8,0.3,1.4v4.9h-1.6l-0.3-0.8c-0.1,0.1-0.2,0.2-0.3,0.2
			c-0.2,0.1-0.3,0.2-0.6,0.3c-0.2,0.1-0.5,0.2-0.7,0.2C118.6,81.4,118.3,81.4,118,81.4z M119,80.1c0.1,0,0.2,0,0.3,0s0.2,0,0.3-0.1
			c0.1,0,0.2-0.1,0.3-0.1s0.2-0.1,0.3-0.1s0.1,0,0.1-0.1V78l-1.2,0.1c-0.3,0-0.6,0.1-0.8,0.3s-0.2,0.4-0.2,0.6v0.3
			c0,0.2,0,0.3,0.1,0.4s0.2,0.2,0.3,0.2C118.7,80,118.8,80.1,119,80.1z"/>
		<path class="st8" d="M125.1,81.4l-1.9-7.2h2l1.1,5.3l1.4-5.3h1.6l1.4,5.3l1-5.3h2l-1.9,7.2h-2.2l-1.3-4.4l-1.3,4.4H125.1z"/>
		<path class="st8" d="M136.1,81.4c-0.5,0-1-0.2-1.3-0.5s-0.5-0.8-0.5-1.3V79c0-0.5,0.2-1,0.6-1.3c0.4-0.4,1-0.5,1.8-0.5h1.8v-0.5
			c0-0.2,0-0.4-0.1-0.6c-0.1-0.1-0.2-0.3-0.4-0.3c-0.2-0.1-0.6-0.1-1-0.1h-2.2v-1.2c0.3-0.1,0.8-0.2,1.2-0.3c0.5-0.1,1-0.1,1.7-0.1
			c0.6,0,1.1,0.1,1.5,0.2s0.7,0.4,1,0.7c0.2,0.3,0.3,0.8,0.3,1.4v4.9h-1.6l-0.3-0.8c-0.1,0.1-0.2,0.2-0.3,0.2
			c-0.2,0.1-0.3,0.2-0.6,0.3c-0.2,0.1-0.5,0.2-0.7,0.2C136.7,81.4,136.4,81.4,136.1,81.4z M137.1,80.1c0.1,0,0.2,0,0.3,0
			s0.2,0,0.3-0.1c0.1,0,0.2-0.1,0.3-0.1s0.2-0.1,0.3-0.1s0.1,0,0.1-0.1V78l-1.2,0.1c-0.3,0-0.6,0.1-0.8,0.3s-0.2,0.4-0.2,0.6v0.3
			c0,0.2,0,0.3,0.1,0.4s0.2,0.2,0.3,0.2C136.8,80,137,80.1,137.1,80.1z"/>
		<path class="st8" d="M144.2,84.5l0.8-3.2c-0.4,0-0.8-0.1-1.1-0.2c-0.3-0.2-0.6-0.4-0.8-0.6c-0.2-0.3-0.4-0.6-0.5-1l-1.4-5.3h2.1
			l1.1,4.9c0,0.2,0.1,0.3,0.2,0.4c0.1,0.1,0.1,0.2,0.2,0.2c0.1,0,0.2,0.1,0.2,0.1c0.1,0,0.1,0,0.2,0l1.3-5.6h2l-2.1,9l-0.6,1.3
			C145.8,84.5,144.2,84.5,144.2,84.5z"/>
		<path class="st8" d="M152.2,81.4c-0.2,0-0.5,0-0.7,0c-0.3,0-0.5,0-0.8-0.1s-0.5-0.1-0.7-0.1s-0.4-0.1-0.6-0.1v-1.2h3.2
			c0.2,0,0.3,0,0.5,0c0.1,0,0.2-0.1,0.3-0.2s0.1-0.2,0.1-0.4v-0.2c0-0.2-0.1-0.3-0.2-0.4c-0.1-0.1-0.3-0.1-0.6-0.1h-1.1
			c-0.4,0-0.8-0.1-1.1-0.2s-0.6-0.3-0.8-0.6c-0.2-0.3-0.3-0.7-0.3-1.2v-0.4c0-0.5,0.1-0.8,0.3-1.2c0.2-0.3,0.5-0.5,0.9-0.7
			s1-0.2,1.7-0.2c0.3,0,0.6,0,0.9,0s0.7,0.1,0.9,0.1c0.3,0,0.5,0.1,0.7,0.2v1.2h-3c-0.3,0-0.5,0-0.6,0.1s-0.2,0.2-0.2,0.5v0.2
			c0,0.2,0,0.3,0.1,0.4s0.2,0.1,0.3,0.2s0.3,0,0.5,0h1.1c0.7,0,1.3,0.2,1.6,0.5s0.5,0.8,0.5,1.4v0.6c0,0.5-0.1,0.9-0.3,1.1
			c-0.2,0.3-0.6,0.5-1,0.6C153.3,81.4,152.8,81.4,152.2,81.4z"/>
	</g>
	<g>
		<path class="st8" d="M197.9,81.3v-9.9h2v9.9H197.9z"/>
		<path class="st8" d="M201.5,81.3v-7.2h1.6l0.3,0.7c0.3-0.2,0.6-0.4,1-0.6s0.8-0.3,1.2-0.3c0.6,0,1,0.1,1.4,0.3
			c0.3,0.2,0.5,0.5,0.7,0.9c0.1,0.4,0.2,0.8,0.2,1.3v4.7h-2v-4.5c0-0.2,0-0.4-0.1-0.6s-0.2-0.3-0.4-0.3c-0.2-0.1-0.3-0.1-0.5-0.1
			s-0.4,0-0.5,0.1s-0.3,0.1-0.5,0.2s-0.3,0.2-0.4,0.3v5L201.5,81.3L201.5,81.3z"/>
		<path class="st8" d="M209.7,73c-0.2,0-0.3-0.1-0.3-0.3v-1.3c0-0.2,0.1-0.3,0.3-0.3h1.5c0.1,0,0.1,0,0.2,0.1c0,0.1,0.1,0.1,0.1,0.2
			v1.3c0,0.2-0.1,0.3-0.3,0.3H209.7z M209.4,81.3v-7.2h2v7.2H209.4z"/>
		<path class="st8" d="M215.6,81.3c-0.6,0-1-0.1-1.3-0.2c-0.3-0.2-0.6-0.4-0.7-0.8c-0.2-0.4-0.2-0.9-0.2-1.5l0.1-3h-1.1v-1.4
			l1.2-0.3l0.3-2h1.6v2h1.7v1.6h-1.7v3c0,0.2,0,0.4,0.1,0.5c0,0.1,0.1,0.2,0.2,0.3c0.1,0.1,0.1,0.1,0.2,0.2c0.1,0,0.2,0.1,0.3,0.1
			l0.9,0.1v1.5L215.6,81.3L215.6,81.3z"/>
		<path class="st8" d="M218.4,73c-0.2,0-0.3-0.1-0.3-0.3v-1.3c0-0.2,0.1-0.3,0.3-0.3h1.5c0.1,0,0.1,0,0.2,0.1c0,0.1,0.1,0.1,0.1,0.2
			v1.3c0,0.2-0.1,0.3-0.3,0.3H218.4z M218.1,81.3v-7.2h2v7.2H218.1z"/>
		<path class="st8" d="M223.1,81.3c-0.5,0-1-0.2-1.3-0.5s-0.5-0.8-0.5-1.3v-0.6c0-0.5,0.2-1,0.6-1.3c0.4-0.4,1-0.5,1.8-0.5h1.8v-0.5
			c0-0.2,0-0.4-0.1-0.6c-0.1-0.1-0.2-0.3-0.4-0.3c-0.2-0.1-0.5-0.1-1-0.1h-2.2v-1.2c0.3-0.1,0.8-0.2,1.2-0.3s1-0.1,1.7-0.1
			c0.6,0,1.1,0.1,1.5,0.2s0.7,0.4,1,0.7c0.2,0.3,0.3,0.8,0.3,1.4v4.9h-1.6l-0.3-0.8c-0.1,0.1-0.2,0.2-0.3,0.2
			c-0.2,0.1-0.3,0.2-0.6,0.3s-0.5,0.2-0.7,0.2C223.7,81.3,223.4,81.3,223.1,81.3z M224.2,80c0.1,0,0.2,0,0.3,0c0.1,0,0.2,0,0.3-0.1
			s0.2-0.1,0.3-0.1c0.1,0,0.2-0.1,0.3-0.1c0.1,0,0.1,0,0.1-0.1v-1.7l-1.2,0.1c-0.3,0-0.6,0.1-0.8,0.3c-0.2,0.2-0.2,0.4-0.2,0.6v0.3
			c0,0.2,0,0.3,0.1,0.4s0.2,0.2,0.3,0.2C223.8,79.9,224,80,224.2,80z"/>
		<path class="st8" d="M231.2,81.3c-0.5,0-0.9-0.1-1.3-0.2s-0.6-0.4-0.7-0.8C229,80,229,79.5,229,79v-7.9h2v7.6c0,0.3,0,0.5,0.1,0.6
			c0.1,0.2,0.1,0.3,0.2,0.3c0.1,0.1,0.3,0.1,0.4,0.1l0.5,0.1v1.4h-1V81.3z"/>
		<path class="st8" d="M238.8,81.3v-8.1h-2.7v-1.8h7.4v1.8h-2.7v8.1H238.8z"/>
		<path class="st8" d="M246.9,81.3c-0.6,0-1.1-0.1-1.5-0.2s-0.8-0.3-1-0.6c-0.3-0.3-0.5-0.7-0.6-1.1c-0.1-0.5-0.2-1.1-0.2-1.8
			c0-0.7,0.1-1.3,0.2-1.8s0.3-0.9,0.6-1.1c0.3-0.3,0.6-0.5,1-0.6s0.9-0.2,1.5-0.2s1.1,0.1,1.5,0.2s0.8,0.3,1,0.6
			c0.3,0.3,0.5,0.6,0.6,1.1s0.2,1.1,0.2,1.8c0,0.7-0.1,1.3-0.2,1.8s-0.3,0.9-0.6,1.1s-0.6,0.5-1,0.6C248,81.3,247.5,81.3,246.9,81.3
			z M246.9,79.8c0.2,0,0.4,0,0.6-0.1c0.2,0,0.3-0.1,0.4-0.3c0.1-0.1,0.2-0.3,0.2-0.6c0.1-0.3,0.1-0.7,0.1-1.1c0-0.5,0-0.8-0.1-1.1
			c-0.1-0.3-0.1-0.5-0.2-0.6s-0.2-0.2-0.4-0.3c-0.2,0-0.4-0.1-0.6-0.1s-0.4,0-0.6,0.1c-0.2,0-0.3,0.1-0.4,0.3
			c-0.1,0.1-0.2,0.3-0.2,0.6c0,0.3-0.1,0.7-0.1,1.1c0,0.5,0,0.8,0.1,1.1s0.1,0.5,0.2,0.6s0.2,0.2,0.4,0.3
			C246.4,79.7,246.6,79.8,246.9,79.8z"/>
		<path class="st8" d="M251.5,81.3V71.1h2v5.5h0.8l1.6-2.5h2l-2.1,3.4l2.3,3.8h-2l-1.8-2.9h-0.8v2.9H251.5z"/>
		<path class="st8" d="M261.9,81.3c-0.8,0-1.4-0.1-1.9-0.3c-0.5-0.2-0.8-0.6-1-1.1s-0.3-1.3-0.3-2.2c0-1,0.1-1.7,0.3-2.3
			c0.2-0.5,0.5-0.9,1-1.1s1.1-0.3,1.9-0.3c0.7,0,1.3,0.1,1.7,0.2c0.4,0.1,0.7,0.4,0.9,0.7c0.2,0.4,0.3,0.9,0.3,1.5
			c0,0.5-0.1,0.9-0.3,1.1c-0.2,0.3-0.5,0.5-0.8,0.6s-0.8,0.2-1.2,0.2h-1.9c0,0.4,0.1,0.7,0.2,0.9c0.1,0.2,0.3,0.4,0.5,0.5
			c0.3,0.1,0.6,0.1,1.1,0.1h2.1V81c-0.3,0.1-0.7,0.1-1.1,0.2C263,81.3,262.5,81.3,261.9,81.3z M260.6,77.2h1.6
			c0.3,0,0.5-0.1,0.6-0.2s0.2-0.3,0.2-0.6c0-0.3,0-0.5-0.1-0.6c-0.1-0.2-0.2-0.3-0.4-0.3c-0.2-0.1-0.4-0.1-0.7-0.1
			c-0.3,0-0.5,0.1-0.7,0.2s-0.3,0.3-0.4,0.5C260.7,76.4,260.6,76.7,260.6,77.2z"/>
		<path class="st8" d="M266.1,81.3v-7.2h1.6l0.3,0.7c0.3-0.2,0.6-0.4,1-0.6s0.8-0.3,1.2-0.3c0.6,0,1,0.1,1.4,0.3
			c0.3,0.2,0.5,0.5,0.7,0.9c0.1,0.4,0.2,0.8,0.2,1.3v4.7h-2v-4.5c0-0.2,0-0.4-0.1-0.6s-0.2-0.3-0.4-0.3c-0.2-0.1-0.3-0.1-0.5-0.1
			s-0.4,0-0.5,0.1s-0.3,0.1-0.5,0.2s-0.3,0.2-0.4,0.3v5L266.1,81.3L266.1,81.3z"/>
		<path class="st8" d="M280.6,81.3c-0.3,0-0.5,0-0.8,0s-0.5,0-0.8-0.1c-0.3,0-0.5-0.1-0.8-0.1c-0.2,0-0.5-0.1-0.7-0.1v-1.6
			c0.3,0,0.6,0,0.9,0.1c0.3,0,0.7,0,1.1,0s0.7,0,1,0s0.6,0,0.9-0.1s0.4-0.2,0.6-0.3s0.2-0.3,0.2-0.6v-0.4c0-0.3-0.1-0.5-0.3-0.7
			c-0.2-0.2-0.4-0.2-0.7-0.2h-0.8c-0.9,0-1.7-0.2-2.2-0.6s-0.8-1.1-0.8-2.1V74c0-1,0.3-1.7,0.8-2.1c0.6-0.4,1.3-0.7,2.4-0.7
			c0.4,0,0.7,0,1.1,0.1c0.4,0,0.7,0.1,1,0.1s0.6,0.1,0.9,0.2v1.6c-0.4,0-0.9-0.1-1.4-0.1s-1,0-1.4,0c-0.3,0-0.6,0-0.8,0.1
			s-0.4,0.2-0.5,0.3c-0.1,0.2-0.2,0.4-0.2,0.7v0.2c0,0.3,0.1,0.6,0.3,0.7c0.2,0.2,0.5,0.2,0.9,0.2h1c0.6,0,1.1,0.1,1.5,0.3
			s0.7,0.5,0.9,0.9c0.2,0.4,0.3,0.8,0.3,1.3v0.6c0,0.8-0.1,1.4-0.4,1.8s-0.7,0.7-1.2,0.8C281.8,81.3,281.2,81.3,280.6,81.3z"/>
		<path class="st8" d="M287.4,81.3c-0.6,0-1.1-0.2-1.5-0.6s-0.5-0.9-0.5-1.6V74h2v4.5c0,0.4,0.1,0.7,0.3,0.8
			c0.2,0.1,0.4,0.2,0.8,0.2c0.2,0,0.5,0,0.8-0.1s0.5-0.2,0.7-0.4v-5h2v7.2h-1.6l-0.3-0.7c-0.3,0.2-0.7,0.4-1.1,0.6
			C288.3,81.3,287.9,81.3,287.4,81.3z"/>
		<path class="st8" d="M293.3,84.4V74.1h1.7l0.3,0.7c0.2-0.1,0.4-0.3,0.6-0.4s0.4-0.2,0.7-0.3c0.2-0.1,0.5-0.1,0.8-0.1
			c0.4,0,0.8,0.1,1.1,0.3c0.3,0.2,0.6,0.4,0.8,0.7c0.2,0.3,0.4,0.7,0.5,1.2s0.1,1,0.1,1.5c0,0.8-0.1,1.4-0.2,2
			c-0.2,0.6-0.4,1-0.8,1.3s-0.9,0.4-1.5,0.4c-0.3,0-0.7,0-1-0.1c-0.4-0.1-0.7-0.2-1-0.3v3.4H293.3z M296.6,79.7
			c0.2,0,0.4-0.1,0.6-0.2s0.3-0.3,0.4-0.6c0.1-0.3,0.2-0.7,0.2-1.3c0-0.5-0.1-1-0.2-1.3s-0.2-0.5-0.4-0.7c-0.2-0.1-0.4-0.2-0.6-0.2
			c-0.3,0-0.5,0-0.8,0.1c-0.2,0.1-0.4,0.2-0.6,0.3v3.6c0.2,0.1,0.4,0.2,0.6,0.3C296.2,79.7,296.4,79.7,296.6,79.7z"/>
		<path class="st8" d="M301.1,84.4V74.1h1.7l0.3,0.7c0.2-0.1,0.4-0.3,0.6-0.4s0.4-0.2,0.7-0.3c0.2-0.1,0.5-0.1,0.8-0.1
			c0.4,0,0.8,0.1,1.1,0.3c0.3,0.2,0.6,0.4,0.8,0.7c0.2,0.3,0.4,0.7,0.5,1.2s0.1,1,0.1,1.5c0,0.8-0.1,1.4-0.2,2
			c-0.2,0.6-0.4,1-0.8,1.3s-0.9,0.4-1.5,0.4c-0.3,0-0.7,0-1-0.1c-0.4-0.1-0.7-0.2-1-0.3v3.4H301.1z M304.5,79.7
			c0.2,0,0.4-0.1,0.6-0.2s0.3-0.3,0.4-0.6c0.1-0.3,0.2-0.7,0.2-1.3c0-0.5-0.1-1-0.2-1.3s-0.2-0.5-0.4-0.7c-0.2-0.1-0.4-0.2-0.6-0.2
			c-0.3,0-0.5,0-0.8,0.1c-0.2,0.1-0.4,0.2-0.6,0.3v3.6c0.2,0.1,0.4,0.2,0.6,0.3C304,79.7,304.2,79.7,304.5,79.7z"/>
		<path class="st8" d="M311.2,81.3c-0.5,0-0.9-0.1-1.3-0.2s-0.6-0.4-0.7-0.8C309,80,309,79.5,309,79v-7.9h2v7.6c0,0.3,0,0.5,0.1,0.6
			c0.1,0.2,0.1,0.3,0.2,0.3c0.1,0.1,0.3,0.1,0.4,0.1l0.5,0.1v1.4h-1V81.3z"/>
		<path class="st8" d="M315.4,84.4l0.8-3.2c-0.4,0-0.8-0.1-1.1-0.2c-0.3-0.2-0.6-0.4-0.8-0.6c-0.2-0.3-0.4-0.6-0.5-1l-1.4-5.3h2.1
			l1.1,4.9c0,0.2,0.1,0.3,0.2,0.4s0.1,0.2,0.2,0.2s0.2,0.1,0.2,0.1c0.1,0,0.1,0,0.2,0l1.3-5.6h2l-2.1,9l-0.6,1.3
			C317,84.4,315.4,84.4,315.4,84.4z"/>
	</g>
	<g>
		<path class="st8" d="M394.9,82.7v-8.1h-2.7v-1.8h7.4v1.8h-2.7v8.1H394.9z"/>
		<path class="st8" d="M403,82.7c-0.8,0-1.4-0.1-1.9-0.3c-0.5-0.2-0.8-0.6-1-1.1s-0.3-1.3-0.3-2.2c0-1,0.1-1.7,0.3-2.3
			c0.2-0.5,0.5-0.9,1-1.1s1.1-0.3,1.9-0.3c0.7,0,1.3,0.1,1.7,0.2c0.4,0.1,0.7,0.4,0.9,0.7c0.2,0.4,0.3,0.9,0.3,1.5
			c0,0.5-0.1,0.9-0.3,1.1c-0.2,0.3-0.5,0.5-0.8,0.6s-0.8,0.2-1.2,0.2h-1.8c0,0.4,0.1,0.7,0.2,0.9c0.1,0.2,0.3,0.4,0.5,0.5
			c0.3,0.1,0.6,0.1,1.1,0.1h2.1v1.2c-0.3,0.1-0.7,0.1-1.1,0.2C404,82.7,403.5,82.7,403,82.7z M401.7,78.6h1.6c0.3,0,0.5-0.1,0.6-0.2
			s0.2-0.3,0.2-0.6c0-0.3,0-0.5-0.1-0.6c-0.1-0.2-0.2-0.3-0.4-0.3c-0.2-0.1-0.4-0.1-0.7-0.1c-0.3,0-0.5,0.1-0.7,0.2
			s-0.3,0.3-0.4,0.5C401.7,77.8,401.7,78.1,401.7,78.6z"/>
		<path class="st8" d="M408.7,82.7c-0.5,0-1-0.2-1.3-0.5s-0.5-0.8-0.5-1.3v-0.6c0-0.5,0.2-1,0.6-1.3c0.4-0.4,1-0.5,1.8-0.5h1.8V78
			c0-0.2,0-0.4-0.1-0.6c-0.1-0.1-0.2-0.3-0.4-0.3c-0.2-0.1-0.5-0.1-1-0.1h-2.2v-1.2c0.3-0.1,0.8-0.2,1.2-0.3s1-0.1,1.7-0.1
			c0.6,0,1.1,0.1,1.5,0.2s0.7,0.4,1,0.7c0.2,0.3,0.3,0.8,0.3,1.4v4.9h-1.6l-0.3-0.8c-0.1,0.1-0.2,0.2-0.3,0.2
			c-0.2,0.1-0.3,0.2-0.6,0.3s-0.5,0.2-0.7,0.2C409.2,82.7,409,82.7,408.7,82.7z M409.7,81.4c0.1,0,0.2,0,0.3,0c0.1,0,0.2,0,0.3-0.1
			s0.2-0.1,0.3-0.1c0.1,0,0.2-0.1,0.3-0.1c0.1,0,0.1,0,0.1-0.1v-1.7l-1.2,0.1c-0.3,0-0.6,0.1-0.8,0.3c-0.2,0.2-0.2,0.4-0.2,0.6v0.3
			c0,0.2,0,0.3,0.1,0.4s0.2,0.2,0.3,0.2C409.4,81.3,409.5,81.4,409.7,81.4z"/>
		<path class="st8" d="M414.5,82.7v-7.2h1.6l0.3,0.7c0.3-0.2,0.7-0.4,1-0.6c0.4-0.2,0.8-0.3,1.4-0.3c0.5,0,0.8,0.1,1.1,0.3
			s0.5,0.4,0.7,0.7c0.2-0.2,0.4-0.3,0.7-0.5c0.3-0.2,0.6-0.3,0.9-0.4s0.6-0.2,0.9-0.2c0.6,0,1,0.1,1.4,0.3s0.6,0.5,0.7,0.9
			s0.2,0.9,0.2,1.4v4.7h-2V78c0-0.2,0-0.4-0.1-0.6s-0.2-0.3-0.4-0.3c-0.2-0.1-0.3-0.1-0.5-0.1c-0.3,0-0.5,0.1-0.8,0.2
			s-0.5,0.2-0.7,0.4c0,0.1,0,0.2,0,0.3c0,0.1,0,0.2,0,0.3v4.4h-2v-4.5c0-0.2,0-0.4-0.1-0.6s-0.2-0.3-0.4-0.3
			c-0.2-0.1-0.3-0.1-0.5-0.1s-0.4,0-0.5,0.1s-0.3,0.1-0.5,0.2s-0.3,0.2-0.4,0.3v5C416.5,82.7,414.5,82.7,414.5,82.7z"/>
	</g>
</g>
</svg>
