<svg xmlns="http://www.w3.org/2000/svg" viewBox="0 0 363.98 137.77"><g id="Layer_2" data-name="Layer 2"><g id="_1" data-name="1"><path d="M14.58,19.25C24.53,6.47,38,0,54.67,0S84.81,6.47,94.75,19.25c.87,1.11,1.68,2.26,2.47,3.44-9.28-10.58-21.67-16-36.88-16-15.76,0-28.51,5.77-37.9,17.13S8.51,50.2,8.51,68.84s4.69,33.87,13.93,45.07C31.82,125.28,44.57,131,60.34,131c15.21,0,27.6-5.38,36.88-16-.79,1.18-1.6,2.34-2.47,3.45-9.94,12.77-23.43,19.24-40.08,19.24s-30.14-6.47-40.09-19.24C4.91,106.1,0,89.38,0,68.84S4.91,31.68,14.58,19.25Z" style="fill:#fff"/><path d="M72.51,101.87c4.62-7.47,7-18.59,7-33s-2.34-25.46-7-32.93c-4.11-6.65-9.55-9.84-17.08-10a28.2,28.2,0,0,1,5-.42c8.83,0,15.42,3.52,20.17,10.76C85.48,43.74,88,54.71,88,68.84s-2.5,25.2-7.43,32.72c-4.75,7.23-11.34,10.75-20.17,10.75a29.2,29.2,0,0,1-5-.41C63,111.71,68.4,108.51,72.51,101.87Z" style="fill:#fff"/><path d="M95,24.51Q81.93,9.59,60.34,9.57q-22.43,0-35.71,16.1T11.34,68.84q0,27.18,13.29,43.27T60.34,128.2q21.6,0,34.7-14.93a35.88,35.88,0,0,1-17.83,7.78,31.78,31.78,0,0,0,20.7-14.31c6-9.09,9-21.84,9-37.9s-3-28.72-9-37.8a31.83,31.83,0,0,0-20.7-14.32A35.89,35.89,0,0,1,95,24.51ZM62.72,16.67A31.44,31.44,0,0,0,44.18,27.73a25.89,25.89,0,0,1,16.21-5.1q14.64,0,22.53,12t7.9,34.18q0,22.23-7.9,34.27t-22.53,12a26,26,0,0,1-16.21-5.1,31.41,31.41,0,0,0,18.54,11,35.94,35.94,0,0,1-23.53-13.21c-7.82-9.46-11.78-22.6-11.78-39s4-29.5,11.78-39A36,36,0,0,1,62.72,16.67Z" style="fill:#fff"/><path d="M117.75,122V98.34l15.82-15.82L117.75,66.69V42.85h15.82V58.78L149.28,74.6h7.91L173,58.78V42.85h15.7V66.69L173,82.52l15.7,15.82V122H173V106.13l-15.82-15.7h-7.91l-15.71,15.7V122Z" style="fill:#fff"/><path d="M198.88,122V42.85H214.7l27.57,38.31,28-38.31h15.26V122H269.74V68.62L249.05,99H235.83L214.7,68.62V122Z" style="fill:#fff"/><path d="M296.85,122V42.85H364V58.67H312.67V74.6H360V90.43H312.67v15.7H364V122Z" style="fill:#fff"/></g></g></svg>