<svg id="Layer_1" data-name="Layer 1" xmlns="http://www.w3.org/2000/svg" xmlns:xlink="http://www.w3.org/1999/xlink" width="227.22" height="51.28" viewBox="0 0 227.22 51.28"><defs><style>.cls-1{fill:#ffbfd9;}.cls-2{fill:url(#linear-gradient);}.cls-3{fill:#f25a4f;}.cls-4{opacity:0.61;}.cls-5{fill:#fff;}</style><linearGradient id="linear-gradient" x1="79.99" y1="-32.26" x2="147.85" y2="85.29" gradientUnits="userSpaceOnUse"><stop offset="0" stop-color="#f59d86"/><stop offset="0.5" stop-color="#ffbfd9"/><stop offset="1" stop-color="#f59d86"/></linearGradient></defs><path class="cls-1" d="M226.86,24.15A24.88,24.88,0,0,1,202,47.8H25.82A24.89,24.89,0,0,1,1,24.16,24.89,24.89,0,0,1,25.82.5H202A24.88,24.88,0,0,1,226.86,24.15Z"/><path class="cls-2" d="M226.86,26.52A24.87,24.87,0,0,1,202,50.16H25.82A24.88,24.88,0,0,1,1,26.52,24.87,24.87,0,0,1,25.82,2.87H202A24.88,24.88,0,0,1,226.86,26.52Z"/><path class="cls-3" d="M226.89,27.74A24.87,24.87,0,0,1,202,52.62H25.82A24.87,24.87,0,0,1,.94,27.74c0-.2,0-.41,0-.61s0-.17,0-.25,0-.24,0-.36A24.88,24.88,0,0,0,25.82,50.16H202a24.87,24.87,0,0,0,24.84-23.64l0,.36a2.18,2.18,0,0,0,0,.25Z"/><g id="Layer_2" data-name="Layer 2"><g id="Layer_2-2" data-name="Layer 2-2"><g class="cls-4"><path d="M49.44,18.47A25.39,25.39,0,0,1,57,17.33c4.81,0,8.47,1.5,8.47,4.4,0,1.89-1.37,3.23-3.5,4.75,3.3.31,5.59,1.72,5.59,4.62,0,4.73-7.21,7-13.27,7a20.64,20.64,0,0,1-3.77-.32Zm6,7.34c2.25-.08,4.11-1.13,4.11-2.56,0-1.23-1.08-1.86-2.67-1.86a4.14,4.14,0,0,0-1.86.44Zm.94,7.74c2.46-.08,4.65-1,4.65-2.51,0-1.18-1-1.59-2.54-1.59a6.39,6.39,0,0,0-2.48.46Z"/><path d="M86.13,17.56a39.48,39.48,0,0,1,.27,4.86c0,9.07-2.24,16.42-8.57,16.42-5.76,0-9.35-8.37-9.35-17.49a34.25,34.25,0,0,1,.21-3.79l7.19.6a31.5,31.5,0,0,0-.26,4.23c0,5.57.78,9.23,2.82,9.23s3.06-2.87,3.06-7.37a37.44,37.44,0,0,0-.66-6.68Z"/><path d="M93.39,38.18l.28-8.25-7.22-9.35L92,16.78l5.27,7.87,4-7.71,5.35,2-6.23,11,.11,8.41Z"/><path d="M131.51,38.64l-7.46-11.58.49,11-5.84-.59L118.2,19l6.36-1.2L130,28.1l-.39-10.41,6.86-.37L134.59,38Z"/><path d="M137.87,27.82c0-5.91,4.28-11,9.93-11s10,4.89,10,10.93c0,5.75-4.39,10.83-10.07,10.83S137.87,33.64,137.87,27.82Zm13.83.32c0-2.51-1.49-4.69-3.76-4.69a4.46,4.46,0,0,0-4.19,4.72v0c0,2.67,1.33,4.65,4.1,4.65,2.45,0,3.84-2.21,3.84-4.72Z"/><path d="M171,38.34,168.6,30l-2.46,8-4.26.67L158.1,17.91l5.77-.58,1.55,10.15,2-8.16h3.25l1.91,9.35L176,17.29l6.25,1.55-7.11,19.92Z"/></g><path class="cls-5" d="M46.77,17.13A25.38,25.38,0,0,1,54.36,16c4.81,0,8.47,1.49,8.47,4.39,0,1.9-1.37,3.23-3.5,4.76,3.29.3,5.59,1.72,5.59,4.62,0,4.73-7.21,7-13.27,7a20.64,20.64,0,0,1-3.77-.32Zm6,7.35c2.26-.08,4.12-1.14,4.12-2.57,0-1.23-1.08-1.85-2.67-1.85a3.86,3.86,0,0,0-1.86.44Zm1,7.73c2.46-.08,4.65-1,4.65-2.51,0-1.18-1-1.59-2.54-1.59a6.39,6.39,0,0,0-2.48.47Z"/><path class="cls-5" d="M83.46,16.22a39.59,39.59,0,0,1,.27,4.86c0,9.07-2.24,16.42-8.58,16.42C69.4,37.5,65.8,29.14,65.8,20a37.07,37.07,0,0,1,.22-3.8l7.18.6A33.39,33.39,0,0,0,73,21.06c0,5.57.77,9.23,2.82,9.23s3.06-2.87,3.06-7.38a37.33,37.33,0,0,0-.66-6.67Z"/><path class="cls-5" d="M90.71,36.85,91,28.59l-7.22-9.35,5.57-3.79,5.27,7.87,4-7.71,5.35,2-6.23,11L97.85,37Z"/><path class="cls-5" d="M128.84,37.3l-7.46-11.58.48,11L116,36.17l-.5-18.5,6.36-1.21,5.41,10.3-.39-10.4,6.85-.38-1.84,20.69Z"/><path class="cls-5" d="M135.19,26.48c0-5.9,4.29-11,9.94-11s10,4.89,10,10.93c0,5.76-4.39,10.83-10.07,10.83S135.19,32.3,135.19,26.48ZM149,26.8c0-2.51-1.49-4.69-3.76-4.69a4.47,4.47,0,0,0-4.19,4.73v0c0,2.67,1.34,4.65,4.11,4.65,2.45,0,3.84-2.2,3.84-4.71Z"/><path class="cls-5" d="M168.32,37l-2.39-8.34-2.46,8.08-4.26.67-3.78-20.78,5.77-.58,1.55,10.15,2-8.16H168l1.91,9.35L173.28,16l6.25,1.55-7.11,19.92Z"/></g></g></svg>