<svg xmlns="http://www.w3.org/2000/svg" viewBox="0 0 542.11 112.57"><defs><style>.cls-1{fill:#fff;}.cls-2{fill:none;}</style></defs><g id="Layer_2" data-name="Layer 2"><g id="katman_1" data-name="katman 1"><path class="cls-1" d="M355.26,101.9c-8.07,0-14-1.55-17.92-4.66a13.24,13.24,0,0,1-5.19-10.67h16.07c.75,3.12,2.08,4.89,7.26,4.89,5.71,0,8.07-3.11,8.07-10.14V75.1h-.29a12.4,12.4,0,0,1-12.74,7.77c-13.26,0-20-7.55-20-22.29a24.23,24.23,0,0,1,6-17.11,19.45,19.45,0,0,1,14.3-5.92,12.91,12.91,0,0,1,12.66,6.74h.3V38.58h15.85V79.84c0,7.55-1.86,13-5.71,16.36C369.78,100.05,363.78,101.9,355.26,101.9Zm.52-53.17c-5.19,0-8.3,4.44-8.3,11.92,0,7.78,2.82,11.93,8,11.93a8,8,0,0,0,8-8.07h0V58.58c0-6.22-2.81-9.85-7.7-9.85ZM204.33,86.28a24.68,24.68,0,0,1-16.07-4.15,15.08,15.08,0,0,1-5.19-10.66h14.82c.29,3.11,2.37,4.66,6.22,4.66,3.63,0,5.92-1.33,5.92-3.85,0-2.07-1.33-3.11-4.66-3.63l-7.56-1c-9-1-14-6.23-14-14.3a14.45,14.45,0,0,1,4.67-10.88,27.36,27.36,0,0,1,30.07-.74,13.45,13.45,0,0,1,4.89,10.36H208.85A4.79,4.79,0,0,0,204,47.4h-.3c-4.15,0-5,1.85-5,3.63s.74,3.11,4.44,3.63l8.08,1a15.88,15.88,0,0,1,9.62,3.85,12.05,12.05,0,0,1,3.63,9.63c.67,10.67-7.4,17.18-20.14,17.11Zm-46.66-.22c-15,0-23.62-8.82-23.62-24.67A25,25,0,0,1,140.27,44a23,23,0,0,1,17.4-6.52c8.07,0,14.29,2.3,18.15,6.74a27.13,27.13,0,0,1,5.7,17.63v3.63H150.64c.51,6.74,2.59,9.85,7.55,9.85a5.7,5.7,0,0,0,6.52-4.45h16.36c-1.11,9.71-9.18,15.19-23.4,15.19Zm0-38.66c-4.44,0-6.52,3.11-7,9.33h14v-.52c-.52-5.92-2.81-8.81-7-8.81ZM455.09,85.83a17.64,17.64,0,0,1-13.48-5.18,20.52,20.52,0,0,1-5-14.29,19.21,19.21,0,0,1,5-14,18.6,18.6,0,0,1,13.48-5.18c11.41,0,18.44,7.25,18.44,19.18S466.2,85.83,455.09,85.83Zm0-31.1c-6,0-7.26,6.52-7.26,11.92,0,8.08,2.6,11.93,7.26,11.93s7.26-4.15,7.26-11.93S459.76,54.73,455.09,54.73ZM418,85.83a17.61,17.61,0,0,1-13.48-5.18,20.11,20.11,0,0,1-4.67-14c0-11.92,7-19.18,18.44-19.18,10.37,0,16.59,5.19,16.89,14H424.58c-.22-3.11-1.56-6.74-6.22-6.74-6.52,0-7.26,7.48-7.26,11.92,0,8.08,2.37,11.93,7.26,11.93a6.51,6.51,0,0,0,6.52-6.37v-.15h0v-.74h10.36a14.49,14.49,0,0,1-5,11A22,22,0,0,1,418,85.83Zm-174.26-.29a15.75,15.75,0,0,1-11.19-3.33A16.23,16.23,0,0,1,228.1,70V25.92h16.15V38.66h9.62v11.4h-9.33V67c0,4.89,1.56,6.74,6,6.74a11.33,11.33,0,0,0,3.11-.3V85C250.24,85.24,247.13,85.54,243.73,85.54ZM511.6,84.8H500.71V63.25a11,11,0,0,0-1-5.93A4.69,4.69,0,0,0,495,55.25c-4.44,0-7,3.11-7,8.29V84.8H477.09V48.21h10.37v6h0a12.14,12.14,0,0,1,11.4-6.74c6.22,0,9.85,2.59,11.41,7.56h.22a12.61,12.61,0,0,1,11.92-7.56c8.3,0,12.22,4.45,12.22,13.48V84.8H523.74V63.32a10.76,10.76,0,0,0-1-5.92A4.69,4.69,0,0,0,518,55.32c-4.44,0-7,3.11-7,8.3l.59,21.18Zm-215.22,0H279.79V38.66h16.08v7.48h.29a15.63,15.63,0,0,1,15-8.3c5.92,0,10.14,1.56,12.73,4.67A20.3,20.3,0,0,1,327.27,56V84.8H310.68V58.58a11.92,11.92,0,0,0-1.34-6.74,5.64,5.64,0,0,0-5.18-2.29c-4.89,0-7.48,3.11-7.48,9.33l-.3,25.92Zm-240.17,0H39.62V38.66H55.69v7.48h.22a15.64,15.64,0,0,1,15-8.3c5.92,0,10.14,1.56,12.74,4.67A20.75,20.75,0,0,1,87.09,56V84.8H70.5V58.58a11.83,11.83,0,0,0-1.33-6.74A5.64,5.64,0,0,0,64,49.55c-5,0-7.56,3.11-7.56,9.33L56.21,84.8Zm340.3,0h-11.4V73.91h11.4V84.8Zm-122.2,0H257.72V38.66h16.59Zm-154.56,0h-17.1L86.28,38.66h16.66l5.93,20c1.55,5.71,2.88,11.71,2.88,11.93h.3c.82-3.93,1.56-7.78,2.59-11.7l6-20h16.07l-17,45.92Zm-86.35,0H16.29V19.48H33.4V84.8Z"/><path class="cls-1" d="M257.21,33.7l17.1-3.11V13.7l-17.1,3.11Z"/><rect class="cls-2" width="542.11" height="112.57"/></g></g></svg>