<svg xmlns="http://www.w3.org/2000/svg" viewBox="0 0 185.22 9.51"><defs><style>.cls-1{fill:#cc3b57;}</style></defs><g id="Layer_2" data-name="Layer 2"><g id="Layer_1-2" data-name="Layer 1"><g id="Layer_2-2" data-name="Layer 2"><g id="Layer_1-2-2" data-name="Layer 1-2"><g id="Layer_2-2-2" data-name="Layer 2-2"><g id="Layer_1-2-2-2" data-name="Layer 1-2-2"><path class="cls-1" d="M182.22,4.49C172.09,4.35,162.28,2.28,152.43,1A97.63,97.63,0,0,0,132.36.19C125.46.74,118.81,2,112,2.91c-13.78,1.8-28.15.78-42-.33-3.3-.27-6.6-.57-9.9-1S53.26.73,49.8.47a69.56,69.56,0,0,0-10-.15,82.38,82.38,0,0,0-10,1.52C20.17,3.7,10.15,5.73,0,5.84V9.51H185.22v-5C184.22,4.49,183.22,4.5,182.22,4.49Z"/></g></g></g></g></g></g></svg>