<svg xmlns="http://www.w3.org/2000/svg" xmlns:xlink="http://www.w3.org/1999/xlink" viewBox="0 0 213.52 122.48"><defs><style>.cls-1{fill:url(#linear-gradient);}.cls-2{fill:url(#linear-gradient-2);}.cls-3{fill:url(#linear-gradient-3);}.cls-4{fill:url(#linear-gradient-4);}.cls-5{fill:url(#linear-gradient-5);}.cls-6{fill:url(#linear-gradient-6);}.cls-7{fill:url(#linear-gradient-7);}.cls-8{fill:url(#linear-gradient-8);}.cls-9{fill:url(#linear-gradient-9);}</style><linearGradient id="linear-gradient" x1="2.82" y1="41.7" x2="46.54" y2="16.46" gradientUnits="userSpaceOnUse"><stop offset="0" stop-color="#3754fb"/><stop offset="1" stop-color="#fc01ff"/></linearGradient><linearGradient id="linear-gradient-2" x1="50.45" y1="36.49" x2="96.75" y2="9.76" xlink:href="#linear-gradient"/><linearGradient id="linear-gradient-3" x1="90.48" y1="44.18" x2="137.16" y2="17.23" xlink:href="#linear-gradient"/><linearGradient id="linear-gradient-4" x1="139.06" y1="41.24" x2="181.75" y2="16.59" xlink:href="#linear-gradient"/><linearGradient id="linear-gradient-5" x1="170.47" y1="41.35" x2="220.23" y2="12.62" xlink:href="#linear-gradient"/><linearGradient id="linear-gradient-6" x1="26.74" y1="104.82" x2="68.19" y2="80.89" xlink:href="#linear-gradient"/><linearGradient id="linear-gradient-7" x1="74.84" y1="104.37" x2="121.14" y2="77.63" xlink:href="#linear-gradient"/><linearGradient id="linear-gradient-8" x1="123.25" y1="109.12" x2="165.95" y2="84.47" xlink:href="#linear-gradient"/><linearGradient id="linear-gradient-9" x1="154.67" y1="109.23" x2="204.43" y2="80.5" xlink:href="#linear-gradient"/></defs><g id="Layer_2" data-name="Layer 2"><g id="Layer_1-2" data-name="Layer 1"><path class="cls-1" d="M29.2,57.08l-1.32-3.41a28.11,28.11,0,0,1-4.8.39,21.72,21.72,0,0,1-16.54-7Q0,40.11,0,26.64v-.31Q.39,13.48,6.43,6.74T22.38,0A27.3,27.3,0,0,1,35,2.79a20.17,20.17,0,0,1,8.63,8.6Q47,17.74,47,27q0,13.86-6.58,20.6l2.79,4.88ZM2.94,25.87A24,24,0,0,1,6,14.37a30.92,30.92,0,0,1,7.09-8.83q4.1-3.45,7.43-3.6h-.23a14.77,14.77,0,0,0-8.52,3,21.36,21.36,0,0,0-6.89,8.4,21.42,21.42,0,0,0-2.09,9.6A29,29,0,0,0,2.94,25.87Zm19.6,14.25L19.13,31.6l9.76-5L31.83,32a19.41,19.41,0,0,0,.62-5.12,16.67,16.67,0,0,0-1.39-7.28,10.24,10.24,0,0,0-3.57-4.26,7.15,7.15,0,0,0-4-1.23,8.08,8.08,0,0,0-6.35,3.4q-2.57,3.18-2.56,9.37t2.36,9.49A8.35,8.35,0,0,0,22.54,40.12Zm-.24-2.94-.85-4.88,6.66-4.5-7.9,4Zm11.23-2.79A16.12,16.12,0,0,0,34.77,28q0-1-.27-3.84c-.18-1.88-1.33-4.3-3.44-7.24A19.07,19.07,0,0,1,33.69,27a22.87,22.87,0,0,1-.85,6.27Z"/><path class="cls-2" d="M71.56,54.6q-8.13-.08-12.31-4.22a21.49,21.49,0,0,1-5.7-10.8A65.15,65.15,0,0,1,52,25.25L52,18.51q0-6.89.38-17.5H69.08l-.54,30.28A25.32,25.32,0,0,0,69.39,39c.57,1.62,1.47,2.44,2.71,2.44,1.86,0,3.08-1.06,3.64-3.18a32.45,32.45,0,0,0,.62-7.2L75.74.93,91.7,1l.23,6.58q.39,10.14.39,19.67A58.27,58.27,0,0,1,90.81,41a17.87,17.87,0,0,1-6,9.88Q80.31,54.52,71.56,54.6Zm-18-23.54.55-6.35q.77-11.85,2.09-22.54L54,2.25q-.54,9.21-.54,19Q53.44,26.1,53.59,31.06Zm24-7.13c.47-.62.83-3,1.09-7.28q.23-3.55.23-7.67,0-3.24-.16-6.89H76.91Q77.6,18.35,77.6,23.93Z"/><path class="cls-3" d="M134.91,53.67H120.12l-.77-8.29-7.67.16-1.09,8.13H96L104.4,1h23.39Zm-34.54-18.2,7.2-33.15h-2.16Zm12.39,2.09,5.81-.62-2.32-25.32Zm7.52-.77,1.24-.16L117.87,12.7Z"/><path class="cls-4" d="M163.18,54.45a38.62,38.62,0,0,1-12.47-2.17,19.15,19.15,0,0,1-10.26-8.64,29.1,29.1,0,0,1-3.91-15.37q0-15,8.83-22.23Q152.18.46,164.89.46a71.18,71.18,0,0,1,7.82.47l-2.17,13.63a34.88,34.88,0,0,0-5.81-.54q-6,0-9.14,2.86A13.14,13.14,0,0,0,151.1,27a13.69,13.69,0,0,0,4.8,10.84,10.73,10.73,0,0,0,7.28,2.41,25.14,25.14,0,0,0,6.66-1l2.87,14.48A63.49,63.49,0,0,1,163.18,54.45Zm-24.39-28.2a23,23,0,0,1,3.64-10.88A31.87,31.87,0,0,1,149.9,7c2.81-2.17,5.36-3.3,7.63-3.41a16.33,16.33,0,0,0-8.87,2.87,22.1,22.1,0,0,0-7.32,8,21.51,21.51,0,0,0-2.55,10.53Z"/><path class="cls-5" d="M213.52,53.67h-16l-6.19-15-.08,15H177.59L176,1h15.65l-.08,8.21,6-8.21h16L198.58,23.39Zm-35-18.12,1.7-33.23-2.63.08ZM193.08,9.14l7.43-7h-2.63Z"/><path class="cls-6" d="M37.4,121.55h-1l-.7-52.67,3.87-.07q15.1,0,23.47,6.42,8.75,6.75,8.75,20a26.58,26.58,0,0,1-3.1,12.19Q65.6,113.5,58,117.52T37.4,121.55Zm.47-18.2L39.42,70.2H37.33ZM50,107.22a13.39,13.39,0,0,0,5.46-5.34,14.39,14.39,0,0,0,1.82-7q0-9.54-8-11.7Zm2.86-.39a12.11,12.11,0,0,0,6.59-8.44,10.55,10.55,0,0,0,.39-2.86q0-4.65-3.8-9.45a16.08,16.08,0,0,1,2.63,8.67Q58.62,103.73,52.81,106.83Z"/><path class="cls-7" d="M96,122.48q-8.13-.09-12.31-4.22A21.47,21.47,0,0,1,78,107.45a64.48,64.48,0,0,1-1.51-14.33l-.08-6.73q0-6.9.39-17.51H93.47l-.54,30.29a25.57,25.57,0,0,0,.85,7.7c.57,1.63,1.48,2.44,2.71,2.44q2.79,0,3.65-3.17a33.27,33.27,0,0,0,.61-7.21l-.61-30.12,16,.07.23,6.59q.39,10.14.39,19.67a57.74,57.74,0,0,1-1.51,13.71,17.81,17.81,0,0,1-6,9.87Q104.7,122.4,96,122.48ZM78,98.93l.55-6.35Q79.3,80.73,80.62,70l-2.25.08q-.54,9.22-.54,19Q77.83,94,78,98.93Zm24-7.12q.7-.93,1.09-7.28c.15-2.38.23-4.93.23-7.67q0-3.26-.15-6.89H101.3Q102,86.23,102,91.81Z"/><path class="cls-8" d="M147.38,122.32a38.31,38.31,0,0,1-12.47-2.17,19,19,0,0,1-10.26-8.63,29.13,29.13,0,0,1-3.91-15.38q0-15,8.82-22.22,6.83-5.58,19.52-5.58a70.89,70.89,0,0,1,7.82.47l-2.16,13.63a35.06,35.06,0,0,0-5.81-.55q-6,0-9.14,2.87a13.1,13.1,0,0,0-4.49,10.07,13.71,13.71,0,0,0,4.8,10.84,10.76,10.76,0,0,0,7.28,2.4,24.86,24.86,0,0,0,6.66-1l2.86,14.49A64.51,64.51,0,0,1,147.38,122.32ZM123,94.13a23,23,0,0,1,3.64-10.88,31.92,31.92,0,0,1,7.48-8.4q4.22-3.25,7.62-3.41a16.25,16.25,0,0,0-8.86,2.86,22.1,22.1,0,0,0-7.32,8A21.43,21.43,0,0,0,123,92.81Z"/><path class="cls-9" d="M197.72,121.55h-16l-6.2-15-.08,15H161.78l-1.62-52.67H175.8l-.08,8.21,6-8.21h16L182.77,91.27Zm-35-18.13,1.71-33.22-2.64.08ZM177.27,77l7.44-7h-2.64Z"/></g></g></svg>