<svg width="1191.5" height="247.5" xmlns="http://www.w3.org/2000/svg" xmlns:xlink="http://www.w3.org/1999/xlink" viewBox="0 0 1191.48 265.55"><defs><style>.cls-1{fill:none;}.cls-2{fill:url(#linear-gradient);}.cls-3{clip-path:url(#clip-path);}.cls-4{fill:#010101;}.cls-5{fill:#e7ddd1;}.cls-6{fill:#874f41;}.cls-7{fill:#582c21;}.cls-8{fill:#3bdd8b;}.cls-9{fill:#855a10;}.cls-10{fill:#f5d762;}.cls-11{fill:#6b490e;}.cls-12{fill:#a7696c;}.cls-13{fill:#c28487;}.cls-14{fill:#fae2ba;}.cls-15{fill:#e1c4c1;}.cls-16{fill:#d0942c;}.cls-17{fill:#f6b440;}.cls-18{fill:#0a956e;}.cls-19{fill:#02ca90;}.cls-20{fill:#1be8a3;}.cls-21{fill:#03ae7c;}.cls-22{fill:#211106;}.cls-23{fill:#fefefe;}.cls-24{fill:#6f4429;}.cls-25{fill:#fff;}</style><linearGradient id="linear-gradient" x1="183.15" y1="34.59" x2="108.85" y2="146.05" gradientUnits="userSpaceOnUse"><stop offset="0" stop-color="#92f5fe"/><stop offset="1" stop-color="#00b1ba"/></linearGradient><clipPath id="clip-path"><circle class="cls-1" cx="123.73" cy="123.73" r="123.73"/></clipPath></defs><g id="Layer_2" data-name="Layer 2"><g id="Coin"><circle class="cls-2" cx="123.73" cy="123.73" r="123.73"/><g class="cls-3"><path class="cls-4" d="M92.8,40.05l1.78,0c1.55,0,1.55,0,1.64-1.52h23.67L120,40a1.67,1.67,0,0,0,1,.06h3.72l.08,1.59h3.09l.07,1.57,1.52.07.07,1.53h3.12V46.4h1.59V48h1.59v1.59h1.59v1.59h3.14v1.46c.5.24,1,0,1.53.16.2.43,0,.94.13,1.49h17.32v1.57h3.18l.07-1.48h3c.27-.53.05-1,.19-1.58h3c.26-.54,0-1,.18-1.59h3c.25-.53,0-1,.18-1.58h3.07L175.4,48h3.1l.07-1.59h7.86V44.89h7.93V46.4h4.75V48h3.17v1.58h3.18v1.59h1.59v1.59h1.54v6.3h-1.51v3.17h-1.59v3.17H204c-.22.49,0,1-.14,1.52-.44.2-.94,0-1.45.13-.25.43,0,.94-.16,1.45-.41.22-.92,0-1.42.12-.25.44,0,1-.17,1.5H197.6l-.08,1.53c-.45.24-1,0-1.46.15-.22.44,0,.95-.14,1.44-.44.23-.95,0-1.45.14-.22.45,0,.95-.15,1.5h-3.07v1.41c-.44.5-1.07,0-1.63.34v1.47H186.5c0,.57-.06,1-.08,1.49-.53.18-1-.06-1.49.17-.16.49.09,1-.2,1.53h-3v1.53h-3.15v1.6H177V86h-3.13l-.07,1.59h-3.06c-.17.55.07,1.06-.21,1.6h-3l-.07,1.6h-3.08v1.52h1.55v1.6h3.18v1.59h3.07c.18.55-.06,1.06.21,1.59h3c.16.56-.08,1.06.21,1.6h3v1.53h3.14v1.59h7.93v1.59h1.54l.07,1.54,1.48.07c.17.53-.06,1,.16,1.49.49.16,1-.08,1.52.18v4.58l-1.58.07-.06,1.51-1.52.07c0,.49,0,1-.07,1.52l-1.51.07-.08,1.58h-8.47l-1-.08v-1.54h-4.73v-1.56h-3.19v-1.59a4.77,4.77,0,0,0-1.57.1,4.49,4.49,0,0,0,.1,1.47h1.5v1.55l1.54.08.07,1.51,1.51.07.08,1.51,1.51.07.07,1.56h1.52v1.53l1.6.07v1.56h0l-3.17,0,0,0a6,6,0,0,0-.15-1.6h-1.45v0a5.57,5.57,0,0,0-.14-1.6h-1.44a5.94,5.94,0,0,0-.15-1.59h-1.44a5.63,5.63,0,0,0-.14-1.6h-1.45v-1.58h-3.17v-1.59H164.3a6.31,6.31,0,0,0-.12-1.55h-1.46c-.51-.11-1.05.11-1.56-.17l-.1-1.42h-2.91c-.46-.43,0-1.1-.41-1.6H150c0-.52,0-1,0-1.57h18.89c.2.58,0,1.06.26,1.6h3c0,.56.05,1,.08,1.57h3.09c0,.56,0,1,.08,1.57H180c.2.57,0,1.09.21,1.52h9.4v-1.52h0c.5-.08,1,.11,1.54-.14v-4.65h-1.51c0-.54,0-1-.08-1.57h-7.87v-1.58h-3.17a5.72,5.72,0,0,0-.11-1.54H177l-1.56,0v-1.59h-3.18V98.64h-3.17V97h-3.14c0-.54,0-1-.08-1.53H158l-11.1,0a3.83,3.83,0,0,1,.18-1.61h7.58c.33-.52,0-1.07.38-1.58h2.79c.34-.56-.07-1.16.36-1.59h2.91l.13-1.57h2.94c.31-.53,0-1.08.37-1.6h2.82c.27-.54,0-1.08.29-1.51,1-.15,2,.09,3-.14l.11-1.41c1-.21,2.07.08,3.06-.18l.12-1.51h3c.19-.56,0-1.05.23-1.51l1.31-.09c.28-.5,0-1,.35-1.56h2.83c.26-.53,0-1.07.35-1.59h2.89c0-.54.07-1,.1-1.41.5-.29,1,0,1.49-.28l.11-1.38c1.05-.17,2.07.08,3-.14.17-.51-.05-1,.19-1.41.46-.23,1,.1,1.41-.24.15-.46-.08-1,.25-1.46h2.85c.26-.53,0-1.07.26-1.49.46-.17.95.07,1.37-.18.21-.46-.09-1,.23-1.41.46-.16.95.08,1.39-.2l.1-1.39,1.52-.09a3.11,3.11,0,0,0,1.49-.1c.2-.47-.06-1,.25-1.41l1.34-.11c.23-1-.09-2.07.19-3,.48-.21,1,.05,1.49-.29v-3h1.55V52.74h-3.13V51.16h-3.17V49.57h-4.75V48.05h-7.94v1.52h-7.92v1.58h-3.08c-.17.59.05,1.1-.21,1.63h-3l-.08,1.58H169V55.9H165.9l-.08,1.63h-3c-.17.55.07,1.06-.2,1.56h-3V57.5h-1.16l-17.84,0,0-1.55a4.83,4.83,0,0,0-.06-1.6h-3.05l-.06-1.46c-.53-.23-1.05,0-1.49-.2-.18-.49.09-1-.23-1.51h-1.38l-.08-1.47c-.53-.21-1.05.06-1.48-.19-.17-.49.08-1-.21-1.51h-3l-.1-1.47c-.52-.21-1,.07-1.55-.24V44.83h-3.1c0-.57-.07-1-.11-1.62h-4.72V41.72H96.22l-.1,1.56h-6.3v1.56H85.13L85,46.46H81.89V48h-3c-.2.56.06,1.08-.19,1.5-.49.19-1-.1-1.52.24v1.43h-3c-.22.56.06,1.08-.26,1.59h-3l-.07,1.46c-.53.22-1,0-1.6.26v3H67.71L67.62,59c-.53.19-1.05-.07-1.47.18-.19.49.1,1-.24,1.52H64.48v3c-.56.22-1.08-.06-1.51.2-.17.49.11,1-.19,1.45l-1.47.07v3c-.57.17-1.08,0-1.59.21v3l-1.47.08c-.21.53.06,1-.19,1.48-.49.18-1-.1-1.52.23v1.37L55.08,75c-.21.53.07,1-.24,1.56H53.41v3c-.56.24-1.08,0-1.56.24a4,4,0,0,0,.08,1.48h3v1.47c-.51.21-1-.06-1.47.19-.18.49.1,1-.23,1.51H51.87l-.09,1.47c-.53.21-1.05-.06-1.47.19-.19.49.1,1-.24,1.51H48.73c-.18.53.06,1-.17,1.48-.48.19-1-.08-1.44.19v1.42h3c.22-.51,0-1,.22-1.53h1.46v9.39c-.58.22-1.1-.06-1.6.26v9.34H48.64v9.4c-.56.21-1.08-.06-1.49.19v9.44h1.52v10.94c.55.22,1.08-.05,1.62.27v7.78h1.55v6.19c.55.23,1.07,0,1.61.27v12.46H55l.07-1.53h1.53v6.35h1.61v4.68l1.63.09v4.73h1.55v6.2c.56.22,1.08-.06,1.59.26v4.55l1.59.08v4.7h1.55v6.33H64.46v4.7c-.55.16-1.06-.07-1.5.16-.15.5.09,1-.15,1.45-.5.11-1-.08-1.42.12-.15.52.07,1-.19,1.53H59.75V211H58.21v1.55l1.56.06v1.53l0,1.58-3.15,0h0v-1.55H55.05v-3.17h1.51v-1.59h1.58v-1.58h1.59V206.3h1.58v-4.75h1.56v-6.33H61.33V192.1c0-1.57,0-1.57-1.58-1.72v-4.67H58.16v-6.3H56.61v-4.76H55.05v-4.71H53.46v-3.18l-1.53-.08c-.24-.45,0-1-.15-1.46-.44-.22-1,0-1.5-.15V152.6c-.53-.27-1,0-1.58-.19v-6.14c-.54-.26-1.05,0-1.59-.2v-7.81l-1.65-.08v-11c-.55-.16-1.06.07-1.59-.2v-9.28c.62-.17,1.13,0,1.66-.21v-9.33l1.51-.07v-4.92c0-1.29,0-2.58,0-3.88,0-.29-.13-.68.39-.69H48.6V94c-.52-.15-1,.07-1.47-.14-.2-.49.17-1-.26-1.47-.43-.26-1.15.4-1.41-.44V90.77H44V89.19l1.49-.07.07-1.51L47,87.54,47.1,86,48.63,86V84.43h1.56V81.26H48.7V79.67h1.53V76.5h1.58V74.92H53.4V73.33H55V71.75h1.58V68.58h1.59V65.41h1.59V63.82h1.58V60.69h1.46c.25-.5,0-1,.18-1.53.41-.21.92,0,1.44-.12.21-.43,0-.93.14-1.46.42-.21.92,0,1.48-.13v-3c.53-.23,1-.05,1.53-.15.26-.44,0-.95.17-1.46.41-.24.92,0,1.43-.15.24-.41,0-.92.15-1.44.42-.23.93,0,1.44-.14.22-.42,0-.93.13-1.48H74V48.05h3.17l.08-1.53c.45-.24,1,0,1.46-.14.23-.45,0-1,.16-1.5h3c.26-.54,0-1,.19-1.59h3.07l.07-1.58h4.59c.26-.53,0-1,.21-1.66Zm74.68,71.2H169v-1.46h-1.5Z"/><path class="cls-4" d="M43.9,252l-4.73,0v-1.35H37.63v-1.57l1.49-.06c0-.5,0-21.55.07-22.11h3.09l.07-1.58h3.1l.07-1.58h3.1l.07-1.58h1.52v-1.49c.53-.25,1,0,1.53-.18.21-.44,0-.95.14-1.44.44-.22.95,0,1.45-.14.21-.45,0-1,.13-1.45.45-.21.95,0,1.45-.13.21-.45,0-.95.16-1.54h1.51v3c-.61.27-1.11,0-1.5.29-.21.44.07.94-.21,1.34-.44.23-.94,0-1.35.22-.27.44.08,1-.26,1.38-.46.2-1-.08-1.34.22-.22.45.06.95-.22,1.35-.44.23-.94,0-1.4.25l-.12,1.3c-.48.28-1-.05-1.43.27-.21.45.06,1-.31,1.46H45.62c-.21.59-.09,21.66-.14,22.15H42.41a2.46,2.46,0,0,0,.05,1.53l1.31.11A2.94,2.94,0,0,1,43.9,252Z"/><path class="cls-4" d="M159.54,131.86v-1.54H154.8v-1.59h-3.18v-1.59h-3.15v-1.53h-4.65c-.24-.54,0-1-.18-1.57H137.4l-.07,1.42c-.47.23-1,0-1.47.15-.21.45,0,1-.16,1.51h-3.07v1.59H131v1.59h-1.56v1.46c-.49.27-1,.05-1.52.17-.22.43,0,.93-.13,1.44-.44.24-.95,0-1.45.14-.23.44,0,1-.15,1.5h-3.08v3.07c-.53.27-1,0-1.59.2v4.64L120,143v18.87c.46.22,1,0,1.51.16v3.06l1.59.07v3.09l1.58.08c0,.48,0,1,.07,1.51l1.51.07.08,1.15v1.88c.46.24,1,0,1.52.17v3.06l1.59.07v1.54H131v1.59h1.56v1.46c.5.26,1,0,1.51.16.24.44,0,.95.15,1.45.44.24.95,0,1.45.15.22.44,0,.95.14,1.44.44.23.95,0,1.49.16,0,.45,0,.93.07,1.47l1.5.08v1.53h-1.48v3.18H139v3.14h1.46c.24.5,0,1,.16,1.51.44.25,1,0,1.45.16.23.42,0,.93.15,1.44.43.22.94,0,1.44.13.22.45,0,1,.14,1.45.45.22,1,0,1.49.16l.07,1.47,1.54.07v1.54h1.59v1.56h1.46c.26.5,0,1,.17,1.53.43.22.94,0,1.46.13.2.44,0,.94.1,1.41-.5.27-1,0-1.54.19v1.44c.43.22.94,0,1.49.15V211l1.6.08v3.11h1.55v3.18h-1.49v4.72h1.48v6.23c.54.26,1.05.05,1.64.2v34.71h-3.15V228.64c-.57-.36-1.13,0-1.65-.47v-5.92c-.53-.26-1,0-1.55-.35v-4.45c.62-.19,1.13.06,1.54-.17v-3.11H150V211h-1.6v-3.18h-3.11v-1.59h3.06v-1.5c-.52-.16-1,.07-1.47-.15-.16-.49.08-1-.15-1.44-.5-.15-1,.09-1.44-.15-.15-.5.09-1-.15-1.45-.5-.12-1,.09-1.43-.12-.15-.52.08-1-.19-1.53h-1.45v-1.56h-1.6v-1.57H139c-.11-.51.12-1-.15-1.52-.47-.17-.95.06-1.37-.16-.23-.47.09-1-.24-1.45l-1.47-.1V190.5l-1.44-.1c-.25-.51.07-1.05-.26-1.49l-1.44-.1c.08-.53-.12-1,.18-1.56h2.93a2.45,2.45,0,0,0-.06-1.48c-.48-.16-1,.07-1.37-.17-.23-.47.09-1-.24-1.44l-1.32-.09c-.25-.52.07-1.06-.25-1.47-.47-.16-.95.07-1.36-.16-.23-.48.1-1-.23-1.42-.47-.16-.95.07-1.4-.2l-.08-1.31c-.5-.29-1,0-1.51-.27l-.08-1.34c-.5-.23-1,0-1.5-.24l-.08-1.32c-.5-.28-1,0-1.56-.31v-2.84c-.53-.3-1.07,0-1.59-.33V170c-.53-.29-1.07,0-1.52-.28l-.09-1.32c-.5-.27-1,.05-1.56-.31v-2.84c-.53-.29-1.07,0-1.58-.33V162.1c-.53-.28-1.07,0-1.51-.27V143l1.55-.13v-4.54c.53-.29,1.07,0,1.59-.33v-2.84c.53-.28,1.07,0,1.52-.28l.09-1.31c.51-.28,1.05.05,1.49-.28l.1-1.36c1-.19,2.08.07,3-.16.17-.5,0-1,.17-1.4.47-.24,1,.08,1.45-.24l.09-1.32c.52-.26,1.06.06,1.49-.27l.1-1.31c.52-.26,1.06.06,1.46-.26.16-.46-.07-1,.2-1.4l1.34-.08c.23-.51,0-1,.28-1.56h2.88c.24-.53,0-1.07.26-1.53l1.34-.08a4.39,4.39,0,0,0,.08-1.52l1.62,0h4.77v1.62h4.61c.23.56,0,1.08.28,1.62h3l.07,1.56h3c.22.55-.05,1.07.27,1.58h4.59v1.59h4.65c.21.55-.06,1.08.26,1.58h3l.08,1.57h3.11a5.37,5.37,0,0,0,.12,1.54h1.48l1.55.08.07,1.55h1.52c.09.5-.1,1,.14,1.54H177l1.57,0c.1.49-.12,1,.19,1.53h1.43l1.48.07c.18.55-.06,1.05.22,1.57h3a5.87,5.87,0,0,0,.1,1.45,20,20,0,0,0,4.65,0v-2.92c.62-.21,1.14.06,1.56-.21v-1.49h-1.56v-3.16h-1.55v-3.18h-1.6l0,0a6.36,6.36,0,0,0-.13-1.6h-1.46a5.93,5.93,0,0,0-.13-1.6H183.3v0a6.36,6.36,0,0,0-.13-1.6h-1.47l0,0c0-.53,0-1.06,0-1.59h3.05c.23.49,0,1,.15,1.5.45.21,1,0,1.45.13.22.45,0,1,.15,1.5l1.43.06c.22.47,0,1,.16,1.52l1.49.07v3.1h1.57l.07,1.58,1.53.06v3.11h1.56v1.59h-1.51v3.17h-1.59V143h-1.59v1.55h-4.75V143h-3.18v-1.59h-3.17V139.8H175.4v-1.46c-.49-.25-1,0-1.53-.16-.2-.43,0-.94-.12-1.49h-3.07V135.1H167.6c-.28-.53,0-1-.2-1.59h-3.07l-.07-1.65Z"/><path class="cls-4" d="M180.12,122.4h1.58V124h-1.56v-1.58Z"/><path class="cls-5" d="M137.38,231.4h-3.21a2.65,2.65,0,0,0-.11-1.34L132.7,230c-.21-.52.05-1.05-.2-1.47-.48-.2-1,.09-1.44-.22l-.09-1.4a3.42,3.42,0,0,0-1.5.07c0,.49-.05.94-.07,1.36-.51.25-1,0-1.48.23-.18.47.09,1-.24,1.5H120v1.34H99.32V230h-3c-.23-.56,0-1.08-.24-1.54a3.46,3.46,0,0,0-1.36,0c-.24.47.06,1-.23,1.47a3,3,0,0,1-1.42-.08L93,228.55c-.51-.24-1,0-1.51-.24l-.06-1.4a4.08,4.08,0,0,0-1.59.05v3a3.86,3.86,0,0,1-1.46-.06c-.22-.48.08-1-.22-1.47l-1.33-.06c-.26-.51,0-1-.29-1.59h-3l-.08-1.57H78.79l-.08-1.57h-3c-.24-.57,0-1.1-.25-1.53l-1.34-.08c-.24-.52,0-1-.25-1.51l-1.33-.06c-.25-.52,0-1.05-.26-1.55-.45.07-.94-.15-1.4.13l-.08,1.34c-.52.25-1.05,0-1.51.25l-.07,1.38H66v-4.63H63c-.23.52.07,1.05-.24,1.5a3.52,3.52,0,0,1-1.37-.06v-3.05l1.5-.07v-3.1c0-.13,0-.26,0-.39-.06-.77,0-1.41,1.05-1.23.37.06.54-.17.54-.53s0-.79,0-1.19c0-1.35,0-1.35,1.31-1.48.06,0,.11-.07.26-.16v-6.14h0c1.58,0,1.58,0,1.6-1.5,0,0,0-.07,0-.1h4.7l.08-1.5h3c.22.52-.08,1,.27,1.56h2.87c.25.52,0,1,.3,1.6h3l.08,1.56h3.14v3.08a4.52,4.52,0,0,0,1.47,0c.22-.52-.07-1,.23-1.5a3.74,3.74,0,0,1,1.47.08v4.57h3.11l.07-1.43c.53-.19,1.05.05,1.48-.19.19-.48-.1-1,.19-1.42h4.54c.21.51-.06,1,.27,1.58h9.29l.08,1.46h11l.07-1.46H123c.21.52-.07,1,.21,1.49a3.89,3.89,0,0,0,1.47-.06v-3a3.57,3.57,0,0,1,1.6.09v1.47h3c.24.57-.06,1.09.23,1.52h4.57v-3.08l-1.47-.07v-3.06h3.14v1.46a4.36,4.36,0,0,0,1.53,0c0-.53,0-1,.06-1.51a3.56,3.56,0,0,1,1.5.15c0,.28.05.57.05.86s.12.62.51.56c1.11-.18,1.15.49,1.08,1.3,0,.42,0,.85,0,1.28s.09.64.48.58c1.19-.18,1.14.58,1.11,1.38,0,.62,0,1.25,0,1.88,0,1.4,0,1.4,1.34,1.56.06,0,.11.08.24.18v1.5c0,1.34,0,1.34,1.33,1.48,0,0,.1.07.27.18v4.54l0,1.54h-3.09v1.5c.5.24,1-.05,1.45.21v3h-3c-.2-.51.06-1-.23-1.54-.46.09-.94-.13-1.4.13l-.09,1.49h-3V230l1.46.09C137.35,230.56,137.36,231,137.38,231.4Z"/><path class="cls-6" d="M95.24,233.09l3-1.09-.41-1.32c.33-.44.93-.34,1.33-.75l-.38-1.28c.34-.42.87-.38,1.28-.61.45.37.36,1,.77,1.37l1.27-.4c.44.33.35.93.75,1.33l1.28-.38c.44.3.35.9.76,1.35l2.84-1,.61,1.45,4.38-1.6.62,1.44,2.78-1c.49.4.4,1,.82,1.4l1.27-.41c.43.33.34.93.71,1.31a3.81,3.81,0,0,0,1.39-.45l-1-2.85a4.1,4.1,0,0,1,1.47-.59l.54,1.29c.54.12.94-.34,1.5-.29l.55,1.25a3.12,3.12,0,0,0,1.36-.41c.1-.54-.36-.94-.29-1.47a3.64,3.64,0,0,1,1.26-.49c.42.33.34.91.75,1.36l2.85-1,.47,1.29"/><path class="cls-6" d="M146.88,228.25v-4.37c-.52-.31-1-.08-1.46-.27-.28-.47-.07-1-.16-1.52h-3.09v1.5c.5.24,1-.05,1.45.21v3h-3c-.2-.51.06-1-.23-1.54-.46.09-.94-.13-1.4.13l-.09,1.49h-3V230l1.46.09,0,.61q-18.54,1.23-37.14.92a2.31,2.31,0,0,0-.64-.16l-.8,0h.55V230h-3c-.23-.56,0-1.08-.24-1.54a3.46,3.46,0,0,0-1.36,0c-.24.47.06,1-.23,1.47a3,3,0,0,1-1.42-.08L93,228.55c-.51-.24-1,0-1.51-.24,0-.46,0-.91-.06-1.4a4.08,4.08,0,0,0-1.59.05v3a3.86,3.86,0,0,1-1.46-.06c-.22-.48.08-1-.22-1.47l-1.33-.06c-.26-.51,0-1-.29-1.59h-3c0-.56-.05-1-.08-1.57H78.79l-.08-1.57h-3c-.24-.57,0-1.1-.25-1.53l-1.34-.08c-.24-.52,0-1-.25-1.51l-1.33-.06c-.25-.52,0-1.05-.26-1.55-.45.07-.94-.15-1.4.13l-.08,1.34c-.52.25-1.05,0-1.51.25,0,.45,0,.9-.07,1.38H66v-4.63H63c-.23.52.07,1.05-.24,1.5a3.52,3.52,0,0,1-1.37-.06v-3.05l1.5-.07v-3.1H61.38c0,.5-.06,1-.09,1.45a3.89,3.89,0,0,1-1.52.09c0,.52,0,1,0,1.58a4.47,4.47,0,0,1-.07,1.46c-.42.3-.93,0-1.4.27-.25.92,0,1.92-.15,2.87-.43.33-.94,0-1.38.26-.32.38,0,.89-.26,1.36s-.92,0-1.41.27c0,.42-.09.87-.13,1.29-.45.3-1,0-1.38.25-.29.41,0,.92-.24,1.35-.39.29-.9,0-1.38.25-.27.92,0,22.49-.17,23.46-.4.34-.91.05-1.36.25-.36.39,0,1-.31,1.44l-1.29.13c-.24.44-.1.87-.15,1.29l.3,0h4.13a1.84,1.84,0,0,0,.1,1.88,1.74,1.74,0,0,0,1.15,2.89c2.09.14,4.19.26,6.28.37,3,.17,5.91.33,8.86.48a1.63,1.63,0,0,0,.93,2.06c-.31.93.2-6.22,1.5-6.13,2.47.18,4.94.3,7.41.39l2.82.76a1.65,1.65,0,0,0,.76,2.67l23.65,6.8a1.66,1.66,0,0,0,1.63-2.72h0a.13.13,0,0,0,0-.06l.54,0a1.58,1.58,0,0,0,1.44,2.31l19.24-.72c3.25.05,6.49.15,9.74.31a1.39,1.39,0,0,0,1.38-.73l1.37-.05a1.69,1.69,0,0,0,1.53,1.06h3a1.67,1.67,0,0,0,1.64-1.65,1.59,1.59,0,0,0-.35-1,1.49,1.49,0,0,0,.68-1.31V231.38h.11v-2.69C148,228.25,147.41,228.61,146.88,228.25Z"/><path class="cls-7" d="M59.73,215.76a4.47,4.47,0,0,1-.07,1.46c-.42.3-.93,0-1.4.27-.25.92,0,1.92-.15,2.87-.43.33-.94,0-1.38.26-.32.38,0,.89-.26,1.36s-.92,0-1.41.27l-.13,1.29c-.45.3-1,0-1.38.25-.29.41,0,.92-.24,1.35-.39.29-.9,0-1.38.25-.27.92,0,22.49-.17,23.46-.4.34-.91.05-1.36.25-.36.39,0,1-.31,1.44l-1.29.13c-.24.44-.1.87-.15,1.29H43.9a2.94,2.94,0,0,0-.13-1.3l-1.31-.11a2.46,2.46,0,0,1-.05-1.53H45.5c0,.5-.15,1,.15,1.53a2.12,2.12,0,0,0,1.36-.09,2.3,2.3,0,0,0-.09-1.43H45.48c.05-.49-.07-21.56.14-22.15h2.82c.37-.51.1-1,.31-1.46.39-.32,1,0,1.43-.27l.12-1.3c.46-.3,1,0,1.4-.25.28-.4,0-.9.22-1.35.38-.3.88,0,1.34-.22.34-.38,0-.94.26-1.38.41-.26.91,0,1.35-.22.28-.4,0-.9.21-1.34.39-.3.89,0,1.5-.29v-3Z"/><path class="cls-7" d="M153.21,231.13v-2.49c-.57-.36-1.13,0-1.65-.47v-5.92c-.53-.26-1,0-1.55-.35v-3h-1.55V222a4.08,4.08,0,0,1-1.46.08c-.31-.44,0-1-.22-1.49a5.26,5.26,0,0,0-1.49,0l0,1.54c.09.51-.12,1,.16,1.52.45.19.94,0,1.46.27v4.37c.53.36,1.1,0,1.57.44v2.09a2,2,0,0,0-.07.5v30.21a1.54,1.54,0,0,0,1.36,1.57v.78a1.48,1.48,0,0,0,1,1.45,1.65,1.65,0,0,0,2.58-1.33V231.65A2.11,2.11,0,0,0,153.21,231.13Z"/><path class="cls-6" d="M120,231.4v-1.34h7.72c.33-.51.06-1,.24-1.5.44-.27,1,0,1.48-.23,0-.42,0-.87.07-1.36a3.42,3.42,0,0,1,1.5-.07l.09,1.4c.43.31,1,0,1.44.22.25.42,0,.95.2,1.47l1.36.07a2.65,2.65,0,0,1,.11,1.34Z"/><path class="cls-8" d="M51.83,89.16H50.37c-.27.5,0,1-.22,1.53h-3V89.27c.44-.27,1,0,1.44-.19.23-.44,0-1,.17-1.48h1.34c.34-.5,0-1,.24-1.51.42-.25.94,0,1.47-.19l.09-1.47h1.37c.33-.5,0-1,.23-1.51.44-.25,1,0,1.47-.19V81.26h-3a4,4,0,0,1-.08-1.48c.48-.27,1,0,1.56-.24v-3h1.43c.31-.51,0-1,.24-1.56l1.46-.09V73.49c.51-.33,1,0,1.52-.23.25-.43,0-1,.19-1.48l1.47-.08v-3c.51-.26,1,0,1.59-.21v-3l1.47-.07c.3-.43,0-1,.19-1.45.43-.26,1,0,1.51-.2v-3h1.43c.34-.51,0-1,.24-1.52.42-.25.94,0,1.47-.18l.09-1.47H69.2v-3c.55-.31,1.07,0,1.6-.26l.07-1.46h3c.32-.51,0-1,.26-1.59h3V49.75c.51-.34,1,0,1.52-.24.25-.42,0-.94.19-1.5h3V46.46H85l.1-1.62h4.69V43.28h6.3l.1-1.56h23.69v1.49h4.72c0,.57.07,1,.11,1.62h3.1v1.43c.5.31,1,0,1.55.24l.1,1.47h3c.29.5,0,1,.21,1.51.43.25,1,0,1.48.19l.08,1.47h1.38c.32.5,0,1,.23,1.51.44.24,1,0,1.49.2l.06,1.46h3.05a4.78,4.78,0,0,1,.06,1.59h-6.31v1.6h0l-7.91,0c-1.6,0-1.6,0-1.61,1.56h-3.16c-1.45,0-1.45,0-1.65-1.37,0-.06-.08-.1-.18-.21h-1.42c-1.39,0-1.39,0-1.56-1.36,0,0-.07-.1-.17-.23-1.29.39-1.52-.43-1.38-1.58h-7.63c-1.66,0-1.66,0-2-1.52H88.42c-.34.48,0,1-.45,1.57H83.64c-.26.54,0,1-.39,1.57H78.91c-.29.54,0,1-.37,1.55H75.75C74,57.5,74,57.5,74,59.2a2.92,2.92,0,0,1-.14,1.39l-1.28.14c-.34.48,0,1.05-.46,1.57H67.8c-.26.54,0,1.05-.28,1.43s-1-.06-1.34.24c-.23.43.06.94-.27,1.38l-1.43.15v4.58l-1.41.14c-.33.48,0,1.06-.31,1.44-.46.2-1-.09-1.37.26-.19,1,.1,2-.16,2.87-.49.24-1,0-1.4.27-.19.43,0,.93-.23,1.37l-1.45.15v3l-1.57.17v4.45c-.54.39-1.11,0-1.64.5V95.34c-.53.27-1,0-1.56.39v7.52c-.54.26-1,0-1.57.34v7.64l-1.42.15a1.93,1.93,0,0,0-.14,1.12q0,5.77,0,11.57c0,1.37,0,1.37,1.36,1.55.06,0,.1.08.23.18v12.58c0,1.33,0,1.33,1.33,1.48.06,0,.11.07.25.17v5.85c0,1.64,0,1.64,1.58,2v4.39c0,1.6,0,1.6,1.6,1.92v9.34l0,0H55L55,165.09H53.45V152.63c-.54-.31-1.06,0-1.61-.27v-6.19H50.29v-7.78c-.54-.32-1.07,0-1.62-.27V127.18H47.15v-9.44c.41-.25.93,0,1.49-.19v-9.4h1.58V98.81c.5-.32,1,0,1.6-.26V89.14h1.56a4.81,4.81,0,0,0-.05-1.53,3.17,3.17,0,0,0-1.5.08Zm74.32-39.51c.3,1.67.3,1.67,1.76,1.39l-.13-1.46c-1.27.27-1.71-.36-1.53-1.56h-1.53C124.65,49.49,124.65,49.49,126.15,49.65Zm4.94,1.45c-.15,1.67,0,1.82,1.57,1.53l-.12-1.4Z"/><path class="cls-9" d="M199.13,67l-1.52.09-.1,1.39c-.44.28-.93,0-1.39.2-.32.41,0,1-.23,1.41-.42.25-.91,0-1.37.18-.3.42,0,1-.26,1.49h-2.85c-.33.51-.1,1-.25,1.46-.4.34-.95,0-1.41.24-.24.41,0,.9-.19,1.41-1,.22-2,0-3,.14l-.11,1.38c-.45.32-1,0-1.49.28,0,.42-.06.87-.1,1.41h-2.89c-.39.52-.09,1.06-.35,1.59h-2.83c-.4.52-.07,1.06-.35,1.56l-1.31.09c-.27.46,0,1-.23,1.51h-3l-.12,1.51c-1,.26-2,0-3.06.18l-.11,1.41c-1,.23-2,0-3,.14-.33.43,0,1-.29,1.51H164.5c-.39.52-.06,1.07-.37,1.6h-2.94l-.13,1.57h-2.91c-.37-.43,0-1-.35-1.48-1.43-.18-1.43-.18-1.43-1.71a5.3,5.3,0,0,1,0-.69c.07-.63-.17-.93-.82-.84s-.8-.24-.78-.81c0-.79,0-1.58,0-2.37.52,0,1,0,1.56,0,1.73,0,1.63.32,1.6-1.59.52,0,1,0,1.56,0,1.74,0,1.63.32,1.61-1.59.52,0,1,0,1.56,0,1.74,0,1.63.31,1.61-1.59,1.8,0,1.59.21,1.58-1.59,1.8,0,1.6.22,1.59-1.58,1.89,0,1.56.14,1.59-1.61,0-.52,0-1,0-1.55,1.88,0,1.56.16,1.59-1.62,0-.51,0-1,0-1.55,1.86,0,1.57.16,1.59-1.58,1.81,0,1.58.22,1.59-1.59,1.8,0,1.57.23,1.58-1.58,1.8,0,1.57.23,1.58-1.58h1.56c1.79,0,1.61.28,1.61-1.58.52,0,1,0,1.56,0,1.79,0,1.61.28,1.61-1.59.52,0,1,0,1.56,0,1.79,0,1.61.27,1.61-1.59,1.07,0,2.15,0,3.22,0,1.69,0,1.53.26,1.53-1.58h7.92c0,1.83-.21,1.56,1.62,1.58h1.55V60c0,.33,0,.76-.46.69-1.3-.21-1.15.65-1.13,1.44,0,.39,0,.79,0,1.18s-.06.59-.4.54c-1.44-.22-1.17.78-1.18,1.59Z"/><path class="cls-10" d="M159.53,59.09h3c.27-.5,0-1,.2-1.56h3l.08-1.63H169c0,.51.16,1.05-.17,1.59-.82-.07-1.63-.1-1.42,1.16.07.47-.4.45-.71.42-.64-.06-.94.17-.85.83s-.24.82-.81.77a.78.78,0,0,0-.68.14,4.61,4.61,0,0,0-.09,1.44c-1.87,0-1.56-.18-1.58,1.58-1.91,0-1.55-.14-1.59,1.59A3.86,3.86,0,0,1,161,67c-.7,0-1.45,0-2.2,0-.58,0-.88.16-.8.78s-.24.88-.86.82c-.29,0-.6,0-.89,0-1.08-.19-1.59.21-1.47,1.34,0,0-.07.1-.17.25h-2.29c-.37,0-.71.07-.64.52.16,1-.43,1.13-1.22,1.07-.42,0-.85,0-1.28,0s-.75.19-.68.69c.11.8-.3.91-1,.91-3.42,0-6.85-.06-10.27,0-1.09,0-1.6-.23-1.48-1.36,0,0-.06-.1-.16-.25-1.24.35-1.57-.37-1.37-1.61-1.37.32-1.84-.25-1.6-1.4a4.55,4.55,0,0,0-1.55-.17v-3a4.39,4.39,0,0,0-1.59-.18l0-4.72,3.14,0c1.82,0,1.61.27,1.62-1.6h0l9.54,0c0,.52,0,1,0,1.57h0a3.53,3.53,0,0,0-1.59.16v1.43h0c-.51,0-1-.14-1.52.14v4.5a4.46,4.46,0,0,0,1.53.08h4.67c.15-.58-.07-1.09.2-1.6h1.46v-1.5l1.55-.09V62.26c.06-2,.09-1.56-1.57-1.59h0c0-.52,0-1.05,0-1.57h7.95v1.5h3.16V59.09Z"/><path class="cls-9" d="M158.15,109.75h2.91l.1,1.42c.51.28,1.05.06,1.56.17a3.11,3.11,0,0,0,.16,1.55h1.41a3.56,3.56,0,0,0,.17,1.59h3a3.59,3.59,0,0,0,.17,1.6h3v0a3.59,3.59,0,0,0,.16,1.6h1.42a3.71,3.71,0,0,0,.17,1.59h1.41a3.77,3.77,0,0,0,.17,1.6h1.43v0a3.74,3.74,0,0,0,.16,1.6H177l0,0a3.74,3.74,0,0,0,.17,1.6h3a4.07,4.07,0,0,0,.15,1.6h1.45l0,0a4.25,4.25,0,0,0,.15,1.6h1.45v0a3.88,3.88,0,0,0,.15,1.6h1.43a4.07,4.07,0,0,0,.15,1.6h1.45l0,0v3.18h1.59v3.12h-6.22c-.28-.51.06-1.05-.26-1.46-.46-.17-.95.08-1.4-.21l-.1-1.36c-1-.21-2.08.08-3-.17-.19-.49.05-1-.19-1.39-.46-.25-1,.09-1.41-.24-.17-.47.08-1-.22-1.4l-1.31-.1c-.27-.5.06-1.05-.34-1.56h-2.9l-.11-1.47c-1-.21-2.07.08-3-.17-.19-.49.05-1-.26-1.5h-2.86a4.69,4.69,0,0,1-.14-1.55c0-1.94.12-1.58-1.61-1.61-.53,0-1,0-1.58,0h0c0-1.81.22-1.63-1.59-1.6v0c.06-2,.06-1.58-1.51-1.61-.56,0-1.11,0-1.67,0v0c0-1.81,0-3.62,0-5.43,0-.61.08-1,.84-.94s.75-.25.77-.81A4.85,4.85,0,0,1,158.15,109.75Z"/><path class="cls-11" d="M154.78,82.81c0,.79,0,1.58,0,2.37,0,.57.15.89.78.81s.89.21.82.84a5.3,5.3,0,0,0,0,.69c0,1.53,0,1.53,1.43,1.71.32.44,0,1,.35,1.48-.43.43,0,1-.36,1.59H155c-.4.51-.05,1.06-.38,1.58H147a3.83,3.83,0,0,0-.18,1.61h-6.33v1.59h-3.17v1.58h-3.17v1.59H131v1.58h-6.36v-1.57c0-1.31,0-2.62,0-3.93,0-.63.17-.87.83-.86,1.51,0,3,0,4.53,0,.77,0,1.1-.21,1-1a3.87,3.87,0,0,1,0-.59c.5-.12,1.05.13,1.5-.16.18-.47-.08-1,.27-1.47h4.4c.31-.53,0-1.08.39-1.6h2.87c0-.54.08-1,.12-1.46,1-.23,2.07.07,3-.18.2-.49,0-1,.23-1.44l1.3-.1c.3-.48,0-1,.36-1.55h2.81c.29-.54,0-1.09.38-1.6h2.87l.13-1.56h3.1Z"/><path class="cls-12" d="M189.64,111.32v1.52h-9.4c-.25-.43,0-1-.21-1.52h-4.61c0-.56,0-1-.08-1.57h-3.09c0-.56-.05-1-.08-1.57h-3c-.29-.54-.06-1-.26-1.6H140.6l-.15-1.53c-1-.18-2,.07-3-.15-.27-.47,0-1-.29-1.44l-1.3-.13a4.12,4.12,0,0,1-.12-1.51c.49-.08,1,.12,1.57-.18v-1.41h3.17V98.65h0l3.18,0a3.53,3.53,0,0,0,.17,1.57h4.37c.38.54,0,1.11.5,1.63h5.91c.26.54,0,1,.39,1.56H161c.29.54,0,1,.38,1.57h9.2c.06.55.11,1,.16,1.48,1,.24,2.06-.11,3,.19.23.5-.06,1,.3,1.42,1,.18,2-.09,2.86.15.25.49,0,1,.36,1.52h5.93c.3.53,0,1,.38,1.56Z"/><path class="cls-13" d="M189.64,111.32h-6.13c-.37-.52-.08-1-.38-1.56H177.2c-.4-.52-.11-1-.36-1.52-.91-.24-1.91,0-2.86-.15-.36-.41-.07-.92-.3-1.42-.92-.3-2,0-3-.19,0-.48-.1-.93-.16-1.48h-9.2c-.38-.52-.09-1-.38-1.57H155c-.42-.51-.13-1-.39-1.56h-5.91c-.5-.52-.12-1.09-.5-1.63h-4.37a3.53,3.53,0,0,1-.17-1.57l15.84,0a4.79,4.79,0,0,0,.13,1.58h6.21a5.45,5.45,0,0,0,.11,1.59h3.06a5.27,5.27,0,0,0,.12,1.6h3l0,0c.1.5-.11,1,.19,1.58H177v1.57h3.13c1.94.06,1.58.11,1.61-1.55v0h7.87c0,.55,0,1,.08,1.57h1.51v3.18c-.48.06-1-.1-1.45.13a4.62,4.62,0,0,0-.09,1.48Z"/><path class="cls-11" d="M158.15,109.75a4.85,4.85,0,0,0-.18,2.33c0,.56-.14.9-.77.81s-.85.33-.84.94c0,1.81,0,3.62,0,5.43-.5-.11-1,.12-1.5-.15-.16-.48.06-1-.18-1.4-1-.18-2,.09-3-.16,0-.5,0-1-.08-1.43-1.06-.15-2.08.08-3.08-.15l-.09-1.5h-4.57c-.28-.56,0-1.1-.31-1.57h-4.59v-1.57l6.37,0h3.16v-1.59h0a4,4,0,0,0,1.59-.16v-1.43h7.71C158.19,108.65,157.69,109.32,158.15,109.75Z"/><path class="cls-6" d="M145.29,111.31l-6.37,0h0a3.27,3.27,0,0,0-.16-1.59h-3a3.4,3.4,0,0,0-.17-1.59h-3a3.44,3.44,0,0,0-.16-1.6H131v0a3.45,3.45,0,0,0-.16-1.6h-1.42c0-.54,0-1.08,0-1.62h4.73V101.8h0l1.6,0a4.12,4.12,0,0,0,.12,1.51l1.3.13c.31.46,0,1,.29,1.44.92.22,1.92,0,3,.15l.15,1.53h9.45c0,.53,0,1,0,1.57h0a4.44,4.44,0,0,0-1.59.16v1.43h-3.15Z"/><path class="cls-8" d="M64.53,193.61V190.5l-1.59-.08v-4.55c-.51-.32-1,0-1.59-.26v-6.2H59.8v-4.73l-1.63-.09v-4.68H56.56v-6.35l0,0a4.24,4.24,0,0,1,1.57.17v3.09c0,1.38,0,1.38,1.36,1.55,0,0,.1.08.23.18v3.09c0,1.34,0,1.34,1.32,1.47.06,0,.11.07.26.17v2.68c0,1.67,0,1.67,1.58,2v1.42c0,1.46,0,1.46,1.37,1.65,0,0,.1.08.22.18v3c0,1.42,0,1.42,1.33,1.57.06,0,.11.07.24.16v7.73Z"/><path class="cls-14" d="M164.29,62.25a4.61,4.61,0,0,1,.09-1.44.78.78,0,0,1,.68-.14c.57,0,.9-.13.81-.77s.21-.89.85-.83c.31,0,.78,0,.71-.42-.21-1.26.6-1.23,1.42-1.16.33-.54.14-1.08.17-1.59V54.36h3.14l.08-1.58h3c.26-.53,0-1,.21-1.63h3.08l0,0c0,.86.21,1.85-1.24,1.6-.27,0-.35.24-.35.49s0,.71,0,1.06h0c-.78,0-1.57,0-2.35,0-.56,0-.9.12-.81.76s-.17.92-.82.83-.83.21-.77.8a6.77,6.77,0,0,1,0,.78h0c-1.56,0-1.56,0-1.59,1.58h0c-.51.08-1.05-.15-1.61.23v1.34c-.49.1-1-.13-1.48.16-.19.46.06.94-.24,1.4l-1.41.07-1.6,0Z"/><path class="cls-14" d="M156.38,59.1H143.71l-9.54,0,0-1.58h0l6.34,0,17.84,0h1.16v1.56Z"/><path class="cls-15" d="M62.9,212.64H61.38l-.09,1.45a3.89,3.89,0,0,1-1.52.09v-1.53l-1.56-.06V211h1.54v-1.56H61.2c.26-.5,0-1,.19-1.53.42-.2.92,0,1.42-.12.24-.44,0-1,.15-1.45.44-.23.95,0,1.5-.16v-4.7h1.61v6.14c-.15.09-.2.15-.26.16-1.31.13-1.31.13-1.31,1.48,0,.4,0,.79,0,1.19s-.17.59-.54.53c-1.06-.18-1.11.46-1.05,1.23C62.92,212.38,62.9,212.51,62.9,212.64Z"/><path class="cls-11" d="M199.13,67V65.39c0-.81-.26-1.81,1.18-1.59.34.05.4-.26.4-.54s0-.79,0-1.18c0-.79-.17-1.65,1.13-1.44.48.07.46-.36.46-.69V57.49h1.59V62c-.51.34-1,.08-1.49.29-.28.94,0,2-.19,3l-1.34.11c-.31.45-.05.94-.25,1.41A3.11,3.11,0,0,1,199.13,67Z"/><path class="cls-13" d="M158,95.51h7.87c0,.51,0,1,.08,1.53h3.14v1.6h0l-3.2,0-1.54,0c-.06-1.71.31-1.56-1.56-1.56l-3.23,0-1.54,0Z"/><path class="cls-12" d="M158,95.51v1.54l-11.11,0,0-1.59h0Z"/><path class="cls-14" d="M186.45,49.57V48.05h7.94v1.52l0,0h-7.9Z"/><path class="cls-14" d="M178.53,51.15V49.57h7.92l0,0,0,1.55-1.55,0-6.34,0Z"/><path class="cls-9" d="M140.53,57.46l-6.34,0V55.9h6.31Z"/><path class="cls-15" d="M67.68,199.93s0,.07,0,.1c0,1.52,0,1.52-1.6,1.5V195.2h1.6Z"/><path class="cls-12" d="M175.4,101.81l1.56,0c0,.52,0,1,0,1.56l-4.76,0,0,0,0-1.58Z"/><path class="cls-14" d="M194.39,49.57h4.75v1.59h0l-4.73,0,0-1.56Z"/><path class="cls-14" d="M202.31,52.74h3.13V55.9h-1.55a4.13,4.13,0,0,0-.17-1.6h-1.4l0-1.56Z"/><path class="cls-14" d="M199.14,51.16h3.17v1.58h-3.17c0-.52,0-1.05,0-1.57Z"/><path class="cls-13" d="M169.05,98.64h3.17v1.58l0,0H169V98.65Z"/><path class="cls-13" d="M175.4,101.81l-3.21,0h0v-1.59l0,0h3.18Z"/><path class="cls-13" d="M178.55,103.39h3.17V105h-1.62l-1.54,0c0-.52,0-1,0-1.56Z"/><path class="cls-16" d="M167.47,114.47h-3a3.56,3.56,0,0,1-.17-1.59h3.18Z"/><path class="cls-16" d="M170.64,116.06h-3a3.59,3.59,0,0,1-.17-1.6h3.18Z"/><path class="cls-16" d="M180.14,124h-3a3.74,3.74,0,0,1-.17-1.6l3.17,0Z"/><path class="cls-13" d="M177,103.41c0-.52,0-1,0-1.56h1.48a5.72,5.72,0,0,1,.11,1.54H177Z"/><path class="cls-12" d="M189.64,111.33a4.62,4.62,0,0,1,.09-1.48c.47-.23,1-.07,1.45-.13v1.47C190.67,111.44,190.14,111.25,189.64,111.33Z"/><path class="cls-16" d="M164.3,112.89h-1.42a3.11,3.11,0,0,1-.16-1.55h1.46A6.31,6.31,0,0,1,164.3,112.89Z"/><path class="cls-17" d="M203.89,55.91h1.55v1.59h-1.55Z"/><path class="cls-16" d="M172.22,117.64h-1.43a3.59,3.59,0,0,1-.16-1.6h1.45A5.63,5.63,0,0,1,172.22,117.64Z"/><path class="cls-16" d="M173.81,119.22h-1.43a3.71,3.71,0,0,1-.17-1.59h1.45A5.94,5.94,0,0,1,173.81,119.22Z"/><path class="cls-16" d="M175.39,120.81H174a3.77,3.77,0,0,1-.17-1.6h1.46A5.57,5.57,0,0,1,175.39,120.81Z"/><path class="cls-16" d="M177,122.39h-1.44a3.74,3.74,0,0,1-.16-1.6h1.45A6,6,0,0,1,177,122.39Z"/><path class="cls-16" d="M203.89,57.49h1.55v1.58h-1.55Z"/><path class="cls-15" d="M64.53,193.61l1.54,0v1.56H64.53Z"/><path class="cls-18" d="M137.34,120.83a4.39,4.39,0,0,1-.08,1.52l-1.34.08c-.3.46,0,1-.26,1.53h-2.88c-.32.52-.05,1.05-.28,1.56l-1.34.08c-.27.45,0,.94-.2,1.4-.4.32-.94,0-1.46.26l-.1,1.31c-.43.33-1,0-1.49.27l-.09,1.32c-.44.32-1,0-1.45.24-.22.41,0,.9-.17,1.4-1,.23-2,0-3,.16l-.1,1.36c-.44.33-1,0-1.49.28l-.09,1.31c-.45.32-1,0-1.52.28V138c-.52.36-1.06,0-1.59.33v4.54l-1.55.13v18.8c.44.31,1,0,1.51.27v2.84c.51.36,1,0,1.58.33v2.84c.52.36,1.06,0,1.56.31l.09,1.32c.45.31,1,0,1.52.28v2.84c.52.35,1.06,0,1.59.33V176c.52.35,1.06,0,1.56.31l.08,1.32c.47.28,1,0,1.5.24l.08,1.34c.47.3,1,0,1.51.27l.08,1.31c.45.27.93,0,1.4.2.33.4,0,.94.23,1.42.41.23.89,0,1.36.16.32.41,0,1,.25,1.47l1.32.09c.33.43,0,1,.24,1.44.41.24.89,0,1.37.17a2.45,2.45,0,0,1,.06,1.48h-2.93c-.3.54-.1,1-.18,1.56l1.44.1c.33.44,0,1,.26,1.49l1.44.1v3.06l1.47.1c.33.44,0,1,.24,1.45.42.22.9,0,1.37.16.27.47,0,1,.15,1.52-.09.5.09,1-.12,1.51-.48.18-1-.08-1.53.23V200a3.5,3.5,0,0,1-1.56-.18v-2.9l-1.57-.17v-2.87c-.54-.38-1.11,0-1.5-.36-.21-.45.08-1-.23-1.34-.44-.22-1,.07-1.34-.23-.23-.44.06-1-.23-1.34s-.94.05-1.46-.32v-2.87l-1.42-.15c-.33-.48.05-1.05-.31-1.43-.46-.2-1,.08-1.32-.22-.24-.46.06-1-.25-1.35-.45-.23-1,.07-1.34-.24s0-.94-.23-1.33c-.44-.24-1,0-1.47-.33v-2.86l-1.43-.15c-.3-.49,0-1.05-.27-1.41-.48-.24-1,.07-1.35-.25s.06-1-.24-1.34c-.45-.23-1,.06-1.35-.24-.23-.44.06-.95-.23-1.34-.43-.24-.94.05-1.34-.23-.25-.43,0-.94-.27-1.39l-1.28-.13c-.31-.49,0-1-.33-1.47a2.08,2.08,0,0,0-1.29.08c-.24.47.06,1-.28,1.39a2,2,0,0,1-1.31-.06c-.24-.45,0-1-.24-1.35-.43-.24-.94,0-1.34-.24s0-.93-.26-1.39l-1.35-.14c-.22-1,.08-2.06-.17-3-.52-.24-1,0-1.41-.27-.21-.45.08-.95-.23-1.34-.44-.22-1,.07-1.34-.23-.23-.44.06-1-.25-1.37a2.09,2.09,0,0,0-1.37.06l-.14,1.38a13.22,13.22,0,0,1-3,0c-.29-.48,0-1.05-.37-1.51-1.71,0-3.46,0-5.2,0-.78,0-1,.28-.92,1,0,.52,0,1.06,0,1.58,0,.32,0,.62-.46.61a13.79,13.79,0,0,1-2.58-.07c-.25-.5,0-1-.32-1.47a2.87,2.87,0,0,0-1.32.09l-.15,1.39-1.43.15-.14,1.36c-.48.31-1,0-1.43.3-.21.45.08,1-.24,1.34-.45.2-1,0-1.36.24-.21,1,.09,2-.19,2.95l-1.4.14c-.18,1,.07,2-.15,2.95-.47.28-1,0-1.51.35v10.67c-.54.37-1.11,0-1.63.5v6a2.14,2.14,0,0,1-1.57-.17V189c-.54-.27-1,0-1.49-.32-.17-.95.1-1.94-.14-2.86-.47-.27-1,0-1.51-.35V181l-1.48-.16c-.24-1,.1-2.06-.2-3-.5-.23-1,0-1.52-.36v-4.36c-.54-.26-1.05,0-1.44-.28-.23-.43.06-.94-.25-1.36a2.09,2.09,0,0,0-1.31,0c-.26.45,0,1-.26,1.38a2.12,2.12,0,0,1-1.44,0v-2.81c-.54-.39-1.11,0-1.64-.5V158.93c-.54-.24-1,0-1.47-.28-.19-1,.09-2-.16-2.89-.47-.26-1,0-1.5-.35v-4.35c-.53-.31-1,0-1.57-.38V147.9c-.55-.34-1.11,0-1.5-.34-.2-.45.08-.95-.23-1.34-.45-.2-1,.06-1.47-.32v-7.52c-.54-.29-1.05,0-1.57-.38v-7.53c-.53-.29-1,0-1.5-.32V113.06c.48-.34,1,0,1.52-.41,0-1.72,0-3.5,0-5.28,0-.34-.1-.79.46-.79a13.76,13.76,0,0,1,2.58.06c.25.51,0,1,.3,1.44.95.2,1.95-.08,2.87.16.26.47,0,1,.25,1.38.43.25.94,0,1.39.26l.14,1.29c.48.3,1.05,0,1.43.3.2.45-.09,1,.26,1.36,1,.2,2-.1,2.88.17.23.48,0,1,.25,1.38.44.23,1-.06,1.34.23.24.43,0,.94.32,1.46h2.87l.17,1.57h3a2.24,2.24,0,0,1,0,1.52c-1,.2-2-.1-2.89.17-.57,1.48.41,1.54,1.31,1.54.28.51,0,1,.31,1.45h7.68l.15-1.43A2,2,0,0,1,85,121c0,.19,0,.35,0,.51.06,2.49,0,2.49,2.55,2.49h3.63c.27-.6,0-1.11.31-1.52,1-.21,2,.1,2.89-.17.25-.47,0-1,.31-1.44a15.42,15.42,0,0,1,2.88,0,2.18,2.18,0,0,1,0,1.45l-1.37.14a2,2,0,0,0,.06,1.41h2.91c.24-.51,0-1,.26-1.4.45-.21,1,.07,1.36-.24.18-.44,0-.93.28-1.46h4.47l.17-1.57h4.58l.17-1.56H115c.39-.55,0-1.12.37-1.5.45-.21,1,.07,1.34-.24.21-.44-.07-1,.23-1.33s1,.06,1.34-.24c.24-.43,0-.94.23-1.34.43-.24.94,0,1.39-.26l.14-1.3a4.4,4.4,0,0,1,1.51-.13h1.57c.08.5-.11,1,.17,1.6h1.42c.07.5-.12,1,.16,1.59h1.42c.07.5-.11,1,.17,1.59h1.42c.07.5-.13,1,.17,1.59h3c.08.51-.12,1,.18,1.59h3c.07.5-.12,1,.18,1.6Zm-45.1,4.73c-.46,0-.93,0-1.38,0-.73-.07-1.15.12-1,1,.07.46-.17.69-.63.62-.84-.12-1,.31-1,1,0,.49,0,1,0,1.48s.39.66.87.67.79-.13.71-.66c-.14-.87.35-1,1-.93.43,0,.86,0,1.28,0,.63.06.93-.17.85-.83s.13-.83.71-.76.89-.21.89-.89-.51-.69-1-.69Zm-11.76,1.65c-.24,1.11-.17,1.46.4,1.48,1.37.06,2.75,0,4.09,0,.19-1.21.19-1.22,1.34-1.58.56-.18.31-.65.35-1s-.19-.58-.59-.57H83.69c-1.59,0-1.59,0-1.91,1.51Zm3,6.15c-.12-1,0-1.7,1.24-1.5.22,0,.3-.18.35-.39.2-.83,0-1.15-.9-1.16-2.27-.05-2.27-.05-2.26,2C81.93,133.5,82,133.57,83.49,133.36ZM75.69,124c-.2,1.5-.14,1.58,1.18,1.58.43,0,.86,0,1.28,0,.59,0,.61-.35.6-.78s0-.81-.56-.81C77.38,124,76.56,124,75.69,124Zm3.06,7.92c0-.16,0-.33,0-.49,0-.53.18-1.11-.76-1.13s-.81.6-.82,1.17,0,.92,0,1.38.42.63.89.65.73-.18.69-.69A8.81,8.81,0,0,1,78.75,131.9Z"/><path class="cls-17" d="M138.92,111.33v1.57h4.59c.35.47,0,1,.31,1.57h4.57l.09,1.5c1,.23,2,0,3.08.15,0,.48.05.93.08,1.43,1,.25,2,0,3,.16.24.44,0,.92.18,1.4.46.27,1,0,1.5.15v0c.09.5-.11,1,.18,1.6h3v0c.09.5-.11,1,.17,1.6h1.41c.09.5-.11,1,.13,1.49a.45.45,0,0,0,.13,0l2.93,0a4.69,4.69,0,0,0,.14,1.55h2.86c.31.52.07,1,.26,1.5,1,.25,2,0,3,.17l.11,1.47h2.9c.4.51.07,1.06.34,1.56l1.31.1c.3.44.05.93.22,1.4.4.33.95,0,1.41.24.24.41,0,.9.19,1.39,1,.25,2,0,3,.17l.1,1.36c.45.29.94,0,1.4.21.32.41,0,.95.26,1.46h6.22v-3.12h1.56v3.16h1.56v1.49c-.42.27-.94,0-1.56.21v1.47l-4.75,0h-3c-.28-.52,0-1-.22-1.57l-1.48-.07c-.08-.5.11-1-.15-1.53h-1.47l-1.57,0c0-1.58,0-1.58-1.61-1.54h-1.52l-.07-1.55-1.55-.08a4.18,4.18,0,0,0-.12-1.45,4.64,4.64,0,0,0-1.48-.09h0c0-.51.15-1.05-.12-1.49-.47-.24-1,.07-1.36-.25-.22-.45.07-.95-.26-1.37-1-.2-2,.09-2.94-.18l-.15-1.49h-3l-.16-1.56h-2.88c-.38-.54,0-1.12-.49-1.64h-4.33c-.26-.54,0-1-.31-1.46-1-.2-2,.09-2.87-.17-.26-.47,0-1-.35-1.5h-5.93c-.32-.53,0-1-.38-1.57h-2.76c-.38-.54,0-1.11-.5-1.63h-5.91c-.24-.54,0-1-.28-1.46-1-.21-2,.09-2.9-.17-.25-.47,0-1-.25-1.37-.44-.25-.95,0-1.39-.27-.05-.42-.1-.87-.15-1.43h-2.88c-.38-.54,0-1.11-.36-1.49-.45-.21-1,.08-1.34-.24-.21-.44.07-1-.23-1.33s-.95.06-1.39-.28c-.18-.94.1-1.94-.15-2.86-.47-.26-1,0-1.5-.34v-3c0-1,0-2.1,0-3.16v0l1.57,0v1.57h1.57c.12.5-.12,1,.17,1.5.47.17,1-.07,1.4.22l.11,1.45h1.51a4.36,4.36,0,0,0,.17,1.6H131v0a4.5,4.5,0,0,0,.15,1.6h1.43c.07.5-.12,1,.17,1.59h3c.07.5-.12,1,.16,1.59h3Z"/><path class="cls-15" d="M137.32,200v-1.42c.53-.31,1.05-.05,1.53-.23.21-.48,0-1,.12-1.51h1.54v1.57h1.6v1.56h1.45c.27.5,0,1,.19,1.53.42.21.93,0,1.43.12.24.44,0,1,.15,1.45.43.24.94,0,1.44.15.23.44,0,1,.15,1.44.44.22,1,0,1.47.15v1.5h-3.06v1.59h3.11V211H150v3.14h1.51v3.11c-.41.23-.92,0-1.54.17v1.48h-1.55V222a4.08,4.08,0,0,1-1.46.08c-.31-.44,0-1-.22-1.49a5.26,5.26,0,0,0-1.49,0V216c-.17-.11-.22-.17-.27-.18-1.32-.14-1.32-.14-1.33-1.48v-1.5c-.13-.1-.18-.17-.24-.18-1.34-.16-1.34-.16-1.34-1.56,0-.63,0-1.26,0-1.88,0-.8.08-1.56-1.11-1.38-.39.06-.49-.24-.48-.58s0-.86,0-1.28c.07-.81,0-1.48-1.08-1.3-.39.06-.51-.21-.51-.56s0-.58-.05-.86a3.56,3.56,0,0,0-1.5-.15C137.37,202.06,137.35,201,137.32,200Z"/><path class="cls-16" d="M123.09,103.38v3c.52.36,1,.08,1.5.34.25.92,0,1.92.15,2.86.44.34,1,0,1.39.28s0,.89.23,1.33c.38.32.89,0,1.34.24.35.38,0,.95.36,1.49h2.88c.05.56.1,1,.15,1.43.44.31.95,0,1.39.27.28.39,0,.9.25,1.37.92.26,1.92,0,2.9.17.28.42,0,.92.28,1.46h5.91c.49.52.12,1.09.5,1.63h2.76c.35.53.06,1,.38,1.57h5.93c.38.52.09,1,.35,1.5.92.26,1.92,0,2.87.17.33.41,0,.92.31,1.46h4.33c.48.52.11,1.1.49,1.64h2.88l.16,1.56h3l.15,1.49c1,.27,2,0,2.94.18.33.42,0,.92.26,1.37.38.32.89,0,1.36.25.27.44.08,1,.12,1.49H167.5l-.08-1.57h-3c-.32-.5,0-1-.26-1.58h-4.65v-1.59H155c-.32-.51,0-1-.27-1.58h-3l-.07-1.56h-3c-.32-.54-.05-1.06-.28-1.62h-4.61v-1.62H139a5.05,5.05,0,0,0-.14-1.55H134.2c-.07-.5.12-1-.19-1.59h-3a3.56,3.56,0,0,0-.17-1.59h-3a3.69,3.69,0,0,0-.16-1.59h-1.42a3.71,3.71,0,0,0-.17-1.59h-1.41a3.75,3.75,0,0,0-.17-1.6H123.1v-3.17h-1.58v-4.78h1.57Z"/><path class="cls-11" d="M134.18,119.23h4.64a5.05,5.05,0,0,1,.14,1.55l-1.62,0h-3C134.06,120.26,134.25,119.73,134.18,119.23Z"/><path class="cls-9" d="M184.86,139.83l4.75,0v1.45a20,20,0,0,1-4.65,0A5.87,5.87,0,0,1,184.86,139.83Z"/><path class="cls-17" d="M188.06,133.47h-1.6v-3.18h1.6Z"/><path class="cls-17" d="M181.73,125.56h-1.45a4.07,4.07,0,0,1-.15-1.6h1.59C181.72,124.5,181.72,125,181.73,125.56Z"/><path class="cls-17" d="M183.31,127.14h-1.45a4.25,4.25,0,0,1-.15-1.6h1.47A6.36,6.36,0,0,1,183.31,127.14Z"/><path class="cls-17" d="M184.89,128.72h-1.44a3.88,3.88,0,0,1-.15-1.6h1.46A5.93,5.93,0,0,1,184.89,128.72Z"/><path class="cls-17" d="M186.48,130.31H185a4.07,4.07,0,0,1-.15-1.6h1.47A6.36,6.36,0,0,1,186.48,130.31Z"/><path class="cls-16" d="M170.61,131.9a4.64,4.64,0,0,1,1.48.09,4.18,4.18,0,0,1,.12,1.45h-1.48A5.37,5.37,0,0,1,170.61,131.9Z"/><path class="cls-16" d="M175.35,135.07c1.6,0,1.6,0,1.61,1.54h-1.47C175.25,136.1,175.44,135.57,175.35,135.07Z"/><path class="cls-11" d="M178.53,136.66H180c.26.5.07,1,.15,1.53h-1.43C178.41,137.68,178.63,137.15,178.53,136.66Z"/><path class="cls-19" d="M137.32,200l.07,3.17c0,.49,0,1-.06,1.51a4.36,4.36,0,0,1-1.53,0v-1.46h-3.14v3.06l1.47.07v3.08h-4.57c-.29-.43,0-1-.23-1.52h-3v-1.47a3.57,3.57,0,0,0-1.6-.09v3a3.89,3.89,0,0,1-1.47.06c-.28-.45,0-1-.21-1.49h-4.63l-.07,1.46h-11l-.08-1.46H97.94c-.33-.55-.06-1.07-.27-1.58H93.13c-.29.41,0,.94-.19,1.42-.43.24-1,0-1.48.19l-.07,1.43H88.28v-4.57a3.74,3.74,0,0,0-1.47-.08c-.3.45,0,1-.23,1.5a4.52,4.52,0,0,1-1.47,0v-3.08H82l-.08-1.56h-3c-.34-.55,0-1.08-.3-1.6H75.77c-.35-.51,0-1-.27-1.56h-3l-.08,1.5h-4.7v-4.72h-1.6v-9.29c-.13-.09-.18-.15-.24-.16-1.33-.15-1.33-.15-1.33-1.57v-3c-.12-.1-.17-.17-.22-.18-1.37-.19-1.37-.19-1.37-1.65V178c-1.58-.34-1.58-.34-1.58-2v-2.68c-.15-.1-.2-.16-.26-.17-1.32-.13-1.32-.13-1.32-1.47v-3.09c-.13-.1-.18-.17-.23-.18-1.36-.17-1.36-.17-1.36-1.55v-3.09a4.24,4.24,0,0,0-1.57-.17V154.2c-1.6-.32-1.6-.32-1.6-1.92v-4.39c-1.58-.37-1.58-.37-1.58-2V140c-.14-.1-.19-.17-.25-.17-1.33-.15-1.33-.15-1.33-1.48V125.8c-.13-.1-.17-.17-.23-.18-1.36-.18-1.36-.18-1.36-1.55q0-5.79,0-11.57a1.93,1.93,0,0,1,.14-1.12l1.42-.15v-7.64c.53-.32,1-.08,1.57-.34V95.73c.52-.41,1-.12,1.56-.39V84.69c.53-.49,1.1-.11,1.64-.5V79.74l1.57-.17v-3l1.45-.15c.27-.44,0-.94.23-1.37.4-.31.91,0,1.4-.27.26-.91,0-1.91.16-2.87.4-.35.91-.06,1.37-.26.36-.38,0-1,.31-1.44l1.41-.14V65.5l1.43-.15c.33-.44,0-.95.27-1.38.39-.3.9,0,1.34-.24s0-.89.28-1.43h4.32c.5-.52.12-1.09.46-1.57l1.28-.14A2.92,2.92,0,0,0,74,59.2c0-1.7,0-1.7,1.75-1.7h2.79c.37-.51.08-1,.37-1.55h4.34c.42-.52.13-1,.39-1.57H88c.49-.52.11-1.09.45-1.57h17.11c.34,1.52.34,1.52,2,1.52h7.63c-.14,1.15.09,2,1.38,1.58.1.13.17.18.17.23.17,1.35.17,1.35,1.56,1.36h1.42c.1.11.17.15.18.21.2,1.37.2,1.37,1.65,1.37h3.16l0,0V67h1.56v3.17h1.58a4.86,4.86,0,0,0,.15,1.58h1.44v3.17H131a5.14,5.14,0,0,0,.14,1.58h1.45v6.31A4.74,4.74,0,0,0,131,83v1.45h0a4.76,4.76,0,0,0-1.61.14V86h0c-.51.09-1-.11-1.6.17v3h0c-.5.08-1-.11-1.59.16v1.43h0a6.06,6.06,0,0,0-1.61.14v2.91c-.52.28-1.06,0-1.57.3v6.17l0,0a4.55,4.55,0,0,0-1.61.16v3h0c-.51.09-1-.11-1.52.13v4.65h1.51c0,1,0,2.1,0,3.16a4.4,4.4,0,0,0-1.51.13l-.14,1.3c-.45.31-1,0-1.39.26-.28.4,0,.91-.23,1.34-.39.3-.9,0-1.34.24s0,.89-.23,1.33c-.38.31-.89,0-1.34.24-.35.38,0,.95-.37,1.5h-4.45l-.17,1.56h-4.58l-.17,1.57h-4.47c-.33.53-.1,1-.28,1.46-.4.31-.91,0-1.36.24-.31.38,0,.89-.26,1.4H96.32a2,2,0,0,1-.06-1.41l1.37-.14a2.18,2.18,0,0,0,0-1.45,15.42,15.42,0,0,0-2.88,0c-.35.46-.06,1-.31,1.44-.91.27-1.92,0-2.89.17-.3.41,0,.92-.31,1.52H87.64c-2.5,0-2.49,0-2.55-2.49,0-.16,0-.32,0-.51a2,2,0,0,0-1.46-.09l-.15,1.43H75.75c-.32-.43,0-.94-.31-1.45-.9,0-1.88-.06-1.31-1.54.9-.27,1.9,0,2.89-.17a2.24,2.24,0,0,0,0-1.52h-3l-.17-1.57H71.05c-.37-.52-.08-1-.32-1.46-.39-.29-.9,0-1.34-.23-.3-.39,0-.9-.25-1.38-.92-.27-1.92,0-2.88-.17-.35-.4-.06-.91-.26-1.36-.38-.35-1,0-1.43-.3l-.14-1.29c-.45-.3-1,0-1.39-.26-.28-.4,0-.91-.25-1.38-.92-.24-1.92,0-2.87-.16-.33-.42-.05-.93-.3-1.44a13.76,13.76,0,0,0-2.58-.06c-.56,0-.46.45-.46.79,0,1.78,0,3.56,0,5.28-.47.45-1,.07-1.52.41v17.09c.46.3,1,0,1.5.32V138c.52.38,1,.09,1.57.38v7.52c.52.38,1,.12,1.47.32.31.39,0,.89.23,1.34.39.35,1,0,1.5.34v2.78c.53.35,1,.07,1.57.38v4.35c.52.38,1,.09,1.5.35.25.92,0,1.91.16,2.89.43.28.93,0,1.47.28v10.66c.53.49,1.1.11,1.64.5v2.81a2.12,2.12,0,0,0,1.44,0c.29-.43,0-.93.26-1.38a2.09,2.09,0,0,1,1.31,0c.31.42,0,.93.25,1.36.39.3.9,0,1.44.28v4.36c.52.41,1,.13,1.52.36.3.92,0,2,.2,3l1.48.16v4.45c.53.37,1,.08,1.51.35.24.92,0,1.91.14,2.86.44.33,1,.05,1.49.32v4.37a2.14,2.14,0,0,0,1.57.17v-6c.52-.5,1.09-.13,1.63-.5V176.42c.53-.36,1-.07,1.51-.35.22-.92,0-1.91.15-2.95L85,173c.28-1,0-2,.19-2.95.41-.29.91,0,1.36-.24.32-.38,0-.89.24-1.34.38-.34.95,0,1.43-.3l.14-1.36,1.43-.15.15-1.39a2.87,2.87,0,0,1,1.32-.09c.35.46.07,1,.32,1.47a13.79,13.79,0,0,0,2.58.07c.42,0,.46-.29.46-.61,0-.52,0-1.06,0-1.58-.06-.7.14-1,.92-1,1.74.05,3.49,0,5.2,0,.41.46.08,1,.37,1.51a13.22,13.22,0,0,0,3,0l.14-1.38a2.09,2.09,0,0,1,1.37-.06c.31.42,0,.93.25,1.37.39.3.9,0,1.34.23.31.39,0,.89.23,1.34.38.32.89,0,1.41.27.25.91-.05,1.95.17,3l1.35.14c.3.46,0,1,.26,1.39s.91,0,1.34.24c.29.39,0,.9.24,1.35a2,2,0,0,0,1.31.06c.34-.41,0-.92.28-1.39a2.08,2.08,0,0,1,1.29-.08c.37.42,0,1,.33,1.47l1.28.13c.3.45,0,1,.27,1.39.4.28.91,0,1.34.23.29.39,0,.9.23,1.34.39.3.9,0,1.35.24.3.37,0,.88.24,1.34s.87,0,1.35.25c.32.36,0,.92.27,1.41l1.43.15v2.86c.52.37,1,.09,1.47.33.28.39,0,.9.23,1.33s.89,0,1.34.24c.31.38,0,.89.25,1.35.35.3.86,0,1.32.22.36.38,0,1,.31,1.43l1.42.15v2.87c.52.37,1,.08,1.46.32s0,.9.23,1.34c.39.3.9,0,1.34.23.31.38,0,.89.23,1.34.39.35,1,0,1.5.36v2.87l1.57.17v2.9A3.5,3.5,0,0,0,137.32,200ZM85.05,60.62c-.47.12-1-.07-1.43.15-.23.47,0,1-.15,1.44-.47.1-1-.08-1.55.21v6.14c0,1.55,0,1.55,1.55,1.63a1.71,1.71,0,0,1,0,.39c-.15.93.23,1.32,1.17,1.17a1.63,1.63,0,0,1,.38,0l0,1.53h-3c-.29.62,0,1.13-.43,1.64H77.32c-.28.53,0,1-.38,1.56H74.18c-.32.53,0,1-.33,1.5l-1.27.13c-.34.48,0,1-.32,1.43-.45.21-1-.08-1.36.26-.2,1,.1,2-.17,2.87-.48.25-1,0-1.43.3-.17.93.09,1.93-.15,2.92l-1.38.14a6.56,6.56,0,0,0-.1,1.91c0,1.31.2,1.44,1.5,1,.21-.43-.09-.94.26-1.35a2,2,0,0,1,1.4.14,12.64,12.64,0,0,1,0,1.74c-.13,1,.23,1.31,1.25,1.26,1.66-.09,3.33,0,5,0,.27,1.58.27,1.58,1.83,1.58h7.8c0,1.79-.23,1.57,1.58,1.58h6.82c.35,0,.73.11,1-.16.21-.44-.08-.95.26-1.36,1-.2,2,.1,2.88-.17.25-.47,0-1,.31-1.44a3,3,0,0,1,1.29.06,6.19,6.19,0,0,1,.09,1.81c0,1.39.06,1.43,1.48,1.13.28-.42-.09-1,.3-1.4,1-.17,2,.1,2.85-.14.26-.51,0-1,.28-1.4.44-.22,1,.07,1.34-.24.23-.44-.06-.94.23-1.33s.94,0,1.47-.33V86.07l1.56-.17v-3a2.13,2.13,0,0,1,1.5,0,1.32,1.32,0,0,1,.07.23c0,.53,0,1.06,0,1.58,0,1.37.11,1.45,1.49,1,.22-.42-.07-.93.23-1.31s.94,0,1.35-.25c.22-.42,0-.93.22-1.33.42-.25.93,0,1.39-.26,0-.42.09-.87.13-1.27.48-.34,1,0,1.46-.35.19-1-.11-2,.17-2.87.49-.23,1,0,1.51-.36v-7.5c.54-.3,1,0,1.48-.32V63.89a13.65,13.65,0,0,0-2.93,0c-.34.48,0,1.06-.36,1.47-1,.17-2-.1-2.86.14-.24.51,0,1-.38,1.53h-4.33c-.29.54,0,1-.39,1.57h-4.35c-.31.53,0,1-.3,1.46a4.22,4.22,0,0,1-1.46.08V65.59c.57-.33,1.13,0,1.5-.33V60.77c-.52-.23-1,.06-1.4-.26-.22-.45.07-1-.24-1.35-.44-.19-.94.05-1.38-.23l-.15-1.46H97.94c-.32-.53,0-1-.34-1.49H88.42c-.34.48,0,1.05-.3,1.41s-1-.07-1.41.3c0,.44,0,.9-.07,1.36-.47.1-1-.08-1.44.14C85,59.65,85.16,60.15,85.05,60.62Zm20.63,117.15v-.49c0-.56.12-1.1-.79-1.1s-.8.54-.79,1.1,0,.92,0,1.37.2.74.75.74.91-.07.84-.74A8.61,8.61,0,0,1,105.68,177.77ZM112,190.43c0,.17,0,.33,0,.49,0,.52-.21,1.12.74,1.14s.85-.54.84-1.14a12.5,12.5,0,0,1,0-1.37c0-.62-.31-.69-.8-.69s-.85.07-.8.69A8.61,8.61,0,0,1,112,190.43Zm6.33,1.7c-1.58-.18-1.58-.18-1.58,1.14a9.73,9.73,0,0,1,0,1.08c-.06.62.15.87.82.88s.8-.34.78-.91C118.33,193.6,118.35,192.89,118.35,192.13Zm4.74-2.57c.15-.64-.27-.67-.8-.7s-.77.22-.79.8.28.81.88.81S123.17,190.16,123.09,189.56Z"/><path class="cls-4" d="M45.48,249h1.44a2.3,2.3,0,0,1,.09,1.43,2.12,2.12,0,0,1-1.36.09c-.3-.49-.1-1-.15-1.53Z"/><path class="cls-9" d="M134.2,57.49l0,1.58h0l-6.31,0h-1.59l0,0c0-.52,0-1,0-1.55Z"/><path class="cls-20" d="M126.15,49.65c-1.5-.16-1.5-.16-1.43-1.63h1.53c-.18,1.2.26,1.83,1.53,1.56l.13,1.46C126.45,51.32,126.45,51.32,126.15,49.65Z"/><path class="cls-20" d="M131.09,51.1l1.45.13.12,1.4C131.11,52.92,130.94,52.77,131.09,51.1Z"/><path class="cls-4" d="M51.83,89.16V87.69a3.17,3.17,0,0,1,1.5-.08,4.81,4.81,0,0,1,.05,1.53H51.82Z"/><path class="cls-19" d="M126.29,57.51c0,.52,0,1,0,1.55l-1.55,0,0,0C124.69,57.47,124.69,57.47,126.29,57.51Z"/><path class="cls-11" d="M199.13,55.91H191.2c.07-.5-.14-1,.18-1.57h7.75V55.9Z"/><path class="cls-11" d="M191.21,55.91c0,1.84.16,1.56-1.53,1.58-1.07,0-2.15,0-3.22,0h0c.07-.5-.13-1,.18-1.58h4.58Z"/><path class="cls-11" d="M169,71.74c0,.52,0,1,0,1.55,0,1.75.3,1.63-1.59,1.61h0V71.73H169Z"/><path class="cls-11" d="M202.3,57.49h-1.55c-1.83,0-1.6.25-1.62-1.58h3.17v1.58Z"/><path class="cls-11" d="M186.46,57.49c0,1.86.18,1.56-1.61,1.59-.52,0-1,0-1.56,0h0c.07-.5-.12-1,.18-1.58h3Z"/><path class="cls-11" d="M183.29,59.07c0,1.87.18,1.56-1.61,1.59-.52,0-1,0-1.56,0h0c.07-.5-.12-1,.18-1.59h3Z"/><path class="cls-11" d="M180.12,60.66c0,1.86.18,1.55-1.61,1.58h-1.57c.07-.5-.12-1,.18-1.58h3Z"/><path class="cls-11" d="M157.94,81.23c0,1.91.13,1.56-1.6,1.59-.52,0-1,0-1.56,0h0c.08-.5-.12-1,.2-1.58h3Z"/><path class="cls-11" d="M161.11,79.65c0,1.91.13,1.56-1.61,1.59-.52,0-1,0-1.56,0h0c.08-.5-.12-1,.19-1.59h3Z"/><path class="cls-11" d="M164.28,78.07c0,1.9.13,1.55-1.61,1.59-.52,0-1,0-1.56,0v0c.08-.49-.12-1,.19-1.58h3Z"/><path class="cls-11" d="M170.61,68.57c0,.52,0,1,0,1.55,0,1.78.29,1.62-1.59,1.62h0V68.55h1.58Z"/><path class="cls-11" d="M172.2,67c0,1.74.27,1.59-1.59,1.58v0c.08-.49-.11-1,.18-1.57h1.42Z"/><path class="cls-11" d="M173.79,65.4c0,1.81.22,1.58-1.59,1.59h0c.07-.5-.11-1,.17-1.58h1.43Z"/><path class="cls-11" d="M165.86,76.48c0,1.8.22,1.59-1.58,1.59v0c.07-.49-.11-1,.18-1.58h1.41Z"/><path class="cls-11" d="M167.45,74.9c0,1.8.21,1.59-1.59,1.58h0c.08-.5-.11-1,.18-1.58h1.42Z"/><path class="cls-11" d="M175.37,63.82c0,1.81.22,1.58-1.58,1.58h0a4,4,0,0,1,.16-1.59h1.43Z"/><path class="cls-11" d="M177,62.24c0,1.81.22,1.57-1.58,1.58h0a4,4,0,0,1,.17-1.58H177Z"/><path class="cls-17" d="M199.13,51.17c0,.52,0,1,0,1.57H186.68c-.39.55,0,1.12-.4,1.54-1,.18-2-.11-2.88.16-.21.48,0,1-.25,1.41-1,.2-2-.08-2.9.16-.25.47,0,1-.34,1.5H177l-.16,1.57H174c-.34.54,0,1.11-.34,1.5-.45.21-1-.08-1.34.23-.21.44.07.95-.23,1.34-.44.23-.95-.06-1.39.27-.17.94.09,1.94-.14,2.86-.47.27-1,0-1.43.29L169,66.84c-.48.33-1.05,0-1.43.31-.2.46.08,1-.23,1.34-.45.21-1-.07-1.44.31.38,1.29-.42,1.54-1.42,1.4-.29.53,0,1-.32,1.48l-1.35.14-.14,1.35c-.48.33-1,0-1.41.29s.06,1-.26,1.36c-.44.22-.95-.07-1.34.23-.22.44.07,1-.33,1.47h-2.77c-.29.53,0,1-.37,1.57H153.4c-.37.54,0,1.11-.39,1.51-1,.19-2-.1-2.87.16-.22.51.06,1-.26,1.39-.44.22-.95-.07-1.33.23s.06,1-.27,1.38c-.95.19-1.95-.08-2.87.15-.26.48,0,1-.29,1.43l-1.27.13c-.32.49.05,1.06-.35,1.47-1,.17-2-.11-2.86.15-.23.5,0,1-.27,1.42-1,.2-2-.1-2.89.17-.24.48,0,1-.33,1.47h-5.57c-.53,0-.56-.32-.56-.72,0-.82,0-1.65,0-2.47,0-.53,0-1,0-1.57h0a4.26,4.26,0,0,0,1.6-.16V82.83a6.15,6.15,0,0,0,1.58-.12v-6.2c0-1.9.14-1.58-1.58-1.6h0v-3a4.94,4.94,0,0,0-1.58-.12h0V68.58l0,0a4.55,4.55,0,0,1,1.55.17c-.24,1.15.23,1.72,1.6,1.4-.2,1.24.13,2,1.37,1.61.1.15.17.2.16.25-.12,1.13.39,1.39,1.48,1.36,3.42-.07,6.85,0,10.27,0,.68,0,1.09-.11,1-.91-.07-.5.16-.73.68-.69s.86,0,1.28,0c.79.06,1.38,0,1.22-1.07-.07-.45.27-.53.64-.52h2.29c.1-.15.17-.21.17-.25-.12-1.13.39-1.53,1.47-1.34.29.05.6,0,.89,0,.62.06.95-.15.86-.82s.22-.8.8-.78c.75,0,1.5,0,2.2,0a3.86,3.86,0,0,0,.17-1.57l1.56,0c1.94.06,1.58.1,1.6-1.57h0c.51,0,1.05.15,1.6-.2V62.27l1.41-.07c.3-.46.05-.94.24-1.4.45-.29,1-.06,1.48-.16,2,.06,1.58.1,1.61-1.57h0c1.81,0,1.58.23,1.59-1.58h0c.75,0,1.51,0,2.26,0s1-.13.92-.86c-.08-.54.16-.79.72-.74a1,1,0,0,0,.77-.15,4.62,4.62,0,0,0,.08-1.44h0c.75,0,1.51,0,2.26,0s1-.12.92-.85.27-.77.82-.75c1,0,2,0,2.94,0,.78,0,1.11-.21,1-1a3.9,3.9,0,0,1,0-.59l1.55,0h8Z"/><path class="cls-4" d="M150,62.26v1.52l-1.55.09v1.5H147c-.27.51-.05,1-.2,1.6h-4.67c0-1.57,0-3.15,0-4.72h0a5.91,5.91,0,0,0,1.59-.14V60.67h4.73a5.51,5.51,0,0,0,.12,1.59Z"/><path class="cls-14" d="M127.88,59.1l6.31,0c0,1.87.2,1.57-1.62,1.6l-3.14,0-1.56,0C127.87,60.13,127.87,59.62,127.88,59.1Z"/><path class="cls-17" d="M127.87,60.65l1.56,0c0,1.57,0,3.14,0,4.72l0,0c-.5-.08-1,.14-1.56-.2Z"/><path class="cls-16" d="M148.44,60.67H143.7V59.1h4.72C148.43,59.62,148.44,60.15,148.44,60.67Z"/><path class="cls-16" d="M142.12,62.25c0,1.57,0,3.15,0,4.72a4.46,4.46,0,0,1-1.53-.08v-4.5C141.08,62.11,141.61,62.3,142.12,62.25Z"/><path class="cls-4" d="M156.38,59.1l3.16,0V60.6h-3.16Z"/><path class="cls-17" d="M129.45,65.4a4.39,4.39,0,0,1,1.59.18v3l0,0a4.14,4.14,0,0,1-1.59-.17v-3Z"/><path class="cls-16" d="M143.71,60.67v1.45a5.91,5.91,0,0,1-1.59.14V60.83A3.53,3.53,0,0,1,143.71,60.67Z"/><path class="cls-16" d="M150,62.26h-1.45a5.51,5.51,0,0,1-.12-1.59C150.1,60.7,150.07,60.3,150,62.26Z"/><path class="cls-14" d="M162.68,65.39l-1.56,0c0-1.73-.32-1.59,1.59-1.59h0Z"/><path class="cls-14" d="M162.71,63.83c0-1.76-.29-1.58,1.58-1.58h0v1.58h-1.57Z"/><path class="cls-11" d="M159.52,120.84h-3c-.29-.57-.09-1.1-.18-1.6.56,0,1.11,0,1.67,0C159.58,119.26,159.58,118.87,159.52,120.84Z"/><path class="cls-11" d="M164.28,124l-2.93,0a.45.45,0,0,1-.13,0c-.24-.46,0-1-.13-1.49.53,0,1,0,1.58,0C164.4,122.42,164.3,122.06,164.28,124Z"/><path class="cls-11" d="M161.1,122.42h-1.42c-.28-.57-.08-1.1-.17-1.6C161.32,120.79,161.13,120.61,161.1,122.42Z"/><path class="cls-16" d="M131,86c0,.82,0,1.65,0,2.47,0,.4,0,.72.56.72h5.57c.37-.49.09-1,.33-1.47.91-.27,1.91,0,2.89-.17.31-.41,0-.92.27-1.42.9-.26,1.9,0,2.86-.15.4-.41,0-1,.35-1.47l1.27-.13c.31-.45,0-1,.29-1.43.92-.23,1.92,0,2.87-.15.33-.43,0-.94.27-1.38s.89,0,1.33-.23c.32-.38,0-.88.26-1.39.91-.26,1.91,0,2.87-.16.4-.4,0-1,.39-1.51h2.76c.36-.53.08-1,.37-1.57h2.77c.4-.52.11-1,.33-1.47.39-.3.9,0,1.34-.23.32-.38,0-.89.26-1.36s.93,0,1.41-.29l.14-1.35,1.35-.14c.31-.45,0-1,.32-1.48,1,.14,1.8-.11,1.42-1.4.48-.38,1-.1,1.44-.31.31-.38,0-.88.23-1.34.38-.35,1,0,1.43-.31l.14-1.27c.45-.3,1,0,1.43-.29.23-.92,0-1.92.14-2.86.44-.33.95,0,1.39-.27.3-.39,0-.9.23-1.34.38-.31.89,0,1.34-.23.34-.39,0-1,.34-1.5h2.9l.16-1.57h2.87c.37-.52.09-1,.34-1.5.93-.24,1.92,0,2.9-.16.28-.43,0-.93.25-1.41.92-.27,1.92,0,2.88-.16.38-.42,0-1,.4-1.54h12.46v1.59h-7.75c-.32.53-.11,1.07-.18,1.57h-4.57c-.31.55-.11,1.08-.18,1.58h-3c-.3.56-.11,1.08-.18,1.58h-3c-.3.56-.11,1.09-.18,1.59h-3c-.3.55-.11,1.08-.18,1.58h-1.41a4,4,0,0,0-.17,1.58h-1.42a4,4,0,0,0-.16,1.59h-1.42c-.28.56-.1,1.08-.17,1.58h-1.41c-.29.56-.1,1.08-.18,1.57H169v3.18h-1.59v3.16H166c-.29.56-.1,1.08-.18,1.58h-1.4c-.29.56-.11,1.09-.18,1.58h-3c-.31.56-.11,1.09-.19,1.58h-3c-.31.56-.11,1.09-.19,1.59h-3c-.32.55-.12,1.08-.2,1.58h-3.08l-.13,1.56h-2.87c-.42.51-.09,1.06-.38,1.6h-2.81c-.4.52-.06,1.07-.36,1.55l-1.3.1c-.28.46,0,1-.23,1.44-.95.25-2,0-3,.18,0,.47-.07.92-.12,1.46h-2.87c-.43.52-.08,1.07-.39,1.6h-4.4c-.35.51-.09,1-.27,1.47-.45.29-1,0-1.5.16h-4.76v-3.2h0a3.69,3.69,0,0,0,1.59-.16V89.14h0a3.59,3.59,0,0,0,1.6-.17V86H131Z"/><path class="cls-9" d="M126.27,90.72v3.2H131a3.87,3.87,0,0,0,0,.59c.11.78-.22,1-1,1-1.51-.06-3,0-4.53,0-.66,0-.85.23-.83.86,0,1.31,0,2.62,0,3.93l-1.57,0c0-2.07,0-4.14,0-6.17.51-.33,1,0,1.57-.3V90.86A6.06,6.06,0,0,1,126.27,90.72Z"/><path class="cls-4" d="M146.87,95.48c0,.53,0,1.06,0,1.59h-6.32V95.48Z"/><path class="cls-9" d="M129.43,105h-1.51l-.11-1.45c-.44-.29-.93,0-1.4-.22-.29-.45,0-1-.17-1.5h3.21v1.55C129.45,103.92,129.44,104.46,129.43,105Z"/><path class="cls-4" d="M131,101.82v-1.58h3.16c0,.52,0,1,0,1.57H131Z"/><path class="cls-4" d="M137.36,98.65V97.07h3.16v1.58h-3.16Z"/><path class="cls-4" d="M134.19,100.24V98.65h3.16c0,.53,0,1.06,0,1.59h-3.17Z"/><path class="cls-4" d="M129.45,103.38v-1.55H131c0,.52,0,1,0,1.56Z"/><path class="cls-7" d="M140.52,98.64V97.06h6.33l11.11,0,1.54,0,0,1.56h0l-15.84,0Z"/><path class="cls-7" d="M134.19,100.23h3.16v1.41c-.55.3-1.08.1-1.57.18l-1.6,0C134.18,101.28,134.18,100.75,134.19,100.23Z"/><path class="cls-7" d="M137.36,100.23c0-.53,0-1.06,0-1.59h3.17v1.58Z"/><path class="cls-7" d="M164.29,98.63l1.54,0c0,.52,0,1,0,1.57v0h-6.21a4.79,4.79,0,0,1-.13-1.58h0Z"/><path class="cls-7" d="M172.19,103.39l4.76,0h0V105l0,0h-4.59C172.08,104.43,172.29,103.89,172.19,103.39Z"/><path class="cls-7" d="M169.05,101.81H166a5.45,5.45,0,0,1-.11-1.59v0H169v1.58Z"/><path class="cls-7" d="M178.55,105l1.54,0c0,.52,0,1,0,1.54H177V105l0,0Z"/><path class="cls-7" d="M172.19,101.83l0,1.58h-3a5.27,5.27,0,0,1-.12-1.6h3.14Z"/><path class="cls-12" d="M180.1,106.54c0-.51,0-1,0-1.54h1.62C181.68,106.65,182,106.6,180.1,106.54Z"/><path class="cls-4" d="M145.29,111.31v-1.59h3.16v1.59Z"/><path class="cls-4" d="M148.44,109.73V108.3a4.44,4.44,0,0,1,1.59-.16v1.43A4,4,0,0,1,148.44,109.73Z"/><path class="cls-7" d="M131,103.37c0-.52,0-1,0-1.56h3.16v1.57Z"/><path class="cls-11" d="M135.77,109.75h-3c-.29-.56-.1-1.09-.17-1.59h3A3.4,3.4,0,0,1,135.77,109.75Z"/><path class="cls-11" d="M138.93,111.33h-3c-.28-.56-.09-1.09-.16-1.59h3A3.27,3.27,0,0,1,138.93,111.33Z"/><path class="cls-9" d="M131,106.59H129.6a4.36,4.36,0,0,1-.17-1.6h1.42A3.45,3.45,0,0,1,131,106.59Z"/><path class="cls-11" d="M132.6,108.17h-1.44a4.5,4.5,0,0,1-.15-1.6h1.43A3.44,3.44,0,0,1,132.6,108.17Z"/><path class="cls-10" d="M184.89,51.19a3.9,3.9,0,0,0,0,.59c.12.78-.21,1-1,1-1-.07-2,0-2.94,0-.55,0-.91.1-.82.75s-.28.88-.92.85-1.51,0-2.26,0c0-.35,0-.71,0-1.06s.08-.53.35-.49c1.45.25,1.25-.74,1.24-1.6Z"/><path class="cls-10" d="M177,54.32a4.62,4.62,0,0,1-.08,1.44,1,1,0,0,1-.77.15c-.56,0-.8.2-.72.74.1.73-.28.9-.92.86s-1.51,0-2.26,0a6.77,6.77,0,0,0,0-.78c-.06-.59.15-.88.77-.8s.91-.2.82-.83.25-.78.81-.76C175.38,54.35,176.17,54.32,177,54.32Z"/><path class="cls-10" d="M172.2,57.49c0,1.81.22,1.57-1.59,1.58C170.64,57.51,170.64,57.51,172.2,57.49Z"/><path class="cls-10" d="M170.62,59.07c0,1.67.34,1.63-1.61,1.57V59.3C169.57,58.92,170.11,59.15,170.62,59.07Z"/><path class="cls-10" d="M164.28,63.82V62.24l1.6,0v1.35C165.33,64,164.79,63.77,164.28,63.82Z"/><path class="cls-16" d="M202.31,57.49V55.91h1.59v1.58Z"/><path class="cls-12" d="M164.29,98.63l-4.76,0,0-1.56,3.23,0C164.6,97.07,164.23,96.92,164.29,98.63Z"/><path class="cls-12" d="M169,100.24h-3.16c0-.52,0-1,0-1.57l3.2,0Z"/><path class="cls-10" d="M194.4,51.15h-8l0-1.55h7.9Z"/><path class="cls-17" d="M199.13,54.33V52.74h3.16c0,.52,0,1,0,1.56l0,0-3.15,0Z"/><path class="cls-17" d="M203.89,55.91H202.3c0-.52,0-1,0-1.56l0,0h1.4A4.13,4.13,0,0,1,203.89,55.91Z"/><path class="cls-12" d="M172.2,101.83H169v-1.58h3.17Z"/><path class="cls-12" d="M178.55,105l-1.6,0v-1.58h1.59C178.54,103.92,178.55,104.44,178.55,105Z"/><path class="cls-21" d="M92.24,125.56h1.38c.48,0,1-.11,1,.69s-.19,1-.89.89-.78.24-.71.76-.22.89-.85.83c-.42,0-.85,0-1.28,0-.69-.06-1.18.06-1,.93.08.53-.23.68-.71.66s-.86-.08-.87-.67,0-1,0-1.48c-.06-.72.11-1.15,1-1,.46.07.7-.16.63-.62-.12-.84.3-1,1-1C91.31,125.59,91.78,125.56,92.24,125.56Z"/><path class="cls-21" d="M80.48,127.21l1.3-.14c.32-1.51.32-1.51,1.91-1.51h2.38c.4,0,.64.14.59.57s.21.82-.35,1c-1.15.36-1.15.37-1.34,1.58-1.34,0-2.72,0-4.09,0C80.31,128.67,80.24,128.32,80.48,127.21Z"/><path class="cls-21" d="M83.49,133.36c-1.46.21-1.56.14-1.57-1.07,0-2,0-2,2.26-2,.85,0,1.1.33.9,1.16,0,.21-.13.43-.35.39C83.52,131.66,83.37,132.39,83.49,133.36Z"/><path class="cls-9" d="M121.52,111.31c0-1.06,0-2.11,0-3.16h1.59v3.17Z"/><path class="cls-9" d="M127.85,116.06h3a3.56,3.56,0,0,1,.17,1.59h-3C127.72,117.09,127.92,116.56,127.85,116.06Z"/><path class="cls-9" d="M131,117.64h3c.31.56.12,1.09.19,1.59h-3C130.89,118.68,131.09,118.15,131,117.64Z"/><path class="cls-21" d="M75.69,124c.87,0,1.69,0,2.5,0,.61,0,.56.41.56.81s0,.81-.6.78c-.42,0-.85,0-1.28,0C75.55,125.56,75.49,125.48,75.69,124Z"/><path class="cls-21" d="M78.75,131.9a8.81,8.81,0,0,0,0,.89c0,.51-.19.71-.69.69s-.88,0-.89-.65,0-.92,0-1.38-.17-1.18.82-1.17.74.6.76,1.13C78.76,131.57,78.75,131.74,78.75,131.9Z"/><path class="cls-9" d="M123.09,111.31h1.43a3.75,3.75,0,0,1,.17,1.6h-1.43C123,112.34,123.17,111.81,123.09,111.31Z"/><path class="cls-9" d="M126.26,114.48h1.43a3.69,3.69,0,0,1,.16,1.59h-1.42C126.15,115.51,126.33,115,126.26,114.48Z"/><path class="cls-9" d="M124.68,112.9h1.42a3.71,3.71,0,0,1,.17,1.59h-1.43C124.56,113.92,124.75,113.4,124.68,112.9Z"/><path class="cls-9" d="M121.5,103.39v-3a4.55,4.55,0,0,1,1.61-.16c0,1.06,0,2.11,0,3.16Z"/><path class="cls-9" d="M121.52,108.16H120v-4.65c.48-.24,1,0,1.52-.13Z"/><path class="cls-8" d="M104.09,70.14a4.22,4.22,0,0,0,1.46-.08c.28-.42,0-.93.3-1.46h4.35c.39-.52.1-1,.39-1.57h4.33c.43-.51.14-1,.38-1.53.9-.24,1.9,0,2.86-.14.4-.41,0-1,.36-1.47a13.65,13.65,0,0,1,2.93,0V70c-.44.31-.94,0-1.48.32v7.5c-.52.41-1,.13-1.51.36-.28.91,0,1.91-.17,2.87-.41.39-1,0-1.46.35,0,.4-.08.85-.13,1.27-.46.3-1,0-1.39.26-.27.4,0,.91-.22,1.33-.41.3-.92,0-1.35.25s0,.89-.22,1.31c-1.39.4-1.5.32-1.5-1,0-.52,0-1,0-1.58a1.32,1.32,0,0,0-.07-.23,2.13,2.13,0,0,0-1.5,0v3l-1.56.17v2.86c-.53.38-1,.09-1.47.33s0,.89-.23,1.33c-.39.31-.9,0-1.34.24-.32.38,0,.89-.28,1.4-.89.24-1.88,0-2.85.14-.39.41,0,1-.3,1.4-1.42.3-1.46.26-1.48-1.13a6.19,6.19,0,0,0-.09-1.81,3,3,0,0,0-1.29-.06c-.35.46-.06,1-.31,1.44-.92.27-1.92,0-2.88.17-.34.41,0,.92-.26,1.36-.29.27-.67.15-1,.16H88.25c-1.81,0-1.55.21-1.58-1.58,1.77,0,1.82,0,1.43-1.5-1.43-.2-1.43-.2-1.43,1.21v.29h-7.8c-1.56,0-1.56,0-1.83-1.58-1.64,0-3.31-.07-5,0-1,0-1.38-.25-1.25-1.26a12.64,12.64,0,0,0,0-1.74,2,2,0,0,0-1.4-.14c-.35.41-.05.92-.26,1.35-1.3.44-1.52.31-1.5-1a6.56,6.56,0,0,1,.1-1.91l1.38-.14c.24-1,0-2,.15-2.92.44-.34,1,0,1.43-.3.27-.91,0-1.91.17-2.87.4-.34.91,0,1.36-.26.36-.38,0-.95.32-1.43L73.85,78c.3-.46,0-1,.33-1.5h2.76c.39-.52.1-1,.38-1.56h4.34c.43-.51.14-1,.43-1.64h4.58c.06.5-.13,1,.15,1.53H91.3a5.22,5.22,0,0,0,.14-1.5l1.55,0h1.59c1.58,0,1.58,0,1.61-1.56h1.57c.06.51-.15,1.05.14,1.5h2.92c.23-.51,0-1,.24-1.41.44-.21.94.06,1.4-.24l.11-1.31A5.39,5.39,0,0,1,104.09,70.14Z"/><path class="cls-18" d="M104.09,70.14a5.39,5.39,0,0,0-1.52.14l-.11,1.31c-.46.3-1,0-1.4.24-.28.4,0,.9-.24,1.41H97.9c-.29-.45-.08-1-.14-1.5h1.08c.3,0,.51-.13.5-.46a13.22,13.22,0,0,0-.12-2.71H97.75l0-1.57a5,5,0,0,0,1.51-.12V63.82H97.77c-.07-.5.11-1-.16-1.58H96.18c-.07-.5.12-1-.15-1.58H94.59a4.8,4.8,0,0,0-.11-1.55H86.7L86.64,59l.07-1.35c.43-.37.94-.06,1.41-.3s0-.93.3-1.41H97.6c.31.45,0,1,.34,1.49h4.48l.15,1.46c.44.28.94,0,1.38.23.31.39,0,.9.24,1.35.37.32.88,0,1.4.26v4.49c-.37.34-.93,0-1.5.33Z"/><path class="cls-9" d="M124.7,59.09l1.55,0,0,0V67l0,0H124.7Z"/><path class="cls-18" d="M83.47,70.19c-1.55-.08-1.55-.08-1.55-1.63V62.42c.57-.29,1.08-.11,1.55-.21l.06.06v7.87Z"/><path class="cls-9" d="M134.18,76.51v6.2a6.15,6.15,0,0,1-1.58.12V76.5l0,0Z"/><path class="cls-9" d="M131,74.92h-1.58V71.75l0,0,1.56,0h0c0,1,0,2.09,0,3.14Z"/><path class="cls-9" d="M129.44,86v3a3.59,3.59,0,0,1-1.6.17v-3C128.4,85.86,128.93,86.06,129.44,86Z"/><path class="cls-9" d="M127.84,70.17h-1.58V67l0,0a5.11,5.11,0,0,1,1.58.18v3Z"/><path class="cls-20" d="M105.68,177.77a8.61,8.61,0,0,0,0,.88c.07.67-.31.73-.84.74s-.79-.17-.75-.74,0-.91,0-1.37-.12-1.1.79-1.1.8.54.79,1.1Z"/><path class="cls-20" d="M112,190.43a8.61,8.61,0,0,0,0-.88c-.05-.62.31-.69.8-.69s.84.07.8.69a12.5,12.5,0,0,0,0,1.37c0,.6.13,1.17-.84,1.14s-.71-.62-.74-1.14C112,190.76,112,190.6,112,190.43Z"/><path class="cls-20" d="M118.35,192.13c0,.76,0,1.47,0,2.19,0,.57-.07.91-.78.91s-.88-.26-.82-.88a9.73,9.73,0,0,0,0-1.08C116.77,192,116.77,192,118.35,192.13Z"/><path class="cls-9" d="M131,86h-1.59V84.54A4.76,4.76,0,0,1,131,84.4C131,84.92,131,85.44,131,86Z"/><path class="cls-9" d="M127.85,89.14v1.43a3.69,3.69,0,0,1-1.59.16V89.3C126.82,89,127.35,89.22,127.85,89.14Z"/><path class="cls-18" d="M86.68,73.32H85.1c0-.51,0-1,0-1.53l.06-.06,1.55,0Z"/><path class="cls-9" d="M129.43,71.75H128a4.86,4.86,0,0,1-.15-1.58l0,0a5.14,5.14,0,0,1,1.59.17v1.41Z"/><path class="cls-9" d="M132.61,82.81v1.44a4.26,4.26,0,0,1-1.6.16V83A4.74,4.74,0,0,1,132.61,82.81Z"/><path class="cls-18" d="M85.05,60.62c.11-.47-.07-1,.15-1.43.47-.22,1,0,1.44-.14l.06.06c0,.51,0,1,0,1.55l-1.54,0Z"/><path class="cls-18" d="M85.05,71.78a1.63,1.63,0,0,0-.38,0c-.94.15-1.32-.24-1.17-1.17a1.71,1.71,0,0,0,0-.39l.06,0,1.56,0,0,1.56Z"/><path class="cls-18" d="M83.47,62.21c.11-.47-.08-1,.15-1.44.46-.22,1,0,1.43-.15l.06.06,0,1.54-1.55.05Z"/><path class="cls-20" d="M123.09,189.56c.08.6,0,.92-.71.91s-.9-.13-.88-.81.18-.83.79-.8S123.24,188.92,123.09,189.56Z"/><path class="cls-9" d="M132.6,76.5h-1.45a5.14,5.14,0,0,1-.14-1.58l0,0,1.56,0h0c0,.52,0,1,0,1.56Z"/><path class="cls-16" d="M129.46,71.72V70.31a5.14,5.14,0,0,0-1.59-.17v-3a5.11,5.11,0,0,0-1.58-.18V59.09h1.59c0,.52,0,1,0,1.55v4.57c.53.34,1.06.12,1.56.2v3a4.14,4.14,0,0,0,1.59.17v3.17Z"/><path class="cls-16" d="M202.28,54.35c0,.52,0,1,0,1.56h-3.16c0-.52,0-1,0-1.57Z"/><path class="cls-16" d="M132.6,74.91l-1.56,0c0-1,0-2.1,0-3.14a4.94,4.94,0,0,1,1.58.12Z"/><path class="cls-16" d="M132.62,76.47c0-.52,0-1,0-1.56,1.72,0,1.61-.3,1.58,1.6Z"/><path class="cls-10" d="M162.7,63.82h1.58c0,1.67.34,1.63-1.6,1.57C162.68,64.87,162.69,64.34,162.7,63.82Z"/><path class="cls-22" d="M86.68,73.32c0-.52,0-1,0-1.57l0,0,6.34,0,0,1.55-1.55,0-4.77,0Z"/><path class="cls-18" d="M86.67,73.32l4.77,0a5.22,5.22,0,0,1-.14,1.5H86.82C86.54,74.35,86.73,73.82,86.67,73.32Z"/><path class="cls-19" d="M97.75,68.57h1.47a13.22,13.22,0,0,1,.12,2.71c0,.33-.2.45-.5.46H96.19l0,0c0-.51,0-1,0-1.54.47-.11,1,.09,1.54-.2V68.56Z"/><path class="cls-19" d="M86.67,92.32V92c0-1.41,0-1.41,1.43-1.21.39,1.45.34,1.5-1.43,1.5Z"/><path class="cls-19" d="M96.19,71.75c0,1.6,0,1.6-1.61,1.56,0-.51,0-1,0-1.54l1.55,0Z"/><path class="cls-18" d="M94.62,71.77c0,.51,0,1,0,1.54H93l0-1.55h0l1.56-.05Z"/><path class="cls-22" d="M86.65,60.66l0-1.55h7.78a4.8,4.8,0,0,1,.11,1.55H86.65Z"/><path class="cls-22" d="M97.77,63.82h1.51v3.06a5,5,0,0,1-1.51.12h0V63.83Z"/><path class="cls-22" d="M94.59,60.66H96c.27.55.08,1.08.15,1.58H94.62l0-1.57Z"/><path class="cls-22" d="M97.77,67l0,1.57h0l-1.57,0V67h1.59Z"/><path class="cls-22" d="M96.18,62.24h1.43c.27.56.09,1.08.16,1.58H96.18c0-.52,0-1,0-1.57Z"/><path class="cls-22" d="M83.53,62.27l1.55-.05v0l0,4.77,0,3.13h0l-1.56,0Z"/><path class="cls-22" d="M85.11,71.72l0-1.56h1.57l0,1.58,0,0Z"/><path class="cls-4" d="M85.08,62.22l0-1.54,1.54,0h0v1.57H85.09Z"/><path class="cls-7" d="M86.68,71.73c0-.52,0-1,0-1.58v0l6.35,0v1.61h0Z"/><path class="cls-18" d="M96.17,71.73l-1.55,0-.05-.06c0-.51,0-1,0-1.54l1.54,0,.06.06Z"/><path class="cls-18" d="M96.18,68.59l1.57,0V70c-.56.29-1.07.09-1.54.2l-.06-.06c0-.52,0-1,0-1.55Z"/><path class="cls-22" d="M94.61,70.17l0,1.54L93,71.76c0-.54,0-1.07,0-1.61h1.59Z"/><path class="cls-23" d="M94.59,60.67l0,1.57-.05,1.58H93V65.4h-1.6V63.79H89.81V62.25l.06-1.57Z"/><path class="cls-7" d="M89.87,60.68l-.06,1.57H88.25l-1.55,0,0,0V60.67Z"/><path class="cls-7" d="M96.18,63.82h1.57V67H96.18l0,0V63.85Z"/><path class="cls-7" d="M94.57,63.82l.05-1.58h1.55c0,.52,0,1,0,1.57l0,0Z"/><path class="cls-7" d="M96.18,67v1.59H94.59a4.25,4.25,0,0,1,.11-1.46c.48-.23,1-.06,1.46-.14Z"/><path class="cls-7" d="M85.09,62.25h1.58l0,0,0,1.55,0,3.12,0,.08H85.11Z"/><path class="cls-23" d="M85.11,67h1.54v3.13H85.09Z"/><path class="cls-24" d="M86.65,70.13V67l0-.08,1.42.11c.3.48,0,1,.32,1.49a15.94,15.94,0,0,0,2.85,0c.29-.5-.05-1,.28-1.45.45-.18.94.07,1.42-.24v-3h1.58l1.59,0V67c-.48.08-1-.09-1.46.14a4.25,4.25,0,0,0-.11,1.46h0c-1.81,0-1.56-.22-1.59,1.58h0Z"/><path class="cls-22" d="M94.59,68.57h1.6c0,.52,0,1,0,1.55l-1.54,0,0,0V68.57Z"/><path class="cls-7" d="M94.59,68.57v1.58H93C93,68.35,92.78,68.6,94.59,68.57Z"/><path class="cls-4" d="M93,65.4v1.42c-.48.31-1,.06-1.42.24-.33.41,0,1-.28,1.45a15.94,15.94,0,0,1-2.85,0c-.36-.45,0-1-.32-1.49l-1.42-.11,0-3.12a3.93,3.93,0,0,0,1.58-.14V62.24h1.56v1.54h1.58V65.4Z"/><path class="cls-24" d="M88.25,62.24v1.44a3.93,3.93,0,0,1-1.58.14l0-1.55Z"/></g><path class="cls-25" d="M348.21,202.31l-3.06-7.94a66.06,66.06,0,0,1-11.19.9q-23.28,0-38.53-16.25t-15.25-47.64v-.72q.9-30,15-45.66t37.18-15.7q16.6,0,29.33,6.49a47.2,47.2,0,0,1,20.12,20q8,14.79,7.94,36.27,0,32.31-15.34,48l6.5,11.37ZM287,129.58a56,56,0,0,1,7.13-26.81A72.06,72.06,0,0,1,310.68,82.2q9.56-8,17.32-8.39h-.54q-9.93,0-19.85,7t-16.06,19.58a50.08,50.08,0,0,0-4.88,22.38A65.82,65.82,0,0,0,287,129.58Zm45.66,33.2-7.94-19.85,22.74-11.73,6.86,12.63a45,45,0,0,0,1.44-11.91q0-10.29-3.24-17a23.82,23.82,0,0,0-8.31-9.93,16.6,16.6,0,0,0-9.38-2.89q-8.31,0-14.8,7.94-6,7.41-5.95,21.84t5.5,22.11Q325.11,161.7,332.69,162.78Zm-.54-6.86-2-11.37,15.52-10.46-18.41,9.38Zm26.17-6.49a37.85,37.85,0,0,0,2.89-14.8q0-2.34-.63-8.94t-8-16.87a44.41,44.41,0,0,1,6.13,23.46,53.74,53.74,0,0,1-2,14.62Z"/><path class="cls-25" d="M446.93,196.53q-18.94-.18-28.69-9.83T405,161.52a151.21,151.21,0,0,1-3.52-33.39l-.18-15.7q0-16.07.91-40.79h39l-1.27,70.57q0,12.27,2,18t6.32,5.68q6.49,0,8.48-7.4a76.81,76.81,0,0,0,1.44-16.78l-1.44-70.21,37.18.18L494.4,87q.9,23.65.9,45.84a134.76,134.76,0,0,1-3.52,32q-3.52,14.44-14,23T446.93,196.53Zm-41.87-54.86,1.27-14.8q1.8-27.62,4.87-52.52l-5.24.18Q404.7,96,404.7,118.75,404.7,130.12,405.06,141.67ZM461,125.06q1.62-2.16,2.53-17,.54-8.3.54-17.87,0-7.58-.36-16.06h-4.33Q461,112.07,461,125.06Z"/><path class="cls-25" d="M594.56,194.37H560.09l-1.81-19.32-17.86.37-2.53,19H503.78L523.45,71.64H578ZM514.07,152l16.78-77.24H525.8Zm28.87,4.88,13.54-1.45-5.41-59ZM560.45,155l2.89-.36-8.49-55.77Z"/><path class="cls-25" d="M660.43,196.17a89.77,89.77,0,0,1-29-5q-14.8-5.06-23.92-20.13t-9.11-35.82q0-35,20.57-51.8,15.89-13,45.48-13a166.06,166.06,0,0,1,18.23,1.08l-5,31.77A80.32,80.32,0,0,0,664,102q-13.89,0-21.29,6.68a30.56,30.56,0,0,0-10.47,23.46q0,15.53,11.19,25.27,6.49,5.59,17,5.59A58.75,58.75,0,0,0,676,160.62l6.68,33.75A149.11,149.11,0,0,1,660.43,196.17Zm-56.85-65.69a53.6,53.6,0,0,1,8.49-25.36,74.58,74.58,0,0,1,17.41-19.58q9.84-7.58,17.78-7.94-10.29,0-20.67,6.68a51.42,51.42,0,0,0-17.05,18.59,50.06,50.06,0,0,0-6,24.54Z"/><path class="cls-25" d="M777.74,194.37H740.38l-14.44-34.84-.18,34.84H694L690.21,71.64h36.46l-.18,19.13,14.07-19.13h37.18L742.91,123.8Zm-81.57-42.24,4-77.42-6.14.18ZM730.1,90.59l17.32-16.24h-6.13Z"/><path class="cls-25" d="M817.91,190.08h-2.35L813.93,67.36l9-.18q35.19,0,54.68,15Q898,97.87,898,128.72a62.15,62.15,0,0,1-7.22,28.43q-7.23,14.16-25,23.55T817.91,190.08ZM819,147.67l3.61-77.24h-4.87Zm28.15,9a31.33,31.33,0,0,0,12.73-12.46A33.45,33.45,0,0,0,864.11,128q0-22.2-18.59-27.25Zm6.68-.91q11.73-5.59,15.34-19.67a24.86,24.86,0,0,0,.9-6.68q0-10.83-8.84-22a37.4,37.4,0,0,1,6.14,20.21Q867.36,148.58,853.82,155.79Z"/><path class="cls-25" d="M954.34,192.25q-18.95-.18-28.69-9.84t-13.27-25.17a151.21,151.21,0,0,1-3.52-33.39l-.18-15.7q0-16.07.91-40.79h39l-1.27,70.57q0,12.27,2,17.95t6.32,5.69q6.5,0,8.48-7.4a76.85,76.85,0,0,0,1.44-16.79l-1.44-70.2,37.18.18.54,15.34q.9,23.64.9,45.84a134.82,134.82,0,0,1-3.52,32q-3.53,14.43-14,23T954.34,192.25Zm-41.87-54.87,1.27-14.79q1.8-27.61,4.87-52.52l-5.24.18q-1.26,21.48-1.26,44.21Q912.11,125.83,912.47,137.38Zm55.95-16.6q1.62-2.16,2.53-17,.54-8.31.54-17.87,0-7.58-.36-16.06H966.8Q968.42,107.78,968.42,120.78Z"/><path class="cls-25" d="M1074.18,191.89a89.53,89.53,0,0,1-29.06-5.06q-14.8-5-23.91-20.12t-9.12-35.82q0-35,20.58-51.8,15.87-13,45.48-13a166.2,166.2,0,0,1,18.23,1.08l-5.06,31.76a81.18,81.18,0,0,0-13.53-1.26q-13.9,0-21.3,6.68A30.56,30.56,0,0,0,1046,127.82q0,15.52,11.19,25.27,6.49,5.59,17,5.59a58.45,58.45,0,0,0,15.52-2.35l6.68,33.75A149.4,149.4,0,0,1,1074.18,191.89Zm-56.85-65.7a53.69,53.69,0,0,1,8.48-25.35,74.61,74.61,0,0,1,17.42-19.58q9.82-7.59,17.77-7.94-10.29,0-20.66,6.67a51.6,51.6,0,0,0-17.06,18.59,50.12,50.12,0,0,0-5.95,24.55Z"/><path class="cls-25" d="M1191.48,190.08h-37.35l-14.44-34.83-.18,34.83h-31.77L1104,67.36h36.46l-.18,19.13,14.08-19.13h37.17l-34.83,52.16Zm-81.57-42.23,4-77.42-6.14.18Zm33.93-61.54,17.32-16.24H1155Z"/></g></g></svg>