<svg xmlns="http://www.w3.org/2000/svg" viewBox="0 0 846.53 101.73"><defs><style>.cls-1{fill:#fff;}</style></defs><g id="Layer_2" data-name="Layer 2"><g id="katman_1" data-name="katman 1"><path class="cls-1" d="M419.79,41.37c-2.93,12-5.87,23.78-8.67,35.62-.49,2.09-1.28,3-3.52,2.78a76.59,76.59,0,0,0-8.16,0c-1.31,0-2-.26-2.38-1.68Q390,51,382.73,24c-.43-1.61.16-1.73,1.43-1.72,2.82.05,5.64.12,8.45,0,1.85-.09,2.54.51,2.91,2.39,2.3,11.58,4.76,23.13,7.17,34.69.15.71,0,1.83.85,1.9,1.16.1,1-1.2,1.18-1.91,3-11.51,5.93-23,8.78-34.57.46-1.84,1.11-2.7,3.16-2.5a39,39,0,0,0,6.75,0c2-.16,2.9.46,3.39,2.55,2.75,11.57,5.69,23.1,8.55,34.64a3.78,3.78,0,0,0,1.2,2.53,5.56,5.56,0,0,0,1.08-2.91c2.45-11.46,4.93-22.9,7.29-34.38.37-1.77.94-2.54,2.88-2.44,3.27.17,6.54.05,10.12.05-2.32,8.59-4.54,16.88-6.78,25.17-2.68,10-5.4,19.9-8,29.87-.44,1.71-1.08,2.53-3,2.4a60.94,60.94,0,0,0-7.88,0c-1.87.12-2.57-.59-3-2.35-2.76-11.38-5.63-22.73-8.47-34.1A2.56,2.56,0,0,0,419.79,41.37Z"/><path class="cls-1" d="M285.61,40.86c0,12.21-.06,24.21.05,36.21,0,2.22-.57,3-2.8,2.76a30.25,30.25,0,0,0-5.63,0c-2,.17-2.73-.32-2.72-2.56q.15-26.29,0-52.6c0-2.18.63-2.73,2.69-2.61a87.24,87.24,0,0,0,9.29,0,4.27,4.27,0,0,1,4.15,2.12c7.53,10.63,15.16,21.2,22.77,31.78.27.37.58.72.89,1.1,1-.51.49-1.36.49-2,0-10.13.08-20.26,0-30.38,0-2.09.48-2.9,2.64-2.66,2.59.28,5.95-1.07,7.61.52s.48,5,.49,7.57c.06,15.56,0,31.13.08,46.69,0,2.23-.5,2.75-2.83,3.09-6,.86-9.5-1.63-12.79-6.47-7.17-10.53-15-20.62-22.56-30.88C287,42,286.76,41.19,285.61,40.86Z"/><path class="cls-1" d="M162.64,50.6c0-8.72.06-17.45,0-26.17,0-1.92.41-2.67,2.45-2.52a56.69,56.69,0,0,0,7.6,0c1.84-.11,2.44.45,2.4,2.33-.12,5.44,0,10.88-.08,16.32,0,1.69.4,2.25,2.18,2.22,7.41-.1,14.83-.12,22.25,0,2,0,2.31-.67,2.28-2.41-.1-5.16.09-10.32-.09-15.48-.09-2.4.72-3.07,3-2.89a52.6,52.6,0,0,0,7.32,0c1.8-.11,2.17.6,2.17,2.26q-.08,26.59,0,53.18c0,1.54-.36,2.17-2,2.1-2.81-.13-5.63-.13-8.44,0-1.68.07-2-.59-2-2.12.07-6.57,0-13.13.08-19.7,0-2-.3-2.76-2.56-2.7-7.22.16-14.45.13-21.68,0-2,0-2.48.61-2.44,2.53.11,6.47,0,12.94.08,19.41,0,1.86-.33,2.73-2.44,2.58a60.94,60.94,0,0,0-7.88,0c-1.77.1-2.19-.51-2.17-2.22C162.68,68.42,162.64,59.51,162.64,50.6Z"/><path class="cls-1" d="M334.48,79.37c-1-.7-.48-1.73-.48-2.58,0-17.34,0-34.68-.07-52,0-2.12.42-2.87,2.73-2.84,12.29.13,24.58.11,36.86,0,2,0,2.61.58,2.48,2.5-.18,2.61.83,6-.46,7.64s-4.89.49-7.47.53q-9.7.14-19.42,0c-1.74,0-2.52.33-2.41,2.28.17,2.9.13,5.81,0,8.71-.07,1.67.6,2,2.11,2,7.23-.06,14.45,0,21.67-.06,1.68,0,2.6.19,2.45,2.22-.22,2.88.94,6.67-.5,8.44s-5.45.52-8.32.57c-5.16.09-10.32.07-15.47,0-1.45,0-2,.37-1.94,1.88a76.4,76.4,0,0,1,0,8.15c-.13,2,.69,2.29,2.42,2.28,9.2-.07,18.39,0,27.58-.08,2,0,2.66.49,2.47,2.48-.25,2.6,1,6-.48,7.63s-5,.52-7.55.53c-11,.07-21.95,0-32.92,0-1.1,0-2.25.3-3.3-.28,1.39-.63.93-1.88.94-2.94q0-25.18,0-50.37,0,21.08,0,42.15c0,2.91,0,5.81,0,8.72C335.39,77.86,335.51,78.82,334.48,79.37Z"/><path class="cls-1" d="M500.16,48.8l1.13.67c.63.29,1.41.37,1.65,1.2,9.6,7.34,7,24.7-7.58,28.84-8.39,2.38-16.72,2.37-24.7-1.46-6.32-3-9.8-8.19-10.52-15.21-.19-1.84.42-2.37,2.17-1.93,1.27.32,2.57.49,3.87.7,3.33.52,6.88.42,7.82,5,.34,1.66,2.24,2.7,4,3.35a19.28,19.28,0,0,0,13.75.1c2.54-.91,4.31-2.63,4.5-5.54s-1.46-4.72-3.88-5.94c-3.63-1.83-7.63-2.52-11.52-3.51a54.27,54.27,0,0,1-10.37-3.48c-11.62-5.57-10.18-20-2.39-25.91,8.42-6.35,24-6.46,32.31,0a15.86,15.86,0,0,1,6.16,11.85c.1,1.37-.28,1.91-1.71,1.63a42.75,42.75,0,0,0-5.27-.82c-3-.2-5.67-.54-6.73-4.06-.41-1.33-1.84-2.13-3.19-2.6a17,17,0,0,0-11-.21,5.73,5.73,0,0,0-4.31,5.61c-.09,2.81,1.67,4.27,4.05,5.07,2.84.95,5.72,1.79,8.6,2.6,3.78,1.06,7.58,2.05,11.38,3.06A2.4,2.4,0,0,1,500.16,48.8Z"/><path class="cls-1" d="M222,50.59c0-8.72.07-17.44-.05-26.16,0-2,.61-2.5,2.53-2.49q18.57.12,37.16,0c2,0,2.65.59,2.47,2.54-.24,2.59,1,5.94-.48,7.61s-5,.48-7.55.52q-9.7.14-19.43,0c-1.77,0-2.5.38-2.39,2.3a67.32,67.32,0,0,1,0,8.16c-.12,1.92.4,2.57,2.43,2.54,7-.13,14.08,0,21.12-.1,2.08,0,3.16.33,2.87,2.7-.34,2.76,1.16,6.36-.62,8.11s-5.18.41-7.88.44c-5.16.07-10.32.12-15.48,0-2-.06-2.57.61-2.44,2.54a64.07,64.07,0,0,1,0,7.59c-.1,1.76.54,2.21,2.24,2.2,9.2-.08,18.39,0,27.59-.09,2.31,0,2.93.71,2.73,2.85a29.76,29.76,0,0,0,0,5.34c.17,2-.53,2.55-2.51,2.53-9.95-.09-19.9,0-29.85,0-3.38,0-6.76-.09-10.13,0-1.82.07-2.41-.46-2.39-2.36C222.05,68.41,222,59.5,222,50.59Z"/><path class="cls-1" d="M566.59,66.91c-5.14,6.92-11.76,11.38-20.42,12.7a29.17,29.17,0,0,1-16.41-55.36,29.48,29.48,0,0,1,36.58,10.37c1,1.49.91,2.17-.75,2.9-2.22,1-4.38,2.13-6.5,3.33-1.61.9-2.56.91-3.88-.8a16.65,16.65,0,0,0-19.51-5.12,17,17,0,0,0,2.22,32.3,16.66,16.66,0,0,0,17.9-6.5c1.15-1.61,1.95-1.71,3.54-.79a34.46,34.46,0,0,0,7.28,3.59C568.6,64.72,568.6,65,566.59,66.91Z"/><path class="cls-1" d="M132.11,22.36c7.42,0,14.83.05,22.25,0,1.67,0,2.37.36,2.24,2.16-.19,2.71.87,6.22-.47,7.92s-5.09.46-7.78.58A59.42,59.42,0,0,1,141,33c-2.1-.16-2.68.46-2.66,2.61.1,13.69,0,27.38.11,41.08,0,2.4-.45,3.41-3,3.15a36,36,0,0,0-7,0c-2.36.22-2.76-.76-2.75-2.87.09-13.6,0-27.21.13-40.8,0-2.85-.86-3.41-3.44-3.29-4.31.21-8.64,0-12.95.09-1.43,0-2.06-.36-1.94-1.89.21-2.78-1.08-6.28.5-8.17,1.39-1.65,4.94-.44,7.54-.48C121,22.3,126.57,22.36,132.11,22.36Z"/><path class="cls-1" d="M759.53,22.35c7.32,0,14.63,0,22,0,1.73,0,2.6.3,2.4,2.29a34.19,34.19,0,0,0,0,5.9c.15,1.92-.44,2.62-2.47,2.55-4-.16-8.06-.08-12.09-.05-4.23,0-3.65-.56-3.65,3.79,0,13.4-.07,26.8,0,40.2,0,2.23-.57,3-2.81,2.78a45.74,45.74,0,0,0-7.31,0c-2.14.17-2.64-.56-2.63-2.66.1-13.77,0-27.55.11-41.32,0-2.32-.57-3.06-2.93-3-4.4.18-8.81,0-13.22.08-1.63,0-2.42-.28-2.26-2.12.23-2.69-1.08-6.18.48-7.88s5.13-.49,7.81-.54C748.47,22.29,754,22.36,759.53,22.35Z"/><path class="cls-1" d="M646,58.48a11.24,11.24,0,0,0-1.81-3.77q-9.09-15-18.2-30.06c-1.08-1.76-1.23-2.55,1.28-2.41a84.44,84.44,0,0,0,9,0,3.8,3.8,0,0,1,4,2.22c3.41,6,7,12,10.56,17.92a4.22,4.22,0,0,0,1.7,2.1c3.62-6.11,7.45-12.08,10.76-18.33,1.65-3.11,3.61-4.23,7-3.89,3,.29,6,.06,9.57.06l-21.4,35.06c-.77,1.19-.33,2.52-.35,3.78-.06,5.4-.08,10.8,0,16.19,0,1.65-.36,2.37-2.16,2.26-2.69-.16-5.39-.11-8.08-.11-1.61,0-1.46-.6-1.09-1.63a6.26,6.26,0,0,0,.67-3.51c-.16-4.36.32-8.74-.28-13.09C646.68,60.41,646.51,59.38,646,58.48Z"/><path class="cls-1" d="M82.28,89.62l-.7.94c-.76.5-1.38,1.2-2.19,1.64L76.63,94a2.83,2.83,0,0,0-1.71,1.2,15.82,15.82,0,0,1-5.6,2.74c-1.09.5-2.53.07-3.38,1.23l0,0c-4.54,0-8.89,1.53-13.51,1.39S43.65,99,39.17,99.26c-2.69-.26-5.06-1.5-7.52-2.48-1.28-.68-2.44-1.65-4-1.7a3.56,3.56,0,0,1-.76-.25,53.35,53.35,0,0,1-13.79-11,4.13,4.13,0,0,0-1.89-1.1c-3.58-4-5.67-8.76-7.72-13.58-.05-.13.23-.41.36-.63a2.35,2.35,0,0,1,2.07-.33,2.51,2.51,0,0,1,1.6,1.3c2.4,3.44,3.73,7.59,7.29,10.31,2.36,1.79,4.87,3.48,6.78,5.83A5.52,5.52,0,0,0,25,87.67a4.89,4.89,0,0,1,1.13.33c2,1.06,3.85,2.49,6.16,2.94,3.33.84,6.37,2.47,9.73,3.35a25.73,25.73,0,0,0,7.94,1.07c4.26-.2,8.57.64,12.78-.59,3-.51,6-1,8.7-2.47a5.91,5.91,0,0,1,2.65-1.16c2,.33,3.39-.77,4.61-2a3.49,3.49,0,0,1,1.77-1.24C81.55,87.94,82.53,88.14,82.28,89.62Z"/><path class="cls-1" d="M99.17,47.15l.54,1.75c-.24.62-1.4,0-1.1,1.84A25.44,25.44,0,0,1,97,63.64c-.17.48-.45,1.13-1.15.93s-.14-1-.55-1.42c0-.35-.37.23-.07,0,.1-.09.15,0,.2.19,1,4.43-1.83,7.57-3.77,11C88.84,76.61,86.87,79.73,84,82c-.82.62-1.49,1.46-2.68,1a1.4,1.4,0,0,1-.65-1.42,2.17,2.17,0,0,1,.32-.73,27.62,27.62,0,0,0,3.34-3.15,11.24,11.24,0,0,1,3.32-4,4.42,4.42,0,0,0,1.9-3.73c2.95-6.17,5.6-12.43,5.54-19.45,0-1.61-.94-3.43,1.31-4.33a2.72,2.72,0,0,1,.89-.11A2.68,2.68,0,0,1,99.17,47.15Z"/><path class="cls-1" d="M91.21,74.24c1.58-3.86,4.54-7.23,3.89-11.87,1,.37.31,1.28,1,1.89,1.54-5,2.41-9.93,1.53-15.34.39-.27,1.25.1,2,0,1.25,3.2.71,6.48.25,9.69A42.94,42.94,0,0,1,94.05,76c-.9-.71-2.13,0-3-.69A.85.85,0,0,1,91.21,74.24Z"/><path class="cls-1" d="M.54,45,.6,41.81a1.53,1.53,0,0,1,.61-1c1.67-1.21,3.58-.4,5.3-.39,4.61,0,9.27-.85,13.84.58,1.21.37,2.55-.57,3.86,0a3.66,3.66,0,0,1,2.6,2.13,1.53,1.53,0,0,1-.29,1.25,1.08,1.08,0,0,1-.81.23c-6.89-1.12-13.78.19-20.67.07-1,.13-1.85-.74-2.88-.49-.43.2-.65.63-1,.93A.49.49,0,0,1,.54,45Z"/><path class="cls-1" d="M646,58.48l1.68,1.69a117.69,117.69,0,0,1,0,18c-.24.28-1.32.76-.29.88,2.73.31,5.52.11,8.28.26,1.8.1,2.2-.72,2.18-2.33-.07-5.59,0-11.18,0-16.77,0-1-.42-2.09.63-2.84,0,6.46-.17,12.94,0,19.4.08,2.61-.78,3.2-3.16,3s-5.07-.07-7.6,0c-1.16,0-2-.11-1.94-1.62C646,71.59,646,65,646,58.48Z"/><path class="cls-1" d="M46.73.47a.44.44,0,0,1,.43,0c3.12-.82,6.13.45,9.21.5.72,0,1.45.1,2.19.08a12.25,12.25,0,0,0,5,1.17c0,1.93-1.54,1.65-2.74,1.84a5.54,5.54,0,0,1-2.69-.58C56.81,2.67,55.31,3,53.85,3c-2.74,0-5.48-.27-8.19.37a26.72,26.72,0,0,0-3,.29,5.72,5.72,0,0,1-.79.2c-1.63,0-3,.91-4.62,1.15a3.73,3.73,0,0,1-1.15-.13c-1-.57-2.13-.5-3.09-1C35.6,1.42,38.9,1.4,42.08,1,43.57.37,45.26,1.31,46.73.47Z"/><path class="cls-1" d="M38.83,98.44c5.65,0,11.18,1.7,16.87,1.15,1.91-.19,3.8.11,5.67-1,1.37-.77,3.1-.08,4.61.48a27.33,27.33,0,0,1-10.59,2.21c-3.46.81-7,.11-10.43.32a3.61,3.61,0,0,1-.81-.13c-1.43-.39-2.62-1.37-4.17-1.52A1.18,1.18,0,0,1,38.83,98.44Z"/><path class="cls-1" d="M91.22,75.36c.92.31,2.44-2.24,2.83.6-1.63,2.92-2.85,6.14-6,7.91-2.41.14-4,1.73-5.6,3.25a1.13,1.13,0,0,1-1.52.11c-.83-1.59.26-2.51,1.33-3.18,2.78-1.72,4.28-4.85,7.25-6.35C90.38,77.26,89.32,75.2,91.22,75.36Z"/><path class="cls-1" d="M6.08,26.37c1.23-1.8,1.67-4.19,3.92-5.24.42.23.39,1.25.67,1,1.69-1.4,3.3.85,4.51.22,1.56-.81,1.61,0,1.7.92.14,1.45.42,3-.47,4.32-3.15.82-6.31-.6-9.48,0C6.41,27.73,6.18,26.93,6.08,26.37Z"/><path class="cls-1" d="M6.08,26.37c1.49,1.22,3.23,0,4.86.53s3.63-.2,5.36.63a2.36,2.36,0,0,1,1,1.17,7,7,0,0,1,.4,1.11,2.3,2.3,0,0,1-.16,2.28c-1.48-2.2-3.62-1.15-5.5-1-1.32.1-2.66-1-3.93.09a2,2,0,0,1-1.5-.3,3.24,3.24,0,0,1-1.3-2.73C5.53,27.54,5.33,26.73,6.08,26.37Z"/><path class="cls-1" d="M11.21,82.69c1.12-.44,1.66-.3,2.6.87,3,3.7,6.92,6.4,10.77,9.15.81.59,2,.71,2.42,1.79.33.6.5,1.13-.52,1.1A41.18,41.18,0,0,1,11.21,82.69Z"/><path class="cls-1" d="M95.23,29.19a3.82,3.82,0,0,1,1,2.27c-.33.81-1,.72-1.64.59-3.86-.76-7.75-.51-11.65-.36a.83.83,0,0,1-.43-.64,3.76,3.76,0,0,1,.88-1.84,3,3,0,0,1,3.44-1.67c1.74.4,3.45-.76,5.17,0,.24.45.56.64,1,.32C94.1,27.8,94.62,28.57,95.23,29.19Z"/><path class="cls-1" d="M82.81,31.47a25.73,25.73,0,0,1,11.9,0,2.33,2.33,0,0,0,1.54,0c.66,1.21,1.5,2.39.81,3.88-.42.06-.58-.27-.81-.51a2,2,0,0,0-1.31-.52,6.41,6.41,0,0,1-1.06-.21,6.17,6.17,0,0,0-3.22-.05,3.23,3.23,0,0,1-.76,0c-2.58-.16-5.19-1-7.71.33a1.38,1.38,0,0,1-.35-1.12A2.52,2.52,0,0,1,82.81,31.47Z"/><path class="cls-1" d="M.54,45h.55a4.17,4.17,0,0,0,.82.46,2.46,2.46,0,0,1,1.44-.15,6.38,6.38,0,0,0,3.56.53c4.46-.37,8.9,1,13.36.14a2.62,2.62,0,0,1,2.12.53c.41,1.22-.61,1.2-1.28,1.48a20.07,20.07,0,0,1-9.09.79c-3.48-.39-7.11-.78-10.49.85-.43,0-.79-.1-.47-.66-.4.29-.15.62-.06,1a2.32,2.32,0,0,1,0,1.33,1.23,1.23,0,0,1-.54.65C-.36,49.56.08,47.26.54,45Z"/><path class="cls-1" d="M44.46,101.22h-2.8c-5.2-1.49-10.57-2.53-15.18-5.62A1.13,1.13,0,0,0,27,94.5h.57c1.4.36,2.57,1.25,3.94,1.68,2.55.37,4.68,2.16,7.32,2.25C40.18,100.43,43,99.4,44.46,101.22Z"/><path class="cls-1" d="M12.43,17.41a12.89,12.89,0,0,1,3.9-3.95c1.34-.41,2.87.1,4.11-1,.62-.56,1.21-.08,1.26.79a4.46,4.46,0,0,1-.5,1.45,25.08,25.08,0,0,1-1.67,2.93,2.77,2.77,0,0,1-1.43,1.2C16.15,18.6,14.05,19,12.43,17.41Z"/><path class="cls-1" d="M16.82,28.67a1.25,1.25,0,0,1-.52-1.14V22.29c-.77,1.63-2.12.13-2.92.92-1.23-1.95-2.4,0-3.6.05a2.6,2.6,0,0,1-.51-.11c-.26-.86.82-1.23.73-2,.12-.54-.18-1.24.56-1.56.47-.73.68.79,1.52,0,2.47-2.24,4.7-1.32,5.32,1.95a14.14,14.14,0,0,1,.2,3c0,.58,0,1.15,0,1.73a7.06,7.06,0,0,1-.11,1.3A1.65,1.65,0,0,1,16.82,28.67Z"/><path class="cls-1" d="M21.36,13.42c-.06-.46-.28-1.09-.75-.53-1.31,1.56-2.71,1.47-4.28.57a23.74,23.74,0,0,1,6.59-5.14,3.8,3.8,0,0,1,3.24.23,1,1,0,0,1,.47.62c-.13.89-1,1.17-1.48,1.72-.85.72-1.58,1.56-2.42,2.28C22.31,13.44,21.89,13.75,21.36,13.42Z"/><path class="cls-1" d="M2.06,56.29a3.83,3.83,0,0,1-1-2.14A2.14,2.14,0,0,1,.86,53c.54-1.21,1.69-1.56,2.77-2a1.28,1.28,0,0,1,.7.31c1.27,1.61,3.1.71,4.65,1s2.68.48,1.77,2.4a5.91,5.91,0,0,1-2.68,1,8,8,0,0,1-1.2.08,7.32,7.32,0,0,0-2.63.25c-.23.1-.47.18-.71.26A1.56,1.56,0,0,1,2.06,56.29Z"/><path class="cls-1" d="M77.07,8.39c1.57,1,3.58,1.52,4.55,3.38-1.4.43-1.13,2.1-2.11,2.86-2.33,0-2.49-2.57-4.06-3.48l-.86-.7a8.72,8.72,0,0,1-1.24-.93A1.42,1.42,0,0,1,73.05,8C74.52,6.81,75.74,8.16,77.07,8.39Z"/><path class="cls-1" d="M81.08,87.18c1.14,0,1.35-1.1,2-1.71a5.87,5.87,0,0,1,5-1.6c-.29,1.55-1.85,2.11-2.59,3.31-.94.72-1.73,1.61-2.7,2.3a.8.8,0,0,1-.48.14A2,2,0,0,0,80,88.31l-.35-.19C79.14,86.31,80.22,86.92,81.08,87.18Z"/><path class="cls-1" d="M92.91,28.09q-.28.57-.57,0c-.25-.38-.5-.86-1-.76-2.43.5-4.9,0-7.34.34a1.18,1.18,0,0,1-.42-1.1,2.18,2.18,0,0,1,1.91-1.73c1.62-.31,3.29-.25,4.87-.88.74-.29,1.33.54,2,.68.5.1-.12,1.59.94.69l.58,1.11A1.53,1.53,0,0,1,92.91,28.09Z"/><path class="cls-1" d="M93.28,25.33a7.57,7.57,0,0,1-.52.59c-3.07-2.21-5.93-.62-8.81.48a1.34,1.34,0,0,1-.53-.67,3.24,3.24,0,0,1,.17-2.5c1.74-1.16,3.8,0,5.61-.74a2.33,2.33,0,0,1,2.57.53A4.07,4.07,0,0,1,93.28,25.33Z"/><path class="cls-1" d="M88.91,44.39c2.12-1.25,4.47-1.11,6.79-1.15l2.23,1.86c.26.63-.06,1-.51,1.41l-.52.11a3.06,3.06,0,0,0-.61-.4,7.34,7.34,0,0,0-4.14.78,1.24,1.24,0,0,1-1.09-.35c-.4-.36.87-2-1-1.3C89.61,45.5,89.08,45,88.91,44.39Z"/><path class="cls-1" d="M86.58,16.27l3.63,3.9a.65.65,0,0,1-.11.7c-.85.23-1.43-.41-2.14-.64-1.75-.23-3.56.32-5.26-.44a1.6,1.6,0,0,1-.35-.7,1.62,1.62,0,0,1,1.07-1.82l.4.07a.55.55,0,0,1-.23-.45C84.21,14.79,85.41,15.62,86.58,16.27Z"/><path class="cls-1" d="M86.58,16.27c-1,.21-2.58-1.14-2.69,1.12h0a1.79,1.79,0,0,0-1.15,1.74,1.16,1.16,0,0,1-.74.25,1.2,1.2,0,0,1-.66-.42,36.2,36.2,0,0,1-1.25-3.68c.73-2.66,2.56-1.65,4.21-1.25C84.81,15,86.29,15.05,86.58,16.27Z"/><path class="cls-1" d="M88.4,19.65l1.82,1.06c.63-.13.76.34.92.77A2.12,2.12,0,0,1,91.77,23a9.83,9.83,0,0,0-3.58.45c-1.39.49-2.89-.16-4.33-.44a.53.53,0,0,1-.75-.12,1.9,1.9,0,0,1,0-2c1.11-.63,2.15.09,3.16.28C87.69,21.47,88.16,20.84,88.4,19.65Z"/><path class="cls-1" d="M60.78,3.33c1.08,0,2.26.19,2.83-1.12A16.33,16.33,0,0,1,69.92,4.4c-.76.94-1.91,1.13-3,1.53-2,.07-3.72-1.15-5.63-1.58C61,4.12,60.65,3.84,60.78,3.33Z"/><path class="cls-1" d="M16.89,21.34c-.83-2.46-2-2.93-4.53-1.32-1.07.69-1.23-.24-1.8-.45a5.89,5.89,0,0,1,1.87-2.16c1.82.59,3.84.2,5.59,1.16a1.11,1.11,0,0,1,.3,1.05,4.06,4.06,0,0,1-.75,1.76A.54.54,0,0,1,16.89,21.34Z"/><path class="cls-1" d="M67,5.62A3.47,3.47,0,0,1,69.92,4.4a8.19,8.19,0,0,1,3.33,1.67,6.69,6.69,0,0,1-1.43,2c-1.53.18-2.52-1.18-3.93-1.35C67.4,6.51,66.85,6.34,67,5.62Z"/><path class="cls-1" d="M5.27,28.13c1,.42.65,1.68,1.46,2.21.35.67,1.13,1.18.77,2.1-1.44.85-2.89,1.29-4.38.1,0-.4-.09-.79.34-1l0,.05c.34-.78.28-1.74,1-2.34Z"/><path class="cls-1" d="M26.49,9c-1.26.18-2.39-.39-3.57-.64A9,9,0,0,1,27,6.15c.59.36,1-.16,1.57-.24.89-.14,1.55,0,1.2,1.16a2.51,2.51,0,0,1-.47.65C28.45,8.3,27.72,9.22,26.49,9Z"/><path class="cls-1" d="M2.06,56.29l1.35-.61a26.61,26.61,0,0,0,5-.2,1.46,1.46,0,0,1,1.24.07,1.22,1.22,0,0,1,.12,1.21C8.49,58,6.68,57.87,5.23,58.65a.77.77,0,0,1-.75-.18C3.64,57.79,2.31,57.64,2.06,56.29Z"/><path class="cls-1" d="M58.56,1c-2.25.2-4.42.81-6.74-.25C50.49.19,48.73.54,47.16.46,51-.49,54.79.19,58.56,1Z"/><path class="cls-1" d="M84.3,14c-1.14.82-3-.88-3.81,1.16a.92.92,0,0,1-1.16.05.51.51,0,0,1,.08-.74c.17-1.37.31-2.77,2.21-2.73C82.56,12.47,83.83,12.77,84.3,14Z"/><path class="cls-1" d="M29.25,7.24c.14-.48.59-1.21-.52-.83-.67.23-1.24.42-1.72-.26,1.22-1.3,2.93-1.61,4.5-2.21.6.82.26,1.66.07,2.51C31,7.18,30.37,8,29.25,7.24Z"/><path class="cls-1" d="M31.51,6.08c-.56-.71,0-1.42,0-2.14l1.54-.11a2.32,2.32,0,0,1,3,.52C34.79,5.68,33.53,6.86,31.51,6.08Z"/><path class="cls-1" d="M5.61,64,7.3,65.24a1.41,1.41,0,0,1-.54.4c-1.14.52-1,2-1.91,2.64a1.42,1.42,0,0,1-1.1-.21C2.83,66,3.81,64.82,5.61,64Z"/><path class="cls-1" d="M72.06,7.84c-.65-1.29.14-1.62,1.19-1.77h0c.56.75,1.5.8,2.26,1.18.6.28,1.35.36,1.59,1.14-1.3.49-2.65-.94-3.93.12C72.51,8.71,72,8.71,72.06,7.84Z"/><path class="cls-1" d="M95.18,33.77c.59,0,1.27-.25,1.6.54-.19,1-1.46,1.56-1.08,2.78a.36.36,0,0,1-.06.5c-.6,0-1.25.22-1.63-.49C92.65,35.37,93.82,34.54,95.18,33.77Z"/><path class="cls-1" d="M95.7,37.09c-1.39-1.61.33-2,1.08-2.79.09.35.19.7.28,1C97.05,36.27,96.2,36.54,95.7,37.09Z"/><path class="cls-1" d="M92.91,28.09c.31-.55.63-1.1,1-1.65a5.18,5.18,0,0,1,1.37,2.75Z"/><path class="cls-1" d="M65.94,99.14c.61-1.83,2.14-1.13,3.38-1.23A6.65,6.65,0,0,1,65.94,99.14Z"/><path class="cls-1" d="M46.73.47c-1.43,1.18-3.1.4-4.65.55C43.55.2,45.16.47,46.73.47Z"/><path class="cls-1" d="M82.76,89.48a4,4,0,0,1,2.7-2.3A4,4,0,0,1,82.76,89.48Z"/><path class="cls-1" d="M97.42,46.51l.51-1.41a2.23,2.23,0,0,1,1.24,2Z"/><path class="cls-1" d="M3.75,68.07,5,68a2.38,2.38,0,0,1,2.35-.41,1.52,1.52,0,0,1,.64.51.79.79,0,0,1-.28.72,1.8,1.8,0,0,1-1.56-.22l-2.31-.13C3.81,68.35,3.78,68.21,3.75,68.07Z"/><path class="cls-1" d="M79.39,92.2a2.7,2.7,0,0,1,2.19-1.64A2.54,2.54,0,0,1,79.39,92.2Z"/><path class="cls-1" d="M74.92,95.17c.3-.78,0-2.39,1.71-1.2A1.91,1.91,0,0,1,74.92,95.17Z"/><path class="cls-1" d="M1.11,52.85,1,54.15a3,3,0,0,1-.57-2.28c.06-.23.11-.46.16-.7C1.76,51.44,1.49,52.13,1.11,52.85Z"/><path class="cls-1" d="M75.48,7.25c-1,.06-1.89,0-2.26-1.18A3.4,3.4,0,0,1,75.48,7.25Z"/><path class="cls-1" d="M816.46,20.93a29.74,29.74,0,1,0,30.07,30A29.86,29.86,0,0,0,816.46,20.93Zm.15,47.29a17.53,17.53,0,1,1,17.46-17.3A17.49,17.49,0,0,1,816.61,68.22Z"/><path class="cls-1" d="M622.18,76.47Q616,68.25,609.8,60.11c-.78-1-1.4-1.56.46-2.29,8.52-3.36,12.78-11.14,11.32-20.26-1.4-8.79-7.48-14.59-16.65-15-9.73-.49-19.49-.32-29.24,0-.44.46-.33,1.05-.33,1.6-.05,18.07.08,36.14-.07,54.22,0,.54-.07,1.15.53,1.49,3.47,0,6.95-.11,10.41,0,1.94.09,2.35-.63,2.32-2.41-.1-5.43,0-10.87,0-16.3,0-.69-.33-1.52.58-2,1.56-.79,5.73.25,6.76,1.72,4,5.67,8,11.36,12,17,.62.86,1,1.94,2.52,1.92,4.55-.08,9.1,0,13.75,0C623.88,78.19,622.88,77.41,622.18,76.47ZM602.27,49c-4.09.64-8.22.17-12.32.35-1.38.06-1.49-.7-1.47-1.76,0-2.34,0-4.68,0-7.55.28-2.22-1.24-5.8.55-7.54,1.64-1.58,5.16-.37,7.86-.43a24.06,24.06,0,0,1,5.86.34c4.56,1,6.63,3.59,6.57,8.35S607,48.27,602.27,49Z"/><path class="cls-1" d="M334.48,79.37c.81-1.17.63-2.51.63-3.81V23.76c1,1,.54,2.06.54,3q0,24.06,0,48.12c0,.84-.25,1.84.11,2.49,1,1.78-.32,1.72-1.33,2Z"/><ellipse class="cls-1" cx="356" cy="22.76" rx="24.59" ry="0.17"/><path class="cls-1" d="M492.05,29.94c2.59.4,3.22,1.45,2.39,4.89C494.6,32.2,493.7,30.92,492.05,29.94Z"/><path class="cls-1" d="M223,78.17c-1.06-.13-.53-1-.53-1.42q0-25.12,0-50.25c0-.81-.23-1.71.55-2.35a3.12,3.12,0,0,1,.27,1.9V76.27A3.12,3.12,0,0,1,223,78.17Z"/><path class="cls-1" d="M223,78.17v-54c.86.73.55,1.73.55,2.62q0,24.39,0,48.78C223.57,76.44,223.88,77.44,223,78.17Z"/><path class="cls-1" d="M260.64,22.89H225.87v-.28h34.74Z"/><path class="cls-1" d="M712.14,22.37c-8.35-.2-16.7,0-25-.1-2,0-2.51.54-2.49,2.5.11,8.72,0,17.43,0,26.15s.06,17.43,0,26.15c0,2,.38,2.9,2.6,2.72a48.21,48.21,0,0,1,7.31,0c2.12.14,2.94-.4,2.85-2.74-.19-5.15,0-10.31-.1-15.46,0-1.9.39-2.62,2.44-2.55,4.41.15,8.83.21,13.22,0,6.62-.4,12.25-2.81,15.45-9.08C735.17,36.65,727,22.71,712.14,22.37Zm.19,26.36c-4.53,1-9.16.47-13.75.56-1.23,0-1.27-.8-1.26-1.71,0-2.34,0-4.68,0-7h.2c0-2.7-1.06-6.32.28-7.87,1.55-1.79,5.27-.44,8.05-.58a21.37,21.37,0,0,1,6.42.53c4,1,6,3.61,6,8S716.35,47.81,712.33,48.73Z"/><path class="cls-1" d="M647.72,78.18v-18c.86.72.55,1.71.56,2.6q0,6.41,0,12.8C648.27,76.46,648.58,77.45,647.72,78.18Z"/><path class="cls-1" d="M63.05,95.06c-.19,1.38-1.27,1.12-2.16,1.12-5.12,0-10.33.56-15.35-.17a30.21,30.21,0,0,1-11.15-3.56,5,5,0,0,0-2.88-.77,1.4,1.4,0,0,1-.08-1.81,2.72,2.72,0,0,1,2.94-.21c6.78,3.38,14,3.66,21.4,3.49a34.89,34.89,0,0,1,6.46.17,2.36,2.36,0,0,1,.85.43A1,1,0,0,1,63.05,95.06Z"/><path class="cls-1" d="M6.16,68.61l1.67,0a2.4,2.4,0,0,1,2.56-.39,58.79,58.79,0,0,0,8.35,10.08,48.68,48.68,0,0,0,11.55,8.17c.86.47,1.72.78,1.75,1.93a1.81,1.81,0,0,1-.46,1.19c-1.9,1.07-3.25-.61-4.86-1-6.31-4-12.17-8.58-16.13-15.13C9.71,72,8,71.33,7.29,69.74Z"/><path class="cls-1" d="M7.29,69.74c2.08,1.12,3.91,2.46,4.56,4.93.38,1.48,1.78,2.12,2.8,3,3,2.58,4.85,6.31,8.92,7.7,1.16.4,1.93,1.92,2.87,2.93a.32.32,0,0,1-.56,0H24.75a18.57,18.57,0,0,0-3.38-2.25c-2.86-2.23-5.35-4.94-8.56-6.73a3,3,0,0,1-1.26-1.47A17.38,17.38,0,0,0,7.36,71.4C6.94,71,6.48,70.33,7.29,69.74Z"/><path class="cls-1" d="M74.32,91.69a3.1,3.1,0,0,0-2.26,1.12c-1.94.53-3.85,1.18-5.81,1.62a3.62,3.62,0,0,1-3.2-.49h0c-.58-1,0-1.49.81-1.63a36.36,36.36,0,0,0,9.71-3.38,3.91,3.91,0,0,1,3-.18C77.94,91.35,75.2,90.8,74.32,91.69Z"/><path class="cls-1" d="M74.32,91.69c0-1.57,2.84-.81,2.25-2.82,1-1.22,2-2,3.38-.56h0C78.83,90.7,77.16,92.17,74.32,91.69Z"/><path class="cls-1" d="M63.05,93.94c3.12.49,6-1,9-1.13-2.84,1.39-5.73,2.58-9,2.25Z"/><path class="cls-1" d="M25.88,88.31h.56c1.88-.47,3.19,1.6,5.07,1.12.14.13.19.25.14.38s-.09.19-.14.19v1.68C29.58,90.64,27.4,90,25.88,88.31Z"/><path class="cls-1" d="M21.37,86.06c1.88-.38,2.6,1,3.38,2.25A4.35,4.35,0,0,1,21.37,86.06Z"/><path class="cls-1" d="M31.51,96.19c-1.67.26-2.75-.83-3.94-1.68C29.23,94.25,30.42,95.1,31.51,96.19Z"/><path class="cls-1" d="M31.51,90V88.31c2.53-1.14,4.75.29,7,1,3,1,6,2,9.25,1.54,3.25-.07,6.49,0,9.73,0,6.74.58,12.54-2.32,18.41-5a4.45,4.45,0,0,1,.54-.61c1.35-1,3.24-1,4.33-2.42l.35-.17c2.3.1,3-2.13,4.47-3.19,2.09-1.49,3.08-4.23,5.66-5.25v1.12c-2,4-5.42,6.62-8.72,9.35-.87.71-1.55,1.29-1.42,2.47,0,.71-2.11-.6-1.13,1.13-.8.08-2.2-1.34-2.15.86l-1.23-.3c-4.42.83-8,4.22-12.77,4-.5,0-.67.55-.75,1-6.31,0-12.64.24-18.93-.21-3-.22-6-1.62-8.91-2.85A8,8,0,0,0,31.51,90Z"/><path class="cls-1" d="M91.22,46.66l1.15-.08c1.45-.59,2.9-1.28,4.48-.37a1.13,1.13,0,0,0,.05.41,1.59,1.59,0,0,0-1.52,2c1.13,5-.16,9.59-2.19,14.19-1.09,2.47-1.2,5.36-3.1,7.53-1.41,1.34-1.85,4.08-4.74,3.29A2.39,2.39,0,0,1,85.63,71c1.65-2.57,3-5.3,4.39-8,1.6-3.16,2.21-4.33,2.69-7.61.14-1-.69-4.16-1.53-4.91-1.09-.86-2.15-.31-3.22,0-1,0-1.65-.38-1.62-1.5a1.63,1.63,0,0,1,1.13-1.21C88.81,47.72,89.64,45.92,91.22,46.66Z"/><path class="cls-1" d="M85.58,73.67c2-.53,2.66-2.71,4.51-3.37a3.38,3.38,0,0,1-1.92,3.8c-1.53.84-2.5,2.68-3.71,4.08-1.37.65-2.09,2.08-3.38,2.81-.53.71-.8,1.65-1.73,2a2,2,0,0,1-1.16.08,1.28,1.28,0,0,1-.62-.45c.05-2.18,2.7-2.66,3-4.66C81.94,76.16,83,74,85.58,73.67Z"/><path class="cls-1" d="M81.08,81c1-1,1.4-2.9,3.38-2.81C83.55,79.38,82.76,80.73,81.08,81Z"/><path class="cls-1" d="M79.39,82.68A3.51,3.51,0,0,1,81.08,81v1.69A1.2,1.2,0,0,1,79.39,82.68Z"/><path class="cls-1" d="M26.46,43.23a5.59,5.59,0,0,0-2.26-1.64,15.27,15.27,0,0,1-4.38-3.94c-.74-1.65-2.2-2.95-2.33-4.89.05-.47.26-.9.27-1.38.71-1.58,2.18-1.37,3.38-1.17,4,.68,8,.37,12,.47a6.64,6.64,0,0,1,3.76.76,1.74,1.74,0,0,1,.72,1.16c-.13,2.46-2.32,3.34-3.71,4.84a26.74,26.74,0,0,1-2,1.83C30,40.57,29.06,43,26.46,43.23Z"/><path class="cls-1" d="M20.31,37.61l3.89,4c-6.74.15-13.45-1.47-20.24-.24-.55.09-2,.45-2.87-.31a3.07,3.07,0,0,1,.51-2.28,2.73,2.73,0,0,1,3-1.15c4.29.63,8.65,1.07,12.88-.35.82-.27,1.41.4,2.12.09A1.1,1.1,0,0,1,20.31,37.61Z"/><path class="cls-1" d="M4.47,44.41c.07-.07.13-.19.2-.19,5.87-.15,11.71-1.66,17.6-.53,1.2.23,2.73-1.08,3.6.71-.57,1.61-1.8,2-3.36,1.86-4-.1-8,0-12-.45-2-.19-3.92-.19-5.74-1.05Z"/><path class="cls-1" d="M26.46,43.23l5.06-4.43c.66-.28.91.24.8.64-.34,1.25.29,2.29.58,3.4a2.31,2.31,0,0,1-2.27,1.85c-.83-.24-1.38-1.9-2.54-.51a1.49,1.49,0,0,1-1.36.46l-.31-.22Z"/><path class="cls-1" d="M23.07,46.1l2.8-1.7.55,0h0c.44.86-.32,1.26-.7,1.81a10.09,10.09,0,0,1-.74.72c-.34.3-.71.56-1.08.83s-.85.83-1.51.8a3,3,0,0,1-1.69-.7.45.45,0,0,1,.15-.63c.62,0,1.26.08,1.66-.58C22.54,46.32,22.83,46.23,23.07,46.1Z"/><path class="cls-1" d="M2.22,45.53a1.16,1.16,0,0,1-.56,1.13,4.64,4.64,0,0,1,0-3.38c1,.18,2.1.21,2.82,1.13h0C4.44,46.22,2.7,44.62,2.22,45.53Z"/><path class="cls-1" d="M1.65,43.28v3.38C1,46.25,1.11,45.59,1.09,45S1,43.69,1.65,43.28Z"/><path class="cls-1" d="M72.06,7.84l1.08.66.64,1c-1.08,1.86-3,1.2-4.39,1a39.68,39.68,0,0,0-5.55-.21C54,10.53,44.31,9,34.51,9.21c-1.5,0-3,.11-4.48.1-1.7,0-1.64-.81-.72-1.88l-.06-.19c1,.12,1.51-.75,2.26-1.16,1.72,0,2.87-1.46,4.49-1.73l1.16.14c1,.46,2.08,0,3.08.33a14.69,14.69,0,0,1,2.39.26A4.11,4.11,0,0,0,45.42,5a7.48,7.48,0,0,1,2.71,0,9.51,9.51,0,0,0,4.16.36c5.32-.6,10.55.33,15.8.86C69.65,6.17,70.59,7.63,72.06,7.84Z"/><path class="cls-1" d="M47.84,5.57H45c-.75-.13-1.5.28-2.26,0H40c.36-1.69,1.75-1.35,2.87-1.38,3.09-.07,6.21.2,9.2-.87a26.77,26.77,0,0,1-8.78.83c-.58,0-1.14-.07-1.09-.87h0c.87-.59,2,.14,2.84-.52,2.95-.95,6-.37,9-.56,1.42.8,3.13-.34,4.51.69.66.68,1.51.33,2.27.43l.58.54c.27.43,1.28.17,1.06,1s-1,.76-1.63.69C56.47,5,52.16,5.78,47.84,5.57Z"/><path class="cls-1" d="M42.16,3.28c2.11,1.18,4.37.63,6.54.36a10.3,10.3,0,0,1,3.64-.16C48.7,5.05,44.78,3.85,41.18,5A10.43,10.43,0,0,0,40,5.57a5.81,5.81,0,0,1-2.8-1.08C38.81,4,40.32,3,42.16,3.28Z"/><path class="cls-1" d="M58.51,2.9C57,2.54,55.39,3.2,54,2.21,55.5,2.48,57.19,1.5,58.51,2.9Z"/><path class="cls-1" d="M48.54,1.18h2.38A1.84,1.84,0,0,1,48.54,1.18Z"/><path class="cls-1" d="M45,2.77c-.81.92-1.88.43-2.84.52C43,2.47,44.05,2.83,45,2.77Z"/><path class="cls-1" d="M82.8,40a2.3,2.3,0,0,1-1.71,1c-.47-.25-.87-.7-1.49-.47-1.75.6-3.12,2.44-5.3,1.65A1,1,0,0,1,74.59,41c2-1.42,3.7-3.29,5.79-4.62.61.24.89,1,1.57,1.1C83.43,37.94,84.27,38.6,82.8,40Z"/><path class="cls-1" d="M74.3,42.14c2.15-.07,3.6-1.92,5.65-2.23a1.17,1.17,0,0,1,0,1.68l-4,3.26-.25,0h-.25c-.45-1-1.62-1-2.38-1.6C73.08,42.45,73.41,42,74.3,42.14Z"/><path class="cls-1" d="M87.85,37.6l-1.66.67c-1.67-.07-2.8-.58-2.14-2.57.75-1,1.89-1.08,3-1.26a2.38,2.38,0,0,1,.79.17C89.12,35.6,89.71,36.59,87.85,37.6Z"/><path class="cls-1" d="M84.45,36c-.62,1.67,1.19,1.52,1.74,2.32A9,9,0,0,1,82.8,40c1-2.07-.55-1.78-1.74-1.81C81.41,36.3,82.52,35.52,84.45,36Z"/><path class="cls-1" d="M95.18,33.77c-.48,1.08-1.77,1.87-1.17,3.33l-1.69-.62A1.57,1.57,0,0,1,92.13,34c.55-.36,1.09-.81,1.81-.34Z"/><path class="cls-1" d="M92.37,34.33c-.6.71,0,1.44-.05,2.15l-2.22.21c-1-.58-.87-1.29-.28-2.08A2.72,2.72,0,0,1,90.88,34,1.18,1.18,0,0,1,92.37,34.33Z"/><path class="cls-1" d="M90.09,34.84a1.76,1.76,0,0,0,0,1.84,3.91,3.91,0,0,1-2.25.92c1.21-.9.25-1.8,0-2.69A1.48,1.48,0,0,1,90.09,34.84Z"/><path class="cls-1" d="M80,41.59V39.91c1.56-.77.93.6,1.14,1.16A1.11,1.11,0,0,1,80,41.59Z"/><path class="cls-1" d="M37.14,32c-2-.73-4.06-.52-6.11-.58-3.27-.09-6.54.26-9.8-.46-1-.22-2.74-.91-3.26,1.09a.33.33,0,0,1-.52-.06l-.53-2.28c.33-.61.38-1.61,1.53-1.14a133.5,133.5,0,0,0,18.1.9c1.11,0,2.3-.55,2.65,1.11C39,31.81,38.36,32.33,37.14,32Z"/><path class="cls-1" d="M18,28.65l-1.07,1.09c0-.35-.06-.71-.1-1.07l.06-1.15a3.27,3.27,0,0,1,2.35-.76c7,0,14.05-.29,21.05.63a2.58,2.58,0,0,1,1.27.54c.13,1.75-1.3,1.63-2.26,1.62-6.49,0-13-.27-19.47-.35A2.72,2.72,0,0,1,18,28.65Z"/><path class="cls-1" d="M17.45,32a4.6,4.6,0,0,1,.52.06c0,.36,0,.71,0,1.07a6.14,6.14,0,0,1-3.6-.09c-1.15-1.12-2.49-.06-3.72-.35s-2.78.23-2.76-1.81c.6-.12.28-1.71,1.74-.79.95.59,2.6.45,3.83.16C15.34,29.81,16.74,30,17.45,32Z"/><path class="cls-1" d="M7.85,30.9c1.4,2,3.59,1.45,5.09.87,2.08-.8,1.66.28,1.67,1.38-2.94,1.44-5.79,1.22-7.32-.56l-.56-2.25Z"/><path class="cls-1" d="M83.86,29.77l-1.08,1.14a2,2,0,0,1-1.31.49c-6.34-.62-12.7-.11-19-.38-1.22-.05-2.41-.19-3.61-.33a2.09,2.09,0,0,1-1.16-1.51,1.93,1.93,0,0,1,.13-1,1.89,1.89,0,0,1,.82-.63c2.53-.76,5,.23,7.52.23,4.59,0,9.18,0,13.77,0a7.35,7.35,0,0,1,3.84.57A.92.92,0,0,1,83.86,29.77Z"/><path class="cls-1" d="M81.64,30.91h1.14l0,.56c-.07.61,0,1.28-.6,1.69a2.59,2.59,0,0,1-2.15,1.1c-6-.73-12-.35-18-.93A2.07,2.07,0,0,1,60,31.78c0-.69.32-.81,1-.84,5.77-.28,11.53.32,17.29.26A7.56,7.56,0,0,0,81.64,30.91Z"/><path class="cls-1" d="M83.86,29.77l0-1.13a.79.79,0,0,1,.1-1.11c2.45-1.2,5.11-.21,7.64-.73.56-.11.73.72.77,1.29-2.27-.48-4.52.66-6.82.06C84.42,27.87,84.62,29.42,83.86,29.77Z"/><path class="cls-1" d="M60.24,32a9.05,9.05,0,0,0,5.82,1.06c4.48-1,8.79.28,13.17.56,1.09.07,2-.45,3-.48l0,1.11c-.24,1-.26,2.14-1.66,2.29C79,39,76.25,40.14,74.3,42.14l-1.14,1.12c-.39,1.54-2,1.92-2.89,2.92a3.4,3.4,0,0,1-.67.38,30.15,30.15,0,0,0-2.88,1.2,47.66,47.66,0,0,1-7.21,2.12,1.57,1.57,0,0,1-1.24-.5,2.64,2.64,0,0,1-.38-.88,72.19,72.19,0,0,1,0-10.19,3.64,3.64,0,0,1,.35-.84c1.24-1.52.13-3.76,1.58-5.22Z"/><path class="cls-1" d="M80.52,36.56c.75-.62.56-1.92,1.66-2.29,2.48-2.91,5.25-1,7.94-.48-.63,1.28-2.09.2-2.89,1s-2.06.26-2.78,1.14a6,6,0,0,0-3.39,2.26C80.42,37.81,80.53,37.17,80.52,36.56Z"/><path class="cls-1" d="M92.37,34.33H90.68c-.18-.13-.25-.26-.2-.4s.1-.21.16-.21a2.5,2.5,0,0,1,3.3,0Z"/><path class="cls-1" d="M90.64,33.71c0,.2,0,.4,0,.61l-.59.52-2.26.07-.6-.1c.7-1.09,1.86-.88,2.89-1Z"/><path class="cls-1" d="M20.84,60.26l1-1.22a5.19,5.19,0,0,1,4.65-2.92,2.65,2.65,0,0,1,.86,2.72,6,6,0,0,1-4,3.27,3.22,3.22,0,0,1-1.5-.44C21.39,61.31,20.69,61.1,20.84,60.26Z"/><path class="cls-1" d="M6.73,65.28l.57,0L14,64c.61.61.37,1.25.07,1.9-.62,1.13-1.89,1.37-2.84,2.06l-.32.21a2.26,2.26,0,0,1-.76.17c-.76-.1-1.57.24-2.29-.26l0,0c-.2-1.31.79-1.39,2.05-1.49C8.48,66.26,7.09,67,6.73,65.28Z"/><path class="cls-1" d="M20.84,60.26l1.1,1c.3.76-.34,1.11-.67,1.6a3.16,3.16,0,0,1-.55.48c-.73.42-1.5.77-2.24,1.17a2.38,2.38,0,0,1-2.07.31A2,2,0,0,1,16.28,63Z"/><path class="cls-1" d="M16.28,63a1.5,1.5,0,0,1,0,1.72.51.51,0,0,1,.17.46c0,.17-.06.25-.09.25a2.71,2.71,0,0,1-2.21.84,1.64,1.64,0,0,1-.68-.41c.17-.61.34-1.22.52-1.83A4.46,4.46,0,0,1,16.28,63Z"/><path class="cls-1" d="M20.86,47.24v.57c.26,2.1-1.17,2.75-2.79,3.25a2.86,2.86,0,0,1-1.26-.17,77.2,77.2,0,0,0-12.9.27h0c-1.17-.18-2.83.46-2.81-1.69a3.1,3.1,0,0,1,2-1.41A28.63,28.63,0,0,1,12.36,48,18,18,0,0,0,20.86,47.24Z"/><path class="cls-1" d="M2.22,45.53c.12-1.64,1.95.15,2.25-1.12l18.6,1.69-.55.56c-5.2.64-10.39-.23-15.58,0A7.83,7.83,0,0,1,2.22,45.53Z"/><path class="cls-1" d="M1.1,49.47c.26,1.69,2.42.22,2.81,1.69-.69,1-1.81,1.23-2.8,1.69,0-.6.08-1.24-.5-1.68,0-.7-.25-1.53,0-2.08S1,49.26,1.1,49.47Z"/><path class="cls-1" d="M18,19.63c0-.35,0-.71,0-1.06l1.1-1.18a5.15,5.15,0,0,1,1.09.83c6.69.47,13.4.4,20.09.7q17.18.76,34.37,1.09c1.59,0,3.12.54,4.73.54a3,3,0,0,0,2.8-1.44,3.25,3.25,0,0,1,.54,0,3.12,3.12,0,0,0,.08.52,1.34,1.34,0,0,1,.48,1.12L83.37,23c-.87,1.17-2.14.9-3.34.95-6.09.26-12.13-.51-18.2-.68C49.7,23,37.59,22.38,25.46,22.1c-1.85,0-3.68-.53-5.55-.59C18.93,21.48,17.43,21.46,18,19.63Z"/><path class="cls-1" d="M19.12,18.51V17.39c.57-.93.76-2.09,1.69-2.81A4.94,4.94,0,0,1,21.9,16a1,1,0,0,1,0,1.07C21.07,17.71,20.67,19.24,19.12,18.51Z"/><path class="cls-1" d="M21.37,16.26c-.67-.4-.54-1.07-.56-1.68.18-.39.37-.77.55-1.16l1.14-.53.3.22a2,2,0,0,1,.45,1,2.35,2.35,0,0,1-.57,1.7C22.32,16.17,21.74,15.92,21.37,16.26Z"/><path class="cls-1" d="M16.89,21.34h.53a3.42,3.42,0,0,1,1,1.44c2.45,1.36,5.13.42,7.62.43,5.39,0,10.74,1.07,16.14.59,1.46-.14,2.17.83,2.49,2.14a1.39,1.39,0,0,1-1,1c-5.9-.76-11.87.13-17.77-.73A45.63,45.63,0,0,0,20,26.05c-1.22,0-2.45-.06-3.14-1.34Z"/><path class="cls-1" d="M16.86,24.71a8.35,8.35,0,0,0,2.15.53c6.27-.08,12.5.93,18.79.64a45.28,45.28,0,0,1,6.12.53.67.67,0,0,1-.24.88c-1.9,1-3.89.31-5.79.17-6.53-.46-13.08,0-19.61-.43-.6-.05-1.1-.07-1.41-.63Z"/><path class="cls-1" d="M16.87,26.4c9,.63,18,.7,27,.56a.66.66,0,0,1-.08.71,1.91,1.91,0,0,1-2.15.42c-8.25-.74-16.51-.55-24.77-.57C16.87,27.15,16.87,26.77,16.87,26.4Z"/><path class="cls-1" d="M29.31,7.43c.1.45-.67,1.4.19,1.3,12.16-1.39,24.23,1.35,36.36.77,2.64-.13,5.28,1,7.92,0,.45,0,.91.07,1.1.59.79,2-.43,2.25-1.94,2.1-9.19-.92-18.42-.72-27.63-.74C40,11.62,34.79,11.1,29.52,11c-1.18,0-2.71.31-3.1-1.5A3.07,3.07,0,0,1,26.49,9C27.46,8.51,28.16,7.55,29.31,7.43Z"/><path class="cls-1" d="M26.42,9.49c.89.87,2,.73,3.11.76l15.5.39c1.11.6,2.31.13,3.45.3.57.08,1.45-.07.94,1-1.41.92-3,.46-4.51.6-5.86.14-11.74-.34-17.59.27-1.05.17-2.09.27-2.81-.77a1.59,1.59,0,0,1,.22-1.46A1.81,1.81,0,0,1,26.42,9.49Z"/><path class="cls-1" d="M24.73,10.6v1.16c-.46.91-.9,1.84-2.2,1.17l0,0A6.28,6.28,0,0,1,24.73,10.6Z"/><path class="cls-1" d="M3.91,51.16C4.54,50.65,5,50,6,50c3.6-.12,7.23.43,10.82-.33.32-.07.11.58.05.91-.12,2-1.84,2.33-3.11,3.16a7.23,7.23,0,0,1-2.48,1.08.86.86,0,0,1-.63-.4c-.61-2.66-2.85-1.61-4.19-1.42C4.65,53.27,4.08,52.74,3.91,51.16Z"/><path class="cls-1" d="M8.48,55.73a5.39,5.39,0,0,1-5.07,0,4.38,4.38,0,0,0,.51,0c.87-.6,2,.12,2.85-.52H7.86C8.06,55.33,8.42,55.38,8.48,55.73Z"/><path class="cls-1" d="M8.48,55.73l-.62-.62,2.8-.68.56.15a.53.53,0,0,1,.15.43c0,.15-.06.22-.1.22a2.19,2.19,0,0,1-1.73.45Z"/><path class="cls-1" d="M6.77,55.12c-.84.83-1.88.45-2.85.52C4.74,54.74,5.8,55.22,6.77,55.12Z"/><path class="cls-1" d="M49.53,11.76c-1.25-1.35-3.24.23-4.5-1.12,5.66.26,11.33.06,17,.24,3.86.12,7.69.39,11.53.75,1.34.13,1.28-.7,1.32-1.56l.56.57c1.69,2.55-.61,2.22-1.9,2.62a3.79,3.79,0,0,1-1-.1c-6.52-.82-13.07-.57-19.61-.63C51.79,12.52,50.51,12.78,49.53,11.76Z"/><path class="cls-1" d="M73.75,12.89c.54-.77,2.61-.39,1.69-2.25,2,.57,2.29,2.94,4,3.86,0,.19,0,.39,0,.58a1,1,0,0,1,.25.67,1.07,1.07,0,0,1-.38.59.84.84,0,0,1-.69-.07,10.22,10.22,0,0,0-1.88-1.59C75.9,13.82,73.68,15.25,73.75,12.89Z"/><path class="cls-1" d="M91.22,46.66c-1.26.3-1.9,1.85-3.39,1.65-1.76-.56-1.76-.56-.9-1.69,0,0,0-.07-.11-.07-.58,0-1.14-.07-1.18-.85a5.86,5.86,0,0,1,3.27-1.31c.53.18,1.07.58,1.57.53C92.77,44.69,91.14,46,91.22,46.66Z"/><path class="cls-1" d="M85.64,45.7c-.26.92,3.33-.45,1,1.69l1.19.92c-.45.07-.9.12-1.12.61a1.49,1.49,0,0,1-1,.45,2.74,2.74,0,0,1-2.54-2.14,1,1,0,0,1,.94-1C84.56,45.94,85,45.45,85.64,45.7Z"/><path class="cls-1" d="M83.93,27.53c0,.37-.06.74-.1,1.11-8.61,0-17.22.19-25.81-.56A1.7,1.7,0,0,1,56.65,26c.34-1.49,1.51-1.43,2.65-1.4a88.38,88.38,0,0,1,10.07.62c4.84.66,9.74-1,14.49.65l.09.57C83.94,26.78,83.94,27.15,83.93,27.53Z"/><path class="cls-1" d="M83.86,25.83a2.91,2.91,0,0,1-2.67.35,3,3,0,0,0-1.34-.31c-7.11,1-14.18-.43-21.27-.52-1.25,0-1.07.84-1.7,1a3,3,0,0,1-2.26-1.65A5.09,5.09,0,0,0,51.41,24c-9.13.53-18.22-.38-27.31-.87-2.23-.12-4.46.66-6.67-.08,0-.57,0-1.13,0-1.69s-.05-1.27.56-1.7a1.21,1.21,0,0,0,1.33,1.14c2.88.17,5.76.52,8.65.53,8.32.05,16.64.45,24.95.74,9.69.34,19.4.56,29.08,1.21A6.15,6.15,0,0,0,83.37,23l.49,0Z"/><path class="cls-1" d="M96.85,46.21l-4.48.37C93.74,45,95.26,45.14,96.85,46.21Z"/><path class="cls-1" d="M83.3,20.77a1.1,1.1,0,0,1-.48-1.12c1.86,0,3.72-.61,5.58,0l1,2.62C87.27,21.61,85.07,22.33,83.3,20.77Z"/><path class="cls-1" d="M83.89,17.39c.38-.06.86-.53,1,.2,0,.19-.16.62-.31.64-.64.12-.65-.41-.73-.84Z"/><path class="cls-1" d="M19.12,18.51c1.29,0,1.41-1.89,2.81-1.68.34.06.67.14,1,.22a38,38,0,0,0,4.77.11c11.61,0,23.21.82,34.82.69a59.12,59.12,0,0,0,15.88.83,7.39,7.39,0,0,1,3.3.32,2.68,2.68,0,0,1,.49.11c.07,1.55.08,2.78-2.23,2.28-6.24-1.37-12.64-.42-19-1-4.42-.42-9,.2-13.49-.26-6.08-.63-12.14-.29-18.2-.5-2.76-.09-5.49-1.05-8.3-.11C20.38,19.73,19.59,19.16,19.12,18.51Z"/><path class="cls-1" d="M21.93,17.39v-.56l-.56-.57a1.16,1.16,0,0,1,1.13-.56,122,122,0,0,1,18.24.11,18.16,18.16,0,0,0,1.95.21c11.26-.18,22.49.62,33.73.85a4.91,4.91,0,0,0,1.09-.23c.39-.77,2.19,1.28,1.87-.93,0-.21,0-.42.05-.63l1.06.11A6.92,6.92,0,0,1,81.71,19c-6.25.89-12.48,1.14-18.66-.48a1.63,1.63,0,0,0-1-.29C48.63,18.51,35.3,17.14,21.93,17.39Z"/><path class="cls-1" d="M47.84,5.57c2.51-1.07,5.23-.78,7.78-.73a35.08,35.08,0,0,1,5.7.06c1.44.26-.06-.65,0-1,2.08-.08,3.71,1.29,5.62,1.75.21.5.69.48,1.11.58-2.18,1.18-4.33.24-6.49-.06-3.5-.48-7,.11-10.5,0A6.2,6.2,0,0,1,47.84,5.57Z"/><path class="cls-1" d="M7.29,32.59c2.36,1.23,4.89.24,7.32.56,1.11-1.6,2.22,0,3.32,0,.66,1.56,2.06,2.72,2.38,4.46l-.63,0A6.5,6.5,0,0,0,15,36.22c-3.09,0-6.18-.06-9.28,0-1.28,0-2.45-.09-3-1.46"/><path class="cls-1" d="M13.44,56.76a5.58,5.58,0,0,1-2.8,1.08c-.64-.07-1.33-.08-1.12-1.05l0-1.11c.4-.67,1.1-.47,1.69-.57C12.28,55.24,13.39,55.3,13.44,56.76Z"/><path class="cls-1" d="M9.52,56.79l1.12,1.05-.09,0c-1.17.85-2.66-.2-3.83.63l-1.64-.15C6.22,56.88,8,57.18,9.52,56.79Z"/><path class="cls-1" d="M6.73,65.28c.77.88,2.2.26,2.92,1.32-.54.52-1.55.52-1.81,1.43L5,68C4.9,66.67,5,65.45,6.73,65.28Z"/><path class="cls-1" d="M2.66,34.79c2.08,1.11,4.33.51,6.51.59s4.5.07,6.75,0c1.78,0,3.11.5,3.76,2.26a6.88,6.88,0,0,1-3.94,1.06c-4-.26-8.17.94-12.17-.64-.49-.19-1.3.44-2,.69l.13-2.17Z"/><path class="cls-1" d="M7.87,68.06l2.78,0a.48.48,0,0,1,0,.59H7.83C7.84,68.42,7.86,68.24,7.87,68.06Z"/><path class="cls-1" d="M10.67,68.61c0-.2,0-.39,0-.59h0c.89-.66,1.74-.73,2.4.27A53.45,53.45,0,0,0,27.29,82.65c2.47,1.74,5.32,2.68,7.87,4.21,3.07,1.72,6.51,2,9.87,2.63,1.16.22,2.79.16,2.25,2.2-4.15.76-7.66-1.53-11.47-2.4l-4.3-1c-.16-1.75-1.77-1-2.64-1.46A61.83,61.83,0,0,1,14.46,74.93C12.78,73.08,11.06,71.24,10.67,68.61Z"/><path class="cls-1" d="M47.28,91.69c-1.7-2.64-4.63-1.49-7-2.19-1.92-.58-3.92-.84-5.43-2.32a2,2,0,0,1,1.29-.68,13.31,13.31,0,0,1,7.64,1.11c1.73.87,3.83.79,5.79,1,.37,0,.75,0,1.12,0,7.18.84,13.86-1,20.37-3.78,1.69-.73,3.46-1.58,5.4-.68a.93.93,0,0,1,.07,1.33c-2.81,2.13-6.22,2.79-9.42,4-3,1.13-6.26.85-9.17,2.2Z"/><path class="cls-1" d="M58,91.69C58.64,90.33,59.76,90,61.2,90a27.65,27.65,0,0,0,9-2.26c2-.8,4-2.09,6.36-2.21,0,.63.09,1.32-.75,1.62-2.35.83-4.64,1.91-7,2.51C65.23,90.51,61.88,92.58,58,91.69Z"/><path class="cls-1" d="M76.57,85.49V84.37a.47.47,0,0,1-.2-.39q0-.24.06-.24c.43-.67,1.29-.58,1.83-1.06h2.82C80.68,85.39,78.23,84.8,76.57,85.49Z"/><path class="cls-1" d="M85.58,73.67a21.15,21.15,0,0,0-4.5,4.51,40.89,40.89,0,0,1-13.66,8.06C64.76,87.14,62,88.29,59,88a37.65,37.65,0,0,0-5.62,0,43.29,43.29,0,0,1-20.1-4.16c-.79-.34-1.66-.31-2.43-.65-1.41-.76-1.8-2.81-3.72-2.93a11.38,11.38,0,0,1-2.5-2,4.08,4.08,0,0,0-3.45-2.52,2.94,2.94,0,0,1-1.42-1.85A8.56,8.56,0,0,0,15.35,69c-.78-.7-2.17-.49-2.61-1.71.28-.89,1.19-.75,1.8-1.11s1.38-.64,2.12-.84,1.32-.92,2.14-1a3.66,3.66,0,0,1,.81-.18A11,11,0,0,1,26,68.21,66.19,66.19,0,0,0,32.09,74,8.45,8.45,0,0,0,39,76.4c1.2-.11,3.74-.68,2.67,2.38-.27.75.69.78,1.14.77,3.76-.11,7.41.91,11.11,1.17s7.48-1.53,11.35-1.16c.28,0,.7-.1.76-.29.9-3.07,4.17-2.72,6.11-4.27,2.45-.22,4.44-1.89,6.87-2.21,1-.14,1.22-1,1.26-1.9.07-1.31,0-2.62.07-3.92,0-.94.06-2,.92-2.54,2.19-1.41,2.69-3.87,3.27-6s1.73-4.08,2.22-6.28,2.85-2,4.48-2.7c2.81,1.36,1.6,3.82,1.49,5.86-.33,6.17-3.18,11.35-6.7,16.21A3.6,3.6,0,0,0,85.58,73.67Z"/><path class="cls-1" d="M91.22,49.47A6.82,6.82,0,0,1,88.59,51c-.48.25-1.32.31-1.21,1,.46,2.58-1.44,4.54-2.13,6.71-.62,1.93-.17,5.36-3.45,6.13-.83.19-.7,1-.71,1.64a27.63,27.63,0,0,0,0,3.64c.25,2.4-.17,3.61-3.16,3.78-1.84.11-3.63,1.93-5.88,1.48-1.29-1.87-.93-3.87-.42-5.87A14.39,14.39,0,0,0,76.11,63c.28-1,.61-2.13,1.61-2.48,2.65-.93,2.8-2.87,2.4-5.15a3.56,3.56,0,0,1,.32-2.17,4.14,4.14,0,0,1,.73-1.07A7.79,7.79,0,0,1,84,50.19,4,4,0,0,1,85.2,50c1.07-.17,2.11.89,3.2.09C89,48.37,90.23,49.43,91.22,49.47Z"/><path class="cls-1" d="M88.4,50c-1,1-2.32.4-3.5.5A1.37,1.37,0,0,1,85.67,49l1,0C86.77,50.05,87.58,50.05,88.4,50Z"/><path class="cls-1" d="M30.38,82.68c2.11-.44,3.64.94,5.43,1.6C43,87,50.58,87.51,58.25,87.22s14.19-3.5,20.15-8a3.71,3.71,0,0,1,2.68-1.06c0,2.34-2.74,2.64-3.38,4.5a10,10,0,0,1-1.13,1.13v.56a15.28,15.28,0,0,0-7.47,2C62,90.09,54.59,89.75,47,89.1c-3.74-.32-7-2.95-11-1.92a16.44,16.44,0,0,0-4.68-2.25c-1-.34-1.95-.66-1.68-2A.64.64,0,0,1,30.38,82.68Z"/><path class="cls-1" d="M76.57,83.81a1,1,0,0,1,1.13-1.13h.56A1.71,1.71,0,0,1,76.57,83.81Z"/><path class="cls-1" d="M33.24,37.1c1.31-1.31,2.91-2.32,3.9-4a5.2,5.2,0,0,1,3.4-2.35,16.62,16.62,0,0,1,1,3.53,1.94,1.94,0,0,1-.87,1.28,1.69,1.69,0,0,1-1.15.09,2.15,2.15,0,0,0-2.87.62c-.57.66-1.09,1.41-2.08,1.51A1.74,1.74,0,0,1,33.24,37.1Z"/><path class="cls-1" d="M33.24,37.1a1.1,1.1,0,0,1,1.08.54c0,.12,0,.25,0,.37-.66,1.14.38,1.69.83,2.44a2.66,2.66,0,0,1-1.12,2c-.43.28-.85.64-1.41.25-2.34-.73-.3-2.71-1.11-3.87Z"/><path class="cls-1" d="M40.52,30.89l-3.38,2.26V32l1.69-1.13c.39-.58.81-1.1,1.62-.72a.54.54,0,0,1,.16.46C40.59,30.81,40.56,30.89,40.52,30.89Z"/><path class="cls-1" d="M29.81,45c-.74.78-1.2,1.86-2.32,2.25s-2.06.42-2.19-1.12l1.13-1.67a1.22,1.22,0,0,0,1.16-.55C28.71,43.44,29.62,43.44,29.81,45Z"/><path class="cls-1" d="M29.81,45a3.05,3.05,0,0,0-2.22-1.09C29,42,30,42.31,30.48,44.54Z"/><path class="cls-1" d="M22.48,51.09a7.43,7.43,0,0,1-3.35,2.36c-.37-1-1.89-1.46-1.14-2.86a5.06,5.06,0,0,0,2.87-2.78c.6,0,1.25-.14,1.63.53A4.61,4.61,0,0,0,22.48,51.09Z"/><path class="cls-1" d="M22.48,51.09c-2-.92-1.67-1.84,0-2.75l1.17-1.09a5.48,5.48,0,0,1,1.7,1.69A7.93,7.93,0,0,1,22.48,51.09Z"/><path class="cls-1" d="M25.36,48.94c-1-.08-1.7-.55-1.7-1.69l1.08-.61c.63.39,1.41.57,1.85,1.24Z"/><path class="cls-1" d="M26.59,47.88a2,2,0,0,1-1.85-1.24l.56-.56a3,3,0,0,0,2.19,1.12Z"/><path class="cls-1" d="M42.77,5.57c.76-.28,1.51-1,2.26,0A1.37,1.37,0,0,1,42.77,5.57Z"/><path class="cls-1" d="M58.65,49.39l.92,0c1.92-.23,3.85-1,5.77-.17.9.37.58-.6,1-.75,1.16-.4,2.21-.76,2.36,1-.19.54-.64.58-1.11.62a28.47,28.47,0,0,1-2.84,2.76h0a4.18,4.18,0,0,1-2.4-.13c-1.47-.95-3.69-.06-4.77-1.95C57.59,50.1,57.48,49.3,58.65,49.39Z"/><path class="cls-1" d="M68.73,49.54c-.27-.49-.65-1.23-1.21-.81-2.54,1.9-5.32.29-7.95.69l7.34-2.23A12.59,12.59,0,0,0,69.79,46l0,0c1.15-.44,2.71-2.69,3,.67Z"/><path class="cls-1" d="M72.74,46.72c-.66-1.69-1.87-1-3-.67.86-1.28,2.25-1.9,3.42-2.79.77.52,3.56-1.83,2.29,1.61C74.56,45.5,73.91,46.49,72.74,46.72Z"/><path class="cls-1" d="M62.49,52.29a3.48,3.48,0,0,1,2.31.64c-.62.71-1.23,1.42-1.84,2.14l-.53.43a1.87,1.87,0,0,1-1.09,1c-1,.07-1.42-.29-1-1.28.28-.65.95-1.13.83-1.95C61.25,52.47,62.05,52.62,62.49,52.29Z"/><path class="cls-1" d="M64.78,52.92c.77-1.1,1.35-2.4,2.84-2.76A4.28,4.28,0,0,1,64.78,52.92Z"/><path class="cls-1" d="M40.54,30.34l-1.71.56c-.07-.6-.29-1.21-1-1-6.18,1.56-12.33-.63-18.5-.12A1.13,1.13,0,0,1,18,28.65c6.76.26,13.54-.5,20.3.4a4.42,4.42,0,0,0,3.36-1,3.79,3.79,0,0,1,2.15-.58l.21.33a1.65,1.65,0,0,1-.5,1C42.54,29.39,41.91,30.63,40.54,30.34Z"/><path class="cls-1" d="M81.64,30.91c-.28,1.56-1.53,1-2.47,1.11-5,.34-9.87-1-14.84-.54-1.37.12-2.82-.3-4.09.54h0a1.47,1.47,0,0,1-1.86-.54,1,1,0,0,1,.24-1.15c2.75-.51,5.5.07,8.26,0,3.93-.06,7.86,0,11.79,0A5.38,5.38,0,0,1,81.64,30.91Z"/><path class="cls-1" d="M58.61,30.33v1.14c1.53,2,.7,4.09.49,6.18a4.07,4.07,0,0,0-.5,0c-.78-.62-.72-1.52-.78-2.38a8,8,0,0,0-.66-3.13,2.74,2.74,0,0,1,0-.81A3.37,3.37,0,0,1,58,29.17Z"/><path class="cls-1" d="M55.17,24.71l1.71,1.67L58,28.08l0,.57c-1,.41-1.37-.36-1.91-.86a2.56,2.56,0,0,0-1.68-1.22c-.65-.4-1.4-.69-1.63-1.54a1.24,1.24,0,0,1,1.28-.82A1.54,1.54,0,0,1,55.17,24.71Z"/><path class="cls-1" d="M56.3,27.51,58,28.65a4.51,4.51,0,0,1,0,.52c-.1.78.27,1.68-.56,2.28-.82-.64-.89-1.72-1.49-2.5a1.76,1.76,0,0,1-.31-1.44A.48.48,0,0,1,56.3,27.51Z"/><path class="cls-1" d="M58.65,49.39c-.71.41-.68,1.09-.65,1.78,1,1.3.83,2.73.46,4.19a1.87,1.87,0,0,1-.92,1c-1.52-.1-1.25-1.34-1.37-2.26-.15-1.17.18-2.41-.67-3.44A2.28,2.28,0,0,1,55.33,49a19.27,19.27,0,0,1,1.05-2.26c.55-1,0-2.38,1.29-3,1.42,1.54,0,3.55.85,5.18A2.85,2.85,0,0,1,58.65,49.39Z"/><path class="cls-1" d="M58.52,48.91c-1.35-1.46.28-3.56-1.07-5a1.52,1.52,0,0,1-.48-.78A3.35,3.35,0,0,1,57,41.7c.34-1.48.07-3,.24-4.47.1-.91-.28-2.19,1.28-2.33,0,.92,0,1.85.05,2.78Q58.56,43.31,58.52,48.91Z"/><path class="cls-1" d="M59.09,37.65c-.16-2.06.41-4.18-.49-6.18l1.63.55C59.24,33.77,60.3,35.94,59.09,37.65Z"/><path class="cls-1" d="M69.79,46a2.91,2.91,0,0,1-2.88,1.16A4.51,4.51,0,0,1,69.79,46Z"/><path class="cls-1" d="M72.06,69.17v6.19c-2.23,1.71-4.33,3.93-6.81,4.87s-5.61,0-8.43,1.2a7.53,7.53,0,0,1-5-.05,23,23,0,0,0-8.58-.93,3.34,3.34,0,0,1-3.45-1.83c.41-.89,1.47,0,2-.84-.14-.16-.27-.49-.45-.51a6.7,6.7,0,0,0-2.21-.19c-4.22.81-6.74-1.74-9.48-4.32S24.16,67,20.78,64.84c-.42-.27-1.1-.12-1.66-.17-.15-1.28,1.24-1,1.7-1.69h0c.7-.47,1.18-1.39,2.25-1.14,1.64-.47,2.55-2,3.94-2.81,2.11-1.22,3.92-.08,4.22,1.64.61,3.44,3.32,4.5,5.6,6.14a4.72,4.72,0,0,0,1.75.87c2.82.57,4,2.39,4.17,5.08a17.87,17.87,0,0,0,2.07,2c.2.11.4.24.59.37a10.63,10.63,0,0,0,1.9.89,5.87,5.87,0,0,0,2.53.28,37.08,37.08,0,0,0,4.71-1c1.33-.25,3.21.84,3.59-1.69.1-.66,1.25-.6,2-.69,3.15-.4,6.11-1.18,7.85-4.22C69.39,68.32,70.79,68.09,72.06,69.17Z"/><path class="cls-1" d="M42.77,73.68c-.48-.08-1.09-.28-1-.76.45-2.73-.94-4-3.39-4.46-2.72-.56-4.18-3.28-6.84-4-.78-.21-.61-1.1-.57-1.71.21-2.89-1.45-3.74-4-3.71-.18-.93-.37-1.87-.56-2.81.36-.73,1.42-.8,1.6-1.7-.06-.5.22-.7.66-.75a16.22,16.22,0,0,1,2.56.91,4.17,4.17,0,0,1,2.95,2.58,20,20,0,0,0,6,7.1c.95.69.59-.48,1-.44C41.73,62,41.65,60,42,58c.07-1.57-.23-3.17.38-4.69.31-.41.61-.84,1.19-.34a28.52,28.52,0,0,1,.89,8.53c0,2.33.06,4.65.08,7a3.38,3.38,0,0,1-.77,1.59c.27,1-1.55-.84-1,.7C43.13,71.75,43.64,72.73,42.77,73.68Z"/><path class="cls-1" d="M23.06,61.85c-.78.33-1.28,1.2-2.25,1.14-.1-.88.77-1.11,1.13-1.69A1.15,1.15,0,0,1,23.06,61.85Z"/><path class="cls-1" d="M29.82,82.68C29.88,84,30.93,84,31.87,84.5c1.46.7,3.73.34,4.15,2.68H34.89a37.49,37.49,0,0,1-9.48-4.92c-5-3.24-8.32-8.13-12.55-12.11-.74-.69-.13-2.77-2.22-2.12l0-.51a2.07,2.07,0,0,1,2.22-.06c.57.77,2.21-.6,2.29,1.15C16.77,70,17.7,72,19.31,73.46c1.07,1.47,1.64,3.36,3.49,4.19a4.3,4.3,0,0,1,.65.39c1.88,1.69,4.35,2.54,6.19,4.3Z"/><path class="cls-1" d="M12.89,67.46l-2.22.06c.71-1,2.18-.64,2.82-1.71h.59c.19.21.55.26.59.61Z"/><path class="cls-1" d="M18.55,64.67l-1.75,1a.91.91,0,0,1-.53-.52l0-.51,2.26-.59c.16.13.22.26.16.39S18.61,64.67,18.55,64.67Z"/><path class="cls-1" d="M18.55,64.67c0-.2,0-.39,0-.59A3.11,3.11,0,0,1,20.82,63l-1.7,1.69Z"/><path class="cls-1" d="M16.27,65.18l.53.52-2.13.73-.59-.61Z"/><path class="cls-1" d="M18,50.59c-.22,1.19,2.52,1.21,1.14,2.86,0,.15,0,.3-.05.44l-3.84,1.82c-1.71,0-2.28-.85-1.9-2.46l3.54-2.66Z"/><path class="cls-1" d="M78.82,16.83c-1.32.7-2.62,1.47-4.2.63a2.38,2.38,0,0,0-1.11-.06c-9.89.31-19.77-.58-29.66-.72-6.61-.09-13.23-.35-19.85-.42a1.67,1.67,0,0,1-1.5-.56c.18-.56.37-1.12.56-1.68l.47-.21c5.68.95,11.44.21,17.14.77a5.93,5.93,0,0,0,2.21.32c8.77-.18,17.51.86,26.29.64a48.23,48.23,0,0,1,9.65.73h0a.35.35,0,0,1,.13.37C78.91,16.77,78.86,16.83,78.82,16.83Z"/><path class="cls-1" d="M22.54,12.93c.94,0,1.43-.84,2.2-1.17.6.83,1.48.49,2.26.56,9-.11,18,.23,27,.76,5.12.3,10.29.22,15.43.2,1.21,0,3.11-.4,2.68,2-1,.66-2.18.41-3.28.41-6.27,0-12.54.11-18.8-.28-4.06-.37-8.13-.82-12.22-.82-4.92,0-9.82-.31-14.72-.57h0A1,1,0,0,1,22.54,12.93Z"/><path class="cls-1" d="M55.17,24.71H54a43.69,43.69,0,0,0-6.76.52A2.24,2.24,0,0,1,46,25c-1.83-1.26-.21.86-.8.8a.53.53,0,0,1-.68.06c-1.58-2.65-4-.54-6-1.09-4.81-1.34-9.84-.1-14.73-1-1.31-.24-2.74.28-4.13.35-.88,0-2,.29-2.16-1.11,2.24-1.06,4.67-.76,6.92-.42a33.59,33.59,0,0,0,6.7.39c5.63-.31,11.2.83,16.82.59,2.39-.1,4.77-.57,7.18,0C56.62,23.91,55.14,24.33,55.17,24.71Z"/><path class="cls-1" d="M46.73,24.72c2.44-.55,4.87-1.22,7.31,0a1.22,1.22,0,0,0-1.13.49,1.39,1.39,0,0,1-.62.53c-1,.35-2.14.15-3.17.54-1.46.25-2.61,1.27-4,1.67A1.34,1.34,0,0,1,44,27.57l-.18-.06a1.47,1.47,0,0,0,.08-.55c0-.19,0-.37,0-.55l.57-.56.54,0C45.35,25.09,46.08,25,46.73,24.72Z"/><path class="cls-1" d="M72.07,15.14c-.12-1-.8-1.13-1.62-1.13-4.84,0-9.68.18-14.5,0-9.43-.42-18.82-1.46-28.27-1.19-.22,0-.45-.3-.68-.46.83-.91,1.93-.53,2.91-.54,5,0,10.08,0,15.12,0,1,.56,2,.29,3,.28,8.13-.1,16.24.41,24.36.56a1.8,1.8,0,0,1,.78.29h.56a1.3,1.3,0,0,0,1.93.77c.85-.38,1.36,0,1.46.91a2.23,2.23,0,0,1-1.84.65,5.5,5.5,0,0,0-2.55.08A.83.83,0,0,1,72.07,15.14Z"/><path class="cls-1" d="M73.19,12.89c-8.8.42-17.57-.82-26.37-.57A1.91,1.91,0,0,1,45,11.76h4.5c5.34,0,10.68-.2,16,.09C68.07,12,70.77,11.64,73.19,12.89Z"/><path class="cls-1" d="M13.44,56.76l-2.21-1.65c0-.17,0-.35,0-.53.74-.39,1.16-1.29,2.12-1.33a3.29,3.29,0,0,0,1.9,2.46"/><path class="cls-1" d="M72.07,15.14h.56c.59-.82,1.62.1,2.25-.56h2.26a1.59,1.59,0,0,1,1.68,1.7,12,12,0,0,1-6.6.19,13.34,13.34,0,0,0-3.9-.18c-8.68.4-17.33-.86-26-.58a1.91,1.91,0,0,1-1.79-.56c3-1.22,6-.08,9,0Z"/><path class="cls-1" d="M78.82,16.83v-.56l.56-.56c.58.48,1.29,1.23.81,1.81C79.54,18.29,79.17,17.32,78.82,16.83Z"/><path class="cls-1" d="M83.94,50.65l-2.33,1.62c-.79.55-1.31.18-1.14-.61a1.87,1.87,0,0,0-.66-2.08.52.52,0,0,1,.2-.64l3.25-1.75L85,48.91C85,49.69,84.15,50,83.94,50.65Z"/><path class="cls-1" d="M83.94,50.65c-.72-1.24.63-1.21,1.07-1.74l.66,0c-.25.53-.51,1.06-.77,1.59Z"/><path class="cls-1" d="M21.93,17.39c4.14-1.15,8.35-.52,12.52-.36,1.16,0,2.38.34,3.59.36L61.26,18c.66,0,1.33,0,1.79.57-6.28,0-12.59.31-18.85-.09C37.28,18,30.37,18,23.44,18A1.7,1.7,0,0,1,21.93,17.39Z"/><path class="cls-1" d="M19.12,73.68a8.41,8.41,0,0,1-3.94-5.07c2.18.23,4.56,2.6,5.06,5.07A.75.75,0,0,1,19.12,73.68Z"/><path class="cls-1" d="M19.12,73.68h1.12l1.13,1.68c.9.74,2.56,1,1.69,2.82C20.15,78.07,20.22,75.36,19.12,73.68Z"/><path class="cls-1" d="M23.06,78.18c.06-1.31-1.29-1.78-1.69-2.82,2-.12,3.42.49,3.38,2.82l-.28.26A1.35,1.35,0,0,1,23.06,78.18Z"/><path class="cls-1" d="M30.38,82.68h-.56a22.14,22.14,0,0,1-2.94-2.44l.12-.37C29.15,79.58,30.11,80.72,30.38,82.68Z"/><path class="cls-1" d="M24.75,78.18A2.63,2.63,0,0,1,27,79.87h0c-1.5.43-2.18-.22-2.25-1.69Z"/><path class="cls-1" d="M72.06,69.17h-4.5l-.31-.3c-.8-3.43-.64-3.9,2.32-5,1.77-.65,1.72-1.94,1.55-3.38a1.68,1.68,0,0,1,.4-1.47,8.86,8.86,0,0,0,3-1.91c.45-.4.87-.83,1.3-1.25.86-.88,2-1.47,2.86-2.29.74-.49,1.44-1.12,2.44-.7-.74,1.81.15,3.62,0,5.45-.08,1.19-.45,2.14-1.59,2.24-2.78.25-2.81,2.33-2.93,4.23C76.31,69.17,76.37,69.17,72.06,69.17Z"/><path class="cls-1" d="M81.08,52.87,78.86,54a.48.48,0,0,1-.67.07c-.42-.94,0-2-.57-3a5.12,5.12,0,0,1,2.3-1.67c.91.39,2.74.23,1.08,2-.44.47.1.75.61.78Z"/><path class="cls-1" d="M84,53.54a5.19,5.19,0,0,1,.63-.5,2.55,2.55,0,0,1,.76.69c.15.27,0,.56-.4.38S84.33,53.75,84,53.54Z"/><path class="cls-1" d="M43.42,32.1l-2.3,2.28c-.09-1.18-1.29-2.17-.6-3.49,0-.18,0-.36,0-.55,1-.43,1.54-1.62,2.74-1.77C44.26,29.71,43.29,30.92,43.42,32.1Z"/><path class="cls-1" d="M38.23,37.51l-.51.71c.11.87-.54,1-1.14,1.08-1-.12-2.18-.15-2.25-1.63v0A3.92,3.92,0,0,0,36,36c1.12-.75,1.68.07,2.28.8A.69.69,0,0,1,38.23,37.51Z"/><path class="cls-1" d="M38.22,37.09C37.47,36.74,37,35.88,36,36c1-.91,1.86-2.55,3.36-.59C39.7,36.44,38.85,36.69,38.22,37.09Z"/><path class="cls-1" d="M38.22,37.09l1.17-1.7h1.07a4.33,4.33,0,0,1-2.23,2.13A3,3,0,0,0,38.22,37.09Z"/><path class="cls-1" d="M36.57,38.78c0,1.12-1,1.3-1.65,1.73-2.91-.38-1.94-1.57-.59-2.84A3.1,3.1,0,0,0,36.57,38.78Z"/><path class="cls-1" d="M45,47.24c0,3.18,0,6.36.05,9.53L45,66.92c-.35,1.93.27,3.75.65,5.6-.72.62-1.32.27-1.91-.23a1.81,1.81,0,0,1-.43-2,1.18,1.18,0,0,1,.56-1.13c.75-5.61.06-11.22-.13-16.82,0-.64-.09-1.29-.09-1.93.06-1.18-.14-2.4.47-3.5C44.68,46.38,45,46.5,45,47.24Z"/><path class="cls-1" d="M58,55.67l0-4.5c1.42.64,3.25-.31,4.49,1.12l-1.11,1.14c-.07,1.21-1.06,1.82-1.76,2.57C59.13,56.51,58.22,57.2,58,55.67Z"/><path class="cls-1" d="M58,55.67c2.18.85,2.05-1.83,3.41-2.24,1.36.14.51.64.25,1.17s-1.75.71-.41,1.59c-1.29,1.39-2.71,1.77-4.34.6,0-.35.31-.43.54-.57Z"/><path class="cls-1" d="M43.42,32.1c-1.45-1.12,0-2.36-.14-3.53l.7-1h1.07A3,3,0,0,1,46,29.3c.15,1.14-.76,1.58-1.45,2.17Z"/><path class="cls-1" d="M58.54,34.9c-1.09,1.26-.34,2.77-.56,4.15-.16,1,.36,2.19-.57,3.09a1.8,1.8,0,0,1-.6-1.07A9.34,9.34,0,0,1,57,37.53c-.42.64-.36,1.77-1.53,1.11-.08-1-.54-1.94-.17-3,.75-1.19.78-2.79,2.08-3.67A3.25,3.25,0,0,1,58.54,34.9Z"/><path class="cls-1" d="M57.42,32c-.37,1.2-.35,2.59-1.6,3.38-.64-1-.36-2.11-.35-3.18.38-1.17-.33-2.6.84-3.58a3.43,3.43,0,0,1,1.12,2.81C57.43,31.64,57.42,31.83,57.42,32Z"/><path class="cls-1" d="M53.58,29.18A5.24,5.24,0,0,0,50.15,28c-.1-.43.16-.66.47-.87.78-.33,1.14-1.09,1.68-1.67l.61-.22a2.18,2.18,0,0,1,1.71,1.15,1.27,1.27,0,0,1,.81,1.36C55.19,28.67,55.06,29.78,53.58,29.18Z"/><path class="cls-1" d="M55.23,27.46c-.2-.37-.4-.74-.61-1.11,1.21-.54,1.6.09,1.68,1.16l-.56,0C55.54,27.75,55.37,27.73,55.23,27.46Z"/><path class="cls-1" d="M55.23,27.46l.51.07.57,1.11c-.23,1.12.48,2.41-.62,3.38-.19-.14-.37-.29-.55-.45l-1-1.39-.51-1C54.67,29.13,54.78,28.13,55.23,27.46Z"/><path class="cls-1" d="M55.21,51.17l.45-.58c1.13-.45,1.13.22,1.22,1.07.16,1.52-.59,3.16.54,4.56l-.54.57-1.09-1.17a6.18,6.18,0,0,0-.57-2.84C55.21,52.24,55.21,51.71,55.21,51.17Z"/><path class="cls-1" d="M55.75,46.66l0-2.81c.44-.46.86-1,1.6-.6l.06.64c-.21,1.11.39,2.37-.61,3.33A1.39,1.39,0,0,1,55.75,46.66Z"/><path class="cls-1" d="M55.75,46.66a1.1,1.1,0,0,1,1.09.56c-.36.56-.73,1.11-1.1,1.67C55.74,48.14,55.75,47.4,55.75,46.66Z"/><path class="cls-1" d="M57.39,43.25l-1.61.6c0-1.12,0-2.23,0-3.35.74-.46.75,1.37,1.61.51,0,.37,0,.75,0,1.13S57.4,42.88,57.39,43.25Z"/><path class="cls-1" d="M67.56,69.17c.15,2.13-.66,3.16-3,3.48C62.76,72.9,61,74,59,73.71c-.18,0-.61.27-.6.38.35,4-2.55,1.25-3.83,1.83-.33-1.18.65-1.6,1.28-2.22,1-.6,1.21-2,2.36-2.53,1.85-.16,3.49-.47,4.88-2.06,1.21-1.38,3-1.28,4.44.06Z"/><path class="cls-1" d="M56.29,74.23a3.69,3.69,0,0,0-1.69,1.69A12,12,0,0,1,49.53,77c-.63-.75-1.66-.39-2.38-.87s-1.47-.38-2.13-.79h0c-.6-1.05-1.9-1.88-1.12-3.38l1.78.53c.71.4,1.19,1.22,2.14,1.17.37.36.9.22,1.31.43a2.94,2.94,0,0,0,2.68-.35l0-.13A6.06,6.06,0,0,0,53.84,72a1.62,1.62,0,0,1,1.59-.22C56.49,72.31,57.06,73,56.29,74.23Z"/><path class="cls-1" d="M43.9,72c0,1.25,1.49,2,1.12,3.38-1.25.1-1.49-1.15-2.25-1.69a16.41,16.41,0,0,1-.51-3.29c.08-1.6.71,0,1.08-.09C43.53,70.86,43.72,71.42,43.9,72Z"/><path class="cls-1" d="M47.28,75.87c.87.15,2.07-.34,2.25,1.15a4.08,4.08,0,0,1-2.79-.55C46.57,76,46.72,75.73,47.28,75.87Z"/><path class="cls-1" d="M47.28,75.87l-.54.6A3.29,3.29,0,0,1,45,75.36C45.8,75.43,46.66,75.12,47.28,75.87Z"/><path class="cls-1" d="M30.35,53.34l.5-.54a3.31,3.31,0,0,1,2.87.37c.65.3-.07,1.17.79,1.52,3.26,1.32,4.63,4.7,7.18,6.82.58.49.42,1.73,0,2.6-.72.35-.39,1.18-.63,1.5a18.48,18.48,0,0,1-5.86-5.34,7.08,7.08,0,0,1-1.55-2.47c-.3-1.69-1.5-2.09-2.67-2.7C30.51,54.59,29.91,54.15,30.35,53.34Z"/><path class="cls-1" d="M41.65,64.11c0-1.11.12-2.09-1.11-2.94-2.39-1.63-3.51-4.71-6.25-6-1.19-.54-.4-1.21-.53-1.81a2.94,2.94,0,0,1,2.31-3.06c.87.06,2,.31,2.14,1,.64,3,3.22,4.61,4.56,7.07q-.33,2.81-.67,5.61s-.13.12-.2.12A.84.84,0,0,1,41.65,64.11Z"/><path class="cls-1" d="M42.77,58.47c-2-1.78-4.71-2.94-4.68-6.28,0-1.1-1.56-.79-2.07-1.59-.48-1.47.68-1.78,1.59-2.27.87-.28,1.58-.94,2.54-1,2,.39,1.47,2,1.61,3.31.11,1-.59,2.3,1,2.74Z"/><path class="cls-1" d="M42.77,53.41c-.56.19-.69,1.31-1.56.8s-.29-1.11-.32-1.73C40.81,50.89,42.2,49,40,47.79a1,1,0,0,1,.17-1.15,2.45,2.45,0,0,1,.66-.5c3.18-.79,2.28,2,3,3.38a5,5,0,0,1,.08.86c-.06.85.23,1.77-.56,2.45Z"/><path class="cls-1" d="M43.32,52.83l0-2.79a.77.77,0,0,1,1.13,0c0,5.51,0,11,0,16.52,0,.89.31,1.89-.54,2.63A162,162,0,0,0,43.32,52.83Z"/><path class="cls-1" d="M30.35,53.34l.59,1.76a3.56,3.56,0,0,1-2.16-.93C29,53.32,29.82,53.6,30.35,53.34Z"/><path class="cls-1" d="M24.75,78.18A2.68,2.68,0,0,0,27,79.87c.93.95,2.24,1.52,2.82,2.81-2.46-1.19-4.94-2.36-6.76-4.5Z"/><path class="cls-1" d="M37.68,48.92A2.35,2.35,0,0,0,36,50.6l-2.26,2.81a4.7,4.7,0,0,1-2.91-.61l1.68-1.66a3.7,3.7,0,0,0,1.84-1.65l2.87-2.25c.61-.49,1-.2,1.28.38C38.62,48.3,38.12,48.59,37.68,48.92Z"/><path class="cls-1" d="M49.54,15.14h-9c-5.29-.28-10.63.62-15.88-.58A15.5,15.5,0,0,1,23.06,14c6.21-1.41,12.42.54,18.64,0A21.24,21.24,0,0,1,49.54,15.14Z"/><path class="cls-1" d="M46.73,24.72,45,25.83c.27-.65-1.06-1.09-.38-1.57S46.06,24.4,46.73,24.72Z"/><path class="cls-1" d="M50.65,27.5l-.5.46-2.89,1.21a1,1,0,0,1-1.52.14c-.74-.37-.7-1.06-.69-1.73a5.36,5.36,0,0,1,3.85-1.8C50.6,25.23,50.41,26.58,50.65,27.5Z"/><path class="cls-1" d="M50.65,27.5c-.8-.36-.62-1.7-1.75-1.72,1.06-.81,2.25-.42,3.4-.36C52.46,26.68,52.33,27.71,50.65,27.5Z"/><path class="cls-1" d="M74.88,14.58c-.59.82-1.47.48-2.25.56C72.94,13.19,74.15,14.85,74.88,14.58Z"/><path class="cls-1" d="M73.22,54.56a4.51,4.51,0,0,1,.09-.53l2.07-1.23a1.93,1.93,0,0,1,2.48.9c-.19,1.16-1.47,1.52-1.85,2.53l-1.13,1.12C73.29,57,73.82,55.46,73.22,54.56Z"/><path class="cls-1" d="M77.69,54,75.38,52.8a3.66,3.66,0,0,1,2.24-1.68c1.6.65,1.1,1.75.64,2.86A.41.41,0,0,1,77.69,54Z"/><path class="cls-1" d="M67.56,69.17c-2-.23-3.83-1-5,1.82-.35.82-2.89,1.42-4.56.44a5.26,5.26,0,0,1-.39-3.13c.6-1.3,1.32-2.46,3-2.57,3,1.25,4.59-1,6.34-2.74,1.25-1.4,2.45-2.88,4.6-2.82,1.12,3.06.62,4.13-2.34,4.47-1.19.14-1.64.6-1.6,1.74C67.59,67.31,67.56,68.24,67.56,69.17Z"/><path class="cls-1" d="M71.5,60.17c-1.29,1.15-3.27,1.5-3.94,3.37-2.44.63-1.38-1.36-1.73-2.3L67.51,59l3.86-2.87c1.88.57,2.18,1.51.69,2.88A1.17,1.17,0,0,0,71.5,60.17Z"/><path class="cls-1" d="M72.06,59a1.93,1.93,0,0,0-.69-2.88,4.35,4.35,0,0,1,1.85-1.6c1.61.3.92,2,1.66,2.79C74.17,58.31,73.4,59.15,72.06,59Z"/><path class="cls-1" d="M77.69,54h.57l.6,0C78.18,55.09,77,55.48,76,56.23A2.66,2.66,0,0,1,77.69,54Z"/><path class="cls-1" d="M39.47,45l2.11-.68c.59,0,1.13.44,1.74.13a1.12,1.12,0,0,1,1,1.08,1.54,1.54,0,0,1-1.17.8,1.94,1.94,0,0,0-2.58.34h0c-.81.25-1.16,1.41-2.24,1.12a1.07,1.07,0,0,0-1.06-.55Z"/><path class="cls-1" d="M51.81,73.77c-.74,1.24-1.63,1.74-2.84.53.62-.72,1.63,0,2.28-.6Z"/><path class="cls-1" d="M60.66,66.31l2.61-3.24,1-1.11,1.6-.72c1.2.3-.27,2.6,1.73,2.3a11.17,11.17,0,0,0-1.48,1.24C64.59,66.49,62.87,67.22,60.66,66.31Z"/><path class="cls-1" d="M43.33,46.11l.94-.58c.09.32.19.64.28,1,0,1.17,0,2.35-.08,3.53l-1.13,0,0-.62A4.66,4.66,0,0,1,43.33,46.11Z"/><path class="cls-1" d="M57.4,41c-.8.65-1.14-.14-1.61-.51,0-.58,0-1.16,0-1.75l1.62-2.13Z"/><path class="cls-1" d="M55.14,72c0-1.31,1.28-1.79,1.86-2.72l1-.63c.12.94.81,1.87,0,2.83a3.47,3.47,0,0,1-1.7,2.8C56.53,73.15,55.73,72.61,55.14,72Z"/><path class="cls-1" d="M38.29,47.79c.76-.33,1.25-1.22,2.24-1.12-.19.37-.38.74-.56,1.12-.79.32-1.3,1.2-2.28,1.13Z"/><path class="cls-1" d="M43.33,46.11c0,1.11,0,2.21,0,3.31-1.08-.77.22-4-2.79-2.75C41.21,45.25,42.21,45.43,43.33,46.11Z"/><path class="cls-1" d="M43.32,44.45c-.64.74-1.21.62-1.74-.13C42.21,43.75,42.77,44.05,43.32,44.45Z"/></g></g></svg>