<?xml version="1.0" encoding="utf-8"?>
<!-- Generator: Adobe Illustrator 26.0.1, SVG Export Plug-In . SVG Version: 6.00 Build 0)  -->
<svg version="1.1" id="Layer_1" xmlns="http://www.w3.org/2000/svg" xmlns:xlink="http://www.w3.org/1999/xlink" x="0px" y="0px"
	 viewBox="0 0 185.2 9.5" style="enable-background:new 0 0 185.2 9.5;" xml:space="preserve">
<style type="text/css">
	.st0{fill:#273B78;}
</style>
<g id="Layer_2_00000168107292080277359470000008395706548564277421_">
	<g id="Layer_1-2">
		<g id="Layer_2-2">
			<g id="Layer_1-2-2">
				<g id="Layer_2-2-2">
					<g id="Layer_1-2-2-2">
						<path class="st0" d="M182.2,4.5c-10.1-0.1-19.9-2.2-29.8-3.5c-6.6-1-13.4-1.2-20.1-0.8C125.5,0.7,118.8,2,112,2.9
							C98.2,4.7,83.8,3.7,70,2.6c-3.3-0.3-6.6-0.6-9.9-1s-6.8-0.9-10.3-1.1c-3.3-0.3-6.7-0.3-10-0.2c-3.4,0.3-6.7,0.8-10,1.5
							C20.2,3.7,10.1,5.7,0,5.8v3.7h185.2v-5C184.2,4.5,183.2,4.5,182.2,4.5z"/>
					</g>
				</g>
			</g>
		</g>
	</g>
</g>
</svg>
