<svg xmlns="http://www.w3.org/2000/svg" xmlns:xlink="http://www.w3.org/1999/xlink" viewBox="0 0 1980.39 129.64"><defs><style>.cls-1{isolation:isolate;}.cls-2{fill:url(#Áåçûìÿííûé_ãðàäèåíò_37);}.cls-3{fill:url(#Áåçûìÿííûé_ãðàäèåíò_37-2);}.cls-4{fill:url(#Áåçûìÿííûé_ãðàäèåíò_37-3);}.cls-5{fill:url(#Áåçûìÿííûé_ãðàäèåíò_37-4);}.cls-6{fill:url(#Áåçûìÿííûé_ãðàäèåíò_37-5);}.cls-7{fill:url(#Áåçûìÿííûé_ãðàäèåíò_27);}.cls-8{fill:#fff;opacity:0.2;mix-blend-mode:overlay;}.cls-9{fill:url(#Áåçûìÿííûé_ãðàäèåíò_27-2);}.cls-10{fill:url(#Áåçûìÿííûé_ãðàäèåíò_27-3);}.cls-11{fill:url(#Áåçûìÿííûé_ãðàäèåíò_27-4);}.cls-12{fill:url(#Áåçûìÿííûé_ãðàäèåíò_27-5);}.cls-13{fill:url(#Áåçûìÿííûé_ãðàäèåíò_27-6);}</style><linearGradient id="Áåçûìÿííûé_ãðàäèåíò_37" x1="1128.22" y1="129.64" x2="1128.22" gradientUnits="userSpaceOnUse"><stop offset="0" stop-color="#ffc881"/><stop offset="1" stop-color="#fe897a"/></linearGradient><linearGradient id="Áåçûìÿííûé_ãðàäèåíò_37-2" x1="1096.22" y1="129.64" x2="1096.22" y2="0" gradientTransform="matrix(-1, 0, 0, 1, 2500.26, 0)" xlink:href="#Áåçûìÿííûé_ãðàäèåíò_37"/><linearGradient id="Áåçûìÿííûé_ãðàäèåíò_37-3" x1="716.92" y1="129.64" x2="716.92" y2="4.81" xlink:href="#Áåçûìÿííûé_ãðàäèåíò_37"/><linearGradient id="Áåçûìÿííûé_ãðàäèåíò_37-4" x1="228.68" y1="129.64" x2="228.68" y2="4.81" xlink:href="#Áåçûìÿííûé_ãðàäèåíò_37"/><linearGradient id="Áåçûìÿííûé_ãðàäèåíò_37-5" x1="1761.17" y1="129.64" x2="1761.17" y2="4.81" xlink:href="#Áåçûìÿííûé_ãðàäèåíò_37"/><linearGradient id="Áåçûìÿííûé_ãðàäèåíò_27" x1="825.8" y1="129.64" x2="825.8" y2="25.5" gradientUnits="userSpaceOnUse"><stop offset="0" stop-color="#ffa956"/><stop offset="1" stop-color="#fe6f5c"/></linearGradient><linearGradient id="Áåçûìÿííûé_ãðàäèåíò_27-2" x1="1251.25" y1="129.64" x2="1251.25" y2="25.5" xlink:href="#Áåçûìÿííûé_ãðàäèåíò_27"/><linearGradient id="Áåçûìÿííûé_ãðàäèåíò_27-3" x1="1677.52" y1="129.64" x2="1677.52" y2="25.5" xlink:href="#Áåçûìÿííûé_ãðàäèåíò_27"/><linearGradient id="Áåçûìÿííûé_ãðàäèåíò_27-4" x1="1934.07" y1="129.64" x2="1934.07" y2="25.5" xlink:href="#Áåçûìÿííûé_ãðàäèåíò_27"/><linearGradient id="Áåçûìÿííûé_ãðàäèåíò_27-5" x1="95.36" y1="129.64" x2="95.36" y2="25.5" xlink:href="#Áåçûìÿííûé_ãðàäèåíò_27"/><linearGradient id="Áåçûìÿííûé_ãðàäèåíò_27-6" x1="401.47" y1="129.64" x2="401.47" y2="25.5" xlink:href="#Áåçûìÿííûé_ãðàäèåíò_27"/></defs><g class="cls-1"><g id="Layer_2" data-name="Layer 2"><g id="space"><polygon class="cls-2" points="1266.13 0 1252.62 17.5 1249.61 27.5 1249.61 31 1241.1 44 1241.1 54 1234.84 58.25 1232.09 64.25 1226.58 67.07 1222.83 79.25 1220.83 81.5 1212.32 64.25 1206.81 69 1200.55 69.75 1193.3 67.07 1182.03 73 1168.02 69.75 1153.75 67.07 1149.49 70.75 1131.72 54.5 1121.21 59 1121.21 63.75 1116.2 77.5 1101.18 89.75 1086.67 94.75 1054.63 111.5 1035.36 111.5 1019.84 124.83 1000.65 128.5 990.3 129.64 1266.13 129.64 1266.13 0"/><polygon class="cls-3" points="1266.13 0 1279.65 17.5 1282.65 27.5 1282.65 31 1291.16 44 1291.16 54 1297.42 58.25 1300.17 64.25 1305.68 67.07 1309.43 79.25 1311.43 81.5 1319.95 64.25 1325.45 69 1331.71 69.75 1338.97 67.07 1350.23 73 1364.25 69.75 1378.52 67.07 1382.77 70.75 1400.54 54.5 1411.05 59 1411.05 63.75 1416.06 77.5 1431.08 89.75 1445.6 94.75 1477.63 111.5 1496.91 111.5 1512.42 124.83 1531.61 128.5 1541.96 129.64 1266.13 129.64 1266.13 0"/><polygon class="cls-4" points="963.48 119.26 958.97 106.29 944.96 99.33 944.96 89.87 938.45 92.94 938.45 74.17 933.44 84.14 933.44 106.29 905.41 106.29 901.4 99.33 895.9 96 890.89 90.38 860.35 90.38 842 72.83 829.82 65.15 819.3 48.41 796.28 31.61 789.77 18 781.26 10 781.26 4.81 771.25 9.5 765.24 58.72 761.24 48.41 754.73 48.17 748.72 33.5 740.91 29.18 731.8 22.61 731.77 13.51 722.38 27.5 715.66 27.5 715.66 31 707.15 44 707.15 54 700.89 58.25 698.13 64.25 692.63 67.07 688.87 79.25 686.87 81.5 678.36 64.25 672.86 69 666.6 69.75 659.34 67.07 648.08 73 631.27 58.72 620.27 58.83 615.54 70.75 597.77 54.5 587.25 59 587.25 63.75 582.25 77.5 567.23 89.75 552.71 94.75 520.67 111.5 501.4 111.5 485.88 124.83 466.69 128.5 456.35 129.64 730.2 129.64 732.18 129.64 977.49 129.64 963.48 119.26"/><path class="cls-5" d="M438.65,119.26l-4.5-13-14-7V89.87l-6.51,3.07V74.17l-5,10v22.15h-28l-4-7L371.07,96l-5-5.62H335.53L317.18,72.83,305,65.15,294.48,48.41l-23-16.8L265,18l-8.51-8V4.81l-10,4.69-6,49.22-4-10.31-6.5-.24-6-14.67-7.82-4.32L207,22.61l0-9.1-9.4,14h-6.72V31l-8.51,13V54l-6.25,4.25-2.76,6-5.5,2.82-3.76,12.18-2,2.25-8.51-17.25L148,69l-6.26.75-7.25-2.68L123.25,73l-16.8-14.28-11,.11L90.71,70.75,72.94,54.5,62.43,59v4.75l-5,13.75-15,12.25-14.52,5L4.7,106.88a25.88,25.88,0,0,1,3.62,17,25.64,25.64,0,0,1-1.51,5.73H452.67Z"/><path class="cls-6" d="M1977.39,117.87q.57-3.24,1.11-6.48c.2-1.25.39-2.49.59-3.73.06-.42.24-1.82.27-2,0-.35.07-.61.07-.66.11-1,.21-1.91.3-2.87.21-2.2.4-4.39.59-6.59,0-.27,0-.54.07-.82l-3.89-4.36H1946l-18.36-17.55-12.18-7.68-10.51-16.74-23-16.8L1875.38,18l-8.51-8V4.81l-10,4.69-6,49.22-4-10.31-6.51-.24-6-14.67-7.81-4.32-9.11-6.57,0-9.1-9.39,14h-6.72V31l-8.51,13V54l-6.26,4.25-2.75,6-5.51,2.82-3.75,12.18-2,2.25L1764,64.25l-5.5,4.75-6.26.75L1745,67.07,1733.69,73l-16.81-14.28-11,.11-4.73,11.92L1683.38,54.5,1672.87,59v4.75l-5,13.75-15,12.25-14.52,5-32,16.75H1587l-15.51,13.33-19.19,3.67L1542,129.64h433.32C1976,125.72,1976.69,121.8,1977.39,117.87Z"/><polygon class="cls-7" points="611.09 104.36 614.99 101.44 614.99 104.36 614.99 106.44 618.89 106.44 625.29 109.78 639.21 101.44 643.94 101.44 647.01 105.61 655.64 105.61 663.43 83.08 666.77 83.08 670.67 65.84 675.82 65.49 678.75 27.19 680.84 27.19 682.92 72.24 686.26 73.35 686.26 85.31 694.06 86.98 699.63 100.32 704.36 100.6 704.36 82.25 712.99 64.45 712.99 59.72 721.35 60.07 721.35 62.23 726.64 68.48 731.65 93.65 734.15 94.76 734.15 99.49 737.5 103.11 737.5 107 746.68 123.13 749.75 123.13 780.65 127.86 796.79 129.64 739.81 129.64 741.76 120.07 750.95 117.29 753.73 110.61 757.63 108.67 762.08 90.31 765.14 82.53 767.37 78.42 769.88 75.3 775.17 75.57 775.17 67.79 779.62 61.67 779.62 67.23 784.91 67.23 784.91 27.19 788.53 25.5 789.02 43.94 789.92 44.43 789.92 58.05 792.71 58.89 792.71 88.09 796.88 90.03 796.88 99.21 799.39 99.77 799.39 106.72 803.01 107.83 807.19 117.29 826.4 127.02 830.86 129.64 838.65 127.02 844.5 121.18 846.45 120.63 846.45 114.51 848.4 110.89 848.4 103.94 852.57 95.88 856.19 102.55 858.98 100.6 864.55 98.93 864.55 88.09 877.91 77.44 880.14 82.8 883.2 81.41 886.54 89.48 895.17 91.42 895.17 101.44 897.96 102.55 899.91 108.39 906.59 110.61 914.66 123.41 918.28 125.07 918.28 115.62 923.01 112 926.91 97.54 931.92 94.21 933.87 84.19 937.77 73.91 937.77 100.32 941.67 103.11 943.9 114.51 947.24 115.62 947.24 53.05 947.24 50.27 951.69 38.03 956.43 34.14 956.43 44.43 959.21 44.43 962.83 61.67 972.44 77.44 972.44 82.39 972.44 92.4 976.61 96.99 984.55 105.75 984.55 116.17 995.41 116.17 1000 124.94 1005.85 124.94 1017.12 119.09 1020.88 107.42 1020.88 94.9 1023.8 91.15 1023.8 84.89 1026.73 84.06 1029.23 77.44 1029.23 54.02 1037.17 35.67 1040.51 129.64 614.43 129.64 611.09 104.36"/><polygon class="cls-8" points="753.73 110.61 757.9 112 760.41 110.61 757.63 108.67 753.73 110.61"/><polygon class="cls-8" points="775.17 67.79 775.17 70.57 789.92 67.89 779.62 67.23 779.62 62.64 779.62 61.67 775.17 67.79"/><polygon class="cls-8" points="784.91 47.76 786.44 47.76 786.44 50.13 789.92 44.43 786.86 42.76 784.91 47.76"/><polygon class="cls-8" points="792.71 88.09 787.42 90.59 786.3 93.23 791.73 93.23 796.88 90.03 792.71 88.09"/><polygon class="cls-8" points="796.88 99.21 794.66 99.21 792.43 100.46 799.39 99.77 796.88 99.21"/><polygon class="cls-8" points="799.39 106.72 796.88 107.83 788.53 108.67 797.86 108.67 803.01 107.83 799.39 106.72"/><polygon class="cls-8" points="807.19 117.29 795.77 122.43 775.17 122.43 800.37 124.52 817.9 122.72 807.19 117.29"/><polygon class="cls-8" points="742.69 119.79 747.74 119.79 758.18 119.79 763.2 119.79 750.95 117.29 742.69 119.79"/><polygon class="cls-8" points="769.88 75.3 767.37 78.42 775.17 79.61 785.61 77.45 776.49 77.44 778.34 76.23 775.17 75.57 769.88 75.3"/><polygon class="cls-8" points="647.01 105.61 662.46 110.33 675.82 107.97 655.64 105.61 647.01 105.61"/><polygon class="cls-8" points="663.43 83.08 669.98 86.77 680.21 85.72 671.82 84.92 672.69 84.16 666.77 83.08 663.43 83.08"/><polygon class="cls-8" points="682.92 72.24 680.21 72.9 675.82 73.63 686.26 73.35 682.92 72.24"/><polygon class="cls-8" points="670.67 65.84 673.74 66.85 677.81 66.34 675.82 65.49 670.67 65.84"/><polygon class="cls-8" points="686.26 85.31 681.98 85.88 686.26 86.77 694.06 86.98 686.26 85.31"/><polygon class="cls-8" points="699.63 100.32 697.05 101.85 705.75 102.41 707.01 101.37 704.36 100.6 699.63 100.32"/><polygon class="cls-8" points="678.75 27.19 678.32 32.76 680.84 27.19 678.75 27.19"/><polygon class="cls-8" points="712.99 59.72 716.75 62.47 721.35 62.23 721.35 60.07 712.99 59.72"/><polygon class="cls-8" points="712.99 64.45 714.25 66.85 710.7 76.55 712.47 75.82 707.01 82.28 704.36 82.25 712.99 64.45"/><polygon class="cls-8" points="731.65 93.65 721.35 96.89 731.65 96.89 730.39 95.94 734.15 94.76 731.65 93.65"/><polygon class="cls-8" points="734.15 99.49 729.91 101.78 737.5 103.11 734.15 99.49"/><polygon class="cls-8" points="746.68 123.13 709.3 124.52 739.03 124.52 737.5 126.19 771.1 126.39 749.75 123.13 746.68 123.13"/><polygon class="cls-8" points="685.43 117.29 692.11 117.29 690.44 118.54 702.03 119.79 674.24 120.45 685.43 117.29"/><polygon class="cls-9" points="1036.54 104.36 1040.44 101.44 1040.44 104.36 1040.44 106.44 1044.34 106.44 1050.74 109.78 1064.66 101.44 1069.4 101.44 1072.46 105.61 1081.09 105.61 1088.89 83.08 1092.23 83.08 1096.13 65.84 1101.28 65.49 1104.2 27.19 1106.29 27.19 1108.38 72.24 1111.72 73.35 1111.72 85.31 1119.51 86.98 1125.08 100.32 1129.82 100.6 1129.82 82.25 1138.45 64.45 1138.45 59.72 1146.8 60.07 1146.8 62.23 1152.09 68.48 1157.1 93.65 1159.61 94.76 1159.61 99.49 1162.95 103.11 1162.95 107 1172.14 123.13 1175.2 123.13 1206.1 127.86 1222.25 129.64 1165.26 129.64 1167.21 120.07 1176.4 117.29 1179.18 110.61 1183.08 108.67 1187.54 90.31 1190.6 82.53 1192.83 78.42 1195.33 75.3 1200.62 75.57 1200.62 67.79 1205.08 61.67 1205.08 67.23 1210.37 67.23 1210.37 27.19 1213.98 25.5 1214.47 43.94 1215.38 44.43 1215.38 58.05 1218.16 58.89 1218.16 88.09 1222.34 90.03 1222.34 99.21 1224.84 99.77 1224.84 106.72 1228.46 107.83 1232.64 117.29 1251.85 127.02 1256.31 129.64 1264.11 127.02 1269.95 121.18 1271.9 120.63 1271.9 114.51 1273.85 110.89 1273.85 103.94 1278.03 95.88 1281.65 102.55 1284.43 100.6 1290 98.93 1290 88.09 1303.36 77.44 1305.59 82.8 1308.65 81.41 1311.99 89.48 1320.63 91.42 1320.63 101.44 1323.41 102.55 1325.36 108.39 1332.04 110.61 1340.12 123.41 1343.73 125.07 1343.73 115.62 1348.47 112 1352.37 97.54 1357.38 94.21 1359.33 84.19 1363.22 73.91 1363.22 100.32 1367.12 103.11 1369.35 114.51 1372.69 115.62 1372.69 53.05 1372.69 50.27 1377.15 38.03 1381.88 34.14 1381.88 44.43 1384.66 44.43 1388.28 61.67 1397.89 77.44 1397.89 82.39 1397.89 92.4 1402.07 96.99 1410 105.75 1410 116.17 1420.86 116.17 1425.45 124.94 1431.3 124.94 1442.58 119.09 1446.34 107.42 1446.34 94.9 1449.26 91.15 1449.26 84.89 1452.18 84.06 1454.69 77.44 1454.69 54.02 1462.62 35.67 1465.96 129.64 1039.88 129.64 1036.54 104.36"/><polygon class="cls-8" points="1072.46 105.61 1087.91 110.33 1101.28 107.97 1081.09 105.61 1072.46 105.61"/><polygon class="cls-8" points="1088.89 83.08 1095.43 86.77 1105.66 85.72 1097.27 84.92 1098.14 84.16 1092.23 83.08 1088.89 83.08"/><polygon class="cls-8" points="1108.38 72.24 1105.66 72.9 1101.28 73.63 1111.72 73.35 1108.38 72.24"/><polygon class="cls-8" points="1096.13 65.84 1099.19 66.85 1103.26 66.34 1101.28 65.49 1096.13 65.84"/><polygon class="cls-8" points="1111.72 85.31 1107.44 85.88 1111.72 86.77 1119.51 86.98 1111.72 85.31"/><polygon class="cls-8" points="1125.08 100.32 1122.51 101.85 1131.21 102.41 1132.46 101.37 1129.82 100.6 1125.08 100.32"/><polygon class="cls-8" points="1138.45 59.72 1142.2 62.47 1146.8 62.23 1146.8 60.07 1138.45 59.72"/><polygon class="cls-8" points="1138.45 64.45 1139.7 66.85 1136.15 76.55 1137.92 75.82 1132.46 82.28 1129.82 82.25 1138.45 64.45"/><polygon class="cls-8" points="1172.14 123.13 1134.76 124.52 1164.48 124.52 1162.95 126.19 1196.55 126.39 1175.2 123.13 1172.14 123.13"/><polygon class="cls-8" points="1110.88 117.29 1117.57 117.29 1115.89 118.54 1127.48 119.79 1099.69 120.45 1110.88 117.29"/><polygon class="cls-8" points="765.14 96.89 771.97 99.21 778.44 98.05 765.14 96.89"/><polygon class="cls-8" points="856.19 102.55 867.05 105.61 881.25 101.92 864.55 98.93 858.98 100.6 856.19 102.55"/><polygon class="cls-8" points="864.55 88.09 878.36 88.09 876.07 86.45 880.14 82.8 877.91 77.44 864.55 88.09"/><polygon class="cls-8" points="886.54 89.48 878.15 91.46 895.17 91.42 886.54 89.48"/><polygon class="cls-8" points="852.57 95.88 848.4 103.94 854.03 101.26 852.57 95.88"/><polygon class="cls-8" points="848.4 110.89 852.99 113.36 859.36 114.4 846.45 114.51 848.4 110.89"/><polygon class="cls-8" points="872.34 124.52 893.09 123.47 886.66 125.46 872.34 124.52"/><polygon class="cls-8" points="899.91 108.39 892.35 110.33 883.69 110.89 901.44 112 900.29 110.89 906.59 110.61 899.91 108.39"/><polygon class="cls-8" points="897.96 102.55 890.47 102.27 895.17 101.44 897.96 102.55"/><polygon class="cls-8" points="918.28 115.62 927.75 114.51 924.62 113.6 928.65 112.7 923.01 112 918.28 115.62"/><polygon class="cls-8" points="972.44 92.4 978.28 102.27 979.26 102.55 984.55 105.75 972.44 92.4"/><polygon class="cls-8" points="962.83 61.67 953.92 66.12 960.46 66.12 958.38 67.79 966.73 70.57 972.44 77.44 962.83 61.67"/><polygon class="cls-8" points="937.77 100.32 934.01 102.55 941.67 103.11 937.77 100.32"/><polygon class="cls-8" points="926.91 97.54 934.01 95.88 931.92 94.21 926.91 97.54"/><polygon class="cls-8" points="951.69 38.03 947.24 50.27 953.92 44.15 951.97 44.15 951.69 38.03"/><polygon class="cls-8" points="956.43 44.43 955.05 44.43 959.59 46.22 959.21 44.43 956.43 44.43"/><polygon class="cls-8" points="950.58 105.61 970.97 105.75 963.18 108.67 957.32 108.39 950.58 105.61"/><polygon class="cls-8" points="943.9 114.51 947.24 115.62 959.59 118.54 947.24 117.29 943.9 114.51"/><polygon class="cls-8" points="984.55 116.17 974.11 118.54 991.86 119.79 995.41 116.17 984.55 116.17"/><polygon class="cls-8" points="1020.88 94.9 1029.65 97.54 1033.41 94.9 1023.8 91.15 1020.88 94.9"/><polygon class="cls-8" points="1020.88 107.42 1027.15 119.79 1024.01 118.54 1017.12 119.09 1020.88 107.42"/><polygon class="cls-8" points="1026.73 84.06 1023.8 84.89 1029.65 85.83 1036.54 85.83 1026.73 84.06"/><polygon class="cls-8" points="1029.23 54.02 1036.54 49.54 1034.45 49.54 1037.17 35.67 1029.23 54.02"/><polygon class="cls-8" points="950.58 87.11 959.59 85.83 964.5 87.11 950.58 87.11"/><polygon class="cls-8" points="844.5 121.18 852.9 123.47 856.19 122.33 846.45 120.63 844.5 121.18"/><polygon class="cls-8" points="1179.37 110.61 1183.55 112 1186.06 110.61 1183.27 108.67 1179.37 110.61"/><polygon class="cls-8" points="1200.81 67.79 1200.81 70.57 1215.57 67.89 1205.27 67.23 1205.27 62.64 1205.27 61.67 1200.81 67.79"/><polygon class="cls-8" points="1210.56 47.76 1212.09 47.76 1212.09 50.13 1215.57 44.43 1212.51 42.76 1210.56 47.76"/><polygon class="cls-8" points="1218.35 88.09 1213.06 90.59 1211.95 93.23 1217.38 93.23 1222.53 90.03 1218.35 88.09"/><polygon class="cls-8" points="1222.53 99.21 1220.3 99.21 1218.08 100.46 1225.04 99.77 1222.53 99.21"/><polygon class="cls-8" points="1225.04 106.72 1222.53 107.83 1214.18 108.67 1223.5 108.67 1228.65 107.83 1225.04 106.72"/><polygon class="cls-8" points="1232.83 117.29 1221.42 122.43 1200.81 122.43 1226.01 124.52 1243.54 122.72 1232.83 117.29"/><polygon class="cls-8" points="1168.33 119.79 1173.39 119.79 1183.83 119.79 1188.84 119.79 1176.59 117.29 1168.33 119.79"/><polygon class="cls-8" points="1195.52 75.3 1193.02 78.42 1200.81 79.61 1211.25 77.45 1202.13 77.44 1203.98 76.23 1200.81 75.57 1195.52 75.3"/><polygon class="cls-8" points="1172.33 123.13 1134.95 124.52 1164.67 124.52 1163.14 126.19 1196.74 126.39 1175.39 123.13 1172.33 123.13"/><polygon class="cls-8" points="1190.79 96.89 1197.61 99.21 1204.08 98.05 1190.79 96.89"/><polygon class="cls-8" points="1281.84 102.55 1292.7 105.61 1306.9 101.92 1290.19 98.93 1284.62 100.6 1281.84 102.55"/><polygon class="cls-8" points="1290.19 88.09 1304.01 88.09 1301.71 86.45 1305.78 82.8 1303.56 77.44 1290.19 88.09"/><polygon class="cls-8" points="1312.19 89.48 1303.8 91.46 1320.82 91.42 1312.19 89.48"/><polygon class="cls-8" points="1278.22 95.88 1274.04 103.94 1279.68 101.26 1278.22 95.88"/><polygon class="cls-8" points="1274.04 110.89 1278.64 113.36 1285.01 114.4 1272.09 114.51 1274.04 110.89"/><polygon class="cls-8" points="1297.99 124.52 1318.73 123.47 1312.31 125.46 1297.99 124.52"/><polygon class="cls-8" points="1325.55 108.39 1318 110.33 1309.33 110.89 1327.08 112 1325.93 110.89 1332.23 110.61 1325.55 108.39"/><polygon class="cls-8" points="1323.6 102.55 1316.12 102.27 1320.82 101.44 1323.6 102.55"/><polygon class="cls-8" points="1343.93 115.62 1353.39 114.51 1350.26 113.6 1354.3 112.7 1348.66 112 1343.93 115.62"/><polygon class="cls-8" points="1398.08 92.4 1403.93 102.27 1404.9 102.55 1410.19 105.75 1398.08 92.4"/><polygon class="cls-8" points="1388.47 61.67 1379.57 66.12 1386.11 66.12 1384.02 67.79 1392.37 70.57 1398.08 77.44 1388.47 61.67"/><polygon class="cls-8" points="1363.42 100.32 1359.66 102.55 1367.31 103.11 1363.42 100.32"/><polygon class="cls-8" points="1352.56 97.54 1359.66 95.88 1357.57 94.21 1352.56 97.54"/><polygon class="cls-8" points="1377.34 38.03 1372.88 50.27 1379.57 44.15 1377.62 44.15 1377.34 38.03"/><polygon class="cls-8" points="1382.07 44.43 1380.7 44.43 1385.23 46.22 1384.86 44.43 1382.07 44.43"/><polygon class="cls-8" points="1376.22 105.61 1396.62 105.75 1388.82 108.67 1382.96 108.39 1376.22 105.61"/><polygon class="cls-8" points="1369.54 114.51 1372.88 115.62 1385.23 118.54 1372.88 117.29 1369.54 114.51"/><polygon class="cls-8" points="1410.19 116.17 1399.75 118.54 1417.5 119.79 1421.05 116.17 1410.19 116.17"/><polygon class="cls-8" points="1446.53 94.9 1455.3 97.54 1459.06 94.9 1449.45 91.15 1446.53 94.9"/><polygon class="cls-8" points="1446.53 107.42 1452.79 119.79 1449.66 118.54 1442.77 119.09 1446.53 107.42"/><polygon class="cls-8" points="1452.37 84.06 1449.45 84.89 1455.3 85.83 1462.19 85.83 1452.37 84.06"/><polygon class="cls-8" points="1454.88 54.02 1462.19 49.54 1460.1 49.54 1462.81 35.67 1454.88 54.02"/><polygon class="cls-8" points="1376.22 87.11 1385.23 85.83 1390.14 87.11 1376.22 87.11"/><polygon class="cls-8" points="1270.14 121.18 1278.55 123.47 1281.84 122.33 1272.09 120.63 1270.14 121.18"/><polygon class="cls-10" points="1462.81 104.36 1466.71 101.44 1466.71 104.36 1466.71 106.44 1470.61 106.44 1477.01 109.78 1490.93 101.44 1495.67 101.44 1498.73 105.61 1507.36 105.61 1515.16 83.08 1518.5 83.08 1522.4 65.84 1527.55 65.49 1530.47 27.19 1532.56 27.19 1534.65 72.24 1537.99 73.35 1537.99 85.31 1545.79 86.98 1551.35 100.32 1556.09 100.6 1556.09 82.25 1564.72 64.45 1564.72 59.72 1573.07 60.07 1573.07 62.23 1578.36 68.48 1583.37 93.65 1585.88 94.76 1585.88 99.49 1589.22 103.11 1589.22 107 1598.41 123.13 1601.47 123.13 1632.38 127.86 1648.52 129.64 1591.53 129.64 1593.48 120.07 1602.67 117.29 1605.45 110.61 1609.35 108.67 1613.81 90.31 1616.87 82.53 1619.1 78.42 1621.6 75.3 1626.89 75.57 1626.89 67.79 1631.35 61.67 1631.35 67.23 1636.64 67.23 1636.64 27.19 1640.26 25.5 1640.74 43.94 1641.65 44.43 1641.65 58.05 1644.43 58.89 1644.43 88.09 1648.61 90.03 1648.61 99.21 1651.12 99.77 1651.12 106.72 1654.73 107.83 1658.91 117.29 1678.12 127.02 1682.58 129.64 1690.38 127.02 1696.22 121.18 1698.17 120.63 1698.17 114.51 1700.12 110.89 1700.12 103.94 1704.3 95.88 1707.92 102.55 1710.7 100.6 1716.27 98.93 1716.27 88.09 1729.63 77.44 1731.86 82.8 1734.92 81.41 1738.27 89.48 1746.9 91.42 1746.9 101.44 1749.68 102.55 1751.63 108.39 1758.31 110.61 1766.39 123.41 1770.01 125.07 1770.01 115.62 1774.74 112 1778.64 97.54 1783.65 94.21 1785.6 84.19 1789.5 73.91 1789.5 100.32 1793.39 103.11 1795.62 114.51 1798.96 115.62 1798.96 53.05 1798.96 50.27 1803.42 38.03 1808.15 34.14 1808.15 44.43 1810.93 44.43 1814.55 61.67 1824.16 77.44 1824.16 82.39 1824.16 92.4 1828.34 96.99 1836.27 105.75 1836.27 116.17 1847.13 116.17 1851.72 124.94 1857.57 124.94 1868.85 119.09 1872.61 107.42 1872.61 94.9 1875.53 91.15 1875.53 84.89 1878.45 84.06 1880.96 77.44 1880.96 54.02 1888.89 35.67 1892.23 129.64 1466.15 129.64 1462.81 104.36"/><polygon class="cls-8" points="1605.45 110.61 1609.63 112 1612.13 110.61 1609.35 108.67 1605.45 110.61"/><polygon class="cls-8" points="1626.89 67.79 1626.89 70.57 1641.65 67.89 1631.35 67.23 1631.35 62.64 1631.35 61.67 1626.89 67.79"/><polygon class="cls-8" points="1636.64 47.76 1638.17 47.76 1638.17 50.13 1641.65 44.43 1638.59 42.76 1636.64 47.76"/><polygon class="cls-8" points="1644.43 88.09 1639.14 90.59 1638.03 93.23 1643.46 93.23 1648.61 90.03 1644.43 88.09"/><polygon class="cls-8" points="1648.61 99.21 1646.38 99.21 1644.15 100.46 1651.12 99.77 1648.61 99.21"/><polygon class="cls-8" points="1651.12 106.72 1648.61 107.83 1640.26 108.67 1649.58 108.67 1654.73 107.83 1651.12 106.72"/><polygon class="cls-8" points="1658.91 117.29 1647.49 122.43 1626.89 122.43 1652.09 124.52 1669.62 122.72 1658.91 117.29"/><polygon class="cls-8" points="1594.41 119.79 1599.47 119.79 1609.91 119.79 1614.92 119.79 1602.67 117.29 1594.41 119.79"/><polygon class="cls-8" points="1621.6 75.3 1619.1 78.42 1626.89 79.61 1637.33 77.45 1628.21 77.44 1630.06 76.23 1626.89 75.57 1621.6 75.3"/><polygon class="cls-8" points="1498.73 105.61 1514.18 110.33 1527.55 107.97 1507.36 105.61 1498.73 105.61"/><polygon class="cls-8" points="1515.16 83.08 1521.7 86.77 1531.93 85.72 1523.55 84.92 1524.42 84.16 1518.5 83.08 1515.16 83.08"/><polygon class="cls-8" points="1534.65 72.24 1531.93 72.9 1527.55 73.63 1537.99 73.35 1534.65 72.24"/><polygon class="cls-8" points="1522.4 65.84 1525.46 66.85 1529.53 66.34 1527.55 65.49 1522.4 65.84"/><polygon class="cls-8" points="1537.99 85.31 1533.71 85.88 1537.99 86.77 1545.79 86.98 1537.99 85.31"/><polygon class="cls-8" points="1551.35 100.32 1548.78 101.85 1557.48 102.41 1558.73 101.37 1556.09 100.6 1551.35 100.32"/><polygon class="cls-8" points="1530.47 27.19 1530.05 32.76 1532.56 27.19 1530.47 27.19"/><polygon class="cls-8" points="1564.72 59.72 1568.48 62.47 1573.07 62.23 1573.07 60.07 1564.72 59.72"/><polygon class="cls-8" points="1564.72 64.45 1565.97 66.85 1562.42 76.55 1564.2 75.82 1558.73 82.28 1556.09 82.25 1564.72 64.45"/><polygon class="cls-8" points="1583.37 93.65 1573.07 96.89 1583.37 96.89 1582.12 95.94 1585.88 94.76 1583.37 93.65"/><polygon class="cls-8" points="1585.88 99.49 1581.63 101.78 1589.22 103.11 1585.88 99.49"/><polygon class="cls-8" points="1598.41 123.13 1561.03 124.52 1590.75 124.52 1589.22 126.19 1622.82 126.39 1601.47 123.13 1598.41 123.13"/><polygon class="cls-8" points="1537.15 117.29 1543.84 117.29 1542.16 118.54 1553.76 119.79 1525.96 120.45 1537.15 117.29"/><path class="cls-11" d="M1977.39,117.87q.57-3.24,1.11-6.48c.2-1.25.39-2.49.59-3.73.06-.42.24-1.82.27-2,0-.35.07-.61.07-.66.11-1,.21-1.91.3-2.87l.15-1.65-3.07-.18L1971.24,87l-7.8-1.67v-12l-3.34-1.11-2.09-45h-2.09L1953,65.49l-5.15.35L1944,83.08h-3.34l-7.79,22.53h-8.64l-3.06-4.17h-4.73l-13.92,8.34-6.41-3.34h-3.89v-5l-3.9,2.92,3.33,25.28h83.68C1976,125.72,1976.69,121.8,1977.39,117.87Z"/><polygon class="cls-8" points="1924.18 105.61 1939.64 110.33 1953 107.97 1932.82 105.61 1924.18 105.61"/><polygon class="cls-8" points="1940.61 83.08 1947.15 86.77 1957.39 85.72 1949 84.92 1949.87 84.16 1943.95 83.08 1940.61 83.08"/><polygon class="cls-8" points="1960.1 72.24 1957.39 72.9 1953 73.63 1963.44 73.35 1960.1 72.24"/><polygon class="cls-8" points="1947.85 65.84 1950.91 66.85 1954.98 66.34 1953 65.49 1947.85 65.84"/><polygon class="cls-8" points="1963.44 85.31 1959.16 85.88 1963.44 86.77 1971.24 86.98 1963.44 85.31"/><path class="cls-8" d="M1979.73,102.15l.15-1.65-3.07-.18-2.58,1.53,5.49.35Z"/><path class="cls-8" d="M1977.08,119.56l-9.46-1,1.67-1.25h-6.68l-11.19,3.16,25.61-.61A2.74,2.74,0,0,0,1977.08,119.56Z"/><polygon class="cls-8" points="1616.87 96.89 1623.69 99.21 1630.16 98.05 1616.87 96.89"/><polygon class="cls-8" points="1707.92 102.55 1718.78 105.61 1732.98 101.92 1716.27 98.93 1710.7 100.6 1707.92 102.55"/><polygon class="cls-8" points="1716.27 88.09 1730.09 88.09 1727.79 86.45 1731.86 82.8 1729.63 77.44 1716.27 88.09"/><polygon class="cls-8" points="1738.27 89.48 1729.88 91.46 1746.9 91.42 1738.27 89.48"/><polygon class="cls-8" points="1704.3 95.88 1700.12 103.94 1705.76 101.26 1704.3 95.88"/><polygon class="cls-8" points="1700.12 110.89 1704.72 113.36 1711.09 114.4 1698.17 114.51 1700.12 110.89"/><polygon class="cls-8" points="1724.07 124.52 1744.81 123.47 1738.39 125.46 1724.07 124.52"/><polygon class="cls-8" points="1751.63 108.39 1744.08 110.33 1735.41 110.89 1753.16 112 1752.01 110.89 1758.31 110.61 1751.63 108.39"/><polygon class="cls-8" points="1749.68 102.55 1742.2 102.27 1746.9 101.44 1749.68 102.55"/><polygon class="cls-8" points="1770.01 115.62 1779.47 114.51 1776.34 113.6 1780.38 112.7 1774.74 112 1770.01 115.62"/><polygon class="cls-8" points="1824.16 92.4 1830.01 102.27 1830.98 102.55 1836.27 105.75 1824.16 92.4"/><polygon class="cls-8" points="1814.55 61.67 1805.64 66.12 1812.19 66.12 1810.1 67.79 1818.45 70.57 1824.16 77.44 1814.55 61.67"/><polygon class="cls-8" points="1789.5 100.32 1785.74 102.55 1793.39 103.11 1789.5 100.32"/><polygon class="cls-8" points="1778.64 97.54 1785.74 95.88 1783.65 94.21 1778.64 97.54"/><polygon class="cls-8" points="1803.42 38.03 1798.96 50.27 1805.64 44.15 1803.7 44.15 1803.42 38.03"/><polygon class="cls-8" points="1808.15 44.43 1806.78 44.43 1811.31 46.22 1810.93 44.43 1808.15 44.43"/><polygon class="cls-8" points="1802.3 105.61 1822.7 105.75 1814.9 108.67 1809.04 108.39 1802.3 105.61"/><polygon class="cls-8" points="1795.62 114.51 1798.96 115.62 1811.31 118.54 1798.96 117.29 1795.62 114.51"/><polygon class="cls-8" points="1836.27 116.17 1825.83 118.54 1843.58 119.79 1847.13 116.17 1836.27 116.17"/><polygon class="cls-8" points="1872.61 94.9 1881.38 97.54 1885.13 94.9 1875.53 91.15 1872.61 94.9"/><polygon class="cls-8" points="1872.61 107.42 1878.87 119.79 1875.74 118.54 1868.85 119.09 1872.61 107.42"/><polygon class="cls-8" points="1878.45 84.06 1875.53 84.89 1881.38 85.83 1888.27 85.83 1878.45 84.06"/><polygon class="cls-8" points="1880.96 54.02 1888.27 49.54 1886.18 49.54 1888.89 35.67 1880.96 54.02"/><polygon class="cls-8" points="1802.3 87.11 1811.31 85.83 1816.22 87.11 1802.3 87.11"/><polygon class="cls-8" points="1696.22 121.18 1704.63 123.47 1707.92 122.33 1698.17 120.63 1696.22 121.18"/><path class="cls-12" d="M8.32,123.91a25.64,25.64,0,0,1-1.51,5.73H190.73l-3.34-94L179.46,54V77.44L177,84.06l-2.92.83v6.26L171.1,94.9v12.52l-3.75,11.68-11.28,5.84h-5.85l-4.59-8.76H134.77V105.75L126.83,97l-4.17-4.59v-15l-9.61-15.77-3.62-17.24h-2.78V34.14L101.92,38,97.46,50.27v65.35l-3.34-1.11L91.89,103.1,88,100.32V73.91L84.1,84.19l-1.95,10-5,3.33L73.24,112l-4.74,3.62v9.45l-3.61-1.66-8.08-12.8-6.68-2.22-2-5.84-2.78-1.11v-10l-8.64-2-3.34-8.07L30.36,82.8l-2.23-5.36L14.77,88.09V98.93L9.2,100.6l-2.78,2L2.8,95.87,0,101.27A25.8,25.8,0,0,1,8.32,123.91Z"/><polygon class="cls-13" points="186.77 104.36 190.66 101.44 190.66 104.36 190.66 106.44 194.56 106.44 200.97 109.78 214.89 101.44 219.62 101.44 222.68 105.61 231.31 105.61 239.11 83.08 242.45 83.08 246.35 65.84 251.5 65.49 254.42 27.19 256.51 27.19 258.6 72.24 261.94 73.35 261.94 85.31 269.74 86.98 275.31 100.32 280.04 100.6 280.04 82.25 288.67 64.45 288.67 59.72 297.02 60.07 297.02 62.23 302.31 68.48 307.32 93.65 309.83 94.76 309.83 99.49 313.17 103.11 313.17 107 322.36 123.13 325.42 123.13 356.33 127.86 372.47 129.64 315.48 129.64 317.43 120.07 326.62 117.29 329.4 110.61 333.3 108.67 337.76 90.31 340.82 82.53 343.05 78.42 345.55 75.3 350.84 75.57 350.84 67.79 355.3 61.67 355.3 67.23 360.59 67.23 360.59 27.19 364.21 25.5 364.7 43.94 365.6 44.43 365.6 58.05 368.38 58.89 368.38 88.09 372.56 90.03 372.56 99.21 375.07 99.77 375.07 106.72 378.69 107.83 382.86 117.29 402.07 127.02 406.53 129.64 414.33 127.02 420.18 121.18 422.12 120.63 422.12 114.51 424.07 110.89 424.07 103.94 428.25 95.88 431.87 102.55 434.65 100.6 440.22 98.93 440.22 88.09 453.59 77.44 455.81 82.8 458.88 81.41 462.22 89.48 470.85 91.42 470.85 101.44 473.63 102.55 475.58 108.39 482.26 110.61 490.34 123.41 493.96 125.07 493.96 115.62 498.69 112 502.59 97.54 507.6 94.21 509.55 84.19 513.45 73.91 513.45 100.32 517.35 103.11 519.57 114.51 522.91 115.62 522.91 53.05 522.91 50.27 527.37 38.03 532.1 34.14 532.1 44.43 534.89 44.43 538.51 61.67 548.11 77.44 548.11 82.39 548.11 92.4 552.29 96.99 560.22 105.75 560.22 116.17 571.08 116.17 575.68 124.94 581.52 124.94 592.8 119.09 596.56 107.42 596.56 94.9 599.48 91.15 599.48 84.89 602.4 84.06 604.91 77.44 604.91 54.02 612.85 35.67 616.18 129.64 190.1 129.64 186.77 104.36"/><polygon class="cls-8" points="222.68 105.61 238.13 110.33 251.5 107.97 231.31 105.61 222.68 105.61"/><polygon class="cls-8" points="239.11 83.08 245.65 86.77 255.88 85.72 247.5 84.92 248.37 84.16 242.45 83.08 239.11 83.08"/><polygon class="cls-8" points="258.6 72.24 255.88 72.9 251.5 73.63 261.94 73.35 258.6 72.24"/><polygon class="cls-8" points="246.35 65.84 249.41 66.85 253.48 66.34 251.5 65.49 246.35 65.84"/><polygon class="cls-8" points="261.94 85.31 257.66 85.88 261.94 86.77 269.74 86.98 261.94 85.31"/><polygon class="cls-8" points="275.31 100.32 272.73 101.85 281.43 102.41 282.68 101.37 280.04 100.6 275.31 100.32"/><polygon class="cls-8" points="288.67 59.72 292.43 62.47 297.02 62.23 297.02 60.07 288.67 59.72"/><polygon class="cls-8" points="288.67 64.45 289.92 66.85 286.37 76.55 288.15 75.82 282.68 82.28 280.04 82.25 288.67 64.45"/><polygon class="cls-8" points="322.36 123.13 284.98 124.52 314.7 124.52 313.17 126.19 346.77 126.39 325.42 123.13 322.36 123.13"/><polygon class="cls-8" points="261.11 117.29 267.79 117.29 266.12 118.54 277.71 119.79 249.92 120.45 261.11 117.29"/><polygon class="cls-8" points="6.42 102.55 17.27 105.61 31.47 101.92 14.77 98.93 9.2 100.6 6.42 102.55"/><polygon class="cls-8" points="14.77 88.09 28.59 88.09 26.29 86.45 30.36 82.8 28.13 77.44 14.77 88.09"/><polygon class="cls-8" points="36.76 89.48 28.38 91.46 45.4 91.42 36.76 89.48"/><path class="cls-8" d="M1.4,102.62l2.86-1.36L2.8,95.87,0,101.27C.48,101.71,1,102.16,1.4,102.62Z"/><polygon class="cls-8" points="22.57 124.52 43.31 123.47 36.89 125.46 22.57 124.52"/><polygon class="cls-8" points="50.13 108.39 42.58 110.33 33.91 110.89 51.66 112 50.51 110.89 56.81 110.61 50.13 108.39"/><polygon class="cls-8" points="48.18 102.55 40.7 102.27 45.4 101.44 48.18 102.55"/><polygon class="cls-8" points="68.5 115.62 77.97 114.51 74.84 113.6 78.88 112.7 73.24 112 68.5 115.62"/><polygon class="cls-8" points="122.66 92.4 128.5 102.27 129.48 102.55 134.77 105.75 122.66 92.4"/><polygon class="cls-8" points="113.05 61.67 104.14 66.12 110.69 66.12 108.6 67.79 116.95 70.57 122.66 77.44 113.05 61.67"/><polygon class="cls-8" points="88 100.32 84.24 102.55 91.89 103.11 88 100.32"/><polygon class="cls-8" points="77.14 97.54 84.24 95.88 82.15 94.21 77.14 97.54"/><polygon class="cls-8" points="101.92 38.03 97.46 50.27 104.14 44.15 102.19 44.15 101.92 38.03"/><polygon class="cls-8" points="106.65 44.43 105.27 44.43 109.81 46.22 109.43 44.43 106.65 44.43"/><polygon class="cls-8" points="100.8 105.61 121.2 105.75 113.4 108.67 107.54 108.39 100.8 105.61"/><polygon class="cls-8" points="94.12 114.51 97.46 115.62 109.81 118.54 97.46 117.29 94.12 114.51"/><polygon class="cls-8" points="134.77 116.17 124.33 118.54 142.08 119.79 145.63 116.17 134.77 116.17"/><polygon class="cls-8" points="171.1 94.9 179.88 97.54 183.63 94.9 174.03 91.15 171.1 94.9"/><polygon class="cls-8" points="171.1 107.42 177.37 119.79 174.24 118.54 167.35 119.09 171.1 107.42"/><polygon class="cls-8" points="176.95 84.06 174.03 84.89 179.88 85.83 186.77 85.83 176.95 84.06"/><polygon class="cls-8" points="179.46 54.02 186.77 49.54 184.68 49.54 187.39 35.67 179.46 54.02"/><polygon class="cls-8" points="100.8 87.11 109.81 85.83 114.72 87.11 100.8 87.11"/><polygon class="cls-8" points="329.6 110.61 333.77 112 336.28 110.61 333.49 108.67 329.6 110.61"/><polygon class="cls-8" points="351.04 67.79 351.04 70.57 365.79 67.89 355.49 67.23 355.49 62.64 355.49 61.67 351.04 67.79"/><polygon class="cls-8" points="360.78 47.76 362.31 47.76 362.31 50.13 365.79 44.43 362.73 42.76 360.78 47.76"/><polygon class="cls-8" points="368.58 88.09 363.29 90.59 362.17 93.23 367.6 93.23 372.75 90.03 368.58 88.09"/><polygon class="cls-8" points="372.75 99.21 370.52 99.21 368.3 100.46 375.26 99.77 372.75 99.21"/><polygon class="cls-8" points="375.26 106.72 372.75 107.83 364.4 108.67 373.73 108.67 378.88 107.83 375.26 106.72"/><polygon class="cls-8" points="383.05 117.29 371.64 122.43 351.04 122.43 376.23 124.52 393.77 122.72 383.05 117.29"/><polygon class="cls-8" points="318.56 119.79 323.61 119.79 334.05 119.79 339.06 119.79 326.81 117.29 318.56 119.79"/><polygon class="cls-8" points="345.75 75.3 343.24 78.42 351.04 79.61 361.48 77.45 352.36 77.44 354.2 76.23 351.04 75.57 345.75 75.3"/><polygon class="cls-8" points="322.55 123.13 285.17 124.52 314.89 124.52 313.36 126.19 346.97 126.39 325.61 123.13 322.55 123.13"/><polygon class="cls-8" points="341.01 96.89 347.83 99.21 354.31 98.05 341.01 96.89"/><polygon class="cls-8" points="432.06 102.55 442.92 105.61 457.12 101.92 440.41 98.93 434.85 100.6 432.06 102.55"/><polygon class="cls-8" points="440.41 88.09 454.23 88.09 451.93 86.45 456 82.8 453.78 77.44 440.41 88.09"/><polygon class="cls-8" points="462.41 89.48 454.02 91.46 471.04 91.42 462.41 89.48"/><polygon class="cls-8" points="428.44 95.88 424.26 103.94 429.9 101.26 428.44 95.88"/><polygon class="cls-8" points="424.26 110.89 428.86 113.36 435.23 114.4 422.32 114.51 424.26 110.89"/><polygon class="cls-8" points="448.21 124.52 468.95 123.47 462.53 125.46 448.21 124.52"/><polygon class="cls-8" points="475.77 108.39 468.22 110.33 459.56 110.89 477.31 112 476.16 110.89 482.46 110.61 475.77 108.39"/><polygon class="cls-8" points="473.82 102.55 466.34 102.27 471.04 101.44 473.82 102.55"/><polygon class="cls-8" points="494.15 115.62 503.62 114.51 500.48 113.6 504.52 112.7 498.88 112 494.15 115.62"/><polygon class="cls-8" points="548.3 92.4 554.15 102.27 555.13 102.55 560.41 105.75 548.3 92.4"/><polygon class="cls-8" points="538.7 61.67 529.79 66.12 536.33 66.12 534.24 67.79 542.6 70.57 548.3 77.44 538.7 61.67"/><polygon class="cls-8" points="513.64 100.32 509.88 102.55 517.54 103.11 513.64 100.32"/><polygon class="cls-8" points="502.78 97.54 509.88 95.88 507.79 94.21 502.78 97.54"/><polygon class="cls-8" points="527.56 38.03 523.11 50.27 529.79 44.15 527.84 44.15 527.56 38.03"/><polygon class="cls-8" points="532.29 44.43 530.92 44.43 535.46 46.22 535.08 44.43 532.29 44.43"/><polygon class="cls-8" points="526.45 105.61 546.84 105.75 539.05 108.67 533.19 108.39 526.45 105.61"/><polygon class="cls-8" points="519.76 114.51 523.11 115.62 535.46 118.54 523.11 117.29 519.76 114.51"/><polygon class="cls-8" points="560.41 116.17 549.97 118.54 567.72 119.79 571.27 116.17 560.41 116.17"/><polygon class="cls-8" points="596.75 94.9 605.52 97.54 609.28 94.9 599.67 91.15 596.75 94.9"/><polygon class="cls-8" points="596.75 107.42 603.01 119.79 599.88 118.54 592.99 119.09 596.75 107.42"/><polygon class="cls-8" points="602.6 84.06 599.67 84.89 605.52 85.83 612.41 85.83 602.6 84.06"/><polygon class="cls-8" points="605.1 54.02 612.41 49.54 610.32 49.54 613.04 35.67 605.1 54.02"/><polygon class="cls-8" points="526.45 87.11 535.46 85.83 540.37 87.11 526.45 87.11"/><polygon class="cls-8" points="420.37 121.18 428.77 123.47 432.06 122.33 422.32 120.63 420.37 121.18"/></g></g></g></svg>