<svg xmlns="http://www.w3.org/2000/svg" xmlns:xlink="http://www.w3.org/1999/xlink" viewBox="0 0 492.56 242.09"><defs><style>.cls-1{isolation:isolate;}.cls-2{fill:url(#Áåçûìÿííûé_ãðàäèåíò_3);}.cls-3{fill:#fff;mix-blend-mode:overlay;}.cls-12,.cls-3{opacity:0.2;}.cls-4{fill:url(#Áåçûìÿííûé_ãðàäèåíò_3-2);}.cls-5{fill:url(#Áåçûìÿííûé_ãðàäèåíò_3-3);}.cls-20,.cls-22,.cls-6{fill:#f1f1a8;}.cls-21,.cls-6{opacity:0.51;}.cls-20,.cls-21,.cls-6{mix-blend-mode:soft-light;}.cls-7{fill:url(#Áåçûìÿííûé_ãðàäèåíò_179);}.cls-8{fill:url(#Áåçûìÿííûé_ãðàäèåíò_179-2);}.cls-9{fill:url(#Áåçûìÿííûé_ãðàäèåíò_3-4);}.cls-10{fill:url(#Áåçûìÿííûé_ãðàäèåíò_179-3);}.cls-11{fill:#01beee;}.cls-12,.cls-13,.cls-19{fill:#690058;mix-blend-mode:multiply;}.cls-13{opacity:0.3;}.cls-14{fill:#d45b51;}.cls-15{fill:#d86c62;}.cls-16{fill:#df8b83;}.cls-17{fill:#a6214f;}.cls-18{fill:url(#Áåçûìÿííûé_ãðàäèåíò_179-4);}.cls-19{opacity:0.15;}.cls-20{opacity:0.16;}.cls-23,.cls-24,.cls-25,.cls-27{opacity:0.61;mix-blend-mode:screen;}.cls-23{fill:url(#Áåçûìÿííûé_ãðàäèåíò_163);}.cls-24{fill:url(#Áåçûìÿííûé_ãðàäèåíò_163-2);}.cls-25{fill:url(#Áåçûìÿííûé_ãðàäèåíò_163-3);}.cls-26{fill:url(#Áåçûìÿííûé_ãðàäèåíò_179-5);}.cls-27{fill:url(#Áåçûìÿííûé_ãðàäèåíò_163-4);}</style><linearGradient id="Áåçûìÿííûé_ãðàäèåíò_3" x1="246.28" y1="242.09" x2="246.28" gradientUnits="userSpaceOnUse"><stop offset="0" stop-color="#cb3347"/><stop offset="1" stop-color="#d9493e"/></linearGradient><linearGradient id="Áåçûìÿííûé_ãðàäèåíò_3-2" x1="235.75" y1="186.87" x2="235.75" y2="163.45" xlink:href="#Áåçûìÿííûé_ãðàäèåíò_3"/><linearGradient id="Áåçûìÿííûé_ãðàäèåíò_3-3" x1="286.21" y1="230.64" x2="286.21" y2="179.35" xlink:href="#Áåçûìÿííûé_ãðàäèåíò_3"/><linearGradient id="Áåçûìÿííûé_ãðàäèåíò_179" x1="289.43" y1="192.56" x2="289.43" y2="180.74" gradientUnits="userSpaceOnUse"><stop offset="0" stop-color="#bc2238"/><stop offset="1" stop-color="#c43229"/></linearGradient><linearGradient id="Áåçûìÿííûé_ãðàäèåíò_179-2" x1="234.49" y1="175.18" x2="234.49" y2="165.65" xlink:href="#Áåçûìÿííûé_ãðàäèåíò_179"/><linearGradient id="Áåçûìÿííûé_ãðàäèåíò_3-4" x1="193.26" y1="170.41" x2="193.26" y2="116.36" xlink:href="#Áåçûìÿííûé_ãðàäèåíò_3"/><linearGradient id="Áåçûìÿííûé_ãðàäèåíò_179-3" x1="188.49" y1="121.37" x2="188.49" y2="117.72" xlink:href="#Áåçûìÿííûé_ãðàäèåíò_179"/><linearGradient id="Áåçûìÿííûé_ãðàäèåíò_179-4" x1="86.64" y1="26.9" x2="86.64" y2="2.29" xlink:href="#Áåçûìÿííûé_ãðàäèåíò_179"/><radialGradient id="Áåçûìÿííûé_ãðàäèåíò_163" cx="290.3" cy="187.3" r="28.08" gradientUnits="userSpaceOnUse"><stop offset="0" stop-color="#005eff"/><stop offset="0.12" stop-color="#004dd1"/><stop offset="0.3" stop-color="#003692"/><stop offset="0.48" stop-color="#00235e"/><stop offset="0.64" stop-color="#001435"/><stop offset="0.78" stop-color="#000918"/><stop offset="0.91" stop-color="#000206"/><stop offset="1"/></radialGradient><radialGradient id="Áåçûìÿííûé_ãðàäèåíò_163-2" cx="234.77" cy="169.81" r="22.71" xlink:href="#Áåçûìÿííûé_ãðàäèåíò_163"/><radialGradient id="Áåçûìÿííûé_ãðàäèåíò_163-3" cx="79.15" cy="16.23" r="36.35" xlink:href="#Áåçûìÿííûé_ãðàäèåíò_163"/><linearGradient id="Áåçûìÿííûé_ãðàäèåíò_179-5" x1="39.31" y1="178.56" x2="73.69" y2="178.56" xlink:href="#Áåçûìÿííûé_ãðàäèåíò_179"/><radialGradient id="Áåçûìÿííûé_ãðàäèåíò_163-4" cx="55.49" cy="179.89" r="22.71" xlink:href="#Áåçûìÿííûé_ãðàäèåíò_163"/></defs><g class="cls-1"><g id="Layer_2" data-name="Layer 2"><g id="space"><path class="cls-2" d="M334.64,213.83C319.28,203.4,199,164,199,164l-13-19.92-3.34.76L177.61,129h-7l-28.07-70.5-7-3.51-6.14-20.9L110.94,17.79C93.94,8.47,70,.51,68.46,0l-.07,0S59.13,7.85,55.73,13.65l-9.41,37.8-5.27,5.67-8,45.95-2.92,1.5L14.85,140.44l-4.83,5L0,150.48v91.61l50.65-.23s84-11.93,102.41-13c7.73-.45,24.23-.85,46-1.21,95.8-1.55,293.52-2.18,293.52-2.18ZM155.39,116.12l-3.65,12.94,0,.06-35.66,5.17-4.67-7.17,22-19L136,83.24l3.71,1.55,15.67,19.32Z"/><polygon class="cls-3" points="201.22 160.45 204.93 161.62 206.89 160.45 201.22 160.45"/><polygon class="cls-3" points="176.89 166.45 186.06 174.37 184.56 170.45 176.89 166.45"/><path class="cls-4" d="M213.72,171.12l7-7.67,27.54,8.34,7,11.17,2.5,3.91s-31.75-1.08-35.24-3.42S213.72,171.12,213.72,171.12Z"/><path class="cls-5" d="M260,228.2l9.68-46.5s13.55-2.91,21.62-2.25,15.06,10.13,16.19,11.9,0,25.26,0,25.26h2.58l2.3,9.82s-18.14,3.94-22.57,4.19S260,228.2,260,228.2Z"/><path class="cls-6" d="M95.14,28.37l7.25,3.75-34-5.4V0l.07,0C70,.51,93.94,8.47,110.94,17.79l18.42,16.33Z"/><polygon class="cls-6" points="135.5 55.02 126.14 64.62 95.14 71.45 104.64 71.45 78.14 79.87 133.39 67.44 142.52 58.53 135.5 55.02"/><polygon class="cls-6" points="151.72 129.12 155.39 129.12 164.96 131.69 113.39 138.45 86.64 138.45 103.92 134.29 116.06 134.29 151.72 129.12"/><polygon class="cls-6" points="177.61 129.03 168.39 131.69 170.59 129.03 177.61 129.03"/><polygon class="cls-6" points="182.72 144.79 173 148.12 158.89 151.12 166.39 151.12 153.72 156.29 135.56 159.12 164.96 156.12 186.06 144.03 182.72 144.79"/><polygon class="cls-6" points="199.04 163.95 205.06 170.41 213.72 172.62 215.33 169.36 199.04 163.95"/><path class="cls-6" d="M220.72,163.45l1.82,7s7.36,7,25.1,6.71l.62-5.33Z"/><path class="cls-6" d="M269.7,181.7a32.47,32.47,0,0,0,5.52,6.09c3.17,2.58,20.55,6.78,24.61,6.47a17.36,17.36,0,0,0,7.68-2.91s-5.35-8.92-13.27-11.28S269.7,181.7,269.7,181.7Z"/><polygon class="cls-6" points="164.96 189.74 176.89 186.87 201.22 188.41 194.39 189.74 217.89 192.12 245.27 199.03 191.39 200.79 194.56 199.29 179.56 194.28 149.22 189.74 125.8 189.74 149.72 188.41 164.96 189.74"/><polygon class="cls-6" points="334.64 213.83 322.43 217.52 411.41 220.28 334.64 213.83"/><polygon class="cls-6" points="75.39 90.12 86.64 90.12 116.72 94.54 96.06 101.12 86.64 94.37 75.39 90.12"/><path class="cls-7" d="M273.47,182.87s12.75-3.5,19.67-1.52,12.25,9.27,12.25,9.94-9.42,2.08-14.92.66a128.08,128.08,0,0,1-14.66-5.08C275.22,186.54,273.47,182.87,273.47,182.87Z"/><path class="cls-8" d="M223.94,165.65c.08.95.81,4.25,1.55,4.83a25.9,25.9,0,0,0,8.93,4.27c3.93.77,10,.33,10.44,0s0-1,0-2.23S223.94,165.65,223.94,165.65Z"/><path class="cls-9" d="M196,153.49,193.89,119s-.57-2.37-4.46-2.62-6.67,4.15-6.67,4.15l0,24.27L181.47,161s14.92,8.66,23.59,9.37l-2.92-8.79Z"/><path class="cls-6" d="M182.76,120.52a7.43,7.43,0,0,0,5.63,1.47,8.15,8.15,0,0,0,5.5-3s-1.22-2.87-5.4-2.2A7.89,7.89,0,0,0,182.76,120.52Z"/><path class="cls-10" d="M184.06,120.52a7,7,0,0,1,3.62-2.65c2.29-.63,5.25.92,5.25.92a5.78,5.78,0,0,1-4.6,2.58C185.26,121.41,184.06,120.52,184.06,120.52Z"/><path class="cls-11" d="M277.4,187.54s7.54,0,11.2.25,13.55,4.37,13.55,4.37a29,29,0,0,1-10.73,0A146.25,146.25,0,0,1,277.4,187.54Z"/><path class="cls-11" d="M225.49,170.48a66.09,66.09,0,0,1,9.65.64c3.5.67,7.77,3.94,7.77,3.94s-5.14.5-7.89-.21S227.77,172.34,225.49,170.48Z"/><polygon class="cls-12" points="46.32 51.45 68.39 26.72 98.87 63.29 102.39 32.12 95.14 28.37 107.15 30.39 113.32 67.44 96.06 71.25 104.64 71.45 78.14 79.87 68.39 84.87 48.27 81.47 48.27 58.97 46.32 51.45"/><path class="cls-12" d="M199,227.64c-21.75.36-38.25.76-46,1.21-18.42,1.08-84.39,10.31-84.39,10.31l9.47-62h0a45.49,45.49,0,0,0-21.49-4.77L44.4,102.6l31-12.48,11.25,4.25,9.42,6.75-8.19,41-1.23-28.38-3.93,18.11-4.57,6.6,1.17,9.09-3.92,18.11,50.41,24.09h23.42l13.42,27.52L165,192.68l14.6,1.6,15,5-3.17,1.5.67,11.83,4,4.44Z"/><polygon class="cls-12" points="168.39 131.69 155.39 129.12 151.74 129.06 155.39 116.12 155.39 104.11 139.72 84.79 136.01 83.24 133.39 108.14 121.89 71.45 139.22 81.79 152.72 97.29 159.66 101.57 157.72 118.18 168.39 131.69"/><polygon class="cls-12" points="164.96 156.12 164.96 189.74 149.72 188.41 137.71 158.9 164.96 156.12"/><polygon class="cls-12" points="182.76 145.92 176.89 149.28 181.47 161.04 186.89 142.87 185.5 121.82 182.76 120.52 182.76 145.92"/><polygon class="cls-12" points="220.72 163.45 215.33 169.36 213.72 172.62 218.01 180.74 222.54 170.41 220.72 163.45"/><polygon class="cls-13" points="269.7 181.7 260.02 228.2 277.4 229.88 279.47 212.36 277.4 210.16 277.4 200.79 275.22 187.79 269.7 181.7"/><polygon class="cls-12" points="302.14 228.55 312.39 222.12 314.64 225.34 357.64 222.12 379.64 225.34 312.39 226.43 302.14 228.55"/><polygon class="cls-12" points="220.72 197.62 228 199.59 232.22 202.45 230.41 199.51 220.72 197.62"/><polygon class="cls-12" points="288.6 211.62 293.89 217.06 291.25 217.06 288.6 211.62"/><polygon class="cls-12" points="111.39 138.45 113.32 143.39 115.56 137.5 111.39 138.45"/><polygon class="cls-14" points="288.6 211.62 289.43 217.06 293.89 217.06 290.72 215.62 288.6 211.62"/><polygon class="cls-14" points="220.72 197.62 225.49 199.67 232.22 202.45 228 199.59 220.72 197.62"/><polygon class="cls-14" points="115.56 137.5 113.47 138.87 113.32 143.39 111.39 138.45 115.56 137.5"/><polygon class="cls-15" points="160.81 156.54 164.96 159.12 166.01 155.52 160.81 156.54"/><polygon class="cls-15" points="191.39 200.79 192.06 212.62 193.89 203.87 192.64 200.79 191.39 200.79"/><path class="cls-16" d="M295.21,193.83s4.06,2.34,4.62,1.94,3.34-2.24,3.34-2.24a15.23,15.23,0,0,1-3.34.73C299.08,194.18,295.21,193.83,295.21,193.83Z"/><polygon class="cls-16" points="246.14 177.13 248.26 179.32 247.64 177.12 246.14 177.13"/><polygon class="cls-6" points="196.01 153.5 194.72 157.32 197.89 159.12 202.14 161.62 196.01 153.5"/><polygon class="cls-12" points="193.89 131.69 192.64 136.37 192.93 138.45 193.89 131.69"/><polygon class="cls-14" points="192.93 138.45 194.35 134.71 193.89 131.69 192.93 138.45"/><polygon class="cls-15" points="94.83 100.24 95.77 102.59 97.97 100.51 94.83 100.24"/><path class="cls-17" d="M68.39,166.45l7-.8s39.75,8.45,46.5,9.58,22.92,1.12,22.92,1.12S165,178.57,165,178.22s16.8-8.8,17.8-8.7,22.3.89,22.3.89l-22.23-.12s-17.24,8.77-17.87,8.77-19.32-1.95-19.91-2.11-20-.71-23.22-1.21-45.69-9.31-46.69-9.31-14.76,2.4-14.76,2.4Z"/><path class="cls-17" d="M68.39,104.45s24,15.15,24,15.1S113.82,104,115.55,103.7c2-.31,13.89.78,15.53.7,1.84-.09,3-3,3-3s-.65,3.29-1.59,3.93-16-1.67-16.95-1.48-22.5,16.54-23.38,16.65S68.39,106.2,68.39,106.2Z"/><path class="cls-18" d="M68.39,2.29s18.25,6,24.25,8,23.94,14.81,24.5,15.93-19.75.69-27.63-.43-33.38-4-33.38-4C56.93,14,61.4,9.36,68.39,2.29Z"/><path class="cls-11" d="M68.39,11c6.47.15,21,6.75,24.38,8.75s8.68,7,8.68,7a93.08,93.08,0,0,1-14.07-1.23C79.1,24.2,56.13,21.8,56.13,21.8S62,10.85,68.39,11Z"/><path class="cls-19" d="M270,225.93c-.08-.44-.2-.86-.26-1.3a12.8,12.8,0,0,1-.12-1.52l-.39-11.3a16.66,16.66,0,0,0,.67,5.85,4.93,4.93,0,0,1,.46,1.61c0,.33-.06.66-.07,1a2.61,2.61,0,0,0,.78,1.94,2.85,2.85,0,0,0,.55-2c.14-5.28.6-10.55,1.07-15.81.15-1.76.31-3.52.46-5.28l-.08,5.34a2,2,0,0,1-.09.69c-.05.15-.14.28-.19.43a1.62,1.62,0,0,0,0,.58c.17,1.23.33,2.45.5,3.68a2.47,2.47,0,0,1-.38,2.14,1,1,0,0,0-.28.33.91.91,0,0,0,.13.61,5.55,5.55,0,0,1-.09,3.07,16.57,16.57,0,0,0-.1,3.15c0,1,.06,2,.1,3a1.78,1.78,0,0,0,.24,1c.31.42,1,.57,1.07,1.07a1.37,1.37,0,0,1-.07.63,6.19,6.19,0,0,0,.47,3.27c.17.53.35,1,.52,1.57a7.52,7.52,0,0,0-2.1-.28,18.47,18.47,0,0,1-2.11-.05c-.74-.14-.49-.52-.5-1.27A12.63,12.63,0,0,0,270,225.93Z"/><path class="cls-19" d="M263.39,226.62c.37-.07.46-.54.47-.92.06-2.4.11-4.8.13-7.2a2,2,0,0,1,.24-1.15.7.7,0,0,1,1-.2l.09,5.22a.55.55,0,0,0-.63.31,1.71,1.71,0,0,0-.1.75c.06,1.75.27,3.51.29,5.27-.36-.35-.91-.21-1.22-.49S263.43,227,263.39,226.62Z"/><path class="cls-19" d="M266.25,208.91a3.79,3.79,0,0,1,.21-1,7.16,7.16,0,0,1,.46-.8c1.89-3,1.27-6.92,2.57-10.21a71.82,71.82,0,0,1-1.13,11.52l-1.58.58c0,1.77,0,3.54-.07,5.31a2.33,2.33,0,0,0-1.24,1.37,15.8,15.8,0,0,1,.37-3.4C266,211.15,266.11,210,266.25,208.91Z"/><path class="cls-19" d="M269.69,196.18a4.16,4.16,0,0,1,.15-1.49l.36,0c-.05.53-.09,1.05-.12,1.58l-.31-.14Z"/><path class="cls-19" d="M278.44,207.41l.35.1.39,2.22c-.05-.39.25-.72.39-1.08a2.48,2.48,0,0,0,0-1.24c-.06-.36-.15-1.71-.67-1.77S278.51,207,278.44,207.41Z"/><path class="cls-19" d="M281.33,222.3a2.07,2.07,0,0,1,.74.14c.16,1.29.31,2.57.47,3.86l.49-.24.87,3.91a.44.44,0,0,0,.11.25.53.53,0,0,0,.22.08c2.23.4,4.58.79,6.71,0a15.26,15.26,0,0,0-.24-4,1.37,1.37,0,0,1-.93.19,9.72,9.72,0,0,0-.2,2.85,3.69,3.69,0,0,0-3.82-.69,3.56,3.56,0,0,1-1.18-2c-.11-.54-.1-1.1-.17-1.65a4.92,4.92,0,0,0-.74-2,1.05,1.05,0,0,1-.82.49,3.83,3.83,0,0,0-1.26-2.92A7.18,7.18,0,0,0,282,217c-.11-.74-.25-1.49-.36-2.23C281.05,215.37,281.45,222.3,281.33,222.3Z"/><polygon class="cls-6" points="299.19 229.13 299.19 212.62 300.76 209.73 299.83 195.77 303.17 193.53 307.51 191.35 307.51 216.61 305.39 218.87 299.19 229.13"/><path class="cls-16" d="M298.87,215.1c.26-1,1.28-2.86.63-3.83a3.74,3.74,0,0,0-1,1.93C298.38,213.77,299,214.78,298.87,215.1Z"/><path class="cls-16" d="M203.07,214.47a3.07,3.07,0,0,0,1.68,1.53l-1.28-1.79a.6.6,0,0,0-.31-.28c-.14,0-.32.06-.3.2Z"/><polygon class="cls-19" points="73.6 206.44 75.45 191.68 73.41 201.15 81.47 189.75 89.36 177.13 82.87 190.4 81.3 191.45 71.48 217.86 76.56 211.84 72.7 219.57 72.94 227.39 87.31 206.03 88.37 199.92 100.99 184.67 89.18 206.03 68.67 239.16 73.6 206.44"/><polygon class="cls-19" points="80.89 78.13 76.55 61.72 75.93 64.32 76.96 65.47 77.03 69.92 74.48 62.62 73.61 54.42 73.61 54.42 73.19 55.95 73.49 57.8 72.43 59.16 70.87 46.42 70.67 53.69 68.27 43.16 66.74 41.29 67.76 59.26 52.64 82.21 68.39 84.87 80.89 78.13"/><polygon class="cls-17" points="228 199.59 233.39 199.14 232.22 200.04 235.75 209.73 237.64 214.34 242.14 217.06 237.08 214.96 235.75 213 233.26 205.79 232.22 202.45 228 199.59"/><polygon class="cls-20" points="245.27 199.03 247.72 217.62 245.05 217.62 242.14 217.06 237.64 214.34 232.22 200.04 233.39 199.14 245.27 199.03"/><polygon class="cls-17" points="153.33 101.57 157.64 102.59 159.66 101.57 158.81 103.37 156.49 104.54 155.39 104.11 153.33 101.57"/><polygon class="cls-17" points="108.66 97.11 107.95 94.68 108.42 94.33 109.54 93.48 116.72 94.54 109.95 93.87 109.01 95.3 110.33 96.57 111.39 102.59 108.66 97.11"/><polygon class="cls-20" points="116.72 94.54 115.7 101.12 113.32 102.06 111.39 102.59 110.33 96.57 109.01 95.3 109.95 93.87 116.72 94.54"/><g class="cls-21"><path class="cls-22" d="M177,186.66a6.43,6.43,0,0,0-1.76,2.37,1.1,1.1,0,0,0-.13.46.92.92,0,0,0,.51.73,1.9,1.9,0,0,0,2.12-.2,2.36,2.36,0,0,0,.8-2,1.59,1.59,0,0,0-.52-1.1.89.89,0,0,0-1.14,0,.19.19,0,0,0,.3.13Z"/><path class="cls-22" d="M181.42,186.85a1.72,1.72,0,0,0-.45,1.57,1.74,1.74,0,0,0,1.61-.26,1.07,1.07,0,0,0,.15-1.5c-.4-.4-1.26-.15-1.27.42Z"/><path class="cls-22" d="M179.89,192a1.8,1.8,0,0,0-.11.56.1.1,0,0,0,0,.07.07.07,0,0,0,.06,0c.2,0,.4-.22.57-.12s0,.05.09.05.08-.08.07-.14a.53.53,0,0,0-.71-.38l0-.08Z"/><path class="cls-22" d="M167.35,185.14a3.49,3.49,0,0,0-.19,1.07.15.15,0,0,0,0,.13.19.19,0,0,0,.13,0c.37,0,.74-.42,1.06-.22.06,0,.11.1.18.09s.15-.15.13-.26a1,1,0,0,0-1.35-.71l.07-.15Z"/><path class="cls-22" d="M157.93,181.52a3.81,3.81,0,0,0-.19,1.06.27.27,0,0,0,0,.13.2.2,0,0,0,.13.06c.37,0,.74-.42,1.06-.22.06,0,.11.09.18.09s.15-.16.13-.27a1,1,0,0,0-1.34-.71l.07-.15Z"/><path class="cls-22" d="M177.13,194.05a.86.86,0,0,0-.23.73.94.94,0,0,0,.34-.07.3.3,0,0,0,.18-.28c0-.17-.19-.25-.34-.31l.12-.06Z"/><path class="cls-22" d="M178.14,195.68a.26.26,0,0,0,0,.21c0,.07.08.11.14.16a3.23,3.23,0,0,1,.45.38l-.07-1a.11.11,0,0,1,0-.08c0-.08.15-.08.22-.14s.07-.25,0-.37C178.45,194,178.26,195.29,178.14,195.68Z"/><path class="cls-22" d="M183.79,203.85a.34.34,0,0,0,0,.22.36.36,0,0,0,.15.15,2.67,2.67,0,0,1,.44.38l-.07-1v-.07c0-.09.15-.09.22-.15s.08-.25,0-.36C184.11,202.2,183.91,203.46,183.79,203.85Z"/><path class="cls-22" d="M172.66,198.84v.29a.45.45,0,0,0,.42-.33c0-.18-.17-.39-.34-.31s-.25.17-.3.06Z"/><path class="cls-22" d="M171.21,194.06a.41.41,0,0,1,.66.08.41.41,0,0,1-.38.55.41.41,0,0,1-.3-.6Z"/><path class="cls-22" d="M170,189.8c-.06-.21-.09-.49.1-.58s.38.09.51.26a.28.28,0,0,1,.07.24c-.08.2-.46,0-.58.16-.06,0-.07-.12,0-.13Z"/><path class="cls-22" d="M180.52,182.8a1,1,0,0,0,0,.9.51.51,0,0,0,.79.12.42.42,0,0,0,.08-.26.75.75,0,0,0,0-.16.8.8,0,0,0-.36-.5.41.41,0,0,0-.55.14Z"/><path class="cls-22" d="M177.15,176.13a.5.5,0,0,0,.27.05,1.14,1.14,0,0,0,.23-.15c.19-.11.43,0,.64-.1.37-.1.53-.52.63-.88,0-.09,0-.19,0-.25a.34.34,0,0,0-.17-.08c-.44-.1-.43-.59-.79-.77a1.19,1.19,0,0,0-1.07.1A1.25,1.25,0,0,0,177.15,176.13Z"/><path class="cls-22" d="M178.81,191.32a.5.5,0,0,1,0-.24.69.69,0,0,1,.22.55c0,.12,0,.26-.11.31a.59.59,0,0,1-.23,0c-.16,0-.34.16-.46.06a.2.2,0,0,1,0-.25.5.5,0,0,1,.21-.17l.51-.3Z"/><path class="cls-22" d="M181.89,190.76c-.1.14.12.32.27.26a.61.61,0,0,0,.3-.38.59.59,0,0,0-.65.06Z"/><path class="cls-22" d="M180.92,193a.6.6,0,0,0-.06.23.21.21,0,0,0,.13.19c.13,0,.24-.09.37-.12s.28.07.4,0a.23.23,0,0,0,0-.35.57.57,0,0,0-.37-.13.65.65,0,0,0-.34,0,.25.25,0,0,0-.15.29Z"/><path class="cls-22" d="M180.63,194.08a.13.13,0,0,1,.2,0,.23.23,0,0,1,.07.21.28.28,0,0,1,0,.13.21.21,0,0,1-.28,0,.21.21,0,0,1,.26-.33Z"/><path class="cls-22" d="M190.89,198.6a.14.14,0,0,1,.21,0,.24.24,0,0,1,.07.21.32.32,0,0,1,0,.14.2.2,0,0,1-.28,0,.21.21,0,0,1,0-.29.23.23,0,0,1,.29,0Z"/><path class="cls-22" d="M179.6,193.84a.23.23,0,0,0-.31.25.43.43,0,0,0,.25,0,.2.2,0,0,0,.16-.18c0-.08-.11-.16-.19-.11Z"/><path class="cls-22" d="M168.79,197a.24.24,0,0,0-.31.25.43.43,0,0,0,.25,0,.19.19,0,0,0,.16-.18.12.12,0,0,0-.18-.11Z"/><path class="cls-22" d="M176.08,192.63a.68.68,0,0,0-.35.46l.49,0a.58.58,0,0,0,.23,0,.27.27,0,0,0,.07-.39.35.35,0,0,0-.41-.09Z"/><path class="cls-22" d="M173.32,188.68v-.89c.14-.06.25.13.28.27a.77.77,0,0,1,0,.45c-.06.14-.24.24-.36.16Z"/><path class="cls-22" d="M173.62,184.14a.32.32,0,0,0-.16.51.47.47,0,0,0,.59,0,.36.36,0,0,0,.16-.22.33.33,0,0,0-.23-.33,1,1,0,0,0-.42,0Z"/><path class="cls-22" d="M170.23,191a.52.52,0,0,0-.42.4.62.62,0,0,0,.42.07.41.41,0,0,0,.36-.38c0-.19-.31-.31-.42-.15Z"/><path class="cls-22" d="M171.82,189.74a.3.3,0,0,1,.36-.1v.45a.35.35,0,0,1-.46-.28Z"/><path class="cls-22" d="M177.77,184.39l.67-.22a.48.48,0,0,0,.17-.1.33.33,0,0,0,.08-.19c.06-.24.08-.56-.13-.69s-.51.07-.75.21c-.44.25-1.84.19-1.82.93S177.36,184.53,177.77,184.39Z"/><path class="cls-22" d="M174,185.71l0-.18a.86.86,0,0,1,.39.13.33.33,0,0,1,.15.36c-.05.13-.26.19-.34.07a.77.77,0,0,1-.14-.39Z"/><path class="cls-22" d="M182.52,192.73a.3.3,0,0,1,.32-.08.31.31,0,0,1,.19.27c0,.08-.05.17-.13.16a.18.18,0,0,1-.09,0l-.33-.28.05,0Z"/><path class="cls-22" d="M184.68,193.43c.08.12.26.11.4.07a.45.45,0,0,1,.41,0,.12.12,0,0,1,0,.11c0,.1-.15.1-.25.13a.63.63,0,0,0-.2.13.48.48,0,0,1-.54,0,.26.26,0,0,1,0-.28.29.29,0,0,1,.29-.08Z"/><path class="cls-22" d="M184.2,194.79l0,.16a.2.2,0,0,0,.25,0,.16.16,0,0,0,0-.24.14.14,0,0,0-.22.06Z"/><path class="cls-22" d="M187.19,197.25l0,.17a.21.21,0,0,0,.25,0,.16.16,0,0,0,0-.24.15.15,0,0,0-.22.06Z"/><path class="cls-22" d="M178.41,193.66c.07-.07,0-.21-.11-.24a1.84,1.84,0,0,0-.33,0,.46.46,0,0,1-.26-.2.19.19,0,0,1,0-.18.28.28,0,0,1,.11-.08,1.09,1.09,0,0,1,.61-.13.55.55,0,0,1,.48.37.4.4,0,0,1-.12.4.39.39,0,0,1-.41.1Z"/><path class="cls-22" d="M167.18,203.18c.08-.08,0-.22-.11-.25a3.16,3.16,0,0,0-.32,0,.39.39,0,0,1-.26-.19.19.19,0,0,1,0-.19.18.18,0,0,1,.1-.07,1.25,1.25,0,0,1,.62-.14.54.54,0,0,1,.47.37.45.45,0,0,1-.11.41.43.43,0,0,1-.42.09Z"/><path class="cls-22" d="M176,195.22a.27.27,0,0,0-.07.36.4.4,0,0,0,.36.15c.06,0,.13,0,.13-.1a.15.15,0,0,0-.06-.1c-.12-.12-.23-.24-.35-.35Z"/><path class="cls-22" d="M170.4,198.73a1.36,1.36,0,0,0-1,0s-.11.06-.13.12.13.21.24.29.22.4.41.53a.81.81,0,0,0,.53.1c.27,0,.62-.11.62-.37a.47.47,0,0,0-.2-.35,2.73,2.73,0,0,0-.74-.47Z"/><path class="cls-22" d="M164.58,190c-.16-.15-.39,0-.52.19s-.17.23-.13.36.27.21.44.21h.47a.26.26,0,0,0,.19,0,.2.2,0,0,0,0-.17,2.16,2.16,0,0,0-.27-.87Z"/><path class="cls-22" d="M170.14,186c-1.22-1.43-2.76.13-2,1.57S171.19,187.24,170.14,186Z"/><path class="cls-22" d="M180.23,189.12a.43.43,0,0,1,.59.37,1.06,1.06,0,0,1-.63,0,.38.38,0,0,1-.26-.49l.34-.14Z"/><path class="cls-22" d="M186.34,189.15c0,.1,0,.2,0,.31a2.5,2.5,0,0,1,1.05.11,3.07,3.07,0,0,0,.52.14.5.5,0,0,0,.48-.18c.19-.27-.06-.65-.34-.82a1.46,1.46,0,0,0-1.22-.17,1,1,0,0,0-.68,1h.42Z"/><path class="cls-22" d="M186.67,192.16c-.14.05-.09.15.05.2a1.79,1.79,0,0,0,.48,0h1.11a1.15,1.15,0,0,0,.55-.1c.09-.08,0-.18-.15-.23a2,2,0,0,0-.51-.07,2.9,2.9,0,0,0-1.63.21l.28.11Z"/><path class="cls-22" d="M186.45,194.19a.11.11,0,0,1,.16,0,.25.25,0,0,1,.08.16.25.25,0,0,1,0,.15.2.2,0,0,1-.23.14.27.27,0,0,1-.22-.18.17.17,0,0,1,0-.14.09.09,0,0,1,.12-.05Z"/><path class="cls-22" d="M178.39,199.53a5.16,5.16,0,0,0-.79.24.22.22,0,0,0,.1.19.73.73,0,0,0,1.06-.15.2.2,0,0,0,.05-.16.19.19,0,0,0-.17-.15.51.51,0,0,0-.24,0Z"/><path class="cls-22" d="M179.91,195.33l0,.17a.39.39,0,0,0,.26,0c.08,0,.11-.17,0-.21h-.09l-.32,0Z"/><path class="cls-22" d="M173.68,194.86a1.13,1.13,0,0,0-.17.39.35.35,0,0,0,.15.36.31.31,0,0,0,.21,0,.41.41,0,0,0,.31-.48.42.42,0,0,0-.5-.28Z"/><path class="cls-22" d="M166.6,196.47a.28.28,0,0,1,.4-.28.88.88,0,0,1,.07.32.45.45,0,0,1-.36,0Z"/><path class="cls-22" d="M167,192.9c-.11,0,0,.25.13.21s.14-.2.11-.32a.26.26,0,0,0-.27.16Z"/><path class="cls-22" d="M181.64,185.47v.28a.41.41,0,0,0,.22,0,.28.28,0,0,0-.17-.34Z"/><path class="cls-22" d="M160.45,173.09v.29h.22a.26.26,0,0,0-.17-.34Z"/><path class="cls-22" d="M169.56,181.84a1,1,0,0,1,.23-.94.17.17,0,0,1,.11-.06.21.21,0,0,1,.16.08c.26.27.55.64.38,1a.47.47,0,0,1-.79,0l.1-.29Z"/><path class="cls-22" d="M189.85,174.22a1,1,0,0,1,.24-.94.23.23,0,0,1,.1-.07.28.28,0,0,1,.17.09c.26.27.54.64.38,1a.49.49,0,0,1-.8.05l.1-.29Z"/></g><g class="cls-21"><path class="cls-22" d="M154.3,143.22a6.57,6.57,0,0,0-1.77,2.37,1.21,1.21,0,0,0-.12.46.94.94,0,0,0,.51.73,1.9,1.9,0,0,0,2.12-.21,2.34,2.34,0,0,0,.79-2,1.56,1.56,0,0,0-.51-1.1.9.9,0,0,0-1.14,0,.19.19,0,0,0,.29.14Z"/><path class="cls-22" d="M164.33,137.59a1.69,1.69,0,0,0-.46,1.57,1.79,1.79,0,0,0,1.62-.26,1.08,1.08,0,0,0,.15-1.51.78.78,0,0,0-1.28.42Z"/><path class="cls-22" d="M162.79,142.75a1.8,1.8,0,0,0-.1.57.13.13,0,0,0,0,.06.09.09,0,0,0,.07,0c.2,0,.39-.22.56-.11a.19.19,0,0,0,.1,0c.06,0,.08-.09.07-.14a.53.53,0,0,0-.72-.38l0-.08Z"/><path class="cls-22" d="M85.13,81.19a4,4,0,0,0-.19,1.07.3.3,0,0,0,0,.13.15.15,0,0,0,.13,0c.37,0,.74-.42,1.06-.22.06,0,.11.1.18.1s.15-.16.13-.27a1,1,0,0,0-1.34-.71l.07-.15Z"/><path class="cls-22" d="M75.72,77.57a3.82,3.82,0,0,0-.2,1.06.18.18,0,0,0,0,.13.16.16,0,0,0,.12.06c.38,0,.75-.42,1.07-.22a.32.32,0,0,0,.17.09c.12,0,.15-.15.14-.26a1,1,0,0,0-1.35-.72l.07-.15Z"/><path class="cls-22" d="M160,144.79a.89.89,0,0,0-.23.73.85.85,0,0,0,.35-.08.29.29,0,0,0,.18-.28c0-.16-.19-.25-.34-.31l.12,0Z"/><path class="cls-22" d="M161,146.41a.42.42,0,0,0,0,.22.43.43,0,0,0,.15.15,2.67,2.67,0,0,1,.44.38c0-.32,0-.65-.07-1a.19.19,0,0,1,0-.08c0-.09.14-.09.22-.15s.07-.24,0-.36C161.36,144.76,161.17,146,161,146.41Z"/><path class="cls-22" d="M101.57,99.9a.42.42,0,0,0,0,.22.43.43,0,0,0,.15.15,3.23,3.23,0,0,1,.45.38l-.08-1a.19.19,0,0,1,0-.08c0-.09.15-.09.22-.15s.07-.24,0-.36C101.89,98.25,101.7,99.52,101.57,99.9Z"/><path class="cls-22" d="M90.45,94.89v.29a.46.46,0,0,0,.42-.33c0-.18-.17-.39-.34-.31s-.26.17-.31.07Z"/><path class="cls-22" d="M89,90.11a.39.39,0,1,1,.28.63.42.42,0,0,1-.3-.6Z"/><path class="cls-22" d="M87.8,85.85c-.06-.21-.1-.49.1-.58s.38.1.5.26.11.16.08.24-.46,0-.59.16c-.06,0-.06-.12,0-.13Z"/><path class="cls-22" d="M98.31,78.85a1,1,0,0,0,0,.9.51.51,0,0,0,.79.12.35.35,0,0,0,.08-.26.9.9,0,0,0,0-.16.86.86,0,0,0-.37-.5.41.41,0,0,0-.55.14Z"/><path class="cls-22" d="M145.86,138.6a.52.52,0,0,0,.27.05,1.2,1.2,0,0,0,.24-.15c.19-.11.43,0,.64-.1.36-.1.52-.52.63-.88,0-.09,0-.19,0-.25a.34.34,0,0,0-.17-.08c-.45-.1-.44-.59-.79-.77a1.21,1.21,0,0,0-1.08.1A1.25,1.25,0,0,0,145.86,138.6Z"/><path class="cls-22" d="M161.72,142.05a.37.37,0,0,1,0-.23.64.64,0,0,1,.23.55c0,.11,0,.25-.11.3a1,1,0,0,1-.24,0c-.16,0-.34.16-.46,0a.21.21,0,0,1,0-.25.71.71,0,0,1,.21-.17l.51-.29Z"/><path class="cls-22" d="M164.79,141.5c-.09.13.12.31.28.26a.62.62,0,0,0,.29-.39.58.58,0,0,0-.64.06Z"/><path class="cls-22" d="M163.82,143.77a.52.52,0,0,0,0,.24.21.21,0,0,0,.12.19c.13,0,.25-.1.38-.12s.28.07.4,0a.23.23,0,0,0,0-.34.63.63,0,0,0-.37-.14.69.69,0,0,0-.35,0,.28.28,0,0,0-.15.29Z"/><path class="cls-22" d="M163.53,144.81a.17.17,0,0,1,.21,0,.28.28,0,0,1,.07.22.22.22,0,0,1,0,.13.19.19,0,0,1-.28,0,.2.2,0,0,1,0-.28.21.21,0,0,1,.28-.05Z"/><path class="cls-22" d="M173.8,149.34a.15.15,0,0,1,.21,0,.34.34,0,0,1,.07.22.33.33,0,0,1,0,.13.2.2,0,0,1-.28,0,.2.2,0,0,1,0-.28.23.23,0,0,1,.28,0Z"/><path class="cls-22" d="M162.51,144.58a.23.23,0,0,0-.32.24.39.39,0,0,0,.26,0,.19.19,0,0,0,.15-.18.13.13,0,0,0-.18-.12Z"/><path class="cls-22" d="M86.58,93.06a.23.23,0,0,0-.31.25.36.36,0,0,0,.25,0,.18.18,0,0,0,.15-.18c0-.08-.11-.16-.18-.11Z"/><path class="cls-22" d="M93.86,88.68a.64.64,0,0,0-.34.46l.49,0a.55.55,0,0,0,.22,0,.26.26,0,0,0,.07-.39.35.35,0,0,0-.41-.09Z"/><path class="cls-22" d="M91.1,84.73c0-.3,0-.59,0-.89.13-.06.24.13.28.28a.73.73,0,0,1,0,.44c-.05.14-.23.25-.36.16Z"/><path class="cls-22" d="M91.4,80.2a.31.31,0,0,0-.16.5.47.47,0,0,0,.59,0,.32.32,0,0,0,.16-.22.33.33,0,0,0-.22-.33,1,1,0,0,0-.43,0Z"/><path class="cls-22" d="M88,87.1a.5.5,0,0,0-.41.39.67.67,0,0,0,.42.08c.18,0,.37-.2.35-.39s-.31-.31-.41-.15Z"/><path class="cls-22" d="M89.61,85.79a.29.29,0,0,1,.36-.1v.45a.34.34,0,0,1-.46-.28Z"/><path class="cls-22" d="M95.55,80.45l.67-.23a.46.46,0,0,0,.18-.1.4.4,0,0,0,.07-.19c.06-.24.09-.56-.13-.69s-.51.07-.74.21c-.45.25-1.84.19-1.82.93S95.15,80.59,95.55,80.45Z"/><path class="cls-22" d="M91.8,81.76l0-.18a1.12,1.12,0,0,1,.39.13.33.33,0,0,1,.14.36c0,.13-.25.19-.33.07a.67.67,0,0,1-.15-.38Z"/><path class="cls-22" d="M165.43,143.46a.3.3,0,0,1,.31-.07.29.29,0,0,1,.19.26c0,.08-.05.18-.12.17a.26.26,0,0,1-.09,0l-.34-.28.06-.05Z"/><path class="cls-22" d="M167.58,144.17c.08.12.26.1.4.07s.31-.08.41,0a.12.12,0,0,1,.05.1c0,.1-.16.1-.25.13a1.48,1.48,0,0,0-.21.13.48.48,0,0,1-.54,0,.28.28,0,0,1,.05-.29.27.27,0,0,1,.28-.07Z"/><path class="cls-22" d="M167.11,145.52l0,.17a.21.21,0,0,0,.25,0,.17.17,0,0,0,0-.24.14.14,0,0,0-.22.06Z"/><path class="cls-22" d="M170.1,148l0,.16a.2.2,0,0,0,.25,0,.17.17,0,0,0,0-.24.14.14,0,0,0-.22.06Z"/><path class="cls-22" d="M161.31,144.4c.08-.08,0-.22-.11-.25a3.16,3.16,0,0,0-.32,0,.36.36,0,0,1-.26-.19.19.19,0,0,1,0-.19.26.26,0,0,1,.1-.07,1.25,1.25,0,0,1,.62-.14.56.56,0,0,1,.47.37.44.44,0,0,1-.11.41.45.45,0,0,1-.42.1Z"/><path class="cls-22" d="M85,99.23c.07-.08,0-.22-.11-.25s-.22,0-.33,0a.41.41,0,0,1-.26-.19.21.21,0,0,1,0-.19.41.41,0,0,1,.11-.07,1.19,1.19,0,0,1,.61-.14.58.58,0,0,1,.48.37.42.42,0,0,1-.53.51Z"/><path class="cls-22" d="M93.77,91.28a.25.25,0,0,0-.06.35.39.39,0,0,0,.35.15c.06,0,.13,0,.13-.1a.19.19,0,0,0,0-.1l-.36-.35Z"/><path class="cls-22" d="M88.19,94.78a1.34,1.34,0,0,0-1,0s-.11,0-.12.11.13.21.23.29.23.4.41.53a.83.83,0,0,0,.54.1c.26,0,.61-.11.62-.37a.48.48,0,0,0-.21-.35,2.51,2.51,0,0,0-.73-.46Z"/><path class="cls-22" d="M82.36,86c-.15-.15-.39,0-.52.2s-.17.23-.13.35.27.21.45.21h.46c.07,0,.15,0,.19,0a.25.25,0,0,0,0-.17,2.23,2.23,0,0,0-.28-.87Z"/><path class="cls-22" d="M87.92,82.05c-1.21-1.43-2.75.14-2,1.57S89,83.3,87.92,82.05Z"/><path class="cls-22" d="M163.13,139.85a.44.44,0,0,1,.59.37,1.11,1.11,0,0,1-.62.06.39.39,0,0,1-.27-.5l.35-.13Z"/><path class="cls-22" d="M119.63,74.15v.31a2.48,2.48,0,0,1,1,.11,2.51,2.51,0,0,0,.52.14.52.52,0,0,0,.48-.17c.2-.28,0-.65-.34-.83a1.45,1.45,0,0,0-1.21-.17,1,1,0,0,0-.69,1h.42Z"/><path class="cls-22" d="M169.57,142.9c-.13,0-.08.15.06.19a1.42,1.42,0,0,0,.47,0h1.11a1,1,0,0,0,.56-.1c.08-.07,0-.17-.15-.22a2,2,0,0,0-.51-.08,2.9,2.9,0,0,0-1.63.21l.28.12Z"/><path class="cls-22" d="M169.35,144.92a.12.12,0,0,1,.17,0,.33.33,0,0,1,.07.17.38.38,0,0,1,0,.15.23.23,0,0,1-.24.14.26.26,0,0,1-.21-.19.14.14,0,0,1,0-.14.1.1,0,0,1,.12,0Z"/><path class="cls-22" d="M188,143.4a1.71,1.71,0,0,0-.45,1.57,1.77,1.77,0,0,0,1.61-.26,1.07,1.07,0,0,0,.15-1.51.77.77,0,0,0-1.27.43Z"/><path class="cls-22" d="M188.48,147.31c-.1.14.12.31.27.26a.61.61,0,0,0,.3-.38.59.59,0,0,0-.65.05Z"/><path class="cls-22" d="M197.48,155.15a.15.15,0,0,1,.21,0,.26.26,0,0,1,.07.22.28.28,0,0,1,0,.13.2.2,0,0,1-.28,0,.2.2,0,0,1,0-.28.24.24,0,0,1,.29,0Z"/><path class="cls-22" d="M189.11,149.27a.31.31,0,0,1,.32-.07.31.31,0,0,1,.19.26c0,.08-.05.18-.13.17l-.08,0-.34-.27.05-.06Z"/><path class="cls-22" d="M191.27,150c.08.12.26.1.4.07s.3-.08.41,0a.1.1,0,0,1,0,.1c0,.1-.15.1-.25.13a2.26,2.26,0,0,0-.2.13.48.48,0,0,1-.54,0,.27.27,0,0,1,.33-.36Z"/><path class="cls-22" d="M190.79,151.34l0,.16a.2.2,0,0,0,.25,0,.16.16,0,0,0,0-.24.15.15,0,0,0-.22.07Z"/><path class="cls-22" d="M193.79,153.8l0,.16a.2.2,0,0,0,.25,0,.16.16,0,0,0,0-.24.14.14,0,0,0-.22.06Z"/><path class="cls-22" d="M193.26,148.71c-.13,0-.08.15.05.19a1.48,1.48,0,0,0,.48,0h1.11a1,1,0,0,0,.55-.1c.09-.07,0-.17-.15-.22a2,2,0,0,0-.51-.08,2.9,2.9,0,0,0-1.63.21l.28.12Z"/><path class="cls-22" d="M193,150.74c0-.06.12-.05.16,0a.25.25,0,0,1,.08.16.26.26,0,0,1,0,.15.21.21,0,0,1-.23.14.27.27,0,0,1-.22-.18.2.2,0,0,1,0-.15.1.1,0,0,1,.12,0Z"/><path class="cls-22" d="M286.7,208.44a1.7,1.7,0,0,0-.46,1.57,1.76,1.76,0,0,0,1.61-.26,1.06,1.06,0,0,0,.15-1.51.77.77,0,0,0-1.27.43Z"/><path class="cls-22" d="M287.16,212.35c-.09.14.12.32.27.26a.61.61,0,0,0,.3-.38.57.57,0,0,0-.64.05Z"/><path class="cls-22" d="M296.17,220.19a.15.15,0,0,1,.21,0,.25.25,0,0,1,.06.21.28.28,0,0,1,0,.13.21.21,0,0,1-.28.05.21.21,0,0,1,.26-.33Z"/><path class="cls-22" d="M287.79,214.31a.31.31,0,0,1,.32-.07.29.29,0,0,1,.19.27c0,.07-.05.17-.13.16s-.06,0-.08,0l-.34-.27.06,0Z"/><path class="cls-22" d="M290,215c.08.12.26.1.4.07s.3-.08.41,0a.11.11,0,0,1,0,.1c0,.1-.15.1-.25.14a1.06,1.06,0,0,0-.2.12.48.48,0,0,1-.54,0,.28.28,0,0,1,.05-.29.29.29,0,0,1,.28-.07Z"/><path class="cls-22" d="M289.48,216.38l0,.16a.21.21,0,0,0,.25,0,.19.19,0,0,0,0-.25.16.16,0,0,0-.23.07Z"/><path class="cls-22" d="M292.47,218.84l0,.16a.2.2,0,0,0,.25,0,.16.16,0,0,0,0-.24.14.14,0,0,0-.22.06Z"/><path class="cls-22" d="M291.94,213.75c-.13,0-.08.15.05.19a1.51,1.51,0,0,0,.48.05h1.11a1,1,0,0,0,.55-.1c.09-.07,0-.17-.14-.22a2.72,2.72,0,0,0-.51-.08,2.87,2.87,0,0,0-1.63.21l.27.12Z"/><path class="cls-22" d="M291.72,215.78c0-.06.12-.05.16,0a.25.25,0,0,1,.08.16.38.38,0,0,1,0,.15.21.21,0,0,1-.24.14.29.29,0,0,1-.22-.18.22.22,0,0,1,0-.14.11.11,0,0,1,.13-.06Z"/><path class="cls-22" d="M161.29,150.27a3.78,3.78,0,0,0-.79.24.3.3,0,0,0,.1.19.75.75,0,0,0,1.07-.15.26.26,0,0,0,.05-.17.21.21,0,0,0-.18-.14.58.58,0,0,0-.23,0Z"/><path class="cls-22" d="M162.82,146.06l0,.17a.34.34,0,0,0,.26,0c.08,0,.11-.18,0-.21a.12.12,0,0,0-.1,0l-.32,0Z"/><path class="cls-22" d="M240.83,192.3a6.57,6.57,0,0,0-1.77,2.37,1.21,1.21,0,0,0-.12.46.94.94,0,0,0,.51.73,1.9,1.9,0,0,0,2.12-.2,2.37,2.37,0,0,0,.8-2,1.64,1.64,0,0,0-.52-1.1.89.89,0,0,0-1.14,0,.19.19,0,0,0,.29.13Z"/><path class="cls-22" d="M250.86,186.67a1.7,1.7,0,0,0-.46,1.57A1.78,1.78,0,0,0,252,188a1.08,1.08,0,0,0,.15-1.51.78.78,0,0,0-1.28.43Z"/><path class="cls-22" d="M249.32,191.83a2.2,2.2,0,0,0-.1.57.17.17,0,0,0,0,.07s0,0,.07,0c.2,0,.39-.23.56-.12a.19.19,0,0,0,.1.05c.06,0,.08-.08.07-.14a.53.53,0,0,0-.72-.38l0-.08Z"/><path class="cls-22" d="M246.56,193.87a.85.85,0,0,0-.22.73,1,1,0,0,0,.34-.07.32.32,0,0,0,.18-.29c0-.16-.19-.25-.34-.31l.12-.05Z"/><path class="cls-22" d="M247.57,195.49a.42.42,0,0,0,0,.22.36.36,0,0,0,.15.15,4.11,4.11,0,0,1,.45.38c0-.32-.05-.65-.08-1a.19.19,0,0,1,0-.08c0-.09.15-.09.22-.14a.31.31,0,0,0,0-.37C247.89,193.84,247.7,195.11,247.57,195.49Z"/><path class="cls-22" d="M232.39,187.68a.44.44,0,0,0,.27,0,.87.87,0,0,0,.24-.15c.19-.1.43,0,.64-.1.36-.1.52-.52.63-.88,0-.08,0-.19,0-.25a.26.26,0,0,0-.17-.07c-.45-.11-.44-.6-.79-.78a1.16,1.16,0,1,0-.8,2.18Z"/><path class="cls-22" d="M248.25,191.14a.4.4,0,0,1,0-.24.65.65,0,0,1,.23.55c0,.12,0,.26-.11.3s-.16,0-.24,0-.33.16-.46.05a.19.19,0,0,1,0-.24.5.5,0,0,1,.21-.17l.51-.3Z"/><path class="cls-22" d="M251.32,190.58c-.09.14.12.32.28.26a.63.63,0,0,0,.29-.38.58.58,0,0,0-.64,0Z"/><path class="cls-22" d="M250.35,192.86a.46.46,0,0,0,0,.23.2.2,0,0,0,.13.19c.12,0,.24-.1.37-.12s.28.07.4,0,.1-.25,0-.34a.56.56,0,0,0-.37-.13.69.69,0,0,0-.35,0,.26.26,0,0,0-.14.29Z"/><path class="cls-22" d="M250.06,193.9a.15.15,0,0,1,.21,0,.29.29,0,0,1,.07.22.2.2,0,0,1,0,.13.19.19,0,0,1-.28,0,.2.2,0,0,1,0-.28.24.24,0,0,1,.29,0Z"/><path class="cls-22" d="M260.33,198.42a.15.15,0,0,1,.21,0,.26.26,0,0,1,.07.21.2.2,0,0,1,0,.13.2.2,0,0,1-.28,0,.22.22,0,0,1,0-.29.21.21,0,0,1,.28,0Z"/><path class="cls-22" d="M249,193.66a.23.23,0,0,0-.31.25.42.42,0,0,0,.25,0,.19.19,0,0,0,.15-.18.13.13,0,0,0-.18-.12Z"/><path class="cls-22" d="M252,192.54a.3.3,0,0,1,.31-.07.29.29,0,0,1,.19.27c0,.07,0,.17-.12.16a.26.26,0,0,1-.09-.05l-.34-.27.06-.05Z"/><path class="cls-22" d="M254.11,193.25c.09.12.26.1.4.07s.31-.08.41,0a.14.14,0,0,1,.05.1c0,.1-.16.1-.25.14a.88.88,0,0,0-.21.12.48.48,0,0,1-.54,0,.28.28,0,0,1,.05-.29.29.29,0,0,1,.28-.07Z"/><path class="cls-22" d="M253.64,194.61l0,.16a.21.21,0,0,0,.25,0,.18.18,0,0,0,0-.25.15.15,0,0,0-.22.07Z"/><path class="cls-22" d="M256.63,197.07l0,.16a.2.2,0,0,0,.25,0,.16.16,0,0,0,0-.24.14.14,0,0,0-.22.06Z"/><path class="cls-22" d="M247.85,193.48c.07-.08,0-.21-.12-.25s-.21,0-.32,0a.36.36,0,0,1-.26-.19.17.17,0,0,1,0-.18.2.2,0,0,1,.1-.08,1.14,1.14,0,0,1,.62-.13.53.53,0,0,1,.47.36.41.41,0,0,1-.11.41.44.44,0,0,1-.41.1Z"/><path class="cls-22" d="M249.66,188.93a.44.44,0,0,1,.59.37,1.11,1.11,0,0,1-.62.06c-.2-.07-.37-.31-.27-.49l.35-.14Z"/><path class="cls-22" d="M256.1,192c-.13,0-.08.15.06.19a1.42,1.42,0,0,0,.47.05h1.11a1,1,0,0,0,.56-.1c.08-.07,0-.17-.15-.22a2.59,2.59,0,0,0-.51-.08A2.9,2.9,0,0,0,256,192l.28.12Z"/><path class="cls-22" d="M255.88,194a.12.12,0,0,1,.17,0,.24.24,0,0,1,.07.16.26.26,0,0,1,0,.15.22.22,0,0,1-.24.14.26.26,0,0,1-.21-.18.16.16,0,0,1,0-.15.1.1,0,0,1,.12-.05Z"/><path class="cls-22" d="M247.82,199.35a3.78,3.78,0,0,0-.79.24.27.27,0,0,0,.11.19.74.74,0,0,0,1.06-.15.26.26,0,0,0,.05-.17.21.21,0,0,0-.18-.14.58.58,0,0,0-.23,0Z"/><path class="cls-22" d="M249.35,195.14l0,.17a.34.34,0,0,0,.26,0c.08,0,.11-.17,0-.21s-.06,0-.1,0l-.32,0Z"/><path class="cls-22" d="M91.46,90.91a1.13,1.13,0,0,0-.17.39.34.34,0,0,0,.16.36.28.28,0,0,0,.2,0,.39.39,0,1,0-.18-.76Z"/><path class="cls-22" d="M84.38,92.52a.29.29,0,0,1,.4-.28.89.89,0,0,1,.08.32.48.48,0,0,1-.37,0Z"/><path class="cls-22" d="M84.77,89c-.12,0,0,.25.12.21s.15-.2.12-.32a.28.28,0,0,0-.28.17Z"/><path class="cls-22" d="M99.43,81.52v.29h.22a.26.26,0,0,0-.17-.34Z"/><path class="cls-22" d="M78.24,69.14v.29a.41.41,0,0,0,.22,0,.28.28,0,0,0-.18-.34Z"/><path class="cls-22" d="M87.34,77.89a1,1,0,0,1,.24-.94.21.21,0,0,1,.1-.06c.07,0,.12,0,.17.09.26.26.54.64.38,1a.48.48,0,0,1-.8.06l.1-.3Z"/><path class="cls-22" d="M133.76,150.83a1,1,0,0,1,.24-.94.17.17,0,0,1,.1-.06.19.19,0,0,1,.16.09c.26.26.55.64.38,1a.47.47,0,0,1-.79.06l.1-.3Z"/><path class="cls-22" d="M35.68,212a6.39,6.39,0,0,0-1.76,2.36,1,1,0,0,0-.12.46.92.92,0,0,0,.5.74,1.92,1.92,0,0,0,2.12-.21,2.36,2.36,0,0,0,.8-2,1.57,1.57,0,0,0-.52-1.1.9.9,0,0,0-1.14,0,.2.2,0,0,0,.3.14Z"/><path class="cls-22" d="M45.71,206.37a1.65,1.65,0,0,0-.45,1.57,1.77,1.77,0,0,0,1.61-.26,1.08,1.08,0,0,0,.15-1.51c-.4-.4-1.26-.14-1.27.42Z"/><path class="cls-22" d="M44.18,211.53a1.8,1.8,0,0,0-.11.56.08.08,0,0,0,0,.07.07.07,0,0,0,.06,0c.2,0,.4-.22.57-.11s.05,0,.09,0,.08-.08.07-.14a.52.52,0,0,0-.71-.37l0-.08Z"/><path class="cls-22" d="M41.42,213.57a.86.86,0,0,0-.23.73.77.77,0,0,0,.34-.08.29.29,0,0,0,.18-.28c0-.16-.19-.25-.34-.31l.12,0Z"/><path class="cls-22" d="M42.43,215.19a.28.28,0,0,0,0,.22.33.33,0,0,0,.14.15,3.23,3.23,0,0,1,.45.38l-.08-1a.17.17,0,0,1,0-.07c0-.09.15-.09.22-.15s.07-.24,0-.36C42.74,213.54,42.55,214.8,42.43,215.19Z"/><path class="cls-22" d="M27.25,207.38a.49.49,0,0,0,.27.05,1.14,1.14,0,0,0,.23-.15c.19-.11.43,0,.64-.1.37-.1.52-.52.63-.88a.29.29,0,0,0,0-.26.44.44,0,0,0-.17-.07c-.44-.1-.43-.59-.79-.77a1.22,1.22,0,0,0-1.08.1A1.25,1.25,0,0,0,27.25,207.38Z"/><path class="cls-22" d="M43.1,210.83a.46.46,0,0,1,0-.23.66.66,0,0,1,.22.55c0,.11,0,.25-.11.3s-.16,0-.24,0-.33.15-.45,0a.2.2,0,0,1,0-.25.71.71,0,0,1,.21-.17l.51-.29Z"/><path class="cls-22" d="M46.18,210.28c-.1.13.11.31.27.25s.24-.22.3-.38a.59.59,0,0,0-.65.06Z"/><path class="cls-22" d="M45.21,212.55a.71.71,0,0,0-.06.24.22.22,0,0,0,.13.19c.13,0,.24-.1.37-.12s.28.07.4,0a.23.23,0,0,0,0-.34.58.58,0,0,0-.37-.14.65.65,0,0,0-.34,0,.25.25,0,0,0-.15.29Z"/><path class="cls-22" d="M44.91,213.59a.14.14,0,0,1,.21,0,.25.25,0,0,1,.07.22.31.31,0,0,1,0,.13.2.2,0,0,1-.28,0,.22.22,0,0,1,0-.29.23.23,0,0,1,.29,0Z"/><path class="cls-22" d="M55.18,218.11a.17.17,0,0,1,.21,0,.29.29,0,0,1,.07.22.22.22,0,0,1,0,.13.18.18,0,0,1-.27,0,.2.2,0,0,1,0-.28.23.23,0,0,1,.29,0Z"/><path class="cls-22" d="M43.89,213.35a.23.23,0,0,0-.31.25.37.37,0,0,0,.25,0,.21.21,0,0,0,.16-.19.14.14,0,0,0-.19-.11Z"/><path class="cls-22" d="M46.81,212.24a.31.31,0,0,1,.32-.07.32.32,0,0,1,.19.26c0,.08,0,.18-.13.17l-.09,0-.33-.28,0-.05Z"/><path class="cls-22" d="M49,213c.08.12.26.1.39.06s.31-.07.42,0a.12.12,0,0,1,0,.1c0,.1-.15.1-.25.13a1,1,0,0,0-.2.13.48.48,0,0,1-.54,0,.26.26,0,0,1,0-.29.26.26,0,0,1,.29-.07Z"/><path class="cls-22" d="M48.49,214.3l0,.16a.2.2,0,0,0,.25,0,.16.16,0,0,0,0-.24.15.15,0,0,0-.22.06Z"/><path class="cls-22" d="M51.48,216.77l0,.16a.21.21,0,0,0,.25,0,.17.17,0,0,0,0-.25.15.15,0,0,0-.22.07Z"/><path class="cls-22" d="M42.7,213.18c.07-.08,0-.22-.11-.25s-.22,0-.33,0a.38.38,0,0,1-.26-.19.21.21,0,0,1,0-.19.26.26,0,0,1,.11-.07,1.19,1.19,0,0,1,.61-.14.57.57,0,0,1,.48.37.42.42,0,0,1-.53.51Z"/><path class="cls-22" d="M44.51,208.63a.45.45,0,0,1,.6.37,1.06,1.06,0,0,1-.63.05.38.38,0,0,1-.26-.49l.34-.13Z"/><path class="cls-22" d="M51,211.67c-.14.05-.09.16,0,.2a1.23,1.23,0,0,0,.48,0H52.6a1.08,1.08,0,0,0,.55-.1c.09-.08,0-.17-.15-.22a2,2,0,0,0-.51-.08,2.9,2.9,0,0,0-1.63.21l.28.11Z"/><path class="cls-22" d="M50.74,213.7a.11.11,0,0,1,.16,0,.27.27,0,0,1,.08.17.38.38,0,0,1,0,.15.23.23,0,0,1-.23.14.28.28,0,0,1-.22-.19.17.17,0,0,1,0-.14.1.1,0,0,1,.12,0Z"/><path class="cls-22" d="M69.4,212.18a1.69,1.69,0,0,0-.46,1.57,1.79,1.79,0,0,0,1.62-.26,1.08,1.08,0,0,0,.15-1.51c-.41-.4-1.27-.14-1.28.43Z"/><path class="cls-22" d="M69.86,216.09c-.09.14.12.31.28.26a.62.62,0,0,0,.29-.39.58.58,0,0,0-.64.06Z"/><path class="cls-22" d="M78.87,223.93a.15.15,0,0,1,.21,0,.34.34,0,0,1,.07.22.5.5,0,0,1,0,.13.2.2,0,0,1-.28,0,.21.21,0,0,1,0-.28.24.24,0,0,1,.29,0Z"/><path class="cls-22" d="M70.49,218.05a.31.31,0,0,1,.32-.07.29.29,0,0,1,.19.26c0,.08,0,.18-.12.17a.19.19,0,0,1-.09,0l-.34-.28.06-.05Z"/><path class="cls-22" d="M72.65,218.76c.08.12.26.1.4.07s.31-.08.41,0a.12.12,0,0,1,.05.1c0,.1-.16.1-.25.13a1.48,1.48,0,0,0-.21.13.48.48,0,0,1-.54,0,.28.28,0,0,1,0-.29.26.26,0,0,1,.28-.07Z"/><path class="cls-22" d="M72.18,220.11l0,.17a.23.23,0,0,0,.26,0,.17.17,0,0,0,0-.24.14.14,0,0,0-.22.06Z"/><path class="cls-22" d="M75.17,222.58l0,.16a.2.2,0,0,0,.25,0,.17.17,0,0,0,0-.24.14.14,0,0,0-.22.06Z"/><path class="cls-22" d="M74.64,217.49c-.13,0-.08.15,0,.19a1.51,1.51,0,0,0,.48,0h1.11a1,1,0,0,0,.56-.1c.08-.07,0-.17-.15-.22a2,2,0,0,0-.51-.08,2.87,2.87,0,0,0-1.63.21l.28.12Z"/><path class="cls-22" d="M74.42,219.52a.12.12,0,0,1,.17,0,.33.33,0,0,1,.07.17.38.38,0,0,1,0,.15.23.23,0,0,1-.24.14.28.28,0,0,1-.22-.19.22.22,0,0,1,0-.14.11.11,0,0,1,.13,0Z"/><path class="cls-22" d="M42.68,219.05a3.61,3.61,0,0,0-.79.24.23.23,0,0,0,.1.19.74.74,0,0,0,1.06-.15.22.22,0,0,0,.05-.17.18.18,0,0,0-.17-.14.5.5,0,0,0-.24,0Z"/><path class="cls-22" d="M44.2,214.84l0,.17a.39.39,0,0,0,.26,0c.08,0,.1-.18,0-.22a.17.17,0,0,0-.1,0l-.31,0Z"/><path class="cls-22" d="M15.14,219.61a1,1,0,0,1,.24-.94.15.15,0,0,1,.1-.06c.07,0,.12,0,.17.08.26.27.54.65.38,1a.49.49,0,0,1-.8.06l.1-.3Z"/><path class="cls-22" d="M54.39,130.39a6.68,6.68,0,0,0-3-.06,1.3,1.3,0,0,0-.44.17,1,1,0,0,0-.31.84,1.93,1.93,0,0,0,1.4,1.61,2.36,2.36,0,0,0,2.12-.54,1.62,1.62,0,0,0,.6-1,.9.9,0,0,0-.65-.94.18.18,0,0,0,.06.31Z"/><path class="cls-22" d="M64.8,135.29a1.67,1.67,0,0,0-1.54.54A1.8,1.8,0,0,0,64.41,137a1.06,1.06,0,0,0,1.31-.75c.1-.56-.61-1.12-1.08-.8Z"/><path class="cls-22" d="M59.71,137a2.08,2.08,0,0,0-.52.25.12.12,0,0,0,0,.05.1.1,0,0,0,0,.07c.1.17.41.19.42.39,0,0,0,.08,0,.11s.12,0,.16,0a.52.52,0,0,0-.11-.8h.09Z"/><path class="cls-22" d="M56.45,136a.89.89,0,0,0-.73.23,1,1,0,0,0,.26.24.32.32,0,0,0,.34,0c.12-.11.09-.3,0-.46l.11.07Z"/><path class="cls-22" d="M55.72,137.74a.3.3,0,0,0-.19.11.36.36,0,0,0,0,.21,3.79,3.79,0,0,1-.05.58l.75-.63.06,0c.09,0,.16.07.25.1s.24-.09.3-.2C57.24,137,56.1,137.61,55.72,137.74Z"/><path class="cls-22" d="M53.25,120.84a.45.45,0,0,0,.12.25,1.12,1.12,0,0,0,.25.11c.2.09.29.33.46.46a1.12,1.12,0,0,0,1.08,0c.08,0,.18-.07.2-.16a.31.31,0,0,0,0-.18c-.17-.42.23-.7.18-1.09a1.27,1.27,0,0,0-.71-.82A1.24,1.24,0,0,0,53.25,120.84Z"/><path class="cls-22" d="M59.65,135.76a.45.45,0,0,1,.21-.12.66.66,0,0,1-.32.5c-.09.07-.21.15-.31.09s-.09-.13-.14-.19-.32-.18-.31-.34a.2.2,0,0,1,.19-.16.77.77,0,0,1,.26.07l.54.25Z"/><path class="cls-22" d="M61.89,137.94c-.16,0-.18.27,0,.37a.64.64,0,0,0,.49,0,.58.58,0,0,0-.42-.49Z"/><path class="cls-22" d="M59.48,138.47a.65.65,0,0,0-.23.09.22.22,0,0,0-.08.21c0,.13.22.15.32.24s.11.27.23.32.26-.06.28-.19a.77.77,0,0,0-.34-.63.26.26,0,0,0-.32,0Z"/><path class="cls-22" d="M58.46,138.84c.08,0,.13.09.12.17a.25.25,0,0,1-.14.18.21.21,0,0,1-.13.05.2.2,0,1,1,0-.39.23.23,0,0,1,.21.21Z"/><path class="cls-22" d="M60.75,149.82a.15.15,0,0,1,.12.17.33.33,0,0,1-.14.19.28.28,0,0,1-.13,0,.19.19,0,0,1-.19-.2.21.21,0,0,1,.21-.19.24.24,0,0,1,.21.21Z"/><path class="cls-22" d="M58.06,137.86a.23.23,0,0,0-.38-.11.4.4,0,0,0,.12.23.2.2,0,0,0,.23,0,.14.14,0,0,0,0-.22Z"/><path class="cls-22" d="M60.66,139.59a.31.31,0,0,1,.25.22.31.31,0,0,1-.11.31c-.06,0-.17.06-.2,0a.18.18,0,0,1,0-.1l0-.44.08,0Z"/><path class="cls-22" d="M61.34,141.76c-.05.13.07.27.18.36s.24.21.22.35a.13.13,0,0,1-.06.1c-.09,0-.17-.07-.25-.13a1,1,0,0,0-.22-.09.49.49,0,0,1-.29-.46.27.27,0,0,1,.26-.13.27.27,0,0,1,.22.19Z"/><path class="cls-22" d="M60,142.16l-.15.07a.2.2,0,0,0,.15.2.17.17,0,0,0,.2-.14.15.15,0,0,0-.18-.14Z"/><path class="cls-22" d="M59.7,146l-.15.06a.19.19,0,0,0,.14.2.17.17,0,0,0,.2-.13.15.15,0,0,0-.18-.15Z"/><path class="cls-22" d="M57.51,136.79c.11,0,.17-.13.14-.23a1.89,1.89,0,0,0-.17-.28.42.42,0,0,1,0-.33.17.17,0,0,1,.14-.11.16.16,0,0,1,.13,0,1.1,1.1,0,0,1,.46.42.53.53,0,0,1,0,.6.42.42,0,0,1-.72-.14Z"/><path class="cls-22" d="M62.27,135.63a.44.44,0,0,1,0,.69,1.06,1.06,0,0,1-.41-.48.39.39,0,0,1,.25-.5l.31.21Z"/><path class="cls-22" d="M63.53,142.64c-.11-.08-.17,0-.13.15a1.86,1.86,0,0,0,.25.42l.65.9c.12.17.27.36.4.39s.14-.1.09-.25a2,2,0,0,0-.23-.46c-.31-.5-.75-1.09-1.12-1.2l.07.29Z"/><path class="cls-22" d="M61.76,143.64c.06,0,.1.06.1.12a.28.28,0,0,1-.09.16.38.38,0,0,1-.13.09.23.23,0,0,1-.25-.12.28.28,0,0,1,0-.28.21.21,0,0,1,.11-.08s.11,0,.11.07Z"/><path class="cls-22" d="M73.84,157.94a1.69,1.69,0,0,0-1.54.54,1.78,1.78,0,0,0,1.15,1.16,1.06,1.06,0,0,0,1.31-.75c.09-.56-.61-1.11-1.08-.79Z"/><path class="cls-22" d="M70.93,160.59c-.17,0-.19.28-.05.37a.61.61,0,0,0,.48,0,.58.58,0,0,0-.42-.49Z"/><path class="cls-22" d="M69.79,172.47a.16.16,0,0,1,.11.18.29.29,0,0,1-.13.18.33.33,0,0,1-.13,0,.19.19,0,0,1-.2-.2.21.21,0,0,1,.42,0Z"/><path class="cls-22" d="M69.7,162.24a.29.29,0,0,1,.24.22.3.3,0,0,1-.1.31c-.06,0-.17.06-.21,0a.34.34,0,0,1,0-.1l0-.43h0Z"/><path class="cls-22" d="M70.38,164.41c0,.13.07.27.18.36s.23.21.22.35a.17.17,0,0,1-.06.1c-.09,0-.17-.07-.25-.13a.92.92,0,0,0-.23-.09.5.5,0,0,1-.28-.46.27.27,0,0,1,.26-.13.27.27,0,0,1,.22.19Z"/><path class="cls-22" d="M69,164.81l-.15.07a.2.2,0,0,0,.15.2.16.16,0,0,0,.19-.14.14.14,0,0,0-.17-.14Z"/><path class="cls-22" d="M68.73,168.68l-.15.06a.21.21,0,0,0,.15.21.17.17,0,0,0,.2-.14.15.15,0,0,0-.18-.15Z"/><path class="cls-22" d="M72.57,165.29c-.11-.08-.17,0-.13.16a1.75,1.75,0,0,0,.24.41l.65.9c.13.17.28.36.41.39s.13-.1.09-.25a2.46,2.46,0,0,0-.23-.46c-.32-.5-.75-1.09-1.12-1.2l.07.29Z"/><path class="cls-22" d="M70.79,166.29a.12.12,0,0,1,.11.13.29.29,0,0,1-.09.15.38.38,0,0,1-.13.09.23.23,0,0,1-.25-.11.3.3,0,0,1,0-.29.2.2,0,0,1,.12-.08.09.09,0,0,1,.11.07Z"/><path class="cls-22" d="M52.72,140.18a4.49,4.49,0,0,0-.65-.5.27.27,0,0,0-.1.19.74.74,0,0,0,.74.78.21.21,0,0,0,.17-.06.19.19,0,0,0,0-.22.52.52,0,0,0-.16-.17Z"/><path class="cls-22" d="M57,139l-.15.08a.46.46,0,0,0,.14.22c.08,0,.21,0,.19-.11s0-.06-.05-.08l-.21-.24Z"/><path class="cls-22" d="M36.26,118.11a1,1,0,0,1,.9-.36.22.22,0,0,1,.11,0,.19.19,0,0,1,0,.18c-.07.37-.21.82-.58.88a.48.48,0,0,1-.5-.62l.3-.09Z"/><path class="cls-22" d="M54.47,60.08a6.49,6.49,0,0,0-1.61-2.48,1.3,1.3,0,0,0-.39-.27,1,1,0,0,0-.86.22,1.91,1.91,0,0,0-.54,2.07,2.36,2.36,0,0,0,1.63,1.44,1.58,1.58,0,0,0,1.21-.1.9.9,0,0,0,.41-1.07.19.19,0,0,0-.23.23Z"/><path class="cls-22" d="M56.3,71.43a1.68,1.68,0,0,0-1.31-1,1.78,1.78,0,0,0-.31,1.61,1.07,1.07,0,0,0,1.36.66c.51-.24.57-1.14,0-1.34Z"/><path class="cls-22" d="M52,68.21a1.92,1.92,0,0,0-.5-.29.08.08,0,0,0-.07,0l-.05,0c-.08.18.08.45-.08.57s-.07,0-.08.07,0,.11.11.12a.53.53,0,0,0,.6-.54l.06.06Z"/><path class="cls-22" d="M51,64.92a.83.83,0,0,0-.6-.46.83.83,0,0,0-.05.35.3.3,0,0,0,.2.26c.16,0,.3-.09.41-.22V65Z"/><path class="cls-22" d="M49.15,65.31a.28.28,0,0,0-.19-.09.39.39,0,0,0-.2.08,3.2,3.2,0,0,1-.51.29l.94.27a.09.09,0,0,1,.07,0c.08,0,0,.17.06.25a.3.3,0,0,0,.34.14C50.6,66.18,49.47,65.56,49.15,65.31Z"/><path class="cls-22" d="M61.71,53.75a.41.41,0,0,0-.13.23,1.37,1.37,0,0,0,.05.28c0,.21-.11.41-.13.63,0,.38.31.67.62.89a.26.26,0,0,0,.24.08.44.44,0,0,0,.13-.14c.25-.38.7-.21,1-.47a1.22,1.22,0,0,0,.27-1A1.24,1.24,0,0,0,61.71,53.75Z"/><path class="cls-22" d="M53,67.45a.32.32,0,0,1,.21.1.67.67,0,0,1-.59,0c-.11,0-.24-.09-.25-.21s.06-.15.08-.22,0-.37.11-.45a.21.21,0,0,1,.24.07.57.57,0,0,1,.08.26c0,.19.07.38.1.58Z"/><path class="cls-22" d="M52.47,70.52c-.09-.13-.33,0-.33.17a.6.6,0,0,0,.25.41.57.57,0,0,0,.17-.62Z"/><path class="cls-22" d="M50.67,68.83a.44.44,0,0,0-.2-.13.2.2,0,0,0-.22,0c-.08.11,0,.26,0,.39s-.16.24-.14.37a.23.23,0,0,0,.32.13.53.53,0,0,0,.25-.3.67.67,0,0,0,.09-.34.26.26,0,0,0-.22-.23Z"/><path class="cls-22" d="M49.8,68.2a.16.16,0,0,1-.08.19.31.31,0,0,1-.23,0,.28.28,0,0,1-.11-.08.19.19,0,1,1,.33-.2.22.22,0,0,1-.05.28Z"/><path class="cls-22" d="M50.37,67.32a.23.23,0,0,0-.12-.38.4.4,0,0,0-.12.22.19.19,0,0,0,.12.21.13.13,0,0,0,.17-.13Z"/><path class="cls-22" d="M50.42,70.44a.29.29,0,0,1-.05.32.28.28,0,0,1-.31.09c-.08,0-.15-.1-.11-.17a.16.16,0,0,1,.07-.07l.38-.22,0,.07Z"/><path class="cls-22" d="M49,72.22c-.14,0-.19.21-.2.35s0,.32-.16.38a.13.13,0,0,1-.12,0c-.09,0,0-.18,0-.28a1.05,1.05,0,0,0-.06-.24.5.5,0,0,1,.22-.49.27.27,0,0,1,.26.14.3.3,0,0,1,0,.29Z"/><path class="cls-22" d="M47.9,71.31l-.14-.09a.21.21,0,0,0-.09.24.17.17,0,0,0,.23.08.14.14,0,0,0,0-.22Z"/><path class="cls-22" d="M51,66.26c0,.09.2.06.27,0s.08-.2.14-.29a.36.36,0,0,1,.27-.18.2.2,0,0,1,.18,0,.27.27,0,0,1,0,.12,1.21,1.21,0,0,1-.08.63.56.56,0,0,1-.51.32.46.46,0,0,1-.35-.25.45.45,0,0,1,.06-.42Z"/><path class="cls-22" d="M54.59,69.53A.45.45,0,0,1,54,70a1.14,1.14,0,0,1,.17-.61.37.37,0,0,1,.55-.08c0,.13,0,.25,0,.37Z"/><path class="cls-22" d="M49.52,74.53c0-.14-.12-.13-.2,0a1.44,1.44,0,0,0-.21.43l-.38,1a1,1,0,0,0-.09.55c0,.11.16.06.25-.06a1.94,1.94,0,0,0,.25-.45,2.92,2.92,0,0,0,.37-1.6l-.21.22Z"/><path class="cls-22" d="M47.69,73.62a.11.11,0,0,1,0,.16.28.28,0,0,1-.18,0,.35.35,0,0,1-.14-.06.21.21,0,0,1,0-.27.29.29,0,0,1,.25-.14.15.15,0,0,1,.13,0,.09.09,0,0,1,0,.13Z"/><path class="cls-22" d="M45.45,64.22a3.82,3.82,0,0,0,0-.83.27.27,0,0,0-.21,0,.74.74,0,0,0-.23,1,.27.27,0,0,0,.15.11.22.22,0,0,0,.19-.12.59.59,0,0,0,0-.23Z"/><path class="cls-22" d="M48.87,67.1,48.72,67a.37.37,0,0,0-.1.24c0,.09.13.16.19.1a.12.12,0,0,0,0-.09l.08-.32Z"/><path class="cls-22" d="M54.39,38.17a1,1,0,0,1,.8.55.17.17,0,0,1,0,.12c0,.06-.08.09-.14.12-.34.15-.79.29-1,0a.49.49,0,0,1,.23-.77l.24.2Z"/></g><path class="cls-23" d="M307.88,201.84c-.2-4.13.13-8.49-2.37-12a31.06,31.06,0,0,0-8.68-8.23c-3.77-2.43-9.29-1.7-13.69-1.48s-8.71,1.29-13.11,1.66c-.12,0-.22,0-.33,0a.87.87,0,0,1,0,.53,3.34,3.34,0,0,0-.14.52s0,.06,0,.09v0a1.94,1.94,0,0,1,0,.24c0,.37,0,.73,0,1.1,0,.83-.09,1.65-.16,2.47a1,1,0,0,1-.63.94,1.07,1.07,0,0,1-1.13-.21c.19.14,0,0,0,0l-.13-.07-.1,0c-.21-.06-.4-.13-.61-.17l-.26,0-.3,0a2.18,2.18,0,0,1-2-.95,5.06,5.06,0,0,1-1.9-.37c0,.49,0,1,0,1.46a28.07,28.07,0,0,0,48.73,19A5.07,5.07,0,0,1,307.88,201.84Z"/><path class="cls-24" d="M253.34,181.21a56.93,56.93,0,0,0-3-5.19c-.5-.84-1.09-2.81-1.78-3.48-1.16-1.13-5.08-1.7-6.66-2.23-1.93-.65-3.86-1.29-5.82-1.85-3.94-1.12-7.88-2.17-11.78-3.43-2.06-.67-2.23-1.28-3.6-.4-1.11.72-1.95,2.35-3,3.24a5,5,0,0,1-5.6.73c0,.4,0,.8,0,1.21a22.71,22.71,0,0,0,41.8,12.3A5.89,5.89,0,0,1,253.34,181.21Z"/><path class="cls-25" d="M90.37,9.22C84,7,72.57-1.37,66.06,3.26c-5.64,4-11.13,12.07-12.2,18.88-.85,5.46-.15,11.33-4.18,15.37a36.35,36.35,0,0,0,65.21-14.67C107.3,17.3,99.28,12.35,90.37,9.22Z"/><polygon class="cls-6" points="30.08 104.57 40.32 108.77 46.1 122.05 42.5 106.87 33 103.07 30.08 104.57"/><polygon class="cls-6" points="14.85 140.44 20.5 153.5 19.5 157.56 13.83 153.5 9 170.48 0 177.13 0 150.48 10.02 145.41 14.85 140.44"/><path class="cls-6" d="M34.5,178.22s16.42-6,22.15-5.87c13.1.38,21.49,4.77,21.49,4.77l-19.33,8.65Z"/><polygon class="cls-6" points="46.32 51.45 48.27 58.97 41.05 57.12 46.32 51.45"/><polygon class="cls-12" points="34.5 178.22 27.25 189.09 26.22 186.28 16.75 205.79 9 170.48 0 177.13 0 242.09 50.65 241.86 51.4 229.75 50.65 226.88 50.65 216.22 48.5 199.81 58.81 185.77 34.5 178.22"/><polygon class="cls-15" points="57.31 185.3 53.84 192.54 60.75 187.54 61.04 184.77 66.92 182.14 65.25 181.87 59.33 184.82 57.31 185.3"/><polygon class="cls-20" points="48.5 199.81 72.47 213.92 68.67 239.16 50.65 241.86 51.4 229.75 50.65 226.88 50.65 216.22 48.5 199.81"/><polygon class="cls-12" points="20.5 153.5 35.5 119.36 30.08 124.45 30.08 119.37 30.08 104.57 14.85 140.44 20.5 153.5"/><polygon class="cls-12" points="13.83 153.5 21.5 173.04 19.5 157.56 13.83 153.5"/><polygon class="cls-12" points="41.05 57.12 42.8 66.99 41.85 85.59 33 103.07 41.05 57.12"/><polygon class="cls-15" points="17.67 156.19 19.84 156.19 19.94 160.94 19.5 157.56 17.67 156.19"/><polygon class="cls-15" points="7.65 171.48 9.56 173.04 9.95 167.14 8.8 168.83 7.65 169.89 8.13 170.48 7.65 171.48"/><path class="cls-26" d="M73.69,177.78s-.8.32-2.07.79a103.57,103.57,0,0,1-12.43,3.93c-3.44.72-10.6-.89-15.32-2.14-2.67-.71-4.56-1.3-4.56-1.3s4.84-3.38,16.42-4.44S73.69,177.78,73.69,177.78Z"/><path class="cls-11" d="M71.63,178.56h0a103.57,103.57,0,0,1-12.43,3.93c-3.44.72-10.6-.89-15.32-2.14h0s4.7-3,15-3.22S71.63,178.56,71.63,178.56Z"/><polygon class="cls-17" points="68.39 104.45 58.81 110.97 68.39 106.2 68.39 104.45"/><polygon class="cls-17" points="21.5 124.77 31.59 128.26 37.17 151.6 39.31 151.13 45.32 167.14 39.31 152.31 36.63 152.62 31.02 129.56 21.5 124.77"/><polygon class="cls-12" points="52.6 215.62 57.89 221.06 55.25 221.06 52.6 215.62"/><polygon class="cls-14" points="52.6 215.62 53.43 221.06 57.89 221.06 54.72 219.62 52.6 215.62"/><polygon class="cls-12" points="34.41 171.46 39.88 166.21 39.86 168.85 34.41 171.46"/><polygon class="cls-14" points="34.41 171.46 39.85 170.66 39.88 166.21 38.42 169.37 34.41 171.46"/><polygon class="cls-12" points="47.13 111.17 54.18 113.95 51.77 115.04 47.13 111.17"/><polygon class="cls-14" points="47.13 111.17 50.11 115.78 54.18 113.95 50.7 113.94 47.13 111.17"/><circle class="cls-27" cx="55.49" cy="179.89" r="22.71"/></g></g></g></svg>