<svg xmlns="http://www.w3.org/2000/svg" xmlns:xlink="http://www.w3.org/1999/xlink" viewBox="0 0 203.63 133.06"><defs><style>.cls-1{isolation:isolate;}.cls-2{fill:url(#Áåçûìÿííûé_ãðàäèåíò_262);}.cls-3{fill:#570048;opacity:0.3;mix-blend-mode:multiply;}.cls-4{fill:url(#Áåçûìÿííûé_ãðàäèåíò_262-2);}.cls-5,.cls-6,.cls-9{fill:#dfdfa1;mix-blend-mode:soft-light;}.cls-5{opacity:0.2;}.cls-6{opacity:0.51;}.cls-7{fill:#680b23;}.cls-8{fill:#01afdc;}.cls-9{opacity:0.16;}.cls-10{fill:url(#Áåçûìÿííûé_ãðàäèåíò_262-3);}.cls-11{fill:#c6685f;}.cls-12{fill:#65152e;}.cls-13{fill:#c64f59;}.cls-14,.cls-15{opacity:0.61;mix-blend-mode:screen;}.cls-14{fill:url(#Áåçûìÿííûé_ãðàäèåíò_163);}.cls-15{fill:url(#Áåçûìÿííûé_ãðàäèåíò_163-2);}</style><linearGradient id="Áåçûìÿííûé_ãðàäèåíò_262" x1="101.81" y1="133.06" x2="101.81" y2="116.31" gradientUnits="userSpaceOnUse"><stop offset="0" stop-color="#91151e"/><stop offset="1" stop-color="#a12622"/></linearGradient><linearGradient id="Áåçûìÿííûé_ãðàäèåíò_262-2" x1="49.08" y1="128.13" x2="49.08" y2="0" xlink:href="#Áåçûìÿííûé_ãðàäèåíò_262"/><linearGradient id="Áåçûìÿííûé_ãðàäèåíò_262-3" x1="84.58" y1="129.76" x2="84.58" y2="99.65" xlink:href="#Áåçûìÿííûé_ãðàäèåíò_262"/><radialGradient id="Áåçûìÿííûé_ãðàäèåíò_163" cx="85.23" cy="108.01" r="22.16" gradientUnits="userSpaceOnUse"><stop offset="0" stop-color="#005eff"/><stop offset="0.12" stop-color="#004dd1"/><stop offset="0.3" stop-color="#003692"/><stop offset="0.48" stop-color="#00235e"/><stop offset="0.64" stop-color="#001435"/><stop offset="0.78" stop-color="#000918"/><stop offset="0.91" stop-color="#000206"/><stop offset="1"/></radialGradient><radialGradient id="Áåçûìÿííûé_ãðàäèåíò_163-2" cx="48.76" cy="72.22" r="22.16" xlink:href="#Áåçûìÿííûé_ãðàäèåíò_163"/></defs><g class="cls-1"><g id="Layer_2" data-name="Layer 2"><g id="space"><polygon class="cls-2" points="101.03 123.27 104.61 123.27 111.75 125.89 123 127.76 136.67 125.51 203.63 128.13 69.32 133.06 10.5 129.76 12.42 127.76 0 125.75 16.3 116.31 23.74 118.8 101.03 123.27"/><polygon class="cls-3" points="75.45 129.76 64.08 130.31 69.32 133.06 10.5 129.76 12.42 127.76 12.42 127.76 0 125.75 20.65 122.07 35.07 127.87 66.96 127.11 75.45 129.76"/><path class="cls-4" d="M85.74,126.22s-45.26,2.25-49.38,1.87-15.71-6-15.71-6l-8.23-78.9L16.53,40V13.57l.11-.16C17.32,12.46,21.24,7,27,0l5.61,10.63.88.22a127.2,127.2,0,0,1,21.63,8l.68.34L62,55.93l.9,1.12,3,22,2.63.42Z"/><polygon class="cls-3" points="16.53 13.57 16.53 39.99 28.15 48.2 29.91 48.45 25.56 24.63 23.22 17.31 16.53 13.57"/><polygon class="cls-3" points="12.42 43.17 16.53 48.74 18.96 49.71 17.98 51.67 22.05 52.94 25.56 103.58 26.68 104.28 26.68 109.23 29.91 111.66 35.07 127.87 20.65 122.07 12.42 43.17"/><polygon class="cls-3" points="43.65 74.1 43.65 78.81 46.74 82.96 51.42 127.76 49.08 125.89 41.13 91.94 39.16 90.53 37.34 59.53 40.01 67.53 43.65 74.1"/><path class="cls-5" d="M55.13,18.8H44.07l-8.72-3.24-3.67,1.75H23.23l-6.7-3.74.11-.16L27,0l5.61,10.63.88.22A127.2,127.2,0,0,1,55.13,18.8Z"/><polygon class="cls-6" points="16.53 39.99 12.42 43.17 16.53 48.74 18.96 49.71 17.98 51.67 22.05 52.94 41.27 51.67 28.15 48.2 16.53 39.99"/><path class="cls-6" d="M43.65,74.1s3.7,2.83,5.43,2.83,10.29-1.44,11.55-2.83-7.53-7.46-11.55-10-11.74-4.54-11.74-4.54l1.51,4.54L40,67.53Z"/><polygon class="cls-3" points="35.35 15.55 35.83 28.16 36.64 28.16 39.16 41.9 39.91 22.26 41.27 23.1 44.07 18.8 35.35 15.55"/><polygon class="cls-6" points="65.91 79.04 64.6 82.4 61.61 86.23 65.82 85.02 68.53 79.46 65.91 79.04"/><path class="cls-7" d="M39.71,62.06s2.4,6.46,3.66,9.61,4.07,3.92,6.39,4.14,8-.76,8.76-2.43S46.71,61.71,39.71,62.06Z"/><path class="cls-8" d="M41.62,67.14s5,1.32,7.46,3.1a25,25,0,0,1,4.75,5.24s-5.21,1.12-8.14-.93S41.62,67.14,41.62,67.14Z"/><path class="cls-9" d="M60.63,74.1l2.28,27.8-1.14,4.77-.16,12.62-10.19,6.46L46.74,83l-3.09-4.15V74.1s4.12,2.69,5.43,2.83S57.82,76.47,60.63,74.1Z"/><polygon class="cls-9" points="29.91 111.66 44.07 104.5 49.08 125.89 35.07 125.89 29.91 111.66"/><polygon class="cls-9" points="65.82 85.02 75.17 109.23 76.28 107.93 78.44 112.51 81.68 115.19 68.53 79.46 65.82 85.02"/><path class="cls-10" d="M67,127.11V99.93s19.06-2.77,28.23,9.3l2.24,7.4,2.06.75,2.71,10.38s-22.39,2.34-25.92,2S67,127.11,67,127.11Z"/><path class="cls-7" d="M93.51,110.46A3.44,3.44,0,0,1,92,111.6a14.89,14.89,0,0,1-10.33.82c-3.13-.84-7.06-3.6-9.88-6.16h0c-2.78-2.52-4.48-4.84-3.26-5C86.12,99.51,94,109.42,93.51,110.46Z"/><path class="cls-8" d="M92,111.6a14.89,14.89,0,0,1-10.33.82c-3.13-.84-7.06-3.6-9.88-6.16h0s8.61-.37,13.94,1.77A25.08,25.08,0,0,1,92,111.6Z"/><path class="cls-3" d="M67,99.93v27.18l8.49,2.65V124.3l-1.12-.47-.58-9.12-1.1-3L70,106.22S68.14,105.59,67,99.93Z"/><polygon class="cls-6" points="99.49 117.38 92.01 120.98 83.81 120.98 91.57 119.18 97.43 116.63 99.49 117.38"/><polygon class="cls-11" points="20.18 52.36 22.21 55.26 23.22 52.86 20.18 52.36"/><polygon class="cls-11" points="43.25 73.38 43.65 75.83 44.07 74.61 43.25 73.38"/><polygon class="cls-11" points="64.08 85.52 66.46 86.67 65.82 85.02 64.08 85.52"/><polygon class="cls-12" points="93.53 122.24 86.39 124.3 92.01 124.3 93.53 122.24"/><polygon class="cls-12" points="52.54 101.94 54.5 105.13 52.54 103.11 52.54 101.94"/><polygon class="cls-12" points="33.13 86.23 31.45 91.52 33.13 88.88 33.13 86.23"/><polygon class="cls-13" points="86.39 124.3 91.65 123.78 93.53 122.24 92.01 124.3 86.39 124.3"/><polygon class="cls-13" points="52.54 101.94 53.08 103.37 54.5 105.13 52.54 103.33 52.54 101.94"/><polygon class="cls-13" points="33.13 86.23 33.13 88.88 31.45 91.52 33.65 89.27 33.13 86.23"/><polygon class="cls-9" points="44.07 18.8 41.27 23.1 39.16 41.9 54.71 52.71 56.69 52.71 61.9 55.26 55.81 19.14 44.07 18.8"/><polygon class="cls-12" points="61.61 52.94 60.75 54.7 56.69 52.71 54.55 52.36 40.99 43.17 54.55 52.94 56.65 53.36 62.01 55.93 61.61 52.94"/><polygon class="cls-13" points="54.55 52.94 56.7 53.76 60.75 56.26 62.91 57.05 62.01 55.93 56.65 53.36 54.55 52.94"/><polygon class="cls-12" points="18.96 49.71 31.57 52.31 31.45 58.27 29.91 58.9 25.7 77.77 30.26 59.22 32.12 58.55 31.89 52.94 32.47 52.25 18.96 49.71"/><polygon class="cls-9" points="23.22 52.86 22.21 55.26 23.95 80.34 25.71 78.61 29.91 58.9 31.45 58.27 31.57 52.31 23.22 52.86"/><polygon class="cls-13" points="32.12 58.55 31.68 59.23 30.65 59.53 29.83 60.95 30.26 59.22 32.12 58.55"/><path class="cls-14" d="M99.6,121.53c-1.29-6.18-5.25-13.38-10.4-17-3.39-2.38-6.93-2.79-10.49-4.32a.85.85,0,0,1-.17.06,3,3,0,0,1-.94.07,3.88,3.88,0,0,1-.58-.09,3.33,3.33,0,0,1-.52-.21l-.21-.12a3.54,3.54,0,0,1-.42-.35,2.89,2.89,0,0,1-.57-1,2.68,2.68,0,0,1-.07-.27,4.48,4.48,0,0,1-.06-.63.49.49,0,0,1,0-.12c-1-1.53-1.27-3.38-2.2-5.49a5,5,0,0,1-.38-1.4,5.58,5.58,0,0,1-.3-.66,22.15,22.15,0,1,0,28.45,33.78A4.48,4.48,0,0,1,99.6,121.53Z"/><circle class="cls-15" cx="48.76" cy="72.22" r="22.16"/></g></g></g></svg>