<svg xmlns="http://www.w3.org/2000/svg" xmlns:xlink="http://www.w3.org/1999/xlink" viewBox="0 0 142.46 140.6"><defs><style>.cls-1{isolation:isolate;}.cls-10,.cls-11,.cls-12,.cls-13,.cls-14,.cls-15,.cls-16,.cls-17,.cls-18,.cls-19,.cls-2,.cls-20,.cls-21,.cls-22,.cls-23,.cls-24,.cls-25,.cls-26,.cls-27,.cls-28,.cls-29,.cls-3,.cls-30,.cls-31,.cls-32,.cls-33,.cls-34,.cls-35,.cls-36,.cls-37,.cls-38,.cls-39,.cls-4,.cls-40,.cls-41,.cls-42,.cls-43,.cls-44,.cls-45,.cls-46,.cls-47,.cls-48,.cls-49,.cls-5,.cls-50,.cls-51,.cls-52,.cls-53,.cls-54,.cls-55,.cls-56,.cls-57,.cls-58,.cls-59,.cls-6,.cls-60,.cls-61,.cls-62,.cls-63,.cls-64,.cls-65,.cls-66,.cls-67,.cls-68,.cls-7,.cls-71,.cls-72,.cls-73,.cls-74,.cls-75,.cls-76,.cls-77,.cls-78,.cls-79,.cls-8,.cls-80,.cls-81,.cls-82,.cls-83,.cls-84,.cls-85,.cls-86,.cls-87,.cls-88,.cls-89,.cls-9,.cls-90,.cls-91,.cls-92{fill-rule:evenodd;}.cls-2{fill:url(#Áåçûìÿííûé_ãðàäèåíò_85);}.cls-3{fill:url(#Áåçûìÿííûé_ãðàäèåíò_85-2);}.cls-4{fill:url(#Áåçûìÿííûé_ãðàäèåíò_52);}.cls-5{fill:url(#Áåçûìÿííûé_ãðàäèåíò_85-3);}.cls-6{fill:url(#linear-gradient);}.cls-7{fill:url(#linear-gradient-2);}.cls-8{fill:url(#linear-gradient-3);}.cls-9{fill:url(#Áåçûìÿííûé_ãðàäèåíò_52-2);}.cls-10{fill:url(#linear-gradient-4);}.cls-11{fill:url(#radial-gradient);}.cls-12{mix-blend-mode:screen;fill:url(#radial-gradient-2);}.cls-13{fill:#7d72b3;opacity:0.3;}.cls-13,.cls-14,.cls-17,.cls-22,.cls-25,.cls-29,.cls-30,.cls-40,.cls-41,.cls-44,.cls-47,.cls-53,.cls-54,.cls-61,.cls-69,.cls-70,.cls-71,.cls-80,.cls-89,.cls-90{mix-blend-mode:multiply;}.cls-14,.cls-17,.cls-22,.cls-25,.cls-29,.cls-30,.cls-41,.cls-44,.cls-47,.cls-61,.cls-69,.cls-70,.cls-71{opacity:0.71;}.cls-14{fill:url(#Áåçûìÿííûé_ãðàäèåíò_141);}.cls-15{fill:url(#linear-gradient-5);}.cls-16{fill:url(#Áåçûìÿííûé_ãðàäèåíò_52-3);}.cls-17{fill:url(#linear-gradient-6);}.cls-18{fill:url(#linear-gradient-7);}.cls-19{fill:url(#linear-gradient-8);}.cls-20{fill:url(#linear-gradient-9);}.cls-21{fill:url(#Áåçûìÿííûé_ãðàäèåíò_52-4);}.cls-22{fill:url(#Áåçûìÿííûé_ãðàäèåíò_141-2);}.cls-23{fill:url(#linear-gradient-10);}.cls-24{fill:url(#Áåçûìÿííûé_ãðàäèåíò_52-5);}.cls-25{fill:url(#Áåçûìÿííûé_ãðàäèåíò_141-3);}.cls-26{fill:url(#linear-gradient-11);}.cls-27{fill:url(#linear-gradient-12);}.cls-28{fill:url(#Áåçûìÿííûé_ãðàäèåíò_52-6);}.cls-29{fill:url(#Áåçûìÿííûé_ãðàäèåíò_141-4);}.cls-30{fill:url(#Áåçûìÿííûé_ãðàäèåíò_141-5);}.cls-31{fill:url(#Áåçûìÿííûé_ãðàäèåíò_23);}.cls-32{fill:url(#linear-gradient-13);}.cls-33{fill:url(#linear-gradient-14);}.cls-34{fill:url(#Áåçûìÿííûé_ãðàäèåíò_52-7);}.cls-35{fill:url(#Áåçûìÿííûé_ãðàäèåíò_100);}.cls-36{fill:url(#Áåçûìÿííûé_ãðàäèåíò_52-8);}.cls-37{fill:url(#radial-gradient-3);}.cls-38{fill:url(#Áåçûìÿííûé_ãðàäèåíò_100-2);}.cls-39{fill:url(#Áåçûìÿííûé_ãðàäèåíò_100-3);}.cls-40,.cls-53,.cls-54,.cls-80,.cls-89,.cls-90{opacity:0.5;}.cls-40{fill:url(#Áåçûìÿííûé_ãðàäèåíò_141-6);}.cls-41{fill:url(#Áåçûìÿííûé_ãðàäèåíò_141-7);}.cls-42{fill:url(#linear-gradient-15);}.cls-43{fill:url(#Áåçûìÿííûé_ãðàäèåíò_52-9);}.cls-44{fill:url(#Áåçûìÿííûé_ãðàäèåíò_141-8);}.cls-45{fill:url(#linear-gradient-16);}.cls-46{fill:url(#Áåçûìÿííûé_ãðàäèåíò_52-10);}.cls-47{fill:url(#linear-gradient-17);}.cls-48{fill:url(#linear-gradient-18);}.cls-49{fill:url(#radial-gradient-4);}.cls-50{fill:url(#Áåçûìÿííûé_ãðàäèåíò_52-11);}.cls-51{fill:url(#Áåçûìÿííûé_ãðàäèåíò_52-12);}.cls-52{fill:url(#Áåçûìÿííûé_ãðàäèåíò_100-4);}.cls-53{fill:#a67c4c;}.cls-54{fill:url(#Áåçûìÿííûé_ãðàäèåíò_141-9);}.cls-55{fill:url(#Áåçûìÿííûé_ãðàäèåíò_52-13);}.cls-56{fill:url(#radial-gradient-5);}.cls-57{fill:url(#Áåçûìÿííûé_ãðàäèåíò_100-5);}.cls-58{fill:url(#Áåçûìÿííûé_ãðàäèåíò_52-14);}.cls-59{fill:#ff7c25;}.cls-60{fill:url(#radial-gradient-6);}.cls-61{fill:url(#linear-gradient-19);}.cls-62{fill:url(#linear-gradient-20);}.cls-63{fill:url(#Áåçûìÿííûé_ãðàäèåíò_52-15);}.cls-64{fill:url(#radial-gradient-7);}.cls-65{fill:url(#Áåçûìÿííûé_ãðàäèåíò_100-6);}.cls-66{fill:url(#Áåçûìÿííûé_ãðàäèåíò_100-7);}.cls-67{fill:url(#Áåçûìÿííûé_ãðàäèåíò_52-16);}.cls-68{fill:url(#linear-gradient-21);}.cls-69{fill:url(#Áåçûìÿííûé_ãðàäèåíò_141-10);}.cls-70{fill:url(#Áåçûìÿííûé_ãðàäèåíò_141-11);}.cls-71{fill:url(#Áåçûìÿííûé_ãðàäèåíò_141-12);}.cls-72{fill:url(#radial-gradient-8);}.cls-73{fill:url(#Áåçûìÿííûé_ãðàäèåíò_153);}.cls-74{fill:url(#linear-gradient-22);}.cls-75{fill:url(#Áåçûìÿííûé_ãðàäèåíò_100-8);}.cls-76{fill:url(#Áåçûìÿííûé_ãðàäèåíò_52-17);}.cls-77{fill:url(#Áåçûìÿííûé_ãðàäèåíò_52-18);}.cls-78{fill:url(#Áåçûìÿííûé_ãðàäèåíò_100-9);}.cls-79{fill:url(#Áåçûìÿííûé_ãðàäèåíò_52-19);}.cls-80{fill:url(#Áåçûìÿííûé_ãðàäèåíò_141-13);}.cls-81{fill:url(#Áåçûìÿííûé_ãðàäèåíò_52-20);}.cls-82{fill:url(#Áåçûìÿííûé_ãðàäèåíò_52-21);}.cls-83{fill:url(#Áåçûìÿííûé_ãðàäèåíò_52-22);}.cls-84{fill:url(#Áåçûìÿííûé_ãðàäèåíò_100-10);}.cls-85{fill:url(#radial-gradient-9);}.cls-86{fill:url(#Áåçûìÿííûé_ãðàäèåíò_85-4);}.cls-87{fill:url(#Áåçûìÿííûé_ãðàäèåíò_23-2);}.cls-88{fill:url(#Áåçûìÿííûé_ãðàäèåíò_52-23);}.cls-89{fill:url(#Áåçûìÿííûé_ãðàäèåíò_141-14);}.cls-90{fill:url(#Áåçûìÿííûé_ãðàäèåíò_141-15);}.cls-91{fill:url(#Áåçûìÿííûé_ãðàäèåíò_100-11);}.cls-92{fill:url(#Áåçûìÿííûé_ãðàäèåíò_100-12);}</style><linearGradient id="Áåçûìÿííûé_ãðàäèåíò_85" x1="83.18" y1="135.09" x2="84.4" y2="148.77" gradientUnits="userSpaceOnUse"><stop offset="0" stop-color="#5b006f"/><stop offset="0.02" stop-color="#5c0270"/><stop offset="0.23" stop-color="#6a1a7c"/><stop offset="0.46" stop-color="#732c84"/><stop offset="0.7" stop-color="#793689"/><stop offset="0.99" stop-color="#7b398b"/></linearGradient><linearGradient id="Áåçûìÿííûé_ãðàäèåíò_85-2" x1="440.9" y1="-796.7" x2="442.12" y2="-783.02" gradientTransform="matrix(0.5, 0.27, -0.27, 0.5, -387.99, 405.78)" xlink:href="#Áåçûìÿííûé_ãðàäèåíò_85"/><linearGradient id="Áåçûìÿííûé_ãðàäèåíò_52" x1="18.29" y1="86.54" x2="4.78" y2="58.38" gradientUnits="userSpaceOnUse"><stop offset="0" stop-color="#860057"/><stop offset="0.03" stop-color="#8c0757"/><stop offset="0.19" stop-color="#aa2456"/><stop offset="0.36" stop-color="#c13c55"/><stop offset="0.54" stop-color="#d14c54"/><stop offset="0.74" stop-color="#db5654"/><stop offset="0.99" stop-color="#de5954"/></linearGradient><linearGradient id="Áåçûìÿííûé_ãðàäèåíò_85-3" x1="133.39" y1="95.93" x2="142.18" y2="107.17" xlink:href="#Áåçûìÿííûé_ãðàäèåíò_85"/><linearGradient id="linear-gradient" x1="105.44" y1="6.61" x2="109.43" y2="24.27" gradientUnits="userSpaceOnUse"><stop offset="0" stop-color="#af4e71"/><stop offset="0.13" stop-color="#a8496f"/><stop offset="0.32" stop-color="#953b69"/><stop offset="0.54" stop-color="#76245f"/><stop offset="0.59" stop-color="#6e1e5c"/><stop offset="1" stop-color="#4c0057"/></linearGradient><linearGradient id="linear-gradient-2" x1="123.25" y1="19.3" x2="134.33" y2="50.08" gradientUnits="userSpaceOnUse"><stop offset="0.01" stop-color="#9d4863"/><stop offset="0.18" stop-color="#964262"/><stop offset="0.43" stop-color="#83315f"/><stop offset="0.64" stop-color="#6e1e5c"/><stop offset="1" stop-color="#4c0057"/></linearGradient><linearGradient id="linear-gradient-3" x1="85.7" y1="2.9" x2="89.6" y2="17.55" xlink:href="#linear-gradient"/><linearGradient id="Áåçûìÿííûé_ãðàäèåíò_52-2" x1="35.31" y1="31.89" x2="21.74" y2="17.64" xlink:href="#Áåçûìÿííûé_ãðàäèåíò_52"/><linearGradient id="linear-gradient-4" x1="25.14" y1="9.98" x2="51.03" y2="25.77" gradientUnits="userSpaceOnUse"><stop offset="0" stop-color="#af4e71"/><stop offset="0.18" stop-color="#a8496f"/><stop offset="0.43" stop-color="#953b69"/><stop offset="0.72" stop-color="#76245f"/><stop offset="0.79" stop-color="#6e1e5c"/><stop offset="1" stop-color="#4c0057"/></linearGradient><radialGradient id="radial-gradient" cx="-3665.36" cy="-860.79" r="540.74" gradientTransform="translate(768.4 214.18) scale(0.2)" gradientUnits="userSpaceOnUse"><stop offset="0.01" stop-color="#9d4863"/><stop offset="0.22" stop-color="#9a4563"/><stop offset="0.39" stop-color="#903d61"/><stop offset="0.54" stop-color="#802e5f"/><stop offset="0.68" stop-color="#68195b"/><stop offset="0.81" stop-color="#4c0057"/><stop offset="0.98" stop-color="#4c0086"/></radialGradient><radialGradient id="radial-gradient-2" cx="81.23" cy="-119.69" r="311.75" gradientTransform="translate(27.61 81.65) scale(0.34)" gradientUnits="userSpaceOnUse"><stop offset="0" stop-color="#dc5754"/><stop offset="0.05" stop-color="#c24d4a"/><stop offset="0.12" stop-color="#9f3f3c"/><stop offset="0.22" stop-color="#752e2d"/><stop offset="0.32" stop-color="#51201f"/><stop offset="0.43" stop-color="#331414"/><stop offset="0.55" stop-color="#1d0b0b"/><stop offset="0.67" stop-color="#0c0505"/><stop offset="0.81" stop-color="#030101"/><stop offset="1"/></radialGradient><linearGradient id="Áåçûìÿííûé_ãðàäèåíò_141" x1="112.81" y1="146.26" x2="80.82" y2="97.66" gradientTransform="translate(-6.07 -40.21) rotate(-2.86)" gradientUnits="userSpaceOnUse"><stop offset="0" stop-color="#ca528d"/><stop offset="1" stop-color="#8e7090"/></linearGradient><linearGradient id="linear-gradient-5" x1="67.15" y1="76.52" x2="112.45" y2="151.18" gradientTransform="translate(-6.07 -40.21) rotate(-2.86)" gradientUnits="userSpaceOnUse"><stop offset="0.08" stop-color="#af4e71"/><stop offset="0.24" stop-color="#a8496f"/><stop offset="0.47" stop-color="#953b69"/><stop offset="0.73" stop-color="#76245f"/><stop offset="0.79" stop-color="#6e1e5c"/><stop offset="1" stop-color="#4c0057"/></linearGradient><linearGradient id="Áåçûìÿííûé_ãðàäèåíò_52-3" x1="69.88" y1="51.06" x2="108.47" y2="74.26" xlink:href="#Áåçûìÿííûé_ãðàäèåíò_52"/><linearGradient id="linear-gradient-6" x1="56.14" y1="63.53" x2="14.8" y2="32.25" gradientTransform="matrix(1, 0, 0, 1, 0, 0)" xlink:href="#Áåçûìÿííûé_ãðàäèåíò_141"/><linearGradient id="linear-gradient-7" x1="1.5" y1="28.38" x2="69.87" y2="66.41" gradientUnits="userSpaceOnUse"><stop offset="0" stop-color="#af4e71"/><stop offset="0.17" stop-color="#a8496f"/><stop offset="0.41" stop-color="#953a6a"/><stop offset="0.69" stop-color="#762162"/><stop offset="1" stop-color="#4c0057"/></linearGradient><linearGradient id="linear-gradient-8" x1="21.85" y1="39.46" x2="32.92" y2="46.19" gradientUnits="userSpaceOnUse"><stop offset="0" stop-color="#860057"/><stop offset="0.03" stop-color="#8c0757"/><stop offset="0.19" stop-color="#aa2456"/><stop offset="0.36" stop-color="#c13c55"/><stop offset="0.54" stop-color="#d14c54"/><stop offset="0.74" stop-color="#db5654"/><stop offset="1" stop-color="#de5954"/></linearGradient><linearGradient id="linear-gradient-9" x1="34.95" y1="24.85" x2="37.01" y2="41.73" xlink:href="#linear-gradient-8"/><linearGradient id="Áåçûìÿííûé_ãðàäèåíò_52-4" x1="129.38" y1="18.06" x2="120.09" y2="-2.14" xlink:href="#Áåçûìÿííûé_ãðàäèåíò_52"/><linearGradient id="Áåçûìÿííûé_ãðàäèåíò_141-2" x1="130.75" y1="64.99" x2="116.96" y2="30.47" gradientTransform="matrix(1, 0, 0, 1, 0, 0)" xlink:href="#Áåçûìÿííûé_ãðàäèåíò_141"/><linearGradient id="linear-gradient-10" x1="101.52" y1="17.92" x2="136.33" y2="53.16" gradientUnits="userSpaceOnUse"><stop offset="0" stop-color="#af4e71"/><stop offset="0.15" stop-color="#a8496f"/><stop offset="0.36" stop-color="#953b69"/><stop offset="0.61" stop-color="#76245f"/><stop offset="0.67" stop-color="#6e1e5c"/><stop offset="1" stop-color="#4c0057"/></linearGradient><linearGradient id="Áåçûìÿííûé_ãðàäèåíò_52-5" x1="114.69" y1="34.55" x2="137.01" y2="31.57" xlink:href="#Áåçûìÿííûé_ãðàäèåíò_52"/><linearGradient id="Áåçûìÿííûé_ãðàäèåíò_141-3" x1="109.51" y1="94.72" x2="135.02" y2="94.72" gradientTransform="matrix(1, 0, 0, 1, 0, 0)" xlink:href="#Áåçûìÿííûé_ãðàäèåíò_141"/><linearGradient id="linear-gradient-11" x1="108.4" y1="73.42" x2="132.52" y2="104.65" gradientUnits="userSpaceOnUse"><stop offset="0.01" stop-color="#9d4863"/><stop offset="0.2" stop-color="#964262"/><stop offset="0.47" stop-color="#83315f"/><stop offset="0.79" stop-color="#64165b"/><stop offset="1" stop-color="#4c0057"/></linearGradient><linearGradient id="linear-gradient-12" x1="106.91" y1="40.26" x2="125.95" y2="92.97" xlink:href="#linear-gradient-11"/><linearGradient id="Áåçûìÿííûé_ãðàäèåíò_52-6" x1="127.05" y1="94.9" x2="139.65" y2="103.91" xlink:href="#Áåçûìÿííûé_ãðàäèåíò_52"/><linearGradient id="Áåçûìÿííûé_ãðàäèåíò_141-4" x1="135.6" y1="103.96" x2="128.92" y2="96.64" gradientTransform="matrix(1, 0, 0, 1, 0, 0)" xlink:href="#Áåçûìÿííûé_ãðàäèåíò_141"/><linearGradient id="Áåçûìÿííûé_ãðàäèåíò_141-5" x1="139.29" y1="100.6" x2="132.61" y2="93.27" gradientTransform="matrix(1, 0, 0, 1, 0, 0)" xlink:href="#Áåçûìÿííûé_ãðàäèåíò_141"/><radialGradient id="Áåçûìÿííûé_ãðàäèåíò_23" cx="-538.55" cy="21.35" r="63.7" gradientTransform="translate(314.1 93.42) scale(0.32)" gradientUnits="userSpaceOnUse"><stop offset="0" stop-color="#331048"/><stop offset="0.28" stop-color="#300f44"/><stop offset="0.56" stop-color="#290b38"/><stop offset="0.83" stop-color="#1c0525"/><stop offset="1" stop-color="#110015"/></radialGradient><linearGradient id="linear-gradient-13" x1="85.32" y1="97.12" x2="98.31" y2="133" xlink:href="#linear-gradient-11"/><linearGradient id="linear-gradient-14" x1="84.06" y1="96.96" x2="97.54" y2="130.05" gradientUnits="userSpaceOnUse"><stop offset="0.01" stop-color="#9d4863"/><stop offset="0.05" stop-color="#984362"/><stop offset="0.47" stop-color="#6f1f5c"/><stop offset="0.8" stop-color="#550858"/><stop offset="1" stop-color="#4c0057"/></linearGradient><linearGradient id="Áåçûìÿííûé_ãðàäèåíò_52-7" x1="95.14" y1="123.39" x2="98.2" y2="135.7" xlink:href="#Áåçûìÿííûé_ãðàäèåíò_52"/><linearGradient id="Áåçûìÿííûé_ãðàäèåíò_100" x1="126.31" y1="41.74" x2="130.55" y2="38.11" gradientUnits="userSpaceOnUse"><stop offset="0" stop-color="#f49f57"/><stop offset="0.1" stop-color="#f79656"/><stop offset="0.35" stop-color="#fb8655"/><stop offset="0.63" stop-color="#fe7c54"/><stop offset="0.99" stop-color="#ff7954"/></linearGradient><linearGradient id="Áåçûìÿííûé_ãðàäèåíò_52-8" x1="125.06" y1="46.92" x2="136.78" y2="15.33" xlink:href="#Áåçûìÿííûé_ãðàäèåíò_52"/><radialGradient id="radial-gradient-3" cx="-736.91" cy="-230.58" r="84" gradientTransform="translate(343.26 92.11) scale(0.29)" xlink:href="#Áåçûìÿííûé_ãðàäèåíò_23"/><linearGradient id="Áåçûìÿííûé_ãðàäèåíò_100-2" x1="81.85" y1="55.87" x2="73.62" y2="44.6" xlink:href="#Áåçûìÿííûé_ãðàäèåíò_100"/><linearGradient id="Áåçûìÿííûé_ãðàäèåíò_100-3" x1="19" y1="37.27" x2="27.3" y2="42.09" xlink:href="#Áåçûìÿííûé_ãðàäèåíò_100"/><linearGradient id="Áåçûìÿííûé_ãðàäèåíò_141-6" x1="129.94" y1="17.1" x2="125.22" y2="6.83" gradientTransform="matrix(1, 0, 0, 1, 0, 0)" xlink:href="#Áåçûìÿííûé_ãðàäèåíò_141"/><linearGradient id="Áåçûìÿííûé_ãðàäèåíò_141-7" x1="44.16" y1="132.59" x2="37.95" y2="106.29" gradientTransform="matrix(1, 0, 0, 1, 0, 0)" xlink:href="#Áåçûìÿííûé_ãðàäèåíò_141"/><linearGradient id="linear-gradient-15" x1="32.5" y1="83.23" x2="38.91" y2="126.65" xlink:href="#linear-gradient-4"/><linearGradient id="Áåçûìÿííûé_ãðàäèåíò_52-9" x1="34.83" y1="104.12" x2="28.86" y2="138.2" xlink:href="#Áåçûìÿííûé_ãðàäèåíò_52"/><linearGradient id="Áåçûìÿííûé_ãðàäèåíò_141-8" x1="86.04" y1="107.11" x2="56.25" y2="90.91" gradientTransform="matrix(1, 0, 0, 1, 0, 0)" xlink:href="#Áåçûìÿííûé_ãðàäèåíò_141"/><linearGradient id="linear-gradient-16" x1="53.21" y1="87.99" x2="88.9" y2="110.12" gradientUnits="userSpaceOnUse"><stop offset="0" stop-color="#af4e71"/><stop offset="0.16" stop-color="#a8496f"/><stop offset="0.38" stop-color="#953b69"/><stop offset="0.64" stop-color="#76245f"/><stop offset="0.7" stop-color="#6e1e5c"/><stop offset="1" stop-color="#4c0057"/></linearGradient><linearGradient id="Áåçûìÿííûé_ãðàäèåíò_52-10" x1="69.48" y1="97.53" x2="73.94" y2="115.11" xlink:href="#Áåçûìÿííûé_ãðàäèåíò_52"/><linearGradient id="linear-gradient-17" x1="81.02" y1="28.38" x2="71.6" y2="19.85" gradientTransform="matrix(1, 0, 0, 1, 0, 0)" xlink:href="#Áåçûìÿííûé_ãðàäèåíò_141"/><linearGradient id="linear-gradient-18" x1="67.96" y1="15.76" x2="83.36" y2="32.16" xlink:href="#linear-gradient"/><radialGradient id="radial-gradient-4" cx="-538" cy="1.18" r="33.92" gradientTransform="matrix(0.62, -0.03, -0.03, 0.66, 357.14, 24.21)" xlink:href="#Áåçûìÿííûé_ãðàäèåíò_23"/><linearGradient id="Áåçûìÿííûé_ãðàäèåíò_52-11" x1="90.07" y1="19.16" x2="81.93" y2="6.46" xlink:href="#Áåçûìÿííûé_ãðàäèåíò_52"/><linearGradient id="Áåçûìÿííûé_ãðàäèåíò_52-12" x1="98.61" y1="13.69" x2="90.47" y2="0.99" xlink:href="#Áåçûìÿííûé_ãðàäèåíò_52"/><linearGradient id="Áåçûìÿííûé_ãðàäèåíò_100-4" x1="-494.26" y1="-1462.12" x2="-501.34" y2="-1472.93" gradientTransform="matrix(0.4, -0.92, -0.53, -0.23, -506.27, -755.25)" xlink:href="#Áåçûìÿííûé_ãðàäèåíò_100"/><linearGradient id="Áåçûìÿííûé_ãðàäèåíò_141-9" x1="97.38" y1="71.47" x2="107.83" y2="77.28" gradientTransform="matrix(1, 0, 0, 1, 0, 0)" xlink:href="#Áåçûìÿííûé_ãðàäèåíò_141"/><linearGradient id="Áåçûìÿííûé_ãðàäèåíò_52-13" x1="110.85" y1="48.55" x2="96.03" y2="69.22" xlink:href="#Áåçûìÿííûé_ãðàäèåíò_52"/><radialGradient id="radial-gradient-5" cx="351.11" cy="20.03" r="233.31" gradientTransform="translate(27.61 81.65) scale(0.34)" xlink:href="#Áåçûìÿííûé_ãðàäèåíò_23"/><linearGradient id="Áåçûìÿííûé_ãðàäèåíò_100-5" x1="33.5" y1="22.9" x2="29.51" y2="18.71" xlink:href="#Áåçûìÿííûé_ãðàäèåíò_100"/><linearGradient id="Áåçûìÿííûé_ãðàäèåíò_52-14" x1="71.84" y1="16.38" x2="73.23" y2="26.31" xlink:href="#Áåçûìÿííûé_ãðàäèåíò_52"/><radialGradient id="radial-gradient-6" cx="133.11" cy="-194.84" r="31.85" gradientTransform="translate(27.61 81.65) scale(0.34)" xlink:href="#Áåçûìÿííûé_ãðàäèåíò_23"/><linearGradient id="linear-gradient-19" x1="54.21" y1="67.72" x2="43.3" y2="54.78" gradientTransform="matrix(1, 0, 0, 1, 0, 0)" xlink:href="#Áåçûìÿííûé_ãðàäèåíò_141"/><linearGradient id="linear-gradient-20" x1="42.47" y1="55.63" x2="55.05" y2="65.95" gradientUnits="userSpaceOnUse"><stop offset="0" stop-color="#af4e71"/><stop offset="0.17" stop-color="#a8496f"/><stop offset="0.42" stop-color="#953b69"/><stop offset="0.72" stop-color="#76245f"/><stop offset="0.79" stop-color="#6e1e5c"/><stop offset="1" stop-color="#4c0057"/></linearGradient><linearGradient id="Áåçûìÿííûé_ãðàäèåíò_52-15" x1="38.19" y1="53.01" x2="53.19" y2="62.03" xlink:href="#Áåçûìÿííûé_ãðàäèåíò_52"/><radialGradient id="radial-gradient-7" cx="256.02" cy="-16.74" r="37.63" gradientTransform="translate(-25.48 76.42) rotate(-2.23) scale(0.28)" xlink:href="#Áåçûìÿííûé_ãðàäèåíò_23"/><linearGradient id="Áåçûìÿííûé_ãðàäèåíò_100-6" x1="41.39" y1="55.03" x2="46.34" y2="58.01" xlink:href="#Áåçûìÿííûé_ãðàäèåíò_100"/><linearGradient id="Áåçûìÿííûé_ãðàäèåíò_100-7" x1="31.72" y1="24.99" x2="36.98" y2="28.05" xlink:href="#Áåçûìÿííûé_ãðàäèåíò_100"/><linearGradient id="Áåçûìÿííûé_ãðàäèåíò_52-16" x1="72.84" y1="21.74" x2="70.36" y2="17.79" xlink:href="#Áåçûìÿííûé_ãðàäèåíò_52"/><linearGradient id="linear-gradient-21" x1="120.82" y1="85.59" x2="133.55" y2="102.08" xlink:href="#linear-gradient-11"/><linearGradient id="Áåçûìÿííûé_ãðàäèåíò_141-10" x1="39.3" y1="94.34" x2="38.54" y2="105.85" gradientTransform="matrix(1, 0, 0, 1, 0, 0)" xlink:href="#Áåçûìÿííûé_ãðàäèåíò_141"/><linearGradient id="Áåçûìÿííûé_ãðàäèåíò_141-11" x1="37.06" y1="94.2" x2="36.3" y2="105.7" gradientTransform="matrix(1, 0, 0, 1, 0, 0)" xlink:href="#Áåçûìÿííûé_ãðàäèåíò_141"/><linearGradient id="Áåçûìÿííûé_ãðàäèåíò_141-12" x1="29.33" y1="97.43" x2="26.47" y2="113.76" gradientTransform="matrix(1, 0, 0, 1, 0, 0)" xlink:href="#Áåçûìÿííûé_ãðàäèåíò_141"/><radialGradient id="radial-gradient-8" cx="198.07" cy="104.46" r="148.13" gradientTransform="translate(-35.66 96.16) scale(0.27)" xlink:href="#Áåçûìÿííûé_ãðàäèåíò_23"/><linearGradient id="Áåçûìÿííûé_ãðàäèåíò_153" x1="35.24" y1="52.34" x2="27.79" y2="36.65" gradientUnits="userSpaceOnUse"><stop offset="0" stop-color="#860057"/><stop offset="0.21" stop-color="#8a0a4d"/><stop offset="0.55" stop-color="#8e1343"/><stop offset="0.99" stop-color="#8f1640"/></linearGradient><linearGradient id="linear-gradient-22" x1="39.26" y1="50.45" x2="31.82" y2="46.21" xlink:href="#linear-gradient-8"/><linearGradient id="Áåçûìÿííûé_ãðàäèåíò_100-8" x1="102.61" y1="78.44" x2="99.15" y2="73.68" xlink:href="#Áåçûìÿííûé_ãðàäèåíò_100"/><linearGradient id="Áåçûìÿííûé_ãðàäèåíò_52-17" x1="122.56" y1="29.59" x2="106.03" y2="29.42" xlink:href="#Áåçûìÿííûé_ãðàäèåíò_52"/><linearGradient id="Áåçûìÿííûé_ãðàäèåíò_52-18" x1="133.34" y1="3.91" x2="119.28" y2="6.72" xlink:href="#Áåçûìÿííûé_ãðàäèåíò_52"/><linearGradient id="Áåçûìÿííûé_ãðàäèåíò_100-9" x1="119.43" y1="7.3" x2="126.51" y2="6" xlink:href="#Áåçûìÿííûé_ãðàäèåíò_100"/><linearGradient id="Áåçûìÿííûé_ãðàäèåíò_52-19" x1="134.46" y1="9.22" x2="128.43" y2="7.18" xlink:href="#Áåçûìÿííûé_ãðàäèåíò_52"/><linearGradient id="Áåçûìÿííûé_ãðàäèåíò_141-13" x1="132.3" y1="10.92" x2="126.02" y2="-2.73" gradientTransform="matrix(1, 0, 0, 1, 0, 0)" xlink:href="#Áåçûìÿííûé_ãðàäèåíò_141"/><linearGradient id="Áåçûìÿííûé_ãðàäèåíò_52-20" x1="133.38" y1="3.82" x2="120.55" y2="5.96" xlink:href="#Áåçûìÿííûé_ãðàäèåíò_52"/><linearGradient id="Áåçûìÿííûé_ãðàäèåíò_52-21" x1="105.14" y1="193.63" x2="74.84" y2="198.68" gradientTransform="matrix(0.98, -0.22, 0.22, 0.98, -6.09, -153.7)" xlink:href="#Áåçûìÿííûé_ãðàäèåíò_52"/><linearGradient id="Áåçûìÿííûé_ãðàäèåíò_52-22" x1="29.42" y1="102.34" x2="24.1" y2="86.82" xlink:href="#Áåçûìÿííûé_ãðàäèåíò_52"/><linearGradient id="Áåçûìÿííûé_ãðàäèåíò_100-10" x1="125.02" y1="19.7" x2="116.7" y2="1.6" xlink:href="#Áåçûìÿííûé_ãðàäèåíò_100"/><radialGradient id="radial-gradient-9" cx="324.8" cy="55.21" r="42.1" gradientTransform="translate(-22.36 93.48) scale(0.28)" xlink:href="#Áåçûìÿííûé_ãðàäèåíò_23"/><linearGradient id="Áåçûìÿííûé_ãðàäèåíò_85-4" x1="131.02" y1="96.93" x2="137.37" y2="100.18" xlink:href="#Áåçûìÿííûé_ãðàäèåíò_85"/><radialGradient id="Áåçûìÿííûé_ãðàäèåíò_23-2" cx="-568.27" cy="100.08" r="73.85" gradientTransform="matrix(0.23, -0.01, 0.01, 0.17, 229.74, 106.17)" xlink:href="#Áåçûìÿííûé_ãðàäèåíò_23"/><linearGradient id="Áåçûìÿííûé_ãðàäèåíò_52-23" x1="1.45" y1="218.54" x2="-6.04" y2="202.74" gradientTransform="translate(-21.68 -155.45) rotate(-8.35)" xlink:href="#Áåçûìÿííûé_ãðàäèåíò_52"/><linearGradient id="Áåçûìÿííûé_ãðàäèåíò_141-14" x1="8.53" y1="61.16" x2="4.84" y2="53.38" gradientTransform="matrix(1, 0, 0, 1, 0, 0)" xlink:href="#Áåçûìÿííûé_ãðàäèåíò_141"/><linearGradient id="Áåçûìÿííûé_ãðàäèåíò_141-15" x1="13.31" y1="58.67" x2="8.41" y2="48.33" gradientTransform="matrix(1, 0, 0, 1, 0, 0)" xlink:href="#Áåçûìÿííûé_ãðàäèåíò_141"/><linearGradient id="Áåçûìÿííûé_ãðàäèåíò_100-11" x1="6.09" y1="54.31" x2="2.8" y2="47.37" xlink:href="#Áåçûìÿííûé_ãðàäèåíò_100"/><linearGradient id="Áåçûìÿííûé_ãðàäèåíò_100-12" x1="9.74" y1="54.52" x2="6.91" y2="48.55" xlink:href="#Áåçûìÿííûé_ãðàäèåíò_100"/></defs><g class="cls-1"><g id="Layer_2" data-name="Layer 2"><g id="space"><path class="cls-2" d="M66.91,138.62l-1.36-7.46,34.32-2.75L96,138.23A50,50,0,0,1,66.91,138.62Z"/><path class="cls-3" d="M40,126.78l1.36-4.08,17.84,8-4.59,3.85A28.4,28.4,0,0,1,40,126.78Z"/><path class="cls-4" d="M17.1,67.59l-4.89,1c-2.77,11.08.65,23.13.65,23.13l7,2.44Z"/><path class="cls-5" d="M139.06,82.77l3.4,4.12s.47,11.82-6.05,21.49l-8.53,1.15A68.81,68.81,0,0,0,139.06,82.77Z"/><path class="cls-6" d="M103.79,12.83l-3.1,2.51,14.87,8.49-.66-5.15A24.68,24.68,0,0,0,103.79,12.83Z"/><path class="cls-7" d="M116.61,24.76l6.93-.49S138.93,34.37,142.35,49l-3.91,9.12Z"/><path class="cls-8" d="M75.57,11.4l3.91-4.23S93.16,5.86,99.84,9.45l1,8Z"/><path class="cls-9" d="M40,14.82C27.77,20.44,20.44,33.88,20.44,33.88l.24,12.46L50,17.51Z"/><path class="cls-10" d="M40,14.82h0L35.62,21l2.61,4.56,11-7.31.79-.77Z"/><path class="cls-11" d="M141.05,72.94a63.28,63.28,0,0,1-63.33,63.32c-1.12,0-2.26,0-3.37-.1h0c-1.66-.08-3.3-.24-4.92-.44A63.42,63.42,0,0,1,27.9,112a63.76,63.76,0,0,1-5.54-8.3c-.39-.7-.76-1.41-1.14-2.11,0,0,0,0,0-.07-.38-.76-.74-1.53-1.09-2.3h0a62.36,62.36,0,0,1-2.83-7.49,56,56,0,0,1-1.48-5.66.07.07,0,0,1,0-.06c-.28-1.35-.52-2.71-.7-4.09a61.94,61.94,0,0,1-.65-9c0-1.75.07-3.5.23-5.21.08-1.1.2-2.18.35-3.26A62.53,62.53,0,0,1,24.28,39,63.37,63.37,0,0,1,77.72,9.61c.67,0,1.34,0,2,0s1.42,0,2.13.11a62.81,62.81,0,0,1,10.62,1.6c2,.48,4,1,5.9,1.71,1.31.44,2.59.94,3.86,1.47,1,.4,1.87.82,2.79,1.26l.48.23a63.41,63.41,0,0,1,16.57,11.7c.69.67,1.36,1.37,2,2.08.44.48.88,1,1.31,1.47.73.82,1.44,1.69,2.14,2.56a62.8,62.8,0,0,1,6.6,10.32,61.71,61.71,0,0,1,5.05,13.53A63,63,0,0,1,141.05,72.94Z"/><path class="cls-12" d="M61.92,100.81c34.93,0,63.25-27.23,63.25-60.81a59.17,59.17,0,0,0-.84-9.94l-.24-.26c-.67-.71-1.34-1.41-2-2.08A63.41,63.41,0,0,0,105.49,16l-.48-.23c-.92-.44-1.84-.86-2.79-1.26-1.27-.53-2.55-1-3.86-1.47-1.93-.67-3.89-1.23-5.9-1.71a62.81,62.81,0,0,0-10.62-1.6c-.71-.06-1.42-.08-2.13-.11s-1.32,0-2,0A63.48,63.48,0,0,0,20,46.78,62,62,0,0,0,15,64.47c-.15,1.08-.27,2.16-.35,3.26-.16,1.71-.23,3.46-.23,5.21a61.39,61.39,0,0,0,.48,7.71A64.2,64.2,0,0,0,61.92,100.81Z"/><path class="cls-13" d="M118.93,76.93c-4.67,4.67-8.47-3.47-7.27-7s5.43-9.44,8.25-8.46S125.44,70.42,118.93,76.93Z"/><path class="cls-13" d="M74.86,134c-18.14.16-.07-15.9,10.93-19.41s32.29-6.31,32.66-.63S100.17,133.79,74.86,134Z"/><path class="cls-13" d="M92.44,102.11c-3.4.29-11.88-2.77-7.48-4.56s7.65-2.44,9-1S94.4,102,92.44,102.11Z"/><path class="cls-13" d="M61.3,19.54c-1.89,8.32-14.22,25.63-14.21,16.61,0-7.41.8-12.36,3.42-15.24C53.63,17.49,62.36,14.87,61.3,19.54Z"/><path class="cls-13" d="M61.24,30.46c1.23,2.5,4.79.68,5.15.25s2.5-2.52,2.39-2.8a2.54,2.54,0,0,0-3-1.27C63.79,27.06,60.63,29.25,61.24,30.46Z"/><path class="cls-13" d="M80.15,12.55c-.2,1.08,1.67,1.83,2,1.83s2.69.24,2.68,0A2.5,2.5,0,0,0,83,12.54C81.82,12.13,80.23,12.08,80.15,12.55Z"/><path class="cls-13" d="M113.89,37.41c-2.19,1-16.34.54-17.86-.94s-6.19-6.49-7-7.37-4.51-3.79-4.5-5,.06-9.32,1.75-10.18,11.74,1.85,15.57,3,12.57,7.19,14.45,8.16,4.45,5.21,4.24,6.61S113.89,37.41,113.89,37.41Z"/><path class="cls-13" d="M49.83,115.66c-7,8-37.73-33.28-23.29-39.6S62.65,101,49.83,115.66Z"/><path class="cls-13" d="M57.1,97.31c-2.74-1.22-6.7-4.81-2.41-5.15s5-.69,5.84.34S58.64,98,57.1,97.31Z"/><path class="cls-13" d="M58.55,35c1.79-.84,5.28-1.28,3.61,1s-1.8,2.78-2.68,2.77S57.54,35.47,58.55,35Z"/><path class="cls-13" d="M53.83,125.82c-2.39.21-8.24-2.75-10-3.78s-2.74-2.06-1-2.06,6.53,2.06,9.45,2.4S57.78,125.47,53.83,125.82Z"/><path class="cls-13" d="M44.09,79.32a16.45,16.45,0,0,1-3.23-2.9s-.43-1.46.21-1.68a2.48,2.48,0,0,1,2.31.93C44.25,76.6,44.09,79.32,44.09,79.32Z"/><path class="cls-13" d="M21.78,74.65c-.11,1.74-.54,4-1,4.12s-.65-1.19-1-2.17-1-3.36-.22-4.23,1.3-1.63,1.74-.87A10.11,10.11,0,0,1,21.78,74.65Z"/><path class="cls-14" d="M99.44,89.76c-27.82,9.76-53.28-13.57-36.5-39.95,14.5-22.8,46.8-11,52.55,2.14S115.71,84.06,99.44,89.76Z"/><path class="cls-15" d="M96.07,82.87c-28.68,10.41-51-11.63-31.29-36.69,17-21.67,42-5.36,46.36,7C113.5,64.66,103.3,79.43,96.07,82.87Z"/><path class="cls-16" d="M95.57,78.52c-24.15,8.78-42.92-9.79-26.35-30.9,14.32-18.25,35.36-4.51,39,5.94S102.91,75.86,95.57,78.52Z"/><path class="cls-17" d="M46.86,52.61c7.21-11.75,4.19-25-1.81-28-1.9-.95-17,8.82-21.72,16.53-4.27,7-6.42,23.75-4.23,25C24.44,69.23,39.64,64.37,46.86,52.61Z"/><path class="cls-18" d="M41.27,49.81C48.4,38,46.19,28,45.28,24.74c-1.39-.8-5.78-1.15-8.26-.37-4.72,1.48-10.24,6.8-14.91,14.54a42.88,42.88,0,0,0-6.49,18.8c-.31,3.8,2,7.58,3.61,8.53C23.27,66.1,34.14,61.62,41.27,49.81Z"/><path class="cls-19" d="M33.74,45.6c6.09-10.16,4.64-19.42,4.07-21.43-3.23.46-8.9,3-15.54,13.85C16.09,48.13,14.82,56.68,16,60.92,19.86,60.17,27.65,55.76,33.74,45.6Z"/><path class="cls-20" d="M37.14,28.41l.54-4.22a11.91,11.91,0,0,0-3.46,1.15l-.77,10.18,3.09-5Z"/><polygon class="cls-21" points="117.59 12.54 121.99 17.59 126.22 18.08 134.37 13.19 134.37 8.79 127.85 0 123.62 1.3 122.97 3.42 116.94 6.03 117.59 12.54"/><path class="cls-22" d="M132.9,53.59c-2.92,10-24.32-20-26.28-27C104.52,18.94,136.79,40.27,132.9,53.59Z"/><path class="cls-23" d="M130.71,49c-2.56,8.35-29.79-23.64-26.53-27.69,2.3-2.85,10.35,1.69,17.14,8.48C127.35,35.85,132.77,42.3,130.71,49Z"/><path class="cls-24" d="M130.47,45.29c-2.44,6.9-25.32-20.22-22.34-23.41S133,38.05,130.47,45.29Z"/><path class="cls-25" d="M115.4,114.41c-4.77,2.73-7.08-7.82-5.29-13,1.15-3.29,24.42-26.86,24.42-26.86S139.83,100.4,115.4,114.41Z"/><path class="cls-26" d="M114.22,113.51c-3.43-1.52-8.44-12.54.8-28.11,6.09-10.27,13.31-13.13,17.77-12.81,1.83,1,5.36,4.76,4.21,11-1.49,8-6.64,18.88-13.55,25.19A23.62,23.62,0,0,1,114.22,113.51Z"/><path class="cls-27" d="M119.26,111.62c-5.2,2.29-4.89-11.24.07-21.86,3.47-7.45,10.12-13.27,14.58-13C143.82,77.51,130.26,106.78,119.26,111.62Z"/><path class="cls-28" d="M120.66,107.78c-3.92,1.93-3.32-8.43.63-16.7,2.77-5.81,7.86-10.47,11.15-10.38C139.77,80.92,128.94,103.73,120.66,107.78Z"/><path class="cls-29" d="M127.13,92.75l.57,3.83s.65,1,1.45,2.22c.26-.41.52-.83.77-1.25Z"/><path class="cls-30" d="M130.63,90.88,129.16,93l2.52,1.34c.63-1.27,1.19-2.54,1.66-3.77Z"/><path class="cls-31" d="M121.31,104.79c-3.33,1.63-2.82-7.17.54-14.2,2.35-4.93,6.67-8.89,9.47-8.81,3,.09,1.88,3.61-.25,8.61-.23.55-.38,1.92-.65,2.48-.16.33-1.24.06-1.41.39s-.41.78-.62,1.16c-.41.73.52,2.14.07,2.84C126.28,100.68,123.67,103.63,121.31,104.79Z"/><path class="cls-32" d="M110.8,118.84c-3.17-4.56-9.64-5-17.79-3.58-8.72,1.53-13.07,4.07-15.38,9,.59,4.47,7.06,6.84,15.83,5.57,5.86-.84,11.43-2.52,14.62-5.49A11,11,0,0,0,110.8,118.84Z"/><path class="cls-33" d="M94,129.87c-15,2.21-20-6.93-.65-11.4S116.34,126.6,94,129.87Z"/><path class="cls-34" d="M93.67,127.39c-12.6,1.85-15.87-4.4.38-8.15,1.77-.41,3.27.1,4.69,0a31,31,0,0,1,3.91-.33c2.45.19,3.94.84,4.4,1.71-.39,1.17-1.34,3.57-6.55,5.27-.52.17-2.1-.34-2.68-.18C96.31,126.08,95.61,127.1,93.67,127.39Z"/><path class="cls-35" d="M130.63,43.32c-.26-2.11-1.67-4.72-3.68-7.41.23,1.68.82,6,.77,6.39Z"/><path class="cls-36" d="M130.32,41.92l-2,.11-5.54-.73,1.63.81a60.65,60.65,0,0,0,6.3,1.58A7.63,7.63,0,0,0,130.32,41.92Z"/><path class="cls-37" d="M126.82,42.82C121.37,44,108,26.32,110,24.28c.54-.53,10.2,7.48,14,13.68.59,1,.27,2.81.57,3.59C124.9,41.83,126.25,42.41,126.82,42.82Z"/><path class="cls-38" d="M69,48.87c6.76-9.18,15.14-10.16,23-9.26C87,38.34,81.57,37.92,76.19,41A27.69,27.69,0,0,0,69,47.58a29.33,29.33,0,0,0-5.81,12.9A42.09,42.09,0,0,1,69,48.87Z"/><path class="cls-39" d="M23.05,38.76c4.5-7.41,8.46-11.45,11.64-13.64C31.44,26.6,26.63,30,21.78,38A39.59,39.59,0,0,0,15.65,56.6,56.34,56.34,0,0,1,23.05,38.76Z"/><path class="cls-40" d="M122,17.59l4.23.49,8.15-4.89V8.8l-.12-.17-6.58-.36-.3,2.83-2.27,1.45-.34,3.87s-1.42.51-2.93,1Z"/><path class="cls-41" d="M45.29,103.18,23,89.3c2.83,18.35,15,34.41,24.64,37.45S50.28,109.37,45.29,103.18Z"/><path class="cls-42" d="M39.91,95.82C30.57,85.61,23,89.3,23,89.3c-1.62,3.8-.86,8.9-.32,11l17.58,18.78c3.37,2.38,9.34,2,9.34,2C50.87,118,49.24,106,39.91,95.82Z"/><path class="cls-43" d="M43.76,120.19c-4.85.63-25.4-14-20.51-26.06S53.69,118.88,43.76,120.19Z"/><path class="cls-44" d="M79.74,108c-12,.43-19-6.75-19.45-12.13s15.95-4,21.57,1.14S86.66,107.73,79.74,108Z"/><path class="cls-45" d="M60.21,95.38c.09-4,10.63-3.15,15.74-.76s4.88,5.43,4.66,7.38-3,5.21-9,3.8S60.1,99.94,60.21,95.38Z"/><path class="cls-46" d="M73.34,104.72c-10.76-.8-14.6-10.59-8.9-10.75s11,2.06,12.16,3.26C78.11,98.81,77.74,105,73.34,104.72Z"/><path class="cls-47" d="M73.94,26c-4.39.52-10.26-1.2-10.8-2.66s15.58-6.1,16.55-5.86C86.72,19.14,85.77,24.56,73.94,26Z"/><path class="cls-48" d="M75.79,24.36c-5.32,1.63-16.07.25-12.49-3.17S74.64,13.43,83.12,19C83.5,19.57,81,22.76,75.79,24.36Z"/><path class="cls-49" d="M31.57,46c.65-1.11,1.24-2.25,1.77-3.4.37-.8,1.92-2.19,2.23-3a25.8,25.8,0,0,0,1.57-11.15C34.73,29.82,29.86,35,25.69,42.06s-6.54,13.4-5.78,15.8C22.09,57.53,27.4,53,31.57,46Z"/><path class="cls-50" d="M82.35,7.51,87.52,7a69,69,0,0,0-8,.2l-1.4,1.51Z"/><path class="cls-51" d="M97.4,8.43a28.46,28.46,0,0,0-5-1.07l.79.23,1.71,2.61Z"/><polygon class="cls-52" points="74.81 42.74 72.8 40.78 72.23 44.41 74.81 42.74"/><path class="cls-53" d="M76.71,76.82c-.44-.32-8.25-13.13-8.25-13.13l3.66,14.37a43,43,0,0,0,4.34,7c.65.1,1.31.19,2,.26l-5-6.59-.14-5.38,3.11,3.34,3.06,8.71q.51,0,1,.06C79,81.94,77,77,76.71,76.82Z"/><path class="cls-54" d="M98.77,69l-.35.33,4.77,3.31-1.9,1.9S99,72,97.3,70.34l-.17.16c1,.79,2.08,4,2.71,5.58a24.64,24.64,0,0,0,4.07-4Z"/><path class="cls-55" d="M108.26,53.56a15.43,15.43,0,0,0-.79-1.8L104.11,54l2.83,2.66,1.83-1.31A15,15,0,0,0,108.26,53.56Z"/><path class="cls-56" d="M106.94,56.69l-2.47-2.84C101.07,44.94,83,33.31,71.17,49c-9.91,13.19,0,25.48,0,25.48L73.32,74l3.08,2.83s10.76,1.07,17.32-1.32a28,28,0,0,0,4.76-3l1.25.23,1.88-2-.17-1.52C104.13,65.73,105.73,61.38,106.94,56.69Z"/><path class="cls-57" d="M31.55,21.52,35.62,21l4.49-6.17-.13,0c-7,3.22-12.39,9-15.72,13.36A38.27,38.27,0,0,1,31.55,21.52Z"/><path class="cls-58" d="M74.42,22.75c-4.3,1.38-12.41.27-9.85-2.11,2.8-2.61,9.09-7,15.77-2.41C81.84,19.26,77.54,21.75,74.42,22.75Z"/><path class="cls-59" d="M80.34,18.23a11.65,11.65,0,0,0-1.79-1,3.16,3.16,0,0,1-2,2.73l.87.16a12.76,12.76,0,0,0,3.18-1.29A.61.61,0,0,0,80.34,18.23Z"/><path class="cls-60" d="M74.34,22.44c-3.5,1-10.06.19-8-1.49a12.64,12.64,0,0,1,8.17-3.12c.52,0,1,.75,1.6.84a15.67,15.67,0,0,1,3,.53C80.51,19.68,76.89,21.72,74.34,22.44Z"/><path class="cls-61" d="M53.61,49.58,40.26,69c5.54,1.26,11.48-.45,14.17-4.93S56.79,51,53.61,49.58Z"/><path class="cls-62" d="M40.26,69c-1.79-5.28.88-11,4.75-15.08a12.77,12.77,0,0,1,8.6-4.36c2.58,2.55,1.09,8.63-1,12.12C50.86,64.47,44.93,68.25,40.26,69Z"/><path class="cls-63" d="M43.24,64.72c-6.78,2.06-1.49-7.66,1.64-10.93s7.92-5.21,7.46-.42a15.45,15.45,0,0,1-2.67,7.12A11.49,11.49,0,0,1,43.24,64.72Z"/><path class="cls-64" d="M44.3,63.84c-4,1.21-2-1.86-.13-5.09a12.34,12.34,0,0,1,2.47-2.61,4.16,4.16,0,0,1,.79-2c2.45-2.11,4.4-3.16,4,.4C51.08,58.71,49.78,62.17,44.3,63.84Z"/><path class="cls-65" d="M45.27,53.73a14,14,0,0,1,3.95-2.93,11.3,11.3,0,0,0-4.4,3c-2,2.07-4.75,6.72-4.87,9.34C40.48,60.21,43.28,55.79,45.27,53.73Z"/><path class="cls-66" d="M33.21,25.9l.63,4.57c.32-1.71.76-4.19.76-4.19l3-2.08A12.46,12.46,0,0,0,33.21,25.9Z"/><path class="cls-67" d="M64.27,21.05c2.58-2.17,7.84-5.57,13.91-4-5.85-2.45-11.11,1.28-13.61,3.6a1.67,1.67,0,0,0-.39.5Z"/><path class="cls-68" d="M119.33,89.76c3.47-7.45,10.12-13.27,14.58-13-4.24-1.64-12.7,5.76-13.13,6.31s-7.7,10.54-5.26,21.35A41.92,41.92,0,0,1,119.33,89.76Z"/><path class="cls-69" d="M37.69,100.36c.22.28.44.55.65.84l0-.8,2-4.05-.48-.53c-.11-.13-.23-.25-.34-.36A7.47,7.47,0,0,1,37.69,100.36Z"/><path class="cls-70" d="M36.21,98.59l-.1-.47a13.56,13.56,0,0,1,2-4.09q-.45-.44-.9-.81l-1.51,4.83Z"/><path class="cls-71" d="M26.56,104l9.11-3.48.07-2.42c-5.06-5.62-10.5-8.84-12.49-3.93A9.67,9.67,0,0,0,22.7,96,29.56,29.56,0,0,1,26.56,104Z"/><path class="cls-72" d="M41.74,116.07c-3.93.51-20.57-11.34-16.61-21.1S49.78,115,41.74,116.07Z"/><path class="cls-73" d="M28.61,52.48c1.3-.48,6.28-2.63,6.93-4.83a40.44,40.44,0,0,0,.81-7.08l-4.72,6.67Z"/><path class="cls-74" d="M36.08,49.09a64.35,64.35,0,0,0,.3-9.39l-1.57,2.6c.2,1.34.7,3.53.7,3.53s-.87,2.23-1.19,2.77-3.79,2.63-6,4.07l-.29.5C31.2,51.28,36.08,49.09,36.08,49.09Z"/><path class="cls-75" d="M96.46,78.18c.33-.22,3.64-1.63,3.64-1.63L103.91,72l-3.54,2.83-1.74-1.58,1,2.28Z"/><path class="cls-76" d="M112.11,22.54a13.77,13.77,0,0,0-5.54-2.06c-.66,2.73,4.06,10.72,11.72,18-6.05-6.5-11.74-14.92-10.16-16.61C108.75,21.21,110.22,21.54,112.11,22.54Z"/><path class="cls-77" d="M127.66,8.33l6.59.3.07.1L127.85,0l-4.23,1.3,0,.13a35.3,35.3,0,0,1,3,5Z"/><path class="cls-78" d="M127.37,11.1l.3-2.83s-2.22-4.24-3.89-7l-.16.05L123,3.42l-.22.09Z"/><polygon class="cls-79" points="131.77 10.2 132.29 8.53 130.79 6.09 131.77 10.2"/><polygon class="cls-80" points="127.78 1.87 127.09 0.23 126.86 0.31 127.72 2.36 129.13 5.88 130.49 6.7 131.77 10.2 130.65 5.5 127.78 1.87"/><polygon class="cls-81" points="130.4 6.31 129.28 5.74 128.1 2.85 128.08 2.55 130.4 5.5 130.61 6.43 130.4 6.31"/><polygon class="cls-82" points="130.4 16.57 128.19 15.9 128.05 13.82 131.03 13.48 132.96 15.82 132.24 17.32 130.4 16.57"/><path class="cls-83" d="M23.25,94.13c1.66-4.09,5.7-2.54,9.93,1.33-2.46-2.67-5.33-5.23-7.11-5-2.74.41-5.68,4.49-3.1,10.76A10.84,10.84,0,0,1,23.25,94.13Z"/><polygon class="cls-84" points="125.85 18.04 127.51 16.09 125.44 12.56 121.1 9.14 118.81 5.22 117.64 5.72 119.15 8.16 117.05 5.98 116.94 6.03 117.59 12.54 121.99 17.59 125.85 18.04"/><path class="cls-85" d="M72.35,102.78c-8.94-.66-11.63-8.2-6.9-8.34s9.15,1.72,10.1,2.71C76.8,98.46,76,103.05,72.35,102.78Z"/><path class="cls-86" d="M137.27,80.38c-.52,8.9-8.94,24.82-17,30.76C128.75,106.37,138.33,88.19,137.27,80.38Z"/><path class="cls-87" d="M94.09,124.87c-11,1.87-14.19-2,0-5.31a31.7,31.7,0,0,1,4.15-.26,33.33,33.33,0,0,1,3.44-.42c2.17,0,3.93.71,4.37,1.25-.29.78-1.46,2-6,3.38-.45.14-1.86-.11-2.38,0C96.38,123.88,95.8,124.58,94.09,124.87Z"/><path class="cls-88" d="M10.58,49.19,7.27,47.37a11.61,11.61,0,0,0-6.06,2.45L0,53.37,2.7,56.6l2.2,3.79L11,59.25s2.13-3.44,2.27-4.7Z"/><path class="cls-89" d="M10.14,56.69c-.23-.08-7.21-.53-7.85-.57l.41.48.88,1.53c1.43-1,3.85-1.07,6.4-1.08l.85,2.23.16,0,.26-.44A11.2,11.2,0,0,0,10.14,56.69Z"/><path class="cls-90" d="M10.64,49.3l-.26,4.25.82,2.52s.11,1.37.18,2.53a16.13,16.13,0,0,0,1.88-4.05Z"/><path class="cls-91" d="M6.64,51.64c0-.17,1.71-2.65,2.12-3.26l.08-.15-1.57-.86a11.61,11.61,0,0,0-6.06,2.45L0,53.37l.09.11c1.67.18,4,.42,5.27.51C6,52.8,6.62,51.71,6.64,51.64Z"/><path class="cls-92" d="M9.41,48.54,7,51.56S6.54,52.81,6.13,54a.75.75,0,0,0,.27,0c.41-.17,4-.36,4-.36l.21-4.39,0-.06Z"/></g></g></g></svg>