<svg xmlns="http://www.w3.org/2000/svg" xmlns:xlink="http://www.w3.org/1999/xlink" viewBox="0 0 56.54 57.28"><defs><style>.cls-1{isolation:isolate;}.cls-2{fill:url(#radial-gradient);}.cls-3{fill:url(#radial-gradient-2);}.cls-4{fill:url(#Áåçûìÿííûé_ãðàäèåíò_328);}.cls-5{fill:#86005a;}.cls-14,.cls-5{opacity:0.5;}.cls-12,.cls-5,.cls-9{mix-blend-mode:multiply;}.cls-6{fill:#9f2232;}.cls-7{fill:#c7432b;}.cls-8{fill:url(#Áåçûìÿííûé_ãðàäèåíò_58);}.cls-9{fill:#64008d;opacity:0.39;}.cls-10,.cls-14{fill:#ce8799;}.cls-10,.cls-11,.cls-13,.cls-14{mix-blend-mode:soft-light;}.cls-11{fill:#a8687f;}.cls-12{fill:#bd008d;opacity:0.4;}.cls-13{fill:#ff8799;}.cls-15{fill:url(#Áåçûìÿííûé_ãðàäèåíò_59);}.cls-16{fill:#f4651c;}.cls-17{fill:url(#Áåçûìÿííûé_ãðàäèåíò_46);}.cls-18{fill:url(#Áåçûìÿííûé_ãðàäèåíò_46-2);}.cls-19{fill:url(#Áåçûìÿííûé_ãðàäèåíò_46-3);}.cls-20{fill:#ff8359;}.cls-21{fill:#ffac59;}.cls-22{fill:url(#Áåçûìÿííûé_ãðàäèåíò_46-4);}.cls-23{fill:#b6290e;}</style><radialGradient id="radial-gradient" cx="19.78" cy="19.36" r="40.17" gradientUnits="userSpaceOnUse"><stop offset="0" stop-color="#ffac00"/><stop offset="0.14" stop-color="#fda701"/><stop offset="0.31" stop-color="#f69a05"/><stop offset="0.48" stop-color="#ea830c"/><stop offset="0.66" stop-color="#da6314"/><stop offset="0.8" stop-color="#ca441d"/></radialGradient><radialGradient id="radial-gradient-2" cx="17.63" cy="10.39" r="50.33" gradientUnits="userSpaceOnUse"><stop offset="0" stop-color="#cc430c"/><stop offset="0.14" stop-color="#bd3d0f"/><stop offset="0.41" stop-color="#972c16"/><stop offset="0.78" stop-color="#5a1221"/><stop offset="0.82" stop-color="#540f22"/></radialGradient><radialGradient id="Áåçûìÿííûé_ãðàäèåíò_328" cx="17.49" cy="10.26" r="52.36" gradientUnits="userSpaceOnUse"><stop offset="0" stop-color="#cc430c"/><stop offset="0.15" stop-color="#c7410d"/><stop offset="0.31" stop-color="#b93b0f"/><stop offset="0.49" stop-color="#a23114"/><stop offset="0.67" stop-color="#82231a"/><stop offset="0.86" stop-color="#5a1121"/><stop offset="0.89" stop-color="#540f22"/><stop offset="0.98" stop-color="#771fd3"/></radialGradient><radialGradient id="Áåçûìÿííûé_ãðàäèåíò_58" cx="23.06" cy="9.31" r="47.38" gradientUnits="userSpaceOnUse"><stop offset="0" stop-color="#d84d0c"/><stop offset="0.12" stop-color="#d14a0d"/><stop offset="0.3" stop-color="#be4110"/><stop offset="0.51" stop-color="#9f3216"/><stop offset="0.74" stop-color="#741e1d"/><stop offset="0.89" stop-color="#540f22"/><stop offset="0.98" stop-color="#771fd3"/></radialGradient><radialGradient id="Áåçûìÿííûé_ãðàäèåíò_59" cx="24.92" cy="5.68" r="46.62" gradientUnits="userSpaceOnUse"><stop offset="0" stop-color="#cc430c"/><stop offset="0.05" stop-color="#c5400d"/><stop offset="0.62" stop-color="#741d1c"/><stop offset="0.89" stop-color="#540f22"/><stop offset="0.98" stop-color="#771fd3"/></radialGradient><linearGradient id="Áåçûìÿííûé_ãðàäèåíò_46" x1="19.54" y1="35.8" x2="19.54" y2="27.16" gradientUnits="userSpaceOnUse"><stop offset="0" stop-color="#bd280c"/><stop offset="0.18" stop-color="#a92310"/><stop offset="1" stop-color="#540f22"/></linearGradient><linearGradient id="Áåçûìÿííûé_ãðàäèåíò_46-2" x1="11.22" y1="-76.58" x2="11.22" y2="-80.06" gradientTransform="translate(-13.43 105.52) rotate(21.96)" xlink:href="#Áåçûìÿííûé_ãðàäèåíò_46"/><linearGradient id="Áåçûìÿííûé_ãðàäèåíò_46-3" x1="16.73" y1="96.84" x2="16.73" y2="91.88" gradientTransform="matrix(1, -0.09, 0.05, 0.53, 14.62, -25.25)" xlink:href="#Áåçûìÿííûé_ãðàäèåíò_46"/><linearGradient id="Áåçûìÿííûé_ãðàäèåíò_46-4" x1="35.96" y1="-22.74" x2="35.96" y2="-26.57" gradientTransform="translate(-6.8 37.91) rotate(8.73)" xlink:href="#Áåçûìÿííûé_ãðàäèåíò_46"/></defs><g class="cls-1"><g id="Layer_2" data-name="Layer 2"><g id="space"><path class="cls-2" d="M56,30.59c0,14.56-11.74,26-26.45,26-15,0-28-11.82-29-26.85C-.41,14.19,11.9,1.58,27.84,2.07,43.51,2.56,56,15.54,56,30.59Z"/><path class="cls-3" d="M48.47,49.71C42,55.76,35.21,58.25,25,56.94S6,47.76,5.25,45.63s-1.14-3.92-1.18-4.09c.28.37,7.76,10.34,12.83,11.8s11.35-1.51,11.31-2.81,2.6-1.5,3.2-2.39-.51-.65,2.71-2.86c2.87-2,5.21-.17,5.46,1.46a1.8,1.8,0,0,1,0,.22h0a1.35,1.35,0,0,1,0,.35c-.31,1.73-1.14,2,.18,2.42s2.38,2.07,6.46,0a9.85,9.85,0,0,0,3-2.37,17.18,17.18,0,0,0,3.6-8.33c.74-4.17-.71-4.62-2.23-3.59s-4.32-1.89-5-2.4-3.41-.42-4.56.72-2.17,1.12-2.75.38-.9-.2-3,.09-3.32.79-3.49,1.57-2.33,3.62-6.32,4.86c-6.63,2.06-10.1-5.66-10.41-6.22A4,4,0,0,0,13,32.91,7.77,7.77,0,0,1,7.5,27.5c-1.06-4-.21-8.1-.31-9s-.48-.64-.6-2.83S7.77,10,8,8.9c0,0,6.13-7.25,18.08-7.3C38.65,1.55,52.2,9.75,55.44,23.46,58.4,36,55,43.62,48.47,49.71Z"/><path class="cls-4" d="M7.65,38.58h0l0,.5c-.1,1-.54,1.68-1.63,1.33C3.12,39.5-1.32,35,.38,23a9.79,9.79,0,0,1,1.23-3.58,8,8,0,0,1,.81-1.17l0-.05a28.59,28.59,0,0,0,1,4.56c.63,1.9.53.09.3,4.76s2.61,4.61,3.06,6.19A20,20,0,0,1,7.65,38.58Z"/><path class="cls-5" d="M7.66,10.14a11.48,11.48,0,0,0-.23,7.23s-1.31,7.44,1,11.23,6.2,3.68,7,4.34,1.59,7.48,8.13,7.4,7.48-5.06,8-5.74,4.78-2.3,6.05-2.31.7,1.63,1.79,1.61.78-1.27,3.51-1.61,2.88-.3,4.14,1.3,3,1.45,5.76.46,2.05,4.63.58,8.25a10.5,10.5,0,0,1-4.11,5.05s3-4.69,3.21-8.29c.23-4.38-1.3-2.88-4.07-3.25S45.8,32.16,42.5,33.6c-2.38,1-1.55,1.63-3.4,1.82s-4.8-1-6.11.4-5.25,5.78-9.42,5.82-7.16-4.72-9-7.16-5.18-.78-7-5.47-.19-8.76-1-10.76S5.85,13.77,7.66,10.14Z"/><path class="cls-6" d="M35.09,45.09c-2.41,1-2.56,3.32-3.75,3.92s-2.52.57-2.64,1.62-3.1,4.35-8.61,3.9S10.8,51.09,8,48a18.76,18.76,0,0,1-3.9-6.48c.28.37,7.76,10.34,12.83,11.8s11.35-1.51,11.31-2.81,2.6-1.5,3.2-2.39-.51-.65,2.71-2.86c2.87-2,5.21-.17,5.46,1.46A3.59,3.59,0,0,0,35.09,45.09Z"/><path class="cls-6" d="M49.25,47.4a10.87,10.87,0,0,1-1.91,2.14C46,50.7,42,51.74,41.72,51.48s-2.88-1.58-2.83-2.17.6-1.58.71-2.34a1.35,1.35,0,0,1,0,.35c-.31,1.73-1.14,2,.18,2.42s2.38,2.07,6.46,0A9.85,9.85,0,0,0,49.25,47.4Z"/><path class="cls-7" d="M7.65,38.58h0l0,.5a14.8,14.8,0,0,0-1.15-4.61c-.9-1.67-1.87-1.71-2.77-3.35s-.39-4.89-.41-6.64-1.62-4.83-1.69-5.1h0c-.06-.24.64-1,.81-1.17l0-.05a28.59,28.59,0,0,0,1,4.56c.63,1.9.53.09.3,4.76s2.61,4.61,3.06,6.19A20,20,0,0,1,7.65,38.58Z"/><path class="cls-8" d="M13.72,3.92s11.07-8.77,28-.08a26.13,26.13,0,0,1,14.8,24s.17.18-1,.76A3.55,3.55,0,0,1,52,28.51c-1.26-.62-1.77.32-2.42.42a9.13,9.13,0,0,1-6.3-3.12c-2.16-2.63-1.32-3-2.87-2.59s0,1.13-1.47,2.41-6,2.08-11.37-.34-6.25-3.26-8.06-5-2.22-3.92-5.5-3.61-3.15-5.32.54-8.77,0-2.53-.53-2.69S13.72,3.92,13.72,3.92Z"/><path class="cls-9" d="M56.54,27.38A5.31,5.31,0,0,1,53.1,28.5c-1.83-.19-1.77-1.31-3.05-.64s-4.1-.22-6.27-2.39S41.5,22.12,41,22s-1.58.89-1.82,1.24.84,4.84-9.39,2.26c-7.91-2-11.85-9-12.93-9.48s-3.85.86-4.71-1.71S16,7.22,16.37,5.79s-1.61-1.13-2.16-1.28-.53-.37-.53-.37a2.34,2.34,0,0,0-.07,1.14c.15.41,2.13.19,2,.73s-3.52,3.64-4.18,6.43S11.23,17,14,17.23s5.41,4.43,10.53,7.29,6.06,2.73,10.78,2.69,5.12-2.62,5.62-3.09,2,3,5.61,4.63,3.52.29,4.54.21,1.24.62,3,.67a2.14,2.14,0,0,0,2.18-1.51s.23-.14.24-.31S56.54,27.38,56.54,27.38Z"/><path class="cls-10" d="M17.43,6c-1.44.53-4.86,4.95-2.4,7.07s5,4.77,18.63,3.45c13.47-1.32,4.26-7.93,5.86-8.81,2.29-1.25,8.3,3.48,11.88,6.55S49.61,5.74,37,1.92C24.08-2,17.43,6,17.43,6Z"/><path class="cls-11" d="M30.66,35.24c1.46-2.79,8.92-4.56,5.66-5.19s-15.41-6.07-18.6-4-.29,11.18,1.4,12.36C23,41.12,27.9,40.47,30.66,35.24Z"/><path class="cls-11" d="M14.41,30.81c-.14,3.7-7.94-8.1-5-12s7.76,2.78,8,3.74S14.6,25.65,14.41,30.81Z"/><path class="cls-12" d="M31.42,53.11c-2.3-.73,1.26-7.7,4.75-7.36s2,2.92,2.6,3.9,1.67.58,1,1.51S35.37,54.35,31.42,53.11Z"/><path class="cls-13" d="M7.32,32.32c-1.22.39,1.49,6.18.95,8.21s-3.6.18-3.6.18a20.09,20.09,0,0,0,14,11.87c10.49,2.38,8.43-4.37,8.43-4.37a5.55,5.55,0,0,0,3.39-1.69c1.22-1.48.73-6.7.09-7.05S26,43.33,21.26,42.06,14.72,35.26,14,34.7,7.32,32.32,7.32,32.32Z"/><path class="cls-13" d="M33,42.75c-1.82-1.49-1.31-5.41,1.47-6.42s4.28,1,6.66-1.38,5.14-1.5,5.66,3.08-6.49,5-9.82,5.2S33,42.75,33,42.75Z"/><path class="cls-13" d="M41.35,48.59c-2.84-1.11,3.56-4.5,6.51-7.69S51.91,52.74,41.35,48.59Z"/><path class="cls-14" d="M23.27,21.21c-1.69-3.31,9.4-4,13.41-3.22s3.48,8-2.78,8.26S23.27,21.21,23.27,21.21Z"/><path class="cls-15" d="M53.2,16.26c-.08.47-.33.71-1,.2-1.57-1.28-5.79-2.29-6.67-.78s-1,2.79-9,1.57S20,14.74,22.7,10A15.46,15.46,0,0,0,25,3.86,2.83,2.83,0,0,0,22.34.59L25.5.08a1.44,1.44,0,0,1,.66,0h0A4,4,0,0,1,28,.77c.33.52.71,2.38-.59,6.34s.16,6.21,5.86,7.9,9.9.23,12-1,4.56.73,5.69.67.72-2.46.72-2.46v0l1.38,2.12A6.89,6.89,0,0,1,53.2,16.26Z"/><path class="cls-9" d="M51.84,15.11c-1.07.26-2.38-1.27-5.2-1S44.11,16.62,40,16.59s-12.4-1.84-13-4.62,1.36-7.54.92-9.9a2.42,2.42,0,0,0-1.68-2A4,4,0,0,1,28,.77c.33.52.71,2.38-.59,6.34s.16,6.21,5.86,7.9,9.9.23,12-1,4.56.73,5.69.67.72-2.46.72-2.46v0C51.77,12.44,52.86,14.87,51.84,15.11Z"/><path class="cls-16" d="M53.2,16.26c-.08.47-.33.71-1,.2-1.57-1.28-5.79-2.29-6.67-.78s-1,2.79-9,1.57S20,14.74,22.7,10A15.46,15.46,0,0,0,25,3.86S25.33,5,24,8.05s-2.38,4.41,1.37,6.43,15.75,3.46,18,2.93,1-2.05,3.48-2.66S52.52,17,53.2,16.26Z"/><path class="cls-14" d="M47.41,15.76c-1.84-.08-4.1,6.73,2.55,9.41s3.43-7,1.7-8.56A4.84,4.84,0,0,0,47.41,15.76Z"/><path class="cls-14" d="M47.84,29.88c-4.42.25-.49,4.42,2.6,3.87S53,29.59,47.84,29.88Z"/><path class="cls-17" d="M17,28c-1.14,1.21-.93,9.06,3.7,7.63S20.54,24.26,17,28Z"/><path class="cls-16" d="M16.52,31.72a3.91,3.91,0,0,0,2.57,3.76c3,1,3.78-2.33,3.33-4.31a5.69,5.69,0,0,1,.11,3c-.35,2.1-2.36,2-3.37,1.54A4.15,4.15,0,0,1,16.52,31.72Z"/><path class="cls-9" d="M16.49,29.78s.85-2.46,2.93-1.87,3,3.26,3,3.26-1.32-4-3.51-4A2.46,2.46,0,0,0,16.49,29.78Z"/><path class="cls-18" d="M25.85,35.4c-.63.28-1.82,3.23.21,3.39S27.8,34.54,25.85,35.4Z"/><path class="cls-16" d="M25.05,36.71a1.63,1.63,0,0,0,.47,1.76c.86.78,1.77-.29,1.91-1.09A2.17,2.17,0,0,1,27,38.5c-.43.76-1.14.47-1.65.1S24.68,37.66,25.05,36.71Z"/><path class="cls-9" d="M25.35,36s.73-.78,1.44-.26a2.12,2.12,0,0,1,.64,1.66s.12-1.67-.72-2A1.06,1.06,0,0,0,25.35,36Z"/><path class="cls-19" d="M34.26,22.6c-.62.42-.44,2.82,2.14,2.19S36.16,21.32,34.26,22.6Z"/><path class="cls-16" d="M34,23.77s.06.78,1.55,1,2-.83,1.73-1.43c0,0,.24.23.14.9s-1.14.73-2,.67S34.09,24.54,34,23.77Z"/><path class="cls-9" d="M34,23.17a2.19,2.19,0,0,1,1.65-.38,3,3,0,0,1,1.67.55,2.47,2.47,0,0,0-2-1.07C34.07,22.37,34,23,34,23.17Z"/><path class="cls-20" d="M36,17.05a17.4,17.4,0,0,0,4.69.67c3.22.14,3.59-.48,3.59-.48A28.06,28.06,0,0,1,36,17.05Z"/><path class="cls-12" d="M2,36.87c-.7-.65-2.07-7.64-1.4-9.44s3,5.65,5.63,7.5S6.1,43.56,2,36.87Z"/><path class="cls-21" d="M16.41,36.93s2.16,4.28,6.63,4.78,7.24-3.33,7.24-3.33-2.64,4.18-7.12,3.92S16.41,36.93,16.41,36.93Z"/><path class="cls-21" d="M36,35.19a10.75,10.75,0,0,0,4,.05c1.29-.45.93-1,2.52-1.64a4.78,4.78,0,0,0-1.69,1.63C40,36.45,36,35.19,36,35.19Z"/><path class="cls-21" d="M29.47,3.38c-1,1.81,3.46,1.75,4,.55S30.93.7,29.47,3.38Z"/><path class="cls-21" d="M19.57,6.55c-.06,1.38,1.28.67,1.65-.2S19.6,6,19.57,6.55Z"/><path class="cls-21" d="M10.52,36.63c-1.26.67.55,3.93,2.51,3.56S11.87,35.92,10.52,36.63Z"/><path class="cls-22" d="M29.63,17.1c-.57.15-.53,1.92,2.1,3.45a2.69,2.69,0,0,0,4.16-1.8C36,17.89,32.13,16.45,29.63,17.1Z"/><path class="cls-9" d="M29.37,18s-.27-1.26,3.46-.51,2.76,2.1,2.76,2.1.56-.73.34-1.09A7.16,7.16,0,0,0,31.82,17C29.75,16.86,29.17,17,29.37,18Z"/><path class="cls-16" d="M29.5,18.37a4.79,4.79,0,0,0,2.76,2.17,2.62,2.62,0,0,0,3.19-.75,2.51,2.51,0,0,1-2.62,1.28A4.67,4.67,0,0,1,29.5,18.37Z"/><path class="cls-20" d="M22.85,9.75s-.58,2.07.49,3.31a9.82,9.82,0,0,0,2.49,2s-2.92-.88-3.41-2.36A3.81,3.81,0,0,1,22.85,9.75Z"/><path class="cls-23" d="M32.33,46.62s0,.14,1.54-.79a12.37,12.37,0,0,0,1.94-1.31A7.5,7.5,0,0,0,32.33,46.62Z"/></g></g></g></svg>