<svg xmlns="http://www.w3.org/2000/svg" xmlns:xlink="http://www.w3.org/1999/xlink" viewBox="0 0 326 394.83"><defs><style>.cls-1{isolation:isolate;}.cls-10,.cls-11,.cls-12,.cls-13,.cls-16,.cls-17,.cls-19,.cls-2,.cls-21,.cls-23,.cls-3,.cls-30,.cls-4,.cls-6,.cls-7,.cls-8,.cls-9{fill-rule:evenodd;}.cls-2{fill:url(#Áåçûìÿííûé_ãðàäèåíò_129);}.cls-3{fill:url(#Áåçûìÿííûé_ãðàäèåíò_104);}.cls-4{fill:url(#Áåçûìÿííûé_ãðàäèåíò_112);}.cls-5{fill:#3c107b;}.cls-6{fill:#31165f;}.cls-7{fill:#0054b5;}.cls-8{fill:url(#Áåçûìÿííûé_ãðàäèåíò_129-2);}.cls-15,.cls-18,.cls-9{fill:#fff;}.cls-10{fill:url(#Áåçûìÿííûé_ãðàäèåíò_129-3);}.cls-11{fill:url(#Áåçûìÿííûé_ãðàäèåíò_129-4);}.cls-12{fill:url(#Áåçûìÿííûé_ãðàäèåíò_129-5);}.cls-13{fill:url(#Áåçûìÿííûé_ãðàäèåíò_129-6);}.cls-14{fill:#77439f;}.cls-16{fill:#ff935f;}.cls-17{fill:url(#Áåçûìÿííûé_ãðàäèåíò_176);}.cls-18,.cls-25{mix-blend-mode:soft-light;}.cls-19{fill:url(#Áåçûìÿííûé_ãðàäèåíò_220);}.cls-20,.cls-22,.cls-24,.cls-26,.cls-27,.cls-28{mix-blend-mode:screen;}.cls-20{fill:url(#Áåçûìÿííûé_ãðàäèåíò_217);}.cls-21{fill:url(#Áåçûìÿííûé_ãðàäèåíò_220-2);}.cls-22{fill:url(#Áåçûìÿííûé_ãðàäèåíò_217-2);}.cls-23{fill:url(#Áåçûìÿííûé_ãðàäèåíò_220-3);}.cls-24{fill:url(#Áåçûìÿííûé_ãðàäèåíò_217-3);}.cls-26{fill:url(#Áåçûìÿííûé_ãðàäèåíò_266);}.cls-27{fill:url(#Áåçûìÿííûé_ãðàäèåíò_266-2);}.cls-28{fill:url(#Áåçûìÿííûé_ãðàäèåíò_266-3);}.cls-29{fill:url(#linear-gradient);}.cls-30{fill:#31c7ff;}</style><linearGradient id="Áåçûìÿííûé_ãðàäèåíò_129" x1="176.6" y1="72.03" x2="176.6" y2="2.46" gradientUnits="userSpaceOnUse"><stop offset="0" stop-color="#ffff29"/><stop offset="1" stop-color="#ff7e59"/></linearGradient><radialGradient id="Áåçûìÿííûé_ãðàäèåíò_104" cx="175.31" cy="-3780.26" r="77.52" gradientTransform="translate(0 5393.03) scale(1 1.4)" gradientUnits="userSpaceOnUse"><stop offset="0.02" stop-color="#8343b0"/><stop offset="0.4" stop-color="#7937aa"/><stop offset="0.99" stop-color="#611b9c"/></radialGradient><radialGradient id="Áåçûìÿííûé_ãðàäèåíò_112" cx="169.71" cy="2188.7" r="119.34" gradientTransform="translate(0 -1384.95) scale(1 0.66)" gradientUnits="userSpaceOnUse"><stop offset="0" stop-color="#d4cfff"/><stop offset="1" stop-color="#8d6fc7"/></radialGradient><linearGradient id="Áåçûìÿííûé_ãðàäèåíò_129-2" x1="178.98" y1="108.18" x2="178.98" y2="104.07" xlink:href="#Áåçûìÿííûé_ãðàäèåíò_129"/><linearGradient id="Áåçûìÿííûé_ãðàäèåíò_129-3" x1="227.31" y1="109.14" x2="227.31" y2="105.35" xlink:href="#Áåçûìÿííûé_ãðàäèåíò_129"/><linearGradient id="Áåçûìÿííûé_ãðàäèåíò_129-4" x1="258.47" y1="113.93" x2="258.47" y2="111.5" xlink:href="#Áåçûìÿííûé_ãðàäèåíò_129"/><linearGradient id="Áåçûìÿííûé_ãðàäèåíò_129-5" x1="260.31" y1="108.99" x2="260.31" y2="105.2" gradientTransform="matrix(-1, 0, 0, 1, 395.55, 0)" xlink:href="#Áåçûìÿííûé_ãðàäèåíò_129"/><linearGradient id="Áåçûìÿííûé_ãðàäèåíò_129-6" x1="297.06" y1="113.69" x2="297.06" y2="111.26" gradientTransform="matrix(-1, 0, 0, 1, 395.55, 0)" xlink:href="#Áåçûìÿííûé_ãðàäèåíò_129"/><radialGradient id="Áåçûìÿííûé_ãðàäèåíò_176" cx="173.76" cy="-3819.25" r="45.98" gradientTransform="translate(0 5813.42) scale(1 1.51)" gradientUnits="userSpaceOnUse"><stop offset="0.02" stop-color="#725eb0"/><stop offset="0.38" stop-color="#6d52aa"/><stop offset="0.99" stop-color="#61349c"/></radialGradient><linearGradient id="Áåçûìÿííûé_ãðàäèåíò_220" x1="178.01" y1="89.7" x2="178.01" y2="86.46" gradientUnits="userSpaceOnUse"><stop offset="0" stop-color="#8dc7ff"/><stop offset="0.32" stop-color="#5c4d86"/></linearGradient><radialGradient id="Áåçûìÿííûé_ãðàäèåíò_217" cx="358.89" cy="-432.15" r="7.83" gradientTransform="matrix(1.37, -0.44, 0.53, 1.12, -83.92, 729.71)" gradientUnits="userSpaceOnUse"><stop offset="0" stop-color="#003cee"/><stop offset="0.06" stop-color="#0036d6"/><stop offset="0.2" stop-color="#00289e"/><stop offset="0.34" stop-color="#001c6d"/><stop offset="0.48" stop-color="#001246"/><stop offset="0.62" stop-color="#000a27"/><stop offset="0.75" stop-color="#000412"/><stop offset="0.88" stop-color="#000104"/><stop offset="1"/></radialGradient><linearGradient id="Áåçûìÿííûé_ãðàäèåíò_220-2" x1="294.35" y1="93.99" x2="294.35" y2="90.75" xlink:href="#Áåçûìÿííûé_ãðàäèåíò_220"/><radialGradient id="Áåçûìÿííûé_ãðàäèåíò_217-2" cx="431.36" cy="-400.26" r="7.83" xlink:href="#Áåçûìÿííûé_ãðàäèåíò_217"/><linearGradient id="Áåçûìÿííûé_ãðàäèåíò_220-3" x1="67.39" y1="93.99" x2="67.39" y2="90.75" xlink:href="#Áåçûìÿííûé_ãðàäèåíò_220"/><radialGradient id="Áåçûìÿííûé_ãðàäèåíò_217-3" cx="287.47" cy="-456" r="7.83" xlink:href="#Áåçûìÿííûé_ãðàäèåíò_217"/><radialGradient id="Áåçûìÿííûé_ãðàäèåíò_266" cx="479.58" cy="-436.55" r="8.72" gradientTransform="translate(-1102.56 747.66) scale(2.67 1.47)" gradientUnits="userSpaceOnUse"><stop offset="0" stop-color="#ff9a00"/><stop offset="0.09" stop-color="#d68100"/><stop offset="0.23" stop-color="#9e5f00"/><stop offset="0.36" stop-color="#6e4200"/><stop offset="0.5" stop-color="#462a00"/><stop offset="0.63" stop-color="#271800"/><stop offset="0.76" stop-color="#120b00"/><stop offset="0.89" stop-color="#040300"/><stop offset="1"/></radialGradient><radialGradient id="Áåçûìÿííûé_ãðàäèåíò_266-2" cx="462.85" cy="-434.99" r="3.13" xlink:href="#Áåçûìÿííûé_ãðàäèåíò_266"/><radialGradient id="Áåçûìÿííûé_ãðàäèåíò_266-3" cx="508.72" cy="-431.86" r="3.13" xlink:href="#Áåçûìÿííûé_ãðàäèåíò_266"/><linearGradient id="linear-gradient" x1="163" y1="394.83" x2="163" y2="116.11" gradientUnits="userSpaceOnUse"><stop offset="0.32" stop-color="#666" stop-opacity="0"/><stop offset="0.38" stop-color="#63696a" stop-opacity="0.03"/><stop offset="0.47" stop-color="#5b7076" stop-opacity="0.11"/><stop offset="0.58" stop-color="#4d7c8a" stop-opacity="0.25"/><stop offset="0.7" stop-color="#3a8ca5" stop-opacity="0.44"/><stop offset="0.84" stop-color="#21a1c8" stop-opacity="0.68"/><stop offset="0.98" stop-color="#03baf2" stop-opacity="0.97"/><stop offset="1" stop-color="#00bdf7"/></linearGradient></defs><g class="cls-1"><g id="Layer_2" data-name="Layer 2"><g id="space_background" data-name="space background"><path class="cls-2" d="M90.28,69.52S127.7,5,173.48,2.53C221,0,262.91,72,262.91,72Z"/><path class="cls-3" d="M320.3,96.6c-.72,2.4-52.76,24.73-141.31,24.73-81.79,0-142.12-21-141.31-24.73C38.25,94,100.94,85.23,179,85.23S320.84,94.8,320.3,96.6Z"/><path class="cls-4" d="M37.68,96.6S78.74,57,173.48,57,320.3,96.6,320.3,96.6s-38.87-9-146.82-9C87.27,87.6,37.68,96.6,37.68,96.6Z"/><path class="cls-5" d="M292.27,107.51l-.59-.18c.52-1.71-2.57-3.11-5.25-4-18.21-5.91-76.06-7.92-122.09-7.3-57.6.79-97.65,5.28-99.67,11.19l-.59-.2c2.59-7.59,53.48-11,100.25-11.61,46.08-.63,104,1.39,122.29,7.33C291,104.17,292.82,105.73,292.27,107.51Z"/><path class="cls-6" d="M121.16,117.85s48.1-6.32,112.34.52C233.5,118.37,176,124.66,121.16,117.85Z"/><path class="cls-7" d="M126.85,118.37s45.24-5.76,100.75.62C227.6,119,175.46,124.94,126.85,118.37Z"/><path class="cls-8" d="M188.52,106.12c0,1.14-4.27,2.06-9.54,2.06s-9.54-.92-9.54-2.06a.65.65,0,0,1,.24-.46c1-.91,4.77-1.59,9.3-1.59,4,0,7.33.51,8.79,1.25C188.25,105.57,188.52,105.84,188.52,106.12Z"/><path class="cls-9" d="M187.77,105.34c0,1-4.08,1.76-9.12,1.76-4.46,0-8.17-.62-9-1.44,1-.91,4.77-1.59,9.3-1.59,4,0,7.33.51,8.79,1.25Z"/><path class="cls-10" d="M233.41,107.25c0,1-2.73,1.89-6.1,1.89-2.78,0-5.12-.58-5.85-1.37h0a.77.77,0,0,1-.23-.52.7.7,0,0,1,.15-.42c.62-.85,3-1.48,5.94-1.48a14.59,14.59,0,0,1,4.5.62,3.9,3.9,0,0,1,1.12.54A1,1,0,0,1,233.41,107.25Z"/><path class="cls-9" d="M232.06,106.5c0,1-2.73,1.89-6.1,1.89a14.64,14.64,0,0,1-4.5-.62h0a.77.77,0,0,1-.23-.52.7.7,0,0,1,.15-.42c.62-.85,3-1.48,5.94-1.48a14.59,14.59,0,0,1,4.5.62A.75.75,0,0,1,232.06,106.5Z"/><path class="cls-11" d="M263.41,112.72c0,.66-2.21,1.21-4.94,1.21-2.25,0-4.15-.37-4.75-.88h0a.44.44,0,0,1-.19-.33.38.38,0,0,1,.13-.28c.49-.54,2.46-.94,4.81-.94a14.52,14.52,0,0,1,3.65.4,3.78,3.78,0,0,1,.9.34C263.27,112.39,263.41,112.55,263.41,112.72Z"/><path class="cls-9" d="M262.32,112.24c0,.67-2.22,1.21-4.95,1.21a15,15,0,0,1-3.65-.4h0a.44.44,0,0,1-.19-.33.38.38,0,0,1,.13-.28c.49-.54,2.46-.94,4.81-.94a14.52,14.52,0,0,1,3.65.4A.46.46,0,0,1,262.32,112.24Z"/><path class="cls-12" d="M129.15,107.1c0,1.05,2.73,1.89,6.1,1.89,2.78,0,5.12-.58,5.86-1.37h0a.77.77,0,0,0,.23-.52.7.7,0,0,0-.15-.42c-.62-.85-3-1.48-5.94-1.48a14.59,14.59,0,0,0-4.5.62,4.33,4.33,0,0,0-1.12.54A1,1,0,0,0,129.15,107.1Z"/><path class="cls-9" d="M130.5,106.35c0,1.05,2.73,1.89,6.1,1.89a14.41,14.41,0,0,0,4.51-.62h0a.77.77,0,0,0,.23-.52.7.7,0,0,0-.15-.42c-.62-.85-3-1.48-5.94-1.48a14.59,14.59,0,0,0-4.5.62A.79.79,0,0,0,130.5,106.35Z"/><path class="cls-13" d="M93.55,112.48c0,.66,2.21,1.21,4.94,1.21,2.25,0,4.15-.38,4.75-.88h0a.48.48,0,0,0,.19-.33.38.38,0,0,0-.13-.28c-.49-.54-2.46-.94-4.81-.94a14.47,14.47,0,0,0-3.65.4,3.62,3.62,0,0,0-.9.34C93.69,112.15,93.55,112.31,93.55,112.48Z"/><path class="cls-9" d="M94.64,112c0,.66,2.21,1.21,5,1.21a15,15,0,0,0,3.65-.4h0a.48.48,0,0,0,.19-.33.38.38,0,0,0-.13-.28c-.49-.54-2.46-.94-4.81-.94a14.47,14.47,0,0,0-3.65.4A.46.46,0,0,0,94.64,112Z"/><path class="cls-14" d="M298.2,84.3C237,58.18,174.85,59.29,133.52,64.81,88.73,70.8,58,83.13,57.73,83.25l-.24-.58c.31-.12,31.07-12.47,75.93-18.47,41.41-5.54,103.66-6.65,165,19.52Z"/><path class="cls-5" d="M37.74,96.9l-.13-.61c.42-.09,42.58-8.92,143.54-8.92S320,96.2,320.37,96.29l-.14.61C319.86,96.81,282,88,181.15,88S38.16,96.81,37.74,96.9Z"/><path class="cls-14" d="M69,92.6l-.43-.46c.17-.16,17.22-16,30-21.63l.26.57C86.14,76.7,69.17,92.44,69,92.6Z"/><path class="cls-14" d="M294.17,93.06c-19.54-16-48.64-25.13-48.93-25.22l.18-.6c.3.09,29.51,9.21,49.15,25.33Z"/><path class="cls-15" d="M196.78,11.34s3.71,4.19,10.92,12l6.83.09s-3.76-6.43-14-12.13Z"/><path class="cls-15" d="M91.79,67.05s41.1-65.23,86.14-63.77S259.8,67.05,259.8,67.05,219.39,0,179,0C132.46,0,91.79,67.05,91.79,67.05Z"/><path class="cls-16" d="M121.46,59.59s23.92-15.27,57.79-16.92S237.63,59.1,237.63,59.1,178.09,46.42,121.46,59.59Z"/><path class="cls-15" d="M100,60.84s9.06-13.83,20.16-24l3.92-.92s-11.32,14.36-15.22,22.41Z"/><path class="cls-17" d="M90.28,69.52l2-3.1s103.45-30.84,167.57.63l1.9,3s-28.84-11.76-87.2-11.76S90.28,69.52,90.28,69.52Z"/><path class="cls-18" d="M102,90.74S171.72,84,277.83,92C277.83,92,203.65,86.55,102,90.74Z"/><path class="cls-19" d="M180,88.08a2,2,0,1,1-2-1.62A1.83,1.83,0,0,1,180,88.08Z"/><path class="cls-9" d="M179.57,88.08A1.59,1.59,0,1,1,178,86.8,1.44,1.44,0,0,1,179.57,88.08Z"/><path class="cls-20" d="M189.38,84.67c2.3,4.86-.65,10.32-6.58,12.21s-12.6-.53-14.9-5.39.65-10.32,6.58-12.21S187.08,79.81,189.38,84.67Z"/><path class="cls-21" d="M296.33,92.37a2,2,0,1,1-2-1.62A1.83,1.83,0,0,1,296.33,92.37Z"/><path class="cls-9" d="M295.91,92.37a1.59,1.59,0,1,1-1.56-1.28A1.45,1.45,0,0,1,295.91,92.37Z"/><path class="cls-22" d="M305.72,89c2.3,4.86-.64,10.32-6.58,12.21s-12.6-.54-14.9-5.39.65-10.32,6.58-12.21S303.42,84.1,305.72,89Z"/><path class="cls-23" d="M69.37,92.37a2,2,0,1,1-2-1.62A1.83,1.83,0,0,1,69.37,92.37Z"/><path class="cls-9" d="M69,92.37a1.58,1.58,0,1,1-1.56-1.28A1.44,1.44,0,0,1,69,92.37Z"/><path class="cls-24" d="M78.76,89c2.3,4.86-.64,10.32-6.57,12.21s-12.61-.54-14.9-5.39.64-10.32,6.57-12.21S76.47,84.1,78.76,89Z"/><g class="cls-25"><path class="cls-9" d="M172.69,74.82a1.45,1.45,0,0,0,.92.29,5.4,5.4,0,0,0,.58-.09l.54,0a3.44,3.44,0,0,0,.83-.13c.15,0,0-.11-.14-.14a2.37,2.37,0,0,0-.49-.09,5.39,5.39,0,0,1-.7,0l-.26,0h-.39C173.31,74.55,172.79,74.63,172.69,74.82Z"/><path class="cls-9" d="M176.39,75.28a.57.57,0,0,1-.3,0c0-.17.87-.23,1-.07s-.45.21-.74.15Z"/><path class="cls-9" d="M181.91,78.42c-.11-.09-.26-.17-.2-.26a.6.6,0,0,1,.34-.21,3.59,3.59,0,0,1,.71-.13,1.51,1.51,0,0,1,.37,0,1.54,1.54,0,0,1,1,.46.81.81,0,0,1,.21.31.63.63,0,0,0,.08.23c0,.06.09.12.05.18a.71.71,0,0,1-.21.15,2.08,2.08,0,0,1-1,.19,2.56,2.56,0,0,1-1.48-.53C181.62,78.61,181.34,78.34,181.91,78.42Z"/><path class="cls-9" d="M181,77.6c.2,0,.25.05.36,0a.1.1,0,0,0,0-.16.85.85,0,0,0-.67-.13c-.12,0-.34.11-.35.17s.38.25.63.24Z"/><path class="cls-9" d="M187.54,74.19h1.08c.49,0,1,0,1.47,0s.71,0,1.06,0l.54,0-.14,0-.42-.07-.9-.18-.17,0-.18-.07a1.9,1.9,0,0,0-.36-.09,6.63,6.63,0,0,0-1,0l-.34,0h-.35a3.88,3.88,0,0,0-.72.11c-.26.06-.71.12-.79.26s.15.08.28.09l.5,0Z"/><path class="cls-9" d="M185.23,74.05c-.12,0-.35-.07-.31-.14s.3-.07.44-.06c.34,0,0,.19-.23.17Z"/><path class="cls-9" d="M187.36,72.76a1.75,1.75,0,0,0,.4,0c.21,0,.3-.08.3-.16s-.06-.2-.38-.23a1.7,1.7,0,0,0-.63.1.14.14,0,0,0-.11.1c0,.07.14.11.28.14Z"/><path class="cls-9" d="M197.11,70a2.14,2.14,0,0,1-.53-.57,1.9,1.9,0,0,1-.09-.53,2.94,2.94,0,0,0-.42-.71.59.59,0,0,1-.08-.64,1.25,1.25,0,0,1,.77-.41,6.18,6.18,0,0,1,.78-.09h.37l.23,0c.12,0,.12,0,.12.07s0,.14-.14.22a.83.83,0,0,0-.31.38,3.26,3.26,0,0,0-.18.38l-.12.38c0,.11-.09.22-.13.32s0,.22,0,.33,0,.18,0,.27a1,1,0,0,0,0,.17.69.69,0,0,1,0,.13s0,.08,0,.12A.66.66,0,0,1,197.11,70Z"/><path class="cls-9" d="M195.08,68.87a.52.52,0,0,0,.2.07h.15a.22.22,0,0,0,.22-.22c0-.18-.15-.39-.48-.53a2.33,2.33,0,0,0-.91-.13.93.93,0,0,0-.77.37c-.08.15-.1.35.19.47a1.41,1.41,0,0,0,.39.08l.34,0a2.16,2.16,0,0,0,.44,0A.5.5,0,0,0,195.08,68.87Z"/><path class="cls-9" d="M195.12,67.78a.49.49,0,0,1-.25,0c-.09,0-.13,0-.1-.1a.52.52,0,0,1,.42-.08.22.22,0,0,1,.17.12s-.08.1-.21.11Z"/><path class="cls-9" d="M185,66.37a.43.43,0,0,0,.28.14.69.69,0,0,0,.25,0,1.13,1.13,0,0,0,.55-.25c.07-.07.05-.16,0-.22a2.18,2.18,0,0,0-.37-.15l-.35-.1a1.33,1.33,0,0,0-.69,0c-.22.06-.39.17-.37.27s.08.13.18.2S184.58,66.36,185,66.37Z"/><path class="cls-9" d="M186,66.74a.33.33,0,0,1,.11-.16c.07,0,.1,0,.17,0s.08.09.08.12,0,.08-.13.11-.14,0-.16,0Z"/><path class="cls-9" d="M194.21,71.66a.88.88,0,0,0,.51,0c.16-.06.13-.17.05-.23a.29.29,0,0,0-.2-.09c-.11,0-.23,0-.33,0-.27,0-.45-.1-.71,0-.1,0-.18.12-.16.18s.33.15.56.19Z"/><path class="cls-9" d="M203.88,79.93a.94.94,0,0,0,.43.31h.12a1.79,1.79,0,0,0,.61,0c.6-.12.52-.37.52-.59s.07-.53-.77-.43a4.66,4.66,0,0,0-1.25.26c-.12.07-.07.11,0,.18a1,1,0,0,0,.34.28Z"/><path class="cls-9" d="M263.32,95a.87.87,0,0,0,.43.31h.12a2.08,2.08,0,0,0,.61,0c.6-.12.52-.36.52-.59s.07-.53-.77-.42a4.68,4.68,0,0,0-1.25.25c-.12.08-.07.11,0,.18a1,1,0,0,0,.34.28Z"/><path class="cls-9" d="M204.83,77.23c-.17,0-.48-.09-.51-.18s.09-.1.19-.16a1.09,1.09,0,0,1,.9-.11c.17,0,.29.18.25.27a.64.64,0,0,1-.52.18Z"/><path class="cls-9" d="M152,65.93a2.18,2.18,0,0,0,1,0,4.43,4.43,0,0,0,1-.17c.36-.13.27-.32.36-.49s.1-.21-.13-.32a3.86,3.86,0,0,0-.89-.3,10.48,10.48,0,0,0-3.62,0,3.25,3.25,0,0,0-1.72.61c-.19.26,0,.56.47.74a5,5,0,0,0,1.94.18l.47,0c.21,0,.41,0,.62,0A.65.65,0,0,0,152,65.93Z"/><path class="cls-9" d="M94,96.19a2.34,2.34,0,0,0,1,0,4.25,4.25,0,0,0,1-.17c.36-.13.27-.32.37-.49s.09-.21-.14-.32a3.71,3.71,0,0,0-.89-.3,10.47,10.47,0,0,0-3.62,0,3.29,3.29,0,0,0-1.72.61c-.18.26,0,.56.48.74a5,5,0,0,0,1.93.18l.48,0c.2,0,.41,0,.61,0A.69.69,0,0,0,94,96.19Z"/><path class="cls-9" d="M153.79,66.43a1.17,1.17,0,0,1,.74-.18,2,2,0,0,1,.42,0c.22,0,.45.15.43.24s-.37.18-.52.21a1.1,1.1,0,0,1-.54,0Z"/><path class="cls-9" d="M153.69,83.66a2,2,0,0,0,1.09-.08c.18-.12,0-.29-.2-.39a4.53,4.53,0,0,0-1.42-.31c-.48,0-1,.2-1,.38-.12.35,1.32.54,2,.56Z"/><path class="cls-9" d="M151.14,104.94a1.85,1.85,0,0,0,1.09-.08c.18-.11,0-.28-.19-.38a4.59,4.59,0,0,0-1.42-.31,1.27,1.27,0,0,0-1.06.37c-.11.36,1.32.55,2,.57Z"/><path class="cls-9" d="M157.88,83.9a2.43,2.43,0,0,1-.55.09c-.06,0-.08,0-.12,0-.19,0-.35-.1-.38-.18s.08-.32.47-.4a1.32,1.32,0,0,1,.74,0c.23.1.34.29.05.39Z"/><path class="cls-9" d="M206.5,68.23a8.3,8.3,0,0,0,2.06,0,2.57,2.57,0,0,0,1.23-.25c.47-.43-1.94-.77-2.71-.85a11.63,11.63,0,0,0-2.05-.05,4.41,4.41,0,0,0-1.41.3c-.26.2.06.42.46.54a20.81,20.81,0,0,0,3.16.34Z"/><path class="cls-9" d="M206.35,68.45s.06.25.17.31a.85.85,0,0,0,.36.14,1.12,1.12,0,0,0,.54-.09c.09,0,.18-.1.12-.15a.78.78,0,0,0-.26-.1,3.65,3.65,0,0,0-.52-.11l-.26,0a1.46,1.46,0,0,0-.31,0Z"/><path class="cls-9" d="M212.22,68.7l.17-.15a1.33,1.33,0,0,1,.42,0,.14.14,0,0,1,0,.19.55.55,0,0,1-.36.1c-.2,0-.28-.07-.32-.14Z"/><path class="cls-9" d="M220.13,75.49a.92.92,0,0,0,.47,0c.22-.08.26-.2.08-.3a2.94,2.94,0,0,0-1.27-.23c-.28,0-.61.16-.44.27a1.4,1.4,0,0,0,.32.18,3.07,3.07,0,0,0,.79.11Z"/><path class="cls-9" d="M127.59,70.07a.85.85,0,0,0,.34.09,2,2,0,0,0,.55,0,1.13,1.13,0,0,0,.66-.45c.08-.14,0-.25-.18-.36a2.08,2.08,0,0,0-.93-.23,1.85,1.85,0,0,0-1,.15,1.21,1.21,0,0,0-.49.41c0,.13,0,.21.25.31A1.11,1.11,0,0,0,127.59,70.07Z"/><path class="cls-9" d="M128.9,68.92c-.1,0-.23,0-.26,0s.1-.17.21-.21a1.61,1.61,0,0,1,.41-.06.61.61,0,0,1,.24.08c.1,0,.12.11,0,.16a.47.47,0,0,1-.32.11Z"/><path class="cls-9" d="M115,72.42a1.75,1.75,0,0,0,.47,0,2.29,2.29,0,0,0,.62-.24c.21-.13.37-.28.33-.43s-.33-.21-.59-.23a3.58,3.58,0,0,0-1,.1c-.49.14-.88.39-.83.64S115.15,72.51,115,72.42Z"/><path class="cls-9" d="M117.53,71.21a.62.62,0,0,1-.26.07s-.16-.06-.2-.1,0-.1,0-.14a.72.72,0,0,1,.37-.09.34.34,0,0,1,.3.08c.06,0,.08,0,0,.1l-.16.08Z"/></g><ellipse class="cls-26" cx="179.99" cy="105.58" rx="23.32" ry="12.83"/><path class="cls-27" d="M143.63,107.87c0,2.54-3.75,4.61-8.38,4.61s-8.38-2.07-8.38-4.61,3.75-4.61,8.38-4.61S143.63,105.32,143.63,107.87Z"/><path class="cls-28" d="M266.3,112.47c0,2.55-3.75,4.61-8.38,4.61s-8.38-2.06-8.38-4.61,3.75-4.61,8.38-4.61S266.3,109.93,266.3,112.47Z"/><path class="cls-29" d="M138.07,116.9,0,291.33l326,103.5L216.1,117.12S159.17,115,138.07,116.9Z"/><path class="cls-30" d="M137.37,117.23s52.19,4.24,78,.23C215.4,117.46,167.88,114.58,137.37,117.23Z"/></g></g></g></svg>