<svg xmlns="http://www.w3.org/2000/svg" xmlns:xlink="http://www.w3.org/1999/xlink" viewBox="0 0 2002.5 117.5"><defs><style>.cls-1{isolation:isolate;}.cls-2{fill:url(#Áåçûìÿííûé_ãðàäèåíò_273);}.cls-3{fill:#db4254;}.cls-4{fill:#c8384b;}.cls-5{fill:url(#Áåçûìÿííûé_ãðàäèåíò_39);}.cls-6{fill:#ffb;opacity:0.5;mix-blend-mode:soft-light;}.cls-7{fill:#c28db9;opacity:0.24;mix-blend-mode:multiply;}.cls-8{fill:#cf3a54;}.cls-9{fill:#bb2f4b;}</style><linearGradient id="Áåçûìÿííûé_ãðàäèåíò_273" x1="1001.25" y1="117.5" x2="1001.25" y2="19.64" gradientUnits="userSpaceOnUse"><stop offset="0" stop-color="#d9485c"/><stop offset="1" stop-color="#e76056"/></linearGradient><linearGradient id="Áåçûìÿííûé_ãðàäèåíò_39" x1="1001.25" y1="19.64" x2="1001.25" gradientUnits="userSpaceOnUse"><stop offset="0" stop-color="#e76056"/><stop offset="1" stop-color="#d9485c"/></linearGradient></defs><g class="cls-1"><g id="Layer_2" data-name="Layer 2"><g id="space"><rect class="cls-2" y="19.64" width="2002.5" height="97.86"/><path class="cls-3" d="M840.38,76.45h0a1.18,1.18,0,0,1-.33.21c-2.83,1.38-8.62,5.19-24.39,3.89-6-.49-20.63-1.64-24.1-3.48h0c-.63-.33-.89-.66-.66-1,1.54-2,20.33-2.74,23.67-2.56s24.39,1.28,25.86,2.56C840.52,76.23,840.5,76.34,840.38,76.45Z"/><path class="cls-4" d="M840.38,76.45h0l-.33.21s-17.91-3.06-27.91-2.48a150.47,150.47,0,0,0-20.58,2.89h0c-.63-.33-.89-.66-.66-1,1.54-2,20.33-2.74,23.67-2.56s24.39,1.28,25.86,2.56C840.52,76.23,840.5,76.34,840.38,76.45Z"/><polygon class="cls-5" points="482.5 19.64 1282.5 19.64 2002.5 19.64 1615.5 11.75 1588.5 15.69 1572.19 13.44 1559.81 18.08 1474.13 17.77 1458.75 9.82 1338.51 17.29 1317.26 15.04 1314.42 11.28 1282.5 6.33 1251.83 14.63 1239.83 17.5 1212.17 17.5 1195.4 17.5 1180.1 13.5 1144.59 14.63 1136.83 17.5 1119.83 14.63 1106.67 10.54 1084.93 13.5 1084.93 17.5 1069.37 17.5 1030.17 17.5 1020 4.83 1009.33 6.33 1006.67 8.83 1003 9.17 1001 11.17 994.66 13.5 986.67 17.5 941.67 17.5 928.67 17.5 917.17 17.5 908 15.75 870 12.25 856.25 14.63 808.94 17.5 792.5 15.75 781.24 15.75 761.75 15.75 749.67 17.5 732 17.5 705.8 11.83 701.18 12.86 673.77 13.5 610.51 17.83 592.25 8.53 566.17 8.83 562.19 11.15 518.95 14.11 494.17 8.18 472.5 4.83 453.75 16.5 446.25 14.75 439.25 16.25 418 9 378.5 15.5 274.75 14.25 247.5 4.83 244.75 0 236 0 232.5 5.5 224 9.82 211.5 13.25 70.13 9.82 61.5 5.75 42.75 9.82 9.75 6.88 0 19.64 482.5 19.64"/><polygon class="cls-6" points="1088.88 15.2 1106.67 16.58 1113.13 13.5 1106.67 10.54 1084.93 13.5 1088.88 15.2"/><polygon class="cls-6" points="1144.59 14.63 1161.5 16.58 1176.33 15.2 1180.1 13.5 1144.59 14.63"/><polygon class="cls-6" points="1009.33 6.33 1017 8.08 1021.85 7.14 1020 4.83 1009.33 6.33"/><polygon class="cls-6" points="1003 9.17 1007.17 11.41 1010.83 10.29 1013.16 10.07 1006.67 8.83 1003 9.17"/><polygon class="cls-6" points="870 12.25 871.17 17.18 889.02 18.06 892.33 16.23 908 15.75 870 12.25"/><polygon class="cls-7" points="845.23 50.72 726.08 62.59 634.05 64.54 1177.33 67.91 834.78 79.24 770.12 67.91 751.48 68.57 735.4 68.57 668.51 75.18 645.46 79.63 719.81 83.07 965.83 102.5 1187.05 117.5 0 117.5 0 43.17 845.23 50.72"/><path class="cls-8" d="M1086.38,88.27l0,0a1.43,1.43,0,0,1-.33.39c-2.83,2.54-18.2,6.33-24.39,7.2-6,.85-20.63-3-24.1-6.45h0c-.63-.61-.89-1.21-.66-1.76,1.54-3.69,20.33-5.08,23.67-4.75s24.39,2.37,25.86,4.75A.55.55,0,0,1,1086.38,88.27Z"/><path class="cls-9" d="M1086.38,88.27l0,0-.33.39s-17.2-4.41-27.2-3.35a152.7,152.7,0,0,0-21.29,4.1h0c-.63-.61-.89-1.21-.66-1.76,1.54-3.69,20.33-5.08,23.67-4.75s24.39,2.37,25.86,4.75A.55.55,0,0,1,1086.38,88.27Z"/><path class="cls-8" d="M1327.57,56l0,0a1.27,1.27,0,0,1-.33.38c-2.83,2.55-18.2,6.34-24.39,7.21-6,.84-20.63-3-24.1-6.45h0c-.63-.62-.89-1.22-.66-1.77,1.54-3.68,20.33-5.08,23.67-4.75s24.39,2.37,25.86,4.75A.55.55,0,0,1,1327.57,56Z"/><path class="cls-9" d="M1327.57,56l0,0-.33.38S1310,52,1300,53.06a152.7,152.7,0,0,0-21.29,4.1h0c-.63-.62-.89-1.22-.66-1.77,1.54-3.68,20.33-5.08,23.67-4.75s24.39,2.37,25.86,4.75A.55.55,0,0,1,1327.57,56Z"/><path class="cls-8" d="M1693.37,34l0,0a1.43,1.43,0,0,1-.33.39c-2.83,2.54-18.2,6.33-24.39,7.2-6,.85-20.63-3-24.1-6.45h0c-.63-.61-.89-1.21-.66-1.77,1.54-3.68,20.33-5.08,23.67-4.74s24.39,2.36,25.86,4.74A.56.56,0,0,1,1693.37,34Z"/><path class="cls-9" d="M1693.37,34l0,0-.33.39s-17.19-4.41-27.19-3.35a153,153,0,0,0-21.3,4.1h0c-.63-.61-.89-1.21-.66-1.77,1.54-3.68,20.33-5.08,23.67-4.74s24.39,2.36,25.86,4.74A.56.56,0,0,1,1693.37,34Z"/><path class="cls-8" d="M540.22,92.78l0,0a1.43,1.43,0,0,1-.33.39c-2.83,2.54-18.2,6.33-24.39,7.2-6,.85-20.63-3-24.1-6.45h0c-.63-.61-.89-1.21-.66-1.77,1.54-3.68,20.33-5.08,23.67-4.74s24.39,2.36,25.86,4.74A.56.56,0,0,1,540.22,92.78Z"/><path class="cls-9" d="M540.22,92.78l0,0-.33.39s-17.2-4.41-27.2-3.35a152.7,152.7,0,0,0-21.29,4.1h0c-.63-.61-.89-1.21-.66-1.77,1.54-3.68,20.33-5.08,23.67-4.74s24.39,2.36,25.86,4.74A.56.56,0,0,1,540.22,92.78Z"/><path class="cls-8" d="M332.28,60.84l0,0a1.57,1.57,0,0,1-.33.38c-2.83,2.55-18.2,6.33-24.39,7.21-6,.84-20.63-3-24.1-6.46h0c-.63-.61-.89-1.21-.66-1.76,1.54-3.69,20.33-5.08,23.67-4.75s24.39,2.37,25.86,4.75A.55.55,0,0,1,332.28,60.84Z"/><path class="cls-9" d="M332.28,60.84l0,0-.33.38s-17.2-4.41-27.2-3.34A153.38,153.38,0,0,0,283.44,62h0c-.63-.61-.89-1.21-.66-1.76,1.54-3.69,20.33-5.08,23.67-4.75s24.39,2.37,25.86,4.75A.55.55,0,0,1,332.28,60.84Z"/><path class="cls-8" d="M88.07,94.61l0,0a1.43,1.43,0,0,1-.33.39c-2.83,2.54-18.2,6.33-24.39,7.2-6,.85-20.63-3-24.1-6.45h0c-.63-.61-.89-1.22-.66-1.77,1.54-3.68,20.33-5.08,23.67-4.74S86.62,91.62,88.09,94A.56.56,0,0,1,88.07,94.61Z"/><path class="cls-9" d="M88.07,94.61l0,0-.33.39s-17.2-4.41-27.2-3.35a152.7,152.7,0,0,0-21.29,4.1h0c-.63-.61-.89-1.22-.66-1.77,1.54-3.68,20.33-5.08,23.67-4.74S86.62,91.62,88.09,94A.56.56,0,0,1,88.07,94.61Z"/><path class="cls-3" d="M1075.93,36.56l-.09.14a3.66,3.66,0,0,1-1.07.85c-3.21,1.84-11.46,3.25-13,3.52-4.72.86-13-1.38-15.7-3.1-.9-.57-1.21-1.08-.64-1.41C1047.77,35.2,1077.27,34.24,1075.93,36.56Z"/><path class="cls-4" d="M1075.93,36.56l-.09.14-1.07.85s-1.92-1.56-2.55-1.56-12.81-.75-17.31,0a89.94,89.94,0,0,0-8.8,2h0c-.9-.57-1.21-1.08-.64-1.41C1047.77,35.2,1077.27,34.24,1075.93,36.56Z"/><path class="cls-3" d="M1506.93,87.36l-.09.14a3.66,3.66,0,0,1-1.07.85c-3.21,1.84-11.46,3.25-13,3.52-4.72.86-13-1.38-15.7-3.1-.9-.57-1.21-1.08-.64-1.41C1478.77,86,1508.27,85,1506.93,87.36Z"/><path class="cls-4" d="M1506.93,87.36l-.09.14-1.07.85s-1.92-1.56-2.55-1.56-12.81-.75-17.31,0a89.94,89.94,0,0,0-8.8,2h0c-.9-.57-1.21-1.08-.64-1.41C1478.77,86,1508.27,85,1506.93,87.36Z"/><path class="cls-3" d="M990,22.46l-.09.07a4.09,4.09,0,0,1-1.07.43c-3.21.92-11.46,1.62-13,1.76a56,56,0,0,1-15.7-1.55c-.9-.29-1.21-.54-.64-.71C961.86,21.78,991.36,21.3,990,22.46Z"/><path class="cls-4" d="M990,22.46l-.09.07-1.07.43a12.53,12.53,0,0,0-2.55-.78c-.62,0-12.81-.38-17.31,0s-8.8,1-8.8,1h0c-.9-.29-1.21-.54-.64-.71C961.86,21.78,991.36,21.3,990,22.46Z"/><path class="cls-3" d="M1528.42,27.19l-.09.07a4.54,4.54,0,0,1-1.07.42c-3.21.92-11.46,1.63-13,1.76a56,56,0,0,1-15.7-1.55c-.9-.28-1.21-.54-.64-.7C1500.26,26.51,1529.76,26,1528.42,27.19Z"/><path class="cls-4" d="M1528.42,27.19l-.09.07-1.07.42a12.53,12.53,0,0,0-2.55-.78c-.62,0-12.81-.37-17.31,0s-8.8,1-8.8,1h0c-.9-.28-1.21-.54-.64-.7C1500.26,26.51,1529.76,26,1528.42,27.19Z"/><path class="cls-3" d="M1720.92,27.19l-.09.07a4.54,4.54,0,0,1-1.07.42c-3.21.92-11.46,1.63-13,1.76a56,56,0,0,1-15.7-1.55c-.9-.28-1.21-.54-.64-.7C1692.76,26.51,1722.26,26,1720.92,27.19Z"/><path class="cls-4" d="M1720.92,27.19l-.09.07-1.07.42a12.53,12.53,0,0,0-2.55-.78c-.62,0-12.81-.37-17.31,0s-8.8,1-8.8,1h0c-.9-.28-1.21-.54-.64-.7C1692.76,26.51,1722.26,26,1720.92,27.19Z"/><path class="cls-3" d="M1699.41,103.32l-.09.07a4.54,4.54,0,0,1-1.07.42c-3.21.92-11.46,1.63-13,1.76a56,56,0,0,1-15.7-1.55c-.9-.28-1.21-.54-.64-.7C1671.25,102.64,1700.75,102.16,1699.41,103.32Z"/><path class="cls-4" d="M1699.41,103.32l-.09.07-1.07.42a12.53,12.53,0,0,0-2.55-.78c-.62,0-12.81-.37-17.31,0s-8.8,1-8.8,1h0c-.9-.28-1.21-.54-.64-.7C1671.25,102.64,1700.75,102.16,1699.41,103.32Z"/><path class="cls-3" d="M1114.68,84.06a13,13,0,0,1-3.76.65,14.72,14.72,0,0,1-3.74-.72h0c-.67-.27-1-.58-.35-.91,1-.53,7.2-.47,8.21.31C1115.32,83.63,1115.13,83.86,1114.68,84.06Z"/><path class="cls-4" d="M1114.68,84.06a15.18,15.18,0,0,0-2.2-.34,24.83,24.83,0,0,0-5.3.27h0c-.67-.27-1-.58-.35-.91,1-.53,7.2-.47,8.21.31C1115.32,83.63,1115.13,83.86,1114.68,84.06Z"/><path class="cls-3" d="M1055,24.34a13.39,13.39,0,0,1-3.76.65,14.72,14.72,0,0,1-3.74-.72h0c-.67-.27-1-.58-.35-.91,1-.54,7.2-.47,8.21.31C1055.61,23.91,1055.42,24.14,1055,24.34Z"/><path class="cls-4" d="M1055,24.34a15.18,15.18,0,0,0-2.2-.34,24.83,24.83,0,0,0-5.3.27h0c-.67-.27-1-.58-.35-.91,1-.54,7.2-.47,8.21.31C1055.61,23.91,1055.42,24.14,1055,24.34Z"/><path class="cls-3" d="M877.45,20.82a13,13,0,0,1-3.76.65,14.72,14.72,0,0,1-3.74-.72h0c-.67-.27-1-.58-.35-.91,1-.53,7.2-.47,8.21.31C878.09,20.39,877.9,20.62,877.45,20.82Z"/><path class="cls-4" d="M877.45,20.82a15.18,15.18,0,0,0-2.2-.34,24.83,24.83,0,0,0-5.3.27h0c-.67-.27-1-.58-.35-.91,1-.53,7.2-.47,8.21.31C878.09,20.39,877.9,20.62,877.45,20.82Z"/><path class="cls-3" d="M925,23.34a13,13,0,0,1-3.76.65,14.65,14.65,0,0,1-3.74-.71l0,0c-.67-.26-1-.58-.35-.9,1-.54,7.2-.48,8.21.3C925.68,22.91,925.49,23.14,925,23.34Z"/><path class="cls-4" d="M925,23.34a16.69,16.69,0,0,0-2.2-.34,24.5,24.5,0,0,0-5.3.28l0,0c-.67-.26-1-.58-.35-.9,1-.54,7.2-.48,8.21.3C925.68,22.91,925.49,23.14,925,23.34Z"/><path class="cls-8" d="M1031.65,87.15c-2.76,1.18-8.79,1.93-11,1.91a43.2,43.2,0,0,1-11-2.1l-.11,0c-2-.79-2.85-1.71-1-2.66,3-1.58,21.09-1.39,24,.9C1033.52,85.9,1033,86.57,1031.65,87.15Z"/><path class="cls-9" d="M1031.65,87.15a48.12,48.12,0,0,0-6.45-1,72.11,72.11,0,0,0-15.53.8l-.11,0c-2-.79-2.85-1.71-1-2.66,3-1.58,21.09-1.39,24,.9C1033.52,85.9,1033,86.57,1031.65,87.15Z"/><path class="cls-8" d="M1349.64,64.73c-2.75,1.18-8.79,1.93-11,1.91a43,43,0,0,1-11-2.1l-.12,0c-2-.79-2.84-1.7-1-2.66,3-1.57,21.09-1.39,24,.9C1351.52,63.47,1351,64.15,1349.64,64.73Z"/><path class="cls-9" d="M1349.64,64.73a47.9,47.9,0,0,0-6.44-1,71.79,71.79,0,0,0-15.53.81l-.12,0c-2-.79-2.84-1.7-1-2.66,3-1.57,21.09-1.39,24,.9C1351.52,63.47,1351,64.15,1349.64,64.73Z"/><path class="cls-8" d="M286.36,75c-2.75,1.18-8.79,1.93-11,1.91a43,43,0,0,1-11-2.1l-.12,0c-2-.79-2.84-1.71-1-2.66,3-1.58,21.09-1.39,24.05.9C288.24,73.77,287.68,74.44,286.36,75Z"/><path class="cls-9" d="M286.36,75a48,48,0,0,0-6.44-1,72.11,72.11,0,0,0-15.53.8l-.12,0c-2-.79-2.84-1.71-1-2.66,3-1.58,21.09-1.39,24.05.9C288.24,73.77,287.68,74.44,286.36,75Z"/><path class="cls-8" d="M67.87,51.4c-2.76,1.18-8.79,1.93-11,1.91a43.2,43.2,0,0,1-11-2.1l-.11,0c-2-.78-2.85-1.7-1-2.66,3-1.57,21.1-1.39,24,.9C69.74,50.14,69.19,50.82,67.87,51.4Z"/><path class="cls-9" d="M67.87,51.4a48.06,48.06,0,0,0-6.45-1,72.51,72.51,0,0,0-15.53.81l-.11,0c-2-.78-2.85-1.7-1-2.66,3-1.57,21.1-1.39,24,.9C69.74,50.14,69.19,50.82,67.87,51.4Z"/><path class="cls-8" d="M631.36,99c-2.75,1.18-8.79,1.93-11,1.91a43,43,0,0,1-11-2.1l-.12,0c-2-.79-2.84-1.71-1-2.66,3-1.58,21.09-1.39,24,.9C633.24,97.77,632.68,98.44,631.36,99Z"/><path class="cls-9" d="M631.36,99a48,48,0,0,0-6.44-1,72.11,72.11,0,0,0-15.53.8l-.12,0c-2-.79-2.84-1.71-1-2.66,3-1.58,21.09-1.39,24,.9C633.24,97.77,632.68,98.44,631.36,99Z"/><path class="cls-3" d="M949.62,41.65a8.94,8.94,0,0,1-3.76,1,10.17,10.17,0,0,1-3.74-1.12l0,0c-.67-.42-1-.91-.35-1.42,1-.84,7.2-.74,8.21.48C950.26,41,950.07,41.34,949.62,41.65Z"/><path class="cls-4" d="M949.62,41.65a10.9,10.9,0,0,0-2.2-.53,15.93,15.93,0,0,0-5.3.43l0,0c-.67-.42-1-.91-.35-1.42,1-.84,7.2-.74,8.21.48C950.26,41,950.07,41.34,949.62,41.65Z"/></g></g></g></svg>