<svg xmlns="http://www.w3.org/2000/svg" xmlns:xlink="http://www.w3.org/1999/xlink" viewBox="0 0 900 400"><defs><style>.cls-1{fill:none;}.cls-2{isolation:isolate;}.cls-3{clip-path:url(#clip-path);}.cls-4{fill:url(#Áåçûìÿííûé_ãðàäèåíò_26);}.cls-5{opacity:0.81;mix-blend-mode:screen;}.cls-6{fill:#ffe290;}</style><clipPath id="clip-path"><rect class="cls-1" width="900" height="400"/></clipPath><linearGradient id="Áåçûìÿííûé_ãðàäèåíò_26" x1="450" y1="400" x2="450" gradientUnits="userSpaceOnUse"><stop offset="0" stop-color="#ffffe9"/><stop offset="0.32" stop-color="#ffd88b"/><stop offset="0.76" stop-color="#fb5e57"/><stop offset="0.99" stop-color="#cc3b57"/></linearGradient></defs><g class="cls-2"><g id="space"><g class="cls-3"><rect class="cls-4" width="900" height="400"/><g class="cls-5"><circle class="cls-6" cx="507.96" cy="129.1" r="0.46"/><circle class="cls-6" cx="601.69" cy="89.51" r="0.46"/><path class="cls-6" d="M653.61,100a.46.46,0,1,0,.45-.46A.45.45,0,0,0,653.61,100Z"/><circle class="cls-6" cx="423.31" cy="209.24" r="0.46"/><path class="cls-6" d="M319.13,235.54a.46.46,0,0,0,.46.46.45.45,0,0,0,.46-.46.46.46,0,0,0-.46-.46A.47.47,0,0,0,319.13,235.54Z"/><path class="cls-6" d="M465.27,236a.46.46,0,0,0,.92,0,.46.46,0,0,0-.92,0Z"/><path class="cls-6" d="M266.24,192.37a.45.45,0,0,0,.46.46.46.46,0,0,0,.46-.46.47.47,0,0,0-.46-.46A.46.46,0,0,0,266.24,192.37Z"/><path class="cls-6" d="M277.63,257.44a.46.46,0,1,0,.46-.46A.47.47,0,0,0,277.63,257.44Z"/><path class="cls-6" d="M300,177.46a.46.46,0,1,0,.46-.46A.47.47,0,0,0,300,177.46Z"/><path class="cls-6" d="M630.09,309.15a.45.45,0,0,0,.46.46.46.46,0,1,0,0-.91A.45.45,0,0,0,630.09,309.15Z"/><path class="cls-6" d="M584.41,267.89a.47.47,0,0,0,.46.46.46.46,0,1,0,0-.92A.47.47,0,0,0,584.41,267.89Z"/><path class="cls-6" d="M588.59,331.05a.46.46,0,1,0,.46-.46A.46.46,0,0,0,588.59,331.05Z"/><path class="cls-6" d="M611,251.07a.46.46,0,1,0,.91,0,.46.46,0,1,0-.91,0Z"/><path class="cls-6" d="M615.13,180.52a.46.46,0,1,0,.45-.46A.45.45,0,0,0,615.13,180.52Z"/><path class="cls-6" d="M380.62,210.13a.46.46,0,0,0,.46.46.46.46,0,1,0-.46-.46Z"/><path class="cls-6" d="M335.39,234.46a.46.46,0,1,0,.46-.46A.47.47,0,0,0,335.39,234.46Z"/><path class="cls-6" d="M209.07,200.19a.46.46,0,1,0,.45-.46A.45.45,0,0,0,209.07,200.19Z"/><path class="cls-6" d="M167.56,222.08a.46.46,0,0,0,.46.46.46.46,0,1,0-.46-.46Z"/><circle class="cls-6" cx="225.78" cy="199.1" r="0.46"/><path class="cls-6" d="M366,93.22a.75.75,0,1,0,1.5,0,.75.75,0,0,0-1.5,0Z"/><path class="cls-6" d="M452.87,75a.75.75,0,1,0,1.49,0,.75.75,0,1,0-1.49,0Z"/><path class="cls-6" d="M408.42,139.88a.75.75,0,1,0,.74-.75A.74.74,0,0,0,408.42,139.88Z"/><circle class="cls-6" cx="224.95" cy="163.6" r="0.75"/><path class="cls-6" d="M516.37,145.23a.75.75,0,1,0,1.5,0,.75.75,0,0,0-1.5,0Z"/><circle class="cls-6" cx="196.44" cy="130.6" r="0.46"/><circle class="cls-6" cx="55.27" cy="94.72" r="0.75"/><circle class="cls-6" cx="142.1" cy="76.5" r="0.75"/><circle class="cls-6" cx="97.65" cy="141.37" r="0.75"/><circle class="cls-6" cx="205.61" cy="146.73" r="0.75"/></g><circle class="cls-6" cx="297.62" cy="76.41" r="0.46"/><path class="cls-6" d="M204.34,36.83a.46.46,0,1,1-.46-.46A.45.45,0,0,1,204.34,36.83Z"/><path class="cls-6" d="M152,47.34a.46.46,0,1,1-.46-.46A.47.47,0,0,1,152,47.34Z"/><path class="cls-6" d="M382.72,156.55a.46.46,0,1,1-.46-.46A.46.46,0,0,1,382.72,156.55Z"/><path class="cls-6" d="M486.44,182.86a.45.45,0,0,1-.46.45.46.46,0,1,1,.46-.45Z"/><circle class="cls-6" cx="339.84" cy="183.31" r="0.46"/><path class="cls-6" d="M539.34,139.68a.46.46,0,0,1-.46.46.46.46,0,1,1,.46-.46Z"/><circle class="cls-6" cx="527.49" cy="204.75" r="0.46"/><path class="cls-6" d="M505.54,124.77a.46.46,0,1,1-.91,0,.46.46,0,1,1,.91,0Z"/><path class="cls-6" d="M175.49,256.47a.47.47,0,0,1-.46.46.46.46,0,0,1-.46-.46A.45.45,0,0,1,175,256,.46.46,0,0,1,175.49,256.47Z"/><path class="cls-6" d="M221.16,215.2a.45.45,0,0,1-.46.46.46.46,0,0,1-.46-.46.47.47,0,0,1,.46-.46A.46.46,0,0,1,221.16,215.2Z"/><circle class="cls-6" cx="216.53" cy="278.36" r="0.46"/><path class="cls-6" d="M194.59,198.39a.46.46,0,1,1-.46-.46A.46.46,0,0,1,194.59,198.39Z"/><path class="cls-6" d="M190.45,127.83a.46.46,0,0,1-.92,0,.46.46,0,0,1,.92,0Z"/><circle class="cls-6" cx="424.49" cy="157.45" r="0.46"/><circle class="cls-6" cx="469.72" cy="181.77" r="0.46"/><circle class="cls-6" cx="596.05" cy="147.5" r="0.46"/><circle class="cls-6" cx="637.55" cy="169.4" r="0.46"/><path class="cls-6" d="M580.25,146.42a.46.46,0,1,1-.46-.46A.46.46,0,0,1,580.25,146.42Z"/><path class="cls-6" d="M439.54,40.53a.75.75,0,1,1-.75-.75A.76.76,0,0,1,439.54,40.53Z"/><path class="cls-6" d="M352.71,22.31a.75.75,0,1,1-.75-.74A.75.75,0,0,1,352.71,22.31Z"/><path class="cls-6" d="M397.16,87.19a.75.75,0,1,1-.75-.75A.76.76,0,0,1,397.16,87.19Z"/><path class="cls-6" d="M208.7,160.42a.46.46,0,1,1-.46-.46A.46.46,0,0,1,208.7,160.42Z"/><path class="cls-6" d="M261.59,117.25a.46.46,0,1,1-.46-.46A.45.45,0,0,1,261.59,117.25Z"/><path class="cls-6" d="M250.2,182.31a.45.45,0,0,1-.46.46.46.46,0,0,1-.46-.46.47.47,0,0,1,.46-.46A.46.46,0,0,1,250.2,182.31Z"/><path class="cls-6" d="M227.8,102.33a.45.45,0,0,1-.46.46.46.46,0,1,1,0-.91A.45.45,0,0,1,227.8,102.33Z"/><path class="cls-6" d="M147.21,135a.46.46,0,0,1-.92,0,.46.46,0,0,1,.92,0Z"/><path class="cls-6" d="M192.44,159.33a.46.46,0,0,1-.92,0,.46.46,0,0,1,.92,0Z"/><circle class="cls-6" cx="161.05" cy="18.09" r="0.75"/><path class="cls-6" d="M119.42,64.75a.75.75,0,0,1-1.5,0,.75.75,0,0,1,1.5,0Z"/><circle class="cls-6" cx="580.62" cy="110.92" r="0.75"/><circle class="cls-6" cx="288.45" cy="92.54" r="0.75"/><circle class="cls-6" cx="239.54" cy="63" r="0.46"/><path class="cls-6" d="M146.26,23.41a.45.45,0,0,1-.46.46.46.46,0,1,1,0-.91A.45.45,0,0,1,146.26,23.41Z"/><path class="cls-6" d="M93.89,33.93a.46.46,0,1,1-.46-.46A.47.47,0,0,1,93.89,33.93Z"/><path class="cls-6" d="M282.22,169.9a.45.45,0,0,1-.46.46.46.46,0,0,1-.46-.46.47.47,0,0,1,.46-.46A.46.46,0,0,1,282.22,169.9Z"/><circle class="cls-6" cx="162.62" cy="201.79" r="0.46"/><path class="cls-6" d="M136.51,185a.46.46,0,1,1-.46-.45A.46.46,0,0,1,136.51,185Z"/><path class="cls-6" d="M132.37,114.42a.46.46,0,1,1-.92,0,.46.46,0,1,1,.92,0Z"/><path class="cls-6" d="M294.63,8.9a.75.75,0,1,1-.75-.75A.75.75,0,0,1,294.63,8.9Z"/><path class="cls-6" d="M231.12,79.13a.75.75,0,1,1-.75-.75A.75.75,0,0,1,231.12,79.13Z"/><path class="cls-6" d="M609.59,77.91a.46.46,0,0,1-.92,0,.46.46,0,1,1,.92,0Z"/><circle class="cls-6" cx="750.3" cy="42.03" r="0.75"/><path class="cls-6" d="M664.22,23.81a.75.75,0,0,1-1.5,0,.75.75,0,1,1,1.5,0Z"/><path class="cls-6" d="M708.67,88.69a.75.75,0,1,1-.75-.75A.75.75,0,0,1,708.67,88.69Z"/><circle class="cls-6" cx="599.96" cy="94.04" r="0.75"/><path class="cls-6" d="M668,275a.45.45,0,0,1-.46.46.46.46,0,0,1-.46-.46.47.47,0,0,1,.46-.46A.46.46,0,0,1,668,275Z"/><path class="cls-6" d="M709.48,296.91a.46.46,0,1,1-.45-.46A.46.46,0,0,1,709.48,296.91Z"/><path class="cls-6" d="M651.72,273.93a.46.46,0,1,1-.46-.46A.46.46,0,0,1,651.72,273.93Z"/><path class="cls-6" d="M652.84,238.43a.75.75,0,1,1-.74-.75A.75.75,0,0,1,652.84,238.43Z"/><circle class="cls-6" cx="680.6" cy="205.43" r="0.46"/><path class="cls-6" d="M735.69,151.33a.75.75,0,1,1-.75-.75A.75.75,0,0,1,735.69,151.33Z"/><circle class="cls-6" cx="779.39" cy="216.2" r="0.75"/><path class="cls-6" d="M672.19,221.55a.75.75,0,1,1-.75-.75A.75.75,0,0,1,672.19,221.55Z"/><circle class="cls-6" cx="282.23" cy="253.86" r="0.46"/><path class="cls-6" d="M386.4,280.17a.46.46,0,1,1-.45-.46A.45.45,0,0,1,386.4,280.17Z"/><path class="cls-6" d="M240.27,280.62a.46.46,0,0,1-.46.46.46.46,0,1,1,.46-.46Z"/><path class="cls-6" d="M439.3,237a.46.46,0,1,1-.46-.46A.46.46,0,0,1,439.3,237Z"/><circle class="cls-6" cx="427.45" cy="302.06" r="0.46"/><path class="cls-6" d="M405.51,222.08a.46.46,0,1,1-.46-.45A.46.46,0,0,1,405.51,222.08Z"/><circle class="cls-6" cx="324.45" cy="254.76" r="0.46"/><path class="cls-6" d="M370.15,279.08a.46.46,0,0,1-.46.46.45.45,0,0,1-.46-.46.46.46,0,0,1,.46-.46A.47.47,0,0,1,370.15,279.08Z"/><path class="cls-6" d="M496.47,244.81a.46.46,0,0,1-.46.46.46.46,0,0,1,0-.92A.46.46,0,0,1,496.47,244.81Z"/><path class="cls-6" d="M480.21,243.73a.46.46,0,1,1-.46-.46A.45.45,0,0,1,480.21,243.73Z"/><circle class="cls-6" cx="338.75" cy="137.84" r="0.75"/><path class="cls-6" d="M297.12,184.5a.75.75,0,1,1-.75-.75A.75.75,0,0,1,297.12,184.5Z"/><path class="cls-6" d="M481.33,208.23a.75.75,0,1,1-.74-.75A.75.75,0,0,1,481.33,208.23Z"/><path class="cls-6" d="M509.55,175.22a.45.45,0,0,1-.46.46.46.46,0,0,1-.46-.46.47.47,0,0,1,.46-.46A.46.46,0,0,1,509.55,175.22Z"/><path class="cls-6" d="M500.68,191.35a.75.75,0,1,1-.75-.75A.76.76,0,0,1,500.68,191.35Z"/><path class="cls-6" d="M334.1,56.76a.45.45,0,0,1-.46.46.46.46,0,0,1-.46-.46.47.47,0,0,1,.46-.46A.46.46,0,0,1,334.1,56.76Z"/><circle class="cls-6" cx="322.25" cy="121.83" r="0.46"/><path class="cls-6" d="M300.31,41.85a.46.46,0,0,1-.46.46.46.46,0,0,1,0-.92A.46.46,0,0,1,300.31,41.85Z"/><path class="cls-6" d="M391.27,64.58a.46.46,0,1,1-.45-.46A.45.45,0,0,1,391.27,64.58Z"/><path class="cls-6" d="M432.78,86.47a.46.46,0,1,1-.92,0,.46.46,0,1,1,.92,0Z"/><path class="cls-6" d="M375,63.49a.46.46,0,0,1-.46.46.45.45,0,0,1-.46-.46.46.46,0,0,1,.46-.46A.47.47,0,0,1,375,63.49Z"/><path class="cls-6" d="M376.14,28a.75.75,0,1,1-.75-.75A.75.75,0,0,1,376.14,28Z"/><circle class="cls-6" cx="502.69" cy="5.76" r="0.75"/><path class="cls-6" d="M395.48,11.12a.75.75,0,1,1-.75-.75A.76.76,0,0,1,395.48,11.12Z"/><path class="cls-6" d="M304.32,92.3a.46.46,0,1,1-.46-.46A.47.47,0,0,1,304.32,92.3Z"/><path class="cls-6" d="M295.44,108.43a.75.75,0,1,1-.75-.75A.75.75,0,0,1,295.44,108.43Z"/><path class="cls-6" d="M188.24,89.3a.46.46,0,1,1-.46-.45A.46.46,0,0,1,188.24,89.3Z"/><path class="cls-6" d="M94.5,49.72a.46.46,0,1,1-.45-.46A.45.45,0,0,1,94.5,49.72Z"/><circle class="cls-6" cx="41.67" cy="60.23" r="0.46"/><circle class="cls-6" cx="80.15" cy="140.72" r="0.46"/><circle class="cls-6" cx="151.3" cy="130.14" r="0.46"/><path class="cls-6" d="M118,115.22a.46.46,0,1,1-.46-.45A.45.45,0,0,1,118,115.22Z"/><path class="cls-6" d="M37.37,147.9a.46.46,0,0,1-.92,0,.46.46,0,0,1,.92,0Z"/><circle class="cls-6" cx="51.21" cy="30.98" r="0.75"/><path class="cls-6" d="M179.36,105.43a.75.75,0,1,1-.75-.75A.75.75,0,0,1,179.36,105.43Z"/><path class="cls-6" d="M130.16,75.89a.46.46,0,0,1-.92,0,.46.46,0,0,1,.92,0Z"/><circle class="cls-6" cx="184.04" cy="21.79" r="0.75"/><path class="cls-6" d="M121.28,92a.75.75,0,1,1-.75-.75A.75.75,0,0,1,121.28,92Z"/><circle class="cls-6" cx="228.91" cy="150.73" r="0.75"/><circle class="cls-6" cx="223.81" cy="69.65" r="0.46"/><path class="cls-6" d="M212.87,134.72a.46.46,0,0,1-.46.46.46.46,0,0,1,0-.92A.46.46,0,0,1,212.87,134.72Z"/><path class="cls-6" d="M190.47,54.74a.46.46,0,0,1-.46.46.46.46,0,0,1,0-.92A.46.46,0,0,1,190.47,54.74Z"/><circle class="cls-6" cx="194.02" cy="105.19" r="0.46"/><circle class="cls-6" cx="184.85" cy="121.32" r="0.75"/><circle class="cls-6" cx="708.45" cy="11.98" r="0.46"/><path class="cls-6" d="M656.53,22.5a.46.46,0,1,1-.45-.46A.45.45,0,0,1,656.53,22.5Z"/><circle class="cls-6" cx="694.56" cy="102.98" r="0.46"/><path class="cls-6" d="M766.16,92.4a.46.46,0,1,1-.92,0,.46.46,0,0,1,.92,0Z"/><circle class="cls-6" cx="731.91" cy="77.49" r="0.46"/><path class="cls-6" d="M651.77,110.16a.46.46,0,1,1-.46-.45A.45.45,0,0,1,651.77,110.16Z"/><circle class="cls-6" cx="744.1" cy="38.16" r="0.46"/><circle class="cls-6" cx="734.94" cy="54.29" r="0.75"/><path class="cls-6" d="M692.8,64.46a.46.46,0,1,1-.45-.46A.46.46,0,0,1,692.8,64.46Z"/><path class="cls-6" d="M656.32,105.29a.45.45,0,0,1-.46.46.46.46,0,0,1-.46-.46.47.47,0,0,1,.46-.46A.46.46,0,0,1,656.32,105.29Z"/><path class="cls-6" d="M683.93,80.59a.75.75,0,1,1-1.5,0,.75.75,0,0,1,1.5,0Z"/><path class="cls-6" d="M728.83,44.81a.46.46,0,1,1-.46-.46A.47.47,0,0,1,728.83,44.81Z"/><path class="cls-6" d="M717.44,109.88a.46.46,0,1,1-.92,0,.46.46,0,0,1,.92,0Z"/><path class="cls-6" d="M695,29.9a.46.46,0,1,1-.46-.46A.47.47,0,0,1,695,29.9Z"/><path class="cls-6" d="M699.05,80.35a.47.47,0,0,1-.46.46.46.46,0,1,1,0-.92A.47.47,0,0,1,699.05,80.35Z"/><circle class="cls-6" cx="689.42" cy="96.47" r="0.75"/><circle class="cls-6" cx="358.14" cy="114.9" r="0.46"/><circle class="cls-6" cx="433.68" cy="101.04" r="0.75"/><path class="cls-6" d="M462.65,68a.46.46,0,0,1-.46.45.46.46,0,1,1,0-.91A.46.46,0,0,1,462.65,68Z"/><path class="cls-6" d="M517.28,13.94a.75.75,0,1,1-.75-.75A.76.76,0,0,1,517.28,13.94Z"/><path class="cls-6" d="M453.77,84.16a.75.75,0,1,1-.75-.75A.75.75,0,0,1,453.77,84.16Z"/><circle class="cls-6" cx="509.13" cy="12.62" r="0.46"/><circle class="cls-6" cx="547.61" cy="93.11" r="0.46"/><path class="cls-6" d="M504.83,100.29a.46.46,0,0,1-.46.46.47.47,0,0,1-.46-.46.46.46,0,0,1,.46-.46A.45.45,0,0,1,504.83,100.29Z"/><path class="cls-6" d="M545.86,54.58a.45.45,0,0,1-.46.46.46.46,0,1,1,0-.91A.45.45,0,0,1,545.86,54.58Z"/><path class="cls-6" d="M509.38,95.42a.46.46,0,0,1-.92,0,.46.46,0,0,1,.92,0Z"/><path class="cls-6" d="M537,70.71a.75.75,0,1,1-.75-.75A.76.76,0,0,1,537,70.71Z"/><path class="cls-6" d="M548.1,20a.47.47,0,0,1-.46.46.46.46,0,1,1,0-.92A.47.47,0,0,1,548.1,20Z"/><circle class="cls-6" cx="542.48" cy="86.6" r="0.75"/><circle class="cls-6" cx="589.81" cy="15.09" r="0.46"/><path class="cls-6" d="M707.68,169.66a.46.46,0,1,0,.45-.45A.45.45,0,0,0,707.68,169.66Z"/><circle class="cls-6" cx="760.51" cy="180.18" r="0.46"/><path class="cls-6" d="M504.7,95.22a.46.46,0,1,0,.46-.45A.46.46,0,0,0,504.7,95.22Z"/><path class="cls-6" d="M401,121.53a.46.46,0,1,0,.46-.46A.47.47,0,0,0,401,121.53Z"/><path class="cls-6" d="M547.12,122a.46.46,0,1,0,.46-.46A.47.47,0,0,0,547.12,122Z"/><path class="cls-6" d="M348.09,78.36a.46.46,0,0,0,.46.46.46.46,0,1,0,0-.92A.46.46,0,0,0,348.09,78.36Z"/><path class="cls-6" d="M359.48,143.43a.46.46,0,0,0,.92,0,.46.46,0,1,0-.92,0Z"/><path class="cls-6" d="M381.88,63.45a.46.46,0,0,0,.46.46.46.46,0,0,0,0-.92A.46.46,0,0,0,381.88,63.45Z"/><path class="cls-6" d="M711.94,195.14a.45.45,0,0,0,.46.46.46.46,0,0,0,.46-.46.47.47,0,0,0-.46-.46A.46.46,0,0,0,711.94,195.14Z"/><path class="cls-6" d="M666.26,153.88a.46.46,0,0,0,.92,0,.46.46,0,0,0-.92,0Z"/><path class="cls-6" d="M670.44,217a.46.46,0,1,0,.46-.46A.46.46,0,0,0,670.44,217Z"/><path class="cls-6" d="M692.84,137.06a.46.46,0,1,0,.45-.46A.46.46,0,0,0,692.84,137.06Z"/><path class="cls-6" d="M697,66.5a.46.46,0,1,0,.91,0,.46.46,0,1,0-.91,0Z"/><path class="cls-6" d="M462.47,96.12a.46.46,0,0,0,.46.46.45.45,0,0,0,.46-.46.46.46,0,0,0-.46-.46A.47.47,0,0,0,462.47,96.12Z"/><circle class="cls-6" cx="417.7" cy="120.45" r="0.46"/><path class="cls-6" d="M290.92,86.17a.46.46,0,1,0,.45-.45A.45.45,0,0,0,290.92,86.17Z"/><circle class="cls-6" cx="249.87" cy="108.07" r="0.46"/><circle class="cls-6" cx="307.63" cy="85.09" r="0.46"/><circle class="cls-6" cx="473.23" cy="173.37" r="0.75"/><path class="cls-6" d="M559.31,155.15a.75.75,0,0,0,1.5,0,.75.75,0,1,0-1.5,0Z"/><path class="cls-6" d="M490.26,25.86a.75.75,0,1,0,.75-.75A.75.75,0,0,0,490.26,25.86Z"/><circle class="cls-6" cx="306.8" cy="49.59" r="0.75"/><circle class="cls-6" cx="598.97" cy="31.21" r="0.75"/><path class="cls-6" d="M544.69,197.23a.45.45,0,0,0,.46.46.46.46,0,1,0,0-.91A.45.45,0,0,0,544.69,197.23Z"/><circle class="cls-6" cx="441.43" cy="223.54" r="0.46"/><path class="cls-6" d="M587.11,224a.46.46,0,0,0,.46.46.46.46,0,1,0,0-.92A.46.46,0,0,0,587.11,224Z"/><path class="cls-6" d="M388.07,180.37a.47.47,0,0,0,.46.46.46.46,0,0,0,0-.92A.47.47,0,0,0,388.07,180.37Z"/><path class="cls-6" d="M399.47,245.44a.46.46,0,1,0,.91,0,.46.46,0,1,0-.91,0Z"/><circle class="cls-6" cx="422.33" cy="165.46" r="0.46"/><path class="cls-6" d="M502.46,198.13a.46.46,0,0,0,.92,0,.46.46,0,0,0-.92,0Z"/><path class="cls-6" d="M457.23,222.46a.46.46,0,0,0,.46.46.47.47,0,0,0,.46-.46.46.46,0,0,0-.46-.46A.45.45,0,0,0,457.23,222.46Z"/><path class="cls-6" d="M610.69,32.56a.46.46,0,1,0,.45-.46A.45.45,0,0,0,610.69,32.56Z"/><circle class="cls-6" cx="653.57" cy="59.32" r="0.46"/><circle class="cls-6" cx="568.92" cy="33.45" r="0.46"/><circle class="cls-6" cx="579.21" cy="110.7" r="0.75"/><path class="cls-6" d="M665.29,92.49a.75.75,0,1,0,1.5,0,.75.75,0,0,0-1.5,0Z"/><path class="cls-6" d="M650.67,134.57a.47.47,0,0,0,.46.46.46.46,0,0,0,.46-.46.45.45,0,0,0-.46-.46A.46.46,0,0,0,650.67,134.57Z"/><circle class="cls-6" cx="547.41" cy="160.87" r="0.46"/><circle class="cls-6" cx="693.55" cy="161.33" r="0.46"/><circle class="cls-6" cx="608.9" cy="135.46" r="0.46"/><path class="cls-6" d="M563.21,159.79a.47.47,0,0,0,.46.46.46.46,0,1,0,0-.92A.47.47,0,0,0,563.21,159.79Z"/><path class="cls-6" d="M355.16,143.38a.46.46,0,0,0,.46.46.46.46,0,0,0,0-.92A.46.46,0,0,0,355.16,143.38Z"/><circle class="cls-6" cx="398.04" cy="170.15" r="0.46"/><path class="cls-6" d="M312.93,144.28a.46.46,0,1,0,.46-.46A.47.47,0,0,0,312.93,144.28Z"/><path class="cls-6" d="M322.94,221.52a.75.75,0,1,0,.75-.75A.74.74,0,0,0,322.94,221.52Z"/><path class="cls-6" d="M409.77,203.31a.75.75,0,1,0,.75-.75A.75.75,0,0,0,409.77,203.31Z"/><path class="cls-6" d="M395.15,245.39a.46.46,0,1,0,.45-.46A.46.46,0,0,0,395.15,245.39Z"/><circle class="cls-6" cx="353.38" cy="246.29" r="0.46"/><path class="cls-6" d="M397.41,209a.46.46,0,1,0,.46-.46A.47.47,0,0,0,397.41,209Z"/><circle class="cls-6" cx="414.13" cy="207.95" r="0.46"/><circle class="cls-6" cx="331.36" cy="188.18" r="0.46"/><path class="cls-6" d="M347.16,187.1a.46.46,0,1,0,.46-.46A.47.47,0,0,0,347.16,187.1Z"/><path class="cls-6" d="M512.46,275.38a.75.75,0,0,0,1.5,0,.75.75,0,0,0-1.5,0Z"/><path class="cls-6" d="M599.3,257.16a.75.75,0,1,0,1.49,0,.75.75,0,1,0-1.49,0Z"/><path class="cls-6" d="M346,151.6a.75.75,0,0,0,1.5,0,.75.75,0,1,0-1.5,0Z"/><circle class="cls-6" cx="638.96" cy="133.22" r="0.75"/><path class="cls-6" d="M599.18,256.25a.45.45,0,0,0,.46.45.46.46,0,1,0-.46-.45Z"/><path class="cls-6" d="M557.77,240.46a.46.46,0,1,0,.91,0,.46.46,0,1,0-.91,0Z"/><circle class="cls-6" cx="584.8" cy="223.64" r="0.46"/><path class="cls-6" d="M588.48,153.08a.46.46,0,1,0,.92,0,.46.46,0,0,0-.92,0Z"/><path class="cls-6" d="M450.81,241.73a.75.75,0,1,0,.75-.75A.75.75,0,0,0,450.81,241.73Z"/><path class="cls-6" d="M544.61,145.9a.46.46,0,0,0,.92,0,.46.46,0,0,0-.92,0Z"/><path class="cls-6" d="M470,197.28a.75.75,0,1,0,.75-.75A.75.75,0,0,0,470,197.28Z"/><circle class="cls-6" cx="557.55" cy="179.07" r="0.75"/><circle class="cls-6" cx="542.64" cy="221.15" r="0.46"/><path class="cls-6" d="M584.6,247.91a.45.45,0,0,0,.46.46.46.46,0,0,0,.46-.46.47.47,0,0,0-.46-.46A.46.46,0,0,0,584.6,247.91Z"/><path class="cls-6" d="M500,222.05a.46.46,0,1,0,.46-.46A.46.46,0,0,0,500,222.05Z"/><circle class="cls-6" cx="455.18" cy="246.37" r="0.46"/><path class="cls-6" d="M529.71,219.81a.75.75,0,1,0,.75-.75A.75.75,0,0,0,529.71,219.81Z"/><path class="cls-6" d="M395.77,10.29a.46.46,0,1,0,.92,0,.46.46,0,1,0-.92,0Z"/><path class="cls-6" d="M514.91,42.18a.46.46,0,1,0,.46-.46A.47.47,0,0,0,514.91,42.18Z"/><path class="cls-6" d="M321.13,61.67a.75.75,0,1,0,.75-.75A.75.75,0,0,0,321.13,61.67Z"/><path class="cls-6" d="M408,43.46a.75.75,0,1,0,.75-.75A.75.75,0,0,0,408,43.46Z"/><path class="cls-6" d="M393.34,85.54a.46.46,0,1,0,.91,0,.46.46,0,1,0-.91,0Z"/><circle class="cls-6" cx="436.22" cy="112.3" r="0.46"/><circle class="cls-6" cx="351.57" cy="86.44" r="0.46"/><path class="cls-6" d="M499.32,22.87a.46.46,0,1,0,.46-.46A.47.47,0,0,0,499.32,22.87Z"/><circle class="cls-6" cx="396.06" cy="49.18" r="0.46"/><path class="cls-6" d="M457.09,23.77a.47.47,0,0,0,.46.46.46.46,0,1,0,0-.92A.47.47,0,0,0,457.09,23.77Z"/><path class="cls-6" d="M411.86,48.09a.46.46,0,1,0,.92,0,.46.46,0,1,0-.92,0Z"/><circle class="cls-6" cx="487.61" cy="21.53" r="0.75"/><path class="cls-6" d="M277.83,16.59a.47.47,0,0,0,.46.46.46.46,0,0,0,.46-.46.45.45,0,0,0-.46-.46A.46.46,0,0,0,277.83,16.59Z"/><path class="cls-6" d="M161,174.87a.75.75,0,1,0,1.49,0,.75.75,0,1,0-1.49,0Z"/><circle class="cls-6" cx="248.55" cy="156.65" r="0.75"/><circle class="cls-6" cx="324.23" cy="47.69" r="0.46"/><circle class="cls-6" cx="271.34" cy="4.52" r="0.46"/><path class="cls-6" d="M282.27,69.58a.46.46,0,0,0,.46.46.45.45,0,0,0,.46-.46.46.46,0,0,0-.46-.46A.47.47,0,0,0,282.27,69.58Z"/><path class="cls-6" d="M340,46.6a.47.47,0,0,0,.46.46.46.46,0,1,0,0-.92A.47.47,0,0,0,340,46.6Z"/><circle class="cls-6" cx="214.17" cy="12.33" r="0.46"/><path class="cls-6" d="M172.21,34.23a.46.46,0,1,0,.45-.46A.45.45,0,0,0,172.21,34.23Z"/><path class="cls-6" d="M230,11.25a.46.46,0,1,0,.46-.46A.45.45,0,0,0,230,11.25Z"/><path class="cls-6" d="M310.87,106.53a.45.45,0,0,0,.46.45.46.46,0,1,0-.46-.45Z"/><circle class="cls-6" cx="345.12" cy="91.61" r="0.46"/><path class="cls-6" d="M253.7,114.34a.46.46,0,1,0,.45-.46A.46.46,0,0,0,253.7,114.34Z"/><circle class="cls-6" cx="270.41" cy="113.26" r="0.46"/><circle class="cls-6" cx="269.58" cy="77.76" r="0.75"/><path class="cls-6" d="M170.59,82.81a.75.75,0,1,0,.75-.75A.76.76,0,0,0,170.59,82.81Z"/><path class="cls-6" d="M178.75,27.36a.75.75,0,1,0,.75-.75A.75.75,0,0,0,178.75,27.36Z"/><circle class="cls-6" cx="287.46" cy="32.71" r="0.75"/><path class="cls-6" d="M272.49,84.86a.53.53,0,1,1-.53-.53A.53.53,0,0,1,272.49,84.86Z"/><path class="cls-6" d="M164.32,39.18a.53.53,0,0,1-1.06,0,.53.53,0,0,1,1.06,0Z"/><circle class="cls-6" cx="103.35" cy="51.31" r="0.53"/><circle class="cls-6" cx="369.65" cy="177.34" r="0.53"/><circle class="cls-6" cx="489.34" cy="207.7" r="0.53"/><path class="cls-6" d="M321.22,208.23a.53.53,0,0,1-.53.53.53.53,0,1,1,0-1.06A.53.53,0,0,1,321.22,208.23Z"/><path class="cls-6" d="M550.92,157.88a.53.53,0,0,1-.53.53.53.53,0,1,1,0-1.06A.53.53,0,0,1,550.92,157.88Z"/><path class="cls-6" d="M537.77,233a.53.53,0,1,1-.53-.53A.53.53,0,0,1,537.77,233Z"/><path class="cls-6" d="M511.92,140.67a.53.53,0,1,1-.53-.53A.53.53,0,0,1,511.92,140.67Z"/><circle class="cls-6" cx="130.49" cy="292.65" r="0.53"/><circle class="cls-6" cx="183.2" cy="245.03" r="0.53"/><circle class="cls-6" cx="178.38" cy="317.92" r="0.53"/><circle class="cls-6" cx="152.53" cy="225.62" r="0.53"/><path class="cls-6" d="M148.29,144.2a.53.53,0,0,1-.53.53.53.53,0,0,1-.53-.53.52.52,0,0,1,.53-.53A.53.53,0,0,1,148.29,144.2Z"/><path class="cls-6" d="M418.91,178.38a.53.53,0,1,1-.53-.53A.53.53,0,0,1,418.91,178.38Z"/><path class="cls-6" d="M471.11,206.45a.53.53,0,1,1-.53-.53A.53.53,0,0,1,471.11,206.45Z"/><circle class="cls-6" cx="616.37" cy="166.9" r="0.53"/><circle class="cls-6" cx="664.26" cy="192.17" r="0.53"/><circle class="cls-6" cx="597.6" cy="165.65" r="0.53"/><path class="cls-6" d="M435.75,43.45a.87.87,0,1,1-.87-.87A.86.86,0,0,1,435.75,43.45Z"/><path class="cls-6" d="M335.54,22.43a.87.87,0,1,1-.86-.86A.87.87,0,0,1,335.54,22.43Z"/><path class="cls-6" d="M386.84,97.3a.87.87,0,1,1-.87-.87A.87.87,0,0,1,386.84,97.3Z"/><path class="cls-6" d="M599.43,124.68a.87.87,0,1,1-1.73,0,.87.87,0,0,1,1.73,0Z"/><path class="cls-6" d="M262.25,103.47a.87.87,0,1,1-1.73,0,.87.87,0,0,1,1.73,0Z"/><path class="cls-6" d="M632,86.59a.53.53,0,1,1-.53-.53A.53.53,0,0,1,632,86.59Z"/><path class="cls-6" d="M795.24,45.18a.87.87,0,0,1-1.73,0,.87.87,0,1,1,1.73,0Z"/><circle class="cls-6" cx="694.17" cy="24.16" r="0.86"/><path class="cls-6" d="M746.34,99a.87.87,0,1,1-.87-.87A.87.87,0,0,1,746.34,99Z"/><path class="cls-6" d="M621.75,105.2a.87.87,0,1,1-1.73,0,.87.87,0,0,1,1.73,0Z"/><path class="cls-6" d="M567.68,224a.46.46,0,0,1,.46-.46.47.47,0,0,1,.46.46.46.46,0,0,1-.46.46A.45.45,0,0,1,567.68,224Z"/><path class="cls-6" d="M661.41,263.56a.47.47,0,0,1,.46-.46.46.46,0,0,1,.46.46.45.45,0,0,1-.46.46A.46.46,0,0,1,661.41,263.56Z"/><path class="cls-6" d="M713.79,253.05a.45.45,0,0,1,.46-.46.46.46,0,0,1,.46.46.47.47,0,0,1-.46.46A.46.46,0,0,1,713.79,253.05Z"/><path class="cls-6" d="M483,143.84a.46.46,0,0,1,.46-.46.45.45,0,0,1,.46.46.46.46,0,0,1-.46.46A.47.47,0,0,1,483,143.84Z"/><path class="cls-6" d="M379.32,117.53a.46.46,0,1,1,.45.46A.45.45,0,0,1,379.32,117.53Z"/><path class="cls-6" d="M525.45,117.07a.47.47,0,0,1,.46-.46.46.46,0,0,1,.46.46.45.45,0,0,1-.46.46A.46.46,0,0,1,525.45,117.07Z"/><path class="cls-6" d="M326.42,160.7a.46.46,0,0,1,.92,0,.46.46,0,0,1-.92,0Z"/><path class="cls-6" d="M337.81,95.64a.46.46,0,0,1,.46-.46.46.46,0,1,1-.46.46Z"/><circle class="cls-6" cx="360.67" cy="175.61" r="0.46"/><path class="cls-6" d="M690.27,43.92a.46.46,0,1,1,.46.46A.47.47,0,0,1,690.27,43.92Z"/><path class="cls-6" d="M644.6,85.18a.46.46,0,1,1,.45.46A.45.45,0,0,1,644.6,85.18Z"/><path class="cls-6" d="M648.77,22a.45.45,0,0,1,.46-.45.46.46,0,1,1-.46.45Z"/><path class="cls-6" d="M671.17,102a.46.46,0,0,1,.46-.46.47.47,0,0,1,.46.46.46.46,0,0,1-.46.46A.45.45,0,0,1,671.17,102Z"/><path class="cls-6" d="M675.31,172.56a.46.46,0,0,1,.46-.46.46.46,0,0,1,0,.92A.46.46,0,0,1,675.31,172.56Z"/><path class="cls-6" d="M440.81,142.94a.46.46,0,1,1,.46.46A.46.46,0,0,1,440.81,142.94Z"/><circle class="cls-6" cx="396.03" cy="118.62" r="0.46"/><path class="cls-6" d="M269.25,152.89a.45.45,0,0,1,.46-.46.46.46,0,0,1,.46.46.47.47,0,0,1-.46.46A.46.46,0,0,1,269.25,152.89Z"/><path class="cls-6" d="M227.75,131a.46.46,0,1,1,.45.46A.46.46,0,0,1,227.75,131Z"/><circle class="cls-6" cx="285.97" cy="153.97" r="0.46"/><circle class="cls-6" cx="426.97" cy="259.86" r="0.75"/><circle class="cls-6" cx="513.8" cy="278.07" r="0.75"/><circle class="cls-6" cx="469.35" cy="213.2" r="0.75"/><circle class="cls-6" cx="285.13" cy="189.47" r="0.75"/><path class="cls-6" d="M576.56,207.85a.75.75,0,0,1,1.5,0,.75.75,0,1,1-1.5,0Z"/><path class="cls-6" d="M256.17,222.47a.45.45,0,0,1,.46-.45.46.46,0,1,1-.46.45Z"/><circle class="cls-6" cx="115.45" cy="258.36" r="0.75"/><circle class="cls-6" cx="202.29" cy="276.57" r="0.75"/><path class="cls-6" d="M157.09,211.7a.75.75,0,1,1,.75.75A.75.75,0,0,1,157.09,211.7Z"/><circle class="cls-6" cx="45.08" cy="98.96" r="0.46"/><path class="cls-6" d="M40.77,186.63a.46.46,0,1,1-.45-.46A.46.46,0,0,1,40.77,186.63Z"/><path class="cls-6" d="M55.36,69.71a.75.75,0,1,1-.75-.75A.75.75,0,0,1,55.36,69.71Z"/><circle class="cls-6" cx="12.23" cy="116.37" r="0.75"/><path class="cls-6" d="M39.83,75a.46.46,0,1,1-.46-.46A.46.46,0,0,1,39.83,75Z"/><path class="cls-6" d="M56.65,253.41a.46.46,0,0,1-.92,0,.46.46,0,1,1,.92,0Z"/><path class="cls-6" d="M30.08,236.6a.46.46,0,0,1-.46.45.46.46,0,1,1,0-.91A.46.46,0,0,1,30.08,236.6Z"/><path class="cls-6" d="M25.94,166a.47.47,0,0,1-.46.46A.46.46,0,0,1,25,166a.45.45,0,0,1,.46-.46A.46.46,0,0,1,25.94,166Z"/><path class="cls-6" d="M45.32,181.76a.46.46,0,0,1-.46.46.47.47,0,0,1-.46-.46.46.46,0,0,1,.46-.46A.45.45,0,0,1,45.32,181.76Z"/><path class="cls-6" d="M11.53,166.85a.46.46,0,0,1-.46.46.47.47,0,0,1-.46-.46.46.46,0,0,1,.46-.46A.45.45,0,0,1,11.53,166.85Z"/><circle class="cls-6" cx="72.18" cy="157.05" r="0.75"/><path class="cls-6" d="M23.73,127.51a.46.46,0,0,1-.46.46.46.46,0,1,1,.46-.46Z"/><circle class="cls-6" cx="77.61" cy="73.42" r="0.75"/><circle class="cls-6" cx="14.1" cy="143.64" r="0.75"/><circle class="cls-6" cx="55.28" cy="226.49" r="0.75"/><path class="cls-6" d="M65.77,85.85a.47.47,0,0,0,.46.46.46.46,0,0,0,.46-.46.45.45,0,0,0-.46-.46A.46.46,0,0,0,65.77,85.85Z"/><path class="cls-6" d="M64.16,134.43a.75.75,0,1,0,.75-.75A.75.75,0,0,0,64.16,134.43Z"/><circle class="cls-6" cx="73.07" cy="78.98" r="0.75"/><path class="cls-6" d="M57.89,90.8a.53.53,0,1,1-.53-.53A.53.53,0,0,1,57.89,90.8Z"/><path class="cls-6" d="M46.63,277.24a.53.53,0,0,1-1.06,0,.53.53,0,0,1,1.06,0Z"/><path class="cls-6" d="M41.85,195.82a.53.53,0,0,1-.53.53.53.53,0,1,1,0-1.06A.53.53,0,0,1,41.85,195.82Z"/><circle class="cls-6" cx="51.4" cy="263.32" r="0.75"/><path class="cls-6" d="M860.55,74.22a.46.46,0,1,1-.46-.46A.47.47,0,0,1,860.55,74.22Z"/><path class="cls-6" d="M855.79,161.89a.47.47,0,0,1-.46.46.46.46,0,1,1,0-.92A.47.47,0,0,1,855.79,161.89Z"/><circle class="cls-6" cx="869.63" cy="44.97" r="0.75"/><circle class="cls-6" cx="827.25" cy="91.63" r="0.75"/><path class="cls-6" d="M854.84,50.3a.46.46,0,0,1-.46.46.47.47,0,0,1-.46-.46.46.46,0,0,1,.46-.46A.45.45,0,0,1,854.84,50.3Z"/><circle class="cls-6" cx="802.01" cy="60.81" r="0.46"/><path class="cls-6" d="M871.66,228.67a.46.46,0,1,1-.92,0,.46.46,0,0,1,.92,0Z"/><path class="cls-6" d="M845.09,211.86a.46.46,0,0,1-.46.45.46.46,0,1,1,0-.91A.46.46,0,0,1,845.09,211.86Z"/><circle class="cls-6" cx="840.49" cy="141.3" r="0.46"/><path class="cls-6" d="M803.08,76.6a.46.46,0,0,1-.46.46.47.47,0,0,1-.46-.46.46.46,0,0,1,.46-.46A.45.45,0,0,1,803.08,76.6Z"/><path class="cls-6" d="M750.71,87.11a.46.46,0,1,1-.46-.46A.47.47,0,0,1,750.71,87.11Z"/><path class="cls-6" d="M789.19,167.6a.46.46,0,1,1-.46-.46A.47.47,0,0,1,789.19,167.6Z"/><path class="cls-6" d="M860.33,157a.46.46,0,1,1-.91,0,.46.46,0,1,1,.91,0Z"/><path class="cls-6" d="M826.54,142.11a.46.46,0,0,1-.46.46.47.47,0,0,1-.46-.46.46.46,0,0,1,.46-.46A.45.45,0,0,1,826.54,142.11Z"/><circle class="cls-6" cx="745.49" cy="174.78" r="0.46"/><path class="cls-6" d="M760.54,57.86a.75.75,0,1,1-.75-.75A.75.75,0,0,1,760.54,57.86Z"/><circle class="cls-6" cx="887.19" cy="132.31" r="0.75"/><circle class="cls-6" cx="838.28" cy="102.77" r="0.46"/><circle class="cls-6" cx="892.62" cy="48.68" r="0.75"/><path class="cls-6" d="M829.86,118.9a.75.75,0,1,1-.75-.75A.76.76,0,0,1,829.86,118.9Z"/><circle class="cls-6" cx="870.29" cy="201.75" r="0.75"/><circle class="cls-6" cx="881.24" cy="61.11" r="0.46"/><circle class="cls-6" cx="879.92" cy="109.69" r="0.75"/><path class="cls-6" d="M887.33,54.24a.75.75,0,1,0,.75-.75A.75.75,0,0,0,887.33,54.24Z"/><path class="cls-6" d="M872.9,66.06a.53.53,0,1,1-.53-.53A.53.53,0,0,1,872.9,66.06Z"/><circle class="cls-6" cx="811.93" cy="78.19" r="0.53"/><circle class="cls-6" cx="666.42" cy="131.45" r="0.86"/><path class="cls-6" d="M732.59,160.5a.45.45,0,0,1-.46.45.46.46,0,1,1,.46-.45Z"/><path class="cls-6" d="M742.42,131.25a.75.75,0,1,1-.75-.75A.75.75,0,0,1,742.42,131.25Z"/><path class="cls-6" d="M700,177.9a.75.75,0,1,1-.75-.75A.75.75,0,0,1,700,177.9Z"/><path class="cls-6" d="M726.88,136.57a.46.46,0,1,1-.46-.46A.46.46,0,0,1,726.88,136.57Z"/><path class="cls-6" d="M674.51,147.08a.46.46,0,1,1-.46-.45A.46.46,0,0,1,674.51,147.08Z"/><path class="cls-6" d="M675.13,162.87a.46.46,0,0,1-.46.46.45.45,0,0,1-.46-.46.46.46,0,0,1,.46-.46A.47.47,0,0,1,675.13,162.87Z"/><path class="cls-6" d="M710.78,189.05a.46.46,0,1,1-.46-.46A.47.47,0,0,1,710.78,189.05Z"/><path class="cls-6" d="M765.41,135a.75.75,0,1,1-.75-.75A.75.75,0,0,1,765.41,135Z"/><path class="cls-6" d="M752.83,147.38a.46.46,0,1,0,.46-.46A.46.46,0,0,0,752.83,147.38Z"/><circle class="cls-6" cx="751.96" cy="195.96" r="0.75"/><circle class="cls-6" cx="760.12" cy="140.52" r="0.75"/><path class="cls-6" d="M744.94,152.33a.53.53,0,1,1-.53-.53A.53.53,0,0,1,744.94,152.33Z"/><circle class="cls-6" cx="683.97" cy="164.47" r="0.53"/><circle class="cls-6" cx="861.11" cy="252.5" r="0.53"/><circle class="cls-6" cx="856.33" cy="171.08" r="0.53"/><circle class="cls-6" cx="866.41" cy="238.58" r="0.75"/><circle class="cls-6" cx="265.79" cy="206.35" r="0.75"/></g></g></g></svg>