<svg xmlns="http://www.w3.org/2000/svg" xmlns:xlink="http://www.w3.org/1999/xlink" viewBox="0 0 282.76 121.46"><defs><style>.cls-1{isolation:isolate;}.cls-10,.cls-11,.cls-12,.cls-13,.cls-14,.cls-17,.cls-18,.cls-2,.cls-20,.cls-22,.cls-24,.cls-3,.cls-4,.cls-6,.cls-7,.cls-8,.cls-9{fill-rule:evenodd;}.cls-2{fill:url(#Áåçûìÿííûé_ãðàäèåíò_129);}.cls-3{fill:url(#Áåçûìÿííûé_ãðàäèåíò_104);}.cls-4{fill:url(#Áåçûìÿííûé_ãðàäèåíò_112);}.cls-5{fill:#3c107b;}.cls-6{fill:#31165f;}.cls-7{fill:#0054b5;}.cls-8{fill:#31c7ff;}.cls-9{fill:url(#Áåçûìÿííûé_ãðàäèåíò_129-2);}.cls-10,.cls-16,.cls-19{fill:#fff;}.cls-11{fill:url(#Áåçûìÿííûé_ãðàäèåíò_129-3);}.cls-12{fill:url(#Áåçûìÿííûé_ãðàäèåíò_129-4);}.cls-13{fill:url(#Áåçûìÿííûé_ãðàäèåíò_129-5);}.cls-14{fill:url(#Áåçûìÿííûé_ãðàäèåíò_129-6);}.cls-15{fill:#77439f;}.cls-17{fill:#ff935f;}.cls-18{fill:url(#Áåçûìÿííûé_ãðàäèåíò_176);}.cls-19,.cls-26{mix-blend-mode:soft-light;}.cls-20{fill:url(#Áåçûìÿííûé_ãðàäèåíò_220);}.cls-21,.cls-23,.cls-25,.cls-27,.cls-28,.cls-29{mix-blend-mode:screen;}.cls-21{fill:url(#Áåçûìÿííûé_ãðàäèåíò_217);}.cls-22{fill:url(#Áåçûìÿííûé_ãðàäèåíò_220-2);}.cls-23{fill:url(#Áåçûìÿííûé_ãðàäèåíò_217-2);}.cls-24{fill:url(#Áåçûìÿííûé_ãðàäèåíò_220-3);}.cls-25{fill:url(#Áåçûìÿííûé_ãðàäèåíò_217-3);}.cls-27{fill:url(#Áåçûìÿííûé_ãðàäèåíò_266);}.cls-28{fill:url(#Áåçûìÿííûé_ãðàäèåíò_266-2);}.cls-29{fill:url(#Áåçûìÿííûé_ãðàäèåíò_266-3);}</style><linearGradient id="Áåçûìÿííûé_ãðàäèåíò_129" x1="138.98" y1="72.03" x2="138.98" y2="2.46" gradientUnits="userSpaceOnUse"><stop offset="0" stop-color="#ffff29"/><stop offset="1" stop-color="#ff7e59"/></linearGradient><radialGradient id="Áåçûìÿííûé_ãðàäèåíò_104" cx="137.7" cy="-3779.24" r="77.52" gradientTransform="translate(0 5391.59) scale(1 1.4)" gradientUnits="userSpaceOnUse"><stop offset="0.02" stop-color="#8343b0"/><stop offset="0.4" stop-color="#7937aa"/><stop offset="0.99" stop-color="#611b9c"/></radialGradient><radialGradient id="Áåçûìÿííûé_ãðàäèåíò_112" cx="132.1" cy="2186.88" r="119.34" gradientTransform="translate(0 -1383.74) scale(1 0.66)" gradientUnits="userSpaceOnUse"><stop offset="0" stop-color="#d4cfff"/><stop offset="1" stop-color="#8d6fc7"/></radialGradient><linearGradient id="Áåçûìÿííûé_ãðàäèåíò_129-2" x1="141.37" y1="108.18" x2="141.37" y2="104.07" xlink:href="#Áåçûìÿííûé_ãðàäèåíò_129"/><linearGradient id="Áåçûìÿííûé_ãðàäèåíò_129-3" x1="189.7" y1="109.14" x2="189.7" y2="105.35" xlink:href="#Áåçûìÿííûé_ãðàäèåíò_129"/><linearGradient id="Áåçûìÿííûé_ãðàäèåíò_129-4" x1="220.86" y1="113.93" x2="220.86" y2="111.5" xlink:href="#Áåçûìÿííûé_ãðàäèåíò_129"/><linearGradient id="Áåçûìÿííûé_ãðàäèåíò_129-5" x1="97.67" y1="108.99" x2="97.67" y2="105.2" gradientTransform="matrix(-1, 0, 0, 1, 195.3, 0)" xlink:href="#Áåçûìÿííûé_ãðàäèåíò_129"/><linearGradient id="Áåçûìÿííûé_ãðàäèåíò_129-6" x1="134.43" y1="113.69" x2="134.43" y2="111.26" gradientTransform="matrix(-1, 0, 0, 1, 195.3, 0)" xlink:href="#Áåçûìÿííûé_ãðàäèåíò_129"/><radialGradient id="Áåçûìÿííûé_ãðàäèåíò_176" cx="136.15" cy="-3818.05" r="45.98" gradientTransform="translate(0 5811.61) scale(1 1.51)" gradientUnits="userSpaceOnUse"><stop offset="0.02" stop-color="#725eb0"/><stop offset="0.38" stop-color="#6d52aa"/><stop offset="0.99" stop-color="#61349c"/></radialGradient><linearGradient id="Áåçûìÿííûé_ãðàäèåíò_220" x1="140.4" y1="89.7" x2="140.4" y2="86.46" gradientUnits="userSpaceOnUse"><stop offset="0" stop-color="#8dc7ff"/><stop offset="0.32" stop-color="#5c4d86"/></linearGradient><radialGradient id="Áåçûìÿííûé_ãðàäèåíò_217" cx="299.46" cy="-415.99" r="7.83" gradientTransform="matrix(1.37, -0.44, 0.53, 1.12, -48.62, 685.69)" gradientUnits="userSpaceOnUse"><stop offset="0" stop-color="#003cee"/><stop offset="0.06" stop-color="#0036d6"/><stop offset="0.2" stop-color="#00289e"/><stop offset="0.34" stop-color="#001c6d"/><stop offset="0.48" stop-color="#001246"/><stop offset="0.62" stop-color="#000a27"/><stop offset="0.75" stop-color="#000412"/><stop offset="0.88" stop-color="#000104"/><stop offset="1"/></radialGradient><linearGradient id="Áåçûìÿííûé_ãðàäèåíò_220-2" x1="256.74" y1="93.99" x2="256.74" y2="90.75" xlink:href="#Áåçûìÿííûé_ãðàäèåíò_220"/><radialGradient id="Áåçûìÿííûé_ãðàäèåíò_217-2" cx="371.93" cy="-384.1" r="7.83" xlink:href="#Áåçûìÿííûé_ãðàäèåíò_217"/><linearGradient id="Áåçûìÿííûé_ãðàäèåíò_220-3" x1="29.78" y1="93.99" x2="29.78" y2="90.75" xlink:href="#Áåçûìÿííûé_ãðàäèåíò_220"/><radialGradient id="Áåçûìÿííûé_ãðàäèåíò_217-3" cx="228.05" cy="-439.84" r="7.83" xlink:href="#Áåçûìÿííûé_ãðàäèåíò_217"/><radialGradient id="Áåçûìÿííûé_ãðàäèåíò_266" cx="402.83" cy="-435.41" r="8.72" gradientTransform="translate(-934.92 745.98) scale(2.67 1.47)" gradientUnits="userSpaceOnUse"><stop offset="0" stop-color="#ff9a00"/><stop offset="0.09" stop-color="#d68100"/><stop offset="0.23" stop-color="#9e5f00"/><stop offset="0.36" stop-color="#6e4200"/><stop offset="0.5" stop-color="#462a00"/><stop offset="0.63" stop-color="#271800"/><stop offset="0.76" stop-color="#120b00"/><stop offset="0.89" stop-color="#040300"/><stop offset="1"/></radialGradient><radialGradient id="Áåçûìÿííûé_ãðàäèåíò_266-2" cx="386.1" cy="-433.85" r="3.13" xlink:href="#Áåçûìÿííûé_ãðàäèåíò_266"/><radialGradient id="Áåçûìÿííûé_ãðàäèåíò_266-3" cx="431.97" cy="-430.72" r="3.13" xlink:href="#Áåçûìÿííûé_ãðàäèåíò_266"/></defs><g class="cls-1"><g id="Layer_2" data-name="Layer 2"><g id="space_background" data-name="space background"><path class="cls-2" d="M52.67,69.52S90.09,5,135.87,2.53C183.37,0,225.3,72,225.3,72Z"/><path class="cls-3" d="M282.69,96.6c-.72,2.4-52.76,24.73-141.31,24.73C59.59,121.33-.75,100.31.07,96.6.64,94,63.33,85.23,141.38,85.23S283.23,94.8,282.69,96.6Z"/><path class="cls-4" d="M.07,96.6S41.13,57,135.87,57,282.69,96.6,282.69,96.6s-38.87-9-146.82-9C49.66,87.6.07,96.6.07,96.6Z"/><path class="cls-5" d="M254.66,107.51l-.59-.18c.52-1.71-2.57-3.11-5.25-4-18.21-5.91-76.06-7.92-122.1-7.3-57.59.79-97.64,5.28-99.66,11.19l-.59-.2c2.59-7.59,53.48-11,100.25-11.61,46.08-.63,104,1.39,122.29,7.33C253.36,104.17,255.21,105.73,254.66,107.51Z"/><path class="cls-6" d="M83.55,117.85s48.1-6.32,112.34.52C195.89,118.37,138.37,124.66,83.55,117.85Z"/><path class="cls-7" d="M89.24,118.37s45.24-5.76,100.75.62C190,119,137.85,124.94,89.24,118.37Z"/><path class="cls-8" d="M99.75,117.23s52.2,4.24,78,.23C177.79,117.46,130.27,114.58,99.75,117.23Z"/><path class="cls-9" d="M150.91,106.12c0,1.14-4.27,2.06-9.54,2.06s-9.54-.92-9.54-2.06a.65.65,0,0,1,.24-.46c1-.91,4.76-1.59,9.3-1.59,3.95,0,7.33.51,8.79,1.25C150.64,105.57,150.91,105.84,150.91,106.12Z"/><path class="cls-10" d="M150.16,105.34c0,1-4.08,1.76-9.12,1.76-4.46,0-8.17-.62-9-1.44,1-.91,4.76-1.59,9.3-1.59,3.95,0,7.33.51,8.79,1.25Z"/><path class="cls-11" d="M195.8,107.25c0,1-2.73,1.89-6.1,1.89-2.78,0-5.12-.58-5.86-1.37h0a.77.77,0,0,1-.23-.52.7.7,0,0,1,.15-.42c.62-.85,3-1.48,5.94-1.48a14.59,14.59,0,0,1,4.5.62,4,4,0,0,1,1.12.54A1,1,0,0,1,195.8,107.25Z"/><path class="cls-10" d="M194.45,106.5c0,1-2.73,1.89-6.1,1.89a14.71,14.71,0,0,1-4.51-.62h0a.77.77,0,0,1-.23-.52.7.7,0,0,1,.15-.42c.62-.85,3-1.48,5.94-1.48a14.59,14.59,0,0,1,4.5.62A.79.79,0,0,1,194.45,106.5Z"/><path class="cls-12" d="M225.8,112.72c0,.66-2.21,1.21-4.94,1.21-2.26,0-4.16-.37-4.75-.88h0a.44.44,0,0,1-.19-.33.38.38,0,0,1,.13-.28c.49-.54,2.46-.94,4.81-.94a14.58,14.58,0,0,1,3.65.4,3.78,3.78,0,0,1,.9.34C225.66,112.39,225.8,112.55,225.8,112.72Z"/><path class="cls-10" d="M224.71,112.24c0,.67-2.22,1.21-5,1.21a15,15,0,0,1-3.65-.4h0a.44.44,0,0,1-.19-.33.38.38,0,0,1,.13-.28c.49-.54,2.46-.94,4.81-.94a14.58,14.58,0,0,1,3.65.4A.46.46,0,0,1,224.71,112.24Z"/><path class="cls-13" d="M91.54,107.1c0,1.05,2.73,1.89,6.1,1.89,2.78,0,5.12-.58,5.86-1.37h0a.77.77,0,0,0,.23-.52.7.7,0,0,0-.15-.42c-.62-.85-3-1.48-5.94-1.48a14.59,14.59,0,0,0-4.5.62,4.18,4.18,0,0,0-1.12.54A1,1,0,0,0,91.54,107.1Z"/><path class="cls-10" d="M92.89,106.35c0,1.05,2.73,1.89,6.1,1.89a14.45,14.45,0,0,0,4.51-.62h0a.77.77,0,0,0,.23-.52.7.7,0,0,0-.15-.42c-.62-.85-3-1.48-5.94-1.48a14.59,14.59,0,0,0-4.5.62A.75.75,0,0,0,92.89,106.35Z"/><path class="cls-14" d="M55.94,112.48c0,.66,2.21,1.21,4.94,1.21,2.25,0,4.15-.38,4.75-.88h0a.48.48,0,0,0,.19-.33.38.38,0,0,0-.13-.28c-.5-.54-2.46-.94-4.81-.94a14.47,14.47,0,0,0-3.65.4,3.62,3.62,0,0,0-.9.34Q55.94,112.23,55.94,112.48Z"/><path class="cls-10" d="M57,112c0,.66,2.21,1.21,4.95,1.21a15.07,15.07,0,0,0,3.65-.4h0a.48.48,0,0,0,.19-.33.38.38,0,0,0-.13-.28c-.5-.54-2.46-.94-4.81-.94a14.47,14.47,0,0,0-3.65.4A.46.46,0,0,0,57,112Z"/><path class="cls-15" d="M260.58,84.3c-61.23-26.12-123.34-25-164.67-19.49-44.79,6-75.49,18.32-75.79,18.44l-.24-.58C20.19,82.55,51,70.2,95.81,64.2c41.41-5.54,103.65-6.65,165,19.52Z"/><path class="cls-5" d="M.13,96.9,0,96.29c.41-.09,42.58-8.92,143.54-8.92s138.85,8.83,139.22,8.92l-.14.61c-.37-.09-38.21-8.91-139.08-8.91S.55,96.81.13,96.9Z"/><path class="cls-15" d="M31.39,92.6,31,92.14c.17-.16,17.22-16,30-21.63l.26.57C48.53,76.7,31.56,92.44,31.39,92.6Z"/><path class="cls-15" d="M256.56,93.06C237,77,207.92,67.93,207.63,67.84l.18-.6c.3.09,29.51,9.21,49.14,25.33Z"/><path class="cls-16" d="M159.17,11.34s3.71,4.19,10.92,12l6.83.09s-3.76-6.43-14-12.13Z"/><path class="cls-16" d="M54.18,67.05S95.27,1.82,140.32,3.28s81.87,63.77,81.87,63.77S181.78,0,141.38,0C94.85,0,54.18,67.05,54.18,67.05Z"/><path class="cls-17" d="M83.85,59.59s23.92-15.27,57.79-16.92S200,59.1,200,59.1,140.48,46.42,83.85,59.59Z"/><path class="cls-16" d="M62.4,60.84s9.06-13.83,20.16-24L86.47,36S75.16,50.33,71.26,58.38Z"/><path class="cls-18" d="M52.67,69.52l1.95-3.1s103.45-30.84,167.57.63l1.9,3s-28.84-11.76-87.2-11.76S52.67,69.52,52.67,69.52Z"/><path class="cls-19" d="M64.41,90.74S134.11,84,240.22,92C240.22,92,166,86.55,64.41,90.74Z"/><path class="cls-20" d="M142.38,88.08a2,2,0,1,1-2-1.62A1.83,1.83,0,0,1,142.38,88.08Z"/><path class="cls-10" d="M142,88.08a1.59,1.59,0,1,1-1.56-1.28A1.44,1.44,0,0,1,142,88.08Z"/><path class="cls-21" d="M151.77,84.67c2.3,4.86-.65,10.32-6.58,12.21s-12.6-.53-14.9-5.39.65-10.32,6.58-12.21S149.47,79.81,151.77,84.67Z"/><path class="cls-22" d="M258.72,92.37a2,2,0,1,1-2-1.62A1.83,1.83,0,0,1,258.72,92.37Z"/><path class="cls-10" d="M258.3,92.37a1.59,1.59,0,1,1-1.56-1.28A1.45,1.45,0,0,1,258.3,92.37Z"/><path class="cls-23" d="M268.11,89c2.3,4.86-.65,10.32-6.58,12.21s-12.6-.54-14.9-5.39.65-10.32,6.58-12.21S265.81,84.1,268.11,89Z"/><path class="cls-24" d="M31.76,92.37a1.83,1.83,0,0,1-2,1.62,1.65,1.65,0,1,1,0-3.24A1.82,1.82,0,0,1,31.76,92.37Z"/><path class="cls-10" d="M31.34,92.37a1.59,1.59,0,1,1-1.56-1.28A1.45,1.45,0,0,1,31.34,92.37Z"/><path class="cls-25" d="M41.15,89c2.3,4.86-.64,10.32-6.58,12.21s-12.6-.54-14.9-5.39.65-10.32,6.58-12.21S38.86,84.1,41.15,89Z"/><g class="cls-26"><path class="cls-10" d="M135.08,74.82a1.45,1.45,0,0,0,.92.29,5.4,5.4,0,0,0,.58-.09l.54,0a3.44,3.44,0,0,0,.83-.13c.14,0,0-.11-.14-.14a2.37,2.37,0,0,0-.49-.09,5.39,5.39,0,0,1-.7,0l-.27,0H136C135.7,74.55,135.18,74.63,135.08,74.82Z"/><path class="cls-10" d="M138.78,75.28a.57.57,0,0,1-.3,0c0-.17.87-.23,1-.07s-.46.21-.74.15Z"/><path class="cls-10" d="M144.3,78.42c-.11-.09-.26-.17-.2-.26a.6.6,0,0,1,.34-.21,3.46,3.46,0,0,1,.71-.13,1.51,1.51,0,0,1,.37,0,1.57,1.57,0,0,1,1,.46.81.81,0,0,1,.21.31.63.63,0,0,0,.08.23c0,.06.09.12,0,.18a.71.71,0,0,1-.21.15,2.09,2.09,0,0,1-1,.19,2.55,2.55,0,0,1-1.47-.53C144,78.61,143.73,78.34,144.3,78.42Z"/><path class="cls-10" d="M143.39,77.6c.19,0,.25.05.36,0a.1.1,0,0,0,0-.16.85.85,0,0,0-.67-.13c-.12,0-.34.11-.35.17s.38.25.63.24Z"/><path class="cls-10" d="M149.93,74.19H151c.49,0,1,0,1.47,0s.7,0,1.05,0l.55,0-.14,0-.42-.07-.9-.18-.17,0-.18-.07a1.9,1.9,0,0,0-.36-.09,6.7,6.7,0,0,0-1,0l-.33,0h-.36a3.91,3.91,0,0,0-.71.11c-.26.06-.72.12-.79.26s.14.08.28.09l.5,0Z"/><path class="cls-10" d="M147.62,74.05c-.12,0-.35-.07-.31-.14s.3-.07.44-.06c.34,0,0,.19-.23.17Z"/><path class="cls-10" d="M149.75,72.76a1.71,1.71,0,0,0,.4,0c.21,0,.29-.08.3-.16s-.06-.2-.38-.23a1.7,1.7,0,0,0-.63.1.14.14,0,0,0-.11.1c0,.07.14.11.28.14Z"/><path class="cls-10" d="M159.5,70a2.14,2.14,0,0,1-.53-.57,1.9,1.9,0,0,1-.09-.53,2.94,2.94,0,0,0-.42-.71.57.57,0,0,1-.08-.64,1.22,1.22,0,0,1,.77-.41,6.18,6.18,0,0,1,.78-.09h.37l.23,0c.12,0,.12,0,.12.07s0,.14-.14.22a.83.83,0,0,0-.31.38,3.26,3.26,0,0,0-.18.38l-.12.38c0,.11-.09.22-.13.32s0,.22-.06.33a2.44,2.44,0,0,1,0,.27.51.51,0,0,0,0,.17.35.35,0,0,1,0,.13s0,.08,0,.12A.66.66,0,0,1,159.5,70Z"/><path class="cls-10" d="M157.47,68.87a.52.52,0,0,0,.2.07h.15a.2.2,0,0,0,.21-.22c0-.18-.14-.39-.47-.53a2.33,2.33,0,0,0-.91-.13.93.93,0,0,0-.77.37c-.09.15-.11.35.19.47a1.41,1.41,0,0,0,.39.08l.34,0a2.16,2.16,0,0,0,.44,0A.5.5,0,0,0,157.47,68.87Z"/><path class="cls-10" d="M157.51,67.78a.49.49,0,0,1-.25,0c-.09,0-.13,0-.1-.1s.25-.11.42-.08a.22.22,0,0,1,.17.12s-.08.1-.21.11Z"/><path class="cls-10" d="M147.38,66.37a.43.43,0,0,0,.28.14.69.69,0,0,0,.25,0,1.13,1.13,0,0,0,.55-.25.14.14,0,0,0,0-.22,2.18,2.18,0,0,0-.37-.15l-.35-.1a1.33,1.33,0,0,0-.69,0c-.22.06-.39.17-.37.27s.08.13.18.2S147,66.36,147.38,66.37Z"/><path class="cls-10" d="M148.42,66.74a.28.28,0,0,1,.11-.16c.07,0,.1,0,.17,0s.08.09.07.12-.05.08-.12.11-.15,0-.16,0Z"/><path class="cls-10" d="M156.6,71.66a.88.88,0,0,0,.51,0c.16-.06.13-.17,0-.23a.31.31,0,0,0-.2-.09c-.11,0-.23,0-.34,0-.26,0-.45-.1-.7,0-.1,0-.18.12-.16.18s.33.15.56.19Z"/><path class="cls-10" d="M166.27,79.93a.94.94,0,0,0,.43.31h.12a1.79,1.79,0,0,0,.61,0c.59-.12.52-.37.52-.59s.06-.53-.77-.43a4.58,4.58,0,0,0-1.25.26c-.13.07-.07.11,0,.18a1,1,0,0,0,.34.28Z"/><path class="cls-10" d="M225.71,95a.87.87,0,0,0,.43.31h.12a2.08,2.08,0,0,0,.61,0c.59-.12.52-.36.52-.59s.06-.53-.77-.42a4.6,4.6,0,0,0-1.25.25c-.13.08-.07.11,0,.18a1,1,0,0,0,.34.28Z"/><path class="cls-10" d="M167.22,77.23c-.17,0-.48-.09-.51-.18s.09-.1.19-.16a1.09,1.09,0,0,1,.9-.11c.17,0,.29.18.25.27a.64.64,0,0,1-.52.18Z"/><path class="cls-10" d="M114.4,65.93a2.18,2.18,0,0,0,.95,0,4.25,4.25,0,0,0,1-.17c.37-.13.28-.32.37-.49s.1-.21-.13-.32a3.79,3.79,0,0,0-.9-.3,10.42,10.42,0,0,0-3.61,0,3.25,3.25,0,0,0-1.72.61c-.19.26,0,.56.47.74a5,5,0,0,0,1.93.18l.48,0c.2,0,.41,0,.62,0A.66.66,0,0,0,114.4,65.93Z"/><path class="cls-10" d="M56.36,96.19a2.33,2.33,0,0,0,1,0,4.34,4.34,0,0,0,1-.17c.36-.13.27-.32.37-.49s.09-.21-.14-.32a3.71,3.71,0,0,0-.89-.3,10.47,10.47,0,0,0-3.62,0,3.25,3.25,0,0,0-1.72.61c-.19.26,0,.56.48.74a5,5,0,0,0,1.93.18l.48,0c.2,0,.41,0,.61,0A.69.69,0,0,0,56.36,96.19Z"/><path class="cls-10" d="M116.18,66.43a1.16,1.16,0,0,1,.73-.18,2.1,2.1,0,0,1,.43,0c.22,0,.45.15.42.24s-.36.18-.51.21a1.1,1.1,0,0,1-.54,0Z"/><path class="cls-10" d="M116.08,83.66a2,2,0,0,0,1.09-.08c.18-.12,0-.29-.2-.39a4.53,4.53,0,0,0-1.42-.31c-.48,0-1,.2-1,.38-.12.35,1.32.54,2,.56Z"/><path class="cls-10" d="M113.53,104.94a1.86,1.86,0,0,0,1.09-.08c.18-.11,0-.28-.19-.38a4.59,4.59,0,0,0-1.42-.31c-.49,0-1,.2-1.06.37-.11.36,1.32.55,2,.57Z"/><path class="cls-10" d="M120.27,83.9a2.43,2.43,0,0,1-.55.09c-.06,0-.08,0-.12,0s-.35-.1-.39-.18.09-.32.48-.4a1.32,1.32,0,0,1,.74,0c.23.1.34.29,0,.39Z"/><path class="cls-10" d="M168.89,68.23a8.3,8.3,0,0,0,2.06,0,2.57,2.57,0,0,0,1.23-.25c.46-.43-1.94-.77-2.71-.85a11.63,11.63,0,0,0-2.05-.05,4.41,4.41,0,0,0-1.41.3c-.26.2.06.42.46.54a20.67,20.67,0,0,0,3.16.34Z"/><path class="cls-10" d="M168.74,68.45s.06.25.17.31a.85.85,0,0,0,.36.14,1.12,1.12,0,0,0,.54-.09c.09,0,.17-.1.12-.15a.76.76,0,0,0-.27-.1,3.51,3.51,0,0,0-.51-.11l-.26,0a1.46,1.46,0,0,0-.31,0Z"/><path class="cls-10" d="M174.6,68.7l.18-.15a1.33,1.33,0,0,1,.42,0,.13.13,0,0,1,0,.19.5.5,0,0,1-.35.1c-.2,0-.28-.07-.32-.14Z"/><path class="cls-10" d="M182.52,75.49a.92.92,0,0,0,.47,0c.22-.08.26-.2.08-.3a3,3,0,0,0-1.28-.23c-.27,0-.6.16-.43.27a1.22,1.22,0,0,0,.32.18,3,3,0,0,0,.78.11Z"/><path class="cls-10" d="M90,70.07a.85.85,0,0,0,.33.09,2,2,0,0,0,.55,0,1.06,1.06,0,0,0,.66-.45c.09-.14,0-.25-.17-.36a2.11,2.11,0,0,0-.93-.23,1.83,1.83,0,0,0-1,.15,1.21,1.21,0,0,0-.49.41c0,.13,0,.21.25.31A1.11,1.11,0,0,0,90,70.07Z"/><path class="cls-10" d="M91.29,68.92c-.11,0-.23,0-.26,0s.1-.17.21-.21a1.61,1.61,0,0,1,.41-.06.67.67,0,0,1,.24.08c.1,0,.12.11,0,.16a.42.42,0,0,1-.31.11Z"/><path class="cls-10" d="M77.41,72.42a1.75,1.75,0,0,0,.47,0,2.43,2.43,0,0,0,.62-.24c.21-.13.37-.28.33-.43s-.33-.21-.59-.23a3.58,3.58,0,0,0-1,.1c-.49.14-.88.39-.83.64S77.54,72.51,77.41,72.42Z"/><path class="cls-10" d="M79.92,71.21a.66.66,0,0,1-.26.07s-.16-.06-.2-.1,0-.1,0-.14a.72.72,0,0,1,.37-.09.34.34,0,0,1,.3.08c.06,0,.08,0,0,.1l-.16.08Z"/></g><ellipse class="cls-27" cx="142.38" cy="105.58" rx="23.32" ry="12.83"/><path class="cls-28" d="M106,107.87c0,2.54-3.76,4.61-8.38,4.61s-8.39-2.07-8.39-4.61,3.76-4.61,8.39-4.61S106,105.32,106,107.87Z"/><path class="cls-29" d="M228.69,112.47c0,2.55-3.75,4.61-8.38,4.61s-8.38-2.06-8.38-4.61,3.75-4.61,8.38-4.61S228.69,109.93,228.69,112.47Z"/></g></g></g></svg>