<svg width="79" height="33" viewBox="0 0 79 33" fill="none" xmlns="http://www.w3.org/2000/svg">
<g clip-path="url(#clip0_1_939)">
<path d="M19.98 2.24609V12.9609L29.0358 17.0084L19.98 2.24609Z" fill="white" fill-opacity="0.602"/>
<path d="M19.9786 2.24609L10.9175 17.0084L19.9786 12.9609V2.24609Z" fill="white"/>
<path d="M19.98 23.9546V31.236L29.041 18.6943L19.98 23.9546Z" fill="white" fill-opacity="0.602"/>
<path d="M19.9786 31.2356V23.9542L10.9175 18.6992L19.9786 31.2356Z" fill="white"/>
<path d="M19.98 22.2674L29.0358 17.0072L19.98 12.9648V22.2674Z" fill="white" fill-opacity="0.2"/>
<path d="M10.9175 17.0072L19.9786 22.2674V12.9648L10.9175 17.0072Z" fill="white" fill-opacity="0.602"/>
<path d="M42.1558 10.2038V13.4678H45.9958V14.9558H42.1558V18.3638H46.4758V19.8518H40.3318V8.71582H46.4758V10.2038H42.1558ZM55.9065 8.73182V10.2198H52.9465V19.8518H51.1225V10.2198H48.1465V8.73182H55.9065ZM66.6337 8.73182V19.8518H64.8097V14.9878H59.5777V19.8518H57.7537V8.73182H59.5777V13.4998H64.8097V8.73182H66.6337Z" fill="white"/>
<path d="M41.8969 25.5503C42.1221 25.5859 42.3265 25.6778 42.5102 25.8259C42.6998 25.9741 42.848 26.1578 42.9547 26.377C43.0673 26.5963 43.1236 26.8303 43.1236 27.0792C43.1236 27.3934 43.0436 27.6778 42.8836 27.9326C42.7236 28.1814 42.4895 28.38 42.1813 28.5281C41.8791 28.6703 41.5206 28.7414 41.1058 28.7414H38.7947V22.5459H41.0169C41.4376 22.5459 41.7962 22.617 42.0925 22.7592C42.3887 22.8956 42.6109 23.0822 42.7591 23.3192C42.9073 23.5563 42.9813 23.823 42.9813 24.1192C42.9813 24.4867 42.8806 24.7918 42.6791 25.0348C42.4836 25.2718 42.2229 25.4437 41.8969 25.5503ZM39.6036 25.2214H40.9636C41.3429 25.2214 41.6362 25.1326 41.8436 24.9548C42.0509 24.777 42.1547 24.5311 42.1547 24.217C42.1547 23.903 42.0509 23.657 41.8436 23.4792C41.6362 23.3014 41.3369 23.2126 40.9458 23.2126H39.6036V25.2214ZM41.0347 28.0748C41.4376 28.0748 41.7517 27.98 41.9769 27.7903C42.2021 27.6007 42.3147 27.337 42.3147 26.9992C42.3147 26.6556 42.1962 26.3859 41.9591 26.1903C41.7221 25.9889 41.4051 25.8881 41.008 25.8881H39.6036V28.0748H41.0347ZM45.0549 23.2037V25.2748H47.3127V25.9414H45.0549V28.0748H47.5794V28.7414H44.2461V22.537H47.5794V23.2037H45.0549ZM52.9456 24.3592C52.9456 24.8748 52.7678 25.3045 52.4123 25.6481C52.0626 25.9859 51.5263 26.1548 50.8034 26.1548H49.6123V28.7414H48.8034V22.5459H50.8034C51.5026 22.5459 52.033 22.7148 52.3945 23.0526C52.7619 23.3903 52.9456 23.8259 52.9456 24.3592ZM50.8034 25.4881C51.2537 25.4881 51.5856 25.3903 51.7989 25.1948C52.0123 24.9992 52.1189 24.7207 52.1189 24.3592C52.1189 23.5948 51.6804 23.2126 50.8034 23.2126H49.6123V25.4881H50.8034ZM57.3287 25.1414V25.8259H53.7821V25.1414H57.3287ZM58.6157 28.0926C59.3682 27.4881 59.9579 26.9934 60.3845 26.6081C60.8112 26.217 61.1697 25.8111 61.4601 25.3903C61.7564 24.9637 61.9045 24.5459 61.9045 24.137C61.9045 23.7518 61.8097 23.4496 61.6201 23.2303C61.4364 23.0052 61.1371 22.8926 60.7223 22.8926C60.3193 22.8926 60.0053 23.02 59.7801 23.2748C59.5608 23.5237 59.4423 23.8585 59.4245 24.2792H58.6423C58.666 23.6156 58.8675 23.103 59.2468 22.7414C59.626 22.38 60.1149 22.1992 60.7134 22.1992C61.3237 22.1992 61.8068 22.3681 62.1623 22.7059C62.5237 23.0437 62.7045 23.5089 62.7045 24.1014C62.7045 24.5934 62.5564 25.0734 62.2601 25.5414C61.9697 26.0037 61.6379 26.4126 61.2645 26.7681C60.8912 27.1178 60.4141 27.5267 59.8334 27.9948H62.8912V28.6703H58.6157V28.0926ZM63.8262 25.4614C63.8262 24.4422 63.9922 23.6481 64.324 23.0792C64.6559 22.5045 65.2366 22.217 66.0662 22.217C66.89 22.217 67.4677 22.5045 67.7996 23.0792C68.1315 23.6481 68.2973 24.4422 68.2973 25.4614C68.2973 26.4985 68.1315 27.3045 67.7996 27.8792C67.4677 28.4541 66.89 28.7414 66.0662 28.7414C65.2366 28.7414 64.6559 28.4541 64.324 27.8792C63.9922 27.3045 63.8262 26.4985 63.8262 25.4614ZM67.4973 25.4614C67.4973 24.9459 67.4618 24.5103 67.3907 24.1548C67.3255 23.7934 67.1862 23.503 66.9729 23.2837C66.7655 23.0645 66.4633 22.9548 66.0662 22.9548C65.6633 22.9548 65.3551 23.0645 65.1418 23.2837C64.9344 23.503 64.7951 23.7934 64.724 24.1548C64.6589 24.5103 64.6262 24.9459 64.6262 25.4614C64.6262 25.9948 64.6589 26.4422 64.724 26.8037C64.7951 27.1652 64.9344 27.4556 65.1418 27.6748C65.3551 27.8941 65.6633 28.0037 66.0662 28.0037C66.4633 28.0037 66.7655 27.8941 66.9729 27.6748C67.1862 27.4556 67.3255 27.1652 67.3907 26.8037C67.4618 26.4422 67.4973 25.9948 67.4973 25.4614Z" fill="white"/>
</g>
<defs>
<clipPath id="clip0_1_939">
<rect width="78" height="32" fill="white" transform="translate(0.97998 0.419922)"/>
</clipPath>
</defs>
</svg>
