<svg width="79" height="33" viewBox="0 0 79 33" fill="none" xmlns="http://www.w3.org/2000/svg">
<g clip-path="url(#clip0_1_965)">
<path d="M18.3134 19.5842C18.3134 17.3187 16.9552 16.5419 14.2388 16.2184C12.2984 15.9594 11.9104 15.4416 11.9104 14.5353C11.9104 13.629 12.5572 13.0465 13.8507 13.0465C15.0149 13.0465 15.6617 13.4349 15.985 14.4059C16.0497 14.6001 16.2438 14.7295 16.4378 14.7295H17.4726C17.7313 14.7295 17.9253 14.5353 17.9253 14.2765V14.2117C17.6665 12.7875 16.5023 11.6872 15.0149 11.5578V10.0043C15.0149 9.74529 14.8208 9.55115 14.4975 9.48633H13.5274C13.2686 9.48633 13.0746 9.68055 13.0098 10.0043V11.493C11.0694 11.7521 9.84078 13.0465 9.84078 14.6648C9.84078 16.801 11.1342 17.6423 13.8507 17.9661C15.6617 18.2897 16.2438 18.678 16.2438 19.7138C16.2438 20.7495 15.3381 21.4615 14.1095 21.4615C12.4277 21.4615 11.8456 20.7494 11.6516 19.7784C11.587 19.5196 11.393 19.39 11.199 19.39H10.0993C9.84077 19.39 9.64673 19.5842 9.64673 19.8432V19.908C9.90526 21.5261 10.9402 22.6912 13.0746 23.0151V24.5686C13.0746 24.8274 13.2686 25.0215 13.5919 25.0863H14.562C14.8208 25.0863 15.0149 24.8921 15.0796 24.5686V23.0151C17.0199 22.6912 18.3134 21.3319 18.3134 19.5842Z" fill="white"/>
<path d="M10.5516 26.3215C5.30797 24.428 2.61893 18.5442 4.56858 13.3365C5.57695 10.496 7.79538 8.3319 10.5516 7.31744C10.8205 7.18226 10.9549 6.97936 10.9549 6.64106V5.69431C10.9549 5.42374 10.8205 5.22084 10.5516 5.15332C10.4842 5.15332 10.3499 5.15332 10.2826 5.22084C3.89625 7.24973 0.400498 14.0806 2.41725 20.5054C3.62727 24.2926 6.51803 27.2008 10.2826 28.4181C10.5516 28.5533 10.8205 28.4181 10.8876 28.1475C10.9549 28.08 10.9549 28.0123 10.9549 27.8771V26.9302C10.9549 26.7273 10.7532 26.4569 10.5516 26.3215ZM17.6775 5.22084C17.4085 5.08563 17.1395 5.22084 17.0725 5.49142C17.0051 5.5591 17.0051 5.62662 17.0051 5.762V6.70877C17.0051 6.97936 17.2068 7.24974 17.4085 7.38515C22.6521 9.27865 25.3411 15.1625 23.3914 20.3702C22.383 23.2107 20.1646 25.3747 17.4085 26.3893C17.1395 26.5244 17.0051 26.7273 17.0051 27.0656V28.0123C17.0051 28.2829 17.1395 28.4858 17.4085 28.5533C17.4758 28.5533 17.6101 28.5533 17.6775 28.4858C24.0638 26.4569 27.5596 19.6261 25.5428 13.2013C24.3327 9.34635 21.3747 6.43817 17.6775 5.22084Z" fill="white"/>
<path d="M37.9014 8.92263V15.8335C37.9014 16.6551 38.1146 17.2739 38.541 17.6899C38.9778 18.1059 39.581 18.3139 40.3506 18.3139C41.1306 18.3139 41.7338 18.1059 42.1602 17.6899C42.597 17.2739 42.8154 16.6551 42.8154 15.8335V8.92263H44.5938V15.8023C44.5938 16.6863 44.4014 17.4351 44.0166 18.0487C43.6318 18.6623 43.117 19.1199 42.4722 19.4215C41.8274 19.7231 41.115 19.8739 40.335 19.8739C39.555 19.8739 38.8426 19.7231 38.1978 19.4215C37.5634 19.1199 37.059 18.6623 36.6846 18.0487C36.3102 17.4351 36.123 16.6863 36.123 15.8023V8.92263H37.9014ZM50.4817 19.8739C49.7537 19.8739 49.0985 19.7491 48.5161 19.4995C47.9337 19.2395 47.4761 18.8755 47.1433 18.4075C46.8105 17.9395 46.6441 17.3935 46.6441 16.7695H48.5473C48.5889 17.2375 48.7709 17.6223 49.0933 17.9239C49.4261 18.2255 49.8889 18.3763 50.4817 18.3763C51.0953 18.3763 51.5737 18.2307 51.9169 17.9395C52.2601 17.6379 52.4317 17.2531 52.4317 16.7851C52.4317 16.4211 52.3225 16.1247 52.1041 15.8959C51.8961 15.6671 51.6309 15.4903 51.3085 15.3655C50.9965 15.2407 50.5597 15.1055 49.9981 14.9599C49.2909 14.7727 48.7137 14.5855 48.2665 14.3983C47.8297 14.2007 47.4553 13.8991 47.1433 13.4935C46.8313 13.0879 46.6753 12.5471 46.6753 11.8711C46.6753 11.2471 46.8313 10.7011 47.1433 10.2331C47.4553 9.76505 47.8921 9.40623 48.4537 9.15663C49.0153 8.90703 49.6653 8.78223 50.4037 8.78223C51.4541 8.78223 52.3121 9.04743 52.9777 9.57785C53.6537 10.0979 54.0281 10.8155 54.1009 11.7307H52.1353C52.1041 11.3355 51.9169 10.9975 51.5737 10.7167C51.2305 10.4359 50.7781 10.2955 50.2165 10.2955C49.7069 10.2955 49.2909 10.4255 48.9685 10.6855C48.6461 10.9455 48.4849 11.3199 48.4849 11.8087C48.4849 12.1415 48.5837 12.4171 48.7813 12.6355C48.9893 12.8435 49.2493 13.0099 49.5613 13.1347C49.8733 13.2595 50.2997 13.3947 50.8405 13.5403C51.5581 13.7379 52.1405 13.9355 52.5877 14.1331C53.0453 14.3307 53.4301 14.6375 53.7421 15.0535C54.0645 15.4591 54.2257 16.0051 54.2257 16.6915C54.2257 17.2427 54.0749 17.7627 53.7733 18.2515C53.4821 18.7403 53.0505 19.1355 52.4785 19.4371C51.9169 19.7283 51.2513 19.8739 50.4817 19.8739ZM59.8654 8.92263C61.0198 8.92263 62.0286 9.14623 62.8918 9.59345C63.7654 10.0303 64.4362 10.6647 64.9042 11.4967C65.3826 12.3183 65.6218 13.2803 65.6218 14.3827C65.6218 15.4851 65.3826 16.4419 64.9042 17.2531C64.4362 18.0643 63.7654 18.6883 62.8918 19.1251C62.0286 19.5515 61.0198 19.7647 59.8654 19.7647H56.3242V8.92263H59.8654ZM59.8654 18.3139C61.1342 18.3139 62.1066 17.9707 62.7826 17.2843C63.4586 16.5979 63.7966 15.6307 63.7966 14.3827C63.7966 13.1243 63.4586 12.1415 62.7826 11.4343C62.1066 10.7271 61.1342 10.3735 59.8654 10.3735H58.1026V18.3139H59.8654ZM66.7915 14.3203C66.7915 13.2595 67.0359 12.3079 67.5247 11.4655C68.0239 10.6231 68.6947 9.96785 69.5371 9.49985C70.3899 9.02143 71.3207 8.78223 72.3295 8.78223C73.4839 8.78223 74.5083 9.06823 75.4027 9.64025C76.3075 10.2019 76.9627 11.0027 77.3683 12.0427H75.2311C74.9503 11.4707 74.5603 11.0443 74.0611 10.7635C73.5619 10.4827 72.9847 10.3423 72.3295 10.3423C71.6119 10.3423 70.9723 10.5035 70.4107 10.8259C69.8491 11.1483 69.4071 11.6111 69.0847 12.2143C68.7727 12.8175 68.6167 13.5195 68.6167 14.3203C68.6167 15.1211 68.7727 15.8231 69.0847 16.4263C69.4071 17.0295 69.8491 17.4975 70.4107 17.8303C70.9723 18.1527 71.6119 18.3139 72.3295 18.3139C72.9847 18.3139 73.5619 18.1735 74.0611 17.8927C74.5603 17.6119 74.9503 17.1855 75.2311 16.6135H77.3683C76.9627 17.6535 76.3075 18.4543 75.4027 19.0159C74.5083 19.5775 73.4839 19.8583 72.3295 19.8583C71.3103 19.8583 70.3795 19.6243 69.5371 19.1563C68.6947 18.6779 68.0239 18.0175 67.5247 17.1751C67.0359 16.3327 66.7915 15.3811 66.7915 14.3203Z" fill="white"/>
<path d="M44.4607 25.3201C44.6802 25.3547 44.8796 25.4443 45.0587 25.5887C45.2436 25.7331 45.388 25.9123 45.492 26.1261C45.6018 26.3398 45.6567 26.5681 45.6567 26.8107C45.6567 27.1169 45.5787 27.3943 45.4227 27.6427C45.2667 27.8854 45.0384 28.0789 44.738 28.2234C44.4434 28.3621 44.0938 28.4314 43.6894 28.4314H41.436V22.3907H43.6027C44.0129 22.3907 44.3624 22.4601 44.6514 22.5987C44.9402 22.7316 45.1569 22.9136 45.3014 23.1447C45.4458 23.3758 45.518 23.6358 45.518 23.9247C45.518 24.2829 45.4198 24.5805 45.2234 24.8174C45.0327 25.0485 44.7784 25.2161 44.4607 25.3201ZM42.2247 24.9994H43.5507C43.9204 24.9994 44.2064 24.9127 44.4087 24.7394C44.6109 24.5661 44.712 24.3263 44.712 24.0201C44.712 23.7138 44.6109 23.4741 44.4087 23.3007C44.2064 23.1274 43.9147 23.0407 43.5334 23.0407H42.2247V24.9994ZM43.62 27.7814C44.0129 27.7814 44.3191 27.6889 44.5387 27.5041C44.7582 27.3191 44.868 27.0621 44.868 26.7327C44.868 26.3976 44.7524 26.1347 44.5214 25.9441C44.2902 25.7476 43.9811 25.6494 43.594 25.6494H42.2247V27.7814H43.62ZM47.5398 23.0321V25.0514H49.7411V25.7014H47.5398V27.7814H50.0011V28.4314H46.7511V22.3821H50.0011V23.0321H47.5398ZM55.2331 24.1587C55.2331 24.6614 55.0598 25.0803 54.7131 25.4154C54.3723 25.7447 53.8494 25.9094 53.1444 25.9094H51.9831V28.4314H51.1944V22.3907H53.1444C53.8262 22.3907 54.3434 22.5554 54.6958 22.8847C55.0541 23.2141 55.2331 23.6387 55.2331 24.1587ZM53.1444 25.2594C53.5836 25.2594 53.9071 25.1641 54.1151 24.9734C54.3231 24.7827 54.4271 24.5111 54.4271 24.1587C54.4271 23.4134 53.9996 23.0407 53.1444 23.0407H51.9831V25.2594H53.1444ZM59.5066 24.9214V25.5887H56.0486V24.9214H59.5066ZM60.7615 27.7987C61.4952 27.2094 62.0702 26.7269 62.4862 26.3514C62.9022 25.9701 63.2517 25.5743 63.5348 25.1641C63.8237 24.7481 63.9682 24.3407 63.9682 23.9421C63.9682 23.5665 63.8757 23.2718 63.6908 23.0581C63.5117 22.8385 63.2199 22.7287 62.8155 22.7287C62.4225 22.7287 62.1164 22.8529 61.8968 23.1014C61.683 23.3441 61.5675 23.6705 61.5502 24.0807H60.7875C60.8105 23.4336 61.007 22.9338 61.3768 22.5814C61.7465 22.2289 62.2232 22.0527 62.8068 22.0527C63.4019 22.0527 63.8728 22.2174 64.2195 22.5467C64.5719 22.8761 64.7482 23.3296 64.7482 23.9074C64.7482 24.3869 64.6037 24.8549 64.3148 25.3114C64.0317 25.7621 63.7082 26.1607 63.3442 26.5074C62.9802 26.8483 62.515 27.2469 61.9488 27.7034H64.9302V28.3621H60.7615V27.7987ZM65.8418 25.2334C65.8418 24.2396 66.0036 23.4654 66.3271 22.9107C66.6507 22.3503 67.2169 22.0701 68.0258 22.0701C68.8289 22.0701 69.3923 22.3503 69.7158 22.9107C70.0393 23.4654 70.2011 24.2396 70.2011 25.2334C70.2011 26.2445 70.0393 27.0303 69.7158 27.5907C69.3923 28.1511 68.8289 28.4314 68.0258 28.4314C67.2169 28.4314 66.6507 28.1511 66.3271 27.5907C66.0036 27.0303 65.8418 26.2445 65.8418 25.2334ZM69.4211 25.2334C69.4211 24.7307 69.3865 24.3061 69.3171 23.9594C69.2536 23.6069 69.1178 23.3238 68.9098 23.1101C68.7076 22.8963 68.4129 22.7894 68.0258 22.7894C67.6329 22.7894 67.3325 22.8963 67.1245 23.1101C66.9223 23.3238 66.7865 23.6069 66.7171 23.9594C66.6536 24.3061 66.6218 24.7307 66.6218 25.2334C66.6218 25.7534 66.6536 26.1896 66.7171 26.5421C66.7865 26.8945 66.9223 27.1776 67.1245 27.3914C67.3325 27.6051 67.6329 27.7121 68.0258 27.7121C68.4129 27.7121 68.7076 27.6051 68.9098 27.3914C69.1178 27.1776 69.2536 26.8945 69.3171 26.5421C69.3865 26.1896 69.4211 25.7534 69.4211 25.2334Z" fill="white"/>
</g>
<defs>
<clipPath id="clip0_1_965">
<rect width="78" height="32" fill="white" transform="translate(0.97998 0.419922)"/>
</clipPath>
</defs>
</svg>
