<svg width="79" height="33" viewBox="0 0 79 33" fill="none" xmlns="http://www.w3.org/2000/svg">
<g clip-path="url(#clip0_1_950)">
<path d="M16.9373 12.9218V9.82543H24.0171V5.10742H4.73834V9.82543H11.8182V12.9161C6.06615 13.1817 1.73804 14.3173 1.73804 15.6847C1.73804 17.0521 6.06615 18.1878 11.8182 18.4534V28.3696H16.9373V18.459C22.678 18.1935 26.9948 17.0578 26.9948 15.6904C26.9948 14.3287 22.678 13.1873 16.9373 12.9218ZM16.9373 17.6172C16.7904 17.6228 16.0502 17.668 14.4003 17.668C13.0782 17.668 12.1515 17.6285 11.8238 17.6115V17.6172C6.74419 17.3911 2.94718 16.5097 2.94718 15.4475C2.94718 14.3852 6.73854 13.5037 11.8238 13.2777V16.7357C12.1572 16.7583 13.1064 16.8149 14.423 16.8149C15.9993 16.8149 16.796 16.747 16.943 16.7357V13.2777C22.0169 13.5037 25.8026 14.3909 25.8026 15.4475C25.7969 16.504 22.0112 17.3911 16.9373 17.6172Z" fill="white"/>
<path d="M39.2417 8.73091V15.8189C39.2417 16.6616 39.4604 17.2963 39.8977 17.7229C40.3457 18.1496 40.9644 18.3629 41.7537 18.3629C42.5537 18.3629 43.1724 18.1496 43.6097 17.7229C44.0577 17.2963 44.2817 16.6616 44.2817 15.8189V8.73091H46.1057V15.7869C46.1057 16.6936 45.9084 17.4616 45.5137 18.0909C45.1191 18.7203 44.5911 19.1896 43.9297 19.4989C43.2684 19.8083 42.5377 19.9629 41.7377 19.9629C40.9377 19.9629 40.2071 19.8083 39.5457 19.4989C38.8951 19.1896 38.3777 18.7203 37.9937 18.0909C37.6097 17.4616 37.4177 16.6936 37.4177 15.7869V8.73091H39.2417ZM52.1446 19.9629C51.3979 19.9629 50.7259 19.8349 50.1286 19.5789C49.5312 19.3123 49.0619 18.9389 48.7206 18.4589C48.3792 17.9789 48.2086 17.4189 48.2086 16.7789H50.1606C50.2032 17.2589 50.3899 17.6536 50.7206 17.9629C51.0619 18.2723 51.5366 18.4269 52.1446 18.4269C52.7739 18.4269 53.2646 18.2776 53.6166 17.9789C53.9686 17.6696 54.1446 17.2749 54.1446 16.7949C54.1446 16.4216 54.0326 16.1176 53.8086 15.8829C53.5952 15.6483 53.3232 15.4669 52.9926 15.3389C52.6726 15.2109 52.2246 15.0723 51.6486 14.9229C50.9232 14.7309 50.3312 14.5389 49.8726 14.3469C49.4246 14.1443 49.0406 13.8349 48.7206 13.4189C48.4006 13.0029 48.2406 12.4483 48.2406 11.7549C48.2406 11.1149 48.4006 10.5549 48.7206 10.0749C49.0406 9.59494 49.4886 9.22691 50.0646 8.97091C50.6406 8.71491 51.3072 8.58691 52.0646 8.58691C53.1419 8.58691 54.0219 8.85891 54.7046 9.40294C55.3979 9.93627 55.7819 10.6723 55.8566 11.6109H53.8406C53.8086 11.2056 53.6166 10.8589 53.2646 10.5709C52.9126 10.2829 52.4486 10.1389 51.8726 10.1389C51.3499 10.1389 50.9232 10.2723 50.5926 10.5389C50.2619 10.8056 50.0966 11.1896 50.0966 11.6909C50.0966 12.0323 50.1979 12.3149 50.4006 12.5389C50.6139 12.7523 50.8806 12.9229 51.2006 13.0509C51.5206 13.1789 51.9579 13.3176 52.5126 13.4669C53.2486 13.6696 53.8459 13.8723 54.3046 14.0749C54.7739 14.2776 55.1686 14.5923 55.4886 15.0189C55.8192 15.4349 55.9846 15.9949 55.9846 16.6989C55.9846 17.2643 55.8299 17.7976 55.5206 18.2989C55.2219 18.8003 54.7792 19.2056 54.1926 19.5149C53.6166 19.8136 52.9339 19.9629 52.1446 19.9629ZM61.7688 8.73091C62.9528 8.73091 63.9875 8.96025 64.8728 9.41894C65.7688 9.86694 66.4568 10.5176 66.9368 11.3709C67.4275 12.2136 67.6728 13.2003 67.6728 14.3309C67.6728 15.4616 67.4275 16.4429 66.9368 17.2749C66.4568 18.1069 65.7688 18.7469 64.8728 19.1949C63.9875 19.6323 62.9528 19.8509 61.7688 19.8509H58.1368V8.73091H61.7688ZM61.7688 18.3629C63.0702 18.3629 64.0675 18.0109 64.7608 17.3069C65.4542 16.6029 65.8008 15.6109 65.8008 14.3309C65.8008 13.0403 65.4542 12.0323 64.7608 11.3069C64.0675 10.5816 63.0702 10.2189 61.7688 10.2189H59.9608V18.3629H61.7688ZM76.6646 8.73091V10.2189H73.7046V19.8509H71.8806V10.2189H68.9046V8.73091H76.6646Z" fill="white"/>
<path d="M46.0734 25.5484C46.2986 25.5839 46.503 25.6758 46.6867 25.8239C46.8763 25.972 47.0245 26.1558 47.1312 26.375C47.2437 26.5942 47.3001 26.8284 47.3001 27.0773C47.3001 27.3913 47.2201 27.6758 47.0601 27.9306C46.9001 28.1795 46.6659 28.378 46.3579 28.5262C46.0556 28.6684 45.6971 28.7395 45.2823 28.7395H42.9712V22.5439H45.1934C45.6141 22.5439 45.9726 22.615 46.269 22.7573C46.5652 22.8935 46.7875 23.0802 46.9356 23.3173C47.0837 23.5542 47.1579 23.8209 47.1579 24.1173C47.1579 24.4846 47.0571 24.7898 46.8556 25.0328C46.6601 25.2698 46.3993 25.4417 46.0734 25.5484ZM43.7801 25.2195H45.1401C45.5193 25.2195 45.8126 25.1306 46.0201 24.9528C46.2275 24.775 46.3312 24.5291 46.3312 24.215C46.3312 23.9009 46.2275 23.655 46.0201 23.4773C45.8126 23.2995 45.5134 23.2106 45.1223 23.2106H43.7801V25.2195ZM45.2112 28.0728C45.6141 28.0728 45.9282 27.978 46.1534 27.7884C46.3786 27.5987 46.4912 27.335 46.4912 26.9973C46.4912 26.6535 46.3726 26.3839 46.1356 26.1884C45.8986 25.9869 45.5815 25.8862 45.1845 25.8862H43.7801V28.0728H45.2112ZM49.2315 23.2017V25.2728H51.4892V25.9395H49.2315V28.0728H51.7559V28.7395H48.4226V22.535H51.7559V23.2017H49.2315ZM57.122 24.3573C57.122 24.8728 56.9443 25.3024 56.5887 25.6462C56.2391 25.9839 55.7028 26.1528 54.9798 26.1528H53.7887V28.7395H52.9798V22.5439H54.9798C55.6791 22.5439 56.2095 22.7128 56.5709 23.0506C56.9384 23.3884 57.122 23.8239 57.122 24.3573ZM54.9798 25.4862C55.4302 25.4862 55.762 25.3884 55.9754 25.1928C56.1887 24.9973 56.2954 24.7187 56.2954 24.3573C56.2954 23.5928 55.8569 23.2106 54.9798 23.2106H53.7887V25.4862H54.9798ZM61.5051 25.1395V25.8239H57.9585V25.1395H61.5051ZM62.7922 28.0906C63.5447 27.4862 64.1344 26.9913 64.5611 26.6062C64.9877 26.215 65.3462 25.8091 65.6366 25.3884C65.9329 24.9617 66.0811 24.5439 66.0811 24.135C66.0811 23.7498 65.9862 23.4476 65.7966 23.2284C65.6129 23.0031 65.3136 22.8906 64.8988 22.8906C64.4958 22.8906 64.1818 23.018 63.9566 23.2728C63.7373 23.5217 63.6188 23.8565 63.6011 24.2773H62.8188C62.8425 23.6135 63.044 23.1009 63.4233 22.7395C63.8025 22.378 64.2914 22.1973 64.8899 22.1973C65.5003 22.1973 65.9833 22.3662 66.3388 22.7039C66.7003 23.0417 66.8811 23.5069 66.8811 24.0995C66.8811 24.5913 66.7329 25.0713 66.4366 25.5395C66.1462 26.0017 65.8144 26.4106 65.4411 26.7662C65.0677 27.1158 64.5907 27.5246 64.0099 27.9928H67.0677V28.6684H62.7922V28.0906ZM68.0027 25.4595C68.0027 24.4402 68.1687 23.6462 68.5005 23.0773C68.8324 22.5024 69.4132 22.215 70.2428 22.215C71.0665 22.215 71.6443 22.5024 71.9761 23.0773C72.3079 23.6462 72.4739 24.4402 72.4739 25.4595C72.4739 26.4965 72.3079 27.3024 71.9761 27.8773C71.6443 28.452 71.0665 28.7395 70.2428 28.7395C69.4132 28.7395 68.8324 28.452 68.5005 27.8773C68.1687 27.3024 68.0027 26.4965 68.0027 25.4595ZM71.6739 25.4595C71.6739 24.9439 71.6383 24.5084 71.5672 24.1528C71.502 23.7913 71.3627 23.5009 71.1494 23.2817C70.942 23.0624 70.6398 22.9528 70.2428 22.9528C69.8398 22.9528 69.5316 23.0624 69.3183 23.2817C69.1109 23.5009 68.9716 23.7913 68.9005 24.1528C68.8354 24.5084 68.8027 24.9439 68.8027 25.4595C68.8027 25.9928 68.8354 26.4402 68.9005 26.8017C68.9716 27.1631 69.1109 27.4535 69.3183 27.6728C69.5316 27.892 69.8398 28.0017 70.2428 28.0017C70.6398 28.0017 70.942 27.892 71.1494 27.6728C71.3627 27.4535 71.502 27.1631 71.5672 26.8017C71.6383 26.4402 71.6739 25.9928 71.6739 25.4595Z" fill="white"/>
</g>
<defs>
<clipPath id="clip0_1_950">
<rect width="78" height="32" fill="white" transform="translate(0.699951 0.419922)"/>
</clipPath>
</defs>
</svg>
