<svg xmlns="http://www.w3.org/2000/svg" xmlns:xlink="http://www.w3.org/1999/xlink" viewBox="0 0 162.15 51.28"><defs><style>.cls-1{isolation:isolate;}.cls-2{fill:url(#Áåçûìÿííûé_ãðàäèåíò_53);}.cls-3,.cls-4{opacity:0.5;}.cls-10,.cls-3,.cls-6,.cls-8,.cls-9{mix-blend-mode:multiply;}.cls-3{fill:url(#Áåçûìÿííûé_ãðàäèåíò_53-2);}.cls-4,.cls-5{mix-blend-mode:screen;}.cls-4{fill:url(#Áåçûìÿííûé_ãðàäèåíò_53-3);}.cls-10,.cls-5,.cls-6{fill:#3a195c;}.cls-6{opacity:0.1;}.cls-12,.cls-7{fill:#fff;}.cls-7{opacity:0.6;}.cls-8,.cls-9{fill:#282454;}.cls-10,.cls-8{opacity:0.2;}.cls-9{opacity:0.3;}.cls-11{opacity:0.61;}</style><linearGradient id="Áåçûìÿííûé_ãðàäèåíò_53" x1="81.08" x2="81.08" y2="51.28" gradientUnits="userSpaceOnUse"><stop offset="0" stop-color="#af47a5"/><stop offset="0.17" stop-color="#a847a5"/><stop offset="0.41" stop-color="#9547a5"/><stop offset="0.7" stop-color="#7547a5"/><stop offset="1" stop-color="#4e47a5"/></linearGradient><linearGradient id="Áåçûìÿííûé_ãðàäèåíò_53-2" x1="81.08" y1="7.31" x2="81.08" y2="38.31" xlink:href="#Áåçûìÿííûé_ãðàäèåíò_53"/><linearGradient id="Áåçûìÿííûé_ãðàäèåíò_53-3" x1="81.08" y1="5.66" x2="81.08" y2="39.97" xlink:href="#Áåçûìÿííûé_ãðàäèåíò_53"/></defs><g class="cls-1"><g id="Layer_2" data-name="Layer 2"><g id="Layer_2-2" data-name="Layer 2"><path class="cls-2" d="M162.15,8V43.28a8,8,0,0,1-8,8H8a8,8,0,0,1-8-8V8A7.93,7.93,0,0,1,3.48,1.41,7.85,7.85,0,0,1,8,0H154.15a8,8,0,0,1,8,8Z"/><path class="cls-3" d="M149,4.65H13.11a6,6,0,0,0-6,6V35.75a6,6,0,0,0,6,6H149a6.05,6.05,0,0,0,6-6V10.69A6.06,6.06,0,0,0,149,4.65Zm4.62,30.69A4.63,4.63,0,0,1,149,40H13.11a4.62,4.62,0,0,1-4.62-4.63V10.28a4.61,4.61,0,0,1,4.62-4.62H149a4.62,4.62,0,0,1,4.62,4.62Z"/><path class="cls-4" d="M153.66,10.28V35.34A4.63,4.63,0,0,1,149,40H13.11a4.62,4.62,0,0,1-4.62-4.63V10.28a4.61,4.61,0,0,1,4.62-4.62H149A4.62,4.62,0,0,1,153.66,10.28Z"/><path class="cls-5" d="M13.41,10.53C12,13.47,30.17,25.64,81.07,25.64S149.42,12.36,148,9.88,14.83,7.52,13.41,10.53Z"/><path class="cls-6" d="M153.66,23.48V35.34A4.63,4.63,0,0,1,149,40H13.11a4.62,4.62,0,0,1-4.62-4.63v-11C28.13,35.81,126.59,38,153.66,23.48Z"/><path class="cls-7" d="M153.66,10.28V23.22c-.49-6-1.34-14.24-2.36-15.55-.84-1.1-37.56-.88-73.18-.83-33.59,0-66.19-.15-67.3.83S9,13.46,8.49,18.58v-8.3a4.61,4.61,0,0,1,4.62-4.62H149A4.62,4.62,0,0,1,153.66,10.28Z"/><path class="cls-5" d="M159.51,2.08a45.4,45.4,0,0,0-6.41,4.16A6,6,0,0,0,149,4.65H13.11A6,6,0,0,0,9.22,6.08,50.77,50.77,0,0,0,3.48,1.41,7.85,7.85,0,0,1,8,0H154.15A7.9,7.9,0,0,1,159.51,2.08Z"/><path class="cls-8" d="M162.15,22.64V43.28A7.91,7.91,0,0,1,161,47.45a8.2,8.2,0,0,1-1.67,1.94,8,8,0,0,1-5.16,1.89H8a7.92,7.92,0,0,1-5.82-2.51,8.07,8.07,0,0,1-1.77-2.9A8.52,8.52,0,0,1,0,43.28v-19a12.49,12.49,0,0,0,7.07,1.15V35.75a6,6,0,0,0,6,6H149a6.05,6.05,0,0,0,6-6V24.85C157.91,25.63,160.72,23.8,162.15,22.64Z"/><path class="cls-9" d="M159.31,49.39a8,8,0,0,1-5.16,1.89H8a7.92,7.92,0,0,1-5.82-2.51,34,34,0,0,0,5.22-5c.95-1.1,1.75-2.16,2.38-3a5.88,5.88,0,0,0,3.32,1H149a5.9,5.9,0,0,0,3.31-1c.48.69,1,1.47,1.6,2.26A47.46,47.46,0,0,0,159.31,49.39Z"/><path class="cls-5" d="M43.81,12.8c1.3,5.27,48.28,3.25,50-.6S42.65,8.13,43.81,12.8Z"/><path class="cls-5" d="M99,12.62c.58,3.09,19.09,2.59,20.27,0S98.27,8.84,99,12.62Z"/><path class="cls-10" d="M159.31,49.39a8,8,0,0,1-5.16,1.89H8a7.92,7.92,0,0,1-5.82-2.51,34,34,0,0,0,5.22-5C8.91,48.57,31.4,48,79.88,48c49.93,0,71.87,0,74.07-4.92A47.46,47.46,0,0,0,159.31,49.39Z"/><g class="cls-11"><path d="M33,18a19.08,19.08,0,0,1,5.68-.85c3.6,0,6.34,1.12,6.34,3.29C45,21.86,44,22.86,42.4,24c2.47.23,4.19,1.29,4.19,3.46,0,3.54-5.4,5.23-9.94,5.23a15.44,15.44,0,0,1-2.82-.24Zm4.48,5.5c1.69-.06,3.08-.85,3.08-1.92,0-.92-.81-1.39-2-1.39a3,3,0,0,0-1.39.33Zm.71,5.79c1.84-.06,3.48-.73,3.48-1.88,0-.88-.78-1.19-1.9-1.19a4.78,4.78,0,0,0-1.86.35Z"/><path d="M60.47,17.32a29.7,29.7,0,0,1,.2,3.64c0,6.79-1.68,12.29-6.42,12.29-4.31,0-7-6.26-7-13.09a27,27,0,0,1,.16-2.84l5.38.45a24.56,24.56,0,0,0-.19,3.17c0,4.17.58,6.91,2.11,6.91S57,25.7,57,22.33a27.63,27.63,0,0,0-.49-5Z"/><path d="M65.9,32.76l.21-6.18-5.4-7,4.17-2.84,3.94,5.89,3-5.77,4,1.49-4.66,8.2.08,6.3Z"/><path d="M94.44,33.1l-5.58-8.67.36,8.26-4.37-.44L84.48,18.4l4.76-.9,4.05,7.71L93,17.42l5.13-.28L96.75,32.63Z"/><path d="M99.2,25c0-4.42,3.21-8.24,7.44-8.24s7.48,3.66,7.48,8.18c0,4.31-3.29,8.11-7.54,8.11S99.2,29.36,99.2,25Zm10.36.24c0-1.88-1.12-3.51-2.82-3.51a3.34,3.34,0,0,0-3.13,3.57c0,2,1,3.48,3.07,3.48C108.52,28.79,109.56,27.13,109.56,25.25Z"/><path d="M124,32.88l-1.79-6.24-1.84,6-3.19.5-2.83-15.56,4.32-.43,1.16,7.6,1.5-6.11,2.43,0,1.43,7,2.52-8.52,4.68,1.16-5.32,14.91Z"/></g><path class="cls-12" d="M31,17a19.08,19.08,0,0,1,5.68-.85c3.6,0,6.34,1.12,6.34,3.29C43,20.86,42,21.86,40.4,23c2.47.23,4.19,1.29,4.19,3.46,0,3.54-5.4,5.23-9.94,5.23a15.44,15.44,0,0,1-2.82-.24Zm4.48,5.5c1.69-.06,3.08-.85,3.08-1.92,0-.92-.81-1.39-2-1.39a3,3,0,0,0-1.39.33Zm.71,5.79c1.84-.06,3.48-.73,3.48-1.88,0-.88-.78-1.19-1.9-1.19a4.78,4.78,0,0,0-1.86.35Z"/><path class="cls-12" d="M58.47,16.32a29.7,29.7,0,0,1,.2,3.64c0,6.79-1.68,12.29-6.42,12.29-4.31,0-7-6.26-7-13.09a27,27,0,0,1,.16-2.84l5.38.45a24.56,24.56,0,0,0-.19,3.17c0,4.17.58,6.91,2.11,6.91S55,24.7,55,21.33a27.63,27.63,0,0,0-.49-5Z"/><path class="cls-12" d="M63.9,31.76l.21-6.18-5.4-7,4.17-2.84,3.94,5.89,3-5.77,4,1.49-4.66,8.2.08,6.3Z"/><path class="cls-12" d="M92.44,32.1l-5.58-8.67.36,8.26-4.37-.44L82.48,17.4l4.76-.9,4.05,7.71L91,16.42l5.13-.28L94.75,31.63Z"/><path class="cls-12" d="M97.2,24c0-4.42,3.21-8.24,7.44-8.24s7.48,3.66,7.48,8.18c0,4.31-3.29,8.11-7.54,8.11S97.2,28.36,97.2,24Zm10.36.24c0-1.88-1.12-3.51-2.82-3.51a3.34,3.34,0,0,0-3.13,3.57c0,2,1,3.48,3.07,3.48C106.52,27.79,107.56,26.13,107.56,24.25Z"/><path class="cls-12" d="M122,31.88l-1.79-6.24-1.84,6.05-3.19.5-2.83-15.56,4.32-.43,1.16,7.6,1.5-6.11,2.43,0,1.43,7,2.52-8.52,4.68,1.16-5.32,14.91Z"/></g></g></g></svg>